<?xml version="1.0" encoding="UTF-8"?>
<svg viewBox="0 0 708.6614 708.6614" xmlns="http://www.w3.org/2000/svg">
 <defs>
  <radialGradient id="b" cx="31.521" cy="322.44" r="144.88" gradientUnits="userSpaceOnUse">
   <stop stop-color="#dc7b33" offset="0"/>
   <stop stop-color="#dc5b00" offset=".59259"/>
   <stop stop-color="#ac4700" offset="1"/>
  </radialGradient>
  <radialGradient id="a" cx="-96.915" cy="1949.5" r="133.99" gradientTransform="scale(2.0665 .48391)" gradientUnits="userSpaceOnUse">
   <stop offset="0"/>
   <stop stop-opacity="0" offset="1"/>
  </radialGradient>
 </defs>
 <path transform="translate(567.29 -270.05)" d="m76.122 943.37a276.4 64.341 0 1 1 -552.79 0 276.4 64.341 0 1 1 552.79 0z" fill="url(#a)" opacity=".7"/>
 <g transform="matrix(1.162 0 0 1.162 -121.63 -86.019)" stroke-linecap="round" stroke-linejoin="round">
  <path transform="matrix(2.4318 0 0 2.4318 166.58 -583.94)" d="m212.75 396.31a115.53 120.62 0 1 1 -231.07 0 115.53 120.62 0 1 1 231.07 0z" fill="url(#b)" stroke="#aa4600" stroke-opacity=".85882" stroke-width="2.5"/>
  <path d="m124.26 410.76c222.87 141.68 587.97 70.839 557.45-70.294" fill="none" stroke="#000" stroke-width="10.037"/>
  <path d="m447.73 669.13c241.4-49.588 195.08-489.88-86.642-580.34" fill="none" stroke="#000" stroke-width="10.037"/>
  <path d="m280.85 643.71c101.08-50.95 283.49-59.805 279.54-180.03-3.7081-112.84-284.17-183.43-367.82-272.8" fill="none" stroke="#000" stroke-width="10.037"/>
  <path d="m643.26 530.92c-3.5419-29.698 3.9506-54.901 3.2695-101.56-1.6481-112.89 19.89-160.55-52.312-264.63" fill="none" stroke="#000" stroke-width="10.037"/>
 </g>
</svg>
