<?xml version="1.0" encoding="UTF-8"?>
<svg version="1.1" viewBox="0 0 2800 2800" xmlns="http://www.w3.org/2000/svg">
 <defs>
  <clipPath id="bb">
   <rect x="-2916.6" y="-39.867" width="5921.8" height="5921.8" fill="#ffd42a"/>
  </clipPath>
  <clipPath id="bc">
   <rect x="-2031.4" y="-39.867" width="5921.8" height="5921.8" fill="#ffd42a"/>
  </clipPath>
  <clipPath id="ac">
   <rect x="-3801.9" y="-39.867" width="5921.8" height="5921.8" fill="#ffd42a"/>
  </clipPath>
  <clipPath id="ad">
   <rect x="-1258.4" y="269.27" width="2799" height="2799" fill="#ffd42a"/>
  </clipPath>
  <clipPath id="ae">
   <rect x="-839.98" y="269.27" width="2799" height="2799" fill="#ffd42a"/>
  </clipPath>
  <clipPath id="af">
   <rect x="-1676.8" y="269.27" width="2799" height="2799" fill="#ffd42a"/>
  </clipPath>
  <clipPath id="ag">
   <rect x="-2916.6" y="-1571.6" width="5921.8" height="5921.8" fill="#ffd42a"/>
  </clipPath>
  <clipPath id="ah">
   <rect x="-3801.9" y="-1571.6" width="5921.8" height="5921.8" fill="#ffd42a"/>
  </clipPath>
  <clipPath id="ai">
   <rect x="-1258.4" y="-454.73" width="2799" height="2799" fill="#ffd42a"/>
  </clipPath>
  <clipPath id="aj">
   <rect x="-839.98" y="-454.73" width="2799" height="2799" fill="#ffd42a"/>
  </clipPath>
  <clipPath id="ak">
   <rect x="-1676.8" y="-454.73" width="2799" height="2799" fill="#ffd42a"/>
  </clipPath>
  <clipPath id="al">
   <rect x="-2916.6" y="-3103.4" width="5921.8" height="5921.8" fill="#ffd42a"/>
  </clipPath>
  <clipPath id="am">
   <rect x="-2031.4" y="-3103.4" width="5921.8" height="5921.8" fill="#ffd42a"/>
  </clipPath>
  <clipPath id="an">
   <rect x="-3801.9" y="-3103.4" width="5921.8" height="5921.8" fill="#ffd42a"/>
  </clipPath>
  <clipPath id="ao">
   <rect x="624.35" y="-4635.1" width="5921.8" height="5921.8" fill="#ffd42a"/>
  </clipPath>
  <clipPath id="ap">
   <rect x="-260.89" y="-4635.1" width="5921.8" height="5921.8" fill="#ffd42a"/>
  </clipPath>
  <clipPath id="aq">
   <rect x="1509.6" y="-4635.1" width="5921.8" height="5921.8" fill="#ffd42a"/>
  </clipPath>
  <clipPath id="ar">
   <rect x="-3.1469" y="-1902.7" width="2799" height="2799" fill="#ffd42a"/>
  </clipPath>
  <clipPath id="as">
   <rect x="-3.1469" y="-1902.7" width="2799" height="2799" fill="#ffd42a"/>
  </clipPath>
  <clipPath id="at">
   <rect x="833.69" y="-1178.7" width="2799" height="2799" fill="#ffd42a"/>
  </clipPath>
  <clipPath id="au">
   <rect x="1252.1" y="-1178.7" width="2799" height="2799" fill="#ffd42a"/>
  </clipPath>
  <clipPath id="av">
   <rect x="-2916.6" y="-4635.1" width="5921.8" height="5921.8" fill="#ffd42a"/>
  </clipPath>
  <clipPath id="aw">
   <rect x="-2031.4" y="-4635.1" width="5921.8" height="5921.8" fill="#ffd42a"/>
  </clipPath>
  <clipPath id="ax">
   <rect x="-3801.9" y="-4635.1" width="5921.8" height="5921.8" fill="#ffd42a"/>
  </clipPath>
  <clipPath id="ay">
   <rect x="-1258.4" y="-1178.7" width="2799" height="2799" fill="#ffd42a"/>
  </clipPath>
  <clipPath id="az">
   <rect x="-839.98" y="-1178.7" width="2799" height="2799" fill="#ffd42a"/>
  </clipPath>
  <clipPath id="ba">
   <rect x="-421.56" y="-1178.7" width="2799" height="2799" fill="#ffd42a"/>
  </clipPath>
  <clipPath id="bd">
   <rect x="-1676.8" y="-1178.7" width="2799" height="2799" fill="#ffd42a"/>
  </clipPath>
 </defs>
 <g transform="translate(0 1747.6)">
  <rect x=".5" y="-1747.1" width="2799" height="2799" fill="#ffd42a"/>
  <path d="m1121.1-1495c-38.103 0.4091-71.532 25.062-92.812 55.031-42.113 59.155-60.448 130.93-75.506 201.01-5.133 25.798-9.2994 51.784-12.712 77.863-13.688-2.0146-27.603-2.5324-41.438-2.1876-20.797-86.043-46.911-172.78-96.904-246.74-21.577-30.534-50.566-58.723-88.065-67.412-33.684-7.1064-68.506 4.7157-95.447 24.789-40.449 28.202-70.678 68.242-98.491 108.46-0.6426 1.8495-2.1226 4.3339-4.2187 2.5938-36.949-6.7304-75.862 23.45-77.208 61.278-2.6499 33.579 23.281 67.352 57.228 70.966 32.091 4.6356 66.384-16.405 73.855-48.525 5.361-20.23 1.3059-43.178-12.125-59.344 25.167-42.837 55.981-85.532 101.19-108.12 22.381-10.243 50.862-9.8228 70.673 5.9646 37.346 25.931 59.514 67.492 80.234 106.99 23.916 48.574 39.126 101.36 51.499 153.64-26.266 4.6553-51.742 15.619-73.656 30.969-9.3279 6.602-18.06 14.16-25.719 22.563-73.986 5.6138-139.2 66.8-148.81 140.53-8.6725 58.745 16.208 121.8 64.406 156.69 1.6141 1.2303 1.1382 6.0216-1.0938 3-14.229-10.155-29.677-18.732-44.534-28.049-68.064-40.581-140.61-75.572-218.62-91.942-39.911-7.5949-84.686-6.8896-119.35 16.523-31.981 22.147-47.736 60.698-54.062 98.062-7.8083 47.489-2.6092 96.697 10.723 142.71 18.939 63.379 57.522 123.06 114.58 158.17 55.821 33.696 125.84 39.889 188.26 23.212 45.129-10.93 87.81-30.241 127.75-53.594 5.5677 86.122 14.765 173 42.132 255.22 11.84 32.931 30.36 66.592 62.775 82.843 33.599 18.241 73.311 20.201 107.59 36.75 21.662 13.699 31.208 39.02 49.006 56.726 17.404 19.602 40.587 35.556 67.276 38.586 8.6445 2.331 21.132 2.4069 25-7.4688 3.0577-6.4426 0.2084-14.019-5.4305-17.894-21.288-23.537-38.407-54.193-35.882-87.012 5.3879-19.752 25.68-29.373 41.781-39.25 33.866-20.057 61.51-53.987 65.833-94.165 6.2679-42.779 2.0792-86.239 1.89-129.3-0.8889-33.306-2.0643-66.609-3.9415-99.875 57.75 34.519 123.8 58.98 191.97 57.375 63.442-2.2253 124.09-35.416 161.66-86.081 45.472-62.092 67.48-141.96 57.244-218.7-3.8997-28.329-11.334-57.364-30.002-79.716-15.673-20.182-38.948-33.921-64.31-37.69-44.703-8.0311-90.219 3.1845-132.42 17.5-64.452 22.406-124.72 55.001-182.7 90.656-0.1113-4.1329-0.339-9.4912 4.75-10.594 49.644-27.082 76.012-91.104 58.536-145.18-11.413-38.113-41.796-69.714-79.254-82.82-13.88-48.866-48.963-93.958-98.311-110.2-3.0375-1.0997-6.0598-2.2449-9.1887-3.1133 8.9847-60.471 18.886-121.45 42.979-177.99 15.304-38.251 35.238-76.777 67.333-103.33 17.525-13.179 41.425-17.456 62.188-10.062 36.111 10.518 63.841 37.75 88.562 64.75 9.1299 10.729 19.229 21.991 26 34.062-20.64 31.007-8.4744 78.73 25.315 94.918 29.567 15.864 70.992 5.8698 87.904-23.762 16.642-26.309 12.346-64.712-11.719-84.844-16.918-15.148-42.141-21.668-64.094-14.594-33.909-40.741-71.306-80.594-118.91-105.18-18.912-9.4155-39.789-16.201-61.18-15.668zm-478.59 283.03c-38.018 1.2674-69.162 34.849-74.25 71.437-4.7817 27.502 5.3513 55.845 23.219 76.719 14.258-54.178 66.31-96.958 123-96.5 5.0527-1.3895 1.1903-7.1134-1.1998-9.2081-15.637-22.191-39.577-42.112-68.144-42.479-0.8754-0.011-1.7502 0-2.625 0.031zm540.5 31.344c-31.806 0.5154-58.513 22.053-78.079 45.24-5.1398 4.1359-9.6881 13.178-3.2958 18.26 7.98 4.7899 16.092-2.7813 24.281-2.5625 26.464-4.2558 56.109 8.8526 67.438 33.812 11.861 21.859 13.993 47.119 16.062 71.5 37.621-25.883 55.483-79.116 36.656-121.59-10.636-24.769-35.099-45.237-63.062-44.656z" fill="#806600"/>
  <g transform="translate(1677.3 -568.41)" clip-path="url(#bd)">
   <g transform="matrix(.47266 0 0 .47266 329.38 650.25)">
    <path transform="matrix(1.0703 0 0 1.0703 -312.99 -1589.9)" d="m2401.5 1591.1-413.53 238.75-413.54-238.75v-477.51l413.54-238.75 413.53 238.75z" fill="#d4aa00"/>
    <path transform="translate(-173.17 -1494.8)" d="m2401.5 1591.1-413.53 238.75-413.54-238.75v-477.51l413.54-238.75 413.53 238.75z" fill="#fff6d5"/>
    <path transform="translate(0 -1747.6)" d="m1401.2 1366.4v477.5l413.53 238.75v-477.5l-413.53-238.75z" fill="#fea"/>
    <path d="m2228.3-381.23v477.5l-413.53 238.75v-477.5l413.53-238.75z" fill="#ffe680"/>
   </g>
  </g>
  <g transform="translate(422.06 -568.41)" clip-path="url(#ba)">
   <g transform="matrix(.47266 0 0 .47266 329.38 650.25)">
    <path transform="matrix(1.0703 0 0 1.0703 -312.99 -1589.9)" d="m2401.5 1591.1-413.53 238.75-413.54-238.75v-477.51l413.54-238.75 413.53 238.75z" fill="#d4aa00"/>
    <path transform="translate(-173.17 -1494.8)" d="m2401.5 1591.1-413.53 238.75-413.54-238.75v-477.51l413.54-238.75 413.53 238.75z" fill="#fff6d5"/>
    <path transform="translate(0 -1747.6)" d="m1401.2 1366.4v477.5l413.53 238.75v-477.5l-413.53-238.75z" fill="#fea"/>
    <path d="m2228.3-381.23v477.5l-413.53 238.75v-477.5l413.53-238.75z" fill="#ffe680"/>
   </g>
  </g>
  <g transform="translate(840.48 -568.41)" clip-path="url(#az)">
   <g transform="matrix(.47266 0 0 .47266 329.38 650.25)">
    <path transform="matrix(1.0703 0 0 1.0703 -312.99 -1589.9)" d="m2401.5 1591.1-413.53 238.75-413.54-238.75v-477.51l413.54-238.75 413.53 238.75z" fill="#d4aa00"/>
    <path transform="translate(-173.17 -1494.8)" d="m2401.5 1591.1-413.53 238.75-413.54-238.75v-477.51l413.54-238.75 413.53 238.75z" fill="#fff6d5"/>
    <path transform="translate(0 -1747.6)" d="m1401.2 1366.4v477.5l413.53 238.75v-477.5l-413.53-238.75z" fill="#fea"/>
    <path d="m2228.3-381.23v477.5l-413.53 238.75v-477.5l413.53-238.75z" fill="#ffe680"/>
   </g>
  </g>
  <g transform="translate(1258.9 -568.41)" clip-path="url(#ay)">
   <g transform="matrix(.47266 0 0 .47266 329.38 650.25)">
    <path transform="matrix(1.0703 0 0 1.0703 -312.99 -1589.9)" d="m2401.5 1591.1-413.53 238.75-413.54-238.75v-477.51l413.54-238.75 413.53 238.75z" fill="#d4aa00"/>
    <path transform="translate(-173.17 -1494.8)" d="m2401.5 1591.1-413.53 238.75-413.54-238.75v-477.51l413.54-238.75 413.53 238.75z" fill="#fff6d5"/>
    <path transform="translate(0 -1747.6)" d="m1401.2 1366.4v477.5l413.53 238.75v-477.5l-413.53-238.75z" fill="#fea"/>
    <path d="m2228.3-381.23v477.5l-413.53 238.75v-477.5l413.53-238.75z" fill="#ffe680"/>
   </g>
  </g>
  <g transform="matrix(.47266 0 0 .47266 1797.5 443.71)" clip-path="url(#ax)">
   <path transform="matrix(1.0703 0 0 1.0703 -312.99 -1589.9)" d="m2401.5 1591.1-413.53 238.75-413.54-238.75v-477.51l413.54-238.75 413.53 238.75z" fill="#d4aa00"/>
   <path transform="translate(-173.17 -1494.8)" d="m2401.5 1591.1-413.53 238.75-413.54-238.75v-477.51l413.54-238.75 413.53 238.75z" fill="#fff6d5"/>
   <path transform="translate(0 -1747.6)" d="m1401.2 1366.4v477.5l413.53 238.75v-477.5l-413.53-238.75z" fill="#fea"/>
   <path d="m2228.3-381.23v477.5l-413.53 238.75v-477.5l413.53-238.75z" fill="#ffe680"/>
  </g>
  <g transform="matrix(.47266 0 0 .47266 960.65 443.71)" clip-path="url(#aw)">
   <path transform="matrix(1.0703 0 0 1.0703 -312.99 -1589.9)" d="m2401.5 1591.1-413.53 238.75-413.54-238.75v-477.51l413.54-238.75 413.53 238.75z" fill="#d4aa00"/>
   <path transform="translate(-173.17 -1494.8)" d="m2401.5 1591.1-413.53 238.75-413.54-238.75v-477.51l413.54-238.75 413.53 238.75z" fill="#fff6d5"/>
   <path transform="translate(0 -1747.6)" d="m1401.2 1366.4v477.5l413.53 238.75v-477.5l-413.53-238.75z" fill="#fea"/>
   <path d="m2228.3-381.23v477.5l-413.53 238.75v-477.5l413.53-238.75z" fill="#ffe680"/>
  </g>
  <g transform="matrix(.47266 0 0 .47266 1379.1 443.71)" clip-path="url(#av)">
   <path transform="matrix(1.0703 0 0 1.0703 -312.99 -1589.9)" d="m2401.5 1591.1-413.53 238.75-413.54-238.75v-477.51l413.54-238.75 413.53 238.75z" fill="#d4aa00"/>
   <path transform="translate(-173.17 -1494.8)" d="m2401.5 1591.1-413.53 238.75-413.54-238.75v-477.51l413.54-238.75 413.53 238.75z" fill="#fff6d5"/>
   <path transform="translate(0 -1747.6)" d="m1401.2 1366.4v477.5l413.53 238.75v-477.5l-413.53-238.75z" fill="#fea"/>
   <path d="m2228.3-381.23v477.5l-413.53 238.75v-477.5l413.53-238.75z" fill="#ffe680"/>
  </g>
  <g transform="translate(-1251.6 -568.41)" clip-path="url(#au)">
   <g transform="matrix(.47266 0 0 .47266 329.38 650.25)">
    <path transform="matrix(1.0703 0 0 1.0703 -312.99 -1589.9)" d="m2401.5 1591.1-413.53 238.75-413.54-238.75v-477.51l413.54-238.75 413.53 238.75z" fill="#d4aa00"/>
    <path transform="translate(-173.17 -1494.8)" d="m2401.5 1591.1-413.53 238.75-413.54-238.75v-477.51l413.54-238.75 413.53 238.75z" fill="#fff6d5"/>
    <path transform="translate(0 -1747.6)" d="m1401.2 1366.4v477.5l413.53 238.75v-477.5l-413.53-238.75z" fill="#fea"/>
    <path d="m2228.3-381.23v477.5l-413.53 238.75v-477.5l413.53-238.75z" fill="#ffe680"/>
   </g>
  </g>
  <g transform="translate(-833.19 -568.41)" clip-path="url(#at)">
   <g transform="matrix(.47266 0 0 .47266 329.38 650.25)">
    <path transform="matrix(1.0703 0 0 1.0703 -312.99 -1589.9)" d="m2401.5 1591.1-413.53 238.75-413.54-238.75v-477.51l413.54-238.75 413.53 238.75z" fill="#d4aa00"/>
    <path transform="translate(-173.17 -1494.8)" d="m2401.5 1591.1-413.53 238.75-413.54-238.75v-477.51l413.54-238.75 413.53 238.75z" fill="#fff6d5"/>
    <path transform="translate(0 -1747.6)" d="m1401.2 1366.4v477.5l413.53 238.75v-477.5l-413.53-238.75z" fill="#fea"/>
    <path d="m2228.3-381.23v477.5l-413.53 238.75v-477.5l413.53-238.75z" fill="#ffe680"/>
   </g>
  </g>
  <g transform="translate(3.6469 155.59)" clip-path="url(#as)">
   <g transform="matrix(.47266 0 0 .47266 1793.8 1012.1)">
    <path transform="matrix(1.0703 0 0 1.0703 -312.99 -1589.9)" d="m2401.5 1591.1-413.53 238.75-413.54-238.75v-477.51l413.54-238.75 413.53 238.75z" fill="#d4aa00"/>
    <path transform="translate(-173.17 -1494.8)" d="m2401.5 1591.1-413.53 238.75-413.54-238.75v-477.51l413.54-238.75 413.53 238.75z" fill="#fff6d5"/>
    <path transform="translate(0 -1747.6)" d="m1401.2 1366.4v477.5l413.53 238.75v-477.5l-413.53-238.75z" fill="#fea"/>
    <path d="m2228.3-381.23v477.5l-413.53 238.75v-477.5l413.53-238.75z" fill="#ffe680"/>
   </g>
   <g transform="matrix(.47266 0 0 .47266 -716.67 1012.1)">
    <path transform="matrix(1.0703 0 0 1.0703 -312.99 -1589.9)" d="m2401.5 1591.1-413.53 238.75-413.54-238.75v-477.51l413.54-238.75 413.53 238.75z" fill="#d4aa00"/>
    <path transform="translate(-173.17 -1494.8)" d="m2401.5 1591.1-413.53 238.75-413.54-238.75v-477.51l413.54-238.75 413.53 238.75z" fill="#fff6d5"/>
    <path transform="translate(0 -1747.6)" d="m1401.2 1366.4v477.5l413.53 238.75v-477.5l-413.53-238.75z" fill="#fea"/>
    <path d="m2228.3-381.23v477.5l-413.53 238.75v-477.5l413.53-238.75z" fill="#ffe680"/>
   </g>
   <g transform="matrix(.47266 0 0 .47266 538.58 1012.1)">
    <path transform="matrix(1.0703 0 0 1.0703 -312.99 -1589.9)" d="m2401.5 1591.1-413.53 238.75-413.54-238.75v-477.51l413.54-238.75 413.53 238.75z" fill="#d4aa00"/>
    <path transform="translate(-173.17 -1494.8)" d="m2401.5 1591.1-413.53 238.75-413.54-238.75v-477.51l413.54-238.75 413.53 238.75z" fill="#fff6d5"/>
    <path transform="translate(0 -1747.6)" d="m1401.2 1366.4v477.5l413.53 238.75v-477.5l-413.53-238.75z" fill="#fea"/>
    <path d="m2228.3-381.23v477.5l-413.53 238.75v-477.5l413.53-238.75z" fill="#ffe680"/>
   </g>
   <g transform="matrix(.47266 0 0 .47266 957 1012.1)">
    <path transform="matrix(1.0703 0 0 1.0703 -312.99 -1589.9)" d="m2401.5 1591.1-413.53 238.75-413.54-238.75v-477.51l413.54-238.75 413.53 238.75z" fill="#d4aa00"/>
    <path transform="translate(-173.17 -1494.8)" d="m2401.5 1591.1-413.53 238.75-413.54-238.75v-477.51l413.54-238.75 413.53 238.75z" fill="#fff6d5"/>
    <path transform="translate(0 -1747.6)" d="m1401.2 1366.4v477.5l413.53 238.75v-477.5l-413.53-238.75z" fill="#fea"/>
    <path d="m2228.3-381.23v477.5l-413.53 238.75v-477.5l413.53-238.75z" fill="#ffe680"/>
   </g>
   <g transform="matrix(.47266 0 0 .47266 1375.4 1012.1)">
    <path transform="matrix(1.0703 0 0 1.0703 -312.99 -1589.9)" d="m2401.5 1591.1-413.53 238.75-413.54-238.75v-477.51l413.54-238.75 413.53 238.75z" fill="#d4aa00"/>
    <path transform="translate(-173.17 -1494.8)" d="m2401.5 1591.1-413.53 238.75-413.54-238.75v-477.51l413.54-238.75 413.53 238.75z" fill="#fff6d5"/>
    <path transform="translate(0 -1747.6)" d="m1401.2 1366.4v477.5l413.53 238.75v-477.5l-413.53-238.75z" fill="#fea"/>
    <path d="m2228.3-381.23v477.5l-413.53 238.75v-477.5l413.53-238.75z" fill="#ffe680"/>
   </g>
   <g transform="matrix(.47266 0 0 .47266 120.17 1012.1)">
    <path transform="matrix(1.0703 0 0 1.0703 -312.99 -1589.9)" d="m2401.5 1591.1-413.53 238.75-413.54-238.75v-477.51l413.54-238.75 413.53 238.75z" fill="#d4aa00"/>
    <path transform="translate(-173.17 -1494.8)" d="m2401.5 1591.1-413.53 238.75-413.54-238.75v-477.51l413.54-238.75 413.53 238.75z" fill="#fff6d5"/>
    <path transform="translate(0 -1747.6)" d="m1401.2 1366.4v477.5l413.53 238.75v-477.5l-413.53-238.75z" fill="#fea"/>
    <path d="m2228.3-381.23v477.5l-413.53 238.75v-477.5l413.53-238.75z" fill="#ffe680"/>
   </g>
   <g transform="matrix(.47266 0 0 .47266 -298.25 1012.1)">
    <path transform="matrix(1.0703 0 0 1.0703 -312.99 -1589.9)" d="m2401.5 1591.1-413.53 238.75-413.54-238.75v-477.51l413.54-238.75 413.53 238.75z" fill="#d4aa00"/>
    <path transform="translate(-173.17 -1494.8)" d="m2401.5 1591.1-413.53 238.75-413.54-238.75v-477.51l413.54-238.75 413.53 238.75z" fill="#fff6d5"/>
    <path transform="translate(0 -1747.6)" d="m1401.2 1366.4v477.5l413.53 238.75v-477.5l-413.53-238.75z" fill="#fea"/>
    <path d="m2228.3-381.23v477.5l-413.53 238.75v-477.5l413.53-238.75z" fill="#ffe680"/>
   </g>
  </g>
  <g transform="translate(3.6469 155.59)" clip-path="url(#ar)">
   <g transform="translate(-1255.3)">
    <g transform="matrix(.47266 0 0 .47266 329.38 650.25)">
     <path transform="matrix(1.0703 0 0 1.0703 -312.99 -1589.9)" d="m2401.5 1591.1-413.53 238.75-413.54-238.75v-477.51l413.54-238.75 413.53 238.75z" fill="#d4aa00"/>
     <path transform="translate(-173.17 -1494.8)" d="m2401.5 1591.1-413.53 238.75-413.54-238.75v-477.51l413.54-238.75 413.53 238.75z" fill="#fff6d5"/>
     <path transform="translate(0 -1747.6)" d="m1401.2 1366.4v477.5l413.53 238.75v-477.5l-413.53-238.75z" fill="#fea"/>
     <path d="m2228.3-381.23v477.5l-413.53 238.75v-477.5l413.53-238.75z" fill="#ffe680"/>
    </g>
   </g>
   <g transform="translate(1673.7)">
    <g transform="matrix(.47266 0 0 .47266 329.38 650.25)">
     <path transform="matrix(1.0703 0 0 1.0703 -312.99 -1589.9)" d="m2401.5 1591.1-413.53 238.75-413.54-238.75v-477.51l413.54-238.75 413.53 238.75z" fill="#d4aa00"/>
     <path transform="translate(-173.17 -1494.8)" d="m2401.5 1591.1-413.53 238.75-413.54-238.75v-477.51l413.54-238.75 413.53 238.75z" fill="#fff6d5"/>
     <path transform="translate(0 -1747.6)" d="m1401.2 1366.4v477.5l413.53 238.75v-477.5l-413.53-238.75z" fill="#fea"/>
     <path d="m2228.3-381.23v477.5l-413.53 238.75v-477.5l413.53-238.75z" fill="#ffe680"/>
    </g>
   </g>
   <g transform="translate(-418.42)">
    <g transform="matrix(.47266 0 0 .47266 329.38 650.25)">
     <path transform="matrix(1.0703 0 0 1.0703 -312.99 -1589.9)" d="m2401.5 1591.1-413.53 238.75-413.54-238.75v-477.51l413.54-238.75 413.53 238.75z" fill="#d4aa00"/>
     <path transform="translate(-173.17 -1494.8)" d="m2401.5 1591.1-413.53 238.75-413.54-238.75v-477.51l413.54-238.75 413.53 238.75z" fill="#fff6d5"/>
     <path transform="translate(0 -1747.6)" d="m1401.2 1366.4v477.5l413.53 238.75v-477.5l-413.53-238.75z" fill="#fea"/>
     <path d="m2228.3-381.23v477.5l-413.53 238.75v-477.5l413.53-238.75z" fill="#ffe680"/>
    </g>
   </g>
   <g transform="translate(-836.84)">
    <g transform="matrix(.47266 0 0 .47266 329.38 650.25)">
     <path transform="matrix(1.0703 0 0 1.0703 -312.99 -1589.9)" d="m2401.5 1591.1-413.53 238.75-413.54-238.75v-477.51l413.54-238.75 413.53 238.75z" fill="#d4aa00"/>
     <path transform="translate(-173.17 -1494.8)" d="m2401.5 1591.1-413.53 238.75-413.54-238.75v-477.51l413.54-238.75 413.53 238.75z" fill="#fff6d5"/>
     <path transform="translate(0 -1747.6)" d="m1401.2 1366.4v477.5l413.53 238.75v-477.5l-413.53-238.75z" fill="#fea"/>
     <path d="m2228.3-381.23v477.5l-413.53 238.75v-477.5l413.53-238.75z" fill="#ffe680"/>
    </g>
   </g>
   <g transform="matrix(.47266 0 0 .47266 329.38 650.25)">
    <path transform="matrix(1.0703 0 0 1.0703 -312.99 -1589.9)" d="m2401.5 1591.1-413.53 238.75-413.54-238.75v-477.51l413.54-238.75 413.53 238.75z" fill="#d4aa00"/>
    <path transform="translate(-173.17 -1494.8)" d="m2401.5 1591.1-413.53 238.75-413.54-238.75v-477.51l413.54-238.75 413.53 238.75z" fill="#fff6d5"/>
    <path transform="translate(0 -1747.6)" d="m1401.2 1366.4v477.5l413.53 238.75v-477.5l-413.53-238.75z" fill="#fea"/>
    <path d="m2228.3-381.23v477.5l-413.53 238.75v-477.5l413.53-238.75z" fill="#ffe680"/>
   </g>
   <g transform="translate(418.42)">
    <g transform="matrix(.47266 0 0 .47266 329.38 650.25)">
     <path transform="matrix(1.0703 0 0 1.0703 -312.99 -1589.9)" d="m2401.5 1591.1-413.53 238.75-413.54-238.75v-477.51l413.54-238.75 413.53 238.75z" fill="#d4aa00"/>
     <path transform="translate(-173.17 -1494.8)" d="m2401.5 1591.1-413.53 238.75-413.54-238.75v-477.51l413.54-238.75 413.53 238.75z" fill="#fff6d5"/>
     <path transform="translate(0 -1747.6)" d="m1401.2 1366.4v477.5l413.53 238.75v-477.5l-413.53-238.75z" fill="#fea"/>
     <path d="m2228.3-381.23v477.5l-413.53 238.75v-477.5l413.53-238.75z" fill="#ffe680"/>
    </g>
   </g>
   <g transform="translate(836.84)">
    <g transform="matrix(.47266 0 0 .47266 329.38 650.25)">
     <path transform="matrix(1.0703 0 0 1.0703 -312.99 -1589.9)" d="m2401.5 1591.1-413.53 238.75-413.54-238.75v-477.51l413.54-238.75 413.53 238.75z" fill="#d4aa00"/>
     <path transform="translate(-173.17 -1494.8)" d="m2401.5 1591.1-413.53 238.75-413.54-238.75v-477.51l413.54-238.75 413.53 238.75z" fill="#fff6d5"/>
     <path transform="translate(0 -1747.6)" d="m1401.2 1366.4v477.5l413.53 238.75v-477.5l-413.53-238.75z" fill="#fea"/>
     <path d="m2228.3-381.23v477.5l-413.53 238.75v-477.5l413.53-238.75z" fill="#ffe680"/>
    </g>
   </g>
   <g transform="translate(1255.3)">
    <g transform="matrix(.47266 0 0 .47266 329.38 650.25)">
     <path transform="matrix(1.0703 0 0 1.0703 -312.99 -1589.9)" d="m2401.5 1591.1-413.53 238.75-413.54-238.75v-477.51l413.54-238.75 413.53 238.75z" fill="#d4aa00"/>
     <path transform="translate(-173.17 -1494.8)" d="m2401.5 1591.1-413.53 238.75-413.54-238.75v-477.51l413.54-238.75 413.53 238.75z" fill="#fff6d5"/>
     <path transform="translate(0 -1747.6)" d="m1401.2 1366.4v477.5l413.53 238.75v-477.5l-413.53-238.75z" fill="#fea"/>
     <path d="m2228.3-381.23v477.5l-413.53 238.75v-477.5l413.53-238.75z" fill="#ffe680"/>
    </g>
   </g>
  </g>
  <g transform="matrix(.47266 0 0 .47266 -713.02 443.71)" clip-path="url(#aq)">
   <path transform="matrix(1.0703 0 0 1.0703 -312.99 -1589.9)" d="m2401.5 1591.1-413.53 238.75-413.54-238.75v-477.51l413.54-238.75 413.53 238.75z" fill="#d4aa00"/>
   <path transform="translate(-173.17 -1494.8)" d="m2401.5 1591.1-413.53 238.75-413.54-238.75v-477.51l413.54-238.75 413.53 238.75z" fill="#fff6d5"/>
   <path transform="translate(0 -1747.6)" d="m1401.2 1366.4v477.5l413.53 238.75v-477.5l-413.53-238.75z" fill="#fea"/>
   <path d="m2228.3-381.23v477.5l-413.53 238.75v-477.5l413.53-238.75z" fill="#ffe680"/>
  </g>
  <g transform="matrix(.47266 0 0 .47266 123.81 443.71)" clip-path="url(#ap)">
   <path transform="matrix(1.0703 0 0 1.0703 -312.99 -1589.9)" d="m2401.5 1591.1-413.53 238.75-413.54-238.75v-477.51l413.54-238.75 413.53 238.75z" fill="#d4aa00"/>
   <path transform="translate(-173.17 -1494.8)" d="m2401.5 1591.1-413.53 238.75-413.54-238.75v-477.51l413.54-238.75 413.53 238.75z" fill="#fff6d5"/>
   <path transform="translate(0 -1747.6)" d="m1401.2 1366.4v477.5l413.53 238.75v-477.5l-413.53-238.75z" fill="#fea"/>
   <path d="m2228.3-381.23v477.5l-413.53 238.75v-477.5l413.53-238.75z" fill="#ffe680"/>
  </g>
  <g transform="matrix(.47266 0 0 .47266 -294.6 443.71)" clip-path="url(#ao)">
   <path transform="matrix(1.0703 0 0 1.0703 -312.99 -1589.9)" d="m2401.5 1591.1-413.53 238.75-413.54-238.75v-477.51l413.54-238.75 413.53 238.75z" fill="#d4aa00"/>
   <path transform="translate(-173.17 -1494.8)" d="m2401.5 1591.1-413.53 238.75-413.54-238.75v-477.51l413.54-238.75 413.53 238.75z" fill="#fff6d5"/>
   <path transform="translate(0 -1747.6)" d="m1401.2 1366.4v477.5l413.53 238.75v-477.5l-413.53-238.75z" fill="#fea"/>
   <path d="m2228.3-381.23v477.5l-413.53 238.75v-477.5l413.53-238.75z" fill="#ffe680"/>
  </g>
  <path transform="translate(0 -1747.6)" d="m321.75 1355.2c-30.305 1.6067-53.726 23.656-76.062 41.75-40.514 33.053-82.439 68.071-134 81.625-33.918 6.6677-69.864-7.6908-91.906-33.75-6.7831-7.2016-13.03-15.132-19.281-23v430.62c43.76 9.2198 82.216 34.944 115.28 63.875 22.723 17.31 50 33.34 79.719 30.219 26.556-4.2526 45.831-25.388 61.688-45.531 22.708-26.908 41.383-58.569 71.938-77.406 9.4737-3.5311 18.795 3.484 23.25 11.406 18.604 24.881 25.968 55.97 38.094 84.219 13.024 34.609 28.94 68.04 47.156 100.12 18.343 45.028 12.124 95.518 0.65625 141.44-13.323 54.124-39.162 104.07-57.219 156.59-13.634 49.075-13.884 104.53 10.906 150.09 15.427 26.288 46.194 44.151 77.125 39.719 29.726-2.6887 58.637-15.813 79.406-37.281 18.721-22.128 22.776-53.065 18.844-81.094-4.848-51.903-19.6-102.31-26.469-153.97-7.0498-45.466-12.569-92.72-2.375-138.12 6.7228-24.705 23.411-46.055 44.938-59.719 31.411-22.744 70.489-36.304 94.75-67.625 15.774-22.821 16.358-53.188 7.0625-78.562-14.521-49.181-49.549-89.768-62.688-139.38-4.765-19.586-1.0111-40.12 7.2812-58.25 13.611-33.305 33.616-65.468 34.656-102.41 2.4375-35.193-5.6294-72.98-29.781-99.531-23.965-23.663-59.353-27.352-91.438-30-36.794-2.913-75.096-7.703-106.38-28.75-18.527-11.534-32.736-28.219-47.688-43.75-18.1-17.802-40.803-34.391-67.469-33.562z" fill="#c88400"/>
  <g transform="matrix(.47266 0 0 .47266 1797.5 -280.29)" clip-path="url(#an)">
   <path transform="matrix(1.0703 0 0 1.0703 -312.99 -1589.9)" d="m2401.5 1591.1-413.53 238.75-413.54-238.75v-477.51l413.54-238.75 413.53 238.75z" fill="#d4aa00"/>
   <path transform="translate(-173.17 -1494.8)" d="m2401.5 1591.1-413.53 238.75-413.54-238.75v-477.51l413.54-238.75 413.53 238.75z" fill="#fff6d5"/>
   <path transform="translate(0 -1747.6)" d="m1401.2 1366.4v477.5l413.53 238.75v-477.5l-413.53-238.75z" fill="#fea"/>
   <path d="m2228.3-381.23v477.5l-413.53 238.75v-477.5l413.53-238.75z" fill="#ffe680"/>
  </g>
  <g transform="matrix(.47266 0 0 .47266 960.65 -280.29)" clip-path="url(#am)">
   <path transform="matrix(1.0703 0 0 1.0703 -312.99 -1589.9)" d="m2401.5 1591.1-413.53 238.75-413.54-238.75v-477.51l413.54-238.75 413.53 238.75z" fill="#d4aa00"/>
   <path transform="translate(-173.17 -1494.8)" d="m2401.5 1591.1-413.53 238.75-413.54-238.75v-477.51l413.54-238.75 413.53 238.75z" fill="#fff6d5"/>
   <path transform="translate(0 -1747.6)" d="m1401.2 1366.4v477.5l413.53 238.75v-477.5l-413.53-238.75z" fill="#fea"/>
   <path d="m2228.3-381.23v477.5l-413.53 238.75v-477.5l413.53-238.75z" fill="#ffe680"/>
  </g>
  <g transform="matrix(.47266 0 0 .47266 1379.1 -280.29)" clip-path="url(#al)">
   <path transform="matrix(1.0703 0 0 1.0703 -312.99 -1589.9)" d="m2401.5 1591.1-413.53 238.75-413.54-238.75v-477.51l413.54-238.75 413.53 238.75z" fill="#d4aa00"/>
   <path transform="translate(-173.17 -1494.8)" d="m2401.5 1591.1-413.53 238.75-413.54-238.75v-477.51l413.54-238.75 413.53 238.75z" fill="#fff6d5"/>
   <path transform="translate(0 -1747.6)" d="m1401.2 1366.4v477.5l413.53 238.75v-477.5l-413.53-238.75z" fill="#fea"/>
   <path d="m2228.3-381.23v477.5l-413.53 238.75v-477.5l413.53-238.75z" fill="#ffe680"/>
  </g>
  <g transform="translate(1677.3 -1292.4)" clip-path="url(#ak)">
   <g transform="matrix(.47266 0 0 .47266 329.38 650.25)">
    <path transform="matrix(1.0703 0 0 1.0703 -312.99 -1589.9)" d="m2401.5 1591.1-413.53 238.75-413.54-238.75v-477.51l413.54-238.75 413.53 238.75z" fill="#d4aa00"/>
    <path transform="translate(-173.17 -1494.8)" d="m2401.5 1591.1-413.53 238.75-413.54-238.75v-477.51l413.54-238.75 413.53 238.75z" fill="#fff6d5"/>
    <path transform="translate(0 -1747.6)" d="m1401.2 1366.4v477.5l413.53 238.75v-477.5l-413.53-238.75z" fill="#fea"/>
    <path d="m2228.3-381.23v477.5l-413.53 238.75v-477.5l413.53-238.75z" fill="#ffe680"/>
   </g>
  </g>
  <g transform="translate(840.48 -1292.4)" clip-path="url(#aj)">
   <g transform="matrix(.47266 0 0 .47266 329.38 650.25)">
    <path transform="matrix(1.0703 0 0 1.0703 -312.99 -1589.9)" d="m2401.5 1591.1-413.53 238.75-413.54-238.75v-477.51l413.54-238.75 413.53 238.75z" fill="#d4aa00"/>
    <path transform="translate(-173.17 -1494.8)" d="m2401.5 1591.1-413.53 238.75-413.54-238.75v-477.51l413.54-238.75 413.53 238.75z" fill="#fff6d5"/>
    <path transform="translate(0 -1747.6)" d="m1401.2 1366.4v477.5l413.53 238.75v-477.5l-413.53-238.75z" fill="#fea"/>
    <path d="m2228.3-381.23v477.5l-413.53 238.75v-477.5l413.53-238.75z" fill="#ffe680"/>
   </g>
  </g>
  <g transform="translate(1258.9 -1292.4)" clip-path="url(#ai)">
   <g transform="matrix(.47266 0 0 .47266 329.38 650.25)">
    <path transform="matrix(1.0703 0 0 1.0703 -312.99 -1589.9)" d="m2401.5 1591.1-413.53 238.75-413.54-238.75v-477.51l413.54-238.75 413.53 238.75z" fill="#d4aa00"/>
    <path transform="translate(-173.17 -1494.8)" d="m2401.5 1591.1-413.53 238.75-413.54-238.75v-477.51l413.54-238.75 413.53 238.75z" fill="#fff6d5"/>
    <path transform="translate(0 -1747.6)" d="m1401.2 1366.4v477.5l413.53 238.75v-477.5l-413.53-238.75z" fill="#fea"/>
    <path d="m2228.3-381.23v477.5l-413.53 238.75v-477.5l413.53-238.75z" fill="#ffe680"/>
   </g>
  </g>
  <g transform="matrix(.47266 0 0 .47266 1797.5 -1004.3)" clip-path="url(#ah)">
   <path transform="matrix(1.0703 0 0 1.0703 -312.99 -1589.9)" d="m2401.5 1591.1-413.53 238.75-413.54-238.75v-477.51l413.54-238.75 413.53 238.75z" fill="#d4aa00"/>
   <path transform="translate(-173.17 -1494.8)" d="m2401.5 1591.1-413.53 238.75-413.54-238.75v-477.51l413.54-238.75 413.53 238.75z" fill="#fff6d5"/>
   <path transform="translate(0 -1747.6)" d="m1401.2 1366.4v477.5l413.53 238.75v-477.5l-413.53-238.75z" fill="#fea"/>
   <path d="m2228.3-381.23v477.5l-413.53 238.75v-477.5l413.53-238.75z" fill="#ffe680"/>
  </g>
  <g transform="matrix(.47266 0 0 .47266 1379.1 -1004.3)" clip-path="url(#ag)">
   <path transform="matrix(1.0703 0 0 1.0703 -312.99 -1589.9)" d="m2401.5 1591.1-413.53 238.75-413.54-238.75v-477.51l413.54-238.75 413.53 238.75z" fill="#d4aa00"/>
   <path transform="translate(-173.17 -1494.8)" d="m2401.5 1591.1-413.53 238.75-413.54-238.75v-477.51l413.54-238.75 413.53 238.75z" fill="#fff6d5"/>
   <path transform="translate(0 -1747.6)" d="m1401.2 1366.4v477.5l413.53 238.75v-477.5l-413.53-238.75z" fill="#fea"/>
   <path d="m2228.3-381.23v477.5l-413.53 238.75v-477.5l413.53-238.75z" fill="#ffe680"/>
  </g>
  <g transform="translate(1677.3 -2016.4)" clip-path="url(#af)">
   <g transform="matrix(.47266 0 0 .47266 329.38 650.25)">
    <path transform="matrix(1.0703 0 0 1.0703 -312.99 -1589.9)" d="m2401.5 1591.1-413.53 238.75-413.54-238.75v-477.51l413.54-238.75 413.53 238.75z" fill="#d4aa00"/>
    <path transform="translate(-173.17 -1494.8)" d="m2401.5 1591.1-413.53 238.75-413.54-238.75v-477.51l413.54-238.75 413.53 238.75z" fill="#fff6d5"/>
    <path transform="translate(0 -1747.6)" d="m1401.2 1366.4v477.5l413.53 238.75v-477.5l-413.53-238.75z" fill="#fea"/>
    <path d="m2228.3-381.23v477.5l-413.53 238.75v-477.5l413.53-238.75z" fill="#ffe680"/>
   </g>
  </g>
  <g transform="translate(840.48 -2016.4)" clip-path="url(#ae)">
   <g transform="matrix(.47266 0 0 .47266 329.38 650.25)">
    <path transform="matrix(1.0703 0 0 1.0703 -312.99 -1589.9)" d="m2401.5 1591.1-413.53 238.75-413.54-238.75v-477.51l413.54-238.75 413.53 238.75z" fill="#d4aa00"/>
    <path transform="translate(-173.17 -1494.8)" d="m2401.5 1591.1-413.53 238.75-413.54-238.75v-477.51l413.54-238.75 413.53 238.75z" fill="#fff6d5"/>
    <path transform="translate(0 -1747.6)" d="m1401.2 1366.4v477.5l413.53 238.75v-477.5l-413.53-238.75z" fill="#fea"/>
    <path d="m2228.3-381.23v477.5l-413.53 238.75v-477.5l413.53-238.75z" fill="#ffe680"/>
   </g>
  </g>
  <g transform="translate(1258.9 -2016.4)" clip-path="url(#ad)">
   <g transform="matrix(.47266 0 0 .47266 329.38 650.25)">
    <path transform="matrix(1.0703 0 0 1.0703 -312.99 -1589.9)" d="m2401.5 1591.1-413.53 238.75-413.54-238.75v-477.51l413.54-238.75 413.53 238.75z" fill="#d4aa00"/>
    <path transform="translate(-173.17 -1494.8)" d="m2401.5 1591.1-413.53 238.75-413.54-238.75v-477.51l413.54-238.75 413.53 238.75z" fill="#fff6d5"/>
    <path transform="translate(0 -1747.6)" d="m1401.2 1366.4v477.5l413.53 238.75v-477.5l-413.53-238.75z" fill="#fea"/>
    <path d="m2228.3-381.23v477.5l-413.53 238.75v-477.5l413.53-238.75z" fill="#ffe680"/>
   </g>
  </g>
  <g transform="matrix(.47266 0 0 .47266 1797.5 -1728.3)" clip-path="url(#ac)">
   <path transform="matrix(1.0703 0 0 1.0703 -312.99 -1589.9)" d="m2401.5 1591.1-413.53 238.75-413.54-238.75v-477.51l413.54-238.75 413.53 238.75z" fill="#d4aa00"/>
   <path transform="translate(-173.17 -1494.8)" d="m2401.5 1591.1-413.53 238.75-413.54-238.75v-477.51l413.54-238.75 413.53 238.75z" fill="#fff6d5"/>
   <path transform="translate(0 -1747.6)" d="m1401.2 1366.4v477.5l413.53 238.75v-477.5l-413.53-238.75z" fill="#fea"/>
   <path d="m2228.3-381.23v477.5l-413.53 238.75v-477.5l413.53-238.75z" fill="#ffe680"/>
  </g>
  <g transform="matrix(.47266 0 0 .47266 960.65 -1728.3)" clip-path="url(#bc)">
   <path transform="matrix(1.0703 0 0 1.0703 -312.99 -1589.9)" d="m2401.5 1591.1-413.53 238.75-413.54-238.75v-477.51l413.54-238.75 413.53 238.75z" fill="#d4aa00"/>
   <path transform="translate(-173.17 -1494.8)" d="m2401.5 1591.1-413.53 238.75-413.54-238.75v-477.51l413.54-238.75 413.53 238.75z" fill="#fff6d5"/>
   <path transform="translate(0 -1747.6)" d="m1401.2 1366.4v477.5l413.53 238.75v-477.5l-413.53-238.75z" fill="#fea"/>
   <path d="m2228.3-381.23v477.5l-413.53 238.75v-477.5l413.53-238.75z" fill="#ffe680"/>
  </g>
  <g transform="matrix(.47266 0 0 .47266 1379.1 -1728.3)" clip-path="url(#bb)">
   <path transform="matrix(1.0703 0 0 1.0703 -312.99 -1589.9)" d="m2401.5 1591.1-413.53 238.75-413.54-238.75v-477.51l413.54-238.75 413.53 238.75z" fill="#d4aa00"/>
   <path transform="translate(-173.17 -1494.8)" d="m2401.5 1591.1-413.53 238.75-413.54-238.75v-477.51l413.54-238.75 413.53 238.75z" fill="#fff6d5"/>
   <path transform="translate(0 -1747.6)" d="m1401.2 1366.4v477.5l413.53 238.75v-477.5l-413.53-238.75z" fill="#fea"/>
   <path d="m2228.3-381.23v477.5l-413.53 238.75v-477.5l413.53-238.75z" fill="#ffe680"/>
  </g>
  <path d="m1113.8-1518.1c-38.103 0.4091-71.532 25.062-92.812 55.031-42.113 59.155-60.448 130.93-75.506 201.01-5.133 25.798-9.2994 51.784-12.712 77.863-13.688-2.0146-27.603-2.5324-41.438-2.1876-20.797-86.043-46.911-172.78-96.904-246.74-21.577-30.534-50.566-58.723-88.065-67.412-33.684-7.1064-68.505 4.7157-95.447 24.789-40.449 28.202-70.678 68.242-98.491 108.46-0.64259 1.8495-2.1226 4.3339-4.2188 2.5938-36.949-6.7304-75.862 23.45-77.208 61.278-2.6499 33.579 23.281 67.352 57.228 70.966 32.091 4.6356 66.384-16.405 73.855-48.525 5.3611-20.23 1.306-43.178-12.125-59.344 25.167-42.837 55.981-85.532 101.19-108.12 22.381-10.243 50.862-9.8228 70.673 5.9646 37.346 25.931 59.514 67.492 80.234 106.99 23.916 48.574 39.126 101.36 51.499 153.64-26.266 4.6553-51.742 15.619-73.656 30.969-9.3278 6.602-18.06 14.16-25.719 22.563-73.986 5.6138-139.2 66.8-148.81 140.53-8.6725 58.745 16.208 121.8 64.406 156.69 1.6141 1.2303 1.1382 6.0216-1.0938 3-14.229-10.155-29.677-18.732-44.534-28.049-68.064-40.581-140.61-75.572-218.62-91.942-39.911-7.5949-84.686-6.8896-119.35 16.523-31.981 22.147-47.736 60.698-54.062 98.062-7.8083 47.489-2.6092 96.697 10.723 142.71 18.939 63.379 57.522 123.06 114.58 158.17 55.821 33.696 125.84 39.889 188.26 23.212 45.129-10.93 87.81-30.241 127.75-53.594 5.5677 86.122 14.765 173 42.132 255.22 11.84 32.931 30.36 66.592 62.775 82.843 33.599 18.241 73.311 20.201 107.59 36.75 21.662 13.699 31.207 39.02 49.006 56.726 17.404 19.602 40.587 35.556 67.276 38.586 8.6445 2.331 21.132 2.4069 25-7.4688 3.0577-6.4426 0.2084-14.019-5.4305-17.894-21.288-23.537-38.407-54.193-35.882-87.012 5.3878-19.752 25.68-29.373 41.781-39.25 33.866-20.057 61.51-53.987 65.833-94.165 6.2679-42.779 2.0792-86.239 1.89-129.3-0.8889-33.306-2.0643-66.609-3.9415-99.875 57.75 34.519 123.8 58.98 191.97 57.375 63.442-2.2253 124.09-35.416 161.66-86.081 45.472-62.092 67.48-141.96 57.244-218.7-3.8997-28.329-11.334-57.364-30.002-79.717-15.673-20.182-38.948-33.921-64.31-37.69-44.703-8.0312-90.219 3.1845-132.42 17.5-64.452 22.406-124.72 55.001-182.7 90.656-0.1113-4.1329-0.339-9.4912 4.75-10.594 49.644-27.082 76.012-91.104 58.536-145.18-11.413-38.113-41.796-69.714-79.254-82.82-13.88-48.866-48.963-93.958-98.311-110.2-3.0375-1.0997-6.0598-2.2449-9.1887-3.1133 8.9847-60.471 18.886-121.45 42.979-177.99 15.304-38.251 35.238-76.777 67.333-103.33 17.525-13.179 41.425-17.456 62.188-10.062 36.111 10.518 63.841 37.75 88.562 64.75 9.1299 10.729 19.229 21.991 26 34.062-20.64 31.007-8.4744 78.73 25.315 94.918 29.567 15.864 70.992 5.8698 87.904-23.762 16.642-26.309 12.346-64.712-11.719-84.844-16.918-15.148-42.141-21.668-64.094-14.594-33.909-40.741-71.306-80.594-118.91-105.18-18.912-9.4155-39.789-16.201-61.18-15.668zm-478.59 283.03c-38.018 1.2674-69.161 34.849-74.25 71.437-4.7817 27.502 5.3514 55.845 23.219 76.719 14.258-54.178 66.31-96.958 123-96.5 5.0527-1.3895 1.1903-7.1134-1.1998-9.2081-15.637-22.191-39.577-42.112-68.144-42.479-0.87536-0.011-1.7501 0-2.625 0.031zm540.5 31.344c-31.806 0.5154-58.513 22.053-78.079 45.24-5.1398 4.1359-9.6881 13.178-3.2958 18.26 7.98 4.7899 16.092-2.7813 24.281-2.5625 26.464-4.2558 56.109 8.8526 67.438 33.812 11.861 21.859 13.993 47.119 16.062 71.5 37.621-25.883 55.483-79.116 36.656-121.59-10.636-24.769-35.099-45.237-63.062-44.656z" fill="#fff"/>
  <g transform="matrix(1.3665 .19804 -.19804 1.3665 -41.416 -258.55)">
   <path d="m961.97-626.66c-47.397 2.641-89.405 27.706-128.55 52.571-34.998 23.026-67.812 49.362-98.796 77.617 4.1145 46.5 12.111 92.525 20.344 138.47 49.151 23.236 103.78 40.898 158.8 33.893 48.911-5.6318 92.813-38.36 113.5-82.757 24.895-50.066 28.998-110.66 10.484-163.48-8.8137-24.362-26.741-48.024-53.244-53.969-7.3383-1.852-14.953-2.5756-22.531-2.3438z" fill="#00aad4"/>
   <path d="m926.24-614.28c33.102-10.092 63.644-9.5759 84.572 11.322 74.3 74.193 32.499 373.92-250.51 240.83-8.2491-45.536-15.912-92.001-19.413-131.95 3.9637-3.693 102.47-94.937 185.35-120.21z" fill="#d5f6ff"/>
   <path d="m238.62-533.47c-27.624-0.0548-57.939 7.5613-75.844 29.875-21.248 28.575-21.87 66.918-16.25 100.81 10.556 60.658 44.555 119.42 98.562 150.84 39.692 22.515 88.987 24.774 131.78 9.875 45.515-14.622 85.183-42.81 120.88-74-9.5345-47.522-16.445-95.666-22.812-143.59-3.415-7.4966-13.05-7.5528-19.151-11.905-62.026-28.767-127.09-53.875-195.44-61.127-7.2247-0.57527-14.471-0.89943-21.719-0.78125z" fill="#00aad4"/>
   <path d="m202.82-522.51c86.872-25.976 254.05 57.774 266.48 64.097 4.5835 37.642 10.9 81.19 19.022 125.23 0.42182 4.8957 2.5383 9.5079 2.9596 14.779-252.16 220.43-384.19-75.13-329.5-172.89 8.973-16.039 23.329-25.92 41.04-31.216z" fill="#d5f6ff"/>
   <path d="m599.97-757.34c-43.656 0.76649-89.204 18.762-114.26 55.725-27.337 38.987-33.564 88.477-33.319 135.12 1.3537 66.691 12.017 132.63 21.845 198.47 12.9 78.236 29.002 156.7 59.515 230.14 10.468 23.323 23.299 47.124 44.159 62.671 21.71 13.424 48.219 13.849 72.781 17.469 14.816 1.1446 30.166 5.2689 40.737 16.426 13.258 13.001 25.371 27.589 42.107 36.262 10.765 6.2945 23.458 9.1669 35.875 7.8125 3.2001 1.3664 8.4459-1.5894 5.2812-5.0312-15.917-12.164-29.533-28.264-36.302-47.536-3.7144-9.4031-5.9382-20.597-0.79142-29.901 8.6647-17.54 27.766-25.58 39.4-40.635 13.238-14.702 21.29-33.95 20.913-53.927 0.40838-27.564-6.2098-54.548-9.9507-81.737-15.962-92.293-37.635-184.03-41.545-277.91-4.4396-37.458-10.991-74.766-17.004-112.01-1.365-7.7179-7.4439-13.138-8.9329-20.878-10.225-31.908-28.997-62.892-59.577-78.618-18.697-9.3924-40.073-12.576-60.927-11.91z"/>
   <path d="m721.14-647.45c-12.587-8.1387-17.194-113.24-133.98-100.97-116.78 12.268-127.41 120.1-126.89 186.28 0.51793 66.172 44.587 461.05 134.76 486.43 37.829 10.648 61.518 8.9473 76.86 13.333 12.526 3.58 28.877 17.222 34.356 24.618 8.4412 11.395 37.67 33.809 52.771 32.674-17.148-14.501-28.111-40.222-30.239-47.303-1.4375-4.7837-5.385-16.312 1.8418-31.429 12.215-25.552 51.216-34.138 58.697-80.329 7.7441-47.813-49.59-255.91-50.413-368.22-10.13-71.217-17.765-115.07-17.765-115.07z" fill="#ff0"/>
   <path d="m380.76-762.12c14.4-3.9656 31.63-0.1047 48.792 16.35 0 0-54.732 11.374-71.377 71.993-27.019-33.088-9.0942-79.619 22.585-88.344z"/>
   <path d="m778.06-796.95c38.12-2.805 66.308 51.491 35.959 93.876-21.702-86.788-85.915-54.583-85.915-54.583 15.978-26.735 33.86-38.108 49.955-39.292z"/>
   <path d="m474.34-696.96c59.402-18.509 122.56 14.64 141.07 74.042 1.0645 3.4164 1.9466 6.8308 2.6742 10.263 3.5724-31.929 25.503-60.285 58.142-70.455 44.018-13.716 90.805 10.841 104.52 54.859s-10.841 90.805-54.859 104.52c-44.018 13.716-90.835-10.832-104.55-54.849-0.38129-1.2237-0.72175-2.4407-1.0444-3.6679-2.8892 45.225-33.077 86.114-78.924 100.4-59.402 18.509-122.56-14.64-141.07-74.042s14.64-122.56 74.042-141.07z"/>
   <path transform="matrix(-4.0098 1.2495 1.2495 4.0098 18563 -3228)" d="m4264.7-668.06c0 9.9365-8.0551 17.992-17.992 17.992s-17.992-8.0551-17.992-17.992c0-9.9365 8.0551-17.992 17.992-17.992s17.992 8.0551 17.992 17.992z" fill="#fff"/>
   <path transform="matrix(.95473 .29749 -.29749 .95473 -3557.7 -1219.4)" d="m4264.7-668.06c0 9.9365-8.0551 17.992-17.992 17.992s-17.992-8.0551-17.992-17.992c0-9.9365 8.0551-17.992 17.992-17.992s17.992 8.0551 17.992 17.992z"/>
   <path transform="matrix(.42008 .13089 -.13089 .42008 -1179.7 -877.78)" d="m4264.7-668.06c0 9.9365-8.0551 17.992-17.992 17.992s-17.992-8.0551-17.992-17.992c0-9.9365 8.0551-17.992 17.992-17.992s17.992 8.0551 17.992 17.992z" fill="#fff"/>
   <path transform="matrix(5.4112 -1.6861 1.6861 5.4112 -21342 10188)" d="m4264.7-668.06c0 9.9365-8.0551 17.992-17.992 17.992s-17.992-8.0551-17.992-17.992c0-9.9365 8.0551-17.992 17.992-17.992s17.992 8.0551 17.992 17.992z" fill="#fff"/>
   <path transform="matrix(.95473 .29749 -.29749 .95473 -3729.1 -1216.1)" d="m4264.7-668.06c0 9.9365-8.0551 17.992-17.992 17.992s-17.992-8.0551-17.992-17.992c0-9.9365 8.0551-17.992 17.992-17.992s17.992 8.0551 17.992 17.992z"/>
   <path transform="matrix(.42008 .13089 -.13089 .42008 -1351.1 -874.5)" d="m4264.7-668.06c0 9.9365-8.0551 17.992-17.992 17.992s-17.992-8.0551-17.992-17.992c0-9.9365 8.0551-17.992 17.992-17.992s17.992 8.0551 17.992 17.992z" fill="#fff"/>
   <path transform="translate(0 -1747.6)" d="m746.72 1303c-46.035 40.177-128.15 77.564-268.31 52.375 2.1428 13.988 4.4418 28.26 6.9688 42.688 82.704 10.123 191.11 6.8685 267.22-56.75-2.1378-12.945-4.1041-25.781-5.875-38.312zm10.469 65.188c-42.898 41.912-123.24 85.237-265.78 62.562 2.7515 14.161 5.6921 28.294 8.8125 42.219 84.536 8.5045 191.33 1.4139 263.84-67.063-2.3135-12.494-4.6464-25.065-6.875-37.719zm13 70.594c-40.646 42.485-119.11 89.277-261.62 69.063 3.6985 14.467 7.6207 28.52 11.75 41.906 84.497 6.7617 187.65-3.4077 256.84-73.188-2.1897-12.082-4.5398-24.804-6.9688-37.781zm12.5 69.344c-36.192 42.399-109.87 94.5-249 80.438 5.9233 15.291 12.192 29.135 18.844 40.938 81.353 2.4472 173.86-13.524 235.78-81.75-1.2888-11.579-3.1932-24.93-5.625-39.625zm1.8438 92.531c-81.724 77.937-172.21 68.043-209.03 59.563 6.2531 5.7787 12.759 9.7813 19.531 11.687 37.829 10.648 61.501 8.9586 76.844 13.344 12.526 3.5801 28.896 17.229 34.375 24.625 8.4412 11.395 37.649 33.791 52.75 32.656-17.148-14.501-28.091-40.2-30.219-47.281-1.4375-4.7837-5.383-16.32 1.8438-31.438 10.522-22.01 40.9-31.446 53.906-63.156z" fill="#333"/>
   <g transform="translate(-65.136 -586.23)">
    <path transform="translate(0 -1747.6)" d="m737.89 1855.8c-8.636 1.9191-44.139 27.827-81.562-0.9595 4.7978 38.382 53.735 97.874 81.562 0.9595z" fill="#f55"/>
    <path transform="translate(0 -1747.6)" d="m691.84 1880.8c-8.9483 0-17.219 1.9606-23.906 5.25 13.568 21.668 36.284 34.854 55.375 4.8438-7.3853-6.152-18.73-10.094-31.469-10.094z" fill="#ff8080"/>
    <path transform="translate(0 -1747.6)" d="m656.34 1854.8c0.65876 5.27 2.1584 10.925 4.3125 16.531 16.596 5.9306 43.413 11.906 70.812 3.2188 2.2337-5.4813 4.4038-11.699 6.4375-18.781-8.636 1.9191-44.14 27.818-81.562-0.9687z" fill="#fff"/>
   </g>
   <path d="m402.66-960.69c-36.869-0.35418-76.958 31.396-117.75 118.66-2.1232-0.33825-4.3128-0.53125-6.5312-0.53125-22.707 0-41.094 18.387-41.094 41.094s18.387 41.125 41.094 41.125 41.125-18.418 41.125-41.125c0-13.539-6.5586-25.54-16.656-33.031 11.927-31.997 45.171-103.17 95.875-106.34 55.413-3.4633 116.03 95.232 136.81 143.72 14.847 34.644 28.516 68.079 35.031 80.25 2.5866 4.8322 8.5169 4.3499 10-0.5937 0 0-76.802-242.25-177.91-243.22z"/>
   <path transform="translate(30.76 -1741.7)" d="m281.39 940.21c0 18.649-15.118 33.767-33.767 33.767s-33.767-15.118-33.767-33.767 15.118-33.767 33.767-33.767 33.767 15.118 33.767 33.767z" fill="#ff0"/>
   <path transform="matrix(1.0429 0 0 1 18.271 -1739.1)" d="m252.24 926.11c0 6.3399-4.7968 11.479-10.714 11.479s-10.714-5.1395-10.714-11.479c0-6.3399 4.7968-11.479 10.714-11.479s10.714 5.1395 10.714 11.479z" fill="#fff6d5"/>
   <path d="m683.98-1011.5c34.007-14.246 83.116 0.021 153.83 65.425 1.8384-1.1147 3.7931-2.12 5.8474-2.9575 21.027-8.5719 44.994 1.5135 53.566 22.54s-1.5017 45.023-22.528 53.595-45.035-1.5306-53.607-22.557c-5.111-12.537-3.5681-26.126 2.9543-36.875-23.124-25.126-80.778-78.488-128.93-62.282-52.62 17.712-71.496 131.99-72.435 184.73-0.67054 37.686-0.70629 73.807-2.1444 87.537-0.57098 5.4511-6.2446 7.2432-9.4842 3.2253 0 0-20.33-253.32 72.926-292.38z"/>
   <path transform="matrix(-.92601 .37751 .37751 .92601 733.55 -1875)" d="m281.39 940.21c0 18.649-15.118 33.767-33.767 33.767s-33.767-15.118-33.767-33.767 15.118-33.767 33.767-33.767 33.767 15.118 33.767 33.767z" fill="#ff0"/>
   <path transform="matrix(-.96569 .39368 .37751 .92601 729.21 -1873)" d="m252.24 926.11c0 6.3399-4.7968 11.479-10.714 11.479s-10.714-5.1395-10.714-11.479c0-6.3399 4.7968-11.479 10.714-11.479s10.714 5.1395 10.714 11.479z" fill="#fff6d5"/>
   <path transform="translate(0 -1747.6)" d="m747.21 1737.2c-4.3291-3.0304-19.481-12.122-31.603-37.231-7.3595-16.018-12.554-4.3291-6.9266 3.0304 5.6279 7.3596 17.317 26.841 38.529 34.2z" fill="#666"/>
   <path transform="translate(0 -1747.6)" d="m413.87 1282.9s-170.2-66.121-220.4-28.163-2.4489 133.47-2.4489 133.47-18.367-85.712 14.694-102.85 74.692-26.938 208.16-2.449z" fill="#fff"/>
   <path transform="translate(0 -1747.6)" d="m751.82 1254.7s153.06-110.2 210.61-106.53c57.55 3.6733 51.427 74.692 51.427 74.692s-23.265-127.34-262.04 31.836z" fill="#fff"/>
  </g>
  <path transform="translate(0 -1747.6)" d="m324.47 1369.2c-43.314-0.465-78.146 60.255-168.62 107.88-73.904 38.897-124.86 4.5963-155.34-32.937v394.22c33.262 6.9408 69.159 21.947 103.41 50.844 110.83 93.509 117.74 20.781 193.94-58.875 76.193-79.656 90.05 79.662 142 162.78 51.95 83.119 6.9346 204.33-34.625 297.84-41.56 93.509-17.337 232.04 86.562 197.41 103.9-34.633 51.967-114.29 31.188-280.53-20.78-166.24 38.099-169.71 121.22-225.12s-13.876-148.93-34.656-225.12c-20.78-76.193 65.826-117.73 34.656-221.62-31.17-103.9-155.87-17.32-249.38-121.22-29.222-32.468-50.656-45.32-70.344-45.531z" fill="#f09e00"/>
  <path transform="translate(0 -1747.6)" d="m298.84 1405.1c-20.703-0.1745-59.315 29.267-134.34 97.938-63.719 58.319-126.08 23.668-164-10.656v36.5c111.01 112.9 322.99-89.435 314.66-112.44-3.6798-7.3595-8.8242-11.281-16.312-11.344z" fill="#ffb82d"/>
  <path transform="translate(0 -1747.6)" d="m488.33 1508.2c12.122 0 124.68-22.512 142 38.096 17.317 60.608-32.901 38.096-48.486 13.853s-24.243-51.95-93.509-51.95z" fill="#ffb82d"/>
  <path transform="translate(0 -1747.6)" d="m590.22 1698.8c-4.9349 0.7597-12.892 65.833 12.406 119.41 29.438 62.34 10.376 64.054-48.5 98.688-58.876 34.633-110.81-41.535-169.69-133.31-58.876-91.777-98.721-19.062-169.72 60.594-70.998 79.656-141.98-8.67-207.78-57.156-2.1162-1.5594-4.2612-3.0151-6.4375-4.375v55.75c33.262 6.9413 69.159 21.916 103.41 50.812 110.83 93.509 117.74 20.781 193.94-58.875 76.193-79.656 90.05 79.662 142 162.78 51.95 83.119 6.9346 204.33-34.625 297.84-41.56 93.509-17.337 232.04 86.562 197.41 103.9-34.633 51.967-114.29 31.188-280.53-20.78-166.24 38.099-169.71 121.22-225.12 66.945-44.63 17.053-113.96-15.75-179.06-40.995-49.005-33.381-78.432-36.219-99.719-0.48703-3.6527-1.1925-5.2493-2-5.125z" fill="#dc9100"/>
  <path transform="translate(0 -1747.6)" d="m457.16 2232s-74.461 157.58-5.195 216.46c19.048 13.853 17.317-25.975 1.7316-65.803s-8.6583-100.44 3.4633-150.65z" fill="#ffb82d"/>
  <path d="m2005.2-1095.6c-30.736 0.9308-55.938 22.282-75.026 44.576-21.838 24.257-29.465 58.49-25.786 90.455 0.4513 15.488-3.7594 32.885-17.656 41.719-33.38 26.76-80.519 32.276-110.01 64.586-25.768 28.761-31.611 68.86-34.152 106.13-3.2748 45.083 1.7819 90.253 0.2962 135.34-1.2653 16.955-10.64 33.292-26.014 41.124-38.589 24-86.163 27.924-125.17 50.719-20.76 13.253-33 36.472-37.258 60.335-7.5754 36.52-5.8353 74.177-6.8657 111.3-0.5555 34.95-0.4311 70.954-11.45 104.28-10.772 27.999-35.423 48.378-61.812 61.5-23.297 12.178-49.206 18.981-72.031 31.938-20.002 13.659-29.577 37.801-33.617 60.915-8.7521 42.811-7.397 87.077-17.789 129.62-5.7853 29.975-14.584 61.497-6.2187 91.781 8.1776 25.916 29.735 44.678 52.243 58.428 38.14 24.208 80.394 40.678 121.44 59.186 37.683 16.149 77.133 31.487 108 59.33 20.532 19.984 31.853 48.143 33.604 76.487 4.6625 46.405-2.3294 92.868-5.5443 139.13-5.5041 60.037-13.467 120.98-3.9914 181.02 3.8127 20.074 13.875 41.68 34.037 49.698 27.265 11.822 61.777 10.536 85.051-9.1481 18.392-14.266 27.96-36.636 32.844-58.875 9.7521-44.047 2.7514-89.771-6.4335-133.32-11.25-49.94-25.636-99.176-33.942-149.72-16.604-87.402-29.357-176.59-22.5-265.74 2.6471-25.283 7.587-51.984 23.719-72.281 16.167-17.181 47.38-12.701 59.031 7.5312 8.8156 16.676 10.743 35.931 12.227 54.589 2.1245 27.598 1.0121 57.095 14.648 82.036 8.2191 13.191 24.047 20.26 39.406 18.656 25.178-0.67556 52.21-4.6462 72-21.5 13.512-11.042 21.234-28.038 21.625-45.5 2.0454-36.498-17.308-69.156-32.17-101.01-20.187-44.193-34.099-91.426-44.253-138.8-8.9445-44.758-13.617-91.041-8.0765-136.51 3.6399-23.429 11.468-48.823 31.043-63.598 23.463-15.687 53.308-12.107 79.982-9.5056 31.67 3.4608 65.194 10.099 96.007-0.92789 20.89-8.7973 33.543-31.049 34.533-53.175 3.2867-31.001-2.776-61.957-2.8759-92.971-3.2624-61.335-8.3074-124.39 8.3113-184.23 7.5331-23.935 23.482-47.837 48.875-54.738 20.641-6.4788 41.154-14.62 57.844-28.669 49.355-38.145 79.48-97.497 89.469-158.44 7.1719-46.718 1.9145-97.083-22.5-138.12-11.868-17.456-34.312-27.639-55.25-22.562-39.503 6.0969-71.672 34.954-111.25 39.625-16.098 1.9736-32.797-4.8628-41.944-18.55-11.394-15.868-17.69-34.806-30.338-49.856-17.578-23.393-43.457-44.848-74.313-44.281z" fill="#c88400"/>
  <path transform="translate(0 -1747.6)" d="m2095.3 742.8s-55.413-131.61-138.53-58.876c-83.119 72.729-6.9266 117.75-72.729 159.31-65.803 41.56-124.68 27.706-131.61 159.31-6.9266 131.61 27.706 162.78-62.339 197.41s-128.14 20.78-131.61 145.46c-3.4633 124.68 6.9267 176.63-69.266 221.65-76.193 45.023-107.36 10.39-117.75 145.46s-65.803 169.7 65.803 235.5c131.61 65.803 218.19 72.729 232.04 176.63 13.853 103.9-48.486 339.4 17.316 367.11 65.803 27.706 145.46-17.316 93.509-214.72-51.95-197.41-90.046-484.86 6.9266-484.86s24.243 173.17 96.972 173.17 117.75-34.633 65.803-135.07c-51.95-100.44-96.972-301.31-34.633-363.65 62.34-62.34 221.65 55.413 214.72-86.583s-27.706-294.38 65.803-318.62 169.7-169.7 124.68-287.45-162.78 72.729-225.11-31.17z" fill="#f09e00"/>
  <path transform="translate(0 -1747.6)" d="m2008.8 691.62c-12.056-0.09-25.556 4.5234-38.219 20-31.17 38.096 74.469-8.6562 74.469-8.6562-4.1128-1.0282-18.631-11.212-36.25-11.344zm-139.5 192.66c-6.4786 0.20679-14.315 1.9308-23.406 5.7188-102.17 48.486-64.062 249.34-64.062 249.34 29.438-17.317 31.167-109.08 38.094-157.56 6.9266-48.486 38.082-51.978 60.594-67.562 17.587-12.176 11.918-30.676-11.219-29.938zm-206.97 356.66c-26.108-0.0108-53.576 7.8281-63.219 50.531-17.142 75.917-39.2 208.14-9.8124 205.69 29.387-2.4489 36.738-61.217 39.187-115.09 2.449-53.876 9.7999-112.65 66.125-100.41 56.325 12.245 56.339-26.943 17.156-39.187-9.6426 3.2142-29.131-1.5229-49.438-1.5313z" fill="#ffb82d"/>
  <path transform="translate(0 -1747.6)" d="m2066.7 754.78c-15.509-0.13951-21.759 26.431-18.188 53.812 5.1949 39.828 38.119 62.351-15.562 86.594s-96.995-1.7205-93.531 86.594c3.4633 88.314 3.4639 105.63-29.438 138.53-32.901 32.901-91.763 72.728-10.375 58.875s109.09-60.622 109.09-128.16c0-67.534-8.6649-103.9 55.406-96.969 64.071 6.9266 76.197-48.487 62.344-79.656-13.853-31.17 90.06 0.00803 98.719-34.625 8.6582-34.633 19.049-70.997-29.438-58.875 0 0-67.554 36.354-102.19-6.9375-10.823-13.529-19.794-19.124-26.844-19.188zm264.38 59.375c-13.382 36.366-47.97 73.455-66.094 94.875-38.096 45.023-145.46 45.028-162.78 221.66-17.317 176.63-72.722 187-193.94 249.34-121.22 62.34-45.02 266.7-38.094 315.19 6.9266 48.486-20.779 86.571-58.875 51.937-38.096-34.633-114.29 38.089-159.31 114.28-45.023 76.193-124.7 13.852-190.5-20.781-65.803-34.633-34.626-124.66-55.406-148.91-7.2669-8.4779-20.89 7.1993-35.531 31.156-12.257 126.51-61.446 161.04 66.719 225.12 131.61 65.803 218.18 72.726 232.03 176.62 13.853 103.9-48.49 339.42 17.312 367.12 65.803 27.707 145.45-17.342 93.5-214.75-51.95-197.41-90.035-484.84 6.9375-484.84s24.239 173.16 96.969 173.16c72.729 0 117.76-34.627 65.813-135.06-51.95-100.44-96.965-301.32-34.625-363.66 62.339-62.34 221.65 55.402 214.72-86.594-6.9266-142-27.697-294.38 65.812-318.62 83.09-21.542 152.49-138.78 135.34-247.25z" fill="#dc9100"/>
  <path transform="translate(0 -1747.6)" d="m1697 2218.2c-1.7317 24.243-51.95 218.19-1.7317 251.09s13.853-84.851 1.7317-251.09z" fill="#ffb82d"/>
  <path transform="translate(0 -1747.6)" d="m1870.2 1887.4s-15.585 34.633 12.122 50.218c27.706 15.585-12.122-50.218-12.122-50.218z" fill="#ffb82d"/>
  <path transform="translate(0 -1747.6)" d="m2015.6 1404.3s48.486 12.122 64.071 0 5.195 55.413-64.071 0z" fill="#ffb82d"/>
 </g>
</svg>
