<?xml version="1.0" encoding="UTF-8"?>
<svg enable-background="new 0 0 137.152 137.112" viewBox="0 0 137.152 137.112" xmlns="http://www.w3.org/2000/svg" class="clickable">
 <defs>
  <radialGradient id="a" cx="68.591" cy="68.533" r="63.739" gradientTransform="matrix(-.94622 0 0 .94622 133.84 3.6856)" gradientUnits="userSpaceOnUse">
   <stop stop-color="#d4e4f7" offset="0"/>
   <stop stop-color="#7fb5f7" offset="1"/>
  </radialGradient>
 </defs>
 <path d="m137.15 68.534c0 34.94-27.408 65.096-62.231 68.297-34.835 3.203-67.432-21.293-73.804-55.743-6.371-34.441 15.125-69.137 48.881-78.603 33.766-9.468 70.253 8.916 82.705 41.693 2.949 7.763 4.449 16.052 4.449 24.356" fill="#5471af"/>
 <path d="m133.32 68.129c0 32.627-25.66 60.786-58.262 63.775-32.613 2.9909-63.131-19.883-69.096-52.052-5.9646-32.161 14.16-64.559 45.763-73.399 31.612-8.8411 65.772 8.3257 77.43 38.932 2.7609 7.249 4.1652 14.989 4.1652 22.743" fill="#808080" fill-opacity=".8413"/>
 <path d="m129.25 68.534c0 32.867-27.443 60.31-60.311 60.31s-60.311-27.443-60.311-60.31 27.443-60.312 60.311-60.312 60.311 27.443 60.311 60.312" fill="url(#a)"/>
 <path d="m125.42 47.535c4.0771 28.539-14.11 56.537-42.209 64.989-29.802 8.9648-62.532-6.5997-73.988-34.984 4.864 34.079 39.713 57.435 73.864 49.494 35.261-8.2001 55.72-46.367 42.333-79.499" fill="#68a0f2"/>
 <path d="m106.61 39.855c-8.3419 1.725-17.945-10.091-25.176-13.097-13.511-5.6168-30.389-3.009-42.63 4.6393-12.948 8.0892-22.157 23.628-23.573 38.882-0.0048 0.04353-0.0048 0.05204-9.5e-4 0.02271 0.95568-9.237 0.31036-17.92 3.8284-26.849 5.8278-14.8 18.431-26.388 33.628-31.045 15.713-4.8125 32.895-1.7505 46.431 7.4231 4.1795 2.8349 20.268 17.378 7.4931 20.023" fill="#b3e7fc"/>
 <path d="m53.008 42.212v48.905c0 4.9795-2.0211 14.234 5.1795 14.584 6.0595 0.29703 12.91-7.8339 17.18-11.243 7.0742-5.6425 14.148-11.284 21.223-16.929 6.8169-5.4375 1.7665-9.4744-3.2775-13.514l-22.8-18.261-7.3387-5.878c-2.4602-1.9716-10.167-2.2824-10.167 2.3357" fill="#fff"/>
 <path d="m63.317 38.929c11.681 9.3549 23.36 18.709 35.04 28.064 7.2233 5.786-0.86915 10.882-5.3368 14.443l-23.72 18.923c-1.9392 1.5449-3.8776 3.0907-5.8159 4.6384-3.5575 2.8388-11.298 1.8934-11.298-3.7362v-58.384c0-5.2057 7.5733-6.7984 11.131-3.9478m-1.0201 64.897 34.687-27.668c6.1532-4.9106-1.1164-9.0367-4.984-12.135-7.6251-6.1069-15.251-12.216-22.879-18.324l-6.4568-5.1726c-2.0656-1.6552-8.8352-2.093-8.8352 1.8557v57.585c9.1e-4 4.2862 4.8204 6.7856 8.4679 3.8586" fill="#5471af"/>
</svg>
