<?xml version="1.0" encoding="UTF-8" standalone="no"?>
<svg
   version="1.1"
   viewBox="0 0 50 61.322195"
   sodipodi:docname="chicken-2521141.svg"
   width="50"
   height="61.322197"
     id="chicken"
   inkscape:version="1.4 (86a8ad7, 2024-10-11)"
   xmlns:inkscape="http://www.inkscape.org/namespaces/inkscape"
   xmlns:sodipodi="http://sodipodi.sourceforge.net/DTD/sodipodi-0.dtd"
   xmlns="http://www.w3.org/2000/svg"
   xmlns:svg="http://www.w3.org/2000/svg">
  <defs
     id="defs30" />
  <sodipodi:namedview
     id="namedview30"
     pagecolor="#ffffff"
     bordercolor="#666666"
     borderopacity="1.0"
     inkscape:showpageshadow="2"
     inkscape:pageopacity="0.0"
     inkscape:pagecheckerboard="0"
     inkscape:deskcolor="#d1d1d1"
     inkscape:zoom="0.82327431"
     inkscape:cx="253.86435"
     inkscape:cy="231.39311"
     inkscape:window-width="1920"
     inkscape:window-height="1017"
     inkscape:window-x="-8"
     inkscape:window-y="-8"
     inkscape:window-maximized="1"
     inkscape:current-layer="chicken"
     showgrid="false" />
  <g
     transform="matrix(0.03804794,0,0,0.03804794,-28.642792,-18.662423)"
     >
    <path
       d="m 1599.6,508.47 c -61.932,1.826 -118.17,43.973 -144.3,98.82 -7.6082,15.285 -13.285,31.586 -18.481,47.867 -27.258,-4.5997 -54.353,4.8858 -80,13.062 -34.932,14.22 -66.576,41.938 -77.085,79.243 -8.0414,28.635 -1.6765,59.067 7.4289,86.663 -23.45,7.7738 -44.473,28.735 -45,54.406 -1.3897,32.83 19.023,60.641 31.81,89.409 3.0611,6.0944 6.2035,12.147 9.3146,18.216 -131.09,84.057 -230.73,217.01 -271.93,367.55 -12.864,44.5 -21.669,90.05 -27.316,136.04 -52.541,-32.551 -99.671,-75.359 -132.28,-128.28 -15.28,-15.297 -43.084,-10.222 -55.156,6.5313 -23.369,26.349 -29.167,64.242 -24.312,98.357 5.4084,32.152 23.034,61.946 47.374,83.674 -5.6164,-1.6344 -12.639,-1.3292 -15.906,4.2187 -26.766,34.538 -14.165,91.534 25.094,110.94 24.612,13.512 52.777,19.129 80.719,18.781 10.824,25.481 39.978,38.043 66.438,37.031 7.2419,-0.4457 14.391,-2.1588 21.031,-5 24.803,68.545 78.879,124.72 145.22,154.47 -11.505,16.368 -14.82,37.285 -10.375,56.656 -10.048,-1.8895 -22.06,0.6685 -29.938,-7.4687 -28.454,-17.641 -68.524,-14.246 -93.5,8.3437 -36.093,5.0351 -64.625,44.575 -54.094,80.344 6.8733,27.025 32.301,49.182 60.625,49.75 12.088,8.683 26.941,13.712 41.875,12.875 31.52,26.37 78.659,26.608 114.61,9.3662 30.506,-12.884 63.279,-21.375 96.608,-20.897 37.381,-2.4046 77.25,-2.0435 110.38,-21.688 21.326,-16.977 25.529,-48.753 15.313,-73.031 -8.374,-24.799 -35.219,-42.391 -61.469,-37.312 -13.168,1.3933 -25.608,6.0278 -37.344,12.031 -14.974,-12.438 -30.937,-23.537 -44.969,-37.125 106.73,15.424 216.72,16.548 322.49,-6.2887 12.109,-2.9181 24.155,-6.0965 36.2,-9.2738 8.9596,6.5763 18.703,12.121 26.625,19.938 -5.2591,6.5494 -8.7676,15.034 -16.281,19.531 -34.564,-13.168 -79.297,2.9524 -93.828,38.09 -11.093,24.384 -5.1953,57.534 18.109,72.754 25.962,19.263 60.138,18.948 91.156,16.5 45.301,-1.5743 90.235,5.2365 134.97,11.127 30.389,2.1547 61.542,-1.4407 89.315,-13.939 24.336,0.8312 47.778,-6.1997 70.812,-12.969 20.22,-6.5084 38.722,-19.57 49.018,-38.324 14.375,-24.627 14.027,-58.625 -5.9498,-80.154 -9.1593,-10.926 -21.977,-18.566 -35.568,-22.678 -23.64,-19.697 -61.064,-17.896 -84.031,2.0313 -38.583,-6.1526 -77.57,10.264 -106.34,35.094 -8.214,2.6521 -16.514,-2.1218 -24.875,-0.5625 10.101,-15.907 21.522,-34.549 16.031,-54.031 -6.1509,-16.07 -21.013,-25.884 -33.531,-36.781 39.203,-25.465 71.479,-61.428 92.656,-103.19 28.014,14.62 67.095,7.7568 85.656,-18.875 38.885,9.3196 83.977,4.9503 114.62,-22.781 20.533,-20.446 28.556,-56.029 12.312,-81.313 -4.0023,-4.8517 -9.6998,-7.5052 -15.406,-9.8124 41.834,-22.538 72.468,-67.369 72.726,-115.62 0.8864,-27.306 -6.8348,-56.865 -27.976,-75.47 -17.327,-11.29 -42.148,-3.7874 -52.363,13.707 -39.738,39.528 -89.874,67.092 -141.82,87.418 4.5247,-131.47 -23.97,-265.17 -88.847,-379.87 -36.141,-59.206 -84.828,-109.8 -141.93,-148.91 37.348,-89.624 78.214,-177.69 118.41,-266.05 16.338,-41.878 25.457,-89.205 12.546,-133.3 -13.897,-43.48 -54.572,-74.449 -98.331,-84.376 -15.3,-3.8344 -31.092,-5.8068 -46.942,-5.458 z"
       fill="#002b22"
       id="path1" />
    <path
       d="m 1581.7,490.53 c -61.932,1.826 -118.17,43.973 -144.3,98.82 -7.6082,15.285 -13.285,31.586 -18.481,47.867 -27.258,-4.5997 -54.353,4.8858 -80,13.062 -34.932,14.22 -66.576,41.938 -77.085,79.243 -8.0414,28.635 -1.6765,59.067 7.4289,86.663 -23.45,7.7738 -44.473,28.735 -45,54.406 -1.3897,32.83 19.023,60.641 31.81,89.409 3.0611,6.0944 6.2035,12.147 9.3146,18.216 -131.09,84.057 -230.73,217.01 -271.93,367.55 -12.864,44.5 -21.67,90.05 -27.316,136.04 -52.541,-32.551 -99.671,-75.359 -132.28,-128.28 -15.28,-15.297 -43.084,-10.222 -55.156,6.5313 -23.369,26.349 -29.167,64.242 -24.312,98.357 5.4084,32.152 23.034,61.946 47.374,83.674 -5.6164,-1.6344 -12.639,-1.3292 -15.906,4.2187 -26.766,34.538 -14.165,91.534 25.094,110.94 24.612,13.512 52.777,19.129 80.719,18.781 10.824,25.481 39.978,38.043 66.438,37.031 7.2419,-0.4457 14.391,-2.1588 21.031,-5 24.803,68.545 78.879,124.72 145.22,154.47 -11.505,16.368 -14.82,37.285 -10.375,56.656 -10.048,-1.8895 -22.06,0.6685 -29.938,-7.4687 -28.454,-17.641 -68.524,-14.246 -93.5,8.3437 -36.093,5.0351 -64.625,44.575 -54.094,80.344 6.8733,27.025 32.301,49.182 60.625,49.75 12.088,8.683 26.941,13.712 41.875,12.875 31.52,26.37 78.659,26.608 114.61,9.3662 30.506,-12.884 63.279,-21.375 96.608,-20.897 37.381,-2.4046 77.25,-2.0435 110.38,-21.688 21.326,-16.977 25.529,-48.753 15.313,-73.031 -8.374,-24.799 -35.219,-42.391 -61.469,-37.312 -13.168,1.3933 -25.608,6.0278 -37.344,12.031 -14.974,-12.438 -30.937,-23.537 -44.969,-37.125 106.73,15.424 216.72,16.548 322.49,-6.2887 12.109,-2.9181 24.155,-6.0965 36.2,-9.2738 8.9596,6.5763 18.703,12.121 26.625,19.938 -5.2591,6.5494 -8.7676,15.034 -16.281,19.531 -34.564,-13.168 -79.297,2.9524 -93.828,38.09 -11.093,24.384 -5.1953,57.534 18.109,72.754 25.962,19.263 60.138,18.948 91.156,16.5 45.301,-1.5743 90.235,5.2365 134.97,11.127 30.389,2.1547 61.542,-1.4407 89.315,-13.939 24.336,0.8312 47.778,-6.1997 70.812,-12.969 20.22,-6.5084 38.722,-19.57 49.018,-38.324 14.375,-24.627 14.027,-58.625 -5.9498,-80.154 -9.1593,-10.926 -21.977,-18.566 -35.568,-22.678 -23.64,-19.697 -61.064,-17.896 -84.031,2.0313 -38.583,-6.1526 -77.57,10.264 -106.34,35.094 -8.214,2.6521 -16.514,-2.1218 -24.875,-0.5625 10.101,-15.907 21.522,-34.549 16.031,-54.031 -6.1509,-16.07 -21.013,-25.884 -33.531,-36.781 39.203,-25.465 71.479,-61.428 92.656,-103.19 28.014,14.62 67.095,7.7568 85.656,-18.875 38.885,9.3196 83.977,4.9503 114.62,-22.781 20.533,-20.446 28.556,-56.029 12.312,-81.313 -4.0023,-4.8517 -9.6998,-7.5052 -15.406,-9.8124 41.834,-22.538 72.468,-67.369 72.726,-115.62 0.8864,-27.306 -6.8348,-56.865 -27.976,-75.47 -17.327,-11.29 -42.148,-3.7874 -52.363,13.707 -39.738,39.528 -89.874,67.092 -141.82,87.418 4.5247,-131.47 -23.97,-265.17 -88.847,-379.87 -36.141,-59.206 -84.828,-109.8 -141.93,-148.91 37.348,-89.624 78.214,-177.69 118.41,-266.05 16.338,-41.878 25.457,-89.205 12.546,-133.3 -13.897,-43.48 -54.572,-74.449 -98.331,-84.376 -15.3,-3.8344 -31.092,-5.8068 -46.942,-5.458 z"
       fill="#ffffff"
       id="path2" />
    <path
       d="m 1581.9,506.53 c -53.351,1.4179 -101.67,36.708 -126.19,82.969 -12.313,21.562 -19.929,45.463 -25.781,69.531 -13.474,-10.924 -32.258,-6.8144 -47.902,-4.3133 -37.889,6.6577 -76.359,25.062 -96.375,59.15 -11.845,20.046 -14.155,44.462 -9.0664,66.976 3.0763,15.827 8.3934,31.136 13.531,46.438 -20.019,3.9268 -42.784,13.887 -48.531,35.281 -6.0345,23.245 7.079,45.242 16.56,65.525 9.0592,18.762 18.525,37.383 28.221,55.85 -95.425,59.04 -176.22,142.62 -228.12,242.45 -45.793,87.042 -69.8,184.94 -78.786,282.11 -60.044,-34.702 -116.69,-79.396 -153.75,-138.78 -3.5624,-8.996 -15.3,-12.236 -23.375,-7.375 -18.04,7.815 -25.052,28.145 -30.25,45.625 -12.56,48.414 9.468,103.06 51.531,129.66 11.257,7.9736 23.427,14.409 36.062,19.906 -20.481,3.1737 -41.504,2.8729 -62.094,0.3438 -21.054,28.346 -7.5649,74.108 25.035,87.102 24.918,13.391 54.453,16.914 82.496,13.773 -1.4781,13.851 8.9563,26.087 21.293,30.931 16.643,9.1672 39.612,11.423 54.738,-1.8369 2.2923,-1.778 4.3782,-3.7806 6.3125,-5.9376 18.435,67.888 66.346,127.05 129.28,158.72 11.323,6.0067 23.102,11.286 35.031,16.094 -16.767,13.065 -28.668,35.773 -22,57.219 3.9144,14.441 13.794,26.711 24.25,37 -3.0824,2.3284 -5.4089,0.026 -7.6665,-2.0372 -17.608,-11.971 -39.416,-16.197 -60.521,-15.338 -22.968,-24.036 -65.343,-21.964 -87.844,1.5313 -10.326,1.6168 -20.525,4.9768 -28.719,11.75 -15.324,11.605 -22.926,32.697 -16.688,51.219 6.2832,21.004 27.079,38.502 49.719,35.812 11.282,9.802 26.932,15.637 41.969,12.344 21.594,22.686 57.141,26.572 86.094,17.5 29.35,-8.7431 56.894,-24.925 88.041,-25.667 41.861,-4.976 85.729,-1.4399 125.65,-16.645 16.098,-8.1482 24.823,-28.12 19.683,-45.581 -2.3154,-16.522 -11.142,-35.018 -28.714,-39.107 -20.906,-5.6751 -41.949,3.9215 -59.844,13.906 -22.681,-18.847 -47.382,-36.25 -67.406,-57.375 3.1753,-7.2172 9.8639,-11.982 15.781,-16.656 25.32,5.068 51.296,7.3509 77.112,9.7324 60.733,4.5321 122.03,4.3262 182.58,-2.0762 37.446,-4.4186 74.574,-11.84 110.38,-23.625 14.282,11.859 32.614,20.756 43.062,36.188 -6.8381,15.06 -18.616,27.21 -28.375,40.5 -1.8539,3.1989 -4.5742,-1.7437 -7.0624,-1.6563 -22.104,-9.7069 -51.652,-7.5389 -68.281,11.375 -15.311,15.451 -21.46,43.012 -6.8437,60.906 15.288,18.55 41.233,23.104 64.156,22.637 37.824,-0.9224 76.003,-2.6736 113.39,4.1388 39.739,5.8022 82.148,12.332 120.64,-2.651 6.738,-2.7448 13.162,-7.3462 20.75,-5.4375 17.773,0.8111 34.889,-4.6942 51.679,-9.5981 30.936,-4.5057 58.982,-31.889 58.321,-64.308 -1.003,-22.897 -18.765,-43.672 -41.125,-48.375 -1.4622,1.6141 -2.6142,-2.7175 -4.6562,-3.125 -17.546,-14.585 -45.16,-13.648 -62.344,1 -3.6856,1.8452 -6.0669,7.7502 -10.689,4.8512 -27.068,-6.0786 -54.926,3.6466 -78.374,16.742 -8.662,5.3262 -16.622,11.913 -23.656,19.25 -19.51,-1.0387 -38.976,-2.7489 -58.469,-4.0625 11.443,-18.07 25.491,-35.483 30.594,-56.531 -1.3481,-14.592 -15.835,-22.222 -24.981,-31.585 -7.3248,-6.2516 -14.678,-12.472 -22.207,-18.477 50.628,-28.03 92.872,-72.77 113.72,-127.16 10.505,14.239 29.886,20.588 46.969,16.125 14.972,-1.8795 32.209,-10.212 34.875,-26.531 -0.1126,-3.6967 6.0118,1.1796 8.5313,0.8124 32.936,8.4871 70.853,7.4298 99.531,-12.469 17.836,-14.623 27.415,-41.232 17.781,-63.188 -7.0783,-9.8533 -21.024,-6.0056 -31.124,-9.2974 -10.417,-1.9645 -20.704,-4.6789 -30.689,-8.2338 40.158,-8.5945 80.219,-30.18 100.06,-67.469 17.808,-33.031 20.291,-76.631 -0.8124,-108.78 -6.7525,-8.6423 -22.024,-12.317 -29.522,-2.6406 -48.056,51.943 -113.13,85.37 -179.01,108.33 8.9368,-118.81 -13.038,-239.46 -60.542,-348.47 -36.168,-79.625 -96.406,-147.41 -169.21,-195.47 -5.1925,-0.65466 -1.9411,-6.2224 -0.5313,-8.9375 35.531,-85.059 72.5,-169.43 112.84,-252.31 17.465,-40.787 30.875,-86 22.625,-130.66 -6.8353,-33.332 -31.436,-61.501 -62.623,-74.583 -21.75,-10.353 -45.974,-15.437 -70.127,-14.949 z"
       id="path3" />
    <path
       d="m 1346.9,913.41 c 0,0 -39.546,-48.851 -51.178,-70.951 -16.284,4.6525 -54.667,9.305 -33.731,55.83 20.936,46.525 40.98,82.441 40.98,82.441 0,0 52.071,-23.121 96.269,-20.795 -23.262,3.4894 -37.22,9.305 -41.872,15.121 25.589,20.936 91.996,118.23 107.01,140.74 17.388,26.07 30.241,20.936 47.688,-18.61 17.447,-39.546 112.82,-272.17 144.23,-332.65 31.41,-60.48 83.745,-175.63 -1.1631,-223.32 -84.908,-47.688 -186.1,-4.6525 -211.69,131.43 -25.589,136.09 -30.241,227.97 -30.241,227.97 0,0 -6.9788,-68.624 9.305,-187.26 3.4893,-36.057 4.6525,-45.362 -16.284,-45.362 -20.9365,0 -109.33,13.958 -116.31,84.908 -1.1631,19.773 11.631,77.929 56.993,160.51 z"
       fill="#d40000"
       id="path4" />
    <path
       d="m 1333,983.88 c -11.865,0.12769 -27.263,5.572 -48.312,19.875 -79.624,54.103 -287.88,199.04 -292.81,580.66 -3.0076,138.76 70.742,261.55 278,282.94 207.258,21.39 430.97,-6.5945 490.19,-174.38 59.217,-167.78 37.813,-342.12 -16.469,-481.94 -54.282,-139.82 -176,-212.22 -176,-212.22 0,0 -55.923,131.61 -67.438,143.12 -11.515,11.51 -37.832,8.2333 -54.281,-21.375 -16.449,-29.608 -38.346,-67.663 -66.625,-100.34 -12.533,-14.484 -21.955,-36.605 -46.25,-36.344 z m -522.81,392.47 c -21.351,1.0312 -78.309,139.89 102.88,181.44 -48.851,24.426 -106.53,17.094 -106.53,17.094 0,0 -20.636,46.862 45.062,64.406 47.382,12.653 88.552,-4.4412 95.531,-9.0937 -11.067,16.118 -52.444,33.352 -1.5,49.719 27.685,8.8941 38.375,-23.844 38.375,-23.844 0,0 -12.805,-52.928 -3.5,-128.53 0,0 -115.15,-59.3 -169.81,-151.19 -0.16356,-0.01 -0.33188,-0.01 -0.5,0 z m 1190.7,57.375 c -71.055,79.893 -195.34,116.38 -195.34,116.38 -5.1579,75.999 -27.719,125.53 -27.719,125.53 0,0 4.3207,34.187 33.188,30.688 53.119,-6.4386 15.726,-31.205 7.9062,-49.125 5.9732,5.8881 43.174,30.466 92.094,27 67.83,-4.8058 56.438,-54.719 56.438,-54.719 0,0 -58.023,-3.7156 -101.38,-36.938 187.23,-6.5889 155.59,-156 134.81,-158.81 z"
       fill="#ffb380"
       id="path5" />
    <path
       d="m 1417.5,1127.3 c 0,0 -76.56,-134.56 -150.8,-90.48 -74.24,44.08 -204.16,211.12 -227.36,389.76 -23.2,178.64 83.52,327.12 185.6,352.64 102.08,25.52 324.8,32.48 406,-55.68 81.2,-88.16 150.8,-225.04 106.72,-394.4 -44.08,-169.36 -153.12,-290 -167.04,-264.48 -13.92,25.52 -53.36,220.4 -153.12,62.64 z"
       fill="#ffccaa"
       id="path6" />
    <g
       transform="matrix(0.8656,-0.50074,0.50074,0.8656,-570.24,788.69)"
       fill="#ff9955"
       id="g9">
      <path
         d="m 1238.7,1486.8 c 0,14.775 -12.177,19.773 -27.915,19.773 -15.738,0 -29.078,-4.9984 -29.078,-19.773 0,-14.7746 12.758,-26.752 28.496,-26.752 15.738,0 28.497,11.977 28.497,26.752 z"
         id="path7" />
      <path
         transform="matrix(0.93548,0,0,0.89706,77.029,151.2)"
         d="m 1212,1478.7 c 0,5.4602 -4.0358,9.8866 -9.0142,9.8866 -4.9784,0 -9.0142,-4.4264 -9.0142,-9.8866 0,-5.4602 4.0358,-9.8865 9.0142,-9.8865 4.9784,0 9.0142,4.4263 9.0142,9.8865 z"
         id="path8" />
      <path
         transform="matrix(0.41407,0,0,0.39706,723.18,900.72)"
         d="m 1212,1478.7 c 0,5.4602 -4.0358,9.8866 -9.0142,9.8866 -4.9784,0 -9.0142,-4.4264 -9.0142,-9.8866 0,-5.4602 4.0358,-9.8865 9.0142,-9.8865 4.9784,0 9.0142,4.4263 9.0142,9.8865 z"
         id="path9" />
    </g>
    <g
       transform="matrix(0.8656,-0.50074,0.50074,0.8656,-570.24,780.69)"
       id="g12">
      <path
         d="m 1238.7,1486.8 c 0,14.775 -12.177,19.773 -27.915,19.773 -15.738,0 -29.078,-4.9984 -29.078,-19.773 0,-14.7746 12.758,-26.752 28.496,-26.752 15.738,0 28.497,11.977 28.497,26.752 z"
         id="path10" />
      <path
         transform="matrix(0.93548,0,0,0.89706,77.029,151.2)"
         d="m 1212,1478.7 c 0,5.4602 -4.0358,9.8866 -9.0142,9.8866 -4.9784,0 -9.0142,-4.4264 -9.0142,-9.8866 0,-5.4602 4.0358,-9.8865 9.0142,-9.8865 4.9784,0 9.0142,4.4263 9.0142,9.8865 z"
         fill="#ffffff"
         id="path11" />
      <path
         transform="matrix(0.41407,0,0,0.39706,723.18,900.72)"
         d="m 1212,1478.7 c 0,5.4602 -4.0358,9.8866 -9.0142,9.8866 -4.9784,0 -9.0142,-4.4264 -9.0142,-9.8866 0,-5.4602 4.0358,-9.8865 9.0142,-9.8865 4.9784,0 9.0142,4.4263 9.0142,9.8865 z"
         fill="#ffffff"
         id="path12" />
    </g>
    <g
       transform="matrix(-0.8656,-0.50074,-0.50074,0.8656,3354.8,805.38)"
       fill="#ff9955"
       id="g15">
      <path
         d="m 1238.7,1486.8 c 0,14.775 -12.177,19.773 -27.915,19.773 -15.738,0 -29.078,-4.9984 -29.078,-19.773 0,-14.7746 12.758,-26.752 28.496,-26.752 15.738,0 28.497,11.977 28.497,26.752 z"
         id="path13" />
      <path
         transform="matrix(0.93548,0,0,0.89706,96.174,157.52)"
         d="m 1212,1478.7 c 0,5.4602 -4.0358,9.8866 -9.0142,9.8866 -4.9784,0 -9.0142,-4.4264 -9.0142,-9.8866 0,-5.4602 4.0358,-9.8865 9.0142,-9.8865 4.9784,0 9.0142,4.4263 9.0142,9.8865 z"
         id="path14" />
      <path
         transform="matrix(0.41407,0,0,0.39706,700.81,895.86)"
         d="m 1212,1478.7 c 0,5.4602 -4.0358,9.8866 -9.0142,9.8866 -4.9784,0 -9.0142,-4.4264 -9.0142,-9.8866 0,-5.4602 4.0358,-9.8865 9.0142,-9.8865 4.9784,0 9.0142,4.4263 9.0142,9.8865 z"
         id="path15" />
    </g>
    <g
       transform="matrix(-0.8656,-0.50074,-0.50074,0.8656,3354.8,797.38)"
       id="g18">
      <path
         d="m 1238.7,1486.8 c 0,14.775 -12.177,19.773 -27.915,19.773 -15.738,0 -29.078,-4.9984 -29.078,-19.773 0,-14.7746 12.758,-26.752 28.496,-26.752 15.738,0 28.497,11.977 28.497,26.752 z"
         id="path16" />
      <path
         transform="matrix(0.93548,0,0,0.89706,96.174,157.52)"
         d="m 1212,1478.7 c 0,5.4602 -4.0358,9.8866 -9.0142,9.8866 -4.9784,0 -9.0142,-4.4264 -9.0142,-9.8866 0,-5.4602 4.0358,-9.8865 9.0142,-9.8865 4.9784,0 9.0142,4.4263 9.0142,9.8865 z"
         fill="#ffffff"
         id="path17" />
      <path
         transform="matrix(0.41407,0,0,0.39706,700.81,895.86)"
         d="m 1212,1478.7 c 0,5.4602 -4.0358,9.8866 -9.0142,9.8866 -4.9784,0 -9.0142,-4.4264 -9.0142,-9.8866 0,-5.4602 4.0358,-9.8865 9.0142,-9.8865 4.9784,0 9.0142,4.4263 9.0142,9.8865 z"
         fill="#ffffff"
         id="path18" />
    </g>
    <path
       d="m 1400.5,1512.1 c -48.802,0.7154 -92.942,31.036 -120.13,69.742 -17.24,23.5 -33.743,50.528 -33.186,80.66 2.7949,29.318 25.118,52.661 50.112,66.135 59.74,35.958 139.41,36.008 199.1,-0.1581 19.995,-11.579 40.692,-27.071 46.913,-50.473 8.7347,-31.933 -2.7001,-65.486 -18.562,-93.125 -25.458,-43.135 -73.061,-74.419 -124.25,-72.781 z"
       fill="#ff9955"
       id="path19" />
    <path
       d="m 1400.5,1492.1 c -48.802,0.7154 -92.942,31.036 -120.13,69.742 -17.24,23.5 -33.743,50.528 -33.186,80.66 2.7949,29.318 25.118,52.661 50.112,66.135 59.74,35.958 139.41,36.008 199.1,-0.1581 19.995,-11.579 40.692,-27.071 46.913,-50.473 8.7347,-31.933 -2.7001,-65.486 -18.562,-93.125 -25.458,-43.135 -73.061,-74.419 -124.25,-72.781 z"
       id="path20" />
    <path
       d="m 1472.5,1528.7 c 0,0 -47.688,-38.383 -110.5,-15.121 -62.812,23.262 -101.19,100.03 -101.19,122.13 0,22.1 12.794,52.341 75.603,75.603 62.809,23.262 131.43,5.8156 176.8,-31.404 45.37,-37.2196 1.1631,-125.62 -40.709,-151.21 z"
       fill="#ff6600"
       id="path21" />
    <path
       d="m 1502.8,1652 c -12.794,0 -109.33,34.894 -191.92,-25.589 -17.447,-16.284 -22.099,-3.4894 -16.284,8.1419 5.8156,11.631 107.01,73.277 208.2,17.447 z"
       id="path22" />
    <path
       d="m 1640,1837.5 -30.219,15.125 c 0,0 43.024,30.238 44.188,40.125 1.1632,9.8866 -12.221,29.686 -43.625,66.906 -34.312,-25.007 -66.87,-13.96 -75.594,16.281 -8.7234,30.241 30.227,38.356 50,38.938 19.773,0.5815 61.663,-6.3759 142.5,7 80.837,13.376 123.87,-13.396 132.59,-44.219 8.7235,-30.823 -8.7356,-66.275 -58.75,-54.062 -50.014,12.213 -62.219,38.952 -72.688,57.562 -0.5816,-9.305 4.6563,-22.094 4.6563,-22.094 l -85.5,-5.8125 c 0,0 43.031,-65.141 43.031,-70.375 0,-5.234 -50.594,-45.375 -50.594,-45.375 z m -466.41,23.844 c -81.419,48.851 38.862,106.33 38.862,106.33 l -53.988,-1.6405 c -10e-5,10e-5 6.3749,12.182 -2.3126,19.781 -22.099,-58.156 -141.9,-43.048 -116.31,23.25 25.589,66.298 91.866,39.544 119.78,26.75 27.915,-12.794 56.99,-13.941 122.12,-18.594 65.135,-4.6526 74.444,-15.131 62.812,-51.188 -11.631,-36.057 -70.938,4.0938 -70.938,4.0938 0,0 -69.2,-55.256 -80.25,-67.469 -11.05,-12.213 13.938,-33.75 13.938,-33.75 z m 706.12,45.25 c -15.513,0.055 -28.031,12.344 -28.031,12.344 0,0 11.639,8.1216 19.781,37.781 8.1418,29.66 -21.531,53.531 -21.531,53.531 63.972,0.5815 79.676,-60.497 55.25,-90.156 -8.3963,-10.196 -17.343,-13.529 -25.469,-13.5 z m 41.031,17.75 c 5.3107,10.198 16.448,39.945 -14.375,73.094 31.986,-11.631 46.942,-53.321 14.375,-73.094 z m -877.31,8.25 c -22.5,0.2893 -47.727,14.846 -47.438,49.875 0.34782,42.093 36.411,51.157 42.75,48.531 -7.0372,-10.186 -19.596,-19.993 -16.406,-51.188 3.7984,-37.144 50.125,-36.812 50.125,-36.812 -6.2199,-6.7852 -17.246,-10.558 -29.031,-10.406 z m -49.094,19.875 c -41.123,10.692 -32.061,57.562 -1.2188,65.375 -25.496,-36.599 1.2188,-65.375 1.2188,-65.375 z"
       fill="#ff6600"
       id="path23" />
    <path
       d="m 1606.3,558.28 c -3.8101,0.0581 -7.9655,0.49559 -12.438,1.3438 -95.405,18.094 -108.56,486.91 -108.56,486.91 -10e-5,0 55.931,-149.68 100.34,-243.44 42.331,-89.365 98.127,-245.99 20.656,-244.81 z M 1382.92,695.9 c 0,0 -39.563,3.4731 -39.563,18.594 0,15.1209 41.872,134.95 47.688,148.91 5.8155,13.958 -1.1632,-34.901 0,-67.469 1.163,-32.568 3.5061,-101.19 -8.125,-100.03 z m -100.03,168.5 c -0.4093,-10e-4 -0.824,0.0472 -1.1875,0.15625 0,0 -19.763,6.9869 -6.9688,19.781 12.794,12.794 54.656,31.406 54.656,31.406 0,0 -33.81,-51.31 -46.5,-51.344 z"
       fill="#ff0000"
       id="path24" />
    <path
       d="m 1662.9,546 c 20.748,40.504 27.577,89.438 12.031,134.78 -27.915,81.419 -155.87,358.23 -172.16,397.78 -16.284,39.546 -50.009,-41.859 -80.25,-70.938 -30.241,-29.078 -30.225,-29.069 -18.594,-27.906 11.632,1.1631 5.7994,-11.643 18.594,-24.438 -19.773,-13.958 -69.796,-8.1525 -88.406,-3.5 -18.61,4.6525 -29.054,-4.655 -56.969,-41.875 -14.275,-19.033 -17.299,-37.117 -16.844,-50.281 -5.5397,7.8886 -6.7413,19.856 1.7188,38.656 20.936,46.525 40.969,82.438 40.969,82.438 0,0 52.082,-23.108 96.281,-20.781 -23.262,3.4894 -37.222,9.3094 -41.875,15.125 25.589,20.936 91.988,118.21 107,140.72 17.388,26.071 30.241,20.953 47.688,-18.594 17.447,-39.547 112.81,-272.17 144.22,-332.66 30.397,-58.543 80.415,-168.31 6.5938,-218.53 z m -160.88,10.156 c -27.318,24.921 -48.636,63.708 -58.562,116.5 -23.48,124.87 -29.289,211.59 -30.094,225.19 5.4465,-29.058 27.83,-108.7 35.531,-134.69 9.3051,-31.404 46.899,-126.56 48.062,-157.97 0.6801,-18.36 -1.8076,-33.546 5.0625,-49.031 z m -155.47,126 c -26.943,12.073 -52.969,33.578 -56.625,70.75 -1.1493,19.541 11.361,76.581 55.438,157.62 3.6112,5.3344 7.2418,9.887 10.875,13.438 -23.851,-71.554 -50.175,-150.51 -46.063,-178.47 3.3989,-23.112 16.93,-49.008 36.375,-63.344 z m 66.031,209.5 c -0.9532,11.113 -1.6875,19.438 -1.6875,19.438 0,0 1.3015,-6.9092 2.2188,-11.812 -0.1016,-1.1188 -0.2825,-3.2881 -0.5313,-7.625 z"
       fill="#800000"
       id="path25" />
    <path
       d="m 816.06,1418.1 c -5.1251,0.4297 -6.1969,8.2602 -0.75,26.844 13.944,47.574 150.09,86.125 150.09,86.125 -3.281,-1.6405 -74.62,-36.902 -104.97,-73.813 -18.494,-22.492 -36.38,-39.826 -44.375,-39.156 z m 107.53,150.69 c -4.9214,0.8202 -46.754,22.163 -89.406,14.781 3.281,9.8427 37.731,29.512 89.406,-14.781 z m 33.406,61.25 c -2.8028,4.3091 -27.997,23.697 -21.969,28.75 6.022,5.0476 20.999,-26.678 21.969,-28.75 z"
       fill="#ffccaa"
       id="path26" />
    <path
       d="m 1984.2,1475.7 c 4.9499,1.3966 4.5129,9.288 -4.3689,26.496 -22.737,44.054 -163.73,56.008 -163.73,56.008 3.5332,-0.9865 80.276,-22.037 117.09,-52.502 22.434,-18.565 43.29,-32.181 51.012,-30.002 z m -134.23,127.49 c 4.6756,1.7412 41.685,30.651 84.963,31.515 -5.093,9.0391 -42.655,21.797 -84.963,-31.515 z m -44.445,53.779 c 1.9321,4.7635 22.98,28.589 16.1,32.403 -6.8721,3.8101 -15.543,-30.185 -16.1,-32.403 z"
       fill="#ffccaa"
       id="path27" />
    <path
       d="m 784.81,1431.4 c -2.4483,43.842 21.711,101.74 127.78,126.22 7.8864,-1.8604 16.674,-4.4352 27.406,-7.6874 27.068,-8.2024 3.2875,-9.8673 -13.938,-10.688 -17.2255,-0.8207 -85.307,-29.525 -109.09,-50.031 -15.451,-13.32 -26.378,-40.41 -32.156,-57.812 z m 21.719,143.44 c 0,0 -20.636,46.862 45.062,64.406 41.281,11.024 77.84,-0.5144 91.188,-6.75 3.4814,-3.1685 7.042,-6.6917 10.344,-10.406 13.124,-14.764 5.7488,-16.382 -7.375,-9 -13.124,7.3821 -44.3,17.203 -82.031,12.281 -37.731,-4.9215 -49.219,-18.868 -52.5,-32.812 -1.427,-6.0648 -1.6208,-12.282 -1.375,-17.375 -2.0832,-0.1805 -3.3125,-0.3438 -3.3125,-0.3438 z m 174.59,65.312 c -3.9663,6.3919 -15.653,24.17 -26.375,29.531 -13.124,6.5618 -21.313,-0.024 -27.875,-4.125 -2.4998,-1.5624 -4.515,-2.5263 -6.0625,-3.125 0.44855,5.8663 6.95,11.699 24.812,17.437 27.685,8.8942 38.375,-23.844 38.375,-23.844 0,0 -1.3653,-5.6981 -2.875,-15.875 z"
       fill="#ff9955"
       id="path28" />
    <path
       d="m 2014.8,1458.5 c -2.4251,16.802 -8.8534,48.547 -24.125,64.406 -21.326,22.146 -73.808,44.297 -107.44,45.938 -33.63,1.6405 -68.092,-7.3584 -54.969,4.125 8.149,7.1304 23.256,15.831 41,22 -1.0924,-0.7883 -2.1745,-1.5821 -3.25,-2.4063 140.77,-4.9537 157.82,-90.644 148.78,-134.06 z m -55.25,170.16 c -0.8897,5.6371 -2.7345,12.295 -6.5938,17.312 -8.2024,10.663 -37.753,26.249 -73.844,13.125 -36.09,-13.124 -66.43,-35.288 -67.25,-24.625 -0.5516,7.1714 1.5183,15.095 8.4063,24 0.027,0.022 0.035,0.04 0.062,0.062 9.1879,7.5392 44.763,28.937 90.625,25.688 67.83,-4.8058 56.438,-54.719 56.438,-54.719 0,0 -2.9561,-0.2017 -7.8437,-0.8438 z m -177.44,35.969 c -2.6092,7.1 -4.3437,11.031 -4.3437,11.031 0,0 4.3207,34.187 33.188,30.688 6.4587,-0.7829 11.564,-1.8455 15.562,-3.125 -5.41,-0.2251 -11.624,-2.0533 -17.938,-7.2187 -13.261,-10.85 -22.483,-24.74 -26.469,-31.375 z"
       fill="#ff9955"
       id="path29" />
    <path
       d="m 1233.6,1120.2 c 0,0 -123.04,104.99 -134.52,255.91 0,39.372 27.888,21.326 32.81,-9.8429 4.922,-31.1689 41.012,-116.47 86.945,-167.33 45.933,-50.855 47.574,-104.99 14.764,-78.743 z"
       fill="#ffe6d5"
       id="path30" />
  </g>
</svg>
