<?xml version='1.0' encoding='utf-8'?>
<svg xmlns="http://www.w3.org/2000/svg" width="210mm" height="210mm" version="1.1" style="shape-rendering:geometricPrecision; text-rendering:geometricPrecision; image-rendering:optimizeQuality; fill-rule:evenodd; clip-rule:evenodd" viewBox="0 0 21000 21000"> <defs> <style type="text/css">  .fil11 {fill:#FEFEFE} .fil12 {fill:#E6E7E8} .fil5 {fill:#373435} .fil3 {fill:#373435} .fil18 {fill:#FFFDF2} .fil9 {fill:#FBF9EE} .fil14 {fill:#F2F0E6} .fil16 {fill:#E7E5D4} .fil17 {fill:#E7E5D4} .fil0 {fill:#FFFBD6} .fil13 {fill:#E6DBD7} .fil6 {fill:#E6DBD7} .fil8 {fill:#BDAEA9} .fil10 {fill:#A99087} .fil7 {fill:#968079} .fil15 {fill:#715951} .fil1 {fill:#F9AA75} .fil4 {fill:#5CA47A} .fil2 {fill:#373435;fill-rule:nonzero}  </style> </defs> <g id="Camada_x0020_1"> <metadata id="CorelCorpID_0Corel-Layer"/> <rect class="fil0" x="-12" y="-5" width="21012" height="21012"/> <path class="fil1" d="M10617 20412c5714,0 10346,212 10346,473 0,5 -2,10 -5,14l-20682 0c-3,-4 -5,-9 -5,-14 0,-261 4632,-473 10346,-473z"/> <path class="fil2" d="M1659 20880c-2,3 -9,1 -16,-6 -8,-7 -13,-15 -11,-19l119 -273c-11,-20 -44,-89 -24,-141 23,-58 148,-247 155,-257 3,-16 75,-396 85,-410 9,-15 374,-61 375,-61 4,0 13,6 19,13 6,8 8,14 4,15 -1,0 -363,45 -372,58 -8,13 -83,406 -84,409l0 1c0,0 -132,198 -155,256 -21,56 21,127 23,131l0 0c2,3 3,7 2,8l-120 276z"/> <path class="fil2" d="M1913 20190c0,5 -6,5 -13,-1 -8,-5 -15,-14 -15,-19 0,-1 -16,-162 -62,-235 -38,-61 -68,-61 -68,-61 -5,0 -14,-6 -20,-13 -4,-6 -6,-10 -5,-13l75 -179c2,-3 9,-1 16,6 8,7 13,15 11,19l-68 163c21,11 50,35 81,84 51,82 67,249 68,249z"/> <path class="fil2" d="M1732 20555c8,-1 26,10 38,25 13,16 16,29 7,30 -1,0 -179,19 -297,-96l-1 -1c-89,-86 -69,-137 -51,-185 8,-20 15,-39 13,-58 -2,-21 -27,-45 -51,-69 -39,-38 -77,-76 -85,-119 -8,-38 -2,-88 5,-123 -65,-14 -165,-51 -210,-149 -54,-119 -11,-197 -11,-198 4,-6 19,0 33,14 15,14 24,30 21,37 0,0 -39,70 8,172 31,69 164,77 174,77 6,0 15,5 25,14 16,13 26,30 24,38 0,0 -26,96 -15,156 4,18 26,40 49,62 41,41 83,83 88,129 3,24 -5,44 -13,66 -14,37 -29,76 13,117 79,78 235,61 236,61z"/> <path class="fil2" d="M1362 20010c0,5 -7,3 -15,-4 -7,-6 -13,-15 -12,-19 0,0 38,-202 61,-234 23,-32 148,-127 149,-128 2,-2 11,2 18,10 7,7 10,15 7,17 0,0 -125,95 -148,126 -22,32 -60,232 -60,232z"/> <polygon class="fil3" points="1644,20587 1533,20898 1748,20908 1766,20592 "/> <ellipse class="fil4" cx="1515" cy="19479" rx="1413" ry="388"/> <path class="fil2" d="M1493 19063c391,0 746,44 1003,115 284,77 460,192 460,323 0,111 -160,209 -418,280 -256,71 -610,114 -1001,114 -392,0 -747,-44 -1004,-114 -284,-78 -460,-192 -460,-324 0,-110 160,-209 418,-280 256,-70 610,-114 1002,-114zm1039 170c-255,-70 -606,-113 -995,-113 -390,0 -742,43 -997,113 -254,70 -411,164 -411,268 0,83 141,162 369,225 254,70 606,113 995,113 389,0 741,-44 997,-114 253,-69 410,-164 410,-268 0,-82 -141,-162 -368,-224z"/> <path class="fil2" d="M19586 20847c-2,21 -29,55 -58,77 -30,22 -52,22 -50,2l13 -98 -252 -436 104 -99 1 1c8,15 203,344 464,271 114,-32 -526,-501 -528,-502 -5,-4 -5,-12 -1,-22l130 -405 -433 -416c-10,-10 5,-40 33,-69 3,-3 7,-6 10,-9l466 -410c20,-18 40,-27 51,-27l0 0 551 27 365 -292c29,-23 54,-28 55,-10 1,18 -22,51 -52,75l-388 311c-19,16 -38,26 -50,25l-548 -27 -369 325 416 400c3,4 4,10 1,19l-130 406c77,57 777,588 353,706 -64,19 -125,15 -179,-1l36 63c2,3 3,7 2,12l-13 103z"/> <path class="fil2" d="M19471 19608c-20,17 -38,23 -42,14 -3,-10 11,-32 30,-50 1,0 248,-219 332,-284 5,7 9,12 11,18l9 -32c-4,3 -11,8 -20,14 -15,-20 -45,-44 -85,-72 -260,-118 -912,-375 -915,-376 -2,-1 -3,-3 -3,-6l-85 -662c-2,-11 13,-33 33,-50 20,-16 37,-20 39,-9l84 658c48,22 616,284 847,445 70,32 112,54 105,58l-9 32c4,10 2,19 -8,25 -37,23 -322,276 -323,277z"/> <path class="fil2" d="M19280 18132c0,-12 15,-35 35,-51 20,-16 36,-19 37,-7l11 295c1,12 -15,34 -35,50 -9,7 -17,12 -24,14l-475 123 -48 28c-19,11 -30,7 -24,-10 6,-16 26,-39 45,-50l53 -31c5,-3 10,-5 15,-7l419 -108 -9 -246z"/> <path class="fil2" d="M18802 18348c7,4 -2,18 -21,31 -18,13 -39,20 -47,16l-334 -185c-8,-4 2,-18 20,-31 19,-13 40,-20 47,-16l335 185z"/> <path class="fil4" d="M18997 18403c3,73 413,133 919,133 508,0 920,-60 920,-134 0,-73 -402,-132 -901,-133 67,-21 106,-46 106,-72 0,-79 -352,-143 -786,-143 -312,0 -581,33 -708,81 -94,-13 -212,-21 -339,-21 -307,0 -556,45 -556,101 0,21 35,41 96,57 -169,17 -283,51 -283,88 0,56 249,102 556,102 252,0 465,-31 533,-73 88,11 194,17 308,17 47,0 92,-1 135,-3z"/> <path class="fil2" d="M19025 18381c3,33 104,64 267,88 165,24 394,39 646,39 254,0 483,-15 649,-39 136,-20 221,-37 221,-45 0,-33 -99,-64 -258,-87 -163,-24 -388,-39 -637,-40 -10,0 -8,-13 5,-28 10,-13 24,-25 34,-28 27,-8 47,-16 61,-24 -3,-35 -89,-69 -226,-93 -142,-26 -337,-42 -554,-42 -153,0 -295,8 -416,22 -124,14 -223,34 -286,57 -3,2 -6,2 -9,2 -47,-7 -100,-12 -158,-16 -56,-3 -116,-5 -178,-5 -153,0 -291,11 -391,29 -71,13 -115,22 -115,22 0,8 8,16 22,25 16,9 40,18 71,26 7,2 3,17 -10,32 -12,13 -27,23 -35,24 -85,9 -156,22 -204,37 -20,6 -31,-4 -31,1 0,25 60,48 158,66 100,18 239,30 392,30 124,0 238,-8 330,-20 92,-13 159,-29 188,-47 7,-5 13,-7 17,-6 44,5 93,10 146,13 51,2 105,4 160,4 23,0 45,0 68,-1 21,0 43,-1 67,-2 4,0 6,2 6,6zm220 144c-161,-23 -264,-56 -275,-94 -19,1 -40,2 -62,2 -22,1 -45,1 -68,1 -57,0 -111,-1 -162,-4 -50,-3 -98,-7 -142,-12 -42,21 -113,39 -203,52 -93,12 -209,20 -335,20 -153,0 -293,-11 -394,-30 -103,-19 -167,-46 -167,-77 0,-43 44,-77 120,-101 23,-7 50,-13 81,-19 -9,-8 -14,-17 -14,-26 0,-55 80,-98 210,-122 101,-18 241,-29 396,-29 62,0 123,1 179,5 58,4 111,9 158,15 66,-24 167,-44 291,-59 121,-14 265,-22 419,-22 218,0 415,17 557,43 145,26 235,64 235,107 0,22 -14,44 -41,66 222,3 421,18 569,40 165,24 267,59 267,99 0,66 -121,116 -318,145 -167,24 -397,39 -652,39 -253,0 -482,-15 -649,-39z"/> <path class="fil1" d="M2647 19879c114,0 218,40 300,107l-533 12 531 35c0,0 -411,20 -675,32 87,-113 224,-186 377,-186zm383 193c25,33 45,70 61,110l-596 -91 535 -19zm74 150c3,7 5,15 6,22l-462 1 456 -23zm14 62c2,10 3,20 4,31 -270,31 -723,84 -946,107 -3,-22 -5,-44 -5,-67 0,-32 4,-64 10,-95 199,7 660,18 937,24zm5 100c-2,27 -6,53 -12,78l-489 -40 501 -38zm-26 128c-2,4 -3,9 -5,13 -243,14 -671,42 -865,54 -22,-42 -39,-88 -48,-136 225,17 671,53 918,69zm-54 108c-14,21 -30,41 -47,59l-689 -59 736 0zm-67 80c-85,81 -201,131 -329,131 -129,0 -246,-51 -332,-135l661 4zm-792 -454c12,-53 34,-102 62,-147 276,34 750,89 750,89 0,0 -575,39 -812,58z"/> <path class="fil5" d="M17909 17239c-42,110 -88,218 -137,324 -221,477 -502,920 -794,1356 -82,123 -385,548 -441,701 47,223 293,270 351,535 11,50 11,102 0,153 -59,283 -381,350 -625,359 -152,5 -343,-9 -476,-88 -44,-26 -148,-68 -216,-81 -210,132 -509,245 -710,57 -212,-198 -203,-508 -41,-733 4,-7 6,-18 5,-27 -12,-30 -21,-63 -27,-96 -200,112 -407,211 -620,299l-9 1007c-3101,0 -5751,0 -8617,0 -564,-526 -1045,-1194 -1417,-1903 -39,413 -78,825 -116,1237l-63 666 -387 0 -170 -611c-286,-1027 -417,-1995 -390,-3060 13,-526 61,-1051 112,-1574 -309,-1303 -336,-2649 -38,-3956 400,-1751 1223,-3417 2537,-4661 1116,-1057 2535,-1749 4080,-1839 1459,-86 2843,375 4008,1246 1450,1085 2432,2690 3062,4365 46,124 54,254 20,382 -33,123 -101,227 -184,318 62,54 115,119 157,197 580,163 876,560 1003,1151l2128 2430 -323 195c-217,131 -428,273 -633,423 218,213 405,481 326,762 -133,478 -861,479 -1252,471 -34,-1 -69,-2 -103,-5z"/> <path class="fil6" d="M3566 13801c-174,2612 -591,3962 98,6436 0,0 443,-4694 454,-4772 12,-78 -552,-1664 -552,-1664z"/> <path class="fil2" d="M3647 14265c-36,463 -77,879 -116,1271 -144,1446 -256,2573 73,4101 115,-1220 398,-4200 407,-4262 5,-41 -202,-648 -364,-1110zm-333 1094c50,-504 104,-1047 144,-1641 -1,-30 29,-34 77,-6 57,34 117,101 135,151 2,4 569,1603 556,1692 -11,77 -452,4747 -454,4770 -3,27 -37,27 -85,-4 -59,-38 -116,-106 -129,-152 -532,-1912 -409,-3152 -244,-4810z"/> <path class="fil7" d="M16464 11930l2903 3314c-1539,932 -2646,2255 -3702,3624l-390 -6725c-23,-412 972,-732 1189,-213z"/> <path class="fil2" d="M16543 11856l2901 3312c14,16 -9,62 -52,104 -16,16 -32,29 -47,38l0 0c-750,454 -1395,1004 -1980,1606 -591,607 -1125,1273 -1648,1951 -35,45 -86,82 -115,82 -12,1 -18,-6 -18,-17l-390 -6724c-9,-160 110,-318 290,-444 103,-73 228,-128 354,-158 120,-29 245,-36 357,-15 153,30 283,112 348,265zm2701 3412l-2856 -3261c-2,-1 -3,-3 -4,-5 -60,-144 -183,-221 -326,-249 -104,-19 -218,-13 -327,13 -102,24 -196,64 -269,115 -67,47 -110,115 -105,197l384 6627c493,-635 1001,-1257 1564,-1837 579,-595 1211,-1141 1939,-1600z"/> <path class="fil8" d="M6591 17377c55,1134 703,2468 1548,3217l1153 0c6,-14 12,-27 17,-42 385,-1043 -88,-3103 -2718,-3175z"/> <path class="fil9" d="M8566 20612c0,0 -86,-168 6,-311 92,-143 203,228 203,228 0,0 -20,-181 192,-374 213,-192 84,362 84,362 0,0 84,-295 197,-335 113,-41 -26,430 -26,430l-656 0z"/> <path class="fil2" d="M8550 20609c-1,0 -94,-181 2,-329 77,-119 162,45 208,161 13,-72 56,-188 189,-308 156,-142 174,8 161,164 33,-64 74,-122 121,-139l1 0c167,-59 10,473 10,474 -1,3 -4,5 -7,4l-655 0c-8,0 -21,-10 -29,-24l-1 -3zm41 -286c-66,102 -38,215 -20,265l632 0c12,-43 115,-402 62,-383l-1 0c-110,40 -192,331 -193,332 -2,7 -12,5 -23,-6 -11,-10 -19,-25 -17,-33l0 -1c5,-22 102,-452 -45,-319 -203,184 -192,353 -191,365 2,9 -4,12 -14,7 -10,-5 -22,-20 -26,-32 0,-1 -92,-307 -164,-195z"/> <path class="fil10" d="M11063 20633c-3,-472 14,-3137 738,-3648 796,-562 1661,550 1872,1462 211,913 152,1147 152,1147l-10 1039 -2752 0z"/> <path class="fil9" d="M12540 20657c0,0 -317,-482 -109,-770 208,-288 671,558 671,558 0,0 -142,-837 71,-964 212,-128 435,945 435,945 0,0 -109,-492 0,-778 108,-285 222,-158 222,-158l-10 1163 -1280 4z"/> <path class="fil2" d="M12522 20660c-1,-1 -331,-504 -117,-802 177,-245 520,259 658,486 -30,-216 -90,-788 87,-894 148,-89 293,284 385,598 -8,-144 -1,-304 46,-427 116,-304 257,-146 257,-146 12,13 19,28 19,37l-10 1163c0,7 -3,10 -9,9l-1280 5c-10,0 -26,-12 -36,-29zm-66 -744c-171,237 22,605 84,710l1253 -5 9 -1129c-30,-13 -95,-9 -168,183 -107,281 0,766 0,767l0 0c3,15 -6,20 -21,11 -14,-9 -29,-29 -32,-44l-3 -15c-26,-122 -217,-981 -382,-883 -207,125 -68,949 -67,952 1,9 -2,14 -10,13 -11,-1 -28,-16 -38,-33 -1,-3 -433,-792 -625,-527z"/> <path class="fil11" d="M16495 13285c304,819 707,1806 1598,2420 889,611 1358,1179 -114,1150 -1678,-34 -3396,-2293 -3557,-3758 -136,-1227 1193,-2177 2073,188z"/> <path class="fil2" d="M16598 13344c150,404 323,848 566,1260 227,388 518,750 913,1022 506,347 895,693 951,967 49,237 -207,385 -966,370 -815,-17 -1649,-545 -2329,-1263 -771,-815 -1330,-1870 -1419,-2683 -47,-422 76,-812 293,-1051 105,-115 232,-195 372,-228 146,-34 311,-17 485,65 394,186 805,658 1134,1541zm386 1196c-258,-440 -438,-899 -592,-1315 -272,-732 -567,-1101 -831,-1226 -136,-64 -271,-75 -397,-46 -133,31 -252,108 -352,217 -209,229 -327,603 -282,1006 83,759 592,1730 1291,2468 592,626 1332,1087 2074,1102 714,15 959,-106 919,-299 -32,-155 -322,-400 -705,-663 -496,-341 -852,-780 -1125,-1244z"/> <path class="fil12" d="M14741 14155c-171,-370 -284,-733 -319,-1058 -135,-1219 1176,-2164 2056,143 -228,-41 -509,-37 -806,91 -425,184 -744,547 -931,824z"/> <path class="fil2" d="M14686 14126c-88,-189 -160,-377 -215,-559 -54,-178 -91,-351 -109,-514 -46,-416 74,-801 288,-1038 103,-114 228,-194 366,-227 141,-35 299,-20 464,56 360,167 740,604 1054,1428 8,21 1,30 -16,27 -111,-20 -235,-29 -369,-17 -134,12 -277,44 -424,108 -184,80 -348,193 -490,319 -184,162 -331,345 -436,501 -9,13 -42,-1 -74,-31 -19,-18 -33,-37 -39,-53zm-99 -486c39,129 87,260 143,394 101,-141 233,-297 392,-439 144,-127 310,-242 497,-323 150,-64 296,-98 433,-110 127,-11 248,-3 357,14 -279,-719 -590,-1091 -875,-1223 -144,-66 -285,-78 -416,-47 -133,33 -254,111 -354,221 -210,232 -328,608 -283,1014 18,158 54,326 106,499z"/> <path class="fil2" d="M14745 13761c-2,5 -12,2 -23,-8 -11,-10 -18,-22 -16,-27 35,-97 88,-187 155,-269 164,-206 409,-363 656,-454 248,-90 499,-114 675,-50 45,17 86,39 122,68 11,9 20,22 20,28 -1,7 -10,5 -21,-4 -28,-22 -61,-40 -99,-54 -171,-62 -417,-38 -662,52 -246,90 -490,247 -653,451 -66,82 -119,171 -154,267z"/> <path class="fil13" d="M5681 20061c-2236,-2718 -2920,-5673 -2330,-8260 1686,-7387 10040,-8942 13082,-848 154,409 -582,623 -493,832 233,545 2145,-607 1350,3614 -148,786 -432,1508 -828,2149 -2242,3620 -6869,2513 -10781,2513z"/> <path class="fil2" d="M5620 20068c-1112,-1351 -1847,-2756 -2238,-4142 -409,-1450 -443,-2883 -138,-4217 501,-2196 1590,-3878 2954,-4946 980,-767 2103,-1218 3251,-1315 1158,-97 2346,165 3450,825 1468,879 2770,2432 3637,4739 102,270 -116,448 -297,596l0 0c-119,97 -220,180 -199,230 1,3 114,18 255,42 683,118 1726,299 1102,3610 -73,391 -181,767 -318,1124 -141,365 -313,710 -512,1033 -1825,2947 -5223,2772 -8535,2601 -767,-39 -1529,-79 -2266,-79 -36,0 -100,-44 -146,-101zm-2027 -4006c369,1309 1049,2628 2068,3891 718,2 1460,40 2206,79 3296,170 6677,344 8490,-2584 200,-323 371,-665 509,-1025 137,-355 243,-727 316,-1115 563,-2988 -221,-3124 -736,-3213 -267,-46 -487,-84 -606,-364 -54,-125 62,-219 197,-330 168,-137 370,-302 294,-507 -822,-2185 -2026,-3638 -3371,-4443 -1055,-632 -2205,-881 -3335,-786 -1138,96 -2252,543 -3226,1305 -1357,1063 -2441,2737 -2940,4924 -302,1321 -269,2738 134,4168z"/> <ellipse class="fil11" cx="14720" cy="11849" rx="225" ry="339"/> <path class="fil2" d="M14705 11490c72,0 139,47 189,123 44,66 71,155 71,252 0,94 -26,180 -67,242 -41,62 -98,101 -162,101 -72,0 -139,-47 -190,-123 -43,-66 -70,-155 -70,-252 0,-94 25,-180 66,-242 41,-62 99,-101 163,-101zm159 116c-31,-47 -76,-76 -128,-76 -60,0 -115,37 -155,98 -40,60 -65,144 -65,237 0,90 23,171 61,228 31,46 76,75 128,75 60,0 115,-37 155,-98 40,-60 65,-144 65,-237 0,-90 -23,-170 -61,-227z"/> <ellipse class="fil5" cx="14830" cy="11867" rx="103" ry="140"/> <ellipse class="fil11" cx="15301" cy="11849" rx="225" ry="339"/> <path class="fil2" d="M15317 11530c-61,0 -116,37 -156,98 -40,60 -65,144 -65,237 0,90 24,171 61,228 31,46 76,75 128,75 61,0 116,-37 155,-98 41,-60 66,-144 66,-237 0,-90 -24,-170 -61,-227 -31,-47 -76,-76 -128,-76zm-194 61c41,-62 99,-101 162,-101 72,0 140,47 190,123 43,66 70,155 70,252 0,94 -25,180 -66,242 -41,62 -99,101 -162,101 -72,0 -140,-47 -190,-123 -44,-66 -71,-155 -71,-252 0,-94 26,-180 67,-242z"/> <ellipse class="fil11" cx="14767" cy="11786" rx="46" ry="63"/> <ellipse class="fil11" cx="14861" cy="11955" rx="20" ry="28"/> <ellipse class="fil5" cx="15215" cy="11867" rx="103" ry="140"/> <ellipse class="fil11" cx="15152" cy="11786" rx="46" ry="63"/> <ellipse class="fil11" cx="15246" cy="11955" rx="20" ry="28"/> <path class="fil5" d="M13963 11243c0,0 137,-417 569,-470 615,-76 -450,423 -569,470z"/> <path class="fil5" d="M15874 11186c0,0 -128,-393 -536,-443 -580,-71 424,399 536,443z"/> <path class="fil13" d="M14351 12688c195,-184 467,0 770,-88 667,-192 1381,-1018 1987,178 38,75 -123,301 -123,301 0,0 619,1075 798,2682 178,1607 -1650,3421 -1605,3793 44,372 331,460 360,595 30,136 -495,165 -630,85 -135,-81 -410,-169 -495,-110 -84,59 -313,186 -376,127 -64,-59 -98,-182 0,-317 97,-136 63,-297 38,-339 -26,-42 -306,-3052 -687,-4825 -380,-1773 -37,-2082 -37,-2082z"/> <path class="fil2" d="M15070 12679c-36,10 -41,-17 -13,-61 27,-43 79,-87 114,-97 149,-43 305,-122 461,-200 538,-272 1083,-547 1554,384 35,70 -61,237 -114,318 81,146 624,1178 790,2671 123,1103 -682,2300 -1206,3079 -236,352 -411,612 -399,714 28,231 152,350 247,441 56,54 102,98 114,152 3,16 1,33 -5,50 -34,96 -119,159 -229,193 -58,18 -132,30 -206,34 -136,8 -281,-6 -345,-45 -74,-43 -189,-89 -292,-112 -72,-16 -129,-25 -140,-18 -59,42 -177,111 -277,145 -70,23 -133,30 -165,1 -38,-36 -66,-92 -66,-161 0,-64 24,-140 86,-225l0 0 0 0c22,-32 34,-73 38,-114 8,-73 -8,-135 -22,-159 -8,-13 -31,-216 -68,-542 -108,-952 -337,-2965 -621,-4288 -66,-308 -110,-571 -138,-794 -28,-226 -40,-414 -42,-570 0,-28 36,-79 81,-114 45,-36 82,-42 82,-14 1,154 13,340 41,564 29,225 72,487 137,790 285,1325 513,3340 622,4293 36,320 59,519 63,527 17,28 37,102 27,188 -7,65 -32,140 -87,216l0 1c-26,36 -36,76 -36,114 0,57 24,104 56,134 19,18 60,12 107,-4 75,-25 161,-75 204,-105 65,-45 160,-48 256,-26 106,23 226,71 302,116 57,34 192,47 320,40 49,-3 96,-9 137,-18 -19,-30 -51,-61 -87,-96 -98,-93 -226,-217 -256,-460 -16,-141 178,-430 440,-820 506,-753 1283,-1910 1165,-2974 -173,-1561 -762,-2615 -794,-2671 -9,-11 -3,-36 20,-67 0,-1 129,-183 101,-238 -453,-895 -960,-639 -1461,-386 -165,83 -330,167 -496,214z"/> <path class="fil11" d="M14812 14077c305,819 707,1806 1599,2420 888,611 1358,1180 -115,1150 -1678,-34 -3395,-2293 -3557,-3758 -135,-1227 1194,-2177 2073,188z"/> <path class="fil2" d="M14915 14136c150,404 324,848 566,1260 228,388 519,750 914,1022 506,348 895,694 951,968 49,236 -207,384 -966,369 -815,-16 -1649,-545 -2329,-1263 -771,-815 -1330,-1870 -1420,-2682 -46,-423 76,-813 294,-1052 105,-115 231,-195 371,-228 147,-34 311,-17 486,65 394,186 805,658 1133,1541zm387 1196c-258,-440 -438,-899 -593,-1315 -272,-731 -567,-1101 -831,-1226 -135,-64 -270,-75 -396,-46 -133,31 -253,108 -352,217 -209,229 -327,603 -283,1006 84,759 592,1730 1291,2468 593,626 1333,1087 2074,1102 714,15 959,-106 920,-299 -32,-156 -323,-400 -705,-663 -497,-341 -853,-780 -1125,-1244z"/> <path class="fil13" d="M12903 14947c-187,-403 -310,-799 -349,-1153 -146,-1328 1282,-2358 2241,156 -248,-44 -554,-41 -878,99 -463,201 -810,597 -1014,898z"/> <path class="fil2" d="M13879 12774c-40,-21 -89,-70 -107,-110 -19,-40 -1,-56 40,-35 185,92 379,232 570,477 174,222 342,531 491,973 9,27 -2,39 -26,33 -109,-19 -231,-28 -363,-17 -133,12 -276,44 -422,108 -184,79 -348,193 -490,318 -183,162 -330,345 -435,501 -12,18 -57,-1 -100,-43 -25,-24 -45,-50 -54,-72 -88,-190 -160,-378 -216,-561 -54,-179 -91,-353 -109,-517 -3,-30 30,-28 75,5 45,33 84,84 87,114 17,158 53,325 105,497 33,110 73,223 120,336 98,-134 224,-280 375,-414 144,-127 311,-243 497,-323 151,-66 297,-99 435,-111 125,-11 244,-4 352,13 -135,-390 -278,-656 -423,-840 -131,-168 -269,-266 -402,-332z"/> <path class="fil2" d="M13063 14553c-2,6 -12,2 -23,-8 -11,-9 -18,-22 -16,-27 35,-97 88,-187 154,-269 165,-205 410,-363 657,-454 247,-90 498,-114 674,-50 45,17 87,39 123,68 11,9 19,22 19,28 0,7 -10,5 -21,-4 -27,-22 -61,-40 -99,-54 -170,-62 -416,-38 -661,52 -246,90 -490,247 -654,451 -65,82 -118,171 -153,267z"/> <path class="fil2" d="M15049 13207c-9,-3 -22,-14 -28,-24 -7,-11 -4,-17 4,-14 2,0 456,160 938,-128l1 0c487,-290 1005,-32 1006,-31 10,4 22,16 27,26 5,10 0,15 -10,10 -1,-1 -506,-252 -987,34l0 0c-487,290 -950,128 -951,127z"/> <path class="fil5" d="M15285 19956c15,-10 129,-118 373,-81 244,36 407,230 568,228 161,-2 163,-8 163,-8 0,0 -143,85 -375,18 -198,-57 -370,-220 -540,-148 -129,55 -373,163 -321,107 41,-44 132,-116 132,-116z"/> <path class="fil13" d="M3551 16067c82,1664 1033,3623 2273,4722l1694 0c8,-20 17,-40 24,-62 566,-1531 -129,-4554 -3991,-4660z"/> <path class="fil2" d="M3403 15984c-2,-39 45,-33 105,12 60,46 110,114 112,153 40,820 293,1710 687,2530 375,778 873,1487 1434,2002l1635 0 8 -18c6,-16 10,-26 12,-31 170,-460 224,-1055 112,-1665 -95,-513 -308,-1031 -668,-1472 -49,-59 -60,-111 -26,-114 35,-4 102,42 151,102 415,508 655,1080 758,1634 115,625 59,1235 -114,1706 -6,17 -11,27 -12,32 -3,7 -7,17 -13,30 -4,8 -11,12 -22,12l-1689 0c-23,3 -64,-18 -107,-55 -658,-584 -1235,-1387 -1654,-2257 -407,-846 -668,-1761 -709,-2601z"/> <path class="fil13" d="M8803 20756c-3,-472 14,-3137 738,-3648 796,-562 1661,550 1872,1462 211,913 152,1147 152,1147l-10 1039 -2752 0z"/> <path class="fil2" d="M11306 18499c-10,-45 29,-49 88,-10 59,40 115,108 126,153 198,859 160,1129 154,1164l-10 1036c-1,17 -11,24 -29,23l-2747 0c-37,0 -105,-49 -152,-108 -27,-35 -41,-65 -41,-85l0 0c-2,-303 4,-1504 199,-2466 110,-545 281,-1015 547,-1202 23,-17 87,17 142,74 55,58 81,118 58,134 -257,182 -424,642 -532,1178 -164,811 -193,1796 -197,2258l2535 0 10 -1016c0,-3 0,-5 1,-8 0,0 56,-225 -152,-1125z"/> <path class="fil9" d="M6452 20725c0,0 -127,-247 8,-456 135,-210 298,333 298,333 0,0 -29,-265 283,-547 311,-283 123,530 123,530 0,0 123,-432 288,-492 166,-60 -38,632 -38,632l-962 0z"/> <path class="fil2" d="M6427 20720c0,-1 -136,-265 4,-483 113,-175 237,66 305,237 20,-106 83,-277 277,-453 230,-207 256,13 237,241 48,-93 109,-179 178,-204 248,-89 16,694 16,696 -2,5 -5,7 -10,7l-961 0c-13,0 -32,-16 -43,-36l-3 -5zm61 -420c-97,150 -56,315 -29,390l927 0c19,-64 169,-590 91,-562 -162,58 -283,485 -284,486 -3,11 -18,8 -34,-7 -17,-16 -28,-38 -25,-50l0 -1c8,-33 150,-664 -66,-468 -296,267 -282,514 -280,535 2,14 -6,19 -20,11 -16,-8 -33,-29 -39,-47 0,-1 -135,-451 -241,-287z"/> <path class="fil9" d="M10218 20698c0,0 -317,-482 -109,-770 208,-288 671,558 671,558 0,0 -141,-837 71,-964 213,-128 435,945 435,945 0,0 -109,-492 0,-778 109,-285 222,-158 222,-158l-9 1163 -1281 4z"/> <path class="fil2" d="M10200 20701c-1,-1 -331,-504 -116,-802 177,-245 519,260 657,486 -29,-216 -89,-788 87,-894 149,-89 293,284 385,598 -7,-144 0,-304 47,-427 116,-304 256,-146 257,-146 11,13 18,28 18,37l-9 1163c0,7 -4,10 -10,9l-1279 5c-10,0 -26,-12 -37,-29zm-65 -744c-171,237 22,605 83,710l1254 -5 9 -1129c-31,-13 -95,-9 -169,183 -107,282 0,766 1,767l0 1c3,15 -7,19 -21,10 -15,-9 -29,-29 -32,-44l-4 -14c-26,-123 -217,-982 -381,-884 -208,125 -68,949 -68,952 2,9 -1,14 -9,13 -11,-1 -29,-16 -38,-33 -2,-2 -434,-792 -625,-527z"/> <path class="fil7" d="M11908 11930l-2903 3314c1357,677 2689,1628 3983,2992l109 -6093c7,-413 -972,-732 -1189,-213z"/> <path class="fil2" d="M11984 12007l-2846 3249c631,326 1257,712 1877,1172 639,474 1270,1026 1893,1670l108 -6019c1,-82 -45,-151 -114,-198 -75,-53 -173,-94 -279,-118 -112,-25 -228,-30 -333,-5 -133,31 -245,107 -302,244 -1,2 -2,4 -4,5zm-3056 3161l2901 -3312c62,-146 181,-227 322,-260 113,-26 240,-21 364,7 130,29 258,85 365,160 180,125 301,282 298,444l-109 6090c1,8 -1,14 -7,18 -18,11 -66,-15 -107,-58 -635,-669 -1279,-1237 -1930,-1720 -654,-485 -1317,-886 -1986,-1221 -18,-9 -39,-24 -59,-44 -43,-42 -66,-88 -52,-104z"/> <ellipse class="fil13" transform="matrix(1.7263 0.722288 -0.722288 1.7263 14511.4 12154.8)" rx="161" ry="82"/> <path class="fil2" d="M14334 11996c-7,1 -6,-9 1,-21 6,-12 17,-23 24,-24 32,-3 69,-2 108,5 38,7 78,19 118,36 77,32 141,77 181,124 41,49 57,102 38,148 -5,12 -15,25 -23,29 -8,3 -11,-3 -6,-15 13,-32 -3,-75 -41,-119 -39,-47 -102,-91 -178,-123 -40,-17 -79,-28 -116,-35 -39,-7 -75,-8 -106,-5z"/> <ellipse class="fil13" transform="matrix(-1.16758 0.983434 0.891119 1.28854 15520.3 12099.5)" rx="161" ry="82"/> <path class="fil2" d="M15618 11893c6,0 16,7 23,16 8,9 9,16 4,16 -27,1 -57,9 -88,24 -31,14 -63,35 -94,61 -52,43 -90,94 -111,141 -20,46 -24,86 -7,110 6,8 5,14 -2,13 -7,-2 -17,-10 -23,-19 -24,-34 -22,-82 0,-132 21,-48 60,-100 112,-144 31,-26 64,-47 95,-61 32,-15 64,-24 91,-25z"/> <path class="fil8" d="M3743 14305c0,0 -157,-3335 1814,-5563 1971,-2228 4537,-2863 6562,-1756 2026,1108 2215,2863 2215,2863 0,0 -1485,-135 -2566,1404 -1080,1540 -1107,1621 -1107,1621 0,0 -1944,-675 -3835,-135 -1890,540 -2590,1538 -2875,2173 -284,635 -84,1170 -84,1170l-124 -1777z"/> <path class="fil2" d="M10336 12896c-1,5 -11,3 -22,-7 -11,-9 -19,-21 -18,-27 210,-1077 964,-2261 2003,-3060 891,-685 1991,-1085 3137,-890 8,2 21,12 28,22 8,11 8,19 0,18 -1142,-195 -2239,205 -3128,888 -1037,798 -1791,1981 -2000,3056z"/> <path class="fil2" d="M6895 15393c4,10 0,14 -11,8 -10,-5 -21,-17 -26,-27 -3,-6 -993,-2155 -726,-4888 265,-2732 1779,-4569 1783,-4575 3,-4 14,1 25,12 10,10 16,22 13,26 -4,5 -1516,1840 -1782,4569 -265,2728 721,4869 724,4875z"/> <path class="fil2" d="M5415 15988c8,11 10,20 3,20 -7,0 -20,-9 -28,-20 -4,-5 -1270,-1621 -1433,-3664 -164,-2039 327,-3086 328,-3089 3,-5 13,-1 24,9 11,10 18,22 15,27 -1,3 -491,1047 -328,3083 163,2031 1415,3629 1419,3634z"/> <path class="fil2" d="M7348 19321c3,-4 11,1 19,11 8,10 13,22 11,26 -1,1 -230,449 -389,186 -76,-125 -126,-389 -121,-603 3,-82 13,-156 32,-213 19,-58 48,-98 89,-110 19,-6 41,-5 66,4 48,16 88,44 120,80 63,68 94,157 103,243 10,80 1,159 -18,212 -8,25 -20,45 -32,56 -97,89 -120,-103 -120,-104 -1,-8 5,-8 14,0 8,8 16,20 16,28 1,0 10,85 62,38 11,-10 22,-29 30,-54 18,-51 27,-127 18,-204 -8,-73 -31,-145 -76,-193 -24,-27 -56,-49 -97,-63 -23,-8 -43,-8 -60,-3 -39,11 -66,50 -85,105 -19,56 -29,129 -31,209 -5,207 39,457 108,571 124,203 341,-220 341,-222z"/> <path class="fil2" d="M11163 18714c0,-6 7,-4 16,5 8,9 15,21 14,28 0,1 -22,478 -157,537 -34,15 -81,3 -130,-25 -44,-26 -90,-66 -132,-113 -43,-49 -81,-106 -106,-164 -37,-85 -47,-172 -7,-241 52,-90 111,-167 165,-207 23,-18 45,-28 66,-30 23,-3 45,7 66,32 20,24 35,57 43,101l0 1c37,208 -73,278 -73,278 -4,3 -13,-4 -20,-15 -8,-11 -11,-21 -7,-24 0,0 106,-67 70,-266l0 0c-6,-30 -12,-49 -19,-57 -8,-9 -20,-12 -36,-11 -19,2 -40,13 -63,30 -52,40 -111,116 -163,205 -37,64 -29,143 3,217 21,46 51,92 85,131 35,40 75,74 113,96 45,26 87,36 118,22 132,-57 154,-528 154,-530z"/> <path class="fil8" d="M3801 16322c555,1534 1341,2876 2503,3905 -57,143 -48,263 -10,374l-441 -2c-1057,-1254 -1879,-2670 -2052,-4277z"/> <path class="fil8" d="M7808 18859l915 41c-25,381 -51,746 -76,1091l-781 -35c44,-358 24,-724 -58,-1097z"/> <path class="fil8" d="M11827 19861c0,0 1398,-193 2163,-556 764,-363 780,-355 780,-355l-224 -1885c0,0 -281,-131 -687,-585 -406,-454 -660,-895 -660,-895l-33 2958c0,0 -730,195 -977,234 -248,39 -482,66 -482,66 0,0 10,75 65,547 55,471 55,471 55,471z"/> <path class="fil8" d="M14143 12639c45,17 520,106 694,213 173,106 -56,386 -56,386 0,0 251,33 498,251 246,218 1164,1292 1396,2179 232,886 253,962 253,962 0,0 -570,-238 -956,-762 -386,-524 -699,-1125 -797,-1340 -99,-215 -278,-760 -430,-1029 -152,-268 -387,-568 -516,-677 -129,-109 -339,-231 -339,-231l253 48z"/> <path class="fil8" d="M16441 17893c-53,135 -602,717 -718,1174 -117,457 299,765 299,765 0,0 -441,-200 -582,-125 -141,75 -208,133 -208,133 0,0 42,-191 0,-299 -41,-108 -116,-1139 -166,-1530 -50,-391 -91,-632 -91,-632 0,0 340,233 731,366 391,133 735,148 735,148z"/> <path class="fil8" d="M13243 12586c0,0 82,220 268,282 186,62 434,294 571,543 137,250 134,219 134,219 0,0 -265,22 -485,105 -220,82 -523,385 -523,385l35 -1534z"/> <path class="fil8" d="M13210 14347c0,0 186,-263 549,-417 362,-154 517,-132 517,-132l64 87c0,0 -174,-27 -565,187 -392,214 -574,444 -574,444l9 -169z"/> <path class="fil14" d="M14377 14230c0,0 72,612 765,1562 692,950 1661,1369 1690,1490 30,121 -289,241 -917,80 -628,-161 -1208,-443 -1796,-1175 -587,-733 -829,-1159 -829,-1159 0,0 282,-355 564,-540 281,-185 523,-258 523,-258z"/> <path class="fil14" d="M17935 16281c0,0 356,132 512,144 461,36 391,183 -31,224 -408,40 -598,25 -598,25 0,0 62,-135 74,-212 12,-77 43,-181 43,-181z"/> <path class="fil15" d="M11813 12439l-64 3017 980 2268c0,0 -1032,-1031 -1856,-1611 -825,-580 -1534,-889 -1534,-889l2474 -2785z"/> <path class="fil15" d="M17701 13747l1173 1629 -450 373 -502 -358c0,0 -30,-190 -129,-548 -99,-358 -160,-571 -160,-571l68 -525z"/> <path class="fil2" d="M8181 15350c1,8 -7,7 -18,-1 -11,-8 -21,-20 -22,-28 -2,-14 -678,-4993 1422,-7522 2103,-2534 3581,-1315 3586,-1312 11,9 20,22 19,28 0,7 -9,5 -20,-3 -4,-4 -1453,-1198 -3547,1324 -2097,2527 -1422,7500 -1420,7514z"/> <path class="fil2" d="M8962 14226c0,7 -9,5 -20,-3 -11,-9 -20,-21 -20,-28 0,-8 -22,-2772 1462,-4824 1485,-2051 3809,-2024 3815,-2024 7,0 20,9 28,20 9,11 10,20 3,20 -6,0 -2325,-27 -3807,2021 -1483,2050 -1461,4810 -1461,4818z"/> <path class="fil8" d="M3441 17847c0,0 35,245 140,315 106,70 106,59 106,59l41 -433c0,0 -100,-274 -158,-455 -59,-181 -111,-579 -111,-579l-18 1093z"/> <path class="fil8" d="M14410 11773c-135,-386 206,-543 429,-310 -242,-190 -487,90 -429,310z"/> <path class="fil8" d="M15541 11661c15,-257 -225,-467 -405,-185 256,-184 389,116 405,185z"/> <path class="fil8" d="M15055 13060c0,0 461,69 774,-171 313,-240 646,-348 842,-274 196,73 270,308 270,308 0,0 -436,-170 -696,-78 -259,92 -335,254 -680,294 -346,39 -510,-79 -510,-79z"/> <path class="fil8" d="M9769 17373c0,0 -535,943 -295,1847 239,904 495,1328 495,1328l-918 -31c0,0 -11,-1632 253,-2384 264,-752 465,-760 465,-760z"/> <path class="fil16" d="M6522 20328c-7,20 -53,138 22,231 76,94 149,100 149,100l-202 -2c0,0 -60,-109 -36,-204 25,-96 67,-125 67,-125z"/> <path class="fil16" d="M7026 20644c0,0 -88,-36 -77,-191 11,-156 157,-336 157,-336 0,0 -155,76 -244,316 -89,240 -29,226 -29,226l224 5 -31 -20z"/> <path class="fil16" d="M7441 20191c0,0 -118,182 -122,320 -4,137 58,155 58,155l-149 -15c0,0 -11,-94 53,-225 65,-131 160,-235 160,-235z"/> <path class="fil17" d="M10193 19979c0,11 -48,181 104,361 151,180 384,280 384,280l-413 -3c0,0 -123,-118 -140,-326 -17,-208 65,-312 65,-312z"/> <path class="fil17" d="M10851 19643c-141,451 75,968 75,968l294 -5c-320,-238 -346,-557 -369,-963z"/> <polygon class="fil3" points="21000,20852 21000,21008 -12,21008 -12,20852 "/> <path class="fil18" d="M13088 3365c1046,-1750 3322,-407 3044,472 2230,-1001 4266,315 3498,508l-10372 0 1172 -368c-2208,-2355 2658,-3321 2658,-612z"/> <path class="fil18" d="M2456 6418c448,-751 1425,-175 1305,203 957,-430 1831,135 1501,217l-4450 0 503 -157c-947,-1011 1141,-1425 1141,-263z"/> <path class="fil18" d="M3927 2126c447,-749 1422,-174 1302,202 955,-429 1827,135 1498,217l-4440 0 502 -157c-945,-1008 1138,-1422 1138,-262z"/> <path class="fil18" d="M17616 8030c342,-572 1086,-133 995,155 730,-328 1396,103 1144,166l-3392 0 383 -120c-722,-771 870,-1087 870,-201z"/> </g> </svg>