<?xml version="1.0" encoding="UTF-8" standalone="no"?>
<svg
   width="80mm"
   height="73.847015mm"
   version="1.1"
   style="clip-rule:evenodd;fill-rule:evenodd;image-rendering:optimizeQuality;shape-rendering:geometricPrecision;text-rendering:geometricPrecision"
   viewBox="0 0 7999.9998 7384.7015"
   id="svg93"
   sodipodi:docname="elephant-4209931.svg"
   inkscape:version="1.4 (86a8ad7, 2024-10-11)"
   xmlns:inkscape="http://www.inkscape.org/namespaces/inkscape"
   xmlns:sodipodi="http://sodipodi.sourceforge.net/DTD/sodipodi-0.dtd"
   xmlns="http://www.w3.org/2000/svg"
   xmlns:svg="http://www.w3.org/2000/svg">
  <sodipodi:namedview
     id="namedview93"
     pagecolor="#ffffff"
     bordercolor="#666666"
     borderopacity="1.0"
     inkscape:showpageshadow="2"
     inkscape:pageopacity="0.0"
     inkscape:pagecheckerboard="0"
     inkscape:deskcolor="#d1d1d1"
     inkscape:document-units="mm"
     inkscape:zoom="1.0268353"
     inkscape:cx="162.63562"
     inkscape:cy="114.91619"
     inkscape:window-width="1066"
     inkscape:window-height="1008"
     inkscape:window-x="953"
     inkscape:window-y="0"
     inkscape:window-maximized="0"
     inkscape:current-layer="Camada_x0020_1" />
  <defs
     id="defs1">
    <style
       type="text/css"
       id="style1">  .elphntfil11 {fill:#FEFEFE} .elphntfil12 {fill:#E6E7E8} .elphntfil5 {fill:#373435} .elphntfil3 {fill:#373435} .elphntfil18 {fill:#FFFDF2} .elphntfil9 {fill:#FBF9EE} .elphntfil14 {fill:#F2F0E6} .elphntfil16 {fill:#E7E5D4} .elphntfil17 {fill:#E7E5D4} .elphntfil0 {fill:#FFFBD6} .elphntfil13 {fill:#E6DBD7} .elphntfil6 {fill:#E6DBD7} .elphntfil8 {fill:#BDAEA9} .elphntfil10 {fill:#A99087} .elphntfil7 {fill:#968079} .elphntfil15 {fill:#715951} .elphntfil1 {fill:#F9AA75} .elphntfil4 {fill:#5CA47A} .elphntfil2 {fill:#373435;fill-rule:nonzero}  </style>
  </defs>
  <g
     id="Camada_x0020_1"
     inkscape:label="elephant"
     inkscape:groupmode="layer"
     transform="translate(-2873.7235,-5293.7915)">
    <metadata
       id="CorelCorpID_0Corel-Layer" />
    <g
       id="g93"
       transform="matrix(-0.47002762,0,0,0.47002762,12224.453,2805.5632)">
      <path
         class="elphntfil5"
         d="m 17909,17239 c -42,110 -88,218 -137,324 -221,477 -502,920 -794,1356 -82,123 -385,548 -441,701 47,223 293,270 351,535 11,50 11,102 0,153 -59,283 -381,350 -625,359 -152,5 -343,-9 -476,-88 -44,-26 -148,-68 -216,-81 -210,132 -509,245 -710,57 -212,-198 -203,-508 -41,-733 4,-7 6,-18 5,-27 -12,-30 -21,-63 -27,-96 -200,112 -407,211 -620,299 l -9,1007 c -3101,0 -5751,0 -8617,0 -564,-526 -1045,-1194 -1417,-1903 -39,413 -78,825 -116,1237 l -63,666 h -387 l -170,-611 c -286,-1027 -417,-1995 -390,-3060 13,-526 61,-1051 112,-1574 -309,-1303 -336,-2649 -38,-3956 400,-1751 1223,-3417 2537,-4661 1116,-1057 2535,-1749 4080,-1839 1459,-86 2843,375 4008,1246 1450,1085 2432,2690 3062,4365 46,124 54,254 20,382 -33,123 -101,227 -184,318 62,54 115,119 157,197 580,163 876,560 1003,1151 l 2128,2430 -323,195 c -217,131 -428,273 -633,423 218,213 405,481 326,762 -133,478 -861,479 -1252,471 -34,-1 -69,-2 -103,-5 z"
         id="path14" />
      <path
         class="elphntfil6"
         d="m 3566,13801 c -174,2612 -591,3962 98,6436 0,0 443,-4694 454,-4772 12,-78 -552,-1664 -552,-1664 z"
         id="path15" />
      <path
         class="elphntfil2"
         d="m 3647,14265 c -36,463 -77,879 -116,1271 -144,1446 -256,2573 73,4101 115,-1220 398,-4200 407,-4262 5,-41 -202,-648 -364,-1110 z m -333,1094 c 50,-504 104,-1047 144,-1641 -1,-30 29,-34 77,-6 57,34 117,101 135,151 2,4 569,1603 556,1692 -11,77 -452,4747 -454,4770 -3,27 -37,27 -85,-4 -59,-38 -116,-106 -129,-152 -532,-1912 -409,-3152 -244,-4810 z"
         id="path16" />
      <path
         class="elphntfil7"
         d="m 16464,11930 2903,3314 c -1539,932 -2646,2255 -3702,3624 l -390,-6725 c -23,-412 972,-732 1189,-213 z"
         id="path17" />
      <path
         class="elphntfil2"
         d="m 16543,11856 2901,3312 c 14,16 -9,62 -52,104 -16,16 -32,29 -47,38 v 0 c -750,454 -1395,1004 -1980,1606 -591,607 -1125,1273 -1648,1951 -35,45 -86,82 -115,82 -12,1 -18,-6 -18,-17 l -390,-6724 c -9,-160 110,-318 290,-444 103,-73 228,-128 354,-158 120,-29 245,-36 357,-15 153,30 283,112 348,265 z m 2701,3412 -2856,-3261 c -2,-1 -3,-3 -4,-5 -60,-144 -183,-221 -326,-249 -104,-19 -218,-13 -327,13 -102,24 -196,64 -269,115 -67,47 -110,115 -105,197 l 384,6627 c 493,-635 1001,-1257 1564,-1837 579,-595 1211,-1141 1939,-1600 z"
         id="path18" />
      <path
         class="elphntfil8"
         d="m 6591,17377 c 55,1134 703,2468 1548,3217 h 1153 c 6,-14 12,-27 17,-42 385,-1043 -88,-3103 -2718,-3175 z"
         id="path19" />
      <path
         class="elphntfil9"
         d="m 8566,20612 c 0,0 -86,-168 6,-311 92,-143 203,228 203,228 0,0 -20,-181 192,-374 213,-192 84,362 84,362 0,0 84,-295 197,-335 113,-41 -26,430 -26,430 z"
         id="path20" />
      <path
         class="elphntfil2"
         d="m 8550,20609 c -1,0 -94,-181 2,-329 77,-119 162,45 208,161 13,-72 56,-188 189,-308 156,-142 174,8 161,164 33,-64 74,-122 121,-139 h 1 c 167,-59 10,473 10,474 -1,3 -4,5 -7,4 h -655 c -8,0 -21,-10 -29,-24 z m 41,-286 c -66,102 -38,215 -20,265 h 632 c 12,-43 115,-402 62,-383 h -1 c -110,40 -192,331 -193,332 -2,7 -12,5 -23,-6 -11,-10 -19,-25 -17,-33 v -1 c 5,-22 102,-452 -45,-319 -203,184 -192,353 -191,365 2,9 -4,12 -14,7 -10,-5 -22,-20 -26,-32 0,-1 -92,-307 -164,-195 z"
         id="path21" />
      <path
         class="elphntfil10"
         d="m 11063,20633 c -3,-472 14,-3137 738,-3648 796,-562 1661,550 1872,1462 211,913 152,1147 152,1147 l -10,1039 z"
         id="path22" />
      <path
         class="elphntfil9"
         d="m 12540,20657 c 0,0 -317,-482 -109,-770 208,-288 671,558 671,558 0,0 -142,-837 71,-964 212,-128 435,945 435,945 0,0 -109,-492 0,-778 108,-285 222,-158 222,-158 l -10,1163 z"
         id="path23" />
      <path
         class="elphntfil2"
         d="m 12522,20660 c -1,-1 -331,-504 -117,-802 177,-245 520,259 658,486 -30,-216 -90,-788 87,-894 148,-89 293,284 385,598 -8,-144 -1,-304 46,-427 116,-304 257,-146 257,-146 12,13 19,28 19,37 l -10,1163 c 0,7 -3,10 -9,9 l -1280,5 c -10,0 -26,-12 -36,-29 z m -66,-744 c -171,237 22,605 84,710 l 1253,-5 9,-1129 c -30,-13 -95,-9 -168,183 -107,281 0,766 0,767 v 0 c 3,15 -6,20 -21,11 -14,-9 -29,-29 -32,-44 l -3,-15 c -26,-122 -217,-981 -382,-883 -207,125 -68,949 -67,952 1,9 -2,14 -10,13 -11,-1 -28,-16 -38,-33 -1,-3 -433,-792 -625,-527 z"
         id="path24" />
      <path
         class="elphntfil11"
         d="m 16495,13285 c 304,819 707,1806 1598,2420 889,611 1358,1179 -114,1150 -1678,-34 -3396,-2293 -3557,-3758 -136,-1227 1193,-2177 2073,188 z"
         id="path25" />
      <path
         class="elphntfil2"
         d="m 16598,13344 c 150,404 323,848 566,1260 227,388 518,750 913,1022 506,347 895,693 951,967 49,237 -207,385 -966,370 -815,-17 -1649,-545 -2329,-1263 -771,-815 -1330,-1870 -1419,-2683 -47,-422 76,-812 293,-1051 105,-115 232,-195 372,-228 146,-34 311,-17 485,65 394,186 805,658 1134,1541 z m 386,1196 c -258,-440 -438,-899 -592,-1315 -272,-732 -567,-1101 -831,-1226 -136,-64 -271,-75 -397,-46 -133,31 -252,108 -352,217 -209,229 -327,603 -282,1006 83,759 592,1730 1291,2468 592,626 1332,1087 2074,1102 714,15 959,-106 919,-299 -32,-155 -322,-400 -705,-663 -496,-341 -852,-780 -1125,-1244 z"
         id="path26" />
      <path
         class="elphntfil12"
         d="m 14741,14155 c -171,-370 -284,-733 -319,-1058 -135,-1219 1176,-2164 2056,143 -228,-41 -509,-37 -806,91 -425,184 -744,547 -931,824 z"
         id="path27" />
      <path
         class="elphntfil2"
         d="m 14686,14126 c -88,-189 -160,-377 -215,-559 -54,-178 -91,-351 -109,-514 -46,-416 74,-801 288,-1038 103,-114 228,-194 366,-227 141,-35 299,-20 464,56 360,167 740,604 1054,1428 8,21 1,30 -16,27 -111,-20 -235,-29 -369,-17 -134,12 -277,44 -424,108 -184,80 -348,193 -490,319 -184,162 -331,345 -436,501 -9,13 -42,-1 -74,-31 -19,-18 -33,-37 -39,-53 z m -99,-486 c 39,129 87,260 143,394 101,-141 233,-297 392,-439 144,-127 310,-242 497,-323 150,-64 296,-98 433,-110 127,-11 248,-3 357,14 -279,-719 -590,-1091 -875,-1223 -144,-66 -285,-78 -416,-47 -133,33 -254,111 -354,221 -210,232 -328,608 -283,1014 18,158 54,326 106,499 z"
         id="path28" />
      <path
         class="elphntfil2"
         d="m 14745,13761 c -2,5 -12,2 -23,-8 -11,-10 -18,-22 -16,-27 35,-97 88,-187 155,-269 164,-206 409,-363 656,-454 248,-90 499,-114 675,-50 45,17 86,39 122,68 11,9 20,22 20,28 -1,7 -10,5 -21,-4 -28,-22 -61,-40 -99,-54 -171,-62 -417,-38 -662,52 -246,90 -490,247 -653,451 -66,82 -119,171 -154,267 z"
         id="path29" />
      <path
         class="elphntfil13"
         d="M 5681,20061 C 3445,17343 2761,14388 3351,11801 5037,4414 13391,2859 16433,10953 c 154,409 -582,623 -493,832 233,545 2145,-607 1350,3614 -148,786 -432,1508 -828,2149 -2242,3620 -6869,2513 -10781,2513 z"
         id="path30" />
      <path
         class="elphntfil2"
         d="M 5620,20068 C 4508,18717 3773,17312 3382,15926 2973,14476 2939,13043 3244,11709 3745,9513 4834,7831 6198,6763 7178,5996 8301,5545 9449,5448 c 1158,-97 2346,165 3450,825 1468,879 2770,2432 3637,4739 102,270 -116,448 -297,596 v 0 c -119,97 -220,180 -199,230 1,3 114,18 255,42 683,118 1726,299 1102,3610 -73,391 -181,767 -318,1124 -141,365 -313,710 -512,1033 -1825,2947 -5223,2772 -8535,2601 -767,-39 -1529,-79 -2266,-79 -36,0 -100,-44 -146,-101 z M 3593,16062 c 369,1309 1049,2628 2068,3891 718,2 1460,40 2206,79 3296,170 6677,344 8490,-2584 200,-323 371,-665 509,-1025 137,-355 243,-727 316,-1115 563,-2988 -221,-3124 -736,-3213 -267,-46 -487,-84 -606,-364 -54,-125 62,-219 197,-330 168,-137 370,-302 294,-507 C 15509,8709 14305,7256 12960,6451 11905,5819 10755,5570 9625,5665 8487,5761 7373,6208 6399,6970 5042,8033 3958,9707 3459,11894 c -302,1321 -269,2738 134,4168 z"
         id="path31" />
      <ellipse
         class="elphntfil11"
         cx="14720"
         cy="11849"
         rx="225"
         ry="339"
         id="ellipse31" />
      <path
         class="elphntfil2"
         d="m 14705,11490 c 72,0 139,47 189,123 44,66 71,155 71,252 0,94 -26,180 -67,242 -41,62 -98,101 -162,101 -72,0 -139,-47 -190,-123 -43,-66 -70,-155 -70,-252 0,-94 25,-180 66,-242 41,-62 99,-101 163,-101 z m 159,116 c -31,-47 -76,-76 -128,-76 -60,0 -115,37 -155,98 -40,60 -65,144 -65,237 0,90 23,171 61,228 31,46 76,75 128,75 60,0 115,-37 155,-98 40,-60 65,-144 65,-237 0,-90 -23,-170 -61,-227 z"
         id="path32" />
      <ellipse
         class="elphntfil5"
         cx="14830"
         cy="11867"
         rx="103"
         ry="140"
         id="ellipse32" />
      <ellipse
         class="elphntfil11"
         cx="15301"
         cy="11849"
         rx="225"
         ry="339"
         id="ellipse33" />
      <path
         class="elphntfil2"
         d="m 15317,11530 c -61,0 -116,37 -156,98 -40,60 -65,144 -65,237 0,90 24,171 61,228 31,46 76,75 128,75 61,0 116,-37 155,-98 41,-60 66,-144 66,-237 0,-90 -24,-170 -61,-227 -31,-47 -76,-76 -128,-76 z m -194,61 c 41,-62 99,-101 162,-101 72,0 140,47 190,123 43,66 70,155 70,252 0,94 -25,180 -66,242 -41,62 -99,101 -162,101 -72,0 -140,-47 -190,-123 -44,-66 -71,-155 -71,-252 0,-94 26,-180 67,-242 z"
         id="path33" />
      <ellipse
         class="elphntfil11"
         cx="14767"
         cy="11786"
         rx="46"
         ry="63"
         id="ellipse34" />
      <ellipse
         class="elphntfil11"
         cx="14861"
         cy="11955"
         rx="20"
         ry="28"
         id="ellipse35" />
      <ellipse
         class="elphntfil5"
         cx="15215"
         cy="11867"
         rx="103"
         ry="140"
         id="ellipse36" />
      <ellipse
         class="elphntfil11"
         cx="15152"
         cy="11786"
         rx="46"
         ry="63"
         id="ellipse37" />
      <ellipse
         class="elphntfil11"
         cx="15246"
         cy="11955"
         rx="20"
         ry="28"
         id="ellipse38" />
      <path
         class="elphntfil5"
         d="m 13963,11243 c 0,0 137,-417 569,-470 615,-76 -450,423 -569,470 z"
         id="path38" />
      <path
         class="elphntfil5"
         d="m 15874,11186 c 0,0 -128,-393 -536,-443 -580,-71 424,399 536,443 z"
         id="path39" />
      <path
         class="elphntfil13"
         d="m 14351,12688 c 195,-184 467,0 770,-88 667,-192 1381,-1018 1987,178 38,75 -123,301 -123,301 0,0 619,1075 798,2682 178,1607 -1650,3421 -1605,3793 44,372 331,460 360,595 30,136 -495,165 -630,85 -135,-81 -410,-169 -495,-110 -84,59 -313,186 -376,127 -64,-59 -98,-182 0,-317 97,-136 63,-297 38,-339 -26,-42 -306,-3052 -687,-4825 -380,-1773 -37,-2082 -37,-2082 z"
         id="path40" />
      <path
         class="elphntfil2"
         d="m 15070,12679 c -36,10 -41,-17 -13,-61 27,-43 79,-87 114,-97 149,-43 305,-122 461,-200 538,-272 1083,-547 1554,384 35,70 -61,237 -114,318 81,146 624,1178 790,2671 123,1103 -682,2300 -1206,3079 -236,352 -411,612 -399,714 28,231 152,350 247,441 56,54 102,98 114,152 3,16 1,33 -5,50 -34,96 -119,159 -229,193 -58,18 -132,30 -206,34 -136,8 -281,-6 -345,-45 -74,-43 -189,-89 -292,-112 -72,-16 -129,-25 -140,-18 -59,42 -177,111 -277,145 -70,23 -133,30 -165,1 -38,-36 -66,-92 -66,-161 0,-64 24,-140 86,-225 v 0 0 c 22,-32 34,-73 38,-114 8,-73 -8,-135 -22,-159 -8,-13 -31,-216 -68,-542 -108,-952 -337,-2965 -621,-4288 -66,-308 -110,-571 -138,-794 -28,-226 -40,-414 -42,-570 0,-28 36,-79 81,-114 45,-36 82,-42 82,-14 1,154 13,340 41,564 29,225 72,487 137,790 285,1325 513,3340 622,4293 36,320 59,519 63,527 17,28 37,102 27,188 -7,65 -32,140 -87,216 v 1 c -26,36 -36,76 -36,114 0,57 24,104 56,134 19,18 60,12 107,-4 75,-25 161,-75 204,-105 65,-45 160,-48 256,-26 106,23 226,71 302,116 57,34 192,47 320,40 49,-3 96,-9 137,-18 -19,-30 -51,-61 -87,-96 -98,-93 -226,-217 -256,-460 -16,-141 178,-430 440,-820 506,-753 1283,-1910 1165,-2974 -173,-1561 -762,-2615 -794,-2671 -9,-11 -3,-36 20,-67 0,-1 129,-183 101,-238 -453,-895 -960,-639 -1461,-386 -165,83 -330,167 -496,214 z"
         id="path41" />
      <path
         class="elphntfil11"
         d="m 14812,14077 c 305,819 707,1806 1599,2420 888,611 1358,1180 -115,1150 -1678,-34 -3395,-2293 -3557,-3758 -135,-1227 1194,-2177 2073,188 z"
         id="path42" />
      <path
         class="elphntfil2"
         d="m 14915,14136 c 150,404 324,848 566,1260 228,388 519,750 914,1022 506,348 895,694 951,968 49,236 -207,384 -966,369 -815,-16 -1649,-545 -2329,-1263 -771,-815 -1330,-1870 -1420,-2682 -46,-423 76,-813 294,-1052 105,-115 231,-195 371,-228 147,-34 311,-17 486,65 394,186 805,658 1133,1541 z m 387,1196 c -258,-440 -438,-899 -593,-1315 -272,-731 -567,-1101 -831,-1226 -135,-64 -270,-75 -396,-46 -133,31 -253,108 -352,217 -209,229 -327,603 -283,1006 84,759 592,1730 1291,2468 593,626 1333,1087 2074,1102 714,15 959,-106 920,-299 -32,-156 -323,-400 -705,-663 -497,-341 -853,-780 -1125,-1244 z"
         id="path43" />
      <path
         class="elphntfil13"
         d="m 12903,14947 c -187,-403 -310,-799 -349,-1153 -146,-1328 1282,-2358 2241,156 -248,-44 -554,-41 -878,99 -463,201 -810,597 -1014,898 z"
         id="path44" />
      <path
         class="elphntfil2"
         d="m 13879,12774 c -40,-21 -89,-70 -107,-110 -19,-40 -1,-56 40,-35 185,92 379,232 570,477 174,222 342,531 491,973 9,27 -2,39 -26,33 -109,-19 -231,-28 -363,-17 -133,12 -276,44 -422,108 -184,79 -348,193 -490,318 -183,162 -330,345 -435,501 -12,18 -57,-1 -100,-43 -25,-24 -45,-50 -54,-72 -88,-190 -160,-378 -216,-561 -54,-179 -91,-353 -109,-517 -3,-30 30,-28 75,5 45,33 84,84 87,114 17,158 53,325 105,497 33,110 73,223 120,336 98,-134 224,-280 375,-414 144,-127 311,-243 497,-323 151,-66 297,-99 435,-111 125,-11 244,-4 352,13 -135,-390 -278,-656 -423,-840 -131,-168 -269,-266 -402,-332 z"
         id="path45" />
      <path
         class="elphntfil2"
         d="m 13063,14553 c -2,6 -12,2 -23,-8 -11,-9 -18,-22 -16,-27 35,-97 88,-187 154,-269 165,-205 410,-363 657,-454 247,-90 498,-114 674,-50 45,17 87,39 123,68 11,9 19,22 19,28 0,7 -10,5 -21,-4 -27,-22 -61,-40 -99,-54 -170,-62 -416,-38 -661,52 -246,90 -490,247 -654,451 -65,82 -118,171 -153,267 z"
         id="path46" />
      <path
         class="elphntfil2"
         d="m 15049,13207 c -9,-3 -22,-14 -28,-24 -7,-11 -4,-17 4,-14 2,0 456,160 938,-128 h 1 c 487,-290 1005,-32 1006,-31 10,4 22,16 27,26 5,10 0,15 -10,10 -1,-1 -506,-252 -987,34 v 0 c -487,290 -950,128 -951,127 z"
         id="path47" />
      <path
         class="elphntfil5"
         d="m 15285,19956 c 15,-10 129,-118 373,-81 244,36 407,230 568,228 161,-2 163,-8 163,-8 0,0 -143,85 -375,18 -198,-57 -370,-220 -540,-148 -129,55 -373,163 -321,107 41,-44 132,-116 132,-116 z"
         id="path48" />
      <path
         class="elphntfil13"
         d="m 3551,16067 c 82,1664 1033,3623 2273,4722 h 1694 c 8,-20 17,-40 24,-62 566,-1531 -129,-4554 -3991,-4660 z"
         id="path49" />
      <path
         class="elphntfil2"
         d="m 3403,15984 c -2,-39 45,-33 105,12 60,46 110,114 112,153 40,820 293,1710 687,2530 375,778 873,1487 1434,2002 h 1635 l 8,-18 c 6,-16 10,-26 12,-31 170,-460 224,-1055 112,-1665 -95,-513 -308,-1031 -668,-1472 -49,-59 -60,-111 -26,-114 35,-4 102,42 151,102 415,508 655,1080 758,1634 115,625 59,1235 -114,1706 -6,17 -11,27 -12,32 -3,7 -7,17 -13,30 -4,8 -11,12 -22,12 H 5873 c -23,3 -64,-18 -107,-55 -658,-584 -1235,-1387 -1654,-2257 -407,-846 -668,-1761 -709,-2601 z"
         id="path50" />
      <path
         class="elphntfil13"
         d="m 8803,20756 c -3,-472 14,-3137 738,-3648 796,-562 1661,550 1872,1462 211,913 152,1147 152,1147 l -10,1039 z"
         id="path51" />
      <path
         class="elphntfil2"
         d="m 11306,18499 c -10,-45 29,-49 88,-10 59,40 115,108 126,153 198,859 160,1129 154,1164 l -10,1036 c -1,17 -11,24 -29,23 H 8888 c -37,0 -105,-49 -152,-108 -27,-35 -41,-65 -41,-85 v 0 c -2,-303 4,-1504 199,-2466 110,-545 281,-1015 547,-1202 23,-17 87,17 142,74 55,58 81,118 58,134 -257,182 -424,642 -532,1178 -164,811 -193,1796 -197,2258 h 2535 l 10,-1016 c 0,-3 0,-5 1,-8 0,0 56,-225 -152,-1125 z"
         id="path52" />
      <path
         class="elphntfil9"
         d="m 6452,20725 c 0,0 -127,-247 8,-456 135,-210 298,333 298,333 0,0 -29,-265 283,-547 311,-283 123,530 123,530 0,0 123,-432 288,-492 166,-60 -38,632 -38,632 z"
         id="path53" />
      <path
         class="elphntfil2"
         d="m 6427,20720 c 0,-1 -136,-265 4,-483 113,-175 237,66 305,237 20,-106 83,-277 277,-453 230,-207 256,13 237,241 48,-93 109,-179 178,-204 248,-89 16,694 16,696 -2,5 -5,7 -10,7 h -961 c -13,0 -32,-16 -43,-36 z m 61,-420 c -97,150 -56,315 -29,390 h 927 c 19,-64 169,-590 91,-562 -162,58 -283,485 -284,486 -3,11 -18,8 -34,-7 -17,-16 -28,-38 -25,-50 v -1 c 8,-33 150,-664 -66,-468 -296,267 -282,514 -280,535 2,14 -6,19 -20,11 -16,-8 -33,-29 -39,-47 0,-1 -135,-451 -241,-287 z"
         id="path54" />
      <path
         class="elphntfil9"
         d="m 10218,20698 c 0,0 -317,-482 -109,-770 208,-288 671,558 671,558 0,0 -141,-837 71,-964 213,-128 435,945 435,945 0,0 -109,-492 0,-778 109,-285 222,-158 222,-158 l -9,1163 z"
         id="path55" />
      <path
         class="elphntfil2"
         d="m 10200,20701 c -1,-1 -331,-504 -116,-802 177,-245 519,260 657,486 -29,-216 -89,-788 87,-894 149,-89 293,284 385,598 -7,-144 0,-304 47,-427 116,-304 256,-146 257,-146 11,13 18,28 18,37 l -9,1163 c 0,7 -4,10 -10,9 l -1279,5 c -10,0 -26,-12 -37,-29 z m -65,-744 c -171,237 22,605 83,710 l 1254,-5 9,-1129 c -31,-13 -95,-9 -169,183 -107,282 0,766 1,767 v 1 c 3,15 -7,19 -21,10 -15,-9 -29,-29 -32,-44 l -4,-14 c -26,-123 -217,-982 -381,-884 -208,125 -68,949 -68,952 2,9 -1,14 -9,13 -11,-1 -29,-16 -38,-33 -2,-2 -434,-792 -625,-527 z"
         id="path56" />
      <path
         class="elphntfil7"
         d="m 11908,11930 -2903,3314 c 1357,677 2689,1628 3983,2992 l 109,-6093 c 7,-413 -972,-732 -1189,-213 z"
         id="path57" />
      <path
         class="elphntfil2"
         d="m 11984,12007 -2846,3249 c 631,326 1257,712 1877,1172 639,474 1270,1026 1893,1670 l 108,-6019 c 1,-82 -45,-151 -114,-198 -75,-53 -173,-94 -279,-118 -112,-25 -228,-30 -333,-5 -133,31 -245,107 -302,244 -1,2 -2,4 -4,5 z m -3056,3161 2901,-3312 c 62,-146 181,-227 322,-260 113,-26 240,-21 364,7 130,29 258,85 365,160 180,125 301,282 298,444 l -109,6090 c 1,8 -1,14 -7,18 -18,11 -66,-15 -107,-58 -635,-669 -1279,-1237 -1930,-1720 -654,-485 -1317,-886 -1986,-1221 -18,-9 -39,-24 -59,-44 -43,-42 -66,-88 -52,-104 z"
         id="path58" />
      <ellipse
         class="elphntfil13"
         transform="matrix(1.7263,0.722288,-0.722288,1.7263,14511.4,12154.8)"
         rx="161"
         ry="82"
         id="ellipse58"
         cx="0"
         cy="0" />
      <path
         class="elphntfil2"
         d="m 14334,11996 c -7,1 -6,-9 1,-21 6,-12 17,-23 24,-24 32,-3 69,-2 108,5 38,7 78,19 118,36 77,32 141,77 181,124 41,49 57,102 38,148 -5,12 -15,25 -23,29 -8,3 -11,-3 -6,-15 13,-32 -3,-75 -41,-119 -39,-47 -102,-91 -178,-123 -40,-17 -79,-28 -116,-35 -39,-7 -75,-8 -106,-5 z"
         id="path59" />
      <ellipse
         class="elphntfil13"
         transform="matrix(-1.16758,0.983434,0.891119,1.28854,15520.3,12099.5)"
         rx="161"
         ry="82"
         id="ellipse59"
         cx="0"
         cy="0" />
      <path
         class="elphntfil2"
         d="m 15618,11893 c 6,0 16,7 23,16 8,9 9,16 4,16 -27,1 -57,9 -88,24 -31,14 -63,35 -94,61 -52,43 -90,94 -111,141 -20,46 -24,86 -7,110 6,8 5,14 -2,13 -7,-2 -17,-10 -23,-19 -24,-34 -22,-82 0,-132 21,-48 60,-100 112,-144 31,-26 64,-47 95,-61 32,-15 64,-24 91,-25 z"
         id="path60" />
      <path
         class="elphntfil8"
         d="m 3743,14305 c 0,0 -157,-3335 1814,-5563 1971,-2228 4537,-2863 6562,-1756 2026,1108 2215,2863 2215,2863 0,0 -1485,-135 -2566,1404 -1080,1540 -1107,1621 -1107,1621 0,0 -1944,-675 -3835,-135 -1890,540 -2590,1538 -2875,2173 -284,635 -84,1170 -84,1170 z"
         id="path61" />
      <path
         class="elphntfil2"
         d="m 10336,12896 c -1,5 -11,3 -22,-7 -11,-9 -19,-21 -18,-27 210,-1077 964,-2261 2003,-3060 891,-685 1991,-1085 3137,-890 8,2 21,12 28,22 8,11 8,19 0,18 -1142,-195 -2239,205 -3128,888 -1037,798 -1791,1981 -2000,3056 z"
         id="path62" />
      <path
         class="elphntfil2"
         d="m 6895,15393 c 4,10 0,14 -11,8 -10,-5 -21,-17 -26,-27 -3,-6 -993,-2155 -726,-4888 265,-2732 1779,-4569 1783,-4575 3,-4 14,1 25,12 10,10 16,22 13,26 -4,5 -1516,1840 -1782,4569 -265,2728 721,4869 724,4875 z"
         id="path63" />
      <path
         class="elphntfil2"
         d="m 5415,15988 c 8,11 10,20 3,20 -7,0 -20,-9 -28,-20 -4,-5 -1270,-1621 -1433,-3664 -164,-2039 327,-3086 328,-3089 3,-5 13,-1 24,9 11,10 18,22 15,27 -1,3 -491,1047 -328,3083 163,2031 1415,3629 1419,3634 z"
         id="path64" />
      <path
         class="elphntfil2"
         d="m 7348,19321 c 3,-4 11,1 19,11 8,10 13,22 11,26 -1,1 -230,449 -389,186 -76,-125 -126,-389 -121,-603 3,-82 13,-156 32,-213 19,-58 48,-98 89,-110 19,-6 41,-5 66,4 48,16 88,44 120,80 63,68 94,157 103,243 10,80 1,159 -18,212 -8,25 -20,45 -32,56 -97,89 -120,-103 -120,-104 -1,-8 5,-8 14,0 8,8 16,20 16,28 1,0 10,85 62,38 11,-10 22,-29 30,-54 18,-51 27,-127 18,-204 -8,-73 -31,-145 -76,-193 -24,-27 -56,-49 -97,-63 -23,-8 -43,-8 -60,-3 -39,11 -66,50 -85,105 -19,56 -29,129 -31,209 -5,207 39,457 108,571 124,203 341,-220 341,-222 z"
         id="path65" />
      <path
         class="elphntfil2"
         d="m 11163,18714 c 0,-6 7,-4 16,5 8,9 15,21 14,28 0,1 -22,478 -157,537 -34,15 -81,3 -130,-25 -44,-26 -90,-66 -132,-113 -43,-49 -81,-106 -106,-164 -37,-85 -47,-172 -7,-241 52,-90 111,-167 165,-207 23,-18 45,-28 66,-30 23,-3 45,7 66,32 20,24 35,57 43,101 v 1 c 37,208 -73,278 -73,278 -4,3 -13,-4 -20,-15 -8,-11 -11,-21 -7,-24 0,0 106,-67 70,-266 v 0 c -6,-30 -12,-49 -19,-57 -8,-9 -20,-12 -36,-11 -19,2 -40,13 -63,30 -52,40 -111,116 -163,205 -37,64 -29,143 3,217 21,46 51,92 85,131 35,40 75,74 113,96 45,26 87,36 118,22 132,-57 154,-528 154,-530 z"
         id="path66" />
      <path
         class="elphntfil8"
         d="m 3801,16322 c 555,1534 1341,2876 2503,3905 -57,143 -48,263 -10,374 l -441,-2 C 4796,19345 3974,17929 3801,16322 Z"
         id="path67" />
      <path
         class="elphntfil8"
         d="m 7808,18859 915,41 c -25,381 -51,746 -76,1091 l -781,-35 c 44,-358 24,-724 -58,-1097 z"
         id="path68" />
      <path
         class="elphntfil8"
         d="m 11827,19861 c 0,0 1398,-193 2163,-556 764,-363 780,-355 780,-355 l -224,-1885 c 0,0 -281,-131 -687,-585 -406,-454 -660,-895 -660,-895 l -33,2958 c 0,0 -730,195 -977,234 -248,39 -482,66 -482,66 0,0 10,75 65,547 z"
         id="path69" />
      <path
         class="elphntfil8"
         d="m 14143,12639 c 45,17 520,106 694,213 173,106 -56,386 -56,386 0,0 251,33 498,251 246,218 1164,1292 1396,2179 232,886 253,962 253,962 0,0 -570,-238 -956,-762 -386,-524 -699,-1125 -797,-1340 -99,-215 -278,-760 -430,-1029 -152,-268 -387,-568 -516,-677 -129,-109 -339,-231 -339,-231 z"
         id="path70" />
      <path
         class="elphntfil8"
         d="m 16441,17893 c -53,135 -602,717 -718,1174 -117,457 299,765 299,765 0,0 -441,-200 -582,-125 -141,75 -208,133 -208,133 0,0 42,-191 0,-299 -41,-108 -116,-1139 -166,-1530 -50,-391 -91,-632 -91,-632 0,0 340,233 731,366 391,133 735,148 735,148 z"
         id="path71" />
      <path
         class="elphntfil8"
         d="m 13243,12586 c 0,0 82,220 268,282 186,62 434,294 571,543 137,250 134,219 134,219 0,0 -265,22 -485,105 -220,82 -523,385 -523,385 z"
         id="path72" />
      <path
         class="elphntfil8"
         d="m 13210,14347 c 0,0 186,-263 549,-417 362,-154 517,-132 517,-132 l 64,87 c 0,0 -174,-27 -565,187 -392,214 -574,444 -574,444 z"
         id="path73" />
      <path
         class="elphntfil14"
         d="m 14377,14230 c 0,0 72,612 765,1562 692,950 1661,1369 1690,1490 30,121 -289,241 -917,80 -628,-161 -1208,-443 -1796,-1175 -587,-733 -829,-1159 -829,-1159 0,0 282,-355 564,-540 281,-185 523,-258 523,-258 z"
         id="path74" />
      <path
         class="elphntfil14"
         d="m 17935,16281 c 0,0 356,132 512,144 461,36 391,183 -31,224 -408,40 -598,25 -598,25 0,0 62,-135 74,-212 12,-77 43,-181 43,-181 z"
         id="path75" />
      <path
         class="elphntfil15"
         d="m 11813,12439 -64,3017 980,2268 c 0,0 -1032,-1031 -1856,-1611 -825,-580 -1534,-889 -1534,-889 z"
         id="path76" />
      <path
         class="elphntfil15"
         d="m 17701,13747 1173,1629 -450,373 -502,-358 c 0,0 -30,-190 -129,-548 -99,-358 -160,-571 -160,-571 z"
         id="path77" />
      <path
         class="elphntfil2"
         d="m 8181,15350 c 1,8 -7,7 -18,-1 -11,-8 -21,-20 -22,-28 -2,-14 -678,-4993 1422,-7522 2103,-2534 3581,-1315 3586,-1312 11,9 20,22 19,28 0,7 -9,5 -20,-3 -4,-4 -1453,-1198 -3547,1324 -2097,2527 -1422,7500 -1420,7514 z"
         id="path78" />
      <path
         class="elphntfil2"
         d="m 8962,14226 c 0,7 -9,5 -20,-3 -11,-9 -20,-21 -20,-28 0,-8 -22,-2772 1462,-4824 1485,-2051 3809,-2024 3815,-2024 7,0 20,9 28,20 9,11 10,20 3,20 -6,0 -2325,-27 -3807,2021 -1483,2050 -1461,4810 -1461,4818 z"
         id="path79" />
      <path
         class="elphntfil8"
         d="m 3441,17847 c 0,0 35,245 140,315 106,70 106,59 106,59 l 41,-433 c 0,0 -100,-274 -158,-455 -59,-181 -111,-579 -111,-579 z"
         id="path80" />
      <path
         class="elphntfil8"
         d="m 14410,11773 c -135,-386 206,-543 429,-310 -242,-190 -487,90 -429,310 z"
         id="path81" />
      <path
         class="elphntfil8"
         d="m 15541,11661 c 15,-257 -225,-467 -405,-185 256,-184 389,116 405,185 z"
         id="path82" />
      <path
         class="elphntfil8"
         d="m 15055,13060 c 0,0 461,69 774,-171 313,-240 646,-348 842,-274 196,73 270,308 270,308 0,0 -436,-170 -696,-78 -259,92 -335,254 -680,294 -346,39 -510,-79 -510,-79 z"
         id="path83" />
      <path
         class="elphntfil8"
         d="m 9769,17373 c 0,0 -535,943 -295,1847 239,904 495,1328 495,1328 l -918,-31 c 0,0 -11,-1632 253,-2384 264,-752 465,-760 465,-760 z"
         id="path84" />
      <path
         class="elphntfil16"
         d="m 6522,20328 c -7,20 -53,138 22,231 76,94 149,100 149,100 l -202,-2 c 0,0 -60,-109 -36,-204 25,-96 67,-125 67,-125 z"
         id="path85" />
      <path
         class="elphntfil16"
         d="m 7026,20644 c 0,0 -88,-36 -77,-191 11,-156 157,-336 157,-336 0,0 -155,76 -244,316 -89,240 -29,226 -29,226 l 224,5 z"
         id="path86" />
      <path
         class="elphntfil16"
         d="m 7441,20191 c 0,0 -118,182 -122,320 -4,137 58,155 58,155 l -149,-15 c 0,0 -11,-94 53,-225 65,-131 160,-235 160,-235 z"
         id="path87" />
      <path
         class="elphntfil17"
         d="m 10193,19979 c 0,11 -48,181 104,361 151,180 384,280 384,280 l -413,-3 c 0,0 -123,-118 -140,-326 -17,-208 65,-312 65,-312 z"
         id="path88" />
      <path
         class="elphntfil17"
         d="m 10851,19643 c -141,451 75,968 75,968 l 294,-5 c -320,-238 -346,-557 -369,-963 z"
         id="path89" />
    </g>
  </g>
</svg>
