<?xml version="1.0" encoding="UTF-8" standalone="no"?>
<!-- Created with Inkscape (http://www.inkscape.org/) -->

<svg
   width="2084.5681"
   height="1158.0697"
   viewBox="0 0 551.54198 306.40594"
   version="1.1"
   id="islandsPainting"
   xml:space="preserve"
   inkscape:version="1.4 (86a8ad7, 2024-10-11)"
   sodipodi:docname="fantasy-world-2023256.svg"
   xmlns:inkscape="http://www.inkscape.org/namespaces/inkscape"
   xmlns:sodipodi="http://sodipodi.sourceforge.net/DTD/sodipodi-0.dtd"
   xmlns:xlink="http://www.w3.org/1999/xlink"
   xmlns="http://www.w3.org/2000/svg"
   xmlns:svg="http://www.w3.org/2000/svg"><sodipodi:namedview
     id="namedview1"
     pagecolor="#ffffff"
     bordercolor="#666666"
     borderopacity="1.0"
     inkscape:showpageshadow="2"
     inkscape:pageopacity="0.0"
     inkscape:pagecheckerboard="0"
     inkscape:deskcolor="#d1d1d1"
     inkscape:document-units="mm"
     inkscape:zoom="0.72604517"
     inkscape:cx="1482.0015"
     inkscape:cy="544.73195"
     inkscape:window-width="1920"
     inkscape:window-height="1017"
     inkscape:window-x="-8"
     inkscape:window-y="-8"
     inkscape:window-maximized="1"
     inkscape:current-layer="layer3"
     showgrid="false" /><defs
     id="defs1"><linearGradient
       id="eb"
       x1="232.59"
       x2="252.84"
       y1="1097"
       y2="1400.1"
       gradientTransform="matrix(0.14005,0,0,0.14005,-881.58,237.83)"
       gradientUnits="userSpaceOnUse"
       xlink:href="#dg" /><linearGradient
       id="dg"><stop
         stop-color="#212121"
         offset="0"
         id="stop1" /><stop
         stop-color="#33691e"
         stop-opacity="0"
         offset="1"
         id="stop2" /></linearGradient><clipPath
       id="fj"><path
         d="m 78.835,-258.7 c -247.73,-0.001 -448.55,198.9 -448.55,444.26 -8.0766,293.07 308.84,526.12 325.03,828.28 7.6e-4,43.273 35.332,78.353 123.52,78.353 88.192,0 129.58,-35.08 129.59,-78.353 32.827,-300.99 318.21,-535.21 318.96,-828.28 -2e-4,-245.36 -200.82,-444.26 -448.55,-444.26 z"
         fill="#c51162"
         fill-rule="evenodd"
         id="path2" /></clipPath><clipPath
       id="fi"><path
         d="m 78.835,-258.7 c -247.73,-0.001 -448.55,198.9 -448.55,444.26 -8.0766,293.07 308.84,526.12 325.03,828.28 7.6e-4,43.273 35.332,78.353 123.52,78.353 88.192,0 129.58,-35.08 129.59,-78.353 32.827,-300.99 318.21,-535.21 318.96,-828.28 -2e-4,-245.36 -200.82,-444.26 -448.55,-444.26 z"
         fill="#c51162"
         fill-rule="evenodd"
         id="path3" /></clipPath><clipPath
       id="fh"><path
         d="m 78.835,-258.7 c -247.73,-0.001 -448.55,198.9 -448.55,444.26 -8.0766,293.07 308.84,526.12 325.03,828.28 7.6e-4,43.273 35.332,78.353 123.52,78.353 88.192,0 129.58,-35.08 129.59,-78.353 32.827,-300.99 318.21,-535.21 318.96,-828.28 -2e-4,-245.36 -200.82,-444.26 -448.55,-444.26 z"
         fill="#c51162"
         fill-rule="evenodd"
         id="path4" /></clipPath><clipPath
       id="fg"><path
         d="m 78.835,-258.7 c -247.73,-0.001 -448.55,198.9 -448.55,444.26 -8.0766,293.07 308.84,526.12 325.03,828.28 7.6e-4,43.273 35.332,78.353 123.52,78.353 88.192,0 129.58,-35.08 129.59,-78.353 32.827,-300.99 318.21,-535.21 318.96,-828.28 -2e-4,-245.36 -200.82,-444.26 -448.55,-444.26 z"
         fill="#c51162"
         fill-rule="evenodd"
         id="path5" /></clipPath><clipPath
       id="ff"><path
         d="m 78.835,-258.7 c -247.73,-0.001 -448.55,198.9 -448.55,444.26 -8.0766,293.07 308.84,526.12 325.03,828.28 7.6e-4,43.273 35.332,78.353 123.52,78.353 88.192,0 129.58,-35.08 129.59,-78.353 32.827,-300.99 318.21,-535.21 318.96,-828.28 -2e-4,-245.36 -200.82,-444.26 -448.55,-444.26 z"
         fill="#c51162"
         fill-rule="evenodd"
         id="path6" /></clipPath><clipPath
       id="fe"><path
         d="m 78.835,-258.7 c -247.73,-0.001 -448.55,198.9 -448.55,444.26 -8.0766,293.07 308.84,526.12 325.03,828.28 7.6e-4,43.273 35.332,78.353 123.52,78.353 88.192,0 129.58,-35.08 129.59,-78.353 32.827,-300.99 318.21,-535.21 318.96,-828.28 -2e-4,-245.36 -200.82,-444.26 -448.55,-444.26 z"
         fill="#c51162"
         fill-rule="evenodd"
         id="path7" /></clipPath><linearGradient
       id="ed"
       x1="84.738998"
       x2="129.41"
       y1="-495.19"
       y2="252.32001"
       gradientUnits="userSpaceOnUse"
       xlink:href="#dk" /><linearGradient
       id="dk"><stop
         stop-color="#fffde7"
         offset="0"
         id="stop7" /><stop
         stop-color="#fffde7"
         stop-opacity="0"
         offset="1"
         id="stop8" /></linearGradient><clipPath
       id="fd"><path
         d="m 78.835,-258.7 c -247.73,-0.001 -448.55,198.9 -448.55,444.26 -8.0766,293.07 308.84,526.12 325.03,828.28 7.6e-4,43.273 35.332,78.353 123.52,78.353 88.192,0 129.58,-35.08 129.59,-78.353 32.827,-300.99 318.21,-535.21 318.96,-828.28 -2e-4,-245.36 -200.82,-444.26 -448.55,-444.26 z"
         fill="#c51162"
         fill-rule="evenodd"
         id="path8" /></clipPath><linearGradient
       id="ec"
       x1="127.89"
       x2="207.78999"
       y1="-838.65002"
       y2="72.893997"
       gradientTransform="matrix(1.7139,0,0,1.8883,-305.85,377.31)"
       gradientUnits="userSpaceOnUse"
       xlink:href="#de" /><linearGradient
       id="de"><stop
         stop-color="#c51162"
         offset="0"
         id="stop9" /><stop
         stop-color="#c51162"
         stop-opacity="0"
         offset="1"
         id="stop10" /></linearGradient><clipPath
       id="fc"><path
         d="m 78.835,-258.7 c -247.73,-0.001 -448.55,198.9 -448.55,444.26 -8.0766,293.07 308.84,526.12 325.03,828.28 7.6e-4,43.273 35.332,78.353 123.52,78.353 88.192,0 129.58,-35.08 129.59,-78.353 32.827,-300.99 318.21,-535.21 318.96,-828.28 -2e-4,-245.36 -200.82,-444.26 -448.55,-444.26 z"
         fill="#c51162"
         fill-rule="evenodd"
         id="path10" /></clipPath><linearGradient
       id="ee"
       x1="81.410004"
       x2="102.77"
       y1="-1032"
       y2="134.62"
       gradientTransform="matrix(1.2135,0,0,1.4075,-18.409,300.44)"
       gradientUnits="userSpaceOnUse"
       xlink:href="#dk" /><clipPath
       id="fb"><path
         d="m 78.835,-258.7 c -247.73,-0.001 -448.55,198.9 -448.55,444.26 -8.0766,293.07 308.84,526.12 325.03,828.28 7.6e-4,43.273 35.332,78.353 123.52,78.353 88.192,0 129.58,-35.08 129.59,-78.353 32.827,-300.99 318.21,-535.21 318.96,-828.28 -2e-4,-245.36 -200.82,-444.26 -448.55,-444.26 z"
         fill="#c51162"
         fill-rule="evenodd"
         id="path11" /></clipPath><linearGradient
       id="ef"
       x1="81.410004"
       x2="102.77"
       y1="-1032"
       y2="134.62"
       gradientTransform="matrix(1.18,-0.28324,0.32852,1.3686,-202.9,264.32)"
       gradientUnits="userSpaceOnUse"><stop
         stop-color="#ff4967"
         offset="0"
         id="stop11" /><stop
         stop-color="#fffde7"
         stop-opacity="0"
         offset="1"
         id="stop12" /></linearGradient><clipPath
       id="fa"><path
         d="m 78.835,-258.7 c -247.73,-0.001 -448.55,198.9 -448.55,444.26 -8.0766,293.07 308.84,526.12 325.03,828.28 7.6e-4,43.273 35.332,78.353 123.52,78.353 88.192,0 129.58,-35.08 129.59,-78.353 32.827,-300.99 318.21,-535.21 318.96,-828.28 -2e-4,-245.36 -200.82,-444.26 -448.55,-444.26 z"
         fill="#c51162"
         fill-rule="evenodd"
         id="path12" /></clipPath><linearGradient
       id="eg"
       x1="617.19"
       x2="102.77"
       y1="-705.63"
       y2="134.62"
       gradientTransform="matrix(1.18,-0.28324,0.32852,1.3686,100.15,256.24)"
       gradientUnits="userSpaceOnUse"><stop
         stop-color="#ffea00"
         offset="0"
         id="stop13" /><stop
         stop-color="#fffde7"
         stop-opacity="0"
         offset="1"
         id="stop14" /></linearGradient><clipPath
       id="ez"><path
         d="m 78.835,-258.7 c -247.73,-0.001 -448.55,198.9 -448.55,444.26 -8.0766,293.07 308.84,526.12 325.03,828.28 7.6e-4,43.273 35.332,78.353 123.52,78.353 88.192,0 129.58,-35.08 129.59,-78.353 32.827,-300.99 318.21,-535.21 318.96,-828.28 -2e-4,-245.36 -200.82,-444.26 -448.55,-444.26 z"
         fill="#c51162"
         fill-rule="evenodd"
         id="path14" /></clipPath><linearGradient
       id="eh"
       x1="127.89"
       x2="207.78999"
       y1="-838.65002"
       y2="-23.105"
       gradientTransform="matrix(2.0547,0,0,2.2024,-398.62,246.54)"
       gradientUnits="userSpaceOnUse"
       xlink:href="#de" /><clipPath
       id="ey"><path
         d="m 78.835,-258.7 c -247.73,-0.001 -448.55,198.9 -448.55,444.26 -8.0766,293.07 308.84,526.12 325.03,828.28 7.6e-4,43.273 35.332,78.353 123.52,78.353 88.192,0 129.58,-35.08 129.59,-78.353 32.827,-300.99 318.21,-535.21 318.96,-828.28 -2e-4,-245.36 -200.82,-444.26 -448.55,-444.26 z"
         fill="#c51162"
         fill-rule="evenodd"
         id="path15" /></clipPath><linearGradient
       id="ei"
       x1="127.89"
       x2="213.00999"
       y1="-838.65002"
       y2="12.98"
       gradientTransform="matrix(1.5499,0,0,1.8883,-265.21,-638)"
       gradientUnits="userSpaceOnUse"
       xlink:href="#de" /><clipPath
       id="ex"><path
         d="m 78.835,258.7 c -247.73,0.001 -448.55,-198.9 -448.55,-444.26 -8.0766,-293.07 308.84,-526.12 325.03,-828.28 7.6e-4,-43.273 35.332,-78.353 123.52,-78.353 88.192,0 129.58,35.08 129.59,78.353 32.827,300.99 318.21,535.21 318.96,828.28 -2e-4,245.36 -200.82,444.26 -448.55,444.26 z"
         fill="#c51162"
         fill-rule="evenodd"
         id="path16" /></clipPath><linearGradient
       id="ej"
       x1="127.89"
       x2="207.78999"
       y1="-838.65002"
       y2="72.893997"
       gradientTransform="matrix(1.7139,0,0,1.8883,-632.82,349.59)"
       gradientUnits="userSpaceOnUse"
       xlink:href="#de" /><clipPath
       id="ew"><path
         d="m 146.14,-227.55 c -238.41,-67.293 -485.72,69.578 -552.36,305.71 -87.381,279.86 154.32,590.23 87.815,885.42 -11.754,41.646 12.72,85.004 97.597,108.96 84.876,23.956 134.24,1.4395 146,-40.206 113.35,-280.76 451.63,-428.65 531.96,-710.49 66.648,-236.13 -72.595,-482.1 -311.01,-549.4 z"
         fill="#c51162"
         fill-rule="evenodd"
         id="path17" /></clipPath><linearGradient
       id="ek"
       x1="127.89"
       x2="207.78999"
       y1="-838.65002"
       y2="72.893997"
       gradientTransform="matrix(1.7139,0,0,1.8883,-158.52,617.81)"
       gradientUnits="userSpaceOnUse"><stop
         stop-color="#a0f"
         offset="0"
         id="stop17" /><stop
         stop-color="#c51162"
         stop-opacity="0"
         offset="1"
         id="stop18" /></linearGradient><clipPath
       id="ev"><path
         d="m 146.14,-227.55 c -238.41,-67.293 -485.72,69.578 -552.36,305.71 -87.381,279.86 154.32,590.23 87.815,885.42 -11.754,41.646 12.72,85.004 97.597,108.96 84.876,23.956 134.24,1.4395 146,-40.206 113.35,-280.76 451.63,-428.65 531.96,-710.49 66.648,-236.13 -72.595,-482.1 -311.01,-549.4 z"
         fill="#c51162"
         fill-rule="evenodd"
         id="path18" /></clipPath><radialGradient
       id="er"
       cx="84.060997"
       cy="238.08"
       r="466.92001"
       gradientTransform="matrix(1.3855,0,0,0.94847,147.59,46.554)"
       gradientUnits="userSpaceOnUse"><stop
         stop-color="#fff"
         offset="0"
         id="stop19" /><stop
         stop-color="#fff"
         stop-opacity="0"
         offset="1"
         id="stop20" /></radialGradient><clipPath
       id="eu"><path
         d="m 78.835,-258.7 c -247.73,-0.001 -448.55,198.9 -448.55,444.26 -8.0766,293.07 308.84,526.12 325.03,828.28 7.6e-4,43.273 35.332,78.353 123.52,78.353 88.192,0 129.58,-35.08 129.59,-78.353 32.827,-300.99 318.21,-535.21 318.96,-828.28 -2e-4,-245.36 -200.82,-444.26 -448.55,-444.26 z"
         fill="#c51162"
         fill-rule="evenodd"
         id="path20" /></clipPath><radialGradient
       id="es"
       cx="84.060997"
       cy="238.08"
       r="466.92001"
       gradientTransform="matrix(1.3855,0,0,0.94847,199.02,-319.16)"
       gradientUnits="userSpaceOnUse"><stop
         stop-color="#ffea00"
         offset="0"
         id="stop21" /><stop
         stop-color="#fff"
         stop-opacity="0"
         offset="1"
         id="stop22" /></radialGradient><clipPath
       id="et"><path
         d="m 78.835,-258.7 c -247.73,-0.001 -448.55,198.9 -448.55,444.26 -8.0766,293.07 308.84,526.12 325.03,828.28 7.6e-4,43.273 35.332,78.353 123.52,78.353 88.192,0 129.58,-35.08 129.59,-78.353 32.827,-300.99 318.21,-535.21 318.96,-828.28 -2e-4,-245.36 -200.82,-444.26 -448.55,-444.26 z"
         fill="#c51162"
         fill-rule="evenodd"
         id="path22" /></clipPath><linearGradient
       id="el"
       x1="86.873001"
       x2="86.873001"
       y1="1292.8"
       y2="1028.1"
       gradientUnits="userSpaceOnUse"><stop
         offset="0"
         id="stop23" /><stop
         stop-opacity="0"
         offset="1"
         id="stop24" /></linearGradient><linearGradient
       id="ea"
       x1="232.59"
       x2="252.84"
       y1="1097"
       y2="1400.1"
       gradientTransform="matrix(0.29891,0,0,0.40939,-726.35,-127.1)"
       gradientUnits="userSpaceOnUse"
       xlink:href="#dg" /><linearGradient
       id="dz"
       x1="379.20001"
       x2="466.04999"
       y1="209.08"
       y2="377.64999"
       gradientTransform="matrix(0.64447,0,0,0.64447,-826.52,-267.31)"
       gradientUnits="userSpaceOnUse"
       xlink:href="#dj" /><linearGradient
       id="dj"><stop
         stop-color="#f6ee2c"
         offset="0"
         id="stop25" /><stop
         stop-color="#f6ee2c"
         stop-opacity="0"
         offset="1"
         id="stop26" /></linearGradient><linearGradient
       id="dy"
       x1="1938"
       x2="1789.3"
       y1="481.28"
       y2="872.03998"
       gradientTransform="matrix(-0.11183,0,0,0.11183,44.606,-166.67)"
       gradientUnits="userSpaceOnUse"><stop
         stop-color="#1de9b6"
         offset="0"
         id="stop27" /><stop
         stop-color="#12b972"
         offset="1"
         id="stop28" /></linearGradient><linearGradient
       id="dx"
       x1="252.86"
       x2="258.54001"
       y1="341.44"
       y2="441.53"
       gradientTransform="matrix(0.4283,0,0,0.4283,-328.98,-276.78)"
       gradientUnits="userSpaceOnUse"
       xlink:href="#dh" /><linearGradient
       id="dh"><stop
         stop-color="#212121"
         offset="0"
         id="stop29" /><stop
         stop-color="#212121"
         stop-opacity="0"
         offset="1"
         id="stop30" /></linearGradient><linearGradient
       id="dw"
       x1="2371.3"
       x2="2089.2"
       y1="711.54999"
       y2="1322.8"
       gradientTransform="matrix(-0.11183,0,0,0.11183,44.606,-166.67)"
       gradientUnits="userSpaceOnUse"
       xlink:href="#di" /><linearGradient
       id="di"><stop
         stop-color="#ffeb62"
         offset="0"
         id="stop31" /><stop
         stop-color="#f57f17"
         offset="1"
         id="stop32" /></linearGradient><linearGradient
       id="dv"
       x1="781.09998"
       x2="1001.4"
       y1="380.14001"
       y2="317.28"
       gradientTransform="matrix(0.64447,0,0,0.64447,-826.52,-267.31)"
       gradientUnits="userSpaceOnUse"
       xlink:href="#dj" /><linearGradient
       id="du"
       x1="1843.8"
       x2="1866.8"
       y1="1031.2"
       y2="470.17001"
       gradientTransform="matrix(-0.11183,0,0,0.11183,44.606,-166.67)"
       gradientUnits="userSpaceOnUse"
       xlink:href="#di" /><linearGradient
       id="dt"
       x1="918.98999"
       x2="1130.6"
       y1="23.601"
       y2="496.35001"
       gradientTransform="matrix(0.4283,0,0,0.4283,-623.28,-203.57)"
       gradientUnits="userSpaceOnUse"
       xlink:href="#dh" /><linearGradient
       id="ds"
       x1="232.59"
       x2="252.84"
       y1="1097"
       y2="1400.1"
       gradientTransform="matrix(0.58016,0,0,0.58016,-327.78,-185.67)"
       gradientUnits="userSpaceOnUse"
       xlink:href="#dg" /><radialGradient
       id="eq"
       cx="163.86"
       cy="596.39001"
       r="223.24001"
       gradientTransform="matrix(-0.22704,1.4161,-1.6369,-0.26244,733.11,-119.36)"
       gradientUnits="userSpaceOnUse"><stop
         stop-color="#ddc417"
         offset="0"
         id="stop33" /><stop
         stop-color="#9ed017"
         offset=".25384"
         id="stop34" /><stop
         stop-color="#92c417"
         offset=".50893"
         id="stop35" /><stop
         stop-color="#33691e"
         offset="1"
         id="stop36" /></radialGradient><linearGradient
       id="dr"
       x1="-105.13"
       x2="-114.88"
       y1="523.71002"
       y2="631.38"
       gradientTransform="matrix(0.64447,0,0,0.64447,-389.89,-382.3)"
       gradientUnits="userSpaceOnUse"><stop
         stop-color="#eeff41"
         offset="0"
         id="stop37" /><stop
         stop-color="#efcc00"
         offset="1"
         id="stop38" /></linearGradient><linearGradient
       id="dq"
       x1="-231.88"
       x2="-229.10001"
       y1="538.65997"
       y2="632.23999"
       gradientTransform="matrix(0.64447,0,0,0.64447,-388.28,-382.07)"
       gradientUnits="userSpaceOnUse"><stop
         stop-color="#424242"
         offset="0"
         id="stop39" /><stop
         stop-color="#424242"
         stop-opacity="0"
         offset="1"
         id="stop40" /></linearGradient><linearGradient
       id="dp"
       x1="307.57999"
       x2="363.45999"
       y1="995.65997"
       y2="2488.8"
       gradientTransform="translate(-474.26,-639.95)"
       gradientUnits="userSpaceOnUse"
       xlink:href="#df" /><linearGradient
       id="df"><stop
         stop-color="#ddc417"
         offset="0"
         id="stop41" /><stop
         stop-color="#9ed017"
         offset=".084716"
         id="stop42" /><stop
         stop-color="#33691e"
         offset="1"
         id="stop43" /></linearGradient><linearGradient
       id="do"
       x1="-495.98999"
       x2="-522.84003"
       y1="1006.1"
       y2="1790"
       gradientTransform="translate(-474.26,-639.95)"
       gradientUnits="userSpaceOnUse"
       xlink:href="#df" /><linearGradient
       id="dn"
       x1="-199.67999"
       x2="314.14999"
       y1="514.01001"
       y2="675.17999"
       gradientTransform="matrix(0.64447,0,0,0.64447,-388.28,-382.07)"
       gradientUnits="userSpaceOnUse"><stop
         stop-color="#f8ed3a"
         offset="0"
         id="stop44" /><stop
         stop-color="#f0fa3b"
         offset=".13072"
         id="stop45" /><stop
         stop-color="#ffdd18"
         offset="1"
         id="stop46" /></linearGradient><radialGradient
       id="ep"
       cx="-334.35001"
       cy="614.97998"
       r="164.64999"
       gradientTransform="matrix(-1.0625,0.14975,-0.13016,-0.92347,-843.18,508.24)"
       gradientUnits="userSpaceOnUse"><stop
         stop-color="#c7dd17"
         offset="0"
         id="stop47" /><stop
         stop-color="#9ed017"
         offset=".22704"
         id="stop48" /><stop
         stop-color="#92c417"
         offset=".36669"
         id="stop49" /><stop
         stop-color="#33691e"
         offset="1"
         id="stop50" /></radialGradient><linearGradient
       id="dm"
       x1="-162.44"
       x2="-159.28"
       y1="997.97998"
       y2="1240.4"
       gradientTransform="translate(-493.27,-670.26)"
       gradientUnits="userSpaceOnUse"
       xlink:href="#df" /><linearGradient
       id="dl"
       x1="605.71002"
       x2="634.08002"
       y1="667.23999"
       y2="1483.6"
       gradientTransform="matrix(1.8839,0,0,0.91176,-752.37,-394.66)"
       gradientUnits="userSpaceOnUse"><stop
         stop-color="#ddc417"
         offset="0"
         id="stop51" /><stop
         stop-color="#9ed017"
         offset=".19008"
         id="stop52" /><stop
         stop-color="#33691e"
         offset=".50893"
         id="stop53" /><stop
         stop-color="#33691e"
         offset="1"
         id="stop54" /></linearGradient><linearGradient
       id="a"
       x1="-1782.9"
       x2="-1775.8"
       y1="203.22"
       y2="1386.2"
       gradientTransform="matrix(1.2214,0,0,1.1176,1788.3,-1004.1)"
       gradientUnits="userSpaceOnUse"
       xlink:href="#dd" /><linearGradient
       id="dd"><stop
         stop-color="#68c9d9"
         offset="0"
         id="stop55" /><stop
         stop-color="#73ceda"
         offset=".34988"
         id="stop56" /><stop
         stop-color="#a8e6e0"
         offset=".52677"
         id="stop57" /><stop
         stop-color="#b5ece2"
         offset=".62284"
         id="stop58" /><stop
         stop-color="#ddf7f1"
         offset=".81735"
         id="stop59" /><stop
         stop-color="#cef8e5"
         offset="1"
         id="stop60" /></linearGradient><clipPath
       id="fk"><rect
         x="-1401.4"
         y="-527.91998"
         width="1954.3"
         height="1085.7"
         fill="url(#a)"
         fill-rule="evenodd"
         id="rect60" /></clipPath><clipPath
       id="fl"><rect
         x="-1401.4"
         y="-527.91998"
         width="1954.3"
         height="1085.7"
         fill="url(#a)"
         fill-rule="evenodd"
         id="rect61" /></clipPath><clipPath
       id="fm"><rect
         x="-1401.4"
         y="-527.91998"
         width="1954.3"
         height="1085.7"
         fill="url(#a)"
         fill-rule="evenodd"
         id="rect62" /></clipPath><clipPath
       id="fn"><rect
         x="-1401.4"
         y="-527.91998"
         width="1954.3"
         height="1085.7"
         fill="url(#a)"
         fill-rule="evenodd"
         id="rect63" /></clipPath><clipPath
       id="fo"><rect
         x="-1401.4"
         y="-527.91998"
         width="1954.3"
         height="1085.7"
         fill="url(#a)"
         fill-rule="evenodd"
         id="rect64" /></clipPath><clipPath
       id="fp"><rect
         x="-6753.7002"
         y="-7003.7002"
         width="23032"
         height="12796"
         fill="url(#em)"
         fill-rule="evenodd"
         id="rect65" /></clipPath><linearGradient
       id="em"
       x1="-1782.9"
       x2="-1775.8"
       y1="203.22"
       y2="1386.2"
       gradientTransform="matrix(14.395,0,0,13.172,30838,-12616)"
       gradientUnits="userSpaceOnUse"
       xlink:href="#dd" /><clipPath
       id="fq"><rect
         x="-1401.4"
         y="-527.91998"
         width="1954.3"
         height="1085.7"
         fill="url(#a)"
         fill-rule="evenodd"
         id="rect66" /></clipPath><clipPath
       id="fr"><rect
         x="-1401.4"
         y="-527.91998"
         width="1954.3"
         height="1085.7"
         fill="url(#a)"
         fill-rule="evenodd"
         id="rect67" /></clipPath><clipPath
       id="fs"><rect
         x="-1401.4"
         y="-527.91998"
         width="1954.3"
         height="1085.7"
         fill="url(#a)"
         fill-rule="evenodd"
         id="rect68" /></clipPath><clipPath
       id="ft"><rect
         x="-1401.4"
         y="-527.91998"
         width="1954.3"
         height="1085.7"
         fill="url(#a)"
         fill-rule="evenodd"
         id="rect69" /></clipPath><clipPath
       id="fu"><rect
         x="-1401.4"
         y="-527.91998"
         width="1954.3"
         height="1085.7"
         fill="url(#a)"
         fill-rule="evenodd"
         id="rect70" /></clipPath><clipPath
       id="fv"><rect
         x="-1401.4"
         y="-527.91998"
         width="1954.3"
         height="1085.7"
         fill="url(#a)"
         fill-rule="evenodd"
         id="rect71" /></clipPath><clipPath
       id="fw"><rect
         x="-1401.4"
         y="-527.91998"
         width="1954.3"
         height="1085.7"
         fill="url(#a)"
         fill-rule="evenodd"
         id="rect72" /></clipPath><clipPath
       id="fx"><rect
         x="-1401.4"
         y="-527.91998"
         width="1954.3"
         height="1085.7"
         fill="url(#a)"
         fill-rule="evenodd"
         id="rect73" /></clipPath><clipPath
       id="fy"><rect
         transform="matrix(0.92536,0.3791,-0.3791,0.92536,0,0)"
         x="-2781.5"
         y="-1447.2"
         width="4152.7998"
         height="2307.1001"
         fill="url(#en)"
         fill-rule="evenodd"
         id="rect74" /></clipPath><linearGradient
       id="en"
       x1="-1782.9"
       x2="-1775.8"
       y1="203.22"
       y2="1386.2"
       gradientTransform="matrix(2.5955,0,0,2.375,3996.5,-2459.1)"
       gradientUnits="userSpaceOnUse"
       xlink:href="#dd" /><clipPath
       id="fz"><rect
         x="-1401.4"
         y="-527.91998"
         width="1954.3"
         height="1085.7"
         fill="url(#a)"
         fill-rule="evenodd"
         id="rect75" /></clipPath><clipPath
       id="ga"><rect
         x="-1401.4"
         y="-527.91998"
         width="1954.3"
         height="1085.7"
         fill="url(#a)"
         fill-rule="evenodd"
         id="rect76" /></clipPath><clipPath
       id="gb"><rect
         x="-1401.4"
         y="-527.91998"
         width="1954.3"
         height="1085.7"
         fill="url(#a)"
         fill-rule="evenodd"
         id="rect77" /></clipPath><clipPath
       id="gc"><rect
         x="-1401.4"
         y="-527.91998"
         width="1954.3"
         height="1085.7"
         fill="url(#a)"
         fill-rule="evenodd"
         id="rect78" /></clipPath><clipPath
       id="gd"><rect
         x="-1401.4"
         y="-527.91998"
         width="1954.3"
         height="1085.7"
         fill="url(#a)"
         fill-rule="evenodd"
         id="rect79" /></clipPath><clipPath
       id="ge"><rect
         x="-1401.4"
         y="-527.91998"
         width="1954.3"
         height="1085.7"
         fill="url(#a)"
         fill-rule="evenodd"
         id="rect80" /></clipPath><clipPath
       id="gf"><rect
         x="-1401.4"
         y="-527.91998"
         width="1954.3"
         height="1085.7"
         fill="url(#a)"
         fill-rule="evenodd"
         id="rect81" /></clipPath><clipPath
       id="gg"><rect
         x="-1401.4"
         y="-527.91998"
         width="1954.3"
         height="1085.7"
         fill="url(#a)"
         fill-rule="evenodd"
         id="rect82" /></clipPath><clipPath
       id="gh"><rect
         x="-1401.4"
         y="-527.91998"
         width="1954.3"
         height="1085.7"
         fill="url(#a)"
         fill-rule="evenodd"
         id="rect83" /></clipPath><clipPath
       id="gi"><rect
         x="-1401.4"
         y="-527.91998"
         width="1954.3"
         height="1085.7"
         fill="url(#a)"
         fill-rule="evenodd"
         id="rect84" /></clipPath><clipPath
       id="gj"><rect
         x="-1401.4"
         y="-527.91998"
         width="1954.3"
         height="1085.7"
         fill="url(#a)"
         fill-rule="evenodd"
         id="rect85" /></clipPath><clipPath
       id="gk"><rect
         x="-1401.4"
         y="-527.91998"
         width="1954.3"
         height="1085.7"
         fill="url(#a)"
         fill-rule="evenodd"
         id="rect86" /></clipPath><clipPath
       id="gl"><rect
         x="-1401.4"
         y="-527.91998"
         width="1954.3"
         height="1085.7"
         fill="url(#a)"
         fill-rule="evenodd"
         id="rect87" /></clipPath><clipPath
       id="gm"><rect
         x="-1401.4"
         y="-527.91998"
         width="1954.3"
         height="1085.7"
         fill="url(#a)"
         fill-rule="evenodd"
         id="rect88" /></clipPath><clipPath
       id="gn"><rect
         x="-1401.4"
         y="-527.91998"
         width="1954.3"
         height="1085.7"
         fill="url(#a)"
         fill-rule="evenodd"
         id="rect89" /></clipPath><clipPath
       id="go"><rect
         x="-1401.4"
         y="-527.91998"
         width="1954.3"
         height="1085.7"
         fill="url(#a)"
         fill-rule="evenodd"
         id="rect90" /></clipPath><clipPath
       id="gp"><rect
         x="-1401.4"
         y="-527.91998"
         width="1954.3"
         height="1085.7"
         fill="url(#a)"
         fill-rule="evenodd"
         id="rect91" /></clipPath><clipPath
       id="gq"><rect
         x="-1401.4"
         y="-527.91998"
         width="1954.3"
         height="1085.7"
         fill="url(#a)"
         fill-rule="evenodd"
         id="rect92" /></clipPath><clipPath
       id="gr"><rect
         x="-1401.4"
         y="-527.91998"
         width="1954.3"
         height="1085.7"
         fill="url(#a)"
         fill-rule="evenodd"
         id="rect93" /></clipPath><clipPath
       id="gs"><rect
         x="-1401.4"
         y="-527.91998"
         width="1954.3"
         height="1085.7"
         fill="url(#a)"
         fill-rule="evenodd"
         id="rect94" /></clipPath><clipPath
       id="gt"><rect
         x="-1401.4"
         y="-527.91998"
         width="1954.3"
         height="1085.7"
         fill="url(#a)"
         fill-rule="evenodd"
         id="rect95" /></clipPath><clipPath
       id="gu"><rect
         x="-1401.4"
         y="-527.91998"
         width="1954.3"
         height="1085.7"
         fill="url(#a)"
         fill-rule="evenodd"
         id="rect96" /></clipPath><clipPath
       id="gv"><rect
         x="-1401.4"
         y="-527.91998"
         width="1954.3"
         height="1085.7"
         fill="url(#a)"
         fill-rule="evenodd"
         id="rect97" /></clipPath><clipPath
       id="gw"><rect
         x="-1401.4"
         y="-527.91998"
         width="1954.3"
         height="1085.7"
         fill="url(#a)"
         fill-rule="evenodd"
         id="rect98" /></clipPath><clipPath
       id="gx"><rect
         transform="rotate(22.513427)"
         x="-11517"
         y="-7220.3999"
         width="36574"
         height="20319"
         fill="url(#eo)"
         fill-rule="evenodd"
         id="rect99" /></clipPath><linearGradient
       id="eo"
       x1="-1782.9"
       x2="-1775.8"
       y1="203.22"
       y2="1386.2"
       gradientTransform="matrix(22.858,0,0,20.916,48177,-16132)"
       gradientUnits="userSpaceOnUse"
       xlink:href="#dd" /><clipPath
       id="gy"><rect
         x="-1401.4"
         y="-527.91998"
         width="1954.3"
         height="1085.7"
         fill="url(#a)"
         fill-rule="evenodd"
         id="rect100" /></clipPath><clipPath
       id="gz"><rect
         x="-1401.4"
         y="-527.91998"
         width="1954.3"
         height="1085.7"
         fill="url(#a)"
         fill-rule="evenodd"
         id="rect101" /></clipPath><clipPath
       id="ha"><rect
         x="-1401.4"
         y="-527.91998"
         width="1954.3"
         height="1085.7"
         fill="url(#a)"
         fill-rule="evenodd"
         id="rect102" /></clipPath><clipPath
       id="hb"><rect
         x="-1401.4"
         y="-527.91998"
         width="1954.3"
         height="1085.7"
         fill="url(#a)"
         fill-rule="evenodd"
         id="rect103" /></clipPath><clipPath
       id="hc"><rect
         x="-1401.4"
         y="-527.91998"
         width="1954.3"
         height="1085.7"
         fill="url(#a)"
         fill-rule="evenodd"
         id="rect104" /></clipPath><clipPath
       id="hd"><rect
         x="-1401.4"
         y="-527.91998"
         width="1954.3"
         height="1085.7"
         fill="url(#a)"
         fill-rule="evenodd"
         id="rect105" /></clipPath><clipPath
       id="he"><rect
         x="-1401.4"
         y="-527.91998"
         width="1954.3"
         height="1085.7"
         fill="url(#a)"
         fill-rule="evenodd"
         id="rect106" /></clipPath><linearGradient
       inkscape:collect="always"
       xlink:href="#dd"
       id="linearGradient1"
       gradientUnits="userSpaceOnUse"
       gradientTransform="matrix(1.2214,0,0,1.1176,1788.3,-1004.1)"
       x1="-1782.9"
       y1="203.22"
       x2="-1775.8"
       y2="1386.2" /></defs><g
     inkscape:groupmode="layer"
     id="root"
     inkscape:label="root"><g
       inkscape:label="background"
       inkscape:groupmode="layer"
       id="layer1"
       transform="translate(283.44392,88.380051)"
       sodipodi:insensitive="true"><g
         transform="matrix(0.28221972,0,0,0.28221972,112.0588,60.609378)"
         fill-rule="evenodd"
         id="g174"><rect
           x="-1401.4"
           y="-527.91998"
           width="1954.3"
           height="1085.7"
           clip-path="url(#he)"
           fill="url(#a)"
           id="rect107"
           style="fill:url(#linearGradient1)" /><path
           d="m -1271.4,160.65 c -46.374,0.011 -86.273,32.797 -95.273,78.289 -16.624,2.5159 -30.847,9.1408 -39.34,18.324 -20.072,-10.896 -42.548,-16.606 -65.387,-16.613 -47.19,0.067 -91.03,24.391 -116.06,64.394 -3.117,-1.0124 -6.3731,-1.531 -9.6504,-1.5371 -13.305,0.017 -25.158,8.4105 -29.592,20.955 -6.9854,-4.3405 -15.042,-6.65 -23.266,-6.6699 -7.9664,0.017 -15.781,2.1833 -22.619,6.2695 -18.213,-25.413 -47.545,-40.507 -78.811,-40.555 -2.4842,0.01 -4.9672,0.1145 -7.4433,0.3145 -19.602,-59.781 -75.357,-100.23 -138.27,-100.31 -80.476,-3e-4 -145.72,65.239 -145.71,145.71 7e-4,80.476 65.239,145.71 145.71,145.71 28.162,-0.012 55.716,-8.1851 79.33,-23.529 17.973,16.908 41.707,26.342 66.383,26.387 43.977,-0.054 82.432,-29.646 93.75,-72.141 2.5343,0.4605 5.1039,0.6991 7.6797,0.7129 3.3728,-0.018 6.7325,-0.422 10.014,-1.2031 0.1947,18.51 20.235,34.695 49.094,39.648 24.222,43.246 69.895,70.056 119.46,70.125 57.439,-0.076 108.74,-35.938 128.55,-89.854 10.626,44.279 50.2,75.516 95.736,75.568 28.479,-0.027 55.555,-12.37 74.254,-33.85 19.003,8.8771 44.025,13.826 70.031,13.85 40.063,-0.024 76.452,-11.678 93.252,-29.863 9.9517,-4.1736 18.388,-11.293 24.174,-20.402 2.1287,30.345 17.985,53.282 36.859,53.32 19.712,-0.04 35.972,-24.99 37.041,-56.838 13.405,10.747 30.066,16.615 47.246,16.641 20.479,-0.03 40.072,-8.3544 54.31,-23.074 6.9792,14.123 21.364,23.065 37.117,23.074 22.88,-5e-4 41.427,-18.548 41.428,-41.428 6e-4,-22.88 -18.547,-41.429 -41.428,-41.43 -5.4436,0.012 -10.832,1.0975 -15.856,3.1933 -2.1,-40.211 -35.306,-71.745 -68.693,-70.483 -33.387,1.2614 -16.933,-17.414 -16.879,-36.995 0,-38.66 -62.68,-70 -140,-70 -77.32,0 -140,31.34 -150,24.558 -10,-6.782 -53.493,-50.274 -107.14,-50.273 z"
           clip-path="url(#hd)"
           fill="#ffffff"
           id="path107" /><path
           d="m 736.83,87.257 c -46.374,0.011 -86.273,32.797 -95.274,78.289 -16.624,2.5159 -30.847,9.1408 -39.34,18.324 -20.072,-10.896 -42.548,-16.606 -65.387,-16.613 -47.19,0.067 -91.03,24.391 -116.06,64.394 -3.117,-1.0124 -6.3732,-1.531 -9.6504,-1.5371 -13.305,0.017 -25.158,8.4105 -29.592,20.955 -6.9855,-4.3405 -15.042,-6.65 -23.266,-6.6699 -7.9664,0.017 -15.781,2.1833 -22.619,6.2695 -18.213,-25.413 -47.545,-40.507 -78.81,-40.555 -2.4843,0.01 -4.9672,0.1145 -7.4434,0.3145 -19.601,-59.781 -75.357,-100.23 -138.27,-100.31 -80.476,-3e-4 -145.72,65.239 -145.71,145.71 8e-4,80.476 65.239,145.71 145.71,145.71 28.162,-0.012 55.716,-8.1851 79.33,-23.529 17.973,16.908 41.707,26.342 66.383,26.387 43.977,-0.054 82.432,-29.646 93.75,-72.141 2.5343,0.4605 5.1039,0.6991 7.6797,0.7129 3.3728,-0.018 6.7324,-0.422 10.014,-1.2031 0.1947,18.51 20.235,34.695 49.094,39.648 24.222,43.246 69.895,70.056 119.46,70.125 57.439,-0.076 108.74,-35.938 128.55,-89.854 10.626,44.279 50.2,75.516 95.736,75.568 28.479,-0.027 55.555,-12.37 74.254,-33.85 19.003,8.8771 44.025,13.826 70.031,13.85 40.063,-0.024 76.452,-11.678 93.252,-29.863 9.9517,-4.1736 18.387,-11.293 24.174,-20.402 2.1288,30.345 17.985,53.282 36.859,53.32 19.712,-0.04 35.972,-24.99 37.041,-56.838 13.405,10.747 30.066,16.615 47.246,16.641 20.479,-0.03 40.072,-8.3544 54.31,-23.074 6.9792,14.123 21.364,23.065 37.117,23.074 22.88,-5e-4 41.427,-18.548 41.428,-41.428 6e-4,-22.88 -18.547,-41.429 -41.428,-41.43 -5.4436,0.012 -10.832,1.0975 -15.856,3.1933 -2.1,-40.211 -35.306,-71.745 -68.693,-70.483 -33.387,1.2614 -16.933,-17.414 -16.879,-36.995 0,-38.66 -62.68,-70 -140,-70 -77.32,0 -140,31.34 -150,24.558 -10,-6.7817 -53.493,-50.274 -107.14,-50.273 z"
           clip-path="url(#hc)"
           fill="#ffffff"
           id="path108" /><path
           d="m 244.48,198.8 c -46.374,0.011 -86.273,32.797 -95.274,78.289 -16.624,2.5159 -30.847,9.1408 -39.34,18.324 C 89.794,284.517 67.318,278.807 44.479,278.8 c -47.19,0.067 -91.03,24.391 -116.06,64.394 -3.117,-1.0124 -6.3732,-1.531 -9.6504,-1.5371 -13.305,0.017 -25.158,8.4105 -29.592,20.955 -6.9855,-4.3405 -15.042,-6.65 -23.266,-6.6699 -7.9664,0.017 -15.781,2.1833 -22.619,6.2695 -18.213,-25.413 -47.545,-40.507 -78.81,-40.555 -2.4843,0.01 -4.9672,0.1145 -7.4434,0.3145 -19.601,-59.781 -75.357,-100.23 -138.27,-100.31 -80.476,-3e-4 -145.72,65.239 -145.71,145.71 8e-4,80.476 65.239,145.71 145.71,145.71 28.162,-0.012 55.716,-8.1851 79.33,-23.529 17.973,16.908 41.707,26.342 66.383,26.387 43.977,-0.054 82.432,-29.646 93.75,-72.141 2.5343,0.4605 5.1039,0.6991 7.6797,0.7129 3.3728,-0.018 6.7325,-0.422 10.014,-1.2031 0.1947,18.51 20.235,34.695 49.094,39.648 24.222,43.246 69.895,70.056 119.46,70.125 57.439,-0.076 108.74,-35.938 128.55,-89.854 10.626,44.279 50.2,75.516 95.736,75.568 28.479,-0.027 55.555,-12.37 74.254,-33.85 19.003,8.8771 44.025,13.826 70.031,13.85 40.063,-0.024 76.452,-11.678 93.252,-29.863 9.9517,-4.1736 18.388,-11.293 24.174,-20.402 2.1288,30.345 17.985,53.282 36.859,53.32 19.712,-0.04 35.972,-24.99 37.041,-56.838 13.405,10.747 30.066,16.615 47.246,16.641 20.479,-0.03 40.072,-8.3544 54.31,-23.074 6.9792,14.123 21.364,23.065 37.117,23.074 22.88,-5e-4 41.427,-18.548 41.428,-41.428 6e-4,-22.88 -18.547,-41.429 -41.428,-41.43 -5.4436,0.012 -10.832,1.0975 -15.856,3.1933 -2.1,-40.211 -35.306,-71.745 -68.693,-70.483 -33.387,1.2614 -16.933,-17.414 -16.879,-36.995 0,-38.66 -62.68,-70 -140,-70 -77.32,0 -140,31.34 -150,24.558 -10,-6.7817 -53.493,-50.274 -107.14,-50.273 z"
           clip-path="url(#hb)"
           fill="#ffffff"
           id="path109" /><path
           d="m -464.64,99.81 c -46.374,0.011 -104.46,30.777 -113.46,76.269 -16.624,2.5159 -30.847,9.1408 -39.34,18.324 -20.072,-10.896 -42.548,-16.606 -65.387,-16.613 -47.19,0.067 -91.03,24.391 -116.06,64.394 -3.1169,-1.0124 -6.3731,-1.531 -9.6503,-1.5371 -13.305,0.017 -25.158,8.4105 -29.592,20.955 -6.9855,-4.3405 -15.042,-6.65 -23.266,-6.6699 -7.9663,0.017 -15.78,2.1833 -22.619,6.2695 -18.213,-25.413 -47.545,-40.507 -78.811,-40.555 -2.4842,0.01 -4.9671,0.1145 -7.4433,0.3145 -19.602,-59.781 -75.357,-100.23 -138.27,-100.31 -80.476,-3e-4 -145.72,65.239 -145.71,145.71 8e-4,80.476 65.239,145.71 145.71,145.71 28.161,-0.012 55.716,-8.1851 79.33,-23.529 17.973,16.908 41.707,26.342 66.383,26.387 43.977,-0.054 82.432,-29.646 93.75,-72.141 2.5343,0.4605 5.104,0.6991 7.6797,0.7129 3.3728,-0.018 6.7325,-0.422 10.014,-1.2031 0.1947,18.51 20.235,34.695 49.094,39.648 24.222,43.246 69.895,70.056 119.46,70.125 57.439,-0.076 108.74,-35.938 128.55,-89.854 10.626,44.279 50.2,75.516 95.736,75.568 28.479,-0.027 55.555,-12.37 74.254,-33.85 19.003,8.8771 44.025,13.826 70.031,13.85 40.063,-0.024 76.452,-11.678 93.252,-29.863 9.9517,-4.1736 18.388,-11.293 24.174,-20.402 2.1287,30.345 17.985,53.282 36.859,53.32 19.712,-0.04 35.972,-24.99 37.041,-56.838 13.405,10.747 30.065,16.615 47.246,16.641 20.479,-0.03 40.072,-8.3544 54.31,-23.074 6.9792,14.123 21.364,23.065 37.117,23.074 22.88,-5e-4 41.427,-18.548 41.428,-41.428 6e-4,-22.88 -18.547,-41.429 -41.428,-41.43 -5.4436,0.012 -10.832,1.0975 -15.856,3.1933 -1.863,-35.673 -15.579,-69.567 -55.717,-82.4 -4.8118,-1.5385 -7.4409,-22.343 -10.278,-26.541 -25.133,-37.197 -82.257,-68.537 -159.58,-68.537 -77.32,0 -140,31.34 -150,24.558 -10,-6.782 -35.311,-48.254 -88.962,-48.253 z"
           clip-path="url(#ha)"
           fill="#ffffff"
           id="path110" /><ellipse
           cx="437.17001"
           cy="832.65002"
           rx="1437.1"
           ry="531.42999"
           clip-path="url(#gz)"
           fill="url(#dl)"
           id="ellipse110"
           style="fill:url(#dl)" /><ellipse
           cx="-846.07001"
           cy="529.75"
           rx="637.97998"
           ry="196.55"
           clip-path="url(#gy)"
           fill="url(#dm)"
           id="ellipse111"
           style="fill:url(#dm)" /><g
           transform="matrix(0.049362,-0.02046,0.02046,0.049362,-786.02,-142.11)"
           clip-path="url(#gx)"
           opacity="0.92"
           id="g115"><path
             d="m 2425.2,325.84 c -10.585,136.21 -35.731,302.1 27.878,385.39 -224.12,112.09 -448.24,35.345 -672.36,53.018 l -54.548,-422.24 78.792,224.25 337.39,36.365 c 94.295,-92.189 193.77,-158.49 282.84,-276.78 z"
             fill="#263238"
             id="path111" /><path
             d="m 1732.2,1035 -4.0406,-299.01 c 84.853,0 428.3,24.244 428.3,24.244 v 303.05 z"
             fill="#ffeb62"
             id="path112" /><path
             transform="matrix(12.972,5.3766,-5.3766,12.972,-19214,33999)"
             d="m 503.51,-2790.5 -3.8496,20.689 -0.33008,0.2286 8.1484,20.189 12.654,-12.514 -7.1836,-16.748 z"
             fill="#ffeb62"
             id="path113" /><path
             d="m 2155.9,786.36 c -92.714,48.837 -406.16,10.079 -538.24,-40.347 69.55,-89.042 114.79,-268.24 105.46,-415.12 0,0 86.258,162.51 163.92,199.77 81.952,39.318 186.6,32.206 272.67,3.0007 107.33,-36.417 267.53,-209.87 267.53,-209.87 -64.556,148.37 -166,362.74 -271.34,462.57 z"
             fill="#d56a00"
             id="path114" /><path
             transform="translate(-680,178.08)"
             d="m 2979.9,643.15 c -2.4472,-0.0254 -5.0511,0.36545 -7.7539,1.2148 l -2.5098,0.78906 c -14.415,4.5301 -26.02,20.341 -26.02,35.451 v 158.3 l 54.549,-22.225 v -153.22 c 0,-12.277 -7.661,-20.202 -18.266,-20.312 z"
             fill="#f57f17"
             opacity="1"
             id="path115" /></g><path
           d="m -732.56,-56.002 a 16.009,16.009 0 0 0 -1.5919,-0.1628 16.009,16.009 0 0 0 -14.838,8.282 13.214,13.214 0 0 0 -3.9914,-0.8432 13.214,13.214 0 0 0 -12.828,8.0269 9.1479,9.1479 0 0 0 -0.8161,-0.083 9.1479,9.1479 0 0 0 -9.6085,8.6621 9.1479,9.1479 0 0 0 8.6622,9.6086 9.1479,9.1479 0 0 0 6.3944,-2.1688 13.214,13.214 0 0 0 4.4204,1.9868 9.1479,9.1479 0 0 0 8.2089,6.2566 9.1479,9.1479 0 0 0 3.5831,-0.542 9.402,9.402 0 0 0 7.6523,4.6869 9.402,9.402 0 0 0 9.2068,-5.901 10.711,10.711 0 0 0 9.4538,6.917 10.711,10.711 0 0 0 10.124,-5.8979 12.636,12.636 0 0 0 12.138,-11.964 12.636,12.636 0 0 0 -9.1917,-12.805 6.3527,6.3527 0 0 0 -5.9832,-5.6562 6.3527,6.3527 0 0 0 -3.2696,0.7215 6.1911,6.1911 0 0 0 -5.1778,-3.3521 6.1911,6.1911 0 0 0 -2.285,0.3134 16.009,16.009 0 0 0 -10.263,-6.0866 z m 14.088,17.857 a 12.636,12.636 0 0 0 -0.8137,1.0258 16.009,16.009 0 0 0 0.1528,-0.8591 6.1911,6.1911 0 0 0 0.6609,-0.1667 z m -9.6528,12.419 a 10.711,10.711 0 0 0 -0.092,0.2704 9.402,9.402 0 0 0 -0.085,-0.1809 16.009,16.009 0 0 0 0.1776,-0.09 z"
           clip-path="url(#gw)"
           fill="#ffffff"
           opacity="0.707"
           id="path116" /><circle
           cx="-609.72998"
           cy="-46.43"
           r="106.12"
           clip-path="url(#gv)"
           fill="url(#ep)"
           opacity="0.92"
           id="circle116"
           style="fill:url(#ep)" /><path
           d="m -555.6,-45.959 281.99,123.11 87.682,-10.956 -336.01,-115.34 z"
           clip-path="url(#gu)"
           fill="url(#dn)"
           id="path117"
           style="fill:url(#dn)" /><ellipse
           cx="-1451.2"
           cy="665.73999"
           rx="903.08002"
           ry="294.95999"
           clip-path="url(#gt)"
           fill="url(#do)"
           id="ellipse117"
           style="fill:url(#do)" /><ellipse
           cx="68.028999"
           cy="827.35999"
           rx="1238.4"
           ry="404.06"
           clip-path="url(#gs)"
           fill="url(#dp)"
           id="ellipse118"
           style="fill:url(#dp)" /><path
           d="m -555.78,-15.333 6.9119,55.668 c 15.647,-10.968 28.043,-25.957 35.878,-43.386 l -2.3475,-13.433 z"
           clip-path="url(#gr)"
           fill="url(#dq)"
           opacity="0.92"
           id="path118"
           style="fill:url(#dq)" /><path
           d="m -555.61,-46.023 v 31.303 c 106.49,4.8958 195.62,79.265 285.41,150.99 l -2.762,-60.764 z"
           clip-path="url(#gq)"
           fill="url(#dr)"
           id="path119"
           style="fill:url(#dr)" /><circle
           cx="-193.09"
           cy="73.356003"
           r="143.87"
           clip-path="url(#gp)"
           fill="url(#eq)"
           id="circle119"
           style="fill:url(#eq)" /><ellipse
           cx="-195.17999"
           cy="562.10999"
           rx="159.13"
           ry="53.042999"
           clip-path="url(#go)"
           fill="url(#ds)"
           opacity="0.196"
           id="ellipse119"
           style="fill:url(#ds)" /><path
           d="m -226.6,-130.24 c 1.1836,15.232 3.9957,33.783 -3.1176,43.097 25.063,12.534 50.125,3.9525 75.188,5.9288 l 6.1,-47.218 -8.8111,25.078 -37.73,4.0666 c -10.545,-10.309 -21.668,-17.724 -31.63,-30.952 z"
           clip-path="url(#gn)"
           fill="#263238"
           id="path120" /><path
           d="m -151.54,-55.13 -48.336,4.283 18.979,28.089 -0.624,0.056 c 1.747,7.9945 4.5186,15.884 2.4477,23.863 0,0 14.18,-6.1023 21.678,-7.7212 8.546,-1.8453 16.902,-4.853 26.138,-2.1784 10.676,1.4552 21.936,4.3927 21.936,4.3927 -5.7868,-8.0695 -10.92,-17.772 -17.744,-23.251 l -1.8124,-0.095 c -3.0003,-9.4467 -13.682,-18.445 -22.663,-27.439 z"
           clip-path="url(#gm)"
           fill="url(#dt)"
           id="path121"
           style="fill:url(#dt)" /><path
           d="m -149.11,-50.936 0.4519,-33.437 c -9.4889,0 -47.896,2.7111 -47.896,2.7111 v 33.889 z"
           clip-path="url(#gl)"
           fill="url(#du)"
           id="path122"
           style="fill:url(#du)" /><path
           d="m -217.04,-56.84 c -23.613,3.6336 -52.356,11.246 -75.6,26.385 -12.691,12.232 -23.026,26.691 -30.49,42.658 42.199,-34.63 62.588,-49.545 117.14,-64.902 z"
           clip-path="url(#gk)"
           fill="url(#dv)"
           id="path123"
           style="fill:url(#dv)" /><path
           d="m -215.49,-109.71 -6.4149,23.344 0.056,27.994 25.88,10.544 -0.3196,-34.187 -1.3677,-0.2945 z"
           clip-path="url(#gj)"
           fill="url(#dw)"
           id="path124"
           style="fill:url(#dw)" /><path
           d="m -224.78,-85.735 31.8,9.302 -24.229,-39.588 z"
           clip-path="url(#gi)"
           fill="url(#dx)"
           id="path125"
           style="fill:url(#dx)" /><path
           d="m -196.48,-78.737 c 10.368,5.4613 45.42,1.1271 60.19,-4.5118 -7.7775,-9.9573 -12.837,-29.996 -11.794,-46.422 0,0 -9.646,18.173 -18.331,22.34 -9.1645,4.3968 -20.866,3.6014 -30.492,0.3355 -12.003,-4.0724 -29.917,-23.47 -29.917,-23.47 7.2192,16.592 18.563,40.564 30.344,51.728 z"
           clip-path="url(#gh)"
           fill="url(#dy)"
           id="path126"
           style="fill:url(#dy)" /><path
           d="m -212.58,-74.838 c 0.2736,0 0.5648,0.041 0.8671,0.1359 l 0.2806,0.088 c 1.612,0.5066 2.9097,2.2747 2.9097,3.9644 v 17.703 l -6.1,-2.4854 v -17.134 c 0,-1.3729 0.8567,-2.2592 2.0426,-2.2715 z"
           clip-path="url(#gg)"
           fill="#f57f17"
           id="path127" /><circle
           cx="-181.86"
           cy="-66.334"
           r="4.4106998"
           clip-path="url(#gf)"
           fill="#f57f17"
           id="circle127" /><circle
           cx="-158.92"
           cy="-66.945999"
           r="4.4106998"
           clip-path="url(#ge)"
           fill="#f57f17"
           id="circle128" /><path
           d="m -613.37,-152.42 a 106.12,106.12 0 0 0 -28.608,5.0224 c 44.847,5.5451 86.104,15.072 87.463,102.82 l 33.874,-4.7391 c -4.8531,-44.694 -19.722,-100.54 -92.728,-103.1 z"
           clip-path="url(#gd)"
           fill="url(#dz)"
           opacity="0.92"
           id="path128"
           style="fill:url(#dz)" /><path
           d="m -1152.1,-212.85 a 54.627,56.794 0 0 0 -5.4487,0.3694 54.627,56.794 0 0 0 -45.23,37.723 45.089,46.877 0 0 0 -13.908,-0.5962 45.089,46.877 0 0 0 -38.611,35.645 31.216,32.454 0 0 0 -2.7931,0.1917 31.216,32.454 0 0 0 -27.418,35.969 31.216,32.454 0 0 0 34.597,28.505 31.216,32.454 0 0 0 20.286,-11.358 45.089,46.877 0 0 0 16.001,4.3436 31.216,32.454 0 0 0 31.17,17.047 31.216,32.454 0 0 0 11.749,-4.009 32.083,33.355 0 0 0 28.407,11.884 32.083,33.355 0 0 0 27.633,-26.072 36.549,37.998 0 0 0 35.734,18.622 36.549,37.998 0 0 0 30.721,-26.602 43.119,44.829 0 0 0 34.057,-49.01 43.119,44.829 0 0 0 -38.192,-39.375 21.678,22.537 0 0 0 -23.341,-16.259 21.678,22.537 0 0 0 -10.592,4.4516 21.126,21.964 0 0 0 -19.324,-8.6733 21.126,21.964 0 0 0 -7.5108,2.4438 54.627,56.794 0 0 0 -37.987,-15.241 z m 57.532,54.163 a 43.119,44.829 0 0 0 -2.1561,4.0682 54.627,56.794 0 0 0 0.027,-3.0956 21.126,21.964 0 0 0 2.1292,-0.9726 z m -25.436,49.136 a 36.549,37.998 0 0 0 -0.1576,1.0004 32.083,33.355 0 0 0 -0.389,-0.582 54.627,56.794 0 0 0 0.5466,-0.4184 z"
           clip-path="url(#gc)"
           fill="#ffffff"
           opacity="0.707"
           id="path129" /><path
           d="m 11.417,-217.67 a 31.82,31.82 0 0 0 -3.1641,-0.3234 31.82,31.82 0 0 0 -29.492,16.462 26.264,26.264 0 0 0 -7.9333,-1.676 26.264,26.264 0 0 0 -25.497,15.955 18.183,18.183 0 0 0 -1.6221,-0.1645 18.183,18.183 0 0 0 -19.098,17.217 18.183,18.183 0 0 0 17.217,19.098 18.183,18.183 0 0 0 12.71,-4.3107 26.264,26.264 0 0 0 8.7862,3.9489 18.183,18.183 0 0 0 16.316,12.436 18.183,18.183 0 0 0 7.1219,-1.0773 18.688,18.688 0 0 0 15.21,9.316 18.688,18.688 0 0 0 18.3,-11.729 21.289,21.289 0 0 0 18.791,13.748 21.289,21.289 0 0 0 20.123,-11.723 25.116,25.116 0 0 0 24.126,-23.78 25.116,25.116 0 0 0 -18.27,-25.451 12.627,12.627 0 0 0 -11.892,-11.242 12.627,12.627 0 0 0 -6.4986,1.4339 12.306,12.306 0 0 0 -10.292,-6.6627 12.306,12.306 0 0 0 -4.5417,0.6229 31.82,31.82 0 0 0 -20.4,-12.098 z m 28.002,35.494 a 25.116,25.116 0 0 0 -1.6173,2.0388 31.82,31.82 0 0 0 0.3037,-1.7076 12.306,12.306 0 0 0 1.3135,-0.3312 z m -19.186,24.684 a 21.289,21.289 0 0 0 -0.1837,0.5375 18.688,18.688 0 0 0 -0.1691,-0.3593 31.82,31.82 0 0 0 0.3528,-0.1782 z"
           clip-path="url(#gb)"
           fill="#ffffff"
           opacity="0.707"
           id="path130" /><path
           d="m -883.54,-362.21 a 120.71,13.571 0 0 0 -78.838,3.3164 80.714,7.8571 0 0 0 -26.877,-0.459 80.714,7.8571 0 0 0 -80.715,7.8574 80.714,7.8571 0 0 0 17.951,4.9356 184.29,14.286 0 0 0 -38.613,4.4199 80,9.2859 0 0 0 -9.3379,-0.07 80,9.2859 0 0 0 -80,9.2851 80,9.2859 0 0 0 3.5136,2.6934 155,4.6429 0 0 0 -82.084,4.0938 155,4.6429 0 0 0 155,4.6425 155,4.6429 0 0 0 20.766,-0.047 172.86,7.8573 0 0 0 -0.053,0.047 172.86,7.8573 0 0 0 172.86,7.8575 172.86,7.8573 0 0 0 108.97,-1.7637 104.29,12.143 0 0 0 53.883,1.7637 104.29,12.143 0 0 0 102.56,-10 52.857,5.0001 0 0 0 0.2989,0 52.857,5.0001 0 0 0 52.857,-5 52.857,5.0001 0 0 0 -52.857,-5 52.857,5.0001 0 0 0 -20.6,0.4003 104.29,12.143 0 0 0 -73.293,-4.6347 184.29,14.286 0 0 0 -30.58,-6.5996 120.71,13.571 0 0 0 5.9004,-4.166 120.71,13.571 0 0 0 -120.71,-13.572 z"
           clip-path="url(#ga)"
           fill="#ffffff"
           opacity="0.707"
           id="path131" /><path
           d="m -1013.2,-302.21 a 60.357,8.5714 0 0 0 -60.357,8.5723 60.357,8.5714 0 0 0 0.3535,0.8437 90.685,4.2304 0 0 0 -68.885,4.1016 90.685,4.2304 0 0 0 0.027,0.025 81.317,2.4998 0 0 0 -10.893,-0.025 81.317,2.4998 0 0 0 -81.318,2.5 81.317,2.4998 0 0 0 43.064,2.2031 41.97,4.9995 0 0 0 -1.8437,1.4492 41.97,4.9995 0 0 0 41.971,5 41.97,4.9995 0 0 0 4.8984,-0.037 96.681,7.6916 0 0 0 88.783,4.6523 96.681,7.6916 0 0 0 96.137,-6.9511 54.711,6.5378 0 0 0 38.451,-2.4942 27.73,2.6921 0 0 0 10.807,0.2149 27.73,2.6921 0 0 0 27.73,-2.6914 27.73,2.6921 0 0 0 -27.73,-2.6934 27.73,2.6921 0 0 0 -0.1562,0 54.711,6.5378 0 0 0 -41.037,-5.1953 60.357,8.5714 0 0 0 0.3515,-0.9043 60.357,8.5714 0 0 0 -60.355,-8.5723 z"
           clip-path="url(#fz)"
           fill="#ffffff"
           opacity="0.707"
           id="path132" /><g
           transform="matrix(0.43547,-0.1784,0.1784,0.43547,-92.436,153.12)"
           clip-path="url(#fy)"
           id="g138"><path
             d="m 2699.5,-325.59 c -10.585,136.21 -35.731,302.1 27.878,385.39 -224.12,112.09 -448.24,35.345 -672.36,53.018 l -54.548,-422.24 78.792,224.25 337.39,36.365 c 94.295,-92.189 193.77,-158.49 282.84,-276.78 z"
             fill="#263238"
             stroke="#000000"
             stroke-width="1px"
             id="path133" /><path
             d="m 2006.5,383.54 -4.0406,-299.01 c 84.853,0 428.3,24.244 428.3,24.244 v 303.05 z"
             fill="#ffeb62"
             stroke="#000000"
             stroke-width="1px"
             id="path134" /><path
             d="m 2428.5,105.59 225.71,-48.571 2.8572,260 -231.43,94.286 z"
             fill="#ffeb62"
             stroke="#000000"
             stroke-width="1px"
             id="path135" /><path
             d="m 2426.8,104.74 165.67,-254.56 60.609,208.09 z"
             fill="#ffeb62"
             stroke="#000000"
             stroke-width="1px"
             id="path136" /><path
             d="m 2430.2,134.94 c -92.714,48.837 -406.16,10.079 -538.24,-40.347 69.55,-89.042 114.79,-268.24 105.46,-415.12 0,0 86.258,162.51 163.92,199.77 81.952,39.318 186.6,32.206 272.67,3.0007 107.33,-36.417 267.53,-209.87 267.53,-209.87 -64.556,148.37 -166,362.74 -271.34,462.57 z"
             fill="#1de9b6"
             stroke="#000000"
             stroke-width="1px"
             id="path137" /><path
             d="m 2574.2,169.8 c -2.4472,-0.0254 -5.0511,0.36545 -7.7539,1.2148 l -2.5098,0.78906 c -14.415,4.5301 -26.02,20.341 -26.02,35.451 v 158.3 l 54.549,-22.225 v -153.22 c 0,-12.277 -7.661,-20.202 -18.266,-20.312 z"
             fill="#f57f17"
             id="path138" /></g><path
           d="m -848.58,59.469 a 31.82,31.82 0 0 0 -3.1641,-0.3234 31.82,31.82 0 0 0 -29.492,16.462 26.264,26.264 0 0 0 -7.9333,-1.676 26.264,26.264 0 0 0 -25.497,15.955 18.183,18.183 0 0 0 -1.6221,-0.1645 18.183,18.183 0 0 0 -19.098,17.217 18.183,18.183 0 0 0 17.217,19.098 18.183,18.183 0 0 0 12.71,-4.3107 26.264,26.264 0 0 0 8.7862,3.9489 18.183,18.183 0 0 0 16.316,12.436 18.183,18.183 0 0 0 7.1219,-1.0773 18.688,18.688 0 0 0 15.21,9.316 18.688,18.688 0 0 0 18.3,-11.729 21.289,21.289 0 0 0 18.791,13.748 21.289,21.289 0 0 0 20.123,-11.723 25.116,25.116 0 0 0 24.126,-23.78 25.116,25.116 0 0 0 -18.27,-25.451 12.627,12.627 0 0 0 -11.892,-11.242 12.627,12.627 0 0 0 -6.4986,1.4339 12.306,12.306 0 0 0 -10.292,-6.6627 12.306,12.306 0 0 0 -4.5417,0.6229 31.82,31.82 0 0 0 -20.4,-12.098 z m 28.002,35.494 a 25.116,25.116 0 0 0 -1.6173,2.0388 31.82,31.82 0 0 0 0.3037,-1.7076 12.306,12.306 0 0 0 1.3135,-0.3312 z m -19.186,24.684 a 21.289,21.289 0 0 0 -0.1837,0.5375 18.688,18.688 0 0 0 -0.1691,-0.3593 31.82,31.82 0 0 0 0.3528,-0.1782 z"
           clip-path="url(#fx)"
           fill="#ffffff"
           opacity="0.707"
           id="path139" /><path
           d="m 23.487,-567.93 a 253.58,45.503 0 0 0 -165.61,11.12 169.55,26.344 0 0 0 -56.459,-1.5389 169.55,26.344 0 0 0 -169.55,26.345 169.55,26.344 0 0 0 37.709,16.548 387.12,47.899 0 0 0 -81.113,14.819 168.05,31.134 0 0 0 -19.616,-0.2347 168.05,31.134 0 0 0 -168.05,31.132 168.05,31.134 0 0 0 7.3809,9.0307 325.6,15.567 0 0 0 -172.43,13.726 325.6,15.567 0 0 0 325.6,15.566 325.6,15.567 0 0 0 43.621,-0.1576 363.11,26.345 0 0 0 -0.1107,0.1576 363.11,26.345 0 0 0 363.11,26.345 363.11,26.345 0 0 0 228.92,-5.9135 219.07,40.714 0 0 0 113.19,5.9135 219.07,40.714 0 0 0 215.44,-33.529 111.03,16.765 0 0 0 0.6277,0 111.03,16.765 0 0 0 111.03,-16.764 111.03,16.765 0 0 0 -111.03,-16.764 111.03,16.765 0 0 0 -43.272,1.3421 219.07,40.714 0 0 0 -153.96,-15.54 387.12,47.899 0 0 0 -64.238,-22.128 253.58,45.503 0 0 0 12.395,-13.968 253.58,45.503 0 0 0 -253.57,-45.506 z"
           clip-path="url(#fw)"
           fill="#ffffff"
           opacity="0.707"
           id="path140" /><path
           d="m 153.6,-330.78 a 120.71,13.571 0 0 0 -78.838,3.3164 80.714,7.8571 0 0 0 -26.877,-0.459 80.714,7.8571 0 0 0 -80.715,7.8574 80.714,7.8571 0 0 0 17.951,4.9356 184.29,14.286 0 0 0 -38.613,4.4199 80,9.2859 0 0 0 -9.3379,-0.07 80,9.2859 0 0 0 -80,9.2851 80,9.2859 0 0 0 3.5137,2.6934 155,4.6429 0 0 0 -82.084,4.0938 155,4.6429 0 0 0 155,4.6425 155,4.6429 0 0 0 20.766,-0.047 172.86,7.8573 0 0 0 -0.053,0.047 172.86,7.8573 0 0 0 172.86,7.8575 172.86,7.8573 0 0 0 108.97,-1.7637 104.29,12.143 0 0 0 53.883,1.7637 104.29,12.143 0 0 0 102.56,-10 52.857,5.0001 0 0 0 0.2988,0 52.857,5.0001 0 0 0 52.857,-5 52.857,5.0001 0 0 0 -52.857,-5 52.857,5.0001 0 0 0 -20.6,0.4003 104.29,12.143 0 0 0 -73.293,-4.6347 184.29,14.286 0 0 0 -30.58,-6.5996 120.71,13.571 0 0 0 5.9004,-4.166 120.71,13.571 0 0 0 -120.71,-13.572 z"
           clip-path="url(#fv)"
           fill="#ffffff"
           opacity="0.707"
           id="path141" /><path
           d="m 218.33,-68.858 a 53.201,53.201 0 0 0 -5.2903,-0.5407 53.201,53.201 0 0 0 -49.31,27.523 43.912,43.912 0 0 0 -13.264,-2.8022 43.912,43.912 0 0 0 -42.63,26.676 30.401,30.401 0 0 0 -2.7122,-0.2751 30.401,30.401 0 0 0 -31.931,28.787 30.401,30.401 0 0 0 28.787,31.931 30.401,30.401 0 0 0 21.25,-7.2073 43.912,43.912 0 0 0 14.69,6.6024 30.401,30.401 0 0 0 27.28,20.792 30.401,30.401 0 0 0 11.908,-1.8012 31.245,31.245 0 0 0 25.43,15.576 31.245,31.245 0 0 0 30.596,-19.61 35.595,35.595 0 0 0 31.417,22.986 35.595,35.595 0 0 0 33.645,-19.6 41.993,41.993 0 0 0 40.338,-39.758 41.993,41.993 0 0 0 -30.546,-42.554 21.112,21.112 0 0 0 -19.884,-18.797 21.112,21.112 0 0 0 -10.866,2.3974 20.574,20.574 0 0 0 -17.207,-11.14 20.574,20.574 0 0 0 -7.5936,1.0415 53.201,53.201 0 0 0 -34.108,-20.228 z m 46.817,59.344 a 41.993,41.993 0 0 0 -2.7039,3.4087 53.201,53.201 0 0 0 0.5077,-2.855 20.574,20.574 0 0 0 2.1962,-0.5537 z m -32.078,41.27 a 35.595,35.595 0 0 0 -0.3071,0.8987 31.245,31.245 0 0 0 -0.2829,-0.6008 53.201,53.201 0 0 0 0.59,-0.2979 z"
           clip-path="url(#fu)"
           fill="#ffffff"
           opacity="0.707"
           id="path142" /><path
           d="m -360.08,-187.65 a 10.855,10.855 0 0 0 -1.0794,-0.1104 10.855,10.855 0 0 0 -10.061,5.6157 8.9596,8.9596 0 0 0 -2.7064,-0.5717 8.9596,8.9596 0 0 0 -8.698,5.4427 6.2028,6.2028 0 0 0 -0.5533,-0.056 6.2028,6.2028 0 0 0 -6.5152,5.8734 6.2028,6.2028 0 0 0 5.8736,6.5152 6.2028,6.2028 0 0 0 4.3357,-1.4706 8.9596,8.9596 0 0 0 2.9973,1.3472 6.2028,6.2028 0 0 0 5.5661,4.2423 6.2028,6.2028 0 0 0 2.4296,-0.3675 6.3751,6.3751 0 0 0 5.1887,3.178 6.3751,6.3751 0 0 0 6.2427,-4.0012 7.2626,7.2626 0 0 0 6.4102,4.6901 7.2626,7.2626 0 0 0 6.8648,-3.9991 8.5682,8.5682 0 0 0 8.2303,-8.1121 8.5682,8.5682 0 0 0 -6.2326,-8.6825 4.3075,4.3075 0 0 0 -4.0569,-3.8352 4.3075,4.3075 0 0 0 -2.217,0.4892 4.1979,4.1979 0 0 0 -3.5108,-2.2729 4.1979,4.1979 0 0 0 -1.5494,0.2125 10.855,10.855 0 0 0 -6.9591,-4.1271 z m 9.5524,12.108 a 8.5682,8.5682 0 0 0 -0.5517,0.6955 10.855,10.855 0 0 0 0.1036,-0.5825 4.1979,4.1979 0 0 0 0.4481,-0.113 z m -6.5451,8.4206 a 7.2626,7.2626 0 0 0 -0.063,0.1833 6.3751,6.3751 0 0 0 -0.058,-0.1226 10.855,10.855 0 0 0 0.1203,-0.061 z"
           clip-path="url(#ft)"
           fill="#ffffff"
           opacity="0.707"
           id="path143" /><ellipse
           cx="-658.03003"
           cy="400.57999"
           rx="81.985001"
           ry="37.43"
           clip-path="url(#fs)"
           fill="url(#ea)"
           opacity="0.202"
           id="ellipse143"
           style="fill:url(#ea)" /><path
           d="m -695.27,-226.52 a 7.3839,7.3839 0 0 0 -0.7342,-0.075 7.3839,7.3839 0 0 0 -6.8438,3.82 6.0946,6.0946 0 0 0 -1.8409,-0.3889 6.0946,6.0946 0 0 0 -5.9166,3.7023 4.2193,4.2193 0 0 0 -0.3764,-0.038 4.2193,4.2193 0 0 0 -4.4318,3.9954 4.2193,4.2193 0 0 0 3.9953,4.4317 4.2193,4.2193 0 0 0 2.9493,-1.0003 6.0946,6.0946 0 0 0 2.0389,0.9164 4.2193,4.2193 0 0 0 3.7862,2.8857 4.2193,4.2193 0 0 0 1.6526,-0.25 4.3365,4.3365 0 0 0 3.5296,2.1618 4.3365,4.3365 0 0 0 4.2465,-2.7217 4.9402,4.9402 0 0 0 4.3604,3.1903 4.9402,4.9402 0 0 0 4.6696,-2.7202 5.8283,5.8283 0 0 0 5.5985,-5.5181 5.8283,5.8283 0 0 0 -4.2396,-5.9061 2.9301,2.9301 0 0 0 -2.7597,-2.6088 2.9301,2.9301 0 0 0 -1.508,0.3327 2.8556,2.8556 0 0 0 -2.3882,-1.5461 2.8556,2.8556 0 0 0 -1.0539,0.1446 7.3839,7.3839 0 0 0 -4.7338,-2.8074 z m 6.4978,8.2364 a 5.8283,5.8283 0 0 0 -0.3753,0.4731 7.3839,7.3839 0 0 0 0.071,-0.3963 2.8556,2.8556 0 0 0 0.3049,-0.077 z m -4.4522,5.7279 a 4.9402,4.9402 0 0 0 -0.043,0.1247 4.3365,4.3365 0 0 0 -0.039,-0.083 7.3839,7.3839 0 0 0 0.082,-0.041 z"
           clip-path="url(#fr)"
           fill="#ffffff"
           opacity="0.707"
           id="path144" /><path
           d="m -719.58,-213.76 a 5.0167,5.0167 0 0 0 -0.4989,-0.051 5.0167,5.0167 0 0 0 -4.6497,2.5954 4.1408,4.1408 0 0 0 -1.2508,-0.2643 4.1408,4.1408 0 0 0 -4.0198,2.5156 2.8667,2.8667 0 0 0 -0.2557,-0.026 2.8667,2.8667 0 0 0 -3.011,2.7146 2.8667,2.8667 0 0 0 2.7145,3.011 2.8667,2.8667 0 0 0 2.0038,-0.6797 4.1408,4.1408 0 0 0 1.3852,0.6226 2.8667,2.8667 0 0 0 2.5724,1.9606 2.8667,2.8667 0 0 0 1.1228,-0.169 2.9463,2.9463 0 0 0 2.398,1.4686 2.9463,2.9463 0 0 0 2.8852,-1.8491 3.3565,3.3565 0 0 0 2.9625,2.1676 3.3565,3.3565 0 0 0 3.1725,-1.8481 3.9598,3.9598 0 0 0 3.8037,-3.7491 3.9598,3.9598 0 0 0 -2.8804,-4.0127 1.9907,1.9907 0 0 0 -1.8749,-1.7724 1.9907,1.9907 0 0 0 -1.0246,0.226 1.9401,1.9401 0 0 0 -1.6226,-1.0505 1.9401,1.9401 0 0 0 -0.716,0.098 5.0167,5.0167 0 0 0 -3.2162,-1.9074 z m 4.4147,5.5961 a 3.9598,3.9598 0 0 0 -0.255,0.3214 5.0167,5.0167 0 0 0 0.048,-0.2694 1.9401,1.9401 0 0 0 0.2072,-0.051 z m -3.0249,3.8916 a 3.3565,3.3565 0 0 0 -0.029,0.086 2.9463,2.9463 0 0 0 -0.027,-0.056 5.0167,5.0167 0 0 0 0.056,-0.028 z"
           clip-path="url(#fq)"
           fill="#ffffff"
           opacity="0.707"
           id="path145" /><ellipse
           cx="-849.56"
           cy="418.35001"
           rx="38.414001"
           ry="12.805"
           clip-path="url(#fo)"
           fill="url(#eb)"
           opacity="0.307"
           id="ellipse171"
           style="fill:url(#eb)" /><path
           d="m -499.48,9.8309 a 10.855,10.855 0 0 0 -1.0794,-0.1104 10.855,10.855 0 0 0 -10.061,5.6157 8.9596,8.9596 0 0 0 -2.7064,-0.5717 8.9596,8.9596 0 0 0 -8.6979,5.4427 6.2028,6.2028 0 0 0 -0.5534,-0.056 6.2028,6.2028 0 0 0 -6.5151,5.8734 6.2028,6.2028 0 0 0 5.8735,6.5152 6.2028,6.2028 0 0 0 4.3358,-1.4706 8.9596,8.9596 0 0 0 2.9973,1.3472 6.2028,6.2028 0 0 0 5.566,4.2423 6.2028,6.2028 0 0 0 2.4296,-0.3675 6.3751,6.3751 0 0 0 5.1887,3.178 6.3751,6.3751 0 0 0 6.2428,-4.0012 7.2626,7.2626 0 0 0 6.4102,4.6901 7.2626,7.2626 0 0 0 6.8647,-3.9991 8.5682,8.5682 0 0 0 8.2303,-8.1121 8.5682,8.5682 0 0 0 -6.2325,-8.6825 4.3075,4.3075 0 0 0 -4.057,-3.8352 4.3075,4.3075 0 0 0 -2.2169,0.4892 4.1979,4.1979 0 0 0 -3.5109,-2.2729 4.1979,4.1979 0 0 0 -1.5493,0.2125 10.855,10.855 0 0 0 -6.9592,-4.1271 z m 9.5524,12.108 a 8.5682,8.5682 0 0 0 -0.5517,0.6955 10.855,10.855 0 0 0 0.1036,-0.5825 4.1979,4.1979 0 0 0 0.4481,-0.113 z m -6.5451,8.4206 a 7.2626,7.2626 0 0 0 -0.063,0.1833 6.3751,6.3751 0 0 0 -0.058,-0.1226 10.855,10.855 0 0 0 0.1204,-0.061 z"
           clip-path="url(#fn)"
           fill="#ffffff"
           opacity="0.707"
           id="path171" /><path
           d="m -603.45,-1.2169 a 16.435,16.435 0 0 0 -1.6342,-0.1672 16.435,16.435 0 0 0 -15.232,8.5023 13.565,13.565 0 0 0 -4.0975,-0.8656 13.565,13.565 0 0 0 -13.169,8.2403 9.3912,9.3912 0 0 0 -0.8378,-0.085 9.3912,9.3912 0 0 0 -9.8641,8.8924 9.3912,9.3912 0 0 0 8.8926,9.8641 9.3912,9.3912 0 0 0 6.5645,-2.2265 13.565,13.565 0 0 0 4.5379,2.0397 9.3912,9.3912 0 0 0 8.4271,6.4229 9.3912,9.3912 0 0 0 3.6784,-0.5564 9.6521,9.6521 0 0 0 7.8558,4.8115 9.6521,9.6521 0 0 0 9.4516,-6.0579 10.996,10.996 0 0 0 9.7052,7.1009 10.996,10.996 0 0 0 10.393,-6.0547 12.972,12.972 0 0 0 12.461,-12.282 12.972,12.972 0 0 0 -9.4361,-13.146 6.5217,6.5217 0 0 0 -6.1423,-5.8065 6.5217,6.5217 0 0 0 -3.3565,0.7406 6.3557,6.3557 0 0 0 -5.3155,-3.4412 6.3557,6.3557 0 0 0 -2.3457,0.3218 16.435,16.435 0 0 0 -10.536,-6.2485 z m 14.462,18.332 a 12.972,12.972 0 0 0 -0.8353,1.053 16.435,16.435 0 0 0 0.1568,-0.8819 6.3557,6.3557 0 0 0 0.6785,-0.1711 z m -9.9094,12.749 a 10.996,10.996 0 0 0 -0.095,0.2775 9.6521,9.6521 0 0 0 -0.087,-0.1856 16.435,16.435 0 0 0 0.1822,-0.092 z"
           clip-path="url(#fm)"
           fill="#ffffff"
           opacity="0.707"
           id="path172" /><path
           d="m -94.869,77.564 a 34.762,34.762 0 0 0 -3.4566,-0.3536 34.762,34.762 0 0 0 -32.219,17.984 28.692,28.692 0 0 0 -8.6668,-1.8309 28.692,28.692 0 0 0 -27.854,17.429 19.864,19.864 0 0 0 -1.7721,-0.1798 19.864,19.864 0 0 0 -20.864,18.809 19.864,19.864 0 0 0 18.809,20.864 19.864,19.864 0 0 0 13.885,-4.7093 28.692,28.692 0 0 0 9.5984,4.3142 19.864,19.864 0 0 0 17.825,13.586 19.864,19.864 0 0 0 7.7803,-1.1769 20.416,20.416 0 0 0 16.616,10.177 20.416,20.416 0 0 0 19.992,-12.813 23.258,23.258 0 0 0 20.528,15.019 23.258,23.258 0 0 0 21.983,-12.807 27.438,27.438 0 0 0 26.357,-25.978 27.438,27.438 0 0 0 -19.959,-27.805 13.794,13.794 0 0 0 -12.992,-12.282 13.794,13.794 0 0 0 -7.0995,1.5665 13.443,13.443 0 0 0 -11.243,-7.2787 13.443,13.443 0 0 0 -4.9616,0.6806 34.762,34.762 0 0 0 -22.286,-13.216 z m 30.59,38.775 a 27.438,27.438 0 0 0 -1.7667,2.2273 34.762,34.762 0 0 0 0.3317,-1.8654 13.443,13.443 0 0 0 1.435,-0.3619 z m -20.96,26.966 a 23.258,23.258 0 0 0 -0.2006,0.587 20.416,20.416 0 0 0 -0.1848,-0.3926 34.762,34.762 0 0 0 0.3855,-0.1946 z"
           clip-path="url(#fl)"
           fill="#ffffff"
           id="path173" /><path
           d="m -626.98,-309.15 a 27.747,27.747 0 0 1 2.7591,-0.2819 27.747,27.747 0 0 1 25.717,14.355 22.902,22.902 0 0 1 6.9179,-1.4614 22.902,22.902 0 0 1 22.233,13.912 15.855,15.855 0 0 1 1.4146,-0.1428 15.855,15.855 0 0 1 16.654,15.014 15.855,15.855 0 0 1 -15.014,16.653 15.855,15.855 0 0 1 -11.083,-3.7589 22.902,22.902 0 0 1 -7.6616,3.4436 15.855,15.855 0 0 1 -14.228,10.844 15.855,15.855 0 0 1 -6.2103,-0.9395 16.296,16.296 0 0 1 -13.263,8.1236 16.296,16.296 0 0 1 -15.957,-10.228 18.564,18.564 0 0 1 -16.386,11.988 18.564,18.564 0 0 1 -17.547,-10.222 21.902,21.902 0 0 1 -21.038,-20.736 21.902,21.902 0 0 1 15.931,-22.194 11.011,11.011 0 0 1 10.37,-9.8033 11.011,11.011 0 0 1 5.6668,1.2502 10.731,10.731 0 0 1 8.9743,-5.8099 10.731,10.731 0 0 1 3.9604,0.5434 27.747,27.747 0 0 1 17.789,-10.55 z m -24.418,30.951 a 21.902,21.902 0 0 1 1.4102,1.7778 27.747,27.747 0 0 1 -0.2649,-1.4892 10.731,10.731 0 0 1 -1.1454,-0.2893 z m 16.73,21.524 a 18.564,18.564 0 0 1 0.16,0.4686 16.296,16.296 0 0 1 0.1477,-0.3119 27.747,27.747 0 0 1 -0.3077,-0.154 z"
           clip-path="url(#fk)"
           fill="#ffffff"
           opacity="0.707"
           id="path174" /></g></g><g
       inkscape:groupmode="layer"
       id="layer3"
       inkscape:label="islands"><g
   id="g36"
   transform="matrix(0.15845528,0,0,0.18096729,252.50648,34.624141)"
   inkscape:label="montgolfiere">
	<path
   fill="#ffef00"
   d="m 666.61,124.227 c 0,0 21.75,4.047 22.256,-11.127 V 87.811 c 0,0 0.506,-4.552 -4.047,-3.541 0,0 -10.621,0.506 -11.633,19.22 l -7.082,1.012 z"
   id="path31" />
	
		<line
   fill="none"
   stroke="#d67823"
   stroke-width="3.0347"
   stroke-linecap="round"
   stroke-linejoin="round"
   stroke-miterlimit="10"
   x1="618.98297"
   y1="137.377"
   x2="619.06702"
   y2="147.493"
   id="line31" />
	
		<line
   fill="none"
   stroke="#d67823"
   stroke-width="3.0347"
   stroke-linecap="round"
   stroke-linejoin="round"
   stroke-miterlimit="10"
   x1="638.20203"
   y1="136.366"
   x2="638.28601"
   y2="146.481"
   id="line32" />
	<path
   fill="#ef69a1"
   d="m 674.366,109.391 c 0,22.116 -20.531,31.358 -45.857,31.358 -25.326,0 -45.857,-10.552 -45.857,-31.358 -0.002,-20.796 20.531,-31.359 45.857,-31.359 25.326,0 45.857,10.563 45.857,31.359 z"
   id="path32" />
	<path
   fill="#dda6cc"
   d="m 650.427,111.582 c 0,19.352 -6.07,23.772 -11.664,28.727 -2.984,0.296 -6.076,0.44 -9.242,0.44 -3.604,0 -7.111,-0.213 -10.477,-0.641 -7.059,-3.743 -12.621,-10.824 -13.127,-28.526 -0.463,-16.187 3.541,-27.312 12.648,-32.848 3.512,-0.468 7.18,-0.703 10.955,-0.703 2.986,0 5.908,0.146 8.736,0.44 11.665,8.328 12.171,16.926 12.171,33.111 z"
   id="path33" />
	<path
   fill="#ffef00"
   d="m 640.493,145.723 h -23.68 c 0,0 -2.037,0.185 -2.037,1.666 0,0 0,2.406 1.852,2.591 0,0 1.85,0.185 2.221,2.96 0,0 -1.48,7.957 8.881,7.957 h 1.846 c 10.361,0 8.881,-7.957 8.881,-7.957 0.371,-2.776 2.221,-2.96 2.221,-2.96 1.85,-0.185 1.85,-2.591 1.85,-2.591 -0.002,-1.481 -2.035,-1.666 -2.035,-1.666 z"
   id="path34" />
	<ellipse
   fill="#ffef00"
   cx="579.36298"
   cy="111.582"
   rx="3.7609999"
   ry="5.0580001"
   id="ellipse34" />
	<ellipse
   fill="#ffef00"
   cx="579.10999"
   cy="101.72"
   rx="3.5409999"
   ry="9.3559999"
   id="ellipse35" />
	<ellipse
   fill="#ffef00"
   cx="579.61603"
   cy="121.445"
   rx="3.5409999"
   ry="9.3570004"
   id="ellipse36" />
</g><g
   id="g43"
   transform="matrix(0.26458333,0,0,0.26458333,50.39302,172.04429)"
   inkscape:label="cuicui">
	<polyline
   fill="#f7961d"
   points="431.634,122.423 434.214,124.081 431.819,125.923  "
   id="polyline41" />
	<path
   fill="#6265ac"
   d="m 406.424,125.511 c 1.076,5.939 6.718,11.343 12.991,11.343 5.223,0 9.746,-3.346 11.951,-8.228 0,0 2.848,-10.993 -5.627,-10.993 -5.711,0 -7.186,5.159 -7.186,5.159 0,0 -2.394,5.71 -12.129,2.719 z"
   id="path42" />
	<path
   fill="#6265ac"
   d="m 422.792,127.397 -7.369,-8.659 c 0,0 -1.475,-1.658 -3.133,0.552 -1.658,2.211 -1.475,7.922 4.422,10.686"
   id="path43" />
</g>
    <g
   id="ileville"
   transform="matrix(0.94683397,0,0,0.94683397,312.15315,-42.417581)"
   inkscape:label="ileville">
        
        <animateMotion
   id="ilevilleAnim"
   path="m 0,0 c 4.928052,0.77329 10.886648,-1.98841 5.115901,-2.45311 -5.908955,-0.47583 -10.507567,0.45284 -8.059589,-1.22209 2.447977,-1.67493 8.601936,-1.654 8.55932,-2.42588 -0.03375,-0.61134 3.051484,-5.49953 -6.569316,-0.20431 -2.730052,1.5026 11.667133,0.56873 9.60568,1.59946 -2.061456,1.03073 -15.052974,3.70153 -8.651996,4.70593 z"
   begin="ileville.dblclick"
   dur="40s"
   animation-timing-function="ease-in-out"
   repeatCount="indefinite" />         
        
        
        <path
   fill="#d67823"
   d="m 109.83431,128.99369 c 0,0 1.80631,17.55113 7.87215,17.55113 2.45189,0 1.54543,-1.16125 4.0005,-1.16125 1.29064,0 1.93569,2.83898 1.93569,2.83898 0,0 1.93543,13.55037 8.00074,13.55037 6.06583,0 6.32354,-9.29164 6.32354,-9.29164 0,0 0.25823,-3.48509 3.48456,-2.45216 3.22606,1.03188 6.06557,-0.51567 7.87188,-3.74253 1.80684,-3.22633 4.38785,-0.5162 4.38785,-0.5162 0,0 1.80684,3.22606 5.80734,3.22606 4.90379,0 7.35595,-9.67872 8.001,-17.29316 2.7e-4,2.6e-4 -23.22856,-11.61389 -57.68525,-2.7096 z"
   id="path9"
   style="stroke-width:0.264583" /><path
   fill="#00a989"
   d="m 171.86693,131.77552 c -0.9181,-3.39276 -4.90881,-2.7948 -4.98845,-2.78263 -3.58855,-3.62823 -14.52034,-6.6077 -27.55847,-7.15433 -12.55422,-0.52599 -23.35213,1.3589 -27.59975,4.45849 -1.02579,-0.38708 -3.24458,-0.96229 -4.91702,0.46673 0,0 1.64254,0.3265 1.81875,1.6727 0,0 -1.61872,0.59187 -1.52135,2.30928 0,0 2.02379,-0.41275 3.20093,-0.0905 1.90235,2.63631 8.92122,4.95406 16.54836,4.92839 -1.02526,0.24633 -2.79823,0.89827 -3.04853,2.49688 0,0 1.9939,-0.53181 2.27118,-0.0463 0,0 -1.05119,0.90514 -0.49053,2.17117 0,0 1.33561,-1.44436 7.0223,-1.6473 1.93411,0.20135 3.93727,0.35084 5.99678,0.43736 13.6316,0.5715 25.19125,-1.70022 28.54484,-5.28294 1.51289,0.0199 2.80644,0.89641 2.80644,0.89641 0.56488,-1.65709 -0.70141,-2.75167 -0.70141,-2.75167 0.28707,-0.63976 2.61593,-0.0817 2.61593,-0.0817 z"
   id="path10-5"
   style="stroke-width:0.264583" /><g
   id="g57"
   transform="matrix(0.26458333,0,0,0.26458333,93.02983,12.793981)">
	<rect
   x="144.02"
   y="357.004"
   fill="#6265ac"
   width="32.817001"
   height="71.888"
   id="rect53" />
	<g
   id="g56">
		<rect
   x="148.705"
   y="362.21301"
   fill="#dda6cc"
   width="9.2799997"
   height="12.699"
   id="rect54" />
		<rect
   x="148.675"
   y="377.28601"
   fill="#dda6cc"
   width="9.2799997"
   height="12.699"
   id="rect55" />
		<rect
   x="148.675"
   y="392.35999"
   fill="#dda6cc"
   width="9.2799997"
   height="12.698"
   id="rect56" />
	</g>
</g><g
   id="g61"
   transform="matrix(0.26458333,0,0,0.26458333,93.02983,12.793981)">
	<rect
   x="111.592"
   y="387.478"
   fill="#6265ac"
   width="32.818001"
   height="41.414001"
   id="rect57" />
	<g
   id="g60">
		<rect
   x="115.691"
   y="391.905"
   fill="#dda6cc"
   width="9.2810001"
   height="12.699"
   id="rect58" />
		<rect
   x="115.661"
   y="406.979"
   fill="#dda6cc"
   width="9.2799997"
   height="12.699"
   id="rect59" />
		<rect
   x="126.991"
   y="391.97"
   fill="#dda6cc"
   width="9.2799997"
   height="12.698"
   id="rect60-1" />
	</g>
</g><g
   id="g64"
   transform="matrix(0.26458333,0,0,0.26458333,93.02983,12.793981)">
	<rect
   x="187.254"
   y="362.73401"
   fill="#6265ac"
   width="32.818001"
   height="71.888"
   id="rect61-4" />
	<g
   id="g63">
		<rect
   x="191.94"
   y="367.94501"
   fill="#dda6cc"
   width="9.2799997"
   height="12.698"
   id="rect62-2" />
		<rect
   x="191.91"
   y="383.01901"
   fill="#dda6cc"
   width="9.2799997"
   height="12.697"
   id="rect63-3" />
	</g>
</g><g
   id="g67"
   transform="matrix(0.26458333,0,0,0.26458333,93.02983,12.793981)">
	<rect
   x="206.91901"
   y="401.54401"
   fill="#6265ac"
   width="32.818001"
   height="41.414001"
   id="rect64-2" />
	<g
   id="g66">
		<rect
   x="211.02"
   y="405.97198"
   fill="#dda6cc"
   width="9.2799997"
   height="12.699"
   id="rect65-2" />
		<rect
   x="222.31799"
   y="406.03601"
   fill="#dda6cc"
   width="9.2810001"
   height="12.698"
   id="rect66-1" />
	</g>
</g><g
   id="g68"
   transform="matrix(0.26458333,0,0,0.26458333,93.02983,12.793981)">
	<path
   fill="#b6d333"
   d="m 222.134,432.155 c 0,0 0.978,-8.001 7.756,-8.082 h 10.21 c 0,0 8.001,0.979 8.001,8 v 9.476 c 0,0 -0.896,7.919 -8.001,7.919 h -10.21 c 0,0 -7.756,-0.814 -7.756,-8 z"
   id="path67" />
	<path
   fill="#00a989"
   d="m 225.722,436.668 c 0,0 3.065,-4.545 6.976,-1.058 0,0 0.105,-4.122 4.967,-3.909 0,0 -3.171,-3.593 -6.13,0.422 -0.001,0 -5.39,-1.162 -5.813,4.545 z"
   id="path68" />
</g><g
   id="g71"
   transform="matrix(0.26458333,0,0,0.26458333,93.02983,12.793981)">
	<path
   fill="#b6d333"
   d="m 133.838,425.959 c 0,0 1.34,-10.954 10.62,-11.065 h 13.979 c 0,0 10.955,1.338 10.955,10.954 v 12.974 c 0,0 -1.227,10.844 -10.955,10.844 h -13.979 c 0,0 -10.62,-1.115 -10.62,-10.955 z"
   id="path69" />
	<path
   fill="#00a989"
   d="m 138.035,424.014 c 0,0 7.368,-1.432 7.777,5.73 0,0 4.093,-3.889 8.595,1.022 0,0 0.408,-6.547 -6.345,-5.524 10e-4,0 -4.091,-6.343 -10.027,-1.228 z"
   id="path70" />
	<path
   fill="#00a989"
   d="m 149.188,441.961 c 0,0 4.197,-6.222 9.551,-1.446 0,0 0.145,-5.645 6.8,-5.354 0,0 -4.341,-4.92 -8.392,0.579 -0.001,-0.001 -7.38,-1.593 -7.959,6.221 z"
   id="path71" />
</g></g>
    <g
   id="ilecollines"
   transform="matrix(1.1845384,0,0,1.1845384,213.83988,144.23351)"
   inkscape:label="ilecollines">

<animateMotion
   id="ilecollinesAnim"
   path="m 0,0 c 0,0 1.82208,-10.5681 -23.3227,-9.47484 -25.144782,1.09325 -26.119457,2.12631 -29.153371,2.91533 -9.808736,2.55092 25.430551,8.74602 30.975461,12.02577 8.95066,5.29422 -30.235342,17.39795 -35.348467,6.55951 -5.886054,-12.47683 104.840657,-27.90109 31.704287,-26.60246 -13.725817,2.12937 4.13271,15.88994 25.14479,14.57669 z"
   begin="ilecollines.dblclick"
   dur="90s"
   animation-timing-function="ease-in-out"
   repeatCount="indefinite" />
            
        
        
        <g
   id="g31"
   transform="matrix(0.26458333,0,0,0.26458333,93.02983,12.793981)">
	<path
   fill="#dda6cc"
   d="m 495.856,171.539 3.127,-53.134 c 0,0 0.391,-30.865 21.486,-30.865 21.098,0 21.488,31.255 21.488,31.255 l 5.08,52.743"
   id="path27" />
	<g
   id="g30">
		<path
   fill="#ffffff"
   d="m 523.206,134.814 c -7.388,0 -9.556,-17.503 -9.768,-24.248 -0.014,-0.418 -0.354,-0.752 -0.772,-0.757 -0.003,0 -0.006,0 -0.009,0 -0.415,0 -0.758,0.324 -0.78,0.739 -0.011,0.207 -1.229,20.2 -12.847,21.107 l 0.733,-13.208 c 0.005,-0.334 0.629,-30.127 20.706,-30.127 20.094,0 20.703,30.179 20.707,30.484 l 0.27,2.446 c -2.029,-0.731 -6.508,-3.178 -8.499,-10.856 -0.091,-0.349 -0.405,-0.585 -0.756,-0.585 -0.037,0 -0.074,0.002 -0.112,0.008 -0.394,0.057 -0.682,0.4 -0.67,0.798 0.006,0.172 0.475,17.24 -4.773,22.653 -1.008,1.041 -2.13,1.546 -3.43,1.546 z"
   id="path28" />
		<g
   id="g29">
			<path
   fill="#5ccaef"
   d="m 520.47,89.104 c 7.995,0 13.769,4.884 17.158,14.517 2.635,7.485 2.767,15.119 2.768,15.196 0.001,0.05 0.004,0.102 0.01,0.152 l 0.112,1.012 c -2.104,-1.121 -5.251,-3.752 -6.814,-9.781 -0.181,-0.697 -0.81,-1.17 -1.512,-1.17 -0.073,0 -0.148,0.005 -0.223,0.016 -0.788,0.113 -1.365,0.8 -1.34,1.596 0.146,4.685 -0.386,17.784 -4.554,22.084 -0.854,0.88 -1.792,1.309 -2.869,1.309 -6.729,0 -8.794,-17.397 -8.987,-23.491 -0.026,-0.836 -0.707,-1.503 -1.544,-1.513 -0.006,0 -0.012,0 -0.018,0 -0.829,0 -1.515,0.648 -1.561,1.478 -0.011,0.194 -1.13,18.443 -11.234,20.256 l 0.682,-12.271 c 0.001,-0.022 0.002,-0.044 0.002,-0.066 0.001,-0.075 0.134,-7.609 2.766,-14.996 3.388,-9.508 9.161,-14.328 17.158,-14.328 m 0,-1.563 c -21.096,0 -21.486,30.865 -21.486,30.865 l -0.781,14.065 c 13.283,0 14.455,-21.879 14.455,-21.879 0,0 0.781,25.004 10.549,25.004 9.768,0 8.984,-25.004 8.984,-25.004 2.736,10.549 10.158,11.721 10.158,11.721 l -0.391,-3.516 c 0,-10e-4 -0.391,-31.256 -21.488,-31.256 z"
   id="path29" />
		</g>
	</g>
</g><path
   fill="none"
   stroke="#5ccaef"
   stroke-width="0.413491"
   stroke-linecap="round"
   stroke-linejoin="round"
   stroke-miterlimit="10"
   d="M 229.5834,46.740816"
   id="path41" /><g
   id="g77"
   transform="matrix(0.26458333,0,0,0.26458333,93.02983,12.793981)">
	<path
   fill="#d67823"
   d="m 397.192,201.962 c 0,0 6.771,68.138 32.164,68.138 16.93,0 14.391,-7.196 21.584,-7.617 4.65,-0.274 5.926,10.58 5.926,10.58 0,0 5.078,50.787 27.932,50.787 22.855,0 24.549,-44.015 24.549,-44.015 0,0 2.539,-16.083 12.697,-16.083 3.809,0 9.309,2.117 9.309,2.117 0,0 21.848,11.684 35.553,-10.581 3.385,-5.502 17.352,-8.463 17.352,-8.463 0,0 16.506,1.69 24.547,-39.784 -10e-4,-0.001 -100.306,-65.6 -211.613,-5.079 z"
   id="path72" />
	<path
   fill="#00a989"
   d="m 624.53,207.531 c -0.244,-10.278 -11.734,-12.614 -15.182,-13.083 -5.252,-16.089 -51.328,-28.671 -107.408,-28.671 -48.725,0 -89.891,9.499 -103.301,22.541 -3.386,-0.838 -14.911,-2.907 -18.936,6.544 0,0 9.868,-0.216 10.472,2.612 0,0 -6.06,3.307 -5.229,10.474 0,0 8.701,-3.135 13.135,-1.81 12.775,13.339 54.418,23.121 103.859,23.121 42.494,0 79.234,-7.225 96.834,-17.726 0,0 7.014,-2.377 16.045,6.217 3.664,-4.68 -0.984,-11.665 -0.984,-11.665 1.605,-2.404 10.695,1.446 10.695,1.446 z"
   id="path73" />
	
		<path
   fill="#00a989"
   stroke="#267b8a"
   stroke-width="2.2793"
   stroke-linecap="round"
   stroke-linejoin="round"
   stroke-miterlimit="10"
   d="m 423.323,185.313 c 0,0 9.547,-40.422 44.078,-40.422 34.533,0 43.674,40.829 43.674,40.829"
   id="path74" />
	
		<path
   fill="#00a989"
   stroke="#267b8a"
   stroke-width="2.2793"
   stroke-linecap="round"
   stroke-linejoin="round"
   stroke-miterlimit="10"
   d="m 470.048,191.105 c 0,0 10.541,-31.027 48.66,-31.027 38.119,0 48.209,31.34 48.209,31.34"
   id="path75" />
	
		<path
   fill="#00a989"
   stroke="#267b8a"
   stroke-width="2.2793"
   stroke-linecap="round"
   stroke-linejoin="round"
   stroke-miterlimit="10"
   d="m 551.532,191.417 c 0,0 -2.279,-7.978 -7.977,-8.547 0,0 9.117,-3.419 14.244,2.279 0,0 0.57,-10.827 11.967,-10.257 0,0 -2.279,5.128 -1.709,8.547 0,0 6.268,-3.988 10.826,0.57 0,0 -7.408,3.988 -6.268,7.978"
   id="path76" />
	
		<path
   fill="#00a989"
   stroke="#267b8a"
   stroke-width="2.2793"
   stroke-linecap="round"
   stroke-linejoin="round"
   stroke-miterlimit="10"
   d="m 483.13,191.417 c 0,0 1.139,-14.245 -11.967,-15.955 0,0 2.85,8.547 0,9.687 0,0 -5.129,-4.559 -12.537,-2.279 0,0 5.129,5.128 3.99,9.117"
   id="path77" />
</g></g><g
   id="ilecascade"
   transform="matrix(0.64742875,0,0,0.64742875,-75.858867,100.18942)"
   inkscape:label="ilecascade">
    
    <animateMotion
   id="ileCascadeAnim"
   path="m 0,0 c 4.928052,0.77329 10.886648,-1.98841 5.115901,-2.45311 -5.908955,-0.47583 -10.507567,0.45284 -8.059589,-1.22209 2.447977,-1.67493 8.601936,-1.654 8.55932,-2.42588 -0.03375,-0.61134 3.051484,-5.49953 -6.569316,-0.20431 -2.730052,1.5026 11.667133,0.56873 9.60568,1.59946 -2.061456,1.03073 -15.052974,3.70153 -8.651996,4.70593 z"
   begin="ilecascade.dblclick"
   dur="45s"
   repeatCount="indefinite" />
    
    <path
   fill="#d67823"
   d="m 183.1903,136.32132 c 0,0 1.84389,32.57365 10.8167,32.57365 6.26877,0 8.97308,-11.18579 8.97308,-11.18579 0,0 1.72138,-4.30186 6.0235,-1.47505 4.30213,2.82787 14.24834,4.92416 20.4044,-2.82681 3.31867,-4.17962 5.53085,0.86069 5.53085,0.86069 0,0 2.21271,7.62053 8.60425,7.62053 8.11425,0 11.30883,-29.25471 11.30883,-29.25471 0,0 -35.89259,-5.65389 -71.66161,3.68749 z"
   id="path1"
   style="stroke-width:0.264583" /><path
   fill="#00a989"
   d="m 260.57034,132.81903 c -0.74559,-2.95222 -4.5847,-2.86517 -5.59593,-2.7895 -3.20966,-2.85194 -11.79195,-4.894 -21.87919,-4.894 -9.76736,0 -18.12079,1.91453 -21.55587,4.62518 -1.72244,-0.12938 -3.51658,-0.20028 -5.36337,-0.20028 -9.68084,0 -17.97553,1.88065 -21.46617,4.55347 -1.32901,-0.41301 -3.84625,-0.81624 -6.06769,0.9779 0,0 2.58154,0.49186 3.07287,1.72138 0,0 -1.96665,0.2458 -2.21245,2.82708 0,0 2.06375,-1.09776 4.1492,-0.89482 2.54158,3.19801 11.66098,5.56524 22.52424,5.56524 9.76683,0 18.12025,-1.91426 21.55587,-4.62465 1.72244,0.12885 3.51605,0.19976 5.36337,0.19976 9.63083,0 17.89245,-1.86055 21.41379,-4.51115 2.0066,-0.23759 3.96927,0.96388 3.96927,0.96388 0.56013,-2.01877 -1.03002,-3.23956 -1.03002,-3.23956 0.29951,-0.78422 3.12208,-0.27993 3.12208,-0.27993 z"
   id="path2-0"
   style="stroke-width:0.264583" /><g
   id="g6"
   transform="matrix(0.26458333,0,0,0.26458333,93.02983,12.793981)">
	<ellipse
   fill="#5ccaef"
   cx="532.39899"
   cy="450.87201"
   rx="43.367001"
   ry="15.77"
   id="ellipse4" />
	<path
   fill="#00adef"
   d="m 501.351,446.517 c 0,0 7.672,1.23 10.803,-4.8 0,0 3.584,5.729 10.547,4.745 0,0 -3.813,4.988 -10.48,0.366 -10e-4,0 -4.171,4.277 -10.87,-0.311 z"
   id="path5-8" />
	<path
   fill="#00adef"
   d="m 537.563,454.11 c 0,0 7.67,1.229 10.801,-4.801 0,0 3.584,5.73 10.549,4.746 0,0 -3.814,4.987 -10.48,0.364 0,0.001 -4.172,4.279 -10.87,-0.309 z"
   id="path6-8" />
</g><path
   fill="#d67823"
   d="m 234.22446,100.20358 c 0,0 1.27741,12.40896 5.56551,12.40896 1.73381,0 1.09299,-0.82127 2.82866,-0.82127 0.91255,0 1.36843,2.0074 1.36843,2.0074 0,0 1.36842,9.5803 5.65705,9.5803 4.2881,0 4.47093,-6.56934 4.47093,-6.56934 0,0 0.1823,-2.46407 2.46354,-1.73382 2.28097,0.72972 4.2881,-0.36459 5.56551,-2.64583 1.2774,-2.28124 3.10224,-0.36513 3.10224,-0.36513 0,0 1.2774,2.28098 4.1058,2.28098 3.46736,0 5.20065,-6.84292 5.65706,-12.2264 0,2.6e-4 -16.42322,-8.211344 -40.78473,-1.91585 z"
   id="path7-2"
   style="stroke-width:0.264583" /><path
   fill="#00a989"
   d="m 278.08285,102.17076 c -0.64902,-2.398713 -3.47107,-1.97617 -3.52742,-1.96744 -2.53683,-2.565138 -10.2661,-4.671486 -19.48419,-5.058042 -8.87597,-0.372004 -16.51,0.960702 -19.51302,3.151981 -0.72601,-0.273579 -2.29393,-0.680508 -3.47689,0.329936 0,0 1.16126,0.230716 1.28614,1.182687 0,0 -1.14458,0.418568 -1.07579,1.632478 0,0 1.43086,-0.29183 2.26298,-0.064 1.34514,1.86426 6.30714,3.50282 11.70014,3.48456 -0.72496,0.17436 -1.97882,0.63527 -2.15583,1.76557 0,0 1.41023,-0.37597 1.60602,-0.0328 0,0 -0.74321,0.64003 -0.34686,1.53511 0,0 0.94403,-1.02102 4.96517,-1.16443 1.36736,0.14235 2.78341,0.24818 4.23942,0.30904 9.63771,0.40428 17.81069,-1.20174 20.18162,-3.7346 1.06971,0.0138 1.98384,0.63341 1.98384,0.63341 0.40005,-1.17131 -0.49556,-1.94548 -0.49556,-1.94548 0.20373,-0.45243 1.85023,-0.0579 1.85023,-0.0579 z"
   id="path8-4"
   style="stroke-width:0.264583" /><g
   id="g49"
   transform="matrix(0.26458333,0,0,0.26458333,93.02983,12.793981)">
	<path
   fill="#ffef00"
   d="m 383.373,469.286 2.991,-50.839 c 0,0 0.374,-29.532 20.561,-29.532 20.186,0 20.561,29.906 20.561,29.906 l 4.859,50.465 c 0,0 -22.149,16.563 -48.972,0 z"
   id="path44" />
	<g
   id="g48">
		<path
   fill="#fcc20e"
   d="m 412.45,414.798 -1.984,-30.638 c 0,0 1.191,-4.616 6.354,-2.099 0,0 15.086,10.493 1.982,33.156 z"
   id="path45" />
		<path
   fill="#fcc20e"
   d="m 420.995,412.985 1.986,30.638 c 0,0 -1.193,4.616 -6.354,2.099 0,0 -15.088,-10.491 -1.984,-33.156 z"
   id="path46" />
		<path
   fill="#fcc20e"
   d="m 415.481,418.358 -30.639,1.985 c 0,0 -4.616,-1.19 -2.099,-6.352 0,0 10.492,-15.087 33.157,-1.985 z"
   id="path47" />
		<path
   fill="#fcc20e"
   d="m 415.923,410.036 24.143,-1.815 c 0,0 3.637,1.09 1.652,5.809 0,0 -8.268,13.794 -26.127,1.814 z"
   id="path48" />
		
			<ellipse
   fill="#fcc20e"
   stroke="#f7961d"
   stroke-width="1.5628"
   stroke-miterlimit="10"
   cx="417.88901"
   cy="413.85101"
   rx="5.4699998"
   ry="6.4460001"
   id="ellipse48" />
	</g>
</g><g
   id="g79"
   transform="matrix(0.26458333,0,0,0.26458333,93.02983,12.793981)">
	<ellipse
   fill="#5ccaef"
   cx="621.00201"
   cy="338.77701"
   rx="34.139999"
   ry="12.414"
   id="ellipse77" />
	<path
   fill="#00adef"
   d="m 596.562,335.349 c 0,0 6.039,0.968 8.502,-3.778 0,0 2.82,4.51 8.305,3.735 0,0 -3.002,3.927 -8.252,0.287 -10e-4,0 -3.284,3.368 -8.555,-0.244 z"
   id="path78" />
	<path
   fill="#00adef"
   d="m 625.067,341.327 c 0,0 6.039,0.967 8.504,-3.78 0,0 2.822,4.512 8.303,3.736 0,0 -3.002,3.926 -8.25,0.287 0,0 -3.283,3.368 -8.557,-0.243 z"
   id="path79" />
</g><g
   id="g83"
   transform="matrix(0.26458333,0,0,0.26458333,93.02983,12.793981)">
	<path
   fill="#5ccaef"
   d="m 591.429,324.825 c 0,0 -7.242,10.345 -22.242,6.207 -8.256,-2.277 -27.934,1.552 -29.484,8.276 v 103.971 c 0,0 4.137,0 5.689,-2.068 0,0 5.174,6.725 8.793,0 0,0 4.139,5.173 7.76,3.621 l -1.035,-97.247 c 0,0 3.621,-8.276 17.586,-9.311 0,0 10.346,2.586 15.002,-5.69 z"
   id="path80" />
	<path
   fill="#ffffff"
   d="m 561.88,438.966 0.064,5.866 c -3.621,1.552 -7.76,-3.621 -7.76,-3.621 -3.619,6.725 -8.793,0 -8.793,0 -1.553,2.068 -5.689,2.068 -5.689,2.068 v -4.655 c 0,0 3.275,3.276 5.689,-3.277 0,0 4.482,9.485 9.654,-0.172 0.001,0 3.497,7.409 6.835,3.791 z"
   id="path81" />
	<path
   fill="#00adef"
   d="m 539.702,371.723 c 0,0 4.482,9.83 8.447,-3.792 0,0 5.518,27.76 12.588,9.311 0,0 -6.381,23.622 -13.104,-2.415 10e-4,-10e-4 -4.484,10.519 -7.931,-3.104 z"
   id="path82" />
	<path
   fill="#00adef"
   d="m 561.601,404.656 c 0,0 -4.484,9.828 -8.449,-3.793 0,0 -5.518,27.76 -12.588,9.312 0,0 6.379,23.62 13.104,-2.414 -10e-4,0 4.483,10.516 7.933,-3.105 z"
   id="path83" />
</g></g>
    <g
   id="ilemontages"
   transform="matrix(0.78606048,0,0,0.78606048,0.10260248,-0.1613771)"
   inkscape:label="ilemontages">

    <animateMotion
   id="ilemontagesAnim"
   path="m 0,0 c 1.37222,-17.52221 -50.834242,-0.0246 -45.187729,4.00859 5.101839,3.64417 29.517789,1.09325 26.602459,4.73742 -12.96458,16.2057 -52.484208,-5.70378 -48.467488,-8.38159 21.536746,-14.35784 40.490068,6.63137 67.052758,-0.36442 z"
   begin="ilemontages.dblclick"
   dur="90s"
   animation-timing-function="ease-in-out"
   repeatCount="indefinite" />        
        
        
    <path
   fill="#d67823"
   d="m 124.07815,67.32778 c 0,0 1.79944,18.121577 8.54658,18.121577 4.49818,0 3.82296,-1.913466 5.7351,-2.025385 1.23481,-0.07303 1.57401,2.81305 1.57401,2.81305 0,0 1.14247,13.507243 7.21545,13.507243 6.07219,0 6.72915,-11.70596 6.72915,-11.70596 0,0 0.67495,-4.277254 3.37344,-4.277254 1.01203,0 2.47412,0.562769 2.47412,0.562769 0,0 5.80442,3.107795 9.44562,-2.813844 0.89985,-1.46341 4.61063,-2.25081 4.61063,-2.25081 0,0 4.386,0.449527 6.52198,-10.580952 -5.3e-4,2.64e-4 -26.65095,-17.446361 -56.22608,-1.350434 z"
   id="path4-4"
   style="stroke-width:0.264583" /><path
   fill="#00a989"
   d="m 184.88126,68.45517 c -0.9197,-3.397779 -4.91649,-2.799292 -4.99666,-2.786856 -3.5941,-3.633523 -14.54282,-6.617759 -27.60133,-7.165181 -12.5738,-0.527315 -23.38864,1.360487 -27.6434,4.465372 -1.02738,-0.388143 -3.24962,-0.964141 -4.92469,0.46699 0,0 1.64544,0.327554 1.82192,1.675077 0,0 -1.62137,0.593725 -1.524,2.312987 0,0 2.02723,-0.413543 3.20595,-0.09075 1.90527,2.641071 8.93498,4.962261 16.5743,4.936332 -1.02685,0.24712 -2.803,0.899583 -3.05356,2.501106 0,0 1.99707,-0.532077 2.27489,-0.0463 0,0 -1.05278,0.906991 -0.4908,2.174346 0,0 1.33799,-1.446742 7.03341,-1.649148 1.93649,0.201083 3.94335,0.350837 6.00578,0.43762 13.65303,0.572294 25.23093,-1.702329 28.58955,-5.291402 1.51554,0.02037 2.81094,0.897203 2.81094,0.897203 0.5662,-1.658673 -0.70274,-2.7559 -0.70274,-2.7559 0.28813,-0.640557 2.62044,-0.08149 2.62044,-0.08149 z"
   id="path84"
   style="stroke-width:0.264583" /><g
   id="g89"
   transform="matrix(0.26458333,0,0,0.26458333,93.02983,12.793981)">
	<path
   fill="#dda6cc"
   d="m 263.108,191.734 3.126,-59.731 c 0,0 0.391,-34.698 21.488,-34.698 21.097,0 21.487,35.137 21.487,35.137 l 5.079,59.292"
   id="path85" />
	<g
   id="g88">
		<path
   fill="#ffffff"
   d="m 288.504,154.499 c -7.392,0 -9.839,-23.551 -10.159,-32.625 -0.011,-0.314 -0.209,-0.591 -0.503,-0.703 -0.09,-0.034 -0.184,-0.051 -0.277,-0.051 -0.21,0 -0.416,0.084 -0.565,0.242 -3.257,3.418 -6.055,4.135 -7.828,4.135 v 0 c -0.514,0 -0.932,-0.062 -1.231,-0.128 1.36,-10.654 5.787,-27.722 20.174,-27.722 20.08,0 20.702,33.585 20.706,33.925 l 0.722,11.772 c -8.88,-1.918 -9.681,-8.498 -9.711,-8.786 -0.042,-0.398 -0.379,-0.7 -0.777,-0.7 -0.009,0 -0.018,0 -0.027,0 -0.409,0.014 -0.739,0.34 -0.754,0.75 -0.01,0.198 -0.866,19.891 -9.77,19.891 z"
   id="path86" />
		<g
   id="g87">
			<path
   fill="#5ccaef"
   d="m 288.113,98.429 c 19.305,0 19.921,32.821 19.925,33.152 0,0.026 10e-4,0.052 0.003,0.078 l 0.655,10.672 c -7.34,-2.046 -8.061,-7.603 -8.088,-7.847 -0.079,-0.802 -0.754,-1.409 -1.554,-1.409 -0.016,0 -0.032,0 -0.048,0.001 -0.821,0.025 -1.483,0.682 -1.514,1.503 -0.202,5.323 -2.209,19.139 -8.987,19.139 -5.693,0 -8.911,-18.637 -9.377,-31.872 -0.022,-0.628 -0.419,-1.182 -1.007,-1.406 -0.181,-0.068 -0.369,-0.102 -0.555,-0.102 -0.419,0 -0.831,0.169 -1.131,0.484 -3.066,3.218 -5.642,3.893 -7.262,3.893 -0.125,0 -0.244,-0.004 -0.355,-0.011 1.435,-10.427 5.837,-26.275 19.295,-26.275 m 0,-1.563 c -15.514,0 -19.831,19 -21.029,29.057 0,0 0.773,0.356 2.087,0.356 1.899,0 4.93,-0.743 8.394,-4.378 0,0 1.172,33.379 10.939,33.379 9.767,0 10.549,-20.643 10.549,-20.643 0,0 0.781,7.905 11.33,9.663 l -0.782,-12.737 c 0,0 -0.391,-34.697 -21.488,-34.697 z"
   id="path87" />
		</g>
	</g>
</g><path
   fill="#00a875"
   stroke="#267b8a"
   stroke-width="0.413491"
   stroke-linecap="round"
   stroke-linejoin="round"
   stroke-miterlimit="10"
   d="m 160.40148,64.414982 c 0,0 1.91188,-4.881562 8.82703,-4.881562 6.91515,0 8.7458,4.930775 8.7458,4.930775"
   id="path89" /><g
   id="g94"
   transform="matrix(0.26458333,0,0,0.26458333,93.02983,12.793981)">
	<path
   fill="#dda6cc"
   d="m 228.729,197.593 3.006,-41.024 c 0,0 0.376,-23.831 20.668,-23.831 20.292,0 20.668,24.133 20.668,24.133 l 4.885,40.722"
   id="path90" />
	<g
   id="g93">
		<path
   fill="#ffffff"
   d="m 242.403,169.854 c -2.277,0 -4.19,-0.783 -5.685,-2.326 -4.01,-4.141 -3.963,-12.431 -3.95,-13.196 1.888,-10.045 6.855,-21.985 19.792,-21.985 11.934,0 17.008,10.513 19.163,19.332 v 0 c -0.002,0 0.699,4.647 -1.456,7.17 -0.923,1.08 -2.28,1.628 -4.033,1.628 -7.16,0 -10.165,-9.132 -10.194,-9.224 -0.104,-0.326 -0.407,-0.543 -0.744,-0.543 -0.027,0 -0.054,0.001 -0.082,0.004 -0.368,0.038 -0.659,0.329 -0.696,0.697 -0.018,0.185 -2.008,18.443 -12.115,18.443 z"
   id="path91" />
		<g
   id="g92">
			<path
   fill="#5ccaef"
   d="m 252.562,133.129 c 11.395,0 16.287,10.13 18.386,18.663 0.065,0.491 0.52,4.447 -1.271,6.547 -0.778,0.913 -1.904,1.356 -3.441,1.356 -6.563,0 -9.423,-8.596 -9.45,-8.68 -0.208,-0.653 -0.814,-1.086 -1.487,-1.086 -0.054,0 -0.108,0.003 -0.162,0.008 -0.736,0.077 -1.317,0.659 -1.394,1.395 -0.018,0.178 -1.939,17.741 -11.339,17.741 -2.084,0 -3.758,-0.681 -5.118,-2.083 -3.704,-3.817 -3.747,-11.566 -3.736,-12.579 1.842,-9.741 6.638,-21.282 19.012,-21.282 m 0,-1.563 c -13.974,0 -18.864,13.542 -20.572,22.685 0,0 -0.525,16.384 10.414,16.384 10.939,0 12.894,-19.144 12.894,-19.144 0,0 3.125,9.767 10.938,9.767 7.814,0 6.248,-9.765 6.248,-9.765 -2.186,-8.944 -7.417,-19.927 -19.922,-19.927 z"
   id="path92" />
		</g>
	</g>
</g><path
   fill="#00a875"
   stroke="#267b8a"
   stroke-width="0.413491"
   stroke-linecap="round"
   stroke-linejoin="round"
   stroke-miterlimit="10"
   d="m 151.82501,66.618962 c 0,0 1.77694,-3.90525 8.2042,-3.90525 6.42699,0 8.12826,3.944672 8.12826,3.944672"
   id="path94" /><g
   id="g95"
   transform="matrix(0.26458333,0,0,0.26458333,93.02983,12.793981)">
	
		<line
   fill="#ffffff"
   stroke="#d67823"
   stroke-width="3.9069"
   stroke-linecap="round"
   stroke-linejoin="round"
   stroke-miterlimit="10"
   x1="153.209"
   y1="190.951"
   x2="153.10899"
   y2="175.218"
   id="line94" />
	<path
   fill="#b6d333"
   d="m 138.803,157.094 c 0,0 1.361,-42.213 14.86,-42.213 13.5,0 13.853,42.213 13.853,42.213 0,0 -0.138,23.786 -14.066,23.786 -13.928,0 -14.647,-23.786 -14.647,-23.786 z"
   id="path95" />
</g><g
   id="g96"
   transform="matrix(0.26458333,0,0,0.26458333,93.02983,12.793981)">
	
		<line
   fill="#ffffff"
   stroke="#d67823"
   stroke-width="3.9069"
   stroke-linecap="round"
   stroke-linejoin="round"
   stroke-miterlimit="10"
   x1="170.57899"
   y1="206.972"
   x2="170.49899"
   y2="194.44901"
   id="line95" />
	<path
   fill="#b6d333"
   d="m 159.111,180.024 c 0,0 1.084,-33.598 11.828,-33.598 10.745,0 11.026,33.598 11.026,33.598 0,0 -0.11,18.932 -11.196,18.932 -11.086,0 -11.658,-18.932 -11.658,-18.932 z"
   id="path96" />
</g><g
   id="g97"
   transform="matrix(0.26458333,0,0,0.26458333,93.02983,12.793981)">
	
		<line
   fill="#ffffff"
   stroke="#d67823"
   stroke-width="3.9069"
   stroke-linecap="round"
   stroke-linejoin="round"
   stroke-miterlimit="10"
   x1="199.30299"
   y1="194.08"
   x2="199.202"
   y2="178.347"
   id="line96" />
	<path
   fill="#b6d333"
   d="m 184.896,160.223 c 0,0 1.361,-42.214 14.86,-42.214 13.5,0 13.853,42.214 13.853,42.214 0,0 -0.138,23.786 -14.066,23.786 -13.93,0 -14.647,-23.786 -14.647,-23.786 z"
   id="path97" />
</g></g></g></g></svg>
