<?xml version="1.0" encoding="utf-8"?>
<!-- Generator: Adobe Illustrator 15.1.0, SVG Export Plug-In . SVG Version: 6.00 Build 0)  -->
<!DOCTYPE svg PUBLIC "-//W3C//DTD SVG 1.1//EN" "http://www.w3.org/Graphics/SVG/1.1/DTD/svg11.dtd">
<svg version="1.1" id="Layer_1" xmlns="http://www.w3.org/2000/svg" xmlns:xlink="http://www.w3.org/1999/xlink" x="0px" y="0px"
	 width="792px" height="612px" viewBox="0 0 792 612" enable-background="new 0 0 792 612" xml:space="preserve">
<path fill="#D67823" d="M340.764,466.875c0,0,6.969,123.113,40.882,123.113c23.693,0,33.914-42.277,33.914-42.277
	s6.506-16.259,22.766-5.575c16.26,10.688,53.852,18.611,77.119-10.684c12.543-15.797,20.904,3.253,20.904,3.253
	s8.363,28.802,32.52,28.802c30.668,0,42.742-110.569,42.742-110.569S475.954,431.569,340.764,466.875z"/>
<path fill="#00A989" d="M633.224,453.638c-2.818-11.158-17.328-10.829-21.15-10.543c-12.131-10.779-44.568-18.497-82.693-18.497
	c-36.916,0-68.488,7.236-81.471,17.481c-6.51-0.489-13.291-0.757-20.271-0.757c-36.589,0-67.939,7.108-81.132,17.21
	c-5.023-1.561-14.537-3.085-22.933,3.696c0,0,9.757,1.859,11.614,6.506c0,0-7.433,0.929-8.362,10.685c0,0,7.8-4.149,15.682-3.382
	c9.606,12.087,44.073,21.034,85.131,21.034c36.914,0,68.486-7.235,81.471-17.479c6.51,0.487,13.289,0.755,20.271,0.755
	c36.4,0,67.625-7.032,80.934-17.05c7.584-0.898,15.002,3.643,15.002,3.643c2.117-7.63-3.893-12.244-3.893-12.244
	C622.556,451.732,633.224,453.638,633.224,453.638z"/>
<path fill="#FFFFFF" stroke="#5CCAEF" stroke-width="1.5628" stroke-linecap="round" stroke-linejoin="round" stroke-miterlimit="10" d="
	M752.146,255.279c1.816-3.053,2.85-6.533,2.85-10.232c0-12.062-10.949-21.84-24.457-21.84c-4.998,0-9.645,1.342-13.516,3.642
	c-3.486-13.95-16.857-24.343-32.836-24.343c-18.625,0-33.725,14.123-33.725,31.545c0,7.89,3.885,17.441,9.004,22.973
	c-4.703-0.978-26.67-3.498-32.936-1.967c0,0-9.785,1.82-8.42,12.057c0,0,1.137,5.005,9.098,5.232H756.81
	c0,0,15.242,0.682,15.242-8.645C772.052,256.934,764.024,251.612,752.146,255.279z"/>
<path fill="#D67823" d="M117.348,206.112c0,0,6.801,68.491,32.302,68.491c17.001,0,14.449-7.232,21.676-7.655
	c4.667-0.276,5.949,10.632,5.949,10.632s4.318,51.051,27.271,51.051c22.95,0,25.433-44.243,25.433-44.243s2.551-16.166,12.75-16.166
	c3.825,0,9.351,2.127,9.351,2.127s21.938,11.746,35.7-10.635c3.401-5.531,17.426-8.507,17.426-8.507s16.577,1.699,24.65-39.991
	C329.854,211.217,229.128,145.277,117.348,206.112z"/>
<g>
	<ellipse fill="#5CCAEF" cx="532.399" cy="450.872" rx="43.367" ry="15.77"/>
	<path fill="#00ADEF" d="M501.351,446.517c0,0,7.672,1.23,10.803-4.8c0,0,3.584,5.729,10.547,4.745c0,0-3.813,4.988-10.48,0.366
		C512.22,446.828,508.05,451.105,501.351,446.517z"/>
	<path fill="#00ADEF" d="M537.563,454.11c0,0,7.67,1.229,10.801-4.801c0,0,3.584,5.73,10.549,4.746c0,0-3.814,4.987-10.48,0.364
		C548.433,454.42,544.261,458.698,537.563,454.11z"/>
</g>
<path fill="#D67823" d="M533.649,330.367c0,0,4.828,46.9,21.035,46.9c6.553,0,4.131-3.104,10.691-3.104
	c3.449,0,5.172,7.587,5.172,7.587s5.172,36.209,21.381,36.209c16.207,0,16.898-24.829,16.898-24.829s0.689-9.313,9.311-6.553
	c8.621,2.758,16.207-1.378,21.035-10s11.725-1.38,11.725-1.38s4.828,8.621,15.518,8.621c13.105,0,19.656-25.863,21.381-46.21
	C687.796,337.609,625.724,306.573,533.649,330.367z"/>
<path fill="#00A989" d="M699.413,337.802c-2.453-9.066-13.119-7.469-13.332-7.436c-9.588-9.695-38.801-17.656-73.641-19.117
	c-33.547-1.406-62.4,3.631-73.75,11.913c-2.744-1.034-8.67-2.572-13.141,1.247c0,0,4.389,0.872,4.861,4.47
	c0,0-4.326,1.582-4.066,6.17c0,0,5.408-1.103,8.553-0.242c5.084,7.046,23.838,13.239,44.221,13.17
	c-2.74,0.659-7.479,2.401-8.148,6.673c0,0,5.33-1.421,6.07-0.124c0,0-2.809,2.419-1.311,5.802c0,0,3.568-3.859,18.766-4.401
	c5.168,0.538,10.52,0.938,16.023,1.168c36.426,1.528,67.316-4.542,76.277-14.115c4.043,0.052,7.498,2.394,7.498,2.394
	c1.512-4.427-1.873-7.353-1.873-7.353C693.19,336.311,699.413,337.802,699.413,337.802z"/>
<path fill="#D67823" d="M63.513,439.18c0,0,6.827,66.335,29.753,66.335c9.267,0,5.841-4.389,15.12-4.389
	c4.878,0,7.316,10.73,7.316,10.73s7.315,51.214,30.239,51.214c22.926,0,23.9-35.118,23.9-35.118s0.976-13.172,13.17-9.268
	c12.193,3.9,22.925-1.949,29.752-14.145c6.829-12.194,16.584-1.951,16.584-1.951s6.829,12.193,21.949,12.193
	c18.534,0,27.802-36.581,30.24-65.36C281.537,449.422,193.743,405.526,63.513,439.18z"/>
<path fill="#00A989" d="M297.967,449.694c-3.47-12.823-18.553-10.563-18.854-10.517c-13.563-13.713-54.88-24.974-104.158-27.04
	c-47.449-1.988-88.26,5.136-104.314,16.851c-3.877-1.463-12.263-3.637-18.584,1.764c0,0,6.208,1.234,6.874,6.322
	c0,0-6.118,2.237-5.75,8.728c0,0,7.649-1.56,12.098-0.342c7.19,9.964,33.718,18.724,62.545,18.627
	c-3.875,0.931-10.576,3.395-11.522,9.437c0,0,7.536-2.01,8.584-0.175c0,0-3.973,3.421-1.854,8.206c0,0,5.048-5.459,26.541-6.226
	c7.31,0.761,14.881,1.326,22.665,1.653c51.521,2.16,95.211-6.426,107.886-19.967c5.718,0.075,10.607,3.388,10.607,3.388
	c2.135-6.263-2.651-10.4-2.651-10.4C289.165,447.585,297.967,449.694,297.967,449.694z"/>
<g>
	<g>
		
			<path fill="#FFFFFF" stroke="#5CCAEF" stroke-width="1.5628" stroke-linecap="round" stroke-linejoin="round" stroke-miterlimit="10" d="
			M127.538,67.392c0.077,0.002,0.157,0.004,0.239,0.007C127.703,67.396,127.618,67.394,127.538,67.392z"/>
		
			<path fill="#FFFFFF" stroke="#5CCAEF" stroke-width="1.5628" stroke-linecap="round" stroke-linejoin="round" stroke-miterlimit="10" d="
			M127.777,67.398c0.149,0.004,0.288,0.008,0.416,0.012C128.053,67.406,127.913,67.402,127.777,67.398z"/>
		
			<path fill="#FFFFFF" stroke="#5CCAEF" stroke-width="1.5628" stroke-linecap="round" stroke-linejoin="round" stroke-miterlimit="10" d="
			M127.085,67.378c0.099,0.003,0.217,0.006,0.348,0.01C127.322,67.385,127.205,67.382,127.085,67.378z"/>
		
			<path fill="#FFFFFF" stroke="#5CCAEF" stroke-width="1.5628" stroke-linecap="round" stroke-linejoin="round" stroke-miterlimit="10" d="
			M127.433,67.389c0.036,0,0.07,0.001,0.105,0.003C127.502,67.39,127.467,67.389,127.433,67.389z"/>
		
			<path fill="#FFFFFF" stroke="#5CCAEF" stroke-width="1.5628" stroke-linecap="round" stroke-linejoin="round" stroke-miterlimit="10" d="
			M126.963,67.375c0.041,0.001,0.081,0.003,0.122,0.004C127.04,67.377,126.999,67.376,126.963,67.375z"/>
		
			<path fill="#FFFFFF" stroke="#5CCAEF" stroke-width="1.5628" stroke-linecap="round" stroke-linejoin="round" stroke-miterlimit="10" d="
			M126.782,67.37c0.021,0.001,0.039,0.001,0.061,0.002C126.805,67.371,126.782,67.37,126.782,67.37z"/>
		
			<path fill="#FFFFFF" stroke="#5CCAEF" stroke-width="1.5628" stroke-linecap="round" stroke-linejoin="round" stroke-miterlimit="10" d="
			M126.843,67.372c0.029,0.001,0.07,0.002,0.12,0.003C126.922,67.374,126.885,67.373,126.843,67.372z"/>
		
			<path fill="#FFFFFF" stroke="#5CCAEF" stroke-width="1.5628" stroke-linecap="round" stroke-linejoin="round" stroke-miterlimit="10" d="
			M210.182,54.348c1.386-2.33,2.174-4.985,2.174-7.807c0-9.203-8.354-16.663-18.659-16.663c-3.814,0-7.359,1.024-10.314,2.778
			c-2.658-10.644-12.861-18.573-25.051-18.573c-14.211,0-25.731,10.775-25.731,24.067c0,6.02,2.368,11.519,6.273,15.739
			c-3.588-0.746-7.828-0.88-12.608,0.288c0,0-7.466,1.388-6.425,9.199c0,0,0.868,3.819,6.942,3.992h86.957
			c0,0,11.63,0.521,11.63-6.596C225.369,55.61,219.244,51.55,210.182,54.348z"/>
		
			<path fill="#FFFFFF" stroke="#5CCAEF" stroke-width="1.5628" stroke-linecap="round" stroke-linejoin="round" stroke-miterlimit="10" d="
			M129.323,67.442c0.053,0.001,0.092,0.002,0.117,0.003C129.413,67.445,129.374,67.444,129.323,67.442z"/>
		
			<path fill="#FFFFFF" stroke="#5CCAEF" stroke-width="1.5628" stroke-linecap="round" stroke-linejoin="round" stroke-miterlimit="10" d="
			M129.44,67.446C129.491,67.447,129.495,67.447,129.44,67.446L129.44,67.446z"/>
		
			<path fill="#FFFFFF" stroke="#5CCAEF" stroke-width="1.5628" stroke-linecap="round" stroke-linejoin="round" stroke-miterlimit="10" d="
			M129.124,67.437c0.077,0.002,0.145,0.004,0.199,0.006C129.271,67.441,129.204,67.439,129.124,67.437z"/>
		
			<path fill="#FFFFFF" stroke="#5CCAEF" stroke-width="1.5628" stroke-linecap="round" stroke-linejoin="round" stroke-miterlimit="10" d="
			M128.612,67.422c0.105,0.003,0.206,0.006,0.299,0.008C128.823,67.428,128.725,67.425,128.612,67.422z"/>
		
			<path fill="#FFFFFF" stroke="#5CCAEF" stroke-width="1.5628" stroke-linecap="round" stroke-linejoin="round" stroke-miterlimit="10" d="
			M128.911,67.43c0.081,0.002,0.151,0.005,0.213,0.006C129.059,67.435,128.989,67.433,128.911,67.43z"/>
		
			<path fill="#FFFFFF" stroke="#5CCAEF" stroke-width="1.5628" stroke-linecap="round" stroke-linejoin="round" stroke-miterlimit="10" d="
			M128.559,67.42c0.02,0.001,0.035,0.001,0.054,0.001C128.594,67.422,128.576,67.421,128.559,67.42z"/>
		
			<path fill="#FFFFFF" stroke="#5CCAEF" stroke-width="1.5628" stroke-linecap="round" stroke-linejoin="round" stroke-miterlimit="10" d="
			M128.193,67.41c0.124,0.003,0.247,0.007,0.365,0.01C128.447,67.417,128.327,67.414,128.193,67.41z"/>
	</g>
</g>
<path fill="#FFFFFF" stroke="#5CCAEF" stroke-width="1.5628" stroke-linecap="round" stroke-linejoin="round" stroke-miterlimit="10" d="
	M385.824,358.953l94.286,0.26c0,0,8.855-0.521,9.117-6.251c0,0-0.855-10.688-16.123-5.532c2.246-1.79,3.621-4.134,3.621-6.709
	c0-5.61-6.473-10.158-14.455-10.158c-1.844,0-3.602,0.252-5.223,0.694c1.258-2.397,1.963-5.056,1.963-7.856
	c0-10.573-9.971-19.145-22.27-19.145c-5.641,0-10.789,1.808-14.713,4.781c-7.814,6.159-8.875,15.19-9.637,17.099
	c-2.086-1.304-6.158-2.345-8.466-2.345c-8.702,0-15.758,6.237-15.758,13.934c0,3.692,1.636,7.04,4.286,9.532
	c-4.834-0.966-12.826-1.343-14.964,5.966C377.49,353.223,376.709,358.692,385.824,358.953z"/>
<g>
	<path fill="#DDA6CC" d="M495.856,171.539l3.127-53.134c0,0,0.391-30.865,21.486-30.865c21.098,0,21.488,31.255,21.488,31.255
		l5.08,52.743"/>
	<g>
		<path fill="#FFFFFF" d="M523.206,134.814c-7.388,0-9.556-17.503-9.768-24.248c-0.014-0.418-0.354-0.752-0.772-0.757
			c-0.003,0-0.006,0-0.009,0c-0.415,0-0.758,0.324-0.78,0.739c-0.011,0.207-1.229,20.2-12.847,21.107l0.733-13.208
			c0.005-0.334,0.629-30.127,20.706-30.127c20.094,0,20.703,30.179,20.707,30.484l0.27,2.446c-2.029-0.731-6.508-3.178-8.499-10.856
			c-0.091-0.349-0.405-0.585-0.756-0.585c-0.037,0-0.074,0.002-0.112,0.008c-0.394,0.057-0.682,0.4-0.67,0.798
			c0.006,0.172,0.475,17.24-4.773,22.653C525.628,134.309,524.506,134.814,523.206,134.814z"/>
		<g>
			<path fill="#5CCAEF" d="M520.47,89.104c7.995,0,13.769,4.884,17.158,14.517c2.635,7.485,2.767,15.119,2.768,15.196
				c0.001,0.05,0.004,0.102,0.01,0.152l0.112,1.012c-2.104-1.121-5.251-3.752-6.814-9.781c-0.181-0.697-0.81-1.17-1.512-1.17
				c-0.073,0-0.148,0.005-0.223,0.016c-0.788,0.113-1.365,0.8-1.34,1.596c0.146,4.685-0.386,17.784-4.554,22.084
				c-0.854,0.88-1.792,1.309-2.869,1.309c-6.729,0-8.794-17.397-8.987-23.491c-0.026-0.836-0.707-1.503-1.544-1.513
				c-0.006,0-0.012,0-0.018,0c-0.829,0-1.515,0.648-1.561,1.478c-0.011,0.194-1.13,18.443-11.234,20.256l0.682-12.271
				c0.001-0.022,0.002-0.044,0.002-0.066c0.001-0.075,0.134-7.609,2.766-14.996C506.7,93.924,512.473,89.104,520.47,89.104
				 M520.47,87.541c-21.096,0-21.486,30.865-21.486,30.865l-0.781,14.065c13.283,0,14.455-21.879,14.455-21.879
				s0.781,25.004,10.549,25.004s8.984-25.004,8.984-25.004c2.736,10.549,10.158,11.721,10.158,11.721l-0.391-3.516
				C541.958,118.796,541.567,87.541,520.47,87.541L520.47,87.541z"/>
		</g>
	</g>
</g>
<g>
	<path fill="#FFEF00" d="M666.61,124.227c0,0,21.75,4.047,22.256-11.127V87.811c0,0,0.506-4.552-4.047-3.541
		c0,0-10.621,0.506-11.633,19.22l-7.082,1.012L666.61,124.227z"/>
	
		<line fill="none" stroke="#D67823" stroke-width="3.0347" stroke-linecap="round" stroke-linejoin="round" stroke-miterlimit="10" x1="618.983" y1="137.377" x2="619.067" y2="147.493"/>
	
		<line fill="none" stroke="#D67823" stroke-width="3.0347" stroke-linecap="round" stroke-linejoin="round" stroke-miterlimit="10" x1="638.202" y1="136.366" x2="638.286" y2="146.481"/>
	<path fill="#EF69A1" d="M674.366,109.391c0,22.116-20.531,31.358-45.857,31.358s-45.857-10.552-45.857-31.358
		c-0.002-20.796,20.531-31.359,45.857-31.359S674.366,88.595,674.366,109.391z"/>
	<path fill="#DDA6CC" d="M650.427,111.582c0,19.352-6.07,23.772-11.664,28.727c-2.984,0.296-6.076,0.44-9.242,0.44
		c-3.604,0-7.111-0.213-10.477-0.641c-7.059-3.743-12.621-10.824-13.127-28.526c-0.463-16.187,3.541-27.312,12.648-32.848
		c3.512-0.468,7.18-0.703,10.955-0.703c2.986,0,5.908,0.146,8.736,0.44C649.921,86.799,650.427,95.397,650.427,111.582z"/>
	<path fill="#FFEF00" d="M640.493,145.723h-23.68c0,0-2.037,0.185-2.037,1.666c0,0,0,2.406,1.852,2.591c0,0,1.85,0.185,2.221,2.96
		c0,0-1.48,7.957,8.881,7.957h1.846c10.361,0,8.881-7.957,8.881-7.957c0.371-2.776,2.221-2.96,2.221-2.96
		c1.85-0.185,1.85-2.591,1.85-2.591C642.526,145.908,640.493,145.723,640.493,145.723z"/>
	<ellipse fill="#FFEF00" cx="579.363" cy="111.582" rx="3.761" ry="5.058"/>
	<ellipse fill="#FFEF00" cx="579.11" cy="101.72" rx="3.541" ry="9.356"/>
	<ellipse fill="#FFEF00" cx="579.616" cy="121.445" rx="3.541" ry="9.357"/>
</g>
<g>
	<path fill="#FCC20E" d="M370.124,81.582l-73.275,0.917c0,0-11.603,0.305-11.603-10.992s13.74-24.12,34.196-24.12
		s39.08,17.708,39.08,17.708s2.157-15.102,13.434-14.35c4.58,0.306,3.97,6.106,3.97,6.106l-0.61,18.625
		C375.315,75.476,375.62,81.582,370.124,81.582z"/>
	<g>
		<ellipse fill="#EF69A1" cx="283.006" cy="64.057" rx="2.784" ry="7.358"/>
		<ellipse fill="#EF69A1" cx="283.404" cy="79.568" rx="2.784" ry="7.358"/>
		<ellipse fill="#EF69A1" cx="283.205" cy="71.813" rx="2.958" ry="3.977"/>
	</g>
	<path fill="#FCC20E" stroke="#F7961D" stroke-width="1.8319" stroke-miterlimit="10" d="M339.918,72.423
		c0,0-22.918-2.138-22.918,4.58c0,6.717,20.536,13.434,31.251,12.212c10.713-1.221-2.382-13.434-2.382-13.434
		S343.191,72.423,339.918,72.423z"/>
	<path fill="#5CCAEF" d="M308.751,67.843c0-0.052,0.005-0.101,0.005-0.153c0-5.143-3.007-9.312-6.718-9.312
		c-3.709,0-6.717,4.169-6.717,9.312c0,0.052,0.005,0.101,0.006,0.153H308.751z"/>
</g>
<path fill="none" stroke="#5CCAEF" stroke-width="1.5628" stroke-linecap="round" stroke-linejoin="round" stroke-miterlimit="10" d="
	M516.108,128.303"/>
<g>
	<polyline fill="#F7961D" points="431.634,122.423 434.214,124.081 431.819,125.923 	"/>
	<path fill="#6265AC" d="M406.424,125.511c1.076,5.939,6.718,11.343,12.991,11.343c5.223,0,9.746-3.346,11.951-8.228
		c0,0,2.848-10.993-5.627-10.993c-5.711,0-7.186,5.159-7.186,5.159S416.159,128.502,406.424,125.511z"/>
	<path fill="#6265AC" d="M422.792,127.397l-7.369-8.659c0,0-1.475-1.658-3.133,0.552c-1.658,2.211-1.475,7.922,4.422,10.686"/>
</g>
<g>
	<path fill="#FFEF00" d="M383.373,469.286l2.991-50.839c0,0,0.374-29.532,20.561-29.532c20.186,0,20.561,29.906,20.561,29.906
		l4.859,50.465C432.345,469.286,410.196,485.849,383.373,469.286z"/>
	<g>
		<path fill="#FCC20E" d="M412.45,414.798l-1.984-30.638c0,0,1.191-4.616,6.354-2.099c0,0,15.086,10.493,1.982,33.156
			L412.45,414.798z"/>
		<path fill="#FCC20E" d="M420.995,412.985l1.986,30.638c0,0-1.193,4.616-6.354,2.099c0,0-15.088-10.491-1.984-33.156
			L420.995,412.985z"/>
		<path fill="#FCC20E" d="M415.481,418.358l-30.639,1.985c0,0-4.616-1.19-2.099-6.352c0,0,10.492-15.087,33.157-1.985
			L415.481,418.358z"/>
		<path fill="#FCC20E" d="M415.923,410.036l24.143-1.815c0,0,3.637,1.09,1.652,5.809c0,0-8.268,13.794-26.127,1.814L415.923,410.036
			z"/>
		
			<ellipse fill="#FCC20E" stroke="#F7961D" stroke-width="1.5628" stroke-miterlimit="10" cx="417.889" cy="413.851" rx="5.47" ry="6.446"/>
	</g>
</g>
<g>
	
		<line fill="none" stroke="#D67823" stroke-width="2.6411" stroke-linecap="round" stroke-linejoin="round" stroke-miterlimit="10" x1="321.854" y1="372.285" x2="321.928" y2="383.729"/>
	
		<line fill="none" stroke="#D67823" stroke-width="2.6411" stroke-linecap="round" stroke-linejoin="round" stroke-miterlimit="10" x1="332.64" y1="373.166" x2="332.713" y2="384.61"/>
	
		<line fill="none" stroke="#D67823" stroke-width="2.6411" stroke-linecap="round" stroke-linejoin="round" stroke-miterlimit="10" x1="343.938" y1="384.17" x2="343.864" y2="372.726"/>
	<path fill="#5CCAEF" d="M371.156,321.225c0-21.556-17.476-39.03-39.03-39.03c-21.556,0-39.03,17.475-39.03,39.03
		c0,5.847,1.295,11.387,3.599,16.366c0.598,1.726,4.906,13.291,15.477,20.608c0,0,7.924,4.108,7.924,14.086l25.236,0.294
		c0,0-0.183-10.088,6.199-15.15c0,0,9.465-6.823,13.58-15.352C368.933,336.044,371.156,328.896,371.156,321.225z"/>
	<path fill="#EF69A1" d="M325.377,372.285c0,0,0.292-10.857-6.457-20.249c0,0-12.032-16.434-12.325-36.975
		c-0.293-20.542,8.217-38.149,25.531-38.149c17.313,0,24.063,19.368,24.356,39.616c0.293,20.249-11.444,34.628-11.444,34.628
		s-5.282,6.456-5.282,21.129H325.377z"/>
	<path fill="#FCC20E" d="M347.019,383.95h-28.164c0,0-2.421,0.22-2.421,1.981c0,0,0,2.86,2.201,3.081c0,0,2.2,0.22,2.641,3.521
		c0,0-1.761,9.465,10.564,9.465h2.193c12.325,0,10.564-9.465,10.564-9.465c0.44-3.301,2.642-3.521,2.642-3.521
		c2.2-0.221,2.2-3.081,2.2-3.081C349.439,384.17,347.019,383.95,347.019,383.95z"/>
</g>
<g>
	<rect x="144.02" y="357.004" fill="#6265AC" width="32.817" height="71.888"/>
	<g>
		<rect x="148.705" y="362.213" fill="#DDA6CC" width="9.28" height="12.699"/>
		<rect x="148.675" y="377.286" fill="#DDA6CC" width="9.28" height="12.699"/>
		<rect x="148.675" y="392.36" fill="#DDA6CC" width="9.28" height="12.698"/>
	</g>
</g>
<g>
	<rect x="111.592" y="387.478" fill="#6265AC" width="32.818" height="41.414"/>
	<g>
		<rect x="115.691" y="391.905" fill="#DDA6CC" width="9.281" height="12.699"/>
		<rect x="115.661" y="406.979" fill="#DDA6CC" width="9.28" height="12.699"/>
		<rect x="126.991" y="391.97" fill="#DDA6CC" width="9.28" height="12.698"/>
	</g>
</g>
<g>
	<rect x="187.254" y="362.734" fill="#6265AC" width="32.818" height="71.888"/>
	<g>
		<rect x="191.94" y="367.945" fill="#DDA6CC" width="9.28" height="12.698"/>
		<rect x="191.91" y="383.019" fill="#DDA6CC" width="9.28" height="12.697"/>
	</g>
</g>
<g>
	<rect x="206.919" y="401.544" fill="#6265AC" width="32.818" height="41.414"/>
	<g>
		<rect x="211.02" y="405.972" fill="#DDA6CC" width="9.28" height="12.699"/>
		<rect x="222.318" y="406.036" fill="#DDA6CC" width="9.281" height="12.698"/>
	</g>
</g>
<g>
	<path fill="#B6D333" d="M222.134,432.155c0,0,0.978-8.001,7.756-8.082h10.21c0,0,8.001,0.979,8.001,8v9.476
		c0,0-0.896,7.919-8.001,7.919h-10.21c0,0-7.756-0.814-7.756-8V432.155z"/>
	<path fill="#00A989" d="M225.722,436.668c0,0,3.065-4.545,6.976-1.058c0,0,0.105-4.122,4.967-3.909c0,0-3.171-3.593-6.13,0.422
		C231.534,432.123,226.145,430.961,225.722,436.668z"/>
</g>
<g>
	<path fill="#B6D333" d="M133.838,425.959c0,0,1.34-10.954,10.62-11.065h13.979c0,0,10.955,1.338,10.955,10.954v12.974
		c0,0-1.227,10.844-10.955,10.844h-13.979c0,0-10.62-1.115-10.62-10.955V425.959z"/>
	<path fill="#00A989" d="M138.035,424.014c0,0,7.368-1.432,7.777,5.73c0,0,4.093-3.889,8.595,1.022c0,0,0.408-6.547-6.345-5.524
		C148.063,425.242,143.971,418.899,138.035,424.014z"/>
	<path fill="#00A989" d="M149.188,441.961c0,0,4.197-6.222,9.551-1.446c0,0,0.145-5.645,6.8-5.354c0,0-4.341-4.92-8.392,0.579
		C157.146,435.739,149.767,434.147,149.188,441.961z"/>
</g>
<g>
	<path fill="#D67823" d="M397.192,201.962c0,0,6.771,68.138,32.164,68.138c16.93,0,14.391-7.196,21.584-7.617
		c4.65-0.274,5.926,10.58,5.926,10.58s5.078,50.787,27.932,50.787c22.855,0,24.549-44.015,24.549-44.015s2.539-16.083,12.697-16.083
		c3.809,0,9.309,2.117,9.309,2.117s21.848,11.684,35.553-10.581c3.385-5.502,17.352-8.463,17.352-8.463s16.506,1.69,24.547-39.784
		C608.804,207.04,508.499,141.441,397.192,201.962z"/>
	<path fill="#00A989" d="M624.53,207.531c-0.244-10.278-11.734-12.614-15.182-13.083c-5.252-16.089-51.328-28.671-107.408-28.671
		c-48.725,0-89.891,9.499-103.301,22.541c-3.386-0.838-14.911-2.907-18.936,6.544c0,0,9.868-0.216,10.472,2.612
		c0,0-6.06,3.307-5.229,10.474c0,0,8.701-3.135,13.135-1.81c12.775,13.339,54.418,23.121,103.859,23.121
		c42.494,0,79.234-7.225,96.834-17.726c0,0,7.014-2.377,16.045,6.217c3.664-4.68-0.984-11.665-0.984-11.665
		C615.44,203.681,624.53,207.531,624.53,207.531z"/>
	
		<path fill="#00A989" stroke="#267B8A" stroke-width="2.2793" stroke-linecap="round" stroke-linejoin="round" stroke-miterlimit="10" d="
		M423.323,185.313c0,0,9.547-40.422,44.078-40.422c34.533,0,43.674,40.829,43.674,40.829"/>
	
		<path fill="#00A989" stroke="#267B8A" stroke-width="2.2793" stroke-linecap="round" stroke-linejoin="round" stroke-miterlimit="10" d="
		M470.048,191.105c0,0,10.541-31.027,48.66-31.027s48.209,31.34,48.209,31.34"/>
	
		<path fill="#00A989" stroke="#267B8A" stroke-width="2.2793" stroke-linecap="round" stroke-linejoin="round" stroke-miterlimit="10" d="
		M551.532,191.417c0,0-2.279-7.978-7.977-8.547c0,0,9.117-3.419,14.244,2.279c0,0,0.57-10.827,11.967-10.257
		c0,0-2.279,5.128-1.709,8.547c0,0,6.268-3.988,10.826,0.57c0,0-7.408,3.988-6.268,7.978"/>
	
		<path fill="#00A989" stroke="#267B8A" stroke-width="2.2793" stroke-linecap="round" stroke-linejoin="round" stroke-miterlimit="10" d="
		M483.13,191.417c0,0,1.139-14.245-11.967-15.955c0,0,2.85,8.547,0,9.687c0,0-5.129-4.559-12.537-2.279c0,0,5.129,5.128,3.99,9.117"
		/>
</g>
<g>
	<ellipse fill="#5CCAEF" cx="621.002" cy="338.777" rx="34.14" ry="12.414"/>
	<path fill="#00ADEF" d="M596.562,335.349c0,0,6.039,0.968,8.502-3.778c0,0,2.82,4.51,8.305,3.735c0,0-3.002,3.927-8.252,0.287
		C605.116,335.593,601.833,338.961,596.562,335.349z"/>
	<path fill="#00ADEF" d="M625.067,341.327c0,0,6.039,0.967,8.504-3.78c0,0,2.822,4.512,8.303,3.736c0,0-3.002,3.926-8.25,0.287
		C633.624,341.57,630.341,344.938,625.067,341.327z"/>
</g>
<g>
	<path fill="#5CCAEF" d="M591.429,324.825c0,0-7.242,10.345-22.242,6.207c-8.256-2.277-27.934,1.552-29.484,8.276v103.971
		c0,0,4.137,0,5.689-2.068c0,0,5.174,6.725,8.793,0c0,0,4.139,5.173,7.76,3.621l-1.035-97.247c0,0,3.621-8.276,17.586-9.311
		c0,0,10.346,2.586,15.002-5.69L591.429,324.825z"/>
	<path fill="#FFFFFF" d="M561.88,438.966l0.064,5.866c-3.621,1.552-7.76-3.621-7.76-3.621c-3.619,6.725-8.793,0-8.793,0
		c-1.553,2.068-5.689,2.068-5.689,2.068v-4.655c0,0,3.275,3.276,5.689-3.277c0,0,4.482,9.485,9.654-0.172
		C555.046,435.175,558.542,442.584,561.88,438.966z"/>
	<path fill="#00ADEF" d="M539.702,371.723c0,0,4.482,9.83,8.447-3.792c0,0,5.518,27.76,12.588,9.311c0,0-6.381,23.622-13.104-2.415
		C547.634,374.826,543.149,385.346,539.702,371.723z"/>
	<path fill="#00ADEF" d="M561.601,404.656c0,0-4.484,9.828-8.449-3.793c0,0-5.518,27.76-12.588,9.312c0,0,6.379,23.62,13.104-2.414
		C553.667,407.761,558.151,418.277,561.601,404.656z"/>
</g>
<path fill="#00A989" d="M347.155,210.373c-3.476-12.842-18.582-10.58-18.885-10.533c-13.584-13.733-54.965-25.012-104.32-27.081
	c-47.523-1.993-88.398,5.142-104.479,16.877c-3.883-1.467-12.282-3.644-18.613,1.765c0,0,6.219,1.238,6.886,6.331
	c0,0-6.128,2.244-5.76,8.742c0,0,7.662-1.563,12.117-0.343c7.201,9.982,33.77,18.755,62.643,18.657
	c-3.881,0.934-10.594,3.4-11.541,9.453c0,0,7.548-2.011,8.598-0.175c0,0-3.979,3.428-1.855,8.218c0,0,5.057-5.468,26.583-6.233
	c7.319,0.76,14.904,1.326,22.699,1.654c51.602,2.163,95.361-6.434,108.055-19.999c5.728,0.077,10.624,3.391,10.624,3.391
	c2.14-6.269-2.656-10.416-2.656-10.416C338.34,208.26,347.155,210.373,347.155,210.373z"/>
<g>
	<path fill="#DDA6CC" d="M263.108,191.734l3.126-59.731c0,0,0.391-34.698,21.488-34.698c21.097,0,21.487,35.137,21.487,35.137
		l5.079,59.292"/>
	<g>
		<path fill="#FFFFFF" d="M288.504,154.499c-7.392,0-9.839-23.551-10.159-32.625c-0.011-0.314-0.209-0.591-0.503-0.703
			c-0.09-0.034-0.184-0.051-0.277-0.051c-0.21,0-0.416,0.084-0.565,0.242c-3.257,3.418-6.055,4.135-7.828,4.135l0,0
			c-0.514,0-0.932-0.062-1.231-0.128c1.36-10.654,5.787-27.722,20.174-27.722c20.08,0,20.702,33.585,20.706,33.925l0.722,11.772
			c-8.88-1.918-9.681-8.498-9.711-8.786c-0.042-0.398-0.379-0.7-0.777-0.7c-0.009,0-0.018,0-0.027,0
			c-0.409,0.014-0.739,0.34-0.754,0.75C298.264,134.806,297.408,154.499,288.504,154.499z"/>
		<g>
			<path fill="#5CCAEF" d="M288.113,98.429c19.305,0,19.921,32.821,19.925,33.152c0,0.026,0.001,0.052,0.003,0.078l0.655,10.672
				c-7.34-2.046-8.061-7.603-8.088-7.847c-0.079-0.802-0.754-1.409-1.554-1.409c-0.016,0-0.032,0-0.048,0.001
				c-0.821,0.025-1.483,0.682-1.514,1.503c-0.202,5.323-2.209,19.139-8.987,19.139c-5.693,0-8.911-18.637-9.377-31.872
				c-0.022-0.628-0.419-1.182-1.007-1.406c-0.181-0.068-0.369-0.102-0.555-0.102c-0.419,0-0.831,0.169-1.131,0.484
				c-3.066,3.218-5.642,3.893-7.262,3.893c-0.125,0-0.244-0.004-0.355-0.011C270.253,114.277,274.655,98.429,288.113,98.429
				 M288.113,96.866c-15.514,0-19.831,19-21.029,29.057c0,0,0.773,0.356,2.087,0.356c1.899,0,4.93-0.743,8.394-4.378
				c0,0,1.172,33.379,10.939,33.379c9.767,0,10.549-20.643,10.549-20.643s0.781,7.905,11.33,9.663l-0.782-12.737
				C309.601,131.563,309.21,96.866,288.113,96.866L288.113,96.866z"/>
		</g>
	</g>
</g>
<path fill="#00A875" stroke="#267B8A" stroke-width="1.5628" stroke-linecap="round" stroke-linejoin="round" stroke-miterlimit="10" d="
	M254.633,195.103c0,0,7.226-18.45,33.362-18.45s33.055,18.636,33.055,18.636"/>
<g>
	<path fill="#DDA6CC" d="M228.729,197.593l3.006-41.024c0,0,0.376-23.831,20.668-23.831s20.668,24.133,20.668,24.133l4.885,40.722"
		/>
	<g>
		<path fill="#FFFFFF" d="M242.403,169.854c-2.277,0-4.19-0.783-5.685-2.326c-4.01-4.141-3.963-12.431-3.95-13.196
			c1.888-10.045,6.855-21.985,19.792-21.985c11.934,0,17.008,10.513,19.163,19.332l0,0c-0.002,0,0.699,4.647-1.456,7.17
			c-0.923,1.08-2.28,1.628-4.033,1.628c-7.16,0-10.165-9.132-10.194-9.224c-0.104-0.326-0.407-0.543-0.744-0.543
			c-0.027,0-0.054,0.001-0.082,0.004c-0.368,0.038-0.659,0.329-0.696,0.697C254.5,151.596,252.51,169.854,242.403,169.854z"/>
		<g>
			<path fill="#5CCAEF" d="M252.562,133.129c11.395,0,16.287,10.13,18.386,18.663c0.065,0.491,0.52,4.447-1.271,6.547
				c-0.778,0.913-1.904,1.356-3.441,1.356c-6.563,0-9.423-8.596-9.45-8.68c-0.208-0.653-0.814-1.086-1.487-1.086
				c-0.054,0-0.108,0.003-0.162,0.008c-0.736,0.077-1.317,0.659-1.394,1.395c-0.018,0.178-1.939,17.741-11.339,17.741
				c-2.084,0-3.758-0.681-5.118-2.083c-3.704-3.817-3.747-11.566-3.736-12.579C235.392,144.67,240.188,133.129,252.562,133.129
				 M252.562,131.566c-13.974,0-18.864,13.542-20.572,22.685c0,0-0.525,16.384,10.414,16.384s12.894-19.144,12.894-19.144
				s3.125,9.767,10.938,9.767c7.814,0,6.248-9.765,6.248-9.765C270.298,142.549,265.067,131.566,252.562,131.566L252.562,131.566z"
				/>
		</g>
	</g>
</g>
<path fill="#00A875" stroke="#267B8A" stroke-width="1.5628" stroke-linecap="round" stroke-linejoin="round" stroke-miterlimit="10" d="
	M222.218,203.433c0,0,6.716-14.76,31.008-14.76c24.291,0,30.721,14.909,30.721,14.909"/>
<g>
	
		<line fill="#FFFFFF" stroke="#D67823" stroke-width="3.9069" stroke-linecap="round" stroke-linejoin="round" stroke-miterlimit="10" x1="153.209" y1="190.951" x2="153.109" y2="175.218"/>
	<path fill="#B6D333" d="M138.803,157.094c0,0,1.361-42.213,14.86-42.213c13.5,0,13.853,42.213,13.853,42.213
		s-0.138,23.786-14.066,23.786S138.803,157.094,138.803,157.094z"/>
</g>
<g>
	
		<line fill="#FFFFFF" stroke="#D67823" stroke-width="3.9069" stroke-linecap="round" stroke-linejoin="round" stroke-miterlimit="10" x1="170.579" y1="206.972" x2="170.499" y2="194.449"/>
	<path fill="#B6D333" d="M159.111,180.024c0,0,1.084-33.598,11.828-33.598c10.745,0,11.026,33.598,11.026,33.598
		s-0.11,18.932-11.196,18.932S159.111,180.024,159.111,180.024z"/>
</g>
<g>
	
		<line fill="#FFFFFF" stroke="#D67823" stroke-width="3.9069" stroke-linecap="round" stroke-linejoin="round" stroke-miterlimit="10" x1="199.303" y1="194.08" x2="199.202" y2="178.347"/>
	<path fill="#B6D333" d="M184.896,160.223c0,0,1.361-42.214,14.86-42.214c13.5,0,13.853,42.214,13.853,42.214
		s-0.138,23.786-14.066,23.786C185.613,184.009,184.896,160.223,184.896,160.223z"/>
</g>
<path fill="#FCC20E" d="M52.347,368.996c0,0-10.488-27.429-32.398-30.71c14.086-17.063,3.811-44.476,3.811-44.476
	s21.23,2.375,37.149-24.752c18.507,16.174,42.513,13.612,42.513,13.612s-0.532,24.47,15.864,41.725
	c-22.656,14.041-22.61,38.493-22.73,38.419C76.285,350.174,52.347,368.996,52.347,368.996z"/>
<circle fill="#FFEF00" cx="67.679" cy="319.097" r="32.08"/>
</svg>
