<svg width="2084.568" height="1158.07" viewBox="0 0 551.542 306.406" xml:space="preserve" xmlns:xlink="http://www.w3.org/1999/xlink" xmlns="http://www.w3.org/2000/svg">
    <defs>
        <clipPath id="az">
            <path fill="url(#i)" fill-rule="evenodd" d="M-1401.4-527.92H552.9v1085.7h-1954.3z"/>
        </clipPath>
        <clipPath id="ay">
            <path fill="url(#i)" fill-rule="evenodd" d="M-1401.4-527.92H552.9v1085.7h-1954.3z"/>
        </clipPath>
        <clipPath id="ax">
            <path fill="url(#i)" fill-rule="evenodd" d="M-1401.4-527.92H552.9v1085.7h-1954.3z"/>
        </clipPath>
        <clipPath id="aw">
            <path fill="url(#i)" fill-rule="evenodd" d="M-1401.4-527.92H552.9v1085.7h-1954.3z"/>
        </clipPath>
        <clipPath id="au">
            <path fill="url(#i)" fill-rule="evenodd" d="M-1401.4-527.92H552.9v1085.7h-1954.3z"/>
        </clipPath>
        <clipPath id="at">
            <path fill="url(#i)" fill-rule="evenodd" d="M-1401.4-527.92H552.9v1085.7h-1954.3z"/>
        </clipPath>
        <clipPath id="as">
            <path fill="url(#i)" fill-rule="evenodd" d="M-1401.4-527.92H552.9v1085.7h-1954.3z"/>
        </clipPath>
        <clipPath id="aq">
            <path fill="url(#i)" fill-rule="evenodd" d="M-1401.4-527.92H552.9v1085.7h-1954.3z"/>
        </clipPath>
        <clipPath id="ap">
            <path fill="url(#i)" fill-rule="evenodd" d="M-1401.4-527.92H552.9v1085.7h-1954.3z"/>
        </clipPath>
        <clipPath id="ao">
            <path fill="url(#i)" fill-rule="evenodd" d="M-1401.4-527.92H552.9v1085.7h-1954.3z"/>
        </clipPath>
        <clipPath id="an">
            <path fill="url(#i)" fill-rule="evenodd" d="M-1401.4-527.92H552.9v1085.7h-1954.3z"/>
        </clipPath>
        <clipPath id="am">
            <path fill="url(#i)" fill-rule="evenodd" d="M-1401.4-527.92H552.9v1085.7h-1954.3z"/>
        </clipPath>
        <clipPath id="al">
            <path fill="url(#i)" fill-rule="evenodd" d="M-1401.4-527.92H552.9v1085.7h-1954.3z"/>
        </clipPath>
        <clipPath id="ak">
            <path transform="rotate(22.278)" fill="url(#k)" fill-rule="evenodd" d="M-2781.5-1447.2h4152.8V859.9h-4152.8z"/>
        </clipPath>
        <clipPath id="aj">
            <path fill="url(#i)" fill-rule="evenodd" d="M-1401.4-527.92H552.9v1085.7h-1954.3z"/>
        </clipPath>
        <clipPath id="ai">
            <path fill="url(#i)" fill-rule="evenodd" d="M-1401.4-527.92H552.9v1085.7h-1954.3z"/>
        </clipPath>
        <clipPath id="ah">
            <path fill="url(#i)" fill-rule="evenodd" d="M-1401.4-527.92H552.9v1085.7h-1954.3z"/>
        </clipPath>
        <clipPath id="ag">
            <path fill="url(#i)" fill-rule="evenodd" d="M-1401.4-527.92H552.9v1085.7h-1954.3z"/>
        </clipPath>
        <clipPath id="ae">
            <path fill="url(#i)" fill-rule="evenodd" d="M-1401.4-527.92H552.9v1085.7h-1954.3z"/>
        </clipPath>
        <clipPath id="ad">
            <path fill="url(#i)" fill-rule="evenodd" d="M-1401.4-527.92H552.9v1085.7h-1954.3z"/>
        </clipPath>
        <clipPath id="ac">
            <path fill="url(#i)" fill-rule="evenodd" d="M-1401.4-527.92H552.9v1085.7h-1954.3z"/>
        </clipPath>
        <clipPath id="ab">
            <path fill="url(#i)" fill-rule="evenodd" d="M-1401.4-527.92H552.9v1085.7h-1954.3z"/>
        </clipPath>
        <clipPath id="Z">
            <path fill="url(#i)" fill-rule="evenodd" d="M-1401.4-527.92H552.9v1085.7h-1954.3z"/>
        </clipPath>
        <clipPath id="X">
            <path fill="url(#i)" fill-rule="evenodd" d="M-1401.4-527.92H552.9v1085.7h-1954.3z"/>
        </clipPath>
        <clipPath id="V">
            <path fill="url(#i)" fill-rule="evenodd" d="M-1401.4-527.92H552.9v1085.7h-1954.3z"/>
        </clipPath>
        <clipPath id="T">
            <path fill="url(#i)" fill-rule="evenodd" d="M-1401.4-527.92H552.9v1085.7h-1954.3z"/>
        </clipPath>
        <clipPath id="R">
            <path fill="url(#i)" fill-rule="evenodd" d="M-1401.4-527.92H552.9v1085.7h-1954.3z"/>
        </clipPath>
        <clipPath id="P">
            <path fill="url(#i)" fill-rule="evenodd" d="M-1401.4-527.92H552.9v1085.7h-1954.3z"/>
        </clipPath>
        <clipPath id="O">
            <path fill="url(#i)" fill-rule="evenodd" d="M-1401.4-527.92H552.9v1085.7h-1954.3z"/>
        </clipPath>
        <clipPath id="M">
            <path fill="url(#i)" fill-rule="evenodd" d="M-1401.4-527.92H552.9v1085.7h-1954.3z"/>
        </clipPath>
        <clipPath id="K">
            <path fill="url(#i)" fill-rule="evenodd" d="M-1401.4-527.92H552.9v1085.7h-1954.3z"/>
        </clipPath>
        <clipPath id="I">
            <path fill="url(#i)" fill-rule="evenodd" d="M-1401.4-527.92H552.9v1085.7h-1954.3z"/>
        </clipPath>
        <clipPath id="G">
            <path fill="url(#i)" fill-rule="evenodd" d="M-1401.4-527.92H552.9v1085.7h-1954.3z"/>
        </clipPath>
        <clipPath id="E">
            <path fill="url(#i)" fill-rule="evenodd" d="M-1401.4-527.92H552.9v1085.7h-1954.3z"/>
        </clipPath>
        <clipPath id="C">
            <path fill="url(#i)" fill-rule="evenodd" d="M-1401.4-527.92H552.9v1085.7h-1954.3z"/>
        </clipPath>
        <clipPath id="A">
            <path fill="url(#i)" fill-rule="evenodd" d="M-1401.4-527.92H552.9v1085.7h-1954.3z"/>
        </clipPath>
        <clipPath id="y">
            <path fill="url(#i)" fill-rule="evenodd" d="M-1401.4-527.92H552.9v1085.7h-1954.3z"/>
        </clipPath>
        <clipPath id="x">
            <path fill="url(#i)" fill-rule="evenodd" d="M-1401.4-527.92H552.9v1085.7h-1954.3z"/>
        </clipPath>
        <clipPath id="w">
            <path transform="rotate(22.513)" fill="url(#l)" fill-rule="evenodd" d="M-11517-7220.4h36574v20319h-36574z"/>
        </clipPath>
        <clipPath id="u">
            <path fill="url(#i)" fill-rule="evenodd" d="M-1401.4-527.92H552.9v1085.7h-1954.3z"/>
        </clipPath>
        <clipPath id="s">
            <path fill="url(#i)" fill-rule="evenodd" d="M-1401.4-527.92H552.9v1085.7h-1954.3z"/>
        </clipPath>
        <clipPath id="r">
            <path fill="url(#i)" fill-rule="evenodd" d="M-1401.4-527.92H552.9v1085.7h-1954.3z"/>
        </clipPath>
        <clipPath id="q">
            <path fill="url(#i)" fill-rule="evenodd" d="M-1401.4-527.92H552.9v1085.7h-1954.3z"/>
        </clipPath>
        <clipPath id="p">
            <path fill="url(#i)" fill-rule="evenodd" d="M-1401.4-527.92H552.9v1085.7h-1954.3z"/>
        </clipPath>
        <clipPath id="o">
            <path fill="url(#i)" fill-rule="evenodd" d="M-1401.4-527.92H552.9v1085.7h-1954.3z"/>
        </clipPath>
        <clipPath id="m">
            <path fill="url(#i)" fill-rule="evenodd" d="M-1401.4-527.92H552.9v1085.7h-1954.3z"/>
        </clipPath>
        <linearGradient id="av" x1="232.59" x2="252.84" y1="1097" y2="1400.1" gradientTransform="translate(-881.58 237.83) scale(.14005)" gradientUnits="userSpaceOnUse" xlink:href="#a"/>
        <linearGradient id="a">
            <stop stop-color="#212121" offset="0"/>
            <stop stop-color="#33691e" stop-opacity="0" offset="1"/>
        </linearGradient>
        <linearGradient id="b">
            <stop stop-color="#fffde7" offset="0"/>
            <stop stop-color="#fffde7" stop-opacity="0" offset="1"/>
        </linearGradient>
        <linearGradient id="c">
            <stop stop-color="#c51162" offset="0"/>
            <stop stop-color="#c51162" stop-opacity="0" offset="1"/>
        </linearGradient>
        <linearGradient id="ar" x1="232.59" x2="252.84" y1="1097" y2="1400.1" gradientTransform="matrix(.29891 0 0 .40939 -726.35 -127.1)" gradientUnits="userSpaceOnUse" xlink:href="#a"/>
        <linearGradient id="af" x1="379.2" x2="466.05" y1="209.08" y2="377.65" gradientTransform="translate(-826.52 -267.31) scale(.64447)" gradientUnits="userSpaceOnUse" xlink:href="#d"/>
        <linearGradient id="d">
            <stop stop-color="#f6ee2c" offset="0"/>
            <stop stop-color="#f6ee2c" stop-opacity="0" offset="1"/>
        </linearGradient>
        <linearGradient id="aa" x1="1938" x2="1789.3" y1="481.28" y2="872.04" gradientTransform="matrix(-.11183 0 0 .11183 44.606 -166.67)" gradientUnits="userSpaceOnUse">
            <stop stop-color="#1de9b6" offset="0"/>
            <stop stop-color="#12b972" offset="1"/>
        </linearGradient>
        <linearGradient id="Y" x1="252.86" x2="258.54" y1="341.44" y2="441.53" gradientTransform="translate(-328.98 -276.78) scale(.4283)" gradientUnits="userSpaceOnUse" xlink:href="#e"/>
        <linearGradient id="e">
            <stop stop-color="#212121" offset="0"/>
            <stop stop-color="#212121" stop-opacity="0" offset="1"/>
        </linearGradient>
        <linearGradient id="W" x1="2371.3" x2="2089.2" y1="711.55" y2="1322.8" gradientTransform="matrix(-.11183 0 0 .11183 44.606 -166.67)" gradientUnits="userSpaceOnUse" xlink:href="#f"/>
        <linearGradient id="f">
            <stop stop-color="#ffeb62" offset="0"/>
            <stop stop-color="#f57f17" offset="1"/>
        </linearGradient>
        <linearGradient id="U" x1="781.1" x2="1001.4" y1="380.14" y2="317.28" gradientTransform="translate(-826.52 -267.31) scale(.64447)" gradientUnits="userSpaceOnUse" xlink:href="#d"/>
        <linearGradient id="S" x1="1843.8" x2="1866.8" y1="1031.2" y2="470.17" gradientTransform="matrix(-.11183 0 0 .11183 44.606 -166.67)" gradientUnits="userSpaceOnUse" xlink:href="#f"/>
        <linearGradient id="Q" x1="918.99" x2="1130.6" y1="23.601" y2="496.35" gradientTransform="translate(-623.28 -203.57) scale(.4283)" gradientUnits="userSpaceOnUse" xlink:href="#e"/>
        <linearGradient id="N" x1="232.59" x2="252.84" y1="1097" y2="1400.1" gradientTransform="translate(-327.78 -185.67) scale(.58016)" gradientUnits="userSpaceOnUse" xlink:href="#a"/>
        <linearGradient id="J" x1="-105.13" x2="-114.88" y1="523.71" y2="631.38" gradientTransform="translate(-389.89 -382.3) scale(.64447)" gradientUnits="userSpaceOnUse">
            <stop stop-color="#eeff41" offset="0"/>
            <stop stop-color="#efcc00" offset="1"/>
        </linearGradient>
        <linearGradient id="H" x1="-231.88" x2="-229.1" y1="538.66" y2="632.24" gradientTransform="translate(-388.28 -382.07) scale(.64447)" gradientUnits="userSpaceOnUse">
            <stop stop-color="#424242" offset="0"/>
            <stop stop-color="#424242" stop-opacity="0" offset="1"/>
        </linearGradient>
        <linearGradient id="F" x1="307.58" x2="363.46" y1="995.66" y2="2488.8" gradientTransform="translate(-474.26 -639.95)" gradientUnits="userSpaceOnUse" xlink:href="#g"/>
        <linearGradient id="g">
            <stop stop-color="#ddc417" offset="0"/>
            <stop stop-color="#9ed017" offset=".085"/>
            <stop stop-color="#33691e" offset="1"/>
        </linearGradient>
        <linearGradient id="D" x1="-495.99" x2="-522.84" y1="1006.1" y2="1790" gradientTransform="translate(-474.26 -639.95)" gradientUnits="userSpaceOnUse" xlink:href="#g"/>
        <linearGradient id="B" x1="-199.68" x2="314.15" y1="514.01" y2="675.18" gradientTransform="translate(-388.28 -382.07) scale(.64447)" gradientUnits="userSpaceOnUse">
            <stop stop-color="#f8ed3a" offset="0"/>
            <stop stop-color="#f0fa3b" offset=".131"/>
            <stop stop-color="#ffdd18" offset="1"/>
        </linearGradient>
        <linearGradient id="v" x1="-162.44" x2="-159.28" y1="997.98" y2="1240.4" gradientTransform="translate(-493.27 -670.26)" gradientUnits="userSpaceOnUse" xlink:href="#g"/>
        <linearGradient id="t" x1="605.71" x2="634.08" y1="667.24" y2="1483.6" gradientTransform="matrix(1.8839 0 0 .91176 -752.37 -394.66)" gradientUnits="userSpaceOnUse">
            <stop stop-color="#ddc417" offset="0"/>
            <stop stop-color="#9ed017" offset=".19"/>
            <stop stop-color="#33691e" offset=".509"/>
            <stop stop-color="#33691e" offset="1"/>
        </linearGradient>
        <linearGradient id="i" x1="-1782.9" x2="-1775.8" y1="203.22" y2="1386.2" gradientTransform="matrix(1.2214 0 0 1.1176 1788.3 -1004.1)" gradientUnits="userSpaceOnUse" xlink:href="#h"/>
        <linearGradient id="h">
            <stop stop-color="#68c9d9" offset="0"/>
            <stop stop-color="#73ceda" offset=".35"/>
            <stop stop-color="#a8e6e0" offset=".527"/>
            <stop stop-color="#b5ece2" offset=".623"/>
            <stop stop-color="#ddf7f1" offset=".817"/>
            <stop stop-color="#cef8e5" offset="1"/>
        </linearGradient>
        <linearGradient id="j" x1="-1782.9" x2="-1775.8" y1="203.22" y2="1386.2" gradientTransform="matrix(14.395 0 0 13.172 30838 -12616)" gradientUnits="userSpaceOnUse" xlink:href="#h"/>
        <linearGradient id="k" x1="-1782.9" x2="-1775.8" y1="203.22" y2="1386.2" gradientTransform="matrix(2.5955 0 0 2.375 3996.5 -2459.1)" gradientUnits="userSpaceOnUse" xlink:href="#h"/>
        <linearGradient id="l" x1="-1782.9" x2="-1775.8" y1="203.22" y2="1386.2" gradientTransform="matrix(22.858 0 0 20.916 48177 -16132)" gradientUnits="userSpaceOnUse" xlink:href="#h"/>
        <linearGradient xlink:href="#h" id="n" gradientUnits="userSpaceOnUse" gradientTransform="matrix(1.2214 0 0 1.1176 1788.3 -1004.1)" x1="-1782.9" y1="203.22" x2="-1775.8" y2="1386.2"/>
        <radialGradient id="L" cx="163.86" cy="596.39" r="223.24" gradientTransform="matrix(-.22704 1.4161 -1.6369 -.26244 733.11 -119.36)" gradientUnits="userSpaceOnUse">
            <stop stop-color="#ddc417" offset="0"/>
            <stop stop-color="#9ed017" offset=".254"/>
            <stop stop-color="#92c417" offset=".509"/>
            <stop stop-color="#33691e" offset="1"/>
        </radialGradient>
        <radialGradient id="z" cx="-334.35" cy="614.98" r="164.65" gradientTransform="matrix(-1.0625 .14975 -.13016 -.92347 -843.18 508.24)" gradientUnits="userSpaceOnUse">
            <stop stop-color="#c7dd17" offset="0"/>
            <stop stop-color="#9ed017" offset=".227"/>
            <stop stop-color="#92c417" offset=".367"/>
            <stop stop-color="#33691e" offset="1"/>
        </radialGradient>
    </defs>
    <g transform="matrix(.28222 0 0 .28222 395.503 148.99)" fill-rule="evenodd">
        <path clip-path="url(#m)" fill="url(#i)" style="fill:url(#n)" d="M-1401.4-527.92H552.9v1085.7h-1954.3z"/>
        <path d="M-1271.4 160.65c-46.374.011-86.273 32.797-95.273 78.289-16.624 2.516-30.847 9.14-39.34 18.324a137.144 137.144 0 0 0-65.387-16.613c-47.19.067-91.03 24.391-116.06 64.394a31.429 31.429 0 0 0-9.65-1.537 31.43 31.43 0 0 0-29.592 20.955 44.287 44.287 0 0 0-23.266-6.67 44.28 44.28 0 0 0-22.62 6.27 97.145 97.145 0 0 0-78.81-40.555c-2.485.01-4.968.114-7.444.314-19.602-59.781-75.357-100.23-138.27-100.31-80.476 0-145.72 65.239-145.71 145.71.001 80.476 65.24 145.71 145.71 145.71a145.71 145.71 0 0 0 79.33-23.529 97.14 97.14 0 0 0 66.383 26.387c43.977-.054 82.432-29.646 93.75-72.141 2.535.46 5.104.7 7.68.713a44.266 44.266 0 0 0 10.014-1.203c.195 18.51 20.235 34.695 49.094 39.648 24.222 43.246 69.895 70.056 119.46 70.125 57.439-.076 108.74-35.938 128.55-89.854 10.626 44.279 50.2 75.516 95.736 75.568a98.573 98.573 0 0 0 74.254-33.85c19.003 8.877 44.025 13.826 70.031 13.85 40.063-.024 76.452-11.678 93.252-29.863a52.855 52.855 0 0 0 24.174-20.402c2.129 30.345 17.985 53.282 36.859 53.32 19.712-.04 35.972-24.99 37.041-56.838a75.715 75.715 0 0 0 47.246 16.64 75.714 75.714 0 0 0 54.31-23.073 41.428 41.428 0 0 0 37.117 23.074c22.88 0 41.427-18.548 41.428-41.428 0-22.88-18.547-41.43-41.428-41.43a41.423 41.423 0 0 0-15.856 3.193c-2.1-40.21-35.306-71.745-68.693-70.483-33.387 1.262-16.933-17.414-16.879-36.995 0-38.66-62.68-70-140-70s-140 31.34-150 24.558-53.493-50.274-107.14-50.273z" clip-path="url(#o)" fill="#fff"/>
        <path d="M736.83 87.257c-46.374.011-86.273 32.797-95.274 78.289-16.624 2.516-30.847 9.14-39.34 18.324a137.144 137.144 0 0 0-65.387-16.613c-47.19.067-91.03 24.391-116.06 64.394a31.43 31.43 0 0 0-9.65-1.537 31.43 31.43 0 0 0-29.592 20.955 44.287 44.287 0 0 0-23.266-6.67 44.28 44.28 0 0 0-22.62 6.27 97.144 97.144 0 0 0-78.81-40.556c-2.484.01-4.967.115-7.443.315-19.6-59.781-75.357-100.23-138.27-100.31-80.476 0-145.72 65.239-145.71 145.71.001 80.476 65.24 145.71 145.71 145.71a145.71 145.71 0 0 0 79.33-23.529 97.14 97.14 0 0 0 66.383 26.387c43.977-.054 82.432-29.646 93.75-72.141 2.534.46 5.104.7 7.68.713a44.266 44.266 0 0 0 10.014-1.203c.195 18.51 20.235 34.695 49.094 39.648 24.222 43.246 69.895 70.056 119.46 70.125 57.439-.076 108.74-35.938 128.55-89.854 10.626 44.279 50.2 75.516 95.736 75.568a98.573 98.573 0 0 0 74.254-33.85c19.003 8.877 44.025 13.826 70.03 13.85 40.064-.024 76.453-11.678 93.253-29.863a52.86 52.86 0 0 0 24.174-20.402c2.129 30.345 17.985 53.282 36.859 53.32 19.712-.04 35.972-24.99 37.04-56.838a75.715 75.715 0 0 0 47.247 16.64 75.714 75.714 0 0 0 54.31-23.073 41.428 41.428 0 0 0 37.117 23.074c22.88 0 41.427-18.548 41.428-41.428 0-22.88-18.547-41.43-41.428-41.43a41.423 41.423 0 0 0-15.856 3.193c-2.1-40.21-35.306-71.745-68.693-70.483-33.387 1.262-16.933-17.414-16.88-36.995 0-38.66-62.68-70-140-70s-140 31.34-150 24.558-53.492-50.274-107.14-50.273z" clip-path="url(#p)" fill="#fff"/>
        <path d="M244.48 198.8c-46.374.011-86.273 32.797-95.274 78.289-16.624 2.516-30.847 9.14-39.34 18.324A137.144 137.144 0 0 0 44.479 278.8c-47.19.067-91.03 24.391-116.06 64.394a31.43 31.43 0 0 0-9.65-1.537 31.43 31.43 0 0 0-29.592 20.955 44.287 44.287 0 0 0-23.266-6.67 44.28 44.28 0 0 0-22.62 6.27 97.144 97.144 0 0 0-78.81-40.555c-2.484.01-4.967.114-7.443.314-19.6-59.781-75.357-100.23-138.27-100.31-80.476 0-145.72 65.239-145.71 145.71.001 80.476 65.24 145.71 145.71 145.71a145.71 145.71 0 0 0 79.33-23.529 97.14 97.14 0 0 0 66.383 26.387c43.977-.054 82.432-29.646 93.75-72.141 2.534.46 5.104.7 7.68.713a44.266 44.266 0 0 0 10.014-1.203c.195 18.51 20.235 34.695 49.094 39.648 24.222 43.246 69.895 70.056 119.46 70.125 57.439-.076 108.74-35.938 128.55-89.854 10.626 44.279 50.2 75.516 95.736 75.568a98.573 98.573 0 0 0 74.254-33.85c19.003 8.877 44.025 13.826 70.03 13.85 40.064-.024 76.453-11.678 93.253-29.863a52.855 52.855 0 0 0 24.174-20.402c2.129 30.345 17.985 53.282 36.859 53.32 19.712-.04 35.972-24.99 37.04-56.838a75.715 75.715 0 0 0 47.247 16.64 75.714 75.714 0 0 0 54.31-23.073 41.428 41.428 0 0 0 37.117 23.074c22.88 0 41.427-18.548 41.428-41.428 0-22.88-18.547-41.43-41.428-41.43a41.423 41.423 0 0 0-15.856 3.193c-2.1-40.21-35.306-71.745-68.693-70.483-33.387 1.262-16.933-17.414-16.88-36.995 0-38.66-62.68-70-140-70s-140 31.34-150 24.558-53.492-50.274-107.14-50.273z" clip-path="url(#q)" fill="#fff"/>
        <path d="M-464.64 99.81c-46.374.011-104.46 30.777-113.46 76.269-16.624 2.516-30.847 9.14-39.34 18.324a137.144 137.144 0 0 0-65.387-16.613c-47.19.067-91.03 24.391-116.06 64.394a31.428 31.428 0 0 0-9.65-1.537 31.43 31.43 0 0 0-29.592 20.955 44.287 44.287 0 0 0-23.266-6.67 44.283 44.283 0 0 0-22.62 6.27 97.145 97.145 0 0 0-78.81-40.555 97.32 97.32 0 0 0-7.444.314c-19.602-59.781-75.357-100.23-138.27-100.31-80.476 0-145.72 65.239-145.71 145.71.001 80.476 65.24 145.71 145.71 145.71a145.713 145.713 0 0 0 79.33-23.529 97.14 97.14 0 0 0 66.383 26.387c43.977-.054 82.432-29.646 93.75-72.141 2.535.46 5.104.7 7.68.713a44.266 44.266 0 0 0 10.014-1.203c.195 18.51 20.235 34.695 49.094 39.648 24.222 43.246 69.895 70.056 119.46 70.125 57.44-.076 108.74-35.938 128.55-89.854 10.626 44.279 50.2 75.516 95.736 75.568a98.573 98.573 0 0 0 74.254-33.85c19.003 8.877 44.025 13.826 70.031 13.85 40.063-.024 76.452-11.678 93.252-29.863a52.855 52.855 0 0 0 24.174-20.402c2.129 30.345 17.985 53.282 36.86 53.32 19.711-.04 35.971-24.99 37.04-56.838a75.713 75.713 0 0 0 47.246 16.64 75.714 75.714 0 0 0 54.31-23.073 41.428 41.428 0 0 0 37.117 23.074c22.88 0 41.427-18.548 41.428-41.428 0-22.88-18.547-41.43-41.428-41.43a41.423 41.423 0 0 0-15.856 3.193c-1.863-35.673-15.579-69.567-55.717-82.4-4.812-1.538-7.44-22.343-10.278-26.54-25.133-37.198-82.257-68.538-159.58-68.538-77.32 0-140 31.34-150 24.558s-35.31-48.254-88.962-48.253z" clip-path="url(#r)" fill="#fff"/>
        <ellipse cx="437.17" cy="832.65" rx="1437.1" ry="531.43" clip-path="url(#s)" fill="url(#t)" style="fill:url(#t)"/>
        <ellipse cx="-846.07" cy="529.75" rx="637.98" ry="196.55" clip-path="url(#u)" fill="url(#v)" style="fill:url(#v)"/>
        <g transform="matrix(.04936 -.02046 .02046 .04936 -786.02 -142.11)" clip-path="url(#w)" opacity=".92">
            <path d="M2425.2 325.84c-10.585 136.21-35.731 302.1 27.878 385.39-224.12 112.09-448.24 35.345-672.36 53.018l-54.548-422.24 78.792 224.25 337.39 36.365c94.295-92.189 193.77-158.49 282.84-276.78z" fill="#263238"/>
            <path d="m1732.2 1035-4.04-299.01c84.852 0 428.3 24.244 428.3 24.244v303.05z" fill="#ffeb62"/>
            <path d="m2320.934 507.806-161.173 247.68-5.511 1.19-2.847 305.703 231.43-94.296-3.138-255.879z" fill="#ffeb62"/>
            <path d="M2155.9 786.36c-92.714 48.837-406.16 10.079-538.24-40.347 69.55-89.042 114.79-268.24 105.46-415.12 0 0 86.258 162.51 163.92 199.77 81.952 39.318 186.6 32.206 272.67 3 107.33-36.416 267.53-209.87 267.53-209.87-64.556 148.37-166 362.74-271.34 462.57z" fill="#d56a00"/>
            <path d="M2299.9 821.23c-2.447-.025-5.051.365-7.754 1.215l-2.51.789c-14.415 4.53-26.02 20.34-26.02 35.45v158.3l54.55-22.224V841.54c0-12.277-7.662-20.202-18.267-20.312z" fill="#f57f17" opacity="1"/>
        </g>
        <path d="M-732.56-56.002a16.009 16.009 0 0 0-1.592-.163 16.009 16.009 0 0 0-14.838 8.282 13.214 13.214 0 0 0-3.991-.843 13.214 13.214 0 0 0-12.828 8.027 9.148 9.148 0 0 0-.816-.083 9.148 9.148 0 0 0-9.609 8.662 9.148 9.148 0 0 0 8.662 9.609 9.148 9.148 0 0 0 6.395-2.17 13.214 13.214 0 0 0 4.42 1.988 9.148 9.148 0 0 0 8.209 6.256 9.148 9.148 0 0 0 3.583-.542 9.402 9.402 0 0 0 7.652 4.687 9.402 9.402 0 0 0 9.207-5.9 10.711 10.711 0 0 0 9.454 6.916 10.711 10.711 0 0 0 10.124-5.898 12.636 12.636 0 0 0 12.138-11.964 12.636 12.636 0 0 0-9.192-12.805 6.353 6.353 0 0 0-5.983-5.656 6.353 6.353 0 0 0-3.27.721 6.191 6.191 0 0 0-5.177-3.352 6.191 6.191 0 0 0-2.285.314 16.009 16.009 0 0 0-10.263-6.087zm14.088 17.857a12.636 12.636 0 0 0-.814 1.026 16.009 16.009 0 0 0 .153-.86 6.191 6.191 0 0 0 .661-.166zm-9.653 12.419a10.711 10.711 0 0 0-.092.27 9.402 9.402 0 0 0-.085-.18 16.009 16.009 0 0 0 .178-.09z" clip-path="url(#x)" fill="#fff" opacity=".707"/>
        <circle cx="-609.73" cy="-46.43" r="106.12" clip-path="url(#y)" fill="url(#z)" opacity=".92" style="fill:url(#z)"/>
        <path d="m-555.6-45.959 281.99 123.11 87.682-10.956-336.01-115.34z" clip-path="url(#A)" fill="url(#B)" style="fill:url(#B)"/>
        <ellipse cx="-1451.2" cy="665.74" rx="903.08" ry="294.96" clip-path="url(#C)" fill="url(#D)" style="fill:url(#D)"/>
        <ellipse cx="68.029" cy="827.36" rx="1238.4" ry="404.06" clip-path="url(#E)" fill="url(#F)" style="fill:url(#F)"/>
        <path d="m-555.78-15.333 6.912 55.668A106.119 106.119 0 0 0-512.99-3.051l-2.348-13.433z" clip-path="url(#G)" fill="url(#H)" opacity=".92" style="fill:url(#H)"/>
        <path d="M-555.61-46.023v31.303c106.49 4.896 195.62 79.265 285.41 150.99l-2.762-60.764z" clip-path="url(#I)" fill="url(#J)" style="fill:url(#J)"/>
        <circle cx="-193.09" cy="73.356" r="143.87" clip-path="url(#K)" fill="url(#L)" style="fill:url(#L)"/>
        <ellipse cx="-195.18" cy="562.11" rx="159.13" ry="53.043" clip-path="url(#M)" fill="url(#N)" opacity=".196" style="fill:url(#N)"/>
        <path d="M-226.6-130.24c1.184 15.232 3.996 33.783-3.118 43.097 25.063 12.534 50.125 3.953 75.188 5.929l6.1-47.218-8.81 25.078-37.73 4.066c-10.546-10.309-21.669-17.724-31.63-30.952z" clip-path="url(#O)" fill="#263238"/>
        <path d="m-151.54-55.13-48.336 4.283 18.979 28.089-.624.056c1.747 7.995 4.519 15.884 2.448 23.863 0 0 14.18-6.102 21.678-7.721 8.546-1.846 16.902-4.853 26.138-2.179 10.676 1.456 21.936 4.393 21.936 4.393-5.787-8.07-10.92-17.772-17.744-23.25l-1.813-.096c-3-9.447-13.682-18.445-22.663-27.439z" clip-path="url(#P)" fill="url(#Q)" style="fill:url(#Q)"/>
        <path d="m-149.11-50.936.452-33.437c-9.489 0-47.896 2.711-47.896 2.711v33.89z" clip-path="url(#R)" fill="url(#S)" style="fill:url(#S)"/>
        <path d="M-217.04-56.84c-23.613 3.634-52.356 11.246-75.6 26.385a143.858 143.858 0 0 0-30.49 42.658c42.199-34.63 62.588-49.545 117.14-64.902z" clip-path="url(#T)" fill="url(#U)" style="fill:url(#U)"/>
        <path d="m-215.49-109.71-6.415 23.344.056 27.994 25.88 10.544-.32-34.187-1.367-.294z" clip-path="url(#V)" fill="url(#W)" style="fill:url(#W)"/>
        <path d="m-224.78-85.735 31.8 9.302-24.229-39.588z" clip-path="url(#X)" fill="url(#Y)" style="fill:url(#Y)"/>
        <path d="M-196.48-78.737c10.368 5.461 45.42 1.127 60.19-4.512-7.777-9.957-12.837-29.996-11.794-46.422 0 0-9.646 18.173-18.331 22.34-9.165 4.397-20.866 3.602-30.492.336-12.003-4.073-29.917-23.47-29.917-23.47 7.22 16.592 18.563 40.564 30.344 51.728z" clip-path="url(#Z)" fill="url(#aa)" style="fill:url(#aa)"/>
        <path d="M-212.58-74.838c.274 0 .565.041.867.136l.28.088c1.613.507 2.91 2.275 2.91 3.964v17.703l-6.1-2.485v-17.134c0-1.373.857-2.26 2.043-2.272z" clip-path="url(#ab)" fill="#f57f17"/>
        <circle cx="-181.86" cy="-66.334" r="4.411" clip-path="url(#ac)" fill="#f57f17"/>
        <circle cx="-158.92" cy="-66.946" r="4.411" clip-path="url(#ad)" fill="#f57f17"/>
        <path d="M-613.37-152.42a106.12 106.12 0 0 0-28.608 5.022c44.847 5.546 86.104 15.072 87.463 102.82l33.874-4.739c-4.853-44.694-19.722-100.54-92.728-103.1z" clip-path="url(#ae)" fill="url(#af)" opacity=".92" style="fill:url(#af)"/>
        <path d="M-1152.1-212.85a54.627 56.794 0 0 0-5.449.37 54.627 56.794 0 0 0-45.23 37.722 45.089 46.877 0 0 0-13.908-.596 45.089 46.877 0 0 0-38.61 35.645 31.216 32.454 0 0 0-2.794.192 31.216 32.454 0 0 0-27.418 35.969 31.216 32.454 0 0 0 34.597 28.505 31.216 32.454 0 0 0 20.286-11.358 45.089 46.877 0 0 0 16.001 4.344 31.216 32.454 0 0 0 31.17 17.047 31.216 32.454 0 0 0 11.75-4.01 32.083 33.355 0 0 0 28.406 11.885 32.083 33.355 0 0 0 27.633-26.072 36.549 37.998 0 0 0 35.734 18.621 36.549 37.998 0 0 0 30.721-26.601 43.119 44.829 0 0 0 34.057-49.01 43.119 44.829 0 0 0-38.192-39.375 21.678 22.537 0 0 0-23.34-16.26 21.678 22.537 0 0 0-10.593 4.452 21.126 21.964 0 0 0-19.324-8.673 21.126 21.964 0 0 0-7.51 2.444 54.627 56.794 0 0 0-37.988-15.241zm57.532 54.163a43.119 44.829 0 0 0-2.156 4.068 54.627 56.794 0 0 0 .027-3.095 21.126 21.964 0 0 0 2.13-.973zm-25.436 49.136a36.549 37.998 0 0 0-.158 1 32.083 33.355 0 0 0-.389-.582 54.627 56.794 0 0 0 .547-.418z" clip-path="url(#ag)" fill="#fff" opacity=".707"/>
        <path d="M11.417-217.67a31.82 31.82 0 0 0-3.164-.323 31.82 31.82 0 0 0-29.492 16.462 26.264 26.264 0 0 0-7.933-1.676 26.264 26.264 0 0 0-25.497 15.955 18.183 18.183 0 0 0-1.622-.165A18.183 18.183 0 0 0-75.39-170.2a18.183 18.183 0 0 0 17.218 19.098 18.183 18.183 0 0 0 12.71-4.31 26.264 26.264 0 0 0 8.786 3.948 18.183 18.183 0 0 0 16.316 12.436 18.183 18.183 0 0 0 7.122-1.077 18.688 18.688 0 0 0 15.21 9.316 18.688 18.688 0 0 0 18.3-11.729 21.289 21.289 0 0 0 18.79 13.748 21.289 21.289 0 0 0 20.124-11.723 25.116 25.116 0 0 0 24.126-23.78 25.116 25.116 0 0 0-18.27-25.451 12.627 12.627 0 0 0-11.892-11.242 12.627 12.627 0 0 0-6.499 1.434 12.306 12.306 0 0 0-10.292-6.663 12.306 12.306 0 0 0-4.542.623 31.82 31.82 0 0 0-20.4-12.098zm28.002 35.494a25.116 25.116 0 0 0-1.617 2.039 31.82 31.82 0 0 0 .303-1.708 12.306 12.306 0 0 0 1.314-.331zm-19.186 24.684a21.289 21.289 0 0 0-.184.537 18.688 18.688 0 0 0-.169-.359 31.82 31.82 0 0 0 .353-.178z" clip-path="url(#ah)" fill="#fff" opacity=".707"/>
        <path d="M-883.54-362.21a120.71 13.571 0 0 0-78.838 3.316 80.714 7.857 0 0 0-26.877-.459 80.714 7.857 0 0 0-80.715 7.858 80.714 7.857 0 0 0 17.951 4.935 184.29 14.286 0 0 0-38.613 4.42 80 9.286 0 0 0-9.338-.07 80 9.286 0 0 0-80 9.285 80 9.286 0 0 0 3.514 2.694 155 4.643 0 0 0-82.084 4.094 155 4.643 0 0 0 155 4.642 155 4.643 0 0 0 20.766-.047 172.86 7.857 0 0 0-.053.047 172.86 7.857 0 0 0 172.86 7.858 172.86 7.857 0 0 0 108.97-1.764 104.29 12.143 0 0 0 53.883 1.764 104.29 12.143 0 0 0 102.56-10 52.857 5 0 0 0 .299 0 52.857 5 0 0 0 52.857-5 52.857 5 0 0 0-52.857-5 52.857 5 0 0 0-20.6.4 104.29 12.143 0 0 0-73.293-4.635 184.29 14.286 0 0 0-30.58-6.6 120.71 13.571 0 0 0 5.9-4.165 120.71 13.571 0 0 0-120.71-13.572z" clip-path="url(#ai)" fill="#fff" opacity=".707"/>
        <path d="M-1013.2-302.21a60.357 8.571 0 0 0-60.357 8.572 60.357 8.571 0 0 0 .353.844 90.685 4.23 0 0 0-68.885 4.102 90.685 4.23 0 0 0 .027.025 81.317 2.5 0 0 0-10.893-.025 81.317 2.5 0 0 0-81.318 2.5 81.317 2.5 0 0 0 43.064 2.203 41.97 5 0 0 0-1.843 1.449 41.97 5 0 0 0 41.97 5 41.97 5 0 0 0 4.9-.037 96.681 7.692 0 0 0 88.782 4.652 96.681 7.692 0 0 0 96.137-6.95 54.711 6.538 0 0 0 38.451-2.495 27.73 2.692 0 0 0 10.807.215 27.73 2.692 0 0 0 27.73-2.692 27.73 2.692 0 0 0-27.73-2.693 27.73 2.692 0 0 0-.156 0 54.711 6.538 0 0 0-41.037-5.195 60.357 8.571 0 0 0 .351-.905 60.357 8.571 0 0 0-60.355-8.572z" clip-path="url(#aj)" fill="#fff" opacity=".707"/>
        <g transform="matrix(.43547 -.1784 .1784 .43547 -92.436 153.12)" clip-path="url(#ak)">
            <path d="M2699.5-325.59c-10.585 136.21-35.731 302.1 27.878 385.39-224.12 112.09-448.24 35.345-672.36 53.018l-54.548-422.24 78.792 224.25 337.39 36.365c94.295-92.189 193.77-158.49 282.84-276.78z" fill="#263238" stroke="#000"/>
            <path d="m2006.5 383.54-4.04-299.01c84.852 0 428.3 24.244 428.3 24.244v303.05z" fill="#ffeb62" stroke="#000"/>
            <path d="m2428.5 105.59 225.71-48.571 2.857 260-231.43 94.286z" fill="#ffeb62" stroke="#000"/>
            <path d="m2426.8 104.74 165.67-254.56 60.609 208.09z" fill="#ffeb62" stroke="#000"/>
            <path d="M2430.2 134.94c-92.714 48.837-406.16 10.079-538.24-40.347 69.55-89.042 114.79-268.24 105.46-415.12 0 0 86.258 162.51 163.92 199.77 81.952 39.318 186.6 32.206 272.67 3 107.33-36.416 267.53-209.87 267.53-209.87-64.556 148.37-166 362.74-271.34 462.57z" fill="#1de9b6" stroke="#000"/>
            <path d="M2574.2 169.8c-2.447-.025-5.051.365-7.754 1.215l-2.51.789c-14.415 4.53-26.02 20.34-26.02 35.45v158.3l54.55-22.224V190.11c0-12.277-7.662-20.202-18.267-20.312z" fill="#f57f17"/>
        </g>
        <path d="M-848.58 59.469a31.82 31.82 0 0 0-3.164-.323 31.82 31.82 0 0 0-29.492 16.462 26.264 26.264 0 0 0-7.933-1.676 26.264 26.264 0 0 0-25.497 15.955 18.183 18.183 0 0 0-1.622-.165 18.183 18.183 0 0 0-19.098 17.217 18.183 18.183 0 0 0 17.217 19.098 18.183 18.183 0 0 0 12.71-4.31 26.264 26.264 0 0 0 8.786 3.948 18.183 18.183 0 0 0 16.316 12.436 18.183 18.183 0 0 0 7.122-1.077 18.688 18.688 0 0 0 15.21 9.316 18.688 18.688 0 0 0 18.3-11.729 21.289 21.289 0 0 0 18.79 13.748 21.289 21.289 0 0 0 20.124-11.723 25.116 25.116 0 0 0 24.126-23.78 25.116 25.116 0 0 0-18.27-25.451 12.627 12.627 0 0 0-11.892-11.242 12.627 12.627 0 0 0-6.499 1.434 12.306 12.306 0 0 0-10.292-6.663 12.306 12.306 0 0 0-4.542.623 31.82 31.82 0 0 0-20.4-12.098zm28.002 35.494a25.116 25.116 0 0 0-1.617 2.039 31.82 31.82 0 0 0 .303-1.708 12.306 12.306 0 0 0 1.314-.331zm-19.186 24.684a21.289 21.289 0 0 0-.184.537 18.688 18.688 0 0 0-.169-.359 31.82 31.82 0 0 0 .353-.178z" clip-path="url(#al)" fill="#fff" opacity=".707"/>
        <path d="M23.487-567.93a253.58 45.503 0 0 0-165.61 11.12 169.55 26.344 0 0 0-56.459-1.539 169.55 26.344 0 0 0-169.55 26.345 169.55 26.344 0 0 0 37.709 16.548 387.12 47.899 0 0 0-81.113 14.82 168.05 31.134 0 0 0-19.616-.236 168.05 31.134 0 0 0-168.05 31.132 168.05 31.134 0 0 0 7.38 9.031 325.6 15.567 0 0 0-172.43 13.726 325.6 15.567 0 0 0 325.6 15.566 325.6 15.567 0 0 0 43.622-.157 363.11 26.345 0 0 0-.11.157 363.11 26.345 0 0 0 363.11 26.345 363.11 26.345 0 0 0 228.92-5.913 219.07 40.714 0 0 0 113.19 5.913A219.07 40.714 0 0 0 525.52-438.6a111.03 16.765 0 0 0 .627 0 111.03 16.765 0 0 0 111.03-16.764 111.03 16.765 0 0 0-111.03-16.764 111.03 16.765 0 0 0-43.272 1.342 219.07 40.714 0 0 0-153.96-15.54 387.12 47.899 0 0 0-64.238-22.128 253.58 45.503 0 0 0 12.395-13.968 253.58 45.503 0 0 0-253.57-45.506z" clip-path="url(#am)" fill="#fff" opacity=".707"/>
        <path d="M153.6-330.78a120.71 13.571 0 0 0-78.838 3.316 80.714 7.857 0 0 0-26.877-.459 80.714 7.857 0 0 0-80.715 7.858 80.714 7.857 0 0 0 17.951 4.935 184.29 14.286 0 0 0-38.613 4.42 80 9.286 0 0 0-9.338-.07 80 9.286 0 0 0-80 9.285 80 9.286 0 0 0 3.514 2.694 155 4.643 0 0 0-82.084 4.094 155 4.643 0 0 0 155 4.642 155 4.643 0 0 0 20.766-.047 172.86 7.857 0 0 0-.053.047 172.86 7.857 0 0 0 172.86 7.858 172.86 7.857 0 0 0 108.97-1.764 104.29 12.143 0 0 0 53.883 1.764 104.29 12.143 0 0 0 102.56-10 52.857 5 0 0 0 .299 0 52.857 5 0 0 0 52.857-5 52.857 5 0 0 0-52.857-5 52.857 5 0 0 0-20.6.4 104.29 12.143 0 0 0-73.293-4.635 184.29 14.286 0 0 0-30.58-6.6 120.71 13.571 0 0 0 5.9-4.165 120.71 13.571 0 0 0-120.71-13.572z" clip-path="url(#an)" fill="#fff" opacity=".707"/>
        <path d="M218.33-68.858a53.201 53.201 0 0 0-5.29-.54 53.201 53.201 0 0 0-49.31 27.522 43.912 43.912 0 0 0-13.264-2.802 43.912 43.912 0 0 0-42.63 26.676 30.401 30.401 0 0 0-2.712-.275A30.401 30.401 0 0 0 73.193 10.51a30.401 30.401 0 0 0 28.787 31.931 30.401 30.401 0 0 0 21.25-7.207 43.912 43.912 0 0 0 14.69 6.602 30.401 30.401 0 0 0 27.28 20.792 30.401 30.401 0 0 0 11.908-1.801 31.245 31.245 0 0 0 25.43 15.576 31.245 31.245 0 0 0 30.595-19.61 35.595 35.595 0 0 0 31.417 22.986 35.595 35.595 0 0 0 33.645-19.6 41.993 41.993 0 0 0 40.338-39.758 41.993 41.993 0 0 0-30.546-42.554 21.112 21.112 0 0 0-19.884-18.797 21.112 21.112 0 0 0-10.866 2.397 20.574 20.574 0 0 0-17.207-11.14 20.574 20.574 0 0 0-7.593 1.042 53.201 53.201 0 0 0-34.108-20.228zm46.817 59.344a41.993 41.993 0 0 0-2.704 3.409 53.201 53.201 0 0 0 .508-2.855 20.574 20.574 0 0 0 2.196-.554zm-32.078 41.27a35.595 35.595 0 0 0-.307.899 31.245 31.245 0 0 0-.283-.601 53.201 53.201 0 0 0 .59-.298z" clip-path="url(#ao)" fill="#fff" opacity=".707"/>
        <path d="M-360.08-187.65a10.855 10.855 0 0 0-1.08-.11 10.855 10.855 0 0 0-10.06 5.615 8.96 8.96 0 0 0-2.707-.571 8.96 8.96 0 0 0-8.698 5.442 6.203 6.203 0 0 0-.553-.056 6.203 6.203 0 0 0-6.515 5.874 6.203 6.203 0 0 0 5.873 6.515 6.203 6.203 0 0 0 4.336-1.47 8.96 8.96 0 0 0 2.997 1.347 6.203 6.203 0 0 0 5.566 4.242 6.203 6.203 0 0 0 2.43-.368 6.375 6.375 0 0 0 5.189 3.178 6.375 6.375 0 0 0 6.242-4 7.263 7.263 0 0 0 6.41 4.69 7.263 7.263 0 0 0 6.865-4 8.568 8.568 0 0 0 8.23-8.112 8.568 8.568 0 0 0-6.232-8.683 4.308 4.308 0 0 0-4.057-3.835 4.308 4.308 0 0 0-2.217.49 4.198 4.198 0 0 0-3.51-2.273 4.198 4.198 0 0 0-1.55.212 10.855 10.855 0 0 0-6.96-4.127zm9.552 12.108a8.568 8.568 0 0 0-.551.696 10.855 10.855 0 0 0 .103-.583 4.198 4.198 0 0 0 .448-.113zm-6.545 8.42a7.263 7.263 0 0 0-.063.184 6.375 6.375 0 0 0-.058-.123 10.855 10.855 0 0 0 .12-.06z" clip-path="url(#ap)" fill="#fff" opacity=".707"/>
        <ellipse cx="-658.03" cy="400.58" rx="81.985" ry="37.43" clip-path="url(#aq)" fill="url(#ar)" opacity=".202" style="fill:url(#ar)"/>
        <path d="M-695.27-226.52a7.384 7.384 0 0 0-.734-.075 7.384 7.384 0 0 0-6.844 3.82 6.095 6.095 0 0 0-1.84-.389 6.095 6.095 0 0 0-5.918 3.702 4.22 4.22 0 0 0-.376-.038 4.22 4.22 0 0 0-4.432 3.996 4.22 4.22 0 0 0 3.996 4.431 4.22 4.22 0 0 0 2.949-1 6.095 6.095 0 0 0 2.039.917 4.22 4.22 0 0 0 3.786 2.885 4.22 4.22 0 0 0 1.653-.25 4.337 4.337 0 0 0 3.53 2.162 4.337 4.337 0 0 0 4.246-2.722 4.94 4.94 0 0 0 4.36 3.19 4.94 4.94 0 0 0 4.67-2.72 5.828 5.828 0 0 0 5.598-5.518 5.828 5.828 0 0 0-4.24-5.906 2.93 2.93 0 0 0-2.76-2.609 2.93 2.93 0 0 0-1.507.333 2.856 2.856 0 0 0-2.388-1.546 2.856 2.856 0 0 0-1.054.145 7.384 7.384 0 0 0-4.734-2.808zm6.498 8.236a5.828 5.828 0 0 0-.375.473 7.384 7.384 0 0 0 .07-.396 2.856 2.856 0 0 0 .305-.077zm-4.452 5.728a4.94 4.94 0 0 0-.043.125 4.337 4.337 0 0 0-.04-.083 7.384 7.384 0 0 0 .083-.041z" clip-path="url(#as)" fill="#fff" opacity=".707"/>
        <path d="M-719.58-213.76a5.017 5.017 0 0 0-.499-.051 5.017 5.017 0 0 0-4.65 2.595 4.14 4.14 0 0 0-1.25-.264 4.14 4.14 0 0 0-4.02 2.516 2.867 2.867 0 0 0-.256-.026 2.867 2.867 0 0 0-3.01 2.714 2.867 2.867 0 0 0 2.714 3.011 2.867 2.867 0 0 0 2.003-.68 4.14 4.14 0 0 0 1.386.623 2.867 2.867 0 0 0 2.572 1.96 2.867 2.867 0 0 0 1.123-.168 2.946 2.946 0 0 0 2.398 1.468 2.946 2.946 0 0 0 2.885-1.849 3.357 3.357 0 0 0 2.962 2.168 3.357 3.357 0 0 0 3.173-1.848 3.96 3.96 0 0 0 3.804-3.75 3.96 3.96 0 0 0-2.88-4.012 1.99 1.99 0 0 0-1.876-1.772 1.99 1.99 0 0 0-1.024.226 1.94 1.94 0 0 0-1.623-1.05 1.94 1.94 0 0 0-.716.097 5.017 5.017 0 0 0-3.216-1.907zm4.415 5.596a3.96 3.96 0 0 0-.255.322 5.017 5.017 0 0 0 .048-.27 1.94 1.94 0 0 0 .207-.05zm-3.025 3.892a3.357 3.357 0 0 0-.03.086 2.946 2.946 0 0 0-.026-.056 5.017 5.017 0 0 0 .056-.028z" clip-path="url(#at)" fill="#fff" opacity=".707"/>
        <ellipse cx="-849.56" cy="418.35" rx="38.414" ry="12.805" clip-path="url(#au)" fill="url(#av)" opacity=".307" style="fill:url(#av)"/>
        <path d="M-499.48 9.83a10.855 10.855 0 0 0-1.08-.11 10.855 10.855 0 0 0-10.06 5.616 8.96 8.96 0 0 0-2.707-.572 8.96 8.96 0 0 0-8.698 5.443 6.203 6.203 0 0 0-.553-.056 6.203 6.203 0 0 0-6.515 5.874 6.203 6.203 0 0 0 5.873 6.515 6.203 6.203 0 0 0 4.336-1.47 8.96 8.96 0 0 0 2.997 1.346 6.203 6.203 0 0 0 5.566 4.243 6.203 6.203 0 0 0 2.43-.368 6.375 6.375 0 0 0 5.189 3.178 6.375 6.375 0 0 0 6.242-4.001 7.263 7.263 0 0 0 6.41 4.69 7.263 7.263 0 0 0 6.865-3.999 8.568 8.568 0 0 0 8.23-8.112 8.568 8.568 0 0 0-6.232-8.683 4.308 4.308 0 0 0-4.057-3.835 4.308 4.308 0 0 0-2.217.49 4.198 4.198 0 0 0-3.51-2.273 4.198 4.198 0 0 0-1.55.212 10.855 10.855 0 0 0-6.96-4.127zm9.552 12.109a8.568 8.568 0 0 0-.551.695 10.855 10.855 0 0 0 .103-.582 4.198 4.198 0 0 0 .448-.113zm-6.545 8.42a7.263 7.263 0 0 0-.063.184 6.375 6.375 0 0 0-.058-.123 10.855 10.855 0 0 0 .12-.06z" clip-path="url(#aw)" fill="#fff" opacity=".707"/>
        <path d="M-603.45-1.217a16.435 16.435 0 0 0-1.634-.167 16.435 16.435 0 0 0-15.232 8.502 13.565 13.565 0 0 0-4.098-.865 13.565 13.565 0 0 0-13.169 8.24 9.391 9.391 0 0 0-.837-.085 9.391 9.391 0 0 0-9.865 8.892 9.391 9.391 0 0 0 8.893 9.864 9.391 9.391 0 0 0 6.565-2.226 13.565 13.565 0 0 0 4.537 2.04 9.391 9.391 0 0 0 8.428 6.422 9.391 9.391 0 0 0 3.678-.556 9.652 9.652 0 0 0 7.856 4.812 9.652 9.652 0 0 0 9.451-6.058 10.996 10.996 0 0 0 9.706 7.1 10.996 10.996 0 0 0 10.393-6.054 12.972 12.972 0 0 0 12.46-12.282 12.972 12.972 0 0 0-9.436-13.146 6.522 6.522 0 0 0-6.142-5.807 6.522 6.522 0 0 0-3.356.741 6.356 6.356 0 0 0-5.316-3.441 6.356 6.356 0 0 0-2.346.322 16.435 16.435 0 0 0-10.536-6.249zm14.462 18.332a12.972 12.972 0 0 0-.835 1.053 16.435 16.435 0 0 0 .156-.882 6.356 6.356 0 0 0 .679-.17zm-9.91 12.75a10.996 10.996 0 0 0-.094.277 9.652 9.652 0 0 0-.087-.186 16.435 16.435 0 0 0 .182-.092z" clip-path="url(#ax)" fill="#fff" opacity=".707"/>
        <path d="M-94.869 77.564a34.762 34.762 0 0 0-3.457-.354 34.762 34.762 0 0 0-32.219 17.984 28.692 28.692 0 0 0-8.666-1.83 28.692 28.692 0 0 0-27.854 17.428 19.864 19.864 0 0 0-1.773-.18 19.864 19.864 0 0 0-20.864 18.81 19.864 19.864 0 0 0 18.81 20.864 19.864 19.864 0 0 0 13.884-4.71 28.692 28.692 0 0 0 9.599 4.315 19.864 19.864 0 0 0 17.825 13.586 19.864 19.864 0 0 0 7.78-1.177 20.416 20.416 0 0 0 16.616 10.177 20.416 20.416 0 0 0 19.992-12.813 23.258 23.258 0 0 0 20.528 15.019 23.258 23.258 0 0 0 21.983-12.807 27.438 27.438 0 0 0 26.357-25.978 27.438 27.438 0 0 0-19.959-27.805A13.794 13.794 0 0 0-49.279 95.81a13.794 13.794 0 0 0-7.1 1.566A13.443 13.443 0 0 0-67.62 90.1a13.443 13.443 0 0 0-4.962.68 34.762 34.762 0 0 0-22.286-13.216zm30.59 38.775a27.438 27.438 0 0 0-1.767 2.227 34.762 34.762 0 0 0 .332-1.865 13.443 13.443 0 0 0 1.435-.362zm-20.96 26.966a23.258 23.258 0 0 0-.2.587 20.416 20.416 0 0 0-.185-.393 34.762 34.762 0 0 0 .385-.194z" clip-path="url(#ay)" fill="#fff"/>
        <path d="M-626.98-309.15a27.747 27.747 0 0 1 2.76-.282 27.747 27.747 0 0 1 25.716 14.355 22.902 22.902 0 0 1 6.918-1.461 22.902 22.902 0 0 1 22.233 13.912 15.855 15.855 0 0 1 1.415-.143 15.855 15.855 0 0 1 16.654 15.014 15.855 15.855 0 0 1-15.014 16.653 15.855 15.855 0 0 1-11.083-3.759 22.902 22.902 0 0 1-7.662 3.444 15.855 15.855 0 0 1-14.228 10.844 15.855 15.855 0 0 1-6.21-.94 16.296 16.296 0 0 1-13.263 8.124 16.296 16.296 0 0 1-15.957-10.228 18.564 18.564 0 0 1-16.386 11.988 18.564 18.564 0 0 1-17.547-10.222 21.902 21.902 0 0 1-21.038-20.736 21.902 21.902 0 0 1 15.93-22.194 11.011 11.011 0 0 1 10.37-9.804 11.011 11.011 0 0 1 5.667 1.25 10.731 10.731 0 0 1 8.975-5.81 10.731 10.731 0 0 1 3.96.544 27.747 27.747 0 0 1 17.79-10.55zm-24.418 30.951a21.902 21.902 0 0 1 1.41 1.778 27.747 27.747 0 0 1-.265-1.49 10.731 10.731 0 0 1-1.145-.289zm16.73 21.524a18.564 18.564 0 0 1 .16.469 16.296 16.296 0 0 1 .148-.312 27.747 27.747 0 0 1-.308-.154z" clip-path="url(#az)" fill="#fff" opacity=".707"/>
    </g>
    <g transform="matrix(.15846 0 0 .18097 252.506 34.624)">
        <path fill="#ffef00" d="M666.61 124.227s21.75 4.047 22.256-11.127V87.811s.506-4.552-4.047-3.541c0 0-10.621.506-11.633 19.22l-7.082 1.012z"/>
        <path fill="none" stroke="#d67823" stroke-width="3.035" stroke-linecap="round" stroke-linejoin="round" stroke-miterlimit="10" d="m618.983 137.377.084 10.116M638.202 136.366l.084 10.115"/>
        <path fill="#ef69a1" d="M674.366 109.391c0 22.116-20.531 31.358-45.857 31.358s-45.857-10.552-45.857-31.358c-.002-20.796 20.531-31.359 45.857-31.359s45.857 10.563 45.857 31.359z"/>
        <path fill="#dda6cc" d="M650.427 111.582c0 19.352-6.07 23.772-11.664 28.727a93.81 93.81 0 0 1-9.242.44c-3.604 0-7.111-.213-10.477-.641-7.059-3.743-12.621-10.824-13.127-28.526-.463-16.187 3.541-27.312 12.648-32.848a83.083 83.083 0 0 1 10.955-.703c2.986 0 5.908.146 8.736.44 11.665 8.328 12.171 16.926 12.171 33.111z"/>
        <path fill="#ffef00" d="M640.493 145.723h-23.68s-2.037.185-2.037 1.666c0 0 0 2.406 1.852 2.591 0 0 1.85.185 2.221 2.96 0 0-1.48 7.957 8.881 7.957h1.846c10.361 0 8.881-7.957 8.881-7.957.371-2.776 2.221-2.96 2.221-2.96 1.85-.185 1.85-2.591 1.85-2.591-.002-1.481-2.035-1.666-2.035-1.666z"/>
        <ellipse fill="#ffef00" cx="579.363" cy="111.582" rx="3.761" ry="5.058"/>
        <ellipse fill="#ffef00" cx="579.11" cy="101.72" rx="3.541" ry="9.356"/>
        <ellipse fill="#ffef00" cx="579.616" cy="121.445" rx="3.541" ry="9.357"/>
    </g>
    <path fill="#f7961d" d="m164.596 204.435.683.44-.634.486"/>
    <path fill="#6265ac" d="M157.926 205.252c.285 1.572 1.778 3.002 3.437 3.002 1.382 0 2.579-.886 3.162-2.177 0 0 .754-2.909-1.489-2.909-1.51 0-1.9 1.365-1.9 1.365s-.634 1.51-3.21.72z"/>
    <path fill="#6265ac" d="m162.257 205.751-1.95-2.29s-.39-.44-.829.145c-.439.585-.39 2.096 1.17 2.828"/>
    <path fill="#d67823" d="M109.834 128.994s1.807 17.55 7.872 17.55c2.452 0 1.546-1.16 4.001-1.16 1.29 0 1.936 2.839 1.936 2.839s1.935 13.55 8 13.55c6.066 0 6.324-9.292 6.324-9.292s.258-3.485 3.484-2.452c3.227 1.032 6.066-.516 7.872-3.742 1.807-3.227 4.388-.517 4.388-.517s1.807 3.226 5.808 3.226c4.903 0 7.356-9.678 8-17.293 0 0-23.228-11.614-57.685-2.71z" style="stroke-width:.264583" transform="translate(365.064 14.269) scale(.65274)"/>
    <path fill="#00a989" d="M171.867 131.776c-.918-3.393-4.909-2.795-4.989-2.783-3.588-3.628-14.52-6.608-27.558-7.154-12.554-.526-23.352 1.358-27.6 4.458-1.026-.387-3.244-.962-4.917.467 0 0 1.643.326 1.819 1.672 0 0-1.619.592-1.521 2.31 0 0 2.023-.413 3.2-.09 1.903 2.636 8.922 4.953 16.549 4.928-1.025.246-2.798.898-3.049 2.497 0 0 1.994-.532 2.272-.047 0 0-1.052.905-.49 2.171-.001 0 1.335-1.444 7.021-1.647 1.934.201 3.938.35 5.997.437 13.632.572 25.191-1.7 28.545-5.282 1.513.02 2.806.896 2.806.896.565-1.657-.701-2.752-.701-2.752.287-.64 2.616-.081 2.616-.081z" style="stroke-width:.264583" transform="translate(365.064 14.269) scale(.65274)"/>
    <path fill="#6265ac" d="M450.661 84.276h5.668v12.416h-5.668z"/>
    <g fill="#dda6cc">
        <path d="M451.47 85.176h1.603v2.193h-1.603zM451.465 87.78h1.603v2.192h-1.603zM451.465 90.383h1.603v2.193h-1.603z"/>
    </g>
    <path fill="#6265ac" d="M445.06 89.54h5.669v7.152h-5.668z"/>
    <g fill="#dda6cc">
        <path d="M445.769 90.304h1.602v2.193h-1.602zM445.763 92.907h1.603V95.1h-1.603zM447.72 90.315h1.603v2.193h-1.603z"/>
    </g>
    <path fill="#6265ac" d="M458.128 85.266h5.668v12.415h-5.668z"/>
    <g fill="#dda6cc">
        <path d="M458.937 86.166h1.603v2.193h-1.603zM458.932 88.77h1.603v2.192h-1.603z"/>
    </g>
    <path fill="#6265ac" d="M461.524 91.969h5.668v7.152h-5.668z"/>
    <g fill="#dda6cc">
        <path d="M462.232 92.733h1.603v2.194h-1.603zM464.184 92.744h1.602v2.193h-1.602z"/>
    </g>
    <path fill="#b6d333" d="M464.152 97.255s.169-1.382 1.34-1.395h1.763s1.381.169 1.381 1.381v1.637s-.154 1.367-1.381 1.367h-1.764s-1.34-.14-1.34-1.381z"/>
    <path fill="#00a989" d="M464.771 98.035s.53-.785 1.205-.183c0 0 .018-.712.858-.675 0 0-.548-.62-1.059.073 0 0-.93-.2-1.004.785z"/>
    <path fill="#b6d333" d="M448.903 96.185s.231-1.892 1.834-1.91h2.414s1.892.23 1.892 1.891v2.24s-.212 1.874-1.892 1.874h-2.414s-1.834-.193-1.834-1.892z"/>
    <path fill="#00a989" d="M449.628 95.85s1.272-.248 1.343.989c0 0 .707-.672 1.484.176 0 0 .07-1.13-1.096-.954 0 0-.706-1.095-1.731-.212zM451.554 98.949s.725-1.075 1.65-.25c0 0 .024-.975 1.174-.925 0 0-.75-.85-1.45.1 0 0-1.274-.275-1.374 1.075z"/>
    <path fill="#dda6cc" d="m398.207 163.87.204-3.46s.026-2.01 1.4-2.01c1.374 0 1.399 2.035 1.399 2.035l.33 3.435"/>
    <path fill="#fff" d="M399.989 161.479c-.481 0-.623-1.14-.636-1.58a.051.051 0 0 0-.05-.049h-.001a.05.05 0 0 0-.051.048c0 .014-.08 1.316-.837 1.375l.048-.86c0-.022.04-1.962 1.349-1.962 1.308 0 1.348 1.965 1.348 1.985l.018.16c-.132-.048-.424-.208-.554-.708a.05.05 0 0 0-.1.015c0 .01.03 1.122-.31 1.475a.3.3 0 0 1-.224.1z"/>
    <path fill="#5ccaef" d="M399.81 158.502c.521 0 .897.318 1.118.945a3.537 3.537 0 0 1 .181 1l.007.066c-.137-.073-.342-.245-.444-.637a.102.102 0 0 0-.2.028c.01.306-.025 1.159-.296 1.439a.252.252 0 0 1-.187.085c-.438 0-.573-1.133-.586-1.53a.102.102 0 0 0-.1-.099h-.001a.102.102 0 0 0-.102.097c0 .012-.074 1.2-.732 1.319l.045-.8v-.004c0-.004.009-.495.18-.976.22-.62.597-.933 1.118-.933m0-.102c-1.374 0-1.4 2.01-1.4 2.01l-.05.916c.864 0 .94-1.425.94-1.425s.052 1.629.688 1.629c.636 0 .585-1.629.585-1.629.178.687.662.763.662.763l-.026-.228s-.025-2.036-1.4-2.036z"/>
    <path fill="#d67823" d="M391.782 165.852s.44 4.438 2.094 4.438c1.103 0 .938-.469 1.406-.496.303-.018.386.689.386.689s.33 3.307 1.82 3.307c1.488 0 1.598-2.866 1.598-2.866s.166-1.048.827-1.048c.248 0 .606.138.606.138s1.423.761 2.316-.689c.22-.358 1.13-.551 1.13-.551s1.075.11 1.599-2.591c0 0-6.533-4.273-13.782-.331z"/>
    <path fill="#00a989" d="M406.588 166.215c-.016-.67-.764-.822-.989-.852-.342-1.048-3.343-1.868-6.995-1.868-3.174 0-5.855.619-6.728 1.468-.22-.054-.971-.189-1.233.427 0 0 .642-.015.682.17 0 0-.395.215-.34.682 0 0 .566-.204.855-.118.832.869 3.544 1.506 6.764 1.506 2.767 0 5.16-.47 6.306-1.155 0 0 .457-.155 1.045.405.239-.305-.064-.76-.064-.76.105-.156.697.095.697.095z"/>
    <path fill="#00a989" stroke="#267b8a" stroke-width=".14843126999999998" stroke-linecap="round" stroke-linejoin="round" stroke-miterlimit="10" d="M393.484 164.768s.621-2.633 2.87-2.633c2.25 0 2.845 2.66 2.845 2.66"/>
    <path fill="#00a989" stroke="#267b8a" stroke-width=".14843126999999998" stroke-linecap="round" stroke-linejoin="round" stroke-miterlimit="10" d="M396.527 165.145s.686-2.02 3.169-2.02c2.482 0 3.14 2.04 3.14 2.04"/>
    <path fill="#00a989" stroke="#267b8a" stroke-width=".14843126999999998" stroke-linecap="round" stroke-linejoin="round" stroke-miterlimit="10" d="M401.834 165.165s-.149-.52-.52-.557c0 0 .594-.222.928.149 0 0 .037-.705.78-.668 0 0-.15.334-.112.557 0 0 .408-.26.705.037 0 0-.483.26-.408.52M397.379 165.165s.074-.928-.78-1.039c0 0 .186.557 0 .63 0 0-.334-.296-.816-.148 0 0 .334.334.26.594"/>
    <path fill="#d67823" d="M183.19 136.321s1.844 32.574 10.817 32.574c6.269 0 8.973-11.186 8.973-11.186s1.721-4.302 6.024-1.475c4.302 2.828 14.248 4.924 20.404-2.827 3.319-4.18 5.53.861 5.53.861s2.214 7.62 8.605 7.62c8.114 0 11.309-29.254 11.309-29.254s-35.893-5.654-71.662 3.687z" style="stroke-width:.264583" transform="matrix(.54115 0 0 .54115 -26.627 87.336)"/>
    <path fill="#00a989" d="M260.57 132.819c-.745-2.952-4.584-2.865-5.596-2.79-3.21-2.851-11.792-4.893-21.879-4.893-9.767 0-18.12 1.914-21.556 4.625-1.722-.13-3.516-.2-5.363-.2-9.68 0-17.976 1.88-21.466 4.553-1.33-.413-3.846-.816-6.068.978 0 0 2.582.492 3.073 1.721 0 0-1.967.246-2.212 2.827 0 0 2.063-1.097 4.149-.895 2.541 3.198 11.66 5.566 22.524 5.566 9.767 0 18.12-1.915 21.556-4.625 1.722.129 3.516.2 5.363.2 9.631 0 17.893-1.86 21.414-4.511 2.007-.238 3.97.964 3.97.964.56-2.02-1.03-3.24-1.03-3.24.299-.784 3.121-.28 3.121-.28z" style="stroke-width:.264583" transform="matrix(.54115 0 0 .54115 -26.627 87.336)"/>
    <g transform="translate(23.716 94.26) scale(.14318)">
        <ellipse fill="#5ccaef" cx="532.399" cy="450.872" rx="43.367" ry="15.77"/>
        <path fill="#00adef" d="M501.351 446.517s7.672 1.23 10.803-4.8c0 0 3.584 5.729 10.547 4.745 0 0-3.813 4.988-10.48.366-.001 0-4.171 4.277-10.87-.311zM537.563 454.11s7.67 1.229 10.801-4.801c0 0 3.584 5.73 10.549 4.746 0 0-3.814 4.987-10.48.364 0 .001-4.172 4.279-10.87-.309z"/>
    </g>
    <path fill="#d67823" d="M234.224 100.204s1.278 12.409 5.566 12.409c1.734 0 1.093-.822 2.829-.822.912 0 1.368 2.008 1.368 2.008s1.368 9.58 5.657 9.58c4.288 0 4.471-6.57 4.471-6.57s.182-2.463 2.464-1.733c2.28.73 4.288-.365 5.565-2.646 1.277-2.281 3.102-.365 3.102-.365s1.278 2.28 4.106 2.28c3.467 0 5.2-6.842 5.657-12.226 0 0-16.423-8.21-40.785-1.915z" style="stroke-width:.264583" transform="matrix(.54115 0 0 .54115 -26.627 87.336)"/>
    <path fill="#00a989" d="M278.083 102.17c-.65-2.398-3.471-1.975-3.528-1.967-2.536-2.565-10.266-4.671-19.484-5.058-8.876-.372-16.51.961-19.513 3.152-.726-.273-2.294-.68-3.477.33 0 0 1.162.23 1.286 1.183 0 0-1.144.418-1.075 1.632 0 0 1.43-.291 2.263-.064 1.345 1.865 6.307 3.503 11.7 3.485-.725.174-1.979.635-2.156 1.765 0 0 1.41-.375 1.606-.032 0 0-.743.64-.347 1.535 0 0 .944-1.021 4.965-1.165a68.66 68.66 0 0 0 4.24.31c9.637.404 17.81-1.202 20.181-3.735 1.07.014 1.984.633 1.984.633.4-1.171-.495-1.945-.495-1.945.203-.453 1.85-.058 1.85-.058z" style="stroke-width:.264583" transform="matrix(.54115 0 0 .54115 -26.627 87.336)"/>
    <path fill="#ffef00" d="m78.608 161.452.428-7.279s.054-4.228 2.944-4.228 2.944 4.282 2.944 4.282l.696 7.225s-3.172 2.372-7.012 0z"/>
    <g fill="#fcc20e" transform="translate(23.716 94.26) scale(.14318)">
        <path d="m412.45 414.798-1.984-30.638s1.191-4.616 6.354-2.099c0 0 15.086 10.493 1.982 33.156z"/>
        <path d="m420.995 412.985 1.986 30.638s-1.193 4.616-6.354 2.099c0 0-15.088-10.491-1.984-33.156z"/>
        <path d="m415.481 418.358-30.639 1.985s-4.616-1.19-2.099-6.352c0 0 10.492-15.087 33.157-1.985z"/>
        <path d="m415.923 410.036 24.143-1.815s3.637 1.09 1.652 5.809c0 0-8.268 13.794-26.127 1.814z"/>
        <ellipse stroke="#f7961d" stroke-width="1.563" stroke-miterlimit="10" cx="417.889" cy="413.851" rx="5.47" ry="6.446"/>
    </g>
    <g transform="translate(23.716 94.26) scale(.14318)">
        <ellipse fill="#5ccaef" cx="621.002" cy="338.777" rx="34.14" ry="12.414"/>
        <path fill="#00adef" d="M596.562 335.349s6.039.968 8.502-3.778c0 0 2.82 4.51 8.305 3.735 0 0-3.002 3.927-8.252.287-.001 0-3.284 3.368-8.555-.244zM625.067 341.327s6.039.967 8.504-3.78c0 0 2.822 4.512 8.303 3.736 0 0-3.002 3.926-8.25.287 0 0-3.283 3.368-8.557-.243z"/>
    </g>
    <path fill="#5ccaef" d="M108.397 140.768s-1.037 1.481-3.184.889c-1.182-.326-4 .222-4.222 1.185v14.886s.593 0 .815-.296c0 0 .74.963 1.259 0 0 0 .592.741 1.11.519l-.147-13.924s.518-1.185 2.518-1.333c0 0 1.48.37 2.148-.815z"/>
    <path fill="#fff" d="m104.166 157.11.01.84c-.519.223-1.111-.518-1.111-.518-.519.963-1.26 0-1.26 0-.222.296-.814.296-.814.296v-.666s.469.469.815-.47c0 0 .641 1.359 1.382-.024 0 0 .5 1.06.978.543z"/>
    <path fill="#00adef" d="M100.991 147.483s.642 1.407 1.21-.543c0 0 .79 3.975 1.802 1.333 0 0-.914 3.382-1.876-.346 0 0-.642 1.507-1.136-.444zM104.127 152.198s-.642 1.408-1.21-.543c0 0-.79 3.975-1.803 1.334 0 0 .914 3.381 1.877-.346 0 0 .642 1.506 1.136-.445z"/>
    <path fill="#d67823" d="M124.078 67.328s1.8 18.121 8.547 18.121c4.498 0 3.823-1.913 5.735-2.025 1.235-.073 1.574 2.813 1.574 2.813s1.142 13.507 7.215 13.507c6.072 0 6.73-11.706 6.73-11.706s.674-4.277 3.373-4.277c1.012 0 2.474.563 2.474.563s5.804 3.108 9.446-2.814c.9-1.463 4.61-2.25 4.61-2.25s4.386.449 6.522-10.582c0 0-26.65-17.446-56.226-1.35z" style="stroke-width:.264583" transform="matrix(.5008 0 0 .5008 141.39 26.104)"/>
    <path fill="#00a989" d="M184.881 68.455c-.92-3.398-4.916-2.8-4.996-2.787-3.594-3.633-14.543-6.617-27.602-7.165-12.574-.527-23.388 1.36-27.643 4.466-1.028-.389-3.25-.965-4.925.466 0 0 1.646.328 1.822 1.676 0 0-1.621.593-1.524 2.313 0 0 2.027-.414 3.206-.091 1.905 2.64 8.935 4.962 16.574 4.936-1.026.247-2.803.9-3.053 2.501 0 0 1.997-.532 2.275-.046 0 0-1.053.907-.491 2.174 0 0 1.338-1.446 7.033-1.649a98.15 98.15 0 0 0 6.006.438c13.653.572 25.231-1.703 28.59-5.292 1.515.02 2.81.898 2.81.898.567-1.66-.702-2.756-.702-2.756.288-.64 2.62-.082 2.62-.082z" style="stroke-width:.264583" transform="matrix(.5008 0 0 .5008 141.39 26.104)"/>
    <path fill="#dda6cc" d="m222.844 57.918.414-7.915s.052-4.598 2.847-4.598c2.796 0 2.847 4.656 2.847 4.656l.673 7.857"/>
    <path fill="#fff" d="M226.209 52.984c-.98 0-1.304-3.12-1.346-4.323a.104.104 0 0 0-.179-.068c-.431.453-.802.548-1.037.548a.76.76 0 0 1-.163-.017c.18-1.412.767-3.673 2.673-3.673 2.66 0 2.743 4.45 2.744 4.495l.096 1.56c-1.177-.255-1.283-1.126-1.287-1.165a.104.104 0 0 0-.103-.092h-.004a.103.103 0 0 0-.1.1c-.001.025-.114 2.635-1.294 2.635z"/>
    <path fill="#5ccaef" d="M226.157 45.554c2.558 0 2.64 4.35 2.64 4.393v.01l.087 1.414c-.972-.27-1.068-1.007-1.071-1.04a.207.207 0 0 0-.206-.186h-.007a.207.207 0 0 0-.2.2c-.027.705-.293 2.535-1.191 2.535-.754 0-1.18-2.47-1.243-4.223a.207.207 0 0 0-.356-.136c-.407.427-.748.516-.963.516a.75.75 0 0 1-.047-.001c.19-1.382.774-3.482 2.557-3.482m0-.207c-2.056 0-2.628 2.518-2.787 3.85 0 0 .103.047.277.047.252 0 .653-.098 1.112-.58 0 0 .156 4.423 1.45 4.423s1.398-2.735 1.398-2.735.103 1.047 1.5 1.28l-.103-1.687s-.052-4.598-2.847-4.598z"/>
    <path fill="#00a875" stroke="#267b8a" stroke-width=".20683453" stroke-linecap="round" stroke-linejoin="round" stroke-miterlimit="10" d="M221.72 58.364s.958-2.445 4.421-2.445 4.38 2.47 4.38 2.47"/>
    <path fill="#dda6cc" d="m218.288 58.694.399-5.436s.05-3.158 2.738-3.158c2.689 0 2.739 3.198 2.739 3.198l.647 5.396"/>
    <path fill="#fff" d="M220.1 55.018a1.01 1.01 0 0 1-.753-.308c-.532-.549-.525-1.647-.524-1.748.25-1.331.909-2.914 2.623-2.914 1.581 0 2.254 1.393 2.54 2.562-.001 0 .092.616-.194.95-.122.143-.302.216-.534.216-.949 0-1.347-1.21-1.35-1.222a.103.103 0 0 0-.203.02c-.002.025-.266 2.444-1.605 2.444z"/>
    <path fill="#5ccaef" d="M221.446 50.152c1.51 0 2.158 1.342 2.436 2.473.01.065.07.59-.168.868-.103.12-.252.18-.456.18-.87 0-1.248-1.14-1.252-1.15a.207.207 0 0 0-.403.041c-.003.024-.257 2.35-1.503 2.35a.897.897 0 0 1-.678-.275c-.49-.506-.496-1.533-.495-1.667.244-1.29.88-2.82 2.52-2.82m0-.207c-1.852 0-2.5 1.794-2.727 3.006 0 0-.07 2.17 1.38 2.17s1.709-2.536 1.709-2.536.414 1.294 1.45 1.294c1.034 0 .827-1.294.827-1.294-.29-1.185-.983-2.64-2.64-2.64z"/>
    <path fill="#00a875" stroke="#267b8a" stroke-width=".20683453" stroke-linecap="round" stroke-linejoin="round" stroke-miterlimit="10" d="M217.425 59.468s.89-1.956 4.11-1.956c3.218 0 4.07 1.975 4.07 1.975"/>
    <path fill="#fff" stroke="#d67823" stroke-width=".5177165699999999" stroke-linecap="round" stroke-linejoin="round" stroke-miterlimit="10" d="m208.281 57.814-.013-2.085"/>
    <path fill="#b6d333" d="M206.373 53.328s.18-5.594 1.969-5.594c1.788 0 1.835 5.594 1.835 5.594s-.018 3.151-1.864 3.151c-1.845 0-1.94-3.151-1.94-3.151z"/>
    <path fill="#fff" stroke="#d67823" stroke-width=".5177165699999999" stroke-linecap="round" stroke-linejoin="round" stroke-miterlimit="10" d="m210.583 59.937-.01-1.66"/>
    <path fill="#b6d333" d="M209.063 56.366s.144-4.452 1.568-4.452c1.424 0 1.46 4.452 1.46 4.452s-.014 2.509-1.483 2.509-1.545-2.51-1.545-2.51z"/>
    <path fill="#fff" stroke="#d67823" stroke-width=".5177165699999999" stroke-linecap="round" stroke-linejoin="round" stroke-miterlimit="10" d="m214.39 58.228-.014-2.084"/>
    <path fill="#b6d333" d="M212.48 53.742s.18-5.593 1.97-5.593c1.788 0 1.835 5.593 1.835 5.593s-.019 3.152-1.864 3.152c-1.846 0-1.94-3.152-1.94-3.152z"/>
</svg>
