<?xml version="1.0" encoding="UTF-8" standalone="no"?>
<svg
   width="196.81798"
   height="195.47385"
   enable-background="new 0 0 385.926 311.852"
   version="1.1"
   viewBox="0 0 196.81594 195.4751"
   id="memoSvg"
   sodipodi:docname="memo-383982.svg"
   inkscape:version="1.4 (86a8ad7, 2024-10-11)"
   xmlns:inkscape="http://www.inkscape.org/namespaces/inkscape"
   xmlns:sodipodi="http://sodipodi.sourceforge.net/DTD/sodipodi-0.dtd"
   xmlns:xlink="http://www.w3.org/1999/xlink"
   xmlns="http://www.w3.org/2000/svg"
   xmlns:svg="http://www.w3.org/2000/svg">
  <sodipodi:namedview
     id="namedview36"
     pagecolor="#ffffff"
     bordercolor="#666666"
     borderopacity="1.0"
     inkscape:showpageshadow="2"
     inkscape:pageopacity="0.0"
     inkscape:pagecheckerboard="0"
     inkscape:deskcolor="#d1d1d1"
     inkscape:zoom="2.6134359"
     inkscape:cx="80.545308"
     inkscape:cy="121.87022"
     inkscape:window-width="1920"
     inkscape:window-height="1017"
     inkscape:window-x="-8"
     inkscape:window-y="-8"
     inkscape:window-maximized="1"
     inkscape:current-layer="g1"
     showgrid="false" />
  <linearGradient
     id="x"
     x1="-273.19"
     x2="112.73"
     y1="686.02002"
     y2="686.02002"
     gradientTransform="matrix(-1,0,0,1,112.73,-530.09)"
     gradientUnits="userSpaceOnUse">
    <stop
       stop-color="#6F88CB"
       offset="0"
       id="stop1" />
    <stop
       stop-color="#6F88CB"
       stop-opacity="0"
       offset="1"
       id="stop2" />
  </linearGradient>
  <linearGradient
     id="y"
     x1="181.75"
     x2="219.72"
     y1="145.58"
     y2="145.58"
     gradientUnits="userSpaceOnUse">
    <stop
       stop-color="#C7CCD6"
       offset="0"
       id="stop3" />
    <stop
       stop-color="#DCDEE6"
       offset="1"
       id="stop4" />
  </linearGradient>
  <defs
     id="defs5">
    <path
       id="a"
       d="m 181.72,124.49 c 2.503,-3.58 5.005,-7.156 7.508,-10.735 -0.499,0.726 -0.532,1.767 0,2.722 0.781,1.373 2.437,2.04 3.711,1.508 0.197,-0.083 0.374,-0.194 0.538,-0.322 -1.681,1.396 -3.362,2.789 -5.044,4.181 -1.682,1.396 -3.363,2.792 -5.045,4.188 -0.059,0.049 -0.131,0.092 -0.203,0.125 -0.499,0.21 -1.156,-0.056 -1.465,-0.591 -0.24,-0.38 -0.22,-0.79 -0.02,-1.08 z" />
  </defs>
  <linearGradient
     id="z"
     x1="181.56"
     x2="193.47"
     y1="119.99"
     y2="119.99"
     gradientUnits="userSpaceOnUse">
    <stop
       stop-color="#fff"
       offset="0"
       id="stop5" />
    <stop
       stop-color="#0B0B0B"
       offset=".2952"
       id="stop6" />
    <stop
       stop-color="#7F7F7F"
       offset=".4238"
       id="stop7" />
    <stop
       stop-color="#EAEAEA"
       offset=".6524"
       id="stop8" />
  </linearGradient>
  <clipPath
     id="aa">
    <use
       overflow="visible"
       xlink:href="#a"
       id="use9" />
  </clipPath>
  <radialGradient
     id="ac"
     cx="188.56"
     cy="110.11"
     r="16.313"
     gradientUnits="userSpaceOnUse">
    <stop
       stop-color="#FCD3E5"
       offset="0"
       id="stop13" />
    <stop
       stop-color="#F983C0"
       offset=".1762"
       id="stop14" />
    <stop
       stop-color="#F780BE"
       offset=".191"
       id="stop15" />
    <stop
       stop-color="#DF58AA"
       offset=".3985"
       id="stop16" />
    <stop
       stop-color="#CE3B9A"
       offset=".5881"
       id="stop17" />
    <stop
       stop-color="#C42991"
       offset=".752"
       id="stop18" />
    <stop
       stop-color="#C0238E"
       offset=".8714"
       id="stop19" />
    <stop
       stop-color="#AF0870"
       offset="1"
       id="stop20" />
  </radialGradient>
  <defs
     id="defs20">
    <path
       id="ad"
       d="m 192.58,107.97 3.98,-4.315 c -0.991,1.071 -1.149,2.805 -0.256,4.381 1.156,2.043 3.632,3.041 5.53,2.247 0.434,-0.184 0.795,-0.44 1.09,-0.755 l -3.974,4.315 c -0.295,0.318 -0.656,0.578 -1.09,0.762 -1.898,0.798 -4.374,-0.207 -5.53,-2.253 -0.89,-1.59 -0.73,-3.32 0.25,-4.4 z" />
  </defs>
  <clipPath
     id="ae">
    <use
       overflow="visible"
       xlink:href="#ad"
       id="use20" />
  </clipPath>
  <defs
     id="defs28">
    <path
       id="r"
       d="m 195.65,96.785 c 0.67,-0.769 1.524,-1.393 2.556,-1.826 4.236,-1.78 9.747,0.46 12.328,5.012 -1.412,1.498 -4.302,3.5 -7.356,5.176 -1.156,-2.043 -3.625,-3.055 -5.523,-2.253 -1.898,0.794 -2.503,3.1 -1.347,5.143 1.156,2.043 3.632,3.041 5.53,2.247 1.898,-0.801 2.503,-3.1 1.34,-5.136 3.055,-1.675 5.944,-3.678 7.356,-5.176 2.029,3.566 1.629,7.507 -0.683,9.898 -2.076,2.115 -4.355,2.588 -5.104,2.746 -0.65,0.138 -2.976,0.499 -5.484,-0.545 -2.299,-0.966 -3.652,-2.49 -4.388,-3.6 -1.636,-2.502 -1.609,-4.782 -1.603,-5.53 0.013,-1.57 0.499,-2.903 0.598,-3.153 0.45,-1.206 0.93,-2.014 1.76,-3.012 z" />
  </defs>
  <clipPath
     id="s">
    <use
       overflow="visible"
       xlink:href="#r"
       id="use28" />
  </clipPath>
  <defs
     id="defs32">
    <path
       id="u"
       d="m 194.53,107.89 c -0.203,-0.374 -0.742,-1.359 -1.031,-2.66 -0.289,-1.34 -0.243,-2.417 -0.19,-2.936 0.151,-1.465 0.474,-2.312 0.814,-3.12 0.236,-0.552 0.479,-0.933 0.848,-1.504 0.184,-0.283 0.473,-0.624 0.683,-0.887 -2.095,2.404 -2.391,6.187 -0.439,9.629 2.581,4.552 8.099,6.798 12.328,5.011 0.9,-0.381 1.682,-0.913 2.312,-1.557 -0.296,0.276 -0.696,0.631 -1.012,0.894 -0.164,0.138 -0.4,0.302 -0.578,0.42 -1.012,0.637 -1.491,0.821 -2.24,1.097 -0.289,0.105 -0.695,0.217 -1.005,0.276 -0.388,0.085 -0.919,0.158 -1.313,0.204 -0.466,0.053 -1.419,0.026 -1.76,-0.02 -0.381,-0.046 -0.894,-0.138 -1.268,-0.217 -0.224,-0.046 -0.513,-0.131 -0.723,-0.204 -0.788,-0.283 -0.788,-0.283 -1.235,-0.5 -0.552,-0.263 -0.933,-0.512 -1.116,-0.637 -1.84,-1.19 -2.81,-2.81 -3.07,-3.28 z" />
  </defs>
  <clipPath
     id="v">
    <use
       overflow="visible"
       xlink:href="#u"
       id="use32" />
  </clipPath>
  <linearGradient
     id="w"
     x1="196.17"
     x2="210.34"
     y1="92.265999"
     y2="115.37"
     gradientUnits="userSpaceOnUse">
    <stop
       stop-color="#FA95CA"
       offset="0"
       id="stop33" />
    <stop
       stop-color="#F68DC5"
       offset=".1284"
       id="stop34" />
    <stop
       stop-color="#E56EB3"
       offset=".6878"
       id="stop35" />
    <stop
       stop-color="#DF62AC"
       offset="1"
       id="stop36" />
  </linearGradient>
  <g
     inkscape:groupmode="layer"
     id="memoRootLayer"
     inkscape:label="memo"
     transform="translate(-98.343994,-94.3479)">
    <g
       inkscape:groupmode="layer"
       id="layer1"
       inkscape:label="graph"
       transform="translate(98.343994,94.3479)">
      <path
         d="m 268.02,112.79 11.945,-1.417 c 0,0 -1.6,50.948 3.037,99.109 3.211,33.474 12.158,78.836 12.158,78.836 0,0 -47.206,-4.086 -94.497,-3.453 -47.299,0.626 -93.487,3.958 -93.487,3.958 0,0 -0.794,-11.516 -0.755,-50.545 0.053,-39.034 10.947,-82.644 10.947,-82.644 l 106.84,-22.829 43.81,-21.02 z"
         fill="#989fb5"
         id="path2"
         transform="translate(-98.343994,-94.3479)" />
      <path
         d="m 284.4,280.28 c -61.601,1.418 -123.2,2.813 -184.8,4.229 -2.039,-57.908 -1.6,-115.88 1.304,-173.82 59.203,-0.225 118.4,-0.459 177.6,-0.694 -0.45,56.8 1.51,113.59 5.9,170.28 z"
         fill="#ffffff"
         id="path3"
         transform="translate(-98.343994,-94.3479)" />
      <path
         d="m 219.72,155.7 v -0.108 c 0,-0.02 -0.007,-0.036 -0.007,-0.056 -0.007,-0.026 -0.013,-0.056 -0.013,-0.079 -0.007,-0.02 -0.014,-0.042 -0.021,-0.059 -0.006,-0.023 -0.013,-0.053 -0.026,-0.079 0,-0.003 0,-0.01 -0.006,-0.017 -0.007,-0.01 -0.007,-0.023 -0.014,-0.036 -0.013,-0.026 -0.025,-0.046 -0.032,-0.066 -0.014,-0.016 -0.021,-0.033 -0.033,-0.049 -0.007,-0.013 -0.013,-0.026 -0.026,-0.042 -0.006,0 -0.006,-0.006 -0.013,-0.016 -0.007,-0.003 -0.014,-0.014 -0.021,-0.017 0,-0.007 -0.006,-0.017 -0.02,-0.02 h 0.007 c -0.007,0 -0.007,-0.003 -0.013,-0.01 -0.118,-0.128 -0.23,-0.246 -0.329,-0.348 0,-0.006 -0.013,-0.01 -0.013,-0.02 l -0.007,-0.007 c -0.013,-0.01 -0.013,-0.013 -0.02,-0.013 -0.02,-0.023 -0.039,-0.04 -0.053,-0.056 -0.099,-0.095 -0.171,-0.167 -0.249,-0.24 -0.04,-0.029 -0.066,-0.049 -0.066,-0.049 0,0 -0.006,-0.01 -0.006,-0.013 -0.086,-0.075 -0.19,-0.157 -0.289,-0.236 l -0.072,-0.065 c 0,0 -0.007,0 -0.007,-0.003 -0.007,-0.003 -0.007,-0.003 -0.013,-0.01 l -0.053,-0.036 c -0.099,-0.082 -0.217,-0.165 -0.322,-0.24 l -0.006,-0.003 c -0.033,-0.029 -0.079,-0.059 -0.112,-0.088 -0.026,-0.017 -0.059,-0.036 -0.085,-0.056 -0.014,-0.003 -0.014,-0.01 -0.02,-0.01 -0.079,-0.053 -0.165,-0.105 -0.23,-0.148 -0.007,0 -0.007,-0.003 -0.013,-0.003 -1.045,-0.67 -1.879,-0.887 -2.253,-0.982 -0.046,-0.017 -0.092,-0.026 -0.118,-0.033 -0.014,-0.006 -0.033,-0.01 -0.04,-0.013 -0.085,-0.02 -0.177,-0.042 -0.263,-0.062 l -0.111,-0.026 c -0.014,0 -0.026,0 -0.026,-0.003 -0.014,0 -0.02,-0.003 -0.033,-0.006 l -0.125,-0.023 c -0.085,-0.02 -0.184,-0.036 -0.269,-0.043 -0.007,-0.006 -0.02,-0.01 -0.026,-0.01 -0.046,-0.007 -0.099,-0.02 -0.151,-0.02 -0.085,-0.013 -0.171,-0.026 -0.263,-0.033 -0.039,-0.006 -0.078,-0.01 -0.118,-0.013 -0.032,-0.003 -0.072,-0.01 -0.125,-0.014 -0.078,-0.006 -0.229,-0.016 -0.407,-0.02 h -0.02 c 0,0 -0.013,0 -0.02,0 h -0.053 c -0.157,-0.01 -0.302,-0.01 -0.4,-0.003 -0.02,0 -0.033,0.003 -0.046,0.003 h -0.105 c -0.039,0 -0.079,0.003 -0.125,0.003 -0.039,0.003 -0.092,0.01 -0.131,0.013 -0.046,0 -0.086,0.003 -0.125,0.006 -0.02,0 -0.046,0.007 -0.06,0.007 h -0.014 c -0.065,0.003 -0.138,0.01 -0.196,0.02 v 0.003 h -0.007 c -0.132,0.013 -0.276,0.029 -0.427,0.056 -0.007,0 -0.007,0.003 -0.014,0.003 -0.013,0 -0.013,0.003 -0.02,0.003 -0.065,0.013 -0.138,0.02 -0.21,0.036 -0.039,0.01 -0.072,0.016 -0.111,0.026 -0.033,0.007 -0.066,0.007 -0.093,0.017 -0.065,0.017 -0.145,0.033 -0.223,0.049 -1.807,-2.131 -3.619,-4.256 -5.445,-6.391 0.026,-0.023 0.039,-0.056 0.06,-0.085 0.006,-0.02 0.02,-0.046 0.032,-0.069 0.033,-0.059 0.06,-0.108 0.072,-0.138 0.013,-0.023 0.026,-0.049 0.04,-0.076 0.059,-0.115 0.111,-0.23 0.164,-0.341 l 0.039,-0.083 c 0.007,-0.016 0.02,-0.029 0.02,-0.049 0.014,-0.026 0.026,-0.049 0.033,-0.076 0.006,-0.006 0.013,-0.017 0.02,-0.023 0.013,-0.033 0.02,-0.066 0.039,-0.099 0.014,-0.04 0.026,-0.072 0.04,-0.108 0,-0.003 0.006,-0.01 0.013,-0.013 l 0.007,-0.016 c 0.007,-0.033 0.02,-0.06 0.032,-0.085 0,-0.023 0.014,-0.043 0.026,-0.062 0.053,-0.128 0.099,-0.256 0.139,-0.377 0.072,-0.184 0.111,-0.306 0.157,-0.486 0.026,-0.069 0.046,-0.158 0.079,-0.263 0,-0.01 0,-0.013 0.007,-0.017 v -0.013 c 0.013,-0.05 0.025,-0.105 0.045,-0.158 0.014,-0.04 0.021,-0.079 0.033,-0.128 0.014,-0.039 0.02,-0.082 0.033,-0.118 l 0.006,-0.017 v -0.006 c 0,0 0,-0.016 0,-0.02 0.06,-0.279 0.145,-0.657 0.178,-0.936 0.014,-0.079 0.02,-0.148 0.026,-0.224 0.007,-0.046 0.013,-0.085 0.02,-0.131 0.04,-0.289 0.065,-0.677 0.065,-0.966 v -0.765 c -0.006,-0.247 -0.02,-0.375 -0.052,-0.67 -0.105,-1.067 -0.349,-2.01 -0.664,-2.828 l -0.006,-0.017 c 0,-0.003 -0.007,-0.006 -0.007,-0.01 0,-0.01 -0.007,-0.017 -0.007,-0.026 0,-0.003 -0.007,-0.013 -0.007,-0.02 -0.111,-0.272 -0.15,-0.388 -0.263,-0.611 0,-0.013 -0.006,-0.023 -0.006,-0.026 -0.072,-0.151 -0.165,-0.335 -0.257,-0.499 v -0.017 l -0.059,-0.115 c -0.007,-0.003 -0.014,-0.017 -0.02,-0.026 0,-0.003 0,-0.01 -0.007,-0.02 -0.105,-0.207 -0.256,-0.466 -0.388,-0.66 -0.007,-0.01 -0.013,-0.013 -0.02,-0.02 -0.079,-0.125 -0.171,-0.256 -0.263,-0.384 l -0.092,-0.131 c 0,-0.014 -0.007,-0.023 -0.021,-0.03 0,-0.003 -0.006,-0.017 -0.013,-0.023 l -0.079,-0.105 c -0.02,-0.026 -0.039,-0.049 -0.059,-0.072 -0.105,-0.135 -0.21,-0.276 -0.303,-0.391 -0.013,-0.006 -0.02,-0.016 -0.025,-0.02 -0.047,-0.056 -0.099,-0.099 -0.151,-0.145 0,-0.01 -0.007,-0.013 -0.02,-0.023 -0.007,-0.003 -0.007,-0.006 -0.014,-0.006 -0.065,-0.05 -0.138,-0.096 -0.21,-0.138 -0.007,0 -0.007,0 -0.013,-0.003 -0.007,-0.003 -0.014,-0.003 -0.026,-0.013 -0.066,-0.033 -0.145,-0.059 -0.217,-0.085 -0.014,-0.003 -0.02,-0.003 -0.033,-0.006 -0.007,-0.006 -0.007,-0.006 -0.013,-0.01 -0.093,-0.026 -0.178,-0.046 -0.276,-0.062 v -0.003 h -0.033 c -0.013,0 -0.032,-0.003 -0.046,-0.003 -0.085,-0.013 -0.171,-0.023 -0.263,-0.026 h -0.052 c -0.033,-0.003 -0.053,-0.003 -0.079,-0.003 -0.21,-0.003 -0.44,0.017 -0.684,0.053 h -0.032 c 0,0 -0.007,0.003 -0.02,0.003 -0.112,0.017 -0.23,0.04 -0.349,0.062 -0.013,0.007 -0.026,0.007 -0.039,0.01 -0.007,0 -0.014,0.003 -0.014,0.003 -0.02,0.003 -0.039,0.003 -0.053,0.01 -0.006,0 -0.006,0.003 -0.02,0.003 -0.013,0.003 -0.032,0.006 -0.046,0.013 -0.124,0.033 -0.256,0.059 -0.381,0.099 -0.007,0.003 -0.013,0.003 -0.02,0.003 -0.007,0.003 -0.007,0.003 -0.02,0.01 -0.276,0.075 -0.578,0.177 -0.887,0.292 -0.053,0.023 -0.105,0.04 -0.151,0.062 -0.007,0 -0.007,0 -0.007,0.003 0,0 -0.006,0 -0.006,0.003 -0.139,0.056 -0.276,0.112 -0.414,0.171 -0.026,0.01 -0.053,0.02 -0.079,0.033 -0.013,0.003 -0.026,0.017 -0.046,0.02 -0.032,0.016 -0.059,0.026 -0.085,0.042 -0.007,0 -0.014,0.003 -0.02,0.007 -0.014,0 -0.026,0.013 -0.047,0.02 -0.689,0.315 -1.438,0.716 -2.227,1.195 -0.02,0.01 -0.046,0.023 -0.072,0.04 v 0.006 c -0.072,0.043 -0.15,0.089 -0.229,0.138 -0.598,0.368 -1.183,0.771 -1.754,1.189 -3.888,-3.912 -7.783,-7.83 -11.678,-11.744 0,-0.003 0,-0.003 -0.007,-0.006 0,-0.007 0,-0.01 -0.007,-0.01 -0.007,-0.003 -0.007,-0.003 -0.013,-0.006 -0.007,0 -0.014,-0.007 -0.014,-0.01 0,0 -0.013,-0.003 -0.02,-0.003 l -0.007,-0.003 c -0.144,-0.039 -0.288,-0.079 -0.427,-0.118 -0.42,-0.122 -0.302,1.199 -0.723,1.084 0.066,0.578 -0.413,-0.276 -0.361,0.309 v 0.003 c 0,0 0,0.006 0.007,0.01 0.007,0.013 0.007,0.02 0.014,0.036 0,0.003 0,0.01 0.006,0.01 0,0.003 0.007,0.006 0.007,0.01 v 0.01 c 3.231,4.473 6.463,8.953 9.688,13.436 -0.021,0.023 -0.046,0.046 -0.065,0.065 -0.112,0.112 -0.224,0.224 -0.336,0.338 -0.111,0.118 -0.229,0.23 -0.341,0.348 -0.19,0.197 -0.381,0.404 -0.559,0.607 -0.026,0.023 -0.053,0.049 -0.079,0.072 -0.039,0.053 -0.078,0.105 -0.131,0.154 -0.033,0.036 -0.06,0.076 -0.092,0.108 v 0.003 c -0.066,0.076 -0.132,0.148 -0.197,0.227 -0.053,0.059 -0.099,0.115 -0.145,0.174 0,0 -0.007,0.003 -0.007,0.007 -0.059,0.072 -0.118,0.145 -0.184,0.217 v 0.006 c -0.033,0.043 -0.065,0.072 -0.092,0.112 -0.014,0.017 -0.026,0.036 -0.046,0.059 -0.06,0.079 -0.125,0.161 -0.185,0.233 l -0.007,0.006 c -0.032,0.053 -0.078,0.105 -0.124,0.161 -0.06,0.082 -0.118,0.164 -0.185,0.25 l -0.006,0.006 c -0.007,0.01 -0.02,0.023 -0.026,0.036 -0.105,0.148 -0.21,0.289 -0.309,0.437 -0.007,0.003 -0.007,0.013 -0.014,0.016 -0.007,0.013 -0.013,0.02 -0.026,0.033 0,0.01 -0.006,0.013 -0.013,0.023 -0.079,0.118 -0.164,0.243 -0.236,0.361 -0.007,0.003 -0.007,0.01 -0.014,0.016 -0.013,0.03 -0.032,0.062 -0.052,0.089 -0.053,0.082 -0.099,0.154 -0.145,0.233 -0.026,0.033 -0.047,0.076 -0.066,0.112 -0.013,0.026 -0.032,0.046 -0.039,0.069 -0.046,0.076 -0.092,0.151 -0.132,0.22 v 0.003 c -0.026,0.046 -0.046,0.092 -0.072,0.134 -0.046,0.072 -0.078,0.151 -0.118,0.23 -0.026,0.036 -0.046,0.079 -0.059,0.115 -0.046,0.082 -0.079,0.161 -0.111,0.24 -0.021,0.026 -0.033,0.052 -0.047,0.079 -0.006,0.02 -0.013,0.042 -0.025,0.066 -0.026,0.065 -0.053,0.138 -0.086,0.197 -0.013,0.049 -0.033,0.095 -0.046,0.145 -0.007,0 -0.007,0 -0.007,0.006 -0.032,0.089 -0.065,0.181 -0.099,0.266 0,0.023 -0.006,0.04 -0.013,0.056 -0.02,0.069 -0.039,0.134 -0.06,0.207 -0.006,0.023 -0.013,0.049 -0.02,0.069 -0.032,0.115 -0.053,0.229 -0.079,0.341 -0.013,0.089 -0.025,0.177 -0.032,0.266 -0.007,0.026 -0.007,0.056 -0.007,0.085 0,0.052 -0.007,0.105 -0.007,0.147 v 0.01 c 0,0.033 0.007,0.065 0.007,0.095 v 0.134 c 0,0.033 0.007,0.062 0.014,0.092 0.006,0.033 0.006,0.075 0.013,0.102 0,0.007 0.007,0.013 0.007,0.023 0,0.026 0.013,0.056 0.02,0.082 0.013,0.036 0.02,0.072 0.026,0.105 0.013,0.026 0.02,0.056 0.032,0.079 0.014,0.026 0.021,0.056 0.033,0.079 0,0.003 0.007,0.013 0.007,0.02 0.013,0.029 0.032,0.053 0.046,0.075 0.007,0.014 0.013,0.026 0.02,0.036 0.007,0.017 0.014,0.03 0.026,0.04 0.02,0.023 0.033,0.053 0.053,0.079 0.007,0.006 0.013,0.016 0.02,0.023 0.007,0.01 0.013,0.02 0.02,0.026 0.007,0.006 0.014,0.02 0.02,0.023 0.007,0.01 0.007,0.013 0.014,0.023 0.007,0 0.013,0.006 0.02,0.016 0.099,0.108 0.19,0.21 0.275,0.299 0.06,0.062 0.112,0.122 0.158,0.171 0.013,0.013 0.02,0.02 0.039,0.036 l 0.007,0.003 c 0.138,0.145 0.302,0.305 0.453,0.44 0.065,0.056 0.099,0.089 0.099,0.089 0.013,0.006 0.02,0.013 0.026,0.023 0.104,0.088 0.236,0.187 0.354,0.289 l 0.125,0.102 c 0.007,0.003 0.013,0.01 0.026,0.017 0,0.003 0.013,0.013 0.013,0.016 l 0.118,0.085 c 0.092,0.072 0.184,0.138 0.282,0.207 0.033,0.026 0.06,0.046 0.093,0.065 h 0.006 c 0.007,0.01 0.014,0.013 0.02,0.017 0.026,0.023 0.06,0.046 0.093,0.069 0.032,0.023 0.078,0.056 0.124,0.085 0.021,0.007 0.04,0.02 0.053,0.033 0.145,0.095 0.296,0.181 0.421,0.252 0,0.003 0.006,0.003 0.006,0.003 0.105,0.059 0.204,0.118 0.315,0.181 0.992,0.555 2.017,0.93 3.094,1.117 0.138,0.023 0.309,0.052 0.46,0.076 0.039,0.006 0.072,0.013 0.099,0.02 0.026,0.003 0.053,0.006 0.078,0.006 0.021,0.003 0.04,0.01 0.053,0.013 0.079,0.013 0.236,0.033 0.46,0.053 0.814,0.079 1.78,0.082 2.838,-0.085 0.138,-0.026 0.249,-0.042 0.341,-0.059 0.021,-0.003 0.033,-0.007 0.047,-0.007 l 0.02,-0.01 c 0.013,-0.003 0.026,-0.003 0.046,-0.006 0.02,0 0.032,-0.01 0.059,-0.013 0.021,-0.003 0.033,-0.01 0.053,-0.013 0.046,-0.006 0.079,-0.017 0.118,-0.023 0.014,-0.007 0.026,-0.007 0.039,-0.01 0.066,-0.017 0.132,-0.03 0.197,-0.049 h 0.026 c 0.033,-0.013 0.06,-0.02 0.092,-0.026 0.007,-0.003 0.014,-0.003 0.021,-0.006 0.025,-0.003 0.052,-0.017 0.078,-0.02 0.118,-0.029 0.23,-0.062 0.328,-0.092 0.047,-0.013 0.093,-0.026 0.125,-0.036 0.086,-0.03 0.158,-0.049 0.243,-0.085 0.072,-0.023 0.145,-0.042 0.21,-0.069 0,-0.003 0,-0.003 0.007,-0.003 l 5.412,6.414 c 0,0.01 -0.007,0.016 -0.007,0.02 -0.025,0.059 -0.052,0.122 -0.078,0.184 -0.046,0.128 -0.092,0.246 -0.132,0.371 l -0.02,0.052 c -0.007,0.02 -0.013,0.043 -0.02,0.059 -0.013,0.04 -0.026,0.079 -0.033,0.115 -0.02,0.046 -0.032,0.095 -0.046,0.141 -0.006,0.007 -0.006,0.023 -0.013,0.033 l -0.014,0.046 c -0.039,0.135 -0.078,0.273 -0.104,0.404 -0.007,0.02 -0.007,0.039 -0.014,0.056 -0.006,0.013 -0.006,0.03 -0.013,0.042 -0.007,0.046 -0.014,0.083 -0.026,0.128 v 0.013 c -0.014,0.062 -0.026,0.118 -0.033,0.177 -0.006,0.006 -0.006,0.02 -0.006,0.029 l -0.007,0.02 c 0,0.006 -0.007,0.016 -0.007,0.023 v 0.055 c -0.007,0.003 -0.007,0.017 -0.013,0.023 v 0.017 c -0.046,0.282 -0.066,0.457 -0.066,0.46 v 0.003 c 0,0.036 -0.006,0.059 -0.006,0.062 v 0.029 c -0.014,0.145 -0.026,0.312 -0.04,0.454 l -0.006,0.134 v 0.348 c -0.007,0.158 0,0.371 0.013,0.529 0,0.02 0.007,0.04 0.007,0.062 0,0.095 0.013,0.197 0.02,0.295 0.013,0.059 0.013,0.115 0.026,0.171 0.013,0.158 0.039,0.319 0.065,0.473 v 0.006 c 0.02,0.128 0.053,0.259 0.079,0.388 l 0.026,0.088 c 0,0 0.006,0.04 0.02,0.089 0.007,0.023 0.007,0.049 0.02,0.072 0,0.01 0.007,0.023 0.007,0.029 0.013,0.066 0.039,0.145 0.059,0.224 l 0.021,0.062 c 0,0.003 0,0.013 0.006,0.016 v 0.013 l 0.014,0.04 c 0.026,0.076 0.046,0.154 0.072,0.227 0.013,0.042 0.026,0.085 0.046,0.125 0.007,0.026 0.02,0.056 0.026,0.079 v 0.003 c 0.006,0.01 0.006,0.016 0.006,0.023 0.007,0.003 0.007,0.01 0.007,0.02 0.04,0.099 0.092,0.217 0.138,0.325 l 0.033,0.092 v 0.007 c 0.007,0.006 0.007,0.013 0.007,0.016 l 0.046,0.089 c 0.046,0.105 0.099,0.23 0.15,0.329 0.007,0.006 0.007,0.01 0.007,0.013 0.026,0.053 0.053,0.115 0.092,0.181 v 0.007 c 0.04,0.079 0.072,0.138 0.118,0.217 0.021,0.023 0.033,0.046 0.04,0.062 0.007,0.01 0.007,0.013 0.013,0.02 0.007,0 0.007,0.006 0.007,0.006 0.072,0.135 0.177,0.299 0.263,0.434 l 0.21,0.299 c 0.092,0.128 0.217,0.289 0.315,0.411 0,0.006 0.007,0.006 0.014,0.017 0.006,0.013 0.013,0.016 0.02,0.029 0.032,0.033 0.065,0.062 0.099,0.085 h 0.006 c 0,0 0.007,0.003 0.007,0.01 0.046,0.026 0.092,0.056 0.145,0.082 0.007,0.003 0.014,0.007 0.02,0.01 0.007,0.007 0.014,0.007 0.02,0.007 0.06,0.023 0.118,0.046 0.19,0.056 v 0.007 c 0.06,0.016 0.132,0.02 0.197,0.026 0.007,0.007 0.014,0.007 0.026,0.007 0,0.003 0.007,0.003 0.014,0.003 h 0.032 c 0.118,0.006 0.257,0.003 0.4,-0.01 0.033,-0.006 0.072,-0.01 0.112,-0.01 0.006,-0.006 0.013,-0.006 0.02,-0.006 h 0.013 c 0.185,-0.026 0.382,-0.069 0.592,-0.128 0.013,0 0.026,-0.003 0.039,-0.01 0.013,0 0.02,-0.006 0.033,-0.01 0.006,-0.003 0.02,-0.003 0.026,-0.003 0.006,0 0.013,-0.01 0.02,-0.01 0.223,-0.065 0.466,-0.151 0.723,-0.25 0,-0.006 0.006,-0.006 0.006,-0.006 h 0.007 c 0.118,-0.049 0.243,-0.099 0.361,-0.151 0.013,-0.01 0.033,-0.013 0.046,-0.02 0.007,-0.006 0.007,-0.006 0.014,-0.01 0.065,-0.03 0.138,-0.062 0.21,-0.095 0.059,-0.03 0.118,-0.056 0.177,-0.085 0.02,-0.01 0.04,-0.017 0.053,-0.03 0.026,-0.003 0.039,-0.016 0.06,-0.026 0.006,-0.003 0.013,-0.003 0.02,-0.006 0.026,-0.013 0.059,-0.03 0.079,-0.046 0.025,-0.007 0.046,-0.02 0.065,-0.033 0.085,-0.04 0.164,-0.082 0.249,-0.128 0.04,-0.023 0.086,-0.052 0.139,-0.079 0.072,-0.036 0.145,-0.079 0.217,-0.118 0.039,-0.023 0.085,-0.046 0.124,-0.072 0.079,-0.043 0.158,-0.095 0.237,-0.138 0.025,-0.016 0.046,-0.026 0.065,-0.042 0.059,-0.033 0.118,-0.069 0.184,-0.108 0.007,-0.003 0.014,-0.007 0.02,-0.01 0.079,-0.049 0.158,-0.102 0.236,-0.151 0.066,-0.039 0.132,-0.075 0.19,-0.118 v -0.003 c 0.06,-0.04 0.119,-0.072 0.171,-0.112 0.939,-0.611 1.853,-1.311 2.72,-2.036 0.184,-0.167 0.374,-0.335 0.564,-0.496 0.072,-0.065 0.139,-0.128 0.204,-0.19 0.111,-0.102 0.224,-0.204 0.335,-0.309 0.085,-0.079 0.171,-0.161 0.249,-0.24 0.093,-0.079 0.178,-0.164 0.263,-0.256 0.093,-0.085 0.178,-0.167 0.263,-0.259 0,0.003 0,0.003 0.007,0.003 0.046,-0.053 0.092,-0.102 0.138,-0.151 0.118,-0.125 0.237,-0.243 0.349,-0.364 0.21,-0.224 0.407,-0.443 0.604,-0.664 0.02,-0.029 0.046,-0.059 0.072,-0.085 0.099,-0.122 0.196,-0.24 0.302,-0.361 0.014,-0.02 0.026,-0.039 0.046,-0.056 0.118,-0.158 0.243,-0.312 0.354,-0.463 0.04,-0.049 0.079,-0.099 0.112,-0.148 0.046,-0.072 0.099,-0.138 0.15,-0.204 0.046,-0.066 0.093,-0.138 0.139,-0.207 0.013,-0.006 0.02,-0.02 0.02,-0.029 0.02,-0.03 0.032,-0.053 0.052,-0.072 0.014,-0.026 0.033,-0.049 0.047,-0.076 0.006,0 0.006,-0.003 0.006,-0.003 0.033,-0.049 0.066,-0.105 0.099,-0.154 0.026,-0.04 0.053,-0.082 0.072,-0.118 0.04,-0.049 0.065,-0.105 0.092,-0.158 0.014,-0.02 0.026,-0.039 0.04,-0.059 0.039,-0.072 0.078,-0.134 0.118,-0.204 0.007,-0.026 0.02,-0.042 0.026,-0.062 0.013,-0.016 0.02,-0.033 0.026,-0.046 0.026,-0.049 0.059,-0.102 0.078,-0.157 0.014,-0.02 0.021,-0.04 0.026,-0.062 0.079,-0.151 0.145,-0.306 0.197,-0.45 0.014,-0.023 0.02,-0.049 0.026,-0.072 0.032,-0.079 0.053,-0.154 0.072,-0.233 0.02,-0.066 0.046,-0.135 0.059,-0.207 0,-0.02 0.007,-0.04 0.007,-0.059 0.014,-0.046 0.014,-0.092 0.026,-0.128 v -0.01 c 0,-0.02 0,-0.039 0.007,-0.069 v -0.105 c -0.03,-0.01 -0.03,-0.04 -0.03,-0.06 z"
         fill="url(#y)"
         id="path4"
         style="fill:url(#y)"
         transform="translate(-98.343994,-94.3479)" />
      <path
         d="M 200.85,123.79"
         fill="#851214"
         id="path5"
         transform="translate(-98.343994,-94.3479)" />
      <use
         fill="url(#z)"
         overflow="visible"
         xlink:href="#a"
         id="use8"
         style="fill:url(#z)"
         transform="translate(-98.343994,-94.3479)" />
      <g
         clip-path="url(#aa)"
         id="g12"
         transform="translate(-98.343994,-94.3479)">
        <linearGradient
           id="ab"
           x1="188.39"
           x2="185.53999"
           y1="122.22"
           y2="119.77"
           gradientUnits="userSpaceOnUse">
          <stop
             stop-color="#fff"
             offset="0"
             id="stop9" />
          <stop
             stop-color="#0B0B0B"
             offset=".2952"
             id="stop10" />
          <stop
             stop-color="#7F7F7F"
             offset=".4238"
             id="stop11" />
          <stop
             stop-color="#EAEAEA"
             offset=".6524"
             id="stop12" />
        </linearGradient>
        <path
           d="m 181.72,124.49 7.508,-10.735 c -0.499,0.726 -0.532,1.767 0,2.722 0.781,1.373 2.437,2.04 3.711,1.508 0.197,-0.083 0.374,-0.194 0.538,-0.322 l -10.089,8.368 c -0.059,0.049 -0.131,0.092 -0.203,0.125 -0.499,0.21 -1.156,-0.056 -1.465,-0.591 -0.22,-0.38 -0.2,-0.79 0,-1.08"
           fill="url(#ab)"
           id="path12"
           style="fill:url(#ab)" />
      </g>
      <path
         d="m 203.67,113.05 c -0.099,-0.453 -0.375,-1.839 -1.36,-3.612 -0.434,-0.736 -1.583,-2.673 -3.967,-4.243 -2.424,-1.609 -4.644,-1.898 -5.478,-2.003 -0.145,-0.013 -1.445,-0.17 -2.93,0.02 l -1.183,0.197 c -0.525,0.131 -1.222,0.342 -1.728,0.525 -0.052,0.02 -1.195,0.434 -2.449,1.255 -0.224,0.151 -0.526,0.354 -0.736,0.532 -0.184,0.151 -0.388,0.329 -0.591,0.512 -0.243,0.197 -0.467,0.401 -0.677,0.618 -0.02,0.013 -0.039,0.033 -0.053,0.053 0.014,-0.013 0.026,-0.026 0.04,-0.04 -3.021,3.081 -3.547,8.174 -0.92,12.808 3.323,5.872 10.457,8.765 15.915,6.469 1.34,-0.564 2.45,-1.392 3.323,-2.397 -0.013,0.01 -0.026,0.023 -0.033,0.039 0.007,-0.016 0.026,-0.033 0.04,-0.046 0.131,-0.161 0.27,-0.328 0.394,-0.499 0.236,-0.295 0.474,-0.611 0.65,-0.89 0.565,-0.929 0.703,-1.218 1.058,-2.01 0,-0.023 0.677,-1.586 0.854,-3.333 0.1,-0.67 0.23,-2.06 -0.15,-3.96 z"
         fill="url(#ac)"
         id="path20"
         style="fill:url(#ac)"
         transform="translate(-98.343994,-94.3479)" />
      <g
         clip-path="url(#ae)"
         id="g28"
         transform="translate(-98.343994,-94.3479)">
        <linearGradient
           id="q"
           x1="194.06"
           x2="199.46001"
           y1="106.08"
           y2="113.47"
           gradientUnits="userSpaceOnUse">
          <stop
             stop-color="#FCD3E5"
             offset="0"
             id="stop21" />
          <stop
             stop-color="#F983C0"
             offset=".1762"
             id="stop22" />
          <stop
             stop-color="#F57EBD"
             offset=".19"
             id="stop23" />
          <stop
             stop-color="#DA56A9"
             offset=".3093"
             id="stop24" />
          <stop
             stop-color="#C6399A"
             offset=".4182"
             id="stop25" />
          <stop
             stop-color="#BA2791"
             offset=".5123"
             id="stop26" />
          <stop
             stop-color="#B6218E"
             offset=".581"
             id="stop27" />
          <stop
             stop-color="#860454"
             offset="1"
             id="stop28" />
        </linearGradient>
        <path
           d="m 192.58,107.97 3.98,-4.315 c -0.991,1.071 -1.149,2.805 -0.256,4.381 1.156,2.043 3.632,3.041 5.53,2.247 0.434,-0.184 0.795,-0.44 1.09,-0.755 l -3.974,4.315 c -0.295,0.318 -0.656,0.578 -1.09,0.762 -1.898,0.798 -4.374,-0.207 -5.53,-2.253 -0.89,-1.59 -0.73,-3.32 0.25,-4.4"
           fill="url(#q)"
           id="path28"
           style="fill:url(#q)" />
      </g>
      <g
         clip-path="url(#s)"
         id="g32"
         transform="translate(-98.343994,-94.3479)">
        <linearGradient
           id="t"
           x1="193.27"
           x2="211.85001"
           y1="103.57"
           y2="103.57"
           gradientUnits="userSpaceOnUse">
          <stop
             stop-color="#FA95CA"
             offset="0"
             id="stop29" />
          <stop
             stop-color="#F68DC5"
             offset=".1284"
             id="stop30" />
          <stop
             stop-color="#E56EB3"
             offset=".6878"
             id="stop31" />
          <stop
             stop-color="#DF62AC"
             offset="1"
             id="stop32" />
        </linearGradient>
        <path
           d="m 195.65,96.785 c -3.829,4.716 -2.108,9.254 -1.188,10.995 1.793,3.376 5.747,5.412 9.622,4.939 3.166,-0.387 5.031,-2.161 5.734,-2.831 2.345,-2.411 2.745,-6.352 0.716,-9.918 -1.412,1.498 -4.302,3.5 -7.356,5.176 1.163,2.036 0.559,4.335 -1.34,5.136 -1.898,0.794 -4.374,-0.204 -5.53,-2.247 -1.156,-2.042 -0.552,-4.348 1.347,-5.143 1.898,-0.802 4.367,0.21 5.523,2.253 3.055,-1.675 5.944,-3.678 7.356,-5.176 -2.581,-4.552 -8.092,-6.792 -12.328,-5.012 -1.02,0.43 -1.88,1.054 -2.55,1.823"
           fill="url(#t)"
           id="path32"
           style="fill:url(#t)" />
      </g>
      <g
         clip-path="url(#v)"
         id="g33"
         transform="translate(-98.343994,-94.3479)">
        <path
           d="m 194.53,107.89 c -2.01,-3.691 -1.589,-7.836 1.123,-11.106 -2.095,2.404 -2.391,6.187 -0.439,9.629 2.581,4.552 8.099,6.798 12.328,5.011 0.9,-0.381 1.682,-0.913 2.312,-1.557 -5.7,5.48 -12.88,2.49 -15.32,-1.97"
           fill="#c0238e"
           id="path33" />
      </g>
      <path
         d="m 210.54,99.97 c 2.575,4.545 1.241,9.675 -2.995,11.455 -4.229,1.787 -9.747,-0.459 -12.328,-5.011 -2.582,-4.545 -1.235,-9.675 2.995,-11.455 4.24,-1.776 9.76,0.463 12.34,5.015 z"
         fill="url(#w)"
         id="path36"
         style="fill:url(#w)"
         transform="translate(-98.343994,-94.3479)" />
    </g>
    <g
       inkscape:groupmode="layer"
       inkscape:label="screen"
       id="g1"
       transform="matrix(0.90645691,0,0,0.90317813,106.19492,111.54113)"
       style="mix-blend-mode:normal">
      <rect
         id="screenBox"
         style="fill:none;stroke:none;stroke-width:1"
         width="163.62106"
         height="134.36816"
         x="10.298974"
         y="43.207706" />
    </g>
  </g>
</svg>
