<?xml version='1.0' encoding='utf-8'?>
<svg xmlns="http://www.w3.org/2000/svg" version="1.1" id="Camada_1" x="0px" y="0px" viewBox="0 0 1600 1600" style="enable-background:new 0 0 1600 1600;"> <style type="text/css"> .st0{fill-rule:evenodd;clip-rule:evenodd;fill:#7EE8E1;} .st1{fill-rule:evenodd;clip-rule:evenodd;fill:#ECCB97;stroke:#607848;stroke-width:7.3036;stroke-miterlimit:22.9256;} .st2{fill-rule:evenodd;clip-rule:evenodd;fill:#ABC488;stroke:#607848;stroke-width:7.3036;stroke-miterlimit:22.9256;} .st3{fill-rule:evenodd;clip-rule:evenodd;fill:#B9D299;stroke:#607848;stroke-width:7.3036;stroke-miterlimit:22.9256;} .st4{fill-rule:evenodd;clip-rule:evenodd;fill:#ABC488;stroke:#8D8988;stroke-width:7.3036;stroke-miterlimit:22.9256;} .st5{fill-rule:evenodd;clip-rule:evenodd;fill:#D3E1B2;} .st6{fill:#607848;} .st7{fill-rule:evenodd;clip-rule:evenodd;fill:#5B8233;} .st8{fill:none;stroke:#004D40;stroke-width:29.2146;stroke-miterlimit:22.9256;} .st9{fill-rule:evenodd;clip-rule:evenodd;fill:#5B8233;stroke:#004D40;stroke-width:7.3036;stroke-miterlimit:22.9256;} .st10{fill-rule:evenodd;clip-rule:evenodd;fill:#FFCF8D;stroke:#004D40;stroke-width:7.3036;stroke-miterlimit:22.9256;} .st11{fill-rule:evenodd;clip-rule:evenodd;fill:#FBAB52;stroke:#004D40;stroke-width:7.3036;stroke-miterlimit:22.9256;} .st12{fill:#004D40;} .st13{fill-rule:evenodd;clip-rule:evenodd;fill:#FFFFFF;stroke:#211915;stroke-width:2.0703;stroke-miterlimit:22.9256;} .st14{fill-rule:evenodd;clip-rule:evenodd;fill:#5B8233;stroke:#004D40;stroke-width:5.4776;stroke-miterlimit:22.9256;} .st15{fill-rule:evenodd;clip-rule:evenodd;fill:#185653;stroke:#004D40;stroke-width:5.4776;stroke-miterlimit:22.9256;} .st16{fill-rule:evenodd;clip-rule:evenodd;fill:#2A918C;stroke:#004D40;stroke-width:5.4776;stroke-miterlimit:22.9256;} .st17{fill-rule:evenodd;clip-rule:evenodd;fill:#FBAB52;stroke:#211915;stroke-width:2.0703;stroke-miterlimit:22.9256;} .st18{fill-rule:evenodd;clip-rule:evenodd;fill:#FFC582;stroke:#004D40;stroke-width:5.4776;stroke-miterlimit:22.9256;} .st19{fill-rule:evenodd;clip-rule:evenodd;fill:#11CBC0;stroke:#004D40;stroke-width:7.3036;stroke-miterlimit:22.9256;} .st20{fill-rule:evenodd;clip-rule:evenodd;fill:#0DA49F;stroke:#004D40;stroke-width:7.3036;stroke-miterlimit:22.9256;} .st21{fill-rule:evenodd;clip-rule:evenodd;fill:#DEAF6D;stroke:#004D40;stroke-width:5.4776;stroke-miterlimit:22.9256;} .st22{fill-rule:evenodd;clip-rule:evenodd;fill:#B58B4F;stroke:#004D40;stroke-width:5.4776;stroke-miterlimit:22.9256;} .st23{fill-rule:evenodd;clip-rule:evenodd;fill:#004D40;} .st24{fill-rule:evenodd;clip-rule:evenodd;fill:#FFFFFF;stroke:#004D40;stroke-width:3.6516;stroke-miterlimit:22.9256;} .st25{fill-rule:evenodd;clip-rule:evenodd;fill:#FFFFFF;} .st26{fill-rule:evenodd;clip-rule:evenodd;fill:#FFCF8D;} .st27{fill-rule:evenodd;clip-rule:evenodd;fill:#211915;} .st28{fill-rule:evenodd;clip-rule:evenodd;fill:#96713E;stroke:#004D40;stroke-width:2.0703;stroke-miterlimit:22.9256;} .st29{fill-rule:evenodd;clip-rule:evenodd;fill:#9EBA66;stroke:#004D40;stroke-width:2.0703;stroke-miterlimit:22.9256;} .st30{fill-rule:evenodd;clip-rule:evenodd;fill:#FBAB52;stroke:#004D40;stroke-width:5.4776;stroke-miterlimit:22.9256;} .st31{fill:none;stroke:#004D40;stroke-width:1.0352;stroke-miterlimit:22.9256;} .st32{fill:none;stroke:#004D40;stroke-width:5.4776;stroke-miterlimit:22.9256;} </style> <g> <polygon class="st0" points="0,0.86 1601.97,0.86 1601.97,1600.86 0,1600.86 0,0.86 "/> <polygon class="st1" points="1381.45,1196.26 1369.81,1189.63 1219.6,1426.16 1253.8,1445.64 1381.45,1196.26 "/> <path class="st2" d="M1585.32,1199.44l-74.91-6.79l38.9,32.35l-90.75-25.99l22.1,30.81l-64.93-21.46l11.87,27.13l-53.27-38.39 C1426.66,1160.25,1503.74,1113.65,1585.32,1199.44L1585.32,1199.44z"/> <path class="st2" d="M1264.77,1016.76l44.01,60.98l-47.66-16.98l68.62,64.82l-37.77-3.31l51.56,44.93l-29.39,3.61l60.18,26.26 C1379.35,1133.29,1380.16,1043.22,1264.77,1016.76L1264.77,1016.76z"/> <path class="st2" d="M1475.72,1012.04l-30.8,68.61l-9.13-49.76l-21.83,91.84l-16.02-34.36l-13.12,67.11l-17.83-23.64l7.35,65.25 C1432.09,1169.53,1510.49,1125.2,1475.72,1012.04L1475.72,1012.04z"/> <path class="st2" d="M1170.34,1250.99l70.96-24.91l-29.8,40.89l81.63-47.41l-13.89,35.28l57.71-36.7l-4.87,29.2l42.25-50.26 C1314.58,1174.18,1228.44,1147.85,1170.34,1250.99L1170.34,1250.99z"/> <path class="st2" d="M1431.93,1400.07l-14.74-73.75l-19.98,46.48l-0.82-94.39l-23.27,29.93l2.16-68.35l-22.65,19.08l21.71-61.97 C1424.5,1236.82,1491.05,1297.51,1431.93,1400.07L1431.93,1400.07z"/> <path class="st3" d="M1406.45,1308.92l-8.26-40.64l-10.94,25.67l-0.61-52.05l-12.78,16.54l1.07-37.69l-12.45,10.56l11.86-34.21 C1402.07,1218.91,1438.87,1252.27,1406.45,1308.92L1406.45,1308.92z"/> <path class="st3" d="M1261.76,1226.47l39.18-13.61l-16.5,22.49l45.09-26l-7.71,19.43l31.88-20.14l-2.74,16.1l23.38-27.64 C1341.43,1184.36,1293.98,1169.7,1261.76,1226.47L1261.76,1226.47z"/> <polygon class="st1" points="1096.72,891.84 1073.26,888.51 980.11,1375.32 1049.04,1385.12 1096.72,891.84 "/> <path class="st2" d="M1434.13,764.38l-127.62,37.59l85.04,27.9l-166.18,16.3l56.39,36.3l-120.77,6.95l37.18,36.9l-112.61-28.49 C1147.66,803.17,1244.12,676.36,1434.13,764.38L1434.13,764.38z"/> <path class="st2" d="M787.98,672.51l112.09,71.67l-89.45,3.09l155.06,61.97l-64.27,19.14l114.05,40.34l-45.99,25.07l116.08,4.03 C1052.28,789.61,995,640.94,787.98,672.51L787.98,672.51z"/> <path class="st2" d="M1131.89,527.46l-6.02,132.91l-47.4-75.92l23.86,165.27l-48.72-46.09l22.09,118.94L1031,795.27l54.55,102.54 C1162.63,814.9,1262.74,690.96,1131.89,527.46L1131.89,527.46z"/> <path class="st4" d="M785.09,1119.25l100.52-87.15l-22.41,86.65l103.42-131.11l0.12,67.07l71.03-97.92l11,51.21l36.79-110.17 C972.36,899.02,813.54,911.78,785.09,1119.25L785.09,1119.25z"/> <path class="st2" d="M1312.39,1194.22l-72.25-111.72l-2.63,89.46l-62.77-154.74l-18.81,64.37l-40.92-113.84l-24.83,46.12 l-4.63-116.06C1193.93,930.53,1342.89,987.05,1312.39,1194.22L1312.39,1194.22z"/> <path class="st3" d="M1211.16,1060.88l-40.03-61.48l-1.3,49.33l-34.88-85.22l-10.26,35.53l-22.76-62.7l-13.62,25.47l-2.75-63.99 C1145.38,915.68,1227.62,946.59,1211.16,1060.88L1211.16,1060.88z"/> <path class="st3" d="M919.5,1019.41l55.58-47.89l-12.51,47.74l57.25-72.12l-0.05,36.98l39.34-53.87l5.97,28.26l20.48-60.69 C1023.15,898.3,935.55,905.06,919.5,1019.41L919.5,1019.41z"/> <polygon class="st1" points="229.04,1196.26 240.67,1189.63 390.88,1426.16 356.69,1445.64 229.04,1196.26 "/> <path class="st2" d="M25.16,1199.44l74.9-6.79L61.17,1225l90.75-25.99l-22.09,30.81l64.93-21.46l-11.87,27.13l53.27-38.39 C183.82,1160.25,106.74,1113.65,25.16,1199.44L25.16,1199.44z"/> <path class="st2" d="M345.71,1016.76l-44.02,60.98l47.66-16.98l-68.62,64.82l37.77-3.31l-51.56,44.93l29.39,3.61l-60.18,26.26 C231.13,1133.29,230.32,1043.22,345.71,1016.76L345.71,1016.76z"/> <path class="st2" d="M134.77,1012.04l30.81,68.61l9.13-49.76l21.83,91.84l16.02-34.36l13.12,67.11l17.82-23.64l-7.35,65.25 C178.39,1169.53,99.99,1125.2,134.77,1012.04L134.77,1012.04z"/> <path class="st2" d="M440.14,1250.99l-70.97-24.91l29.8,40.89l-81.63-47.41l13.88,35.28l-57.7-36.7l4.87,29.2l-42.25-50.26 C295.9,1174.18,382.04,1147.85,440.14,1250.99L440.14,1250.99z"/> <path class="st2" d="M178.55,1400.07l14.74-73.75l19.98,46.48l0.82-94.39l23.28,29.93l-2.16-68.35l22.64,19.08l-21.71-61.97 C185.98,1236.82,119.43,1297.51,178.55,1400.07L178.55,1400.07z"/> <path class="st3" d="M204.04,1308.92l8.25-40.64l10.94,25.67l0.61-52.05l12.78,16.54l-1.08-37.69l12.45,10.56l-11.86-34.21 C208.41,1218.91,171.61,1252.27,204.04,1308.92L204.04,1308.92z"/> <path class="st3" d="M348.72,1226.47l-39.17-13.61l16.5,22.49l-45.09-26l7.72,19.43l-31.88-20.14l2.74,16.1l-23.39-27.64 C269.05,1184.36,316.5,1169.7,348.72,1226.47L348.72,1226.47z"/> <polygon class="st1" points="513.76,891.84 537.22,888.51 630.37,1375.32 561.44,1385.12 513.76,891.84 "/> <path class="st2" d="M176.35,764.38l127.62,37.59l-85.04,27.9l166.19,16.3l-56.39,36.3l120.77,6.95l-37.18,36.9l112.61-28.49 C462.82,803.17,366.36,676.36,176.35,764.38L176.35,764.38z"/> <path class="st2" d="M822.5,672.51l-112.09,71.67l89.45,3.09L644.8,809.24l64.28,19.14l-114.05,40.34l45.99,25.07l-116.08,4.03 C558.2,789.61,615.48,640.94,822.5,672.51L822.5,672.51z"/> <path class="st2" d="M478.59,527.46l6.02,132.91l47.4-75.92l-23.86,165.27l48.72-46.09l-22.09,118.94l44.71-27.29l-54.55,102.54 C447.86,814.9,347.74,690.96,478.59,527.46L478.59,527.46z"/> <path class="st4" d="M825.4,1119.25l-100.53-87.15l22.41,86.65L643.87,987.63l-0.12,67.07l-71.03-97.92l-10.99,51.21l-36.79-110.17 C638.12,899.02,796.94,911.78,825.4,1119.25L825.4,1119.25z"/> <path class="st2" d="M298.09,1194.22l72.25-111.72l2.63,89.46l62.77-154.74l18.81,64.37l40.93-113.84l24.83,46.12l4.63-116.06 C416.56,930.53,267.59,987.05,298.09,1194.22L298.09,1194.22z"/> <path class="st3" d="M399.32,1060.88l40.03-61.48l1.29,49.33l34.88-85.22l10.26,35.53l22.76-62.7l13.62,25.47l2.75-63.99 C465.1,915.68,382.86,946.59,399.32,1060.88L399.32,1060.88z"/> <path class="st3" d="M690.98,1019.41l-55.58-47.89l12.51,47.74l-57.25-72.12l0.05,36.98l-39.34-53.87l-5.98,28.26l-20.48-60.69 C587.34,898.3,674.93,905.06,690.98,1019.41L690.98,1019.41z"/> <path class="st5" d="M782.82,1293.1c293.79,0,538.95,131.45,596.6,306.41H186.22C243.86,1424.55,489.03,1293.1,782.82,1293.1 L782.82,1293.1z"/> <path class="st6" d="M782.82,1287.27c148.27,0,284.33,33.32,390.51,88.78c106.94,55.85,183.68,134.23,212.36,223.83h-12.27 c-28.6-85.14-102.66-159.85-205.46-213.54c-104.55-54.61-238.73-87.41-385.14-87.41c-146.42,0-280.59,32.81-385.14,87.41 c-102.8,53.69-176.86,128.4-205.46,213.54h-12.27c28.68-89.59,105.42-167.98,212.36-223.83 C498.49,1320.59,634.55,1287.27,782.82,1287.27L782.82,1287.27z"/> <path class="st7" d="M1059.97,1191.07c3.01,6.84,7.72,15.82,12.48,18.11c2.48,1.19,3.45-0.98,3.62-4.54 c2.56,8.65,7.25,21.7,13.08,25.35c6.02,3.77,5.79-12.13,4.99-22.89c0.6,0.11,1.19,0.21,1.79,0.31c0.63,10.17,2.37,21.34,6.77,26.25 c6.16,6.89,11.59-13.39,14.43-26.95c0.36-0.1,0.71-0.21,1.07-0.31c0.52,9.62,1.91,18.32,4.93,22.55 c6.66,9.33,14.96-26.93,18.64-45.36c7.26-17.83,6.4-43.48-1.99-70.57c-12.7-41-77.52-159.21-115.19-227.4 c-12.16-22.01-23.67-38.19-34.27-49.26c-4.11-7.15-10.95-12.77-18.7-15.33c9.72-21.06-10.21-35.44-33.16-44.12 c12.1-0.56,26.31-7.12,28.16-20.09c0.53-3.7,0.5-8.33,0.25-12.73c17.87-15.12,32.72-38.8,44.56-66.59 c18.71-1.14,37.54-11.51,37.81-35.88c0.21-18.77-6.61-28.48-16.22-31.77c4.58-19.64,7.99-39.59,10.24-58.77 c43.96,12.12,126.69,1.7,101.97-36.88c-24.97-38.99-61.57-64.54-103.79-79.81c-7.3-43.75-31.76-143.2-48.93-158 c-45.87-39.56-178.49-51.28-245.98-13.3c-47.43,17.87-89.74,47.68-115.38,89.65c-12.66,30.97-24.78,86.89-16.18,188.93l0.01-0.01 c1.11,15.29,3.77,30.43,7.95,45.06c-19.63-1.56-36.15,10.07-35.77,43.45c0.6,53.27,68.47,55.83,91.35,36.19 c8.04,9.01,16.87,17.27,26.47,24.59c14.14,10.79,44.95,27.33,80.97,41.8c-0.17,11.08-0.84,26.73-0.09,35.69 c-1.23,0.46-2.44,0.93-3.65,1.41c-19.25-3.62-43.52-1.4-60.06,6.12c-20.17-5.84-35.46,10.25-31.23,27.22 c-8.91,1.26-19.57,8.53-23.61,17.53c-18.85,6.76-38.45,16.68-56.81,28.79l0.01,0c-45.62,30.1-83.58,73.77-83.35,116.4 c0.35,63.75,37.34,118.24,88.72,152.89c14.52,9.79,29.84,16.76,44.55,20.72c1.04,7.23,2,14.12,0.02,20.31l-0.41,1.07l0.04,0.01 l-0.04,0.1c3.36,0.62,6.71,1.24,10.05,1.85l-2.11,5.28l0,0.01c-1.17,2.94-2.35,5.9-3.54,8.88l0,0.01c-1.19,2.98-2.38,5.98-3.57,9 l-0.01,0.01c-1.19,3.02-2.39,6.05-3.6,9.1l-0.01,0.01c-1.2,3.04-2.41,6.11-3.62,9.18l0,0.01c-1.21,3.07-2.42,6.15-3.63,9.24 l-0.01,0.01c-1.21,3.09-2.42,6.19-3.64,9.3c-1.21,3.1-2.42,6.21-3.62,9.32l0,0.01c-3.62,9.33-7.23,18.69-10.77,27.98l0,0.01 l-1.3,3.4l0,0l-0.03,0.08l-2.2,5.78l0,0.01c-1.17,3.08-2.33,6.14-3.48,9.2l0,0.01c-1.15,3.05-2.29,6.1-3.43,9.13l0,0.01 c-1.13,3.03-2.26,6.04-3.37,9.03l0,0.01c-4.45,11.98-8.71,23.67-12.71,34.87l0,0.01c-1,2.8-1.98,5.57-2.95,8.3l0,0.01 c-3.86,10.95-7.43,21.37-10.63,31.07l0,0c-0.8,2.43-1.57,4.8-2.33,7.14l0,0c-2.25,7-4.29,13.57-6.06,19.63l0,0 c-0.59,2.02-1.16,3.98-1.69,5.88v0c-0.21,0.74-0.41,1.48-0.61,2.2l-0.02,0.08c-3.21,7.71-9.55,42.58-7.7,50.52h182.71 c1.41-6.04,2.16-12.32,2.16-18.76c0-16.57-4.92-32.06-13.44-45.23l0.02-0.05l0.03-0.07l0.35-0.74l0.03-0.07l0.04-0.07l0.04-0.07 l0.03-0.08l0.04-0.07l0.04-0.07l0.04-0.07l0.03-0.05l0.01-0.02l0.04-0.08l0.04-0.07l0.03-0.07l0.03-0.08l0.04-0.07l0.03-0.07 l0.03-0.08l0.04-0.07l0.04-0.07l0.04-0.07l0.03-0.08l0.03-0.07l0.04-0.07l0.04-0.08l0.03-0.07l0.03-0.07l0.04-0.08l0.03-0.07 l0.04-0.08l0-0.01l0.03-0.07l0.04-0.07l0.04-0.07l0.03-0.07l0.04-0.08l0.04-0.07l0.03-0.08l0.04-0.08l0.03-0.07l0.03-0.08 l0.04-0.07l0.04-0.08l0.04-0.07l0.04-0.08l0.03-0.07l0.04-0.08c13.96-29.6,29.07-64.2,43.44-98.01l0.07-0.15l2.12-4.99l0,0 c1.54-3.64,3.06-7.22,4.55-10.75l0,0c3.72-8.82,7.26-17.26,10.53-25.1l0,0l1.93-4.63l0,0c1.26-3.04,2.48-5.97,3.65-8.78l0,0 c2.33-5.63,4.45-10.78,6.34-15.35l0,0c5.63-13.7,9.03-22.1,9.03-22.1v-0.01l0.51,0.07h0l0.51,0.07l0,0l0.52,0.07l0.51,0.07 l0.52,0.07h0l0.51,0.07l0,0l0.52,0.06l0.52,0.06h0l0.51,0.06l0.52,0.06l0,0l0.52,0.06l0,0l0.52,0.06l0.52,0.06l0.52,0.06l0.52,0.06 l0.52,0.05l0.52,0.05l0,0l0.52,0.05l0,0l0.53,0.05l0.52,0.05l0,0l0.52,0.05l0.52,0.05l0.53,0.05l0,0l0.53,0.05l0.52,0.04h0 l0.53,0.04l0.53,0.04l0,0l0.53,0.04l0,0l0.53,0.04l0,0l0.53,0.04l0.53,0.04l0.53,0.04l0.53,0.04h0l0.53,0.03l0,0l0.53,0.03l0,0 l0.53,0.03l0,0l0.53,0.03l0,0l0.53,0.03l0.53,0.03l0.54,0.03l0,0l0.53,0.03l0,0l0.54,0.03l0,0l0.54,0.02l0,0l0.53,0.02h0l0.54,0.02 v0l0.54,0.02l0,0l0.54,0.02v0l0.54,0.02l0,0l0.54,0.02l0,0l0.54,0.02l0,0l0.54,0.02l0,0l0.54,0.01l0,0l0.54,0.01l0,0l0.54,0.01l0,0 l0.54,0.01l0,0l0.54,0.01l0,0l0.54,0.01v0l0.54,0.01v0l0.54,0.01v0l0.54,0l0,0l0.55,0v0l0.54,0l0,0l0.55,0v0h0.55l0,0l-0.05,0.17 l0,0l-0.14,0.5v0l-0.23,0.83l0,0l-0.32,1.14v0l-0.4,1.44v0l-0.48,1.73v0l-0.56,2.02l0,0l-0.63,2.29v0l-0.7,2.55l0,0l-0.77,2.8l0,0 l-0.84,3.04l-0.9,3.27v0l-0.96,3.48l0,0l-1.02,3.69l0,0l-1.07,3.89l0,0l-1.12,4.08l-1.17,4.25v0l-1.21,4.42v0l-1.25,4.57l0,0 l-1.29,4.72l0,0l-1.32,4.86l-1.35,4.98l0,0l-1.38,5.09l-1.41,5.2l0,0l-1.43,5.29l0,0l-1.45,5.37l-0.12,0.45l0,0l-1.34,4.99 l-0.39,1.47l-1.08,4.03l-0.1,0.37l-1.39,5.18l-0.07,0.25c-1.47,5.49-2.95,11.05-4.42,16.61l-0.01,0.05l-1.49,5.61l-0.05,0.18 l-0.05,0.18l-0.05,0.18l-0.05,0.18l-0.05,0.18l-0.05,0.18l-0.01,0.03l-0.04,0.15l-0.05,0.18l-0.05,0.18l-0.05,0.18l-0.05,0.18 l-0.05,0.18l-0.05,0.18l-0.05,0.18l-0.14,0.53l-0.04,0.18l-0.05,0.18l-0.05,0.18l-0.14,0.53l-0.04,0.18l-1.3,4.94l-0.05,0.18 c-1.7,6.46-3.37,12.88-5.01,19.19l-0.02,0.09l-0.05,0.17l-0.02,0.09l-0.02,0.09l-0.02,0.09l-0.02,0.08l-0.02,0.09l-0.03,0.09 l-0.02,0.09l-0.02,0.09l-0.02,0.09l-0.02,0.09l-0.02,0.09l-0.02,0.09l-0.02,0.09l-0.03,0.09l-0.02,0.09l-0.02,0.09l-0.02,0.09 l-0.02,0.09l-0.02,0.09l-0.03,0.09l-0.02,0.09l-0.02,0.09l-0.02,0.09l-0.05,0.17l-0.02,0.08l-0.04,0.17l-0.02,0.09l-0.02,0.08 l-0.02,0.09l-0.02,0.09l-0.02,0.09l-0.02,0.09l-0.02,0.09l-0.02,0.08l-0.02,0.09l-0.02,0.09l-0.02,0.09l-0.02,0.09l-0.02,0.08 l-0.02,0.09l-0.02,0.09l-0.02,0.09l-0.02,0.09l-0.02,0.08l-0.02,0.09l-0.02,0.09l-0.02,0.08l-0.02,0.09l-0.02,0.09l-0.02,0.09 l-0.04,0.17l-0.02,0.08c-0.48,1.88-0.96,3.74-1.44,5.59l-0.02,0.08l-0.02,0.08l-0.04,0.17l-0.02,0.08l-0.02,0.08l-0.09,0.34 l-0.02,0.09l-0.02,0.08l-0.02,0.08l-0.21,0.84l-0.02,0.08l-0.06,0.25l-0.02,0.08l-0.02,0.08l-0.02,0.08l-0.02,0.08l-0.02,0.08 l-0.02,0.08l-0.02,0.09l-0.02,0.08l-0.02,0.08l-0.02,0.08l-0.02,0.09l-0.02,0.08l-0.02,0.08l-0.02,0.08l-0.02,0.08l-0.02,0.08 l-0.02,0.08l-0.02,0.08l-0.02,0.08l-0.02,0.08l-0.02,0.08l-0.04,0.17l-0.02,0.08l-0.02,0.08l-0.02,0.08l-0.02,0.08l-0.02,0.08 l-0.01,0.02l-0.02,0.06l-0.02,0.08l-0.02,0.08l-0.02,0.08l-0.04,0.17l-0.02,0.08l0,0l-0.02,0.08l-0.02,0.08l-0.02,0.08l-0.02,0.08 l-0.02,0.08l-0.02,0.08l-0.02,0.08l-0.02,0.08l-0.02,0.08l-0.02,0.08l-0.02,0.08l-0.02,0.08l-0.02,0.08l-0.02,0.08l-0.02,0.08 l-0.02,0.08l-0.02,0.08l-0.02,0.08l-0.02,0.08l-0.02,0.08l-0.02,0.08l-0.02,0.08l-0.02,0.08l-0.02,0.08l-0.02,0.08l-0.02,0.08 l-0.02,0.08l-0.02,0.08l-0.02,0.08l-0.02,0.08l-0.04,0.16l-0.02,0.08l-0.05,0.17l-0.02,0.08l-0.02,0.08l-0.08,0.33l-0.02,0.08 l-0.02,0.08l-0.02,0.08l-0.02,0.08l-0.02,0.08l-0.02,0.08l-0.02,0.08l-0.02,0.08l-0.04,0.16l-0.02,0.08l-0.02,0.08l-0.04,0.16 l-0.02,0.08l-0.02,0.08l-0.06,0.24l-0.02,0.08l-0.02,0.08l-0.02,0.08l-0.02,0.08l-0.02,0.08l-0.02,0.08l-0.02,0.08l-0.02,0.08 l-0.02,0.08l0,0.01l-0.02,0.07l-0.02,0.08l-0.02,0.08l-0.02,0.08l-0.02,0.08l-0.02,0.08l-0.02,0.08l-0.02,0.08l-0.02,0.08 l-0.02,0.08l-0.02,0.08l-0.02,0.08l-0.02,0.08l-0.02,0.08l-0.02,0.08l-0.02,0.08l-0.02,0.08l-0.02,0.08l-0.02,0.08l-0.02,0.08 l-0.02,0.08l-0.02,0.08l-0.02,0.08l-0.02,0.08l-0.02,0.08l-0.02,0.08l-0.02,0.08l-0.02,0.08l-0.02,0.08l-0.02,0.08l-0.02,0.08 l-0.02,0.08l-0.02,0.08l-0.02,0.08l-0.02,0.08l-0.02,0.08l-0.02,0.08l-0.02,0.08l0,0l-0.02,0.08l-0.02,0.08l-0.02,0.08l-0.02,0.08 l-0.02,0.08l-0.02,0.08l-0.02,0.08l-0.02,0.08l-0.02,0.08l-0.02,0.08l-0.02,0.08l-0.02,0.08l-0.02,0.08l-0.02,0.08l-0.02,0.08 l-0.02,0.08l-0.02,0.08l-0.02,0.08l-0.02,0.08l-0.02,0.08l-0.02,0.08l0,0l-0.04,0.16l-0.02,0.08l-0.04,0.16l-0.02,0.08l-0.04,0.16 l-0.02,0.08l-0.02,0.08l-0.02,0.08l-0.02,0.08l-0.02,0.08l-0.02,0.08l-0.02,0.08l-0.02,0.08l-0.02,0.08l0,0l-0.02,0.08l-0.02,0.08 l-0.02,0.08l-0.02,0.08l-0.02,0.08l-0.02,0.08l-0.02,0.08l-0.02,0.08l-0.02,0.08l-0.02,0.08l-0.02,0.08l-0.08,0.32l-0.02,0.08 l-0.02,0.08l-0.12,0.47l-0.02,0.08l-0.02,0.08l-0.02,0.08l-0.02,0.08l-0.02,0.08l-0.02,0.08l-0.02,0.08l-0.02,0.08l-0.02,0.08 l-0.02,0.08l-0.02,0.08l-0.02,0.08l-0.02,0.08l-0.02,0.08l-0.02,0.07l0,0.01l-0.02,0.08l-0.02,0.08l-0.02,0.08l-0.02,0.08 l-0.02,0.08l-0.02,0.08l-0.02,0.08l-0.02,0.08l-0.02,0.08l0,0l-0.02,0.08l-0.04,0.16l-0.02,0.08l-0.02,0.08l-0.06,0.23l-0.02,0.08 l-0.02,0.08l-0.02,0.08l-0.02,0.08l-0.02,0.08l-0.02,0.08l-0.02,0.08l-0.02,0.08l-0.02,0.08l-0.02,0.08l-0.02,0.08l-0.02,0.08 l-0.02,0.08l-0.02,0.08l-0.02,0.08l-0.02,0.08l-0.02,0.08l-0.02,0.08l-0.02,0.08l-0.02,0.08l-0.02,0.06l-0.01,0.02l-0.02,0.08 l-0.02,0.08l-0.02,0.08l-0.02,0.08l-0.04,0.15l-0.02,0.08l-0.02,0.08l-0.02,0.08l-0.02,0.08l-0.02,0.08l-0.02,0.08l-0.02,0.08 l-0.02,0.08l-0.02,0.07l-0.02,0.08l-0.02,0.08l-0.02,0.08l-0.02,0.08l-0.02,0.08l-0.02,0.08l-0.02,0.08l-0.02,0.08l-0.02,0.08 l-0.02,0.08l-0.02,0.08l-0.02,0.08l-0.02,0.08l-0.02,0.08l-0.02,0.08l-0.02,0.07l-0.02,0.08l-0.06,0.23l-0.02,0.08l-0.02,0.07 l-0.01,0.05l-0.01,0.02l-0.02,0.08l-0.02,0.08l-0.02,0.08l-0.02,0.07l-0.02,0.08l-0.02,0.08l-0.02,0.07l-0.02,0.08l-0.02,0.08 l-0.02,0.08l-0.02,0.07l-0.04,0.15l-0.02,0.08l-0.02,0.07l-0.02,0.08l-0.02,0.08l-0.04,0.15l-0.02,0.08l-0.02,0.07l-0.05,0.23 l-0.02,0.07l-0.02,0.08l-0.02,0.07l-0.02,0.07l-0.02,0.08l-0.02,0.07l-0.02,0.07l-0.02,0.07l-0.02,0.08l-0.02,0.07l-0.02,0.08 l-0.02,0.08l-0.02,0.07l-0.01,0.05l-0.01,0.03l-0.04,0.15l-0.02,0.07l-0.02,0.07l-0.02,0.07l-0.02,0.07l-0.02,0.07l-0.02,0.07 l-0.02,0.07l-0.02,0.07l-0.02,0.07l-0.02,0.07l-0.02,0.07l-0.02,0.07l-0.02,0.07l-0.02,0.07l-0.02,0.08l-0.02,0.08l-0.02,0.07 l-0.02,0.07l-0.02,0.08l-0.02,0.07l-0.02,0.07l0,0l-0.02,0.08l-0.02,0.07l-0.02,0.07l-0.02,0.07l-0.02,0.07l-0.02,0.07l-0.02,0.07 l-0.02,0.07l-0.02,0.07l-0.02,0.07l-0.02,0.07l-0.02,0.07l-0.02,0.07l-0.02,0.07l-0.01,0.04l-0.01,0.04l-0.02,0.07l-0.02,0.07 l-0.02,0.07l-0.02,0.07l-0.02,0.07l-0.02,0.07l-0.02,0.07l-0.02,0.07l-0.02,0.07l-0.02,0.07l-0.02,0.07l-0.02,0.07l-0.02,0.07 l-0.02,0.07l-0.02,0.07l-0.02,0.07l-0.02,0.07l-0.02,0.07l-0.02,0.07l-0.02,0.07l-0.02,0.07l-0.02,0.07l-0.02,0.07l-0.02,0.07 l-0.02,0.07l-0.02,0.07l-0.02,0.07l-0.02,0.07l-0.02,0.07l-0.02,0.07l-0.02,0.07l-0.02,0.07l-0.02,0.07l-0.02,0.07l-0.02,0.07 l-0.03,0.15l-0.01,0.03l-0.01,0.04l-0.03,0.14l-0.02,0.07l-0.02,0.07l-0.02,0.07l-0.02,0.07l-0.02,0.07l-0.02,0.07l-0.02,0.07 l-0.02,0.07l-0.02,0.07h0l-0.02,0.07l-0.03,0.14l-0.02,0.07l-0.25,1l-0.02,0.07l-0.02,0.07l-0.02,0.07l-0.02,0.07l-0.02,0.07 l-0.02,0.07l-0.02,0.07l-0.02,0.07l0,0.02l-0.01,0.05l-0.02,0.07l-0.02,0.07l-0.02,0.07l-0.02,0.07l-0.02,0.07l-0.02,0.07 l-0.02,0.07l-0.02,0.07l-0.02,0.07l-0.02,0.07l-0.02,0.07l-0.02,0.07l-0.02,0.07l-0.02,0.07l-0.02,0.07l-0.02,0.07l-0.02,0.07 l-0.02,0.07l-0.02,0.07l-0.02,0.07l-0.02,0.07l-0.02,0.07l-0.02,0.07l-0.02,0.07l-0.02,0.07l-0.02,0.07l-0.02,0.07l-0.02,0.07 l-0.02,0.07l-0.02,0.07l-0.12,0.49l0,0.02l-0.01,0.05l-0.02,0.07l-0.02,0.07l-0.01,0.07l-0.02,0.07l-0.02,0.07l-0.02,0.07 l-0.02,0.07l-0.02,0.07l-0.02,0.07l-0.02,0.07l-0.02,0.07l-0.02,0.07l-0.02,0.07l-0.02,0.07l-0.02,0.07l-0.02,0.07l-0.02,0.07 l-0.02,0.07l-0.02,0.07l-0.02,0.07l-0.02,0.07l-0.02,0.07l-0.02,0.07l-0.02,0.07l-0.02,0.07l-0.02,0.07l-0.02,0.07l-0.02,0.07 l-0.02,0.07l-0.02,0.07l-0.02,0.07l-0.02,0.07l-0.02,0.07l-0.02,0.07l-0.1,0.41l-0.02,0.07l-0.02,0.07l-0.02,0.07l-0.02,0.07 l-0.02,0.07l-0.02,0.07l-0.02,0.07l-0.02,0.07l-0.02,0.07l-0.02,0.07l-0.02,0.07l-0.02,0.07l-0.02,0.07l-0.02,0.07l-0.02,0.07 l-0.02,0.07l-0.02,0.07l-0.02,0.07l-0.02,0.07l-0.02,0.07l-0.02,0.07l-0.02,0.07l-0.02,0.07l0,0l-0.02,0.07l-0.01,0.07l-0.02,0.07 l-0.02,0.07l-0.02,0.07l-0.02,0.07l-0.02,0.07l-0.02,0.07l-0.02,0.07l-0.01,0.06l-0.02,0.07l-0.02,0.07l0,0.01l-0.01,0.06 l-0.02,0.07l-0.02,0.07l-0.01,0.07l-0.02,0.07l-0.02,0.07l-0.02,0.07l-0.02,0.07l-0.02,0.06l-0.02,0.07l-0.01,0.06l-0.02,0.07 l-0.02,0.06l-0.01,0.07l-0.01,0.06l-0.02,0.07l-0.02,0.06l-0.02,0.07l-0.01,0.07l-0.01,0.07l-0.02,0.07l-0.03,0.13l-0.01,0.07 l-0.02,0.07l-0.02,0.06l-0.01,0.07l-0.02,0.06l-0.02,0.07l-0.02,0.07l-0.01,0.06l-0.02,0.07l-0.01,0.07l-0.02,0.07l-0.02,0.07 l-0.01,0.06l-0.01,0.07l-0.02,0.07l0,0l-0.02,0.06l-0.01,0.07l-0.01,0.07l-0.02,0.06l-0.01,0.07l-0.02,0.06l-0.01,0.06l-0.02,0.06 l-0.01,0.07l-0.01,0.06l-0.02,0.06l-0.01,0.06l-0.01,0.07l-0.02,0.06h0l-0.3,1.27l-0.02,0.06l-0.01,0.06l-0.01,0.06l-0.01,0.06l0,0 l-0.01,0.06l-0.01,0.06l-0.03,0.13l-0.02,0.06l-0.23,1l-0.01,0.06l-0.04,0.19l-0.01,0.06l-0.03,0.12l-0.01,0.06l-0.01,0.06 l-0.01,0.06l-0.01,0.06l-0.01,0.06l-0.01,0.06l-0.01,0.06l-0.01,0.06l-0.01,0.06l-0.01,0.05l0,0.01l-0.01,0.06l-0.01,0.06l0,0 l-0.01,0.06l-0.01,0.06l-0.01,0.06l-0.43,1.87l-0.01,0.06l-0.01,0.05l0,0.01l-0.01,0.06l-0.01,0.06l-0.01,0.06l-0.25,1.12 l-0.01,0.06l-0.01,0.06l-0.01,0.06l-0.01,0.06l-0.01,0.06l-0.01,0.06l0,0l-0.08,0.35l-0.01,0.06l-0.01,0.06l-0.01,0.06l-0.01,0.04 l0,0.02l-0.01,0.06l-0.01,0.06l-0.03,0.11l-0.01,0.06l-0.01,0.06l-0.32,1.42l-0.01,0.06l-0.01,0.06l-0.01,0.06l-0.01,0.05 l-0.01,0.06l-0.01,0.06l-0.01,0.03l-0.01,0.02l-0.01,0.06l-0.01,0.06l-0.01,0.05l-0.01,0.06l-0.01,0.05l-0.01,0.06l-0.01,0.06 l-0.11,0.5l0,0l-0.18,0.82l-0.01,0.05l-0.01,0.05l-0.01,0.05l-0.01,0.05l-0.01,0.05l-0.01,0.05l-0.01,0.03l-0.01,0.03l-0.01,0.05 l-0.01,0.05l-0.01,0.06l-0.01,0.05l-0.01,0.05l-0.01,0.05l-0.31,1.43l-0.01,0.05l-0.01,0.05l-0.01,0.05l-0.01,0.05l0,0.02 l-0.01,0.03l-0.01,0.05l-0.01,0.05l-0.01,0.05l-0.01,0.05l-0.25,1.17l-0.01,0.05l-0.01,0.05l-0.03,0.15l-0.01,0.05l-0.01,0.05 l-0.01,0.05l-0.01,0.05l-0.01,0.05l0,0.02l-0.01,0.03l-0.01,0.05l-0.01,0.05l-0.01,0.05l-0.01,0.05l-0.01,0.05l-0.01,0.05 l-0.01,0.05l-0.23,1.12l0,0c-0.14,0.66-0.27,1.3-0.39,1.92l-0.01,0.05l-0.01,0.04l-0.01,0.05l-0.01,0.05l0,0.01l-0.01,0.04 l-0.01,0.04l-0.01,0.05l-0.01,0.05l-0.01,0.05l-0.01,0.05l-0.12,0.58l0,0l-0.16,0.79l-0.01,0.04l0,0l-0.01,0.04l-0.01,0.04 c-0.1,0.52-0.2,1.02-0.29,1.51l-0.05,0.29l0,0c-0.08,0.4-0.15,0.8-0.22,1.19l-0.01,0.04v0c-0.08,0.42-0.15,0.84-0.22,1.24h0 l-0.03,0.15l0,0.03l0,0.01l-0.01,0.03c-0.07,0.43-0.14,0.85-0.21,1.26l0,0.02l0,0.01l-0.01,0.03l0,0.03l-0.1,0.62h0l-0.07,0.48 l0,0.03l0,0.02l0,0.01l-0.01,0.03l0,0.03c-0.05,0.33-0.09,0.65-0.14,0.95l0,0.03l0,0.03l0,0.03l0,0.02l0,0.01l0,0.03l0,0.03l0,0.03 l-0.02,0.17h0c-0.03,0.26-0.07,0.51-0.09,0.75v0l0,0.01l0,0.01l0,0.03c-0.03,0.28-0.06,0.55-0.09,0.81l0,0.02l0,0l0,0.05l0,0.01 l0,0.01c-0.03,0.29-0.05,0.55-0.07,0.81v0.01v0.01c-0.01,0.15-0.02,0.31-0.03,0.45h0l-0.01,0.25v0.01l0,0.01 c-0.01,0.21-0.01,0.41,0,0.6v0v0.01l0.01,0.16c0.01,0.12,0.01,0.23,0.02,0.33v0v0v0c0.02,0.15,0.04,0.28,0.06,0.39h0l-2.25,10.08 l247.73,1.71c23.6,0.16-39.86-101.01-81.66-108.35l0,0c0.52-2.96-0.05,0.8,1.5-9.01l0,0l0.05-0.33l0.02-0.14l0-0.03l0.03-0.17 c1.59-10.05,5.56-34.16,9.08-53.5l0.04-0.2l0.01-0.04l0.03-0.15l0.04-0.2l0.03-0.2l0.03-0.2l0.04-0.19c0.23-1.26,0.46-2.53,0.7-3.8 l0.01-0.03l0.39-2.1l0.21-1.11l0.07-0.37l0.54-2.86l0.02-0.07l0.49-2.61l0.13-0.66l0.51-2.66l0.11-0.57l0.57-2.97l0.06-0.29 c4.65-23.99,10.02-49.07,16.11-73.59l31.9,0.78c0.58-10.08,1.13-21.4,1.59-33.66C1038.81,1172.96,1049.58,1183.31,1059.97,1191.07 L1059.97,1191.07z M921.57,771.58c-9.58-2.5-18.56-4.03-24.95-4.67c-2.95-0.96-5.97-1.85-9.04-2.65c0.11-1.04,0.21-2.09,0.29-3.16 c9.16,1.1,17.99,1.61,26.3,1.41C916.07,765.53,918.56,768.9,921.57,771.58L921.57,771.58z M650,1213.61 c-1.21,3.09-2.42,6.19-3.64,9.3L650,1213.61L650,1213.61z M799.88,1446.25l-0.01,0.25L799.88,1446.25L799.88,1446.25z M799.87,1446.52c-0.01,0.21-0.01,0.41,0,0.6L799.87,1446.52L799.87,1446.52z M799.87,1447.13l0.01,0.16L799.87,1447.13 L799.87,1447.13z"/> <path class="st8" d="M1059.97,1191.07c3.01,6.84,7.72,15.82,12.48,18.11c2.48,1.19,3.45-0.98,3.62-4.54 c2.56,8.65,7.25,21.7,13.08,25.35c6.02,3.77,5.79-12.13,4.99-22.89c0.6,0.11,1.19,0.21,1.79,0.31c0.63,10.17,2.37,21.34,6.77,26.25 c6.16,6.89,11.59-13.39,14.43-26.95c0.36-0.1,0.71-0.21,1.07-0.31c0.52,9.62,1.91,18.32,4.93,22.55 c6.66,9.33,14.96-26.93,18.64-45.36c7.26-17.83,6.4-43.48-1.99-70.57c-12.7-41-77.52-159.21-115.19-227.4 c-12.16-22.01-23.67-38.19-34.27-49.26c-4.11-7.15-10.95-12.77-18.7-15.33c9.72-21.06-10.21-35.44-33.16-44.12 c12.1-0.56,26.31-7.12,28.16-20.09c0.53-3.7,0.5-8.33,0.25-12.73c17.87-15.12,32.72-38.8,44.56-66.59 c18.71-1.14,37.54-11.51,37.81-35.88c0.21-18.77-6.61-28.48-16.22-31.77c4.58-19.64,7.99-39.59,10.24-58.77 c43.96,12.12,126.69,1.7,101.97-36.88c-24.97-38.99-61.57-64.54-103.79-79.81c-7.3-43.75-31.76-143.2-48.93-158 c-45.87-39.56-178.49-51.28-245.98-13.3c-47.43,17.87-89.74,47.68-115.38,89.65c-12.66,30.97-24.78,86.89-16.18,188.93l0.01-0.01 c1.11,15.29,3.77,30.43,7.95,45.06c-19.63-1.56-36.15,10.07-35.77,43.45c0.6,53.27,68.47,55.83,91.35,36.19 c8.04,9.01,16.87,17.27,26.47,24.59c14.14,10.79,44.95,27.33,80.97,41.8c-0.17,11.08-0.84,26.73-0.09,35.69 c-1.23,0.46-2.44,0.93-3.65,1.41c-19.25-3.62-43.52-1.4-60.06,6.12c-20.17-5.84-35.46,10.25-31.23,27.22 c-8.91,1.26-19.57,8.53-23.61,17.53c-18.85,6.76-38.45,16.68-56.81,28.79l0.01,0c-45.62,30.1-83.58,73.77-83.35,116.4 c0.35,63.75,37.34,118.24,88.72,152.89c14.52,9.79,29.84,16.76,44.55,20.72c1.04,7.23,2,14.12,0.02,20.31l-0.41,1.07l0.04,0.01 l-0.04,0.1c3.36,0.62,6.71,1.24,10.05,1.85l-2.11,5.28l0,0.01c-1.17,2.94-2.35,5.9-3.54,8.88l0,0.01c-1.19,2.98-2.38,5.98-3.57,9 l-0.01,0.01c-1.19,3.02-2.39,6.05-3.6,9.1l-0.01,0.01c-1.2,3.04-2.41,6.11-3.62,9.18l0,0.01c-1.21,3.07-2.42,6.15-3.63,9.24 l-0.01,0.01c-1.21,3.09-2.42,6.19-3.64,9.3c-1.21,3.1-2.42,6.21-3.62,9.32l0,0.01c-3.62,9.33-7.23,18.69-10.77,27.98l0,0.01 l-1.3,3.4l0,0l-0.03,0.08l-2.2,5.78l0,0.01c-1.17,3.08-2.33,6.14-3.48,9.2l0,0.01c-1.15,3.05-2.29,6.1-3.43,9.13l0,0.01 c-1.13,3.03-2.26,6.04-3.37,9.03l0,0.01c-4.45,11.98-8.71,23.67-12.71,34.87l0,0.01c-1,2.8-1.98,5.57-2.95,8.3l0,0.01 c-3.86,10.95-7.43,21.37-10.63,31.07l0,0c-0.8,2.43-1.57,4.8-2.33,7.14l0,0c-2.25,7-4.29,13.57-6.06,19.63l0,0 c-0.59,2.02-1.16,3.98-1.69,5.88v0c-0.21,0.74-0.41,1.48-0.61,2.2l-0.02,0.08c-3.21,7.71-9.55,42.58-7.7,50.52h182.71 c1.41-6.04,2.16-12.32,2.16-18.76c0-16.57-4.92-32.06-13.44-45.23l0.02-0.05l0.03-0.07l0.35-0.74l0.03-0.07l0.04-0.07l0.04-0.07 l0.03-0.08l0.04-0.07l0.04-0.07l0.04-0.07l0.03-0.05l0.01-0.02l0.04-0.08l0.04-0.07l0.03-0.07l0.03-0.08l0.04-0.07l0.03-0.07 l0.03-0.08l0.04-0.07l0.04-0.07l0.04-0.07l0.03-0.08l0.03-0.07l0.04-0.07l0.04-0.08l0.03-0.07l0.03-0.07l0.04-0.08l0.03-0.07 l0.04-0.08l0-0.01l0.03-0.07l0.04-0.07l0.04-0.07l0.03-0.07l0.04-0.08l0.04-0.07l0.03-0.08l0.04-0.08l0.03-0.07l0.03-0.08 l0.04-0.07l0.04-0.08l0.04-0.07l0.04-0.08l0.03-0.07l0.04-0.08c13.96-29.6,29.07-64.2,43.44-98.01l0.07-0.15l2.12-4.99l0,0 c1.54-3.64,3.06-7.22,4.55-10.75l0,0c3.72-8.82,7.26-17.26,10.53-25.1l0,0l1.93-4.63l0,0c1.26-3.04,2.48-5.97,3.65-8.78l0,0 c2.33-5.63,4.45-10.78,6.34-15.35l0,0c5.63-13.7,9.03-22.1,9.03-22.1v-0.01l0.51,0.07h0l0.51,0.07l0,0l0.52,0.07l0.51,0.07 l0.52,0.07h0l0.51,0.07l0,0l0.52,0.06l0.52,0.06h0l0.51,0.06l0.52,0.06l0,0l0.52,0.06l0,0l0.52,0.06l0.52,0.06l0.52,0.06l0.52,0.06 l0.52,0.05l0.52,0.05l0,0l0.52,0.05l0,0l0.53,0.05l0.52,0.05l0,0l0.52,0.05l0.52,0.05l0.53,0.05l0,0l0.53,0.05l0.52,0.04h0 l0.53,0.04l0.53,0.04l0,0l0.53,0.04l0,0l0.53,0.04l0,0l0.53,0.04l0.53,0.04l0.53,0.04l0.53,0.04h0l0.53,0.03l0,0l0.53,0.03l0,0 l0.53,0.03l0,0l0.53,0.03l0,0l0.53,0.03l0.53,0.03l0.54,0.03l0,0l0.53,0.03l0,0l0.54,0.03l0,0l0.54,0.02l0,0l0.53,0.02h0l0.54,0.02 v0l0.54,0.02l0,0l0.54,0.02v0l0.54,0.02l0,0l0.54,0.02l0,0l0.54,0.02l0,0l0.54,0.02l0,0l0.54,0.01l0,0l0.54,0.01l0,0l0.54,0.01l0,0 l0.54,0.01l0,0l0.54,0.01l0,0l0.54,0.01v0l0.54,0.01v0l0.54,0.01v0l0.54,0l0,0l0.55,0v0l0.54,0l0,0l0.55,0v0h0.55l0,0l-0.05,0.17 l0,0l-0.14,0.5v0l-0.23,0.83l0,0l-0.32,1.14v0l-0.4,1.44v0l-0.48,1.73v0l-0.56,2.02l0,0l-0.63,2.29v0l-0.7,2.55l0,0l-0.77,2.8l0,0 l-0.84,3.04l-0.9,3.27v0l-0.96,3.48l0,0l-1.02,3.69l0,0l-1.07,3.89l0,0l-1.12,4.08l-1.17,4.25v0l-1.21,4.42v0l-1.25,4.57l0,0 l-1.29,4.72l0,0l-1.32,4.86l-1.35,4.98l0,0l-1.38,5.09l-1.41,5.2l0,0l-1.43,5.29l0,0l-1.45,5.37l-0.12,0.45l0,0l-1.34,4.99 l-0.39,1.47l-1.08,4.03l-0.1,0.37l-1.39,5.18l-0.07,0.25c-1.47,5.49-2.95,11.05-4.42,16.61l-0.01,0.05l-1.49,5.61l-0.05,0.18 l-0.05,0.18l-0.05,0.18l-0.05,0.18l-0.05,0.18l-0.05,0.18l-0.01,0.03l-0.04,0.15l-0.05,0.18l-0.05,0.18l-0.05,0.18l-0.05,0.18 l-0.05,0.18l-0.05,0.18l-0.05,0.18l-0.14,0.53l-0.04,0.18l-0.05,0.18l-0.05,0.18l-0.14,0.53l-0.04,0.18l-1.3,4.94l-0.05,0.18 c-1.7,6.46-3.37,12.88-5.01,19.19l-0.02,0.09l-0.05,0.17l-0.02,0.09l-0.02,0.09l-0.02,0.09l-0.02,0.08l-0.02,0.09l-0.03,0.09 l-0.02,0.09l-0.02,0.09l-0.02,0.09l-0.02,0.09l-0.02,0.09l-0.02,0.09l-0.02,0.09l-0.03,0.09l-0.02,0.09l-0.02,0.09l-0.02,0.09 l-0.02,0.09l-0.02,0.09l-0.03,0.09l-0.02,0.09l-0.02,0.09l-0.02,0.09l-0.05,0.17l-0.02,0.08l-0.04,0.17l-0.02,0.09l-0.02,0.08 l-0.02,0.09l-0.02,0.09l-0.02,0.09l-0.02,0.09l-0.02,0.09l-0.02,0.08l-0.02,0.09l-0.02,0.09l-0.02,0.09l-0.02,0.09l-0.02,0.08 l-0.02,0.09l-0.02,0.09l-0.02,0.09l-0.02,0.09l-0.02,0.08l-0.02,0.09l-0.02,0.09l-0.02,0.08l-0.02,0.09l-0.02,0.09l-0.02,0.09 l-0.04,0.17l-0.02,0.08c-0.48,1.88-0.96,3.74-1.44,5.59l-0.02,0.08l-0.02,0.08l-0.04,0.17l-0.02,0.08l-0.02,0.08l-0.09,0.34 l-0.02,0.09l-0.02,0.08l-0.02,0.08l-0.21,0.84l-0.02,0.08l-0.06,0.25l-0.02,0.08l-0.02,0.08l-0.02,0.08l-0.02,0.08l-0.02,0.08 l-0.02,0.08l-0.02,0.09l-0.02,0.08l-0.02,0.08l-0.02,0.08l-0.02,0.09l-0.02,0.08l-0.02,0.08l-0.02,0.08l-0.02,0.08l-0.02,0.08 l-0.02,0.08l-0.02,0.08l-0.02,0.08l-0.02,0.08l-0.02,0.08l-0.04,0.17l-0.02,0.08l-0.02,0.08l-0.02,0.08l-0.02,0.08l-0.02,0.08 l-0.01,0.02l-0.02,0.06l-0.02,0.08l-0.02,0.08l-0.02,0.08l-0.04,0.17l-0.02,0.08l0,0l-0.02,0.08l-0.02,0.08l-0.02,0.08l-0.02,0.08 l-0.02,0.08l-0.02,0.08l-0.02,0.08l-0.02,0.08l-0.02,0.08l-0.02,0.08l-0.02,0.08l-0.02,0.08l-0.02,0.08l-0.02,0.08l-0.02,0.08 l-0.02,0.08l-0.02,0.08l-0.02,0.08l-0.02,0.08l-0.02,0.08l-0.02,0.08l-0.02,0.08l-0.02,0.08l-0.02,0.08l-0.02,0.08l-0.02,0.08 l-0.02,0.08l-0.02,0.08l-0.02,0.08l-0.02,0.08l-0.04,0.16l-0.02,0.08l-0.05,0.17l-0.02,0.08l-0.02,0.08l-0.08,0.33l-0.02,0.08 l-0.02,0.08l-0.02,0.08l-0.02,0.08l-0.02,0.08l-0.02,0.08l-0.02,0.08l-0.02,0.08l-0.04,0.16l-0.02,0.08l-0.02,0.08l-0.04,0.16 l-0.02,0.08l-0.02,0.08l-0.06,0.24l-0.02,0.08l-0.02,0.08l-0.02,0.08l-0.02,0.08l-0.02,0.08l-0.02,0.08l-0.02,0.08l-0.02,0.08 l-0.02,0.08l0,0.01l-0.02,0.07l-0.02,0.08l-0.02,0.08l-0.02,0.08l-0.02,0.08l-0.02,0.08l-0.02,0.08l-0.02,0.08l-0.02,0.08 l-0.02,0.08l-0.02,0.08l-0.02,0.08l-0.02,0.08l-0.02,0.08l-0.02,0.08l-0.02,0.08l-0.02,0.08l-0.02,0.08l-0.02,0.08l-0.02,0.08 l-0.02,0.08l-0.02,0.08l-0.02,0.08l-0.02,0.08l-0.02,0.08l-0.02,0.08l-0.02,0.08l-0.02,0.08l-0.02,0.08l-0.02,0.08l-0.02,0.08 l-0.02,0.08l-0.02,0.08l-0.02,0.08l-0.02,0.08l-0.02,0.08l-0.02,0.08l-0.02,0.08l0,0l-0.02,0.08l-0.02,0.08l-0.02,0.08l-0.02,0.08 l-0.02,0.08l-0.02,0.08l-0.02,0.08l-0.02,0.08l-0.02,0.08l-0.02,0.08l-0.02,0.08l-0.02,0.08l-0.02,0.08l-0.02,0.08l-0.02,0.08 l-0.02,0.08l-0.02,0.08l-0.02,0.08l-0.02,0.08l-0.02,0.08l-0.02,0.08l0,0l-0.04,0.16l-0.02,0.08l-0.04,0.16l-0.02,0.08l-0.04,0.16 l-0.02,0.08l-0.02,0.08l-0.02,0.08l-0.02,0.08l-0.02,0.08l-0.02,0.08l-0.02,0.08l-0.02,0.08l-0.02,0.08l0,0l-0.02,0.08l-0.02,0.08 l-0.02,0.08l-0.02,0.08l-0.02,0.08l-0.02,0.08l-0.02,0.08l-0.02,0.08l-0.02,0.08l-0.02,0.08l-0.02,0.08l-0.08,0.32l-0.02,0.08 l-0.02,0.08l-0.12,0.47l-0.02,0.08l-0.02,0.08l-0.02,0.08l-0.02,0.08l-0.02,0.08l-0.02,0.08l-0.02,0.08l-0.02,0.08l-0.02,0.08 l-0.02,0.08l-0.02,0.08l-0.02,0.08l-0.02,0.08l-0.02,0.08l-0.02,0.07l0,0.01l-0.02,0.08l-0.02,0.08l-0.02,0.08l-0.02,0.08 l-0.02,0.08l-0.02,0.08l-0.02,0.08l-0.02,0.08l-0.02,0.08l0,0l-0.02,0.08l-0.04,0.16l-0.02,0.08l-0.02,0.08l-0.06,0.23l-0.02,0.08 l-0.02,0.08l-0.02,0.08l-0.02,0.08l-0.02,0.08l-0.02,0.08l-0.02,0.08l-0.02,0.08l-0.02,0.08l-0.02,0.08l-0.02,0.08l-0.02,0.08 l-0.02,0.08l-0.02,0.08l-0.02,0.08l-0.02,0.08l-0.02,0.08l-0.02,0.08l-0.02,0.08l-0.02,0.08l-0.02,0.06l-0.01,0.02l-0.02,0.08 l-0.02,0.08l-0.02,0.08l-0.02,0.08l-0.04,0.15l-0.02,0.08l-0.02,0.08l-0.02,0.08l-0.02,0.08l-0.02,0.08l-0.02,0.08l-0.02,0.08 l-0.02,0.08l-0.02,0.07l-0.02,0.08l-0.02,0.08l-0.02,0.08l-0.02,0.08l-0.02,0.08l-0.02,0.08l-0.02,0.08l-0.02,0.08l-0.02,0.08 l-0.02,0.08l-0.02,0.08l-0.02,0.08l-0.02,0.08l-0.02,0.08l-0.02,0.08l-0.02,0.07l-0.02,0.08l-0.06,0.23l-0.02,0.08l-0.02,0.07 l-0.01,0.05l-0.01,0.02l-0.02,0.08l-0.02,0.08l-0.02,0.08l-0.02,0.07l-0.02,0.08l-0.02,0.08l-0.02,0.07l-0.02,0.08l-0.02,0.08 l-0.02,0.08l-0.02,0.07l-0.04,0.15l-0.02,0.08l-0.02,0.07l-0.02,0.08l-0.02,0.08l-0.04,0.15l-0.02,0.08l-0.02,0.07l-0.05,0.23 l-0.02,0.07l-0.02,0.08l-0.02,0.07l-0.02,0.07l-0.02,0.08l-0.02,0.07l-0.02,0.07l-0.02,0.07l-0.02,0.08l-0.02,0.07l-0.02,0.08 l-0.02,0.08l-0.02,0.07l-0.01,0.05l-0.01,0.03l-0.04,0.15l-0.02,0.07l-0.02,0.07l-0.02,0.07l-0.02,0.07l-0.02,0.07l-0.02,0.07 l-0.02,0.07l-0.02,0.07l-0.02,0.07l-0.02,0.07l-0.02,0.07l-0.02,0.07l-0.02,0.07l-0.02,0.07l-0.02,0.08l-0.02,0.08l-0.02,0.07 l-0.02,0.07l-0.02,0.08l-0.02,0.07l-0.02,0.07l0,0l-0.02,0.08l-0.02,0.07l-0.02,0.07l-0.02,0.07l-0.02,0.07l-0.02,0.07l-0.02,0.07 l-0.02,0.07l-0.02,0.07l-0.02,0.07l-0.02,0.07l-0.02,0.07l-0.02,0.07l-0.02,0.07l-0.01,0.04l-0.01,0.04l-0.02,0.07l-0.02,0.07 l-0.02,0.07l-0.02,0.07l-0.02,0.07l-0.02,0.07l-0.02,0.07l-0.02,0.07l-0.02,0.07l-0.02,0.07l-0.02,0.07l-0.02,0.07l-0.02,0.07 l-0.02,0.07l-0.02,0.07l-0.02,0.07l-0.02,0.07l-0.02,0.07l-0.02,0.07l-0.02,0.07l-0.02,0.07l-0.02,0.07l-0.02,0.07l-0.02,0.07 l-0.02,0.07l-0.02,0.07l-0.02,0.07l-0.02,0.07l-0.02,0.07l-0.02,0.07l-0.02,0.07l-0.02,0.07l-0.02,0.07l-0.02,0.07l-0.02,0.07 l-0.03,0.15l-0.01,0.03l-0.01,0.04l-0.03,0.14l-0.02,0.07l-0.02,0.07l-0.02,0.07l-0.02,0.07l-0.02,0.07l-0.02,0.07l-0.02,0.07 l-0.02,0.07l-0.02,0.07h0l-0.02,0.07l-0.03,0.14l-0.02,0.07l-0.25,1l-0.02,0.07l-0.02,0.07l-0.02,0.07l-0.02,0.07l-0.02,0.07 l-0.02,0.07l-0.02,0.07l-0.02,0.07l0,0.02l-0.01,0.05l-0.02,0.07l-0.02,0.07l-0.02,0.07l-0.02,0.07l-0.02,0.07l-0.02,0.07 l-0.02,0.07l-0.02,0.07l-0.02,0.07l-0.02,0.07l-0.02,0.07l-0.02,0.07l-0.02,0.07l-0.02,0.07l-0.02,0.07l-0.02,0.07l-0.02,0.07 l-0.02,0.07l-0.02,0.07l-0.02,0.07l-0.02,0.07l-0.02,0.07l-0.02,0.07l-0.02,0.07l-0.02,0.07l-0.02,0.07l-0.02,0.07l-0.02,0.07 l-0.02,0.07l-0.02,0.07l-0.12,0.49l0,0.02l-0.01,0.05l-0.02,0.07l-0.02,0.07l-0.01,0.07l-0.02,0.07l-0.02,0.07l-0.02,0.07 l-0.02,0.07l-0.02,0.07l-0.02,0.07l-0.02,0.07l-0.02,0.07l-0.02,0.07l-0.02,0.07l-0.02,0.07l-0.02,0.07l-0.02,0.07l-0.02,0.07 l-0.02,0.07l-0.02,0.07l-0.02,0.07l-0.02,0.07l-0.02,0.07l-0.02,0.07l-0.02,0.07l-0.02,0.07l-0.02,0.07l-0.02,0.07l-0.02,0.07 l-0.02,0.07l-0.02,0.07l-0.02,0.07l-0.02,0.07l-0.02,0.07l-0.02,0.07l-0.1,0.41l-0.02,0.07l-0.02,0.07l-0.02,0.07l-0.02,0.07 l-0.02,0.07l-0.02,0.07l-0.02,0.07l-0.02,0.07l-0.02,0.07l-0.02,0.07l-0.02,0.07l-0.02,0.07l-0.02,0.07l-0.02,0.07l-0.02,0.07 l-0.02,0.07l-0.02,0.07l-0.02,0.07l-0.02,0.07l-0.02,0.07l-0.02,0.07l-0.02,0.07l-0.02,0.07l0,0l-0.02,0.07l-0.01,0.07l-0.02,0.07 l-0.02,0.07l-0.02,0.07l-0.02,0.07l-0.02,0.07l-0.02,0.07l-0.02,0.07l-0.01,0.06l-0.02,0.07l-0.02,0.07l0,0.01l-0.01,0.06 l-0.02,0.07l-0.02,0.07l-0.01,0.07l-0.02,0.07l-0.02,0.07l-0.02,0.07l-0.02,0.07l-0.02,0.06l-0.02,0.07l-0.01,0.06l-0.02,0.07 l-0.02,0.06l-0.01,0.07l-0.01,0.06l-0.02,0.07l-0.02,0.06l-0.02,0.07l-0.01,0.07l-0.01,0.07l-0.02,0.07l-0.03,0.13l-0.01,0.07 l-0.02,0.07l-0.02,0.06l-0.01,0.07l-0.02,0.06l-0.02,0.07l-0.02,0.07l-0.01,0.06l-0.02,0.07l-0.01,0.07l-0.02,0.07l-0.02,0.07 l-0.01,0.06l-0.01,0.07l-0.02,0.07l0,0l-0.02,0.06l-0.01,0.07l-0.01,0.07l-0.02,0.06l-0.01,0.07l-0.02,0.06l-0.01,0.06l-0.02,0.06 l-0.01,0.07l-0.01,0.06l-0.02,0.06l-0.01,0.06l-0.01,0.07l-0.02,0.06h0l-0.3,1.27l-0.02,0.06l-0.01,0.06l-0.01,0.06l-0.01,0.06l0,0 l-0.01,0.06l-0.01,0.06l-0.03,0.13l-0.02,0.06l-0.23,1l-0.01,0.06l-0.04,0.19l-0.01,0.06l-0.03,0.12l-0.01,0.06l-0.01,0.06 l-0.01,0.06l-0.01,0.06l-0.01,0.06l-0.01,0.06l-0.01,0.06l-0.01,0.06l-0.01,0.06l-0.01,0.05l0,0.01l-0.01,0.06l-0.01,0.06l0,0 l-0.01,0.06l-0.01,0.06l-0.01,0.06l-0.43,1.87l-0.01,0.06l-0.01,0.05l0,0.01l-0.01,0.06l-0.01,0.06l-0.01,0.06l-0.25,1.12 l-0.01,0.06l-0.01,0.06l-0.01,0.06l-0.01,0.06l-0.01,0.06l-0.01,0.06l0,0l-0.08,0.35l-0.01,0.06l-0.01,0.06l-0.01,0.06l-0.01,0.04 l0,0.02l-0.01,0.06l-0.01,0.06l-0.03,0.11l-0.01,0.06l-0.01,0.06l-0.32,1.42l-0.01,0.06l-0.01,0.06l-0.01,0.06l-0.01,0.05 l-0.01,0.06l-0.01,0.06l-0.01,0.03l-0.01,0.02l-0.01,0.06l-0.01,0.06l-0.01,0.05l-0.01,0.06l-0.01,0.05l-0.01,0.06l-0.01,0.06 l-0.11,0.5l0,0l-0.18,0.82l-0.01,0.05l-0.01,0.05l-0.01,0.05l-0.01,0.05l-0.01,0.05l-0.01,0.05l-0.01,0.03l-0.01,0.03l-0.01,0.05 l-0.01,0.05l-0.01,0.06l-0.01,0.05l-0.01,0.05l-0.01,0.05l-0.31,1.43l-0.01,0.05l-0.01,0.05l-0.01,0.05l-0.01,0.05l0,0.02 l-0.01,0.03l-0.01,0.05l-0.01,0.05l-0.01,0.05l-0.01,0.05l-0.25,1.17l-0.01,0.05l-0.01,0.05l-0.03,0.15l-0.01,0.05l-0.01,0.05 l-0.01,0.05l-0.01,0.05l-0.01,0.05l0,0.02l-0.01,0.03l-0.01,0.05l-0.01,0.05l-0.01,0.05l-0.01,0.05l-0.01,0.05l-0.01,0.05 l-0.01,0.05l-0.23,1.12l0,0c-0.14,0.66-0.27,1.3-0.39,1.92l-0.01,0.05l-0.01,0.04l-0.01,0.05l-0.01,0.05l0,0.01l-0.01,0.04 l-0.01,0.04l-0.01,0.05l-0.01,0.05l-0.01,0.05l-0.01,0.05l-0.12,0.58l0,0l-0.16,0.79l-0.01,0.04l0,0l-0.01,0.04l-0.01,0.04 c-0.1,0.52-0.2,1.02-0.29,1.51l-0.05,0.29l0,0c-0.08,0.4-0.15,0.8-0.22,1.19l-0.01,0.04v0c-0.08,0.42-0.15,0.84-0.22,1.24h0 l-0.03,0.15l0,0.03l0,0.01l-0.01,0.03c-0.07,0.43-0.14,0.85-0.21,1.26l0,0.02l0,0.01l-0.01,0.03l0,0.03l-0.1,0.62h0l-0.07,0.48 l0,0.03l0,0.02l0,0.01l-0.01,0.03l0,0.03c-0.05,0.33-0.09,0.65-0.14,0.95l0,0.03l0,0.03l0,0.03l0,0.02l0,0.01l0,0.03l0,0.03l0,0.03 l-0.02,0.17h0c-0.03,0.26-0.07,0.51-0.09,0.75v0l0,0.01l0,0.01l0,0.03c-0.03,0.28-0.06,0.55-0.09,0.81l0,0.02l0,0l0,0.05l0,0.01 l0,0.01c-0.03,0.29-0.05,0.55-0.07,0.81v0.01v0.01c-0.01,0.15-0.02,0.31-0.03,0.45h0l-0.01,0.25v0.01l0,0.01 c-0.01,0.21-0.01,0.41,0,0.6v0v0.01l0.01,0.16c0.01,0.12,0.01,0.23,0.02,0.33v0v0v0c0.02,0.15,0.04,0.28,0.06,0.39h0l-2.25,10.08 l247.73,1.71c23.6,0.16-39.86-101.01-81.66-108.35l0,0c0.52-2.96-0.05,0.8,1.5-9.01l0,0l0.05-0.33l0.02-0.14l0-0.03l0.03-0.17 c1.59-10.05,5.56-34.16,9.08-53.5l0.04-0.2l0.01-0.04l0.03-0.15l0.04-0.2l0.03-0.2l0.03-0.2l0.04-0.19c0.23-1.26,0.46-2.53,0.7-3.8 l0.01-0.03l0.39-2.1l0.21-1.11l0.07-0.37l0.54-2.86l0.02-0.07l0.49-2.61l0.13-0.66l0.51-2.66l0.11-0.57l0.57-2.97l0.06-0.29 c4.65-23.99,10.02-49.07,16.11-73.59l31.9,0.78c0.58-10.08,1.13-21.4,1.59-33.66C1038.81,1172.96,1049.58,1183.31,1059.97,1191.07 L1059.97,1191.07z M921.57,771.58c-9.58-2.5-18.56-4.03-24.95-4.67c-2.95-0.96-5.97-1.85-9.04-2.65c0.11-1.04,0.21-2.09,0.29-3.16 c9.16,1.1,17.99,1.61,26.3,1.41C916.07,765.53,918.56,768.9,921.57,771.58L921.57,771.58z M650,1213.61 c-1.21,3.09-2.42,6.19-3.64,9.3 M799.88,1446.25l-0.01,0.25 M799.87,1446.52c-0.01,0.21-0.01,0.41,0,0.6 M799.87,1447.13l0.01,0.16 "/> <path class="st9" d="M1057.47,1183.8c0,0,7.8,22.51,15.77,26.34c7.96,3.82,0.42-27.1,0.42-27.1s-1.95-16.34-10.52-12.19 C1054.56,1174.98,1057.47,1183.8,1057.47,1183.8L1057.47,1183.8z"/> <path class="st9" d="M1074.73,1197.6c0,0,6.27,27.74,15.21,33.33c8.94,5.59,4.09-32.09,4.09-32.09s-0.15-19.64-10.86-15.86 C1072.45,1186.76,1074.73,1197.6,1074.73,1197.6L1074.73,1197.6z"/> <path class="st9" d="M1096.62,1188.08c0,0-2.16,36.44,6.87,46.53c9.03,10.09,16.5-38.11,16.5-38.11s6.82-24.27-7.74-23.43 C1097.68,1173.89,1096.62,1188.08,1096.62,1188.08L1096.62,1188.08z"/> <path class="st9" d="M1120.2,1166.8c0,0-5.14,50.72,3.7,63.09c8.84,12.38,20.56-55.5,20.56-55.5s9.16-34.71-6.43-31.04 C1122.44,1147.02,1120.2,1166.8,1120.2,1166.8L1120.2,1166.8z"/> <path class="st10" d="M929.68,949.04c22.96,122.52,103.61,242.1,158.22,257.36c54.61,15.27,70.33-35.39,52.66-92.44 c-12.7-41-77.52-159.21-115.19-227.4C955.2,759.56,906.71,826.51,929.68,949.04L929.68,949.04z"/> <path class="st9" d="M1036.66,1170.12c17.9,19.03,35.63,31.92,51.24,36.29c54.61,15.27,70.33-35.39,52.66-92.44 c-1.2-3.88-2.87-8.45-4.94-13.61C1111.28,1117.94,1068.26,1148.07,1036.66,1170.12L1036.66,1170.12z"/> <path class="st11" d="M929.68,949.04c1.2,6.42,2.57,12.83,4.08,19.23l106.5-54.66c-5.28-9.61-10.3-18.7-14.9-27.04 C955.2,759.56,906.71,826.51,929.68,949.04L929.68,949.04z"/> <path class="st12" d="M1080.42,1148.08c-0.77,0.76-1.28,1.56-1.57,2.39c-0.62,1.79-0.25,3.89,0.76,6.07 c1.17,2.51,3.15,5.08,5.51,7.49c4.91,4.99,9.8,7.19,14.31,8.77l-0.19,7c-5.17-1.8-12.45-6.49-17.91-12.04 c-2.77-2.82-5.12-5.89-6.54-8.96C1072.53,1153.92,1076.06,1147.35,1080.42,1148.08L1080.42,1148.08z"/> <path class="st12" d="M1118.75,1168.66c0.04-0.03,15.25-10.48,7.59-28.68c10.62,9.54,7.02,25.01-4.53,33.02L1118.75,1168.66 L1118.75,1168.66z"/> <path class="st12" d="M1106.53,1196.79c0.99,2.27,2.09,4.15,3.21,5.46c0.86,1,1.61,1.6,2.18,1.66c0.18,0.02,0.44-0.16,0.76-0.59 c2.23-2.94,3.61-8.68,4.45-15.02c1.56-11.77,1.16-25.22,0.95-27.89c5.57,10.76,5.32,20.93,4.31,28.58 c-0.95,7.14-2.61,13.76-5.47,17.53c-1.58,2.08-3.5,2.9-5.59,2.66c-1.98-0.22-3.9-1.47-5.62-3.49c-1.46-1.71-2.86-4.05-4.05-6.79 c-4.2-9.66-6.2-25.04-0.32-36.6C1100.53,1168.9,1098.49,1178.31,1106.53,1196.79L1106.53,1196.79z"/> <path class="st13" d="M863.19,1201.93c0,0,29.19-68.69,83.97-106.53c54.78-37.84,85.53-24.05,64.17,42.25 c-21.35,66.3-36.29,148.97-45.25,205.74c-8.96,56.77-24.9,100.59-24.9,100.59s-137.43,16.93-140.42,4.98 C797.76,1437.01,863.19,1201.93,863.19,1201.93L863.19,1201.93z"/> <path class="st14" d="M863.19,1201.93c0,0,29.19-68.69,83.97-106.53c54.78-37.84,85.53-24.05,64.17,42.25 c-21.35,66.3-36.29,148.97-45.25,205.74c-8.96,56.77-24.9,100.59-24.9,100.59s-137.43,16.93-140.42,4.98 C797.76,1437.01,863.19,1201.93,863.19,1201.93L863.19,1201.93z"/> <path class="st15" d="M964.58,1352.4L964.58,1352.4c41.8,7.33,105.25,108.51,81.66,108.35l-247.73-1.71l2.25-10.08 c-1.77-7.08,20.47-92.47,38.89-160.91h135.83c-3.65,19.95-7.85,45.53-9.4,55.34C964.53,1353.2,965.1,1349.44,964.58,1352.4 L964.58,1352.4z"/> <path class="st16" d="M1037.63,1421.25c12.98,21.46,18.6,39.57,8.61,39.5l-247.73-1.71l2.25-10.08 c-0.57-2.26,1.32-12.54,4.76-27.71H1037.63L1037.63,1421.25z"/> <path class="st13" d="M1022.21,1100.82c0,55.84-71.2,101.11-159.02,101.11c-87.82,0-159.02-45.27-159.02-101.11 c0-6.84,1.07-13.51,3.11-19.97h-0.01l0.02-0.04c1.29-4.08,2.96-8.07,5-11.96c4.49-11.85,11.62-33.1,19.71-66.5 c9.47-39.1,1.4-97.96-4.56-130.89c-3.24-7.79-4.98-16.02-4.98-24.55c0-48.08,55.18-87.06,123.24-87.06 c40.6,0,76.62,13.87,99.07,35.27h0l0.03,0.03l0.42,0.41c3.63,3.51,6.9,7.21,9.77,11.09c13.48,16.79,37.39,52.21,53.71,108.25 C1032.55,996.79,1022.21,1100.82,1022.21,1100.82L1022.21,1100.82z"/> <path class="st13" d="M723.11,1035.9c57.71,8.06,105.13,107.24,106.12,163.72c0,0-96.73,239.06-113.17,245.12 c-16.44,6.06-16.44,6.06-16.44,6.06s-103.86,6.92-122.04-8.66C559.39,1426.56,723.11,1035.9,723.11,1035.9L723.11,1035.9z"/> <path class="st14" d="M1022.21,1100.82c0,55.84-71.2,101.11-159.02,101.11c-11.66,0-23.01-0.81-33.96-2.32v0.01 c0,0-96.73,239.06-113.17,245.12c-16.45,6.06-16.45,6.06-16.45,6.06s-103.86,6.92-122.04-8.66 c-18.18-15.58,145.54-406.25,145.54-406.25c1.57,0.22,3.13,0.52,4.68,0.87h296.58C1024.88,1073.94,1022.21,1100.82,1022.21,1100.82 L1022.21,1100.82z"/> <path class="st17" d="M1025.85,1188.38c-94.89,14.41-222.77,0.18-365.03-26.54c25.63-66.57,85.94-174.6,64.9-290.83 c-3.24-7.79-4.98-16.02-4.98-24.55c0-48.08,55.18-87.06,123.24-87.06c40.61,0,76.62,13.87,99.07,35.28l0,0l0.03,0.03l0.41,0.41 c3.64,3.51,6.9,7.21,9.77,11.09C1046.74,909.17,1022.07,1076.49,1025.85,1188.38L1025.85,1188.38z"/> <path class="st18" d="M1025.85,1188.38c-94.89,14.41-222.77,0.18-365.03-26.54c5.93-15.41,13.72-33.04,21.93-52.48 c31.91,22.4,272.55,47.88,342.72,35.04C1025.35,1159.76,1025.38,1174.5,1025.85,1188.38L1025.85,1188.38z"/> <path class="st18" d="M769.94,776.86c20.61-10.96,52.51-17.47,74.05-17.47c21.53,0,25.86,3.21,39.35,6.79 c65.79,41.75-3.33,60.98-38.02,60.98C816.07,827.17,769.52,813.01,769.94,776.86L769.94,776.86z"/> <path class="st19" d="M966.8,1193.66c9.96-79.4,18.7-212.09-2.22-289.26c-20.92-77.17-43.95-111.05-67.66-136.59 c24.94,2.36,91.76,18.91,75.48,54.16c11.08,3.65,20.31,13.59,22.35,25.27c0.61,3.53,0.52,6.89-0.19,9.98 c9.75,4.31,17.57,13.51,19.42,24.15c1.13,6.5-0.14,12.45-3.18,17.08c7.76,4.84,13.69,12.86,15.27,21.95 c1.48,8.51-1.17,16.09-6.51,20.99c7.23,4.89,12.68,12.59,14.19,21.25c1.58,9.09-1.54,17.11-7.63,21.95 c7.14,4.9,12.52,12.54,14.01,21.12c1.87,10.73-2.83,19.99-11.21,24.25c5.2,4.76,8.97,11.11,10.19,18.09 c1.65,9.5-1.84,17.84-8.47,22.59c6.07,4.89,10.55,11.84,11.9,19.55c1.8,10.34-2.5,19.32-10.32,23.77 c4.94,4.71,8.52,10.88,9.7,17.63c1.99,11.42-3.47,21.18-12.88,25.02c-0.49,14.14-1.12,27.12-1.77,38.51L966.8,1193.66 L966.8,1193.66z"/> <path class="st20" d="M971.27,1152.98c2.49-26.2,4.54-55.26,5.51-84.77c5.38,4.83,9.16,11.47,10.1,18.79 c1.31,10.34-3.41,19.32-11.44,23.77c4.72,4.71,8.01,10.88,8.86,17.63C985.7,1139.41,980.25,1148.87,971.27,1152.98L971.27,1152.98z M976.82,1066.77c0.41-12.89,0.61-25.85,0.56-38.7c4.29,4.59,7.24,10.43,8.05,16.79C986.58,1053.92,983.1,1061.93,976.82,1066.77 L976.82,1066.77z M977.37,1026.09c-0.1-15.07-0.55-29.96-1.46-44.34c6.66,4.91,11.46,12.39,12.53,20.77 C989.74,1012.71,985.17,1021.56,977.37,1026.09L977.37,1026.09z M975.87,981.05c-0.94-14.79-2.36-29.04-4.34-42.4 c6.67,4.91,11.5,12.4,12.56,20.8C985.21,968.31,981.9,976.17,975.87,981.05L975.87,981.05z M971.39,937.75 c-1.79-11.92-0.51-10.11-6.81-33.35c-6.3-23.24-19.83-66.7-30.44-87.46c9.65,3.69,18.76,16.21,18.15,24.46 c-0.61,8.25-1.57,9.54-2.42,12.62c9.54,4.31,16.93,13.51,18.28,24.15c0.83,6.5-0.73,12.45-3.99,17.08 c7.53,4.84,13.08,12.86,14.24,21.95C979.44,925.45,976.64,932.84,971.39,937.75L971.39,937.75z M934.14,816.93 c-7.38-13.64-18.08-26.35-25.7-35.83C926.18,786.53,940.92,799.48,934.14,816.93L934.14,816.93z"/> <path class="st15" d="M745.65,1393.56c8.52,13.17,13.44,28.66,13.44,45.23c0,6.44-0.75,12.72-2.16,18.76H574.23 c-1.85-7.94,4.49-42.8,7.7-50.52c7.88-28.74,31.93-95.49,49.51-142.46l159.64,26.74C776.04,1326.74,760.17,1363.04,745.65,1393.56 L745.65,1393.56z"/> <path class="st16" d="M757.22,1421.25c1.23,5.67,1.88,11.53,1.88,17.54c0,6.44-0.75,12.72-2.16,18.76H574.23 c-1.25-5.36,1.24-23.03,3.98-36.3H757.22L757.22,1421.25z"/> <path class="st21" d="M855.42,799.17c-38.51,3.35-66.37-6.61-68.67-28.73c-1.03-9.85,0.03-29.55,0.03-40.9 c0-7.55,22.96-13.68,51.29-13.68c28.32,0,51.28,6.12,51.28,13.68c0,0.71-0.2,1.4-0.59,2.08c0.1,12.28,0.7,23.83-0.41,33.81 C886,786.4,883.88,796.69,855.42,799.17L855.42,799.17z"/> <path class="st9" d="M986.63,478.58c2.66,1.42,4.08,14.27,22.4,54.28c44.12,47.39,158.95,22.61,143.28-6.58 c-7.68-19.38-50.32-63.64-83.45-67.18C1035.75,455.56,986.63,478.58,986.63,478.58L986.63,478.58z"/> <path class="st10" d="M975.1,659.91c1.7,24.37,74.38,30.69,74.92-17.36C1050.74,579.58,972.22,618.61,975.1,659.91L975.1,659.91z"/> <path class="st22" d="M975.1,663.33c0.47,5.26,6.36,9.43,14.64,11.94c21.27,1.8,47.22-5.48,47.54-27.85 c0.18-12.67-4.9-20.05-12.48-23.48C1002.36,624.31,973.33,643.48,975.1,663.33L975.1,663.33z"/> <path class="st10" d="M705.76,691.89c-99.79-76.15-117.55-252.9-10.85-331.17c97.97-71.89,243.7-53.01,319.41,41.93 c15.01,18.83,27.67,37.88,30.91,61.91c10.63,78.61-19.54,250.47-91.27,289.99C893.73,787.72,742.74,720.11,705.76,691.89 L705.76,691.89z"/> <path class="st23" d="M642.9,633.39c-49.1-85.78-33.76-209.76,52.01-272.68c99.2-72.79,237.12-62.45,311.99,35.62 c-44.68-23.36-130.46-15.77-183.49-12.94c-90.2,4.81-118.8,72.64-116.44,179.71C709.31,670.18,658.38,624.58,642.9,633.39 L642.9,633.39z"/> <path class="st24" d="M831.6,536.71c20.67,0,37.43,16.53,37.43,36.93c0,20.39-16.76,36.93-37.43,36.93 c-20.67,0-37.43-16.53-37.43-36.93C794.17,553.24,810.93,536.71,831.6,536.71L831.6,536.71z"/> <path class="st12" d="M867.71,559.73c-7.28-12.5-21.66-21.93-36.2-21.96c-5.93-0.01-13.02,2.57-17.78,5.4 c-4.92,2.93-14.57,9.42-17.31,14.48C805.91,519.74,861.59,521.47,867.71,559.73L867.71,559.73z"/> <path class="st23" d="M850.04,560.66c9.09,0,16.47,7.59,16.47,16.96c0,9.37-7.37,16.96-16.47,16.96c-9.09,0-16.46-7.59-16.46-16.96 C833.58,568.26,840.95,560.66,850.04,560.66L850.04,560.66z"/> <path class="st24" d="M968.14,539.63c13.26-1.63,23.37,12.55,22.58,31.66c-0.79,19.11-12.19,35.92-25.45,37.55 c-13.27,1.63-23.37-12.55-22.58-31.66C943.48,558.07,954.88,541.26,968.14,539.63L968.14,539.63z"/> <path class="st12" d="M988.35,545.59c-2.33-4.42-5.37-7.86-8.88-10.02c-3.28-2.01-7.01-2.9-11-2.39 c-3.99,0.51-7.87,2.37-11.41,5.25c-3.77,3.07-7.16,7.3-9.91,12.33C946.89,535.61,979.66,515.58,988.35,545.59L988.35,545.59z"/> <path class="st12" d="M944.42,561.99c2.28-11.93,12.16-27.08,25.12-28.66c12.14-1.29,18.5,15.25,19.42,19.24l-2.19-0.53 c-11.16-24.88-38.3-5.89-39.84,8.52L944.42,561.99L944.42,561.99z"/> <path class="st23" d="M973.78,558.67c8.21,0.13,14.69,7.64,14.47,16.78c-0.22,9.14-7.06,16.44-15.27,16.31 c-8.21-0.13-14.69-7.64-14.47-16.78C958.73,565.84,965.57,558.54,973.78,558.67L973.78,558.67z"/> <path class="st12" d="M913.39,688.72c3.6,3.63,8.32,5.71,13.03,6.83c18.32,4.39,45.07-4.67,41.25-27.52 c-1.02-6.07-3.74-10.36-7.38-13.27c-3.56-2.84-8.04-4.46-12.71-5.18c-4.78-0.74-9.76-0.56-14.17,0.18 c-6.04,1.01-10.81,2.93-12.31,4.81c11.07-13.29,31.44-12.79,42.49-3.95c4.62,3.7,8.06,9.05,9.31,16.54 C978.81,702.48,922.49,713.15,913.39,688.72L913.39,688.72z"/> <path class="st23" d="M1042.05,507.11c4.01-10.43,1.78-34.22-7.78-39.84c-9.33-5.48-28.98-7.37-47.09-2.22 c-48.88,13.91-56.95,76.07-39.38,55.87C963.35,503.04,1039.71,498.93,1042.05,507.11L1042.05,507.11z"/> <path class="st23" d="M828.91,522.6c32.55-2.44,58.55,1.91,68.09-8.24c9.54-10.15,12.5-43.56,6.79-46.78 c-4.84-2.73-140.73,10.88-151.41,17.05c-7.58,4.37-12.3,9.97-9.67,14.02C752.59,513.87,804.1,524.46,828.91,522.6L828.91,522.6z"/> <path class="st12" d="M832.59,526.1c7.96,0,15.45,2.04,21.95,5.61c3.76,2.07,11.42,8.43,14.1,17.01 c-3.8-6.05-9.13-11.08-15.45-14.56c-6.09-3.35-13.12-5.26-20.6-5.26c-8.08,0-15.63,2.23-22.04,6.09c-6.64,4-12.08,9.75-15.65,16.6 C799.15,535.1,816.86,526.1,832.59,526.1L832.59,526.1z"/> <path class="st25" d="M835.5,560.84c4.71,0,8.53,3.94,8.53,8.79c0,4.86-3.82,8.79-8.53,8.79c-4.72,0-8.54-3.94-8.54-8.79 C826.97,564.78,830.79,560.84,835.5,560.84L835.5,560.84z"/> <path class="st25" d="M961.74,558.5c4.66,0.09,8.36,4.06,8.27,8.86c-0.09,4.8-3.95,8.62-8.61,8.53c-4.66-0.09-8.36-4.06-8.27-8.86 C953.23,562.23,957.08,558.41,961.74,558.5L961.74,558.5z"/> <path class="st12" d="M960.89,479.67c-6.34,8.99-11.62,14.71-16.69,29.28c-11.92,34.24-19.39,103.53-1.24,136.4l-4.66,2.56 c-18.98-34.37-9.11-103.47,3.36-139.29C944.36,500.85,947.46,489.92,960.89,479.67L960.89,479.67z"/> <path class="st26" d="M819.05,591.29c12.59,10.15,15.91,26.11,7.43,35.63c-8.48,9.52-25.56,9.01-38.15-1.15 c-12.59-10.15-15.91-26.11-7.43-35.63C789.39,580.63,806.47,581.14,819.05,591.29L819.05,591.29z"/> <path class="st23" d="M872.33,692.33c5.8,0,10.51,4.71,10.51,10.51c0,5.81-4.71,10.52-10.51,10.52c-5.81,0-10.52-4.71-10.52-10.52 C861.82,697.04,866.52,692.33,872.33,692.33L872.33,692.33z"/> <path class="st26" d="M984.85,587.78c-3.28,7.56-2.22,15.55,2.38,17.84c4.6,2.29,10.99-1.99,14.27-9.55 c3.28-7.56,2.22-15.55-2.38-17.83C994.53,575.94,988.14,580.22,984.85,587.78L984.85,587.78z"/> <path class="st12" d="M782.73,580.15c0.05-0.01,18.89-1.94,36.09,11.19c17.25,13.16,17.52,26.69,17.53,26.71 c-3-2.5-10.64-14.4-23.13-23.93C797.41,582.06,793.04,584.44,782.73,580.15L782.73,580.15z"/> <path class="st12" d="M995.87,577.64c-13.62,12.2-10.91,25.97-10.9,26C978.42,597.53,984.87,576.79,995.87,577.64L995.87,577.64z"/> <path class="st12" d="M862.41,699.83c3.41-10.21,14.77-13,24.41-4.99c-1.56-1.01-6.26-1.95-8.16-1.85 c-8.99,0.5-11.47,8.4-11.47,8.42L862.41,699.83L862.41,699.83z"/> <path class="st12" d="M889.07,707.94c2.68,1.37,4.62,4.12,5.52,7.25c0.61,2.09,0.77,4.37,0.38,6.52c-0.4,2.26-1.39,4.41-3.07,6.12 c-4.23,4.32-13.86,3.39-14.33-3.42c0.63,0.42,1.41,0.84,2.34,1.14c0.92,0.3,1.97,0.49,3.15,0.45 C892.55,725.7,894.01,714.99,889.07,707.94L889.07,707.94z"/> <path class="st23" d="M673.67,611.8c29.72,45.77-1.27,45.4,8.9,55.93c10.17,10.53,37.25,32.72,42.3,27.39 c1.93-2.04,1.56-8.78,0.31-17.68c-4.59-32.58-30-88-12.52-193.27c1.44-8.66-21.22-17.74-27.08-17.73 C650.57,466.52,660.05,590.82,673.67,611.8L673.67,611.8z"/> <path class="st10" d="M686.69,653.99c-2.25,32.12-98.03,40.45-98.75-22.88C587,548.1,690.5,599.54,686.69,653.99L686.69,653.99z"/> <path class="st27" d="M923.06,364.24c46.1,3.36,88.8,31.35,83.76,33.56c-5.04,2.21-41.28,19.4-87.38,16.05 c-46.1-3.36-102.73-26.68-123.15-26.72C775.88,387.09,876.96,360.89,923.06,364.24L923.06,364.24z"/> <path class="st22" d="M665.96,653.27c-1.36,19.47-59.44,24.53-59.88-13.87C605.51,589.06,668.27,620.25,665.96,653.27 L665.96,653.27z"/> <path class="st28" d="M665.96,653.27c-0.24,3.48-2.31,6.5-5.52,8.89c-13.29-2.22-25.42-10.69-25.62-28.16 c-0.09-7.96,1.41-13.87,3.98-18.07C653.37,622.2,667.06,637.52,665.96,653.27L665.96,653.27z"/> <path class="st12" d="M924.66,642.04c7.15-1.76,12.3,1.17,15.8,3.67c-4.41-2.16-10.31-2.31-15.2-1.11 c-4.93,1.21-9.17,3.83-10.75,7.64C915.41,648.74,917.8,643.73,924.66,642.04L924.66,642.04z"/> <path class="st23" d="M930.03,776.97c-11.74-3.22-19.16-21.28-19.16-21.28l10.17-3.09l-3.97-19.51l20.53,6.17l10.27-18.39 l9.71,19.28l8.53-9.81c0,0,2.73,17.25,1.29,27.42C965.04,774.3,942.59,780.42,930.03,776.97L930.03,776.97z"/> <path class="st9" d="M615.76,542.61c-8.6-102.04,3.52-157.96,16.18-188.93c71.92-117.72,274.88-139.79,354.6-71.04 c18.69,16.12,50.91,128.69,51.2,156.18C900.38,411.76,718.63,424.29,615.76,542.61L615.76,542.61z"/> <path class="st9" d="M993.3,277.33c18.58,16.03,45.72,131.26,50.37,167.63c-82.5-29.87-246.54-19.41-346.8,31.41 c0.17-67.56,5.03-182.08,35.98-202.61C793.7,224.39,943.88,234.7,993.3,277.33L993.3,277.33z"/> <path class="st29" d="M909.83,274.08c33.64,0,60.91,27.27,60.91,60.91c0,33.64-27.27,60.91-60.91,60.91 c-33.64,0-60.91-27.27-60.91-60.91C848.92,301.35,876.19,274.08,909.83,274.08L909.83,274.08z"/> <path class="st14" d="M666.66,496.5c4.27,50,39.02,64.08,69.49,61.38c28.22-2.5,51.86-23.06,79.25-45.25 c73.86-59.85,169.07-81.33,259.53-45.95c31.03,12.14,52.68,31.03,71.47,53.56c14.12,16.94,7.07,6.55-0.4-5.09 C1044.14,356.1,749.04,420.2,666.66,496.5L666.66,496.5z"/> <path class="st19" d="M797.87,1183.83c-43.62-5.54-89.53-13.07-137.05-21.99c5.48-14.24,12.55-30.39,20.07-48.1 c-7.44-3.85-12.53-11.62-12.53-20.58c0-12.8,10.37-23.17,23.17-23.17c2.33,0,4.58,0.35,6.71,0.99l0.26-0.69 c-8.49-3.44-14.48-11.76-14.48-21.49c0-12.8,10.37-23.17,23.17-23.17c5.65,0,2.47,0.47-1.7-1.95c-6.95-4.03-11.15-11.44-11.04-19.9 c0.14-10.39,10.37-23.17,23.17-23.17c0.92,0,1.84,0.06,2.74,0.16c-8.32-3.51-14.16-11.75-14.16-21.35 c0-11.02,7.69-20.24,17.99-22.59c-9.97-2.58-17.34-11.64-17.34-22.43c0-9.31,5.49-17.34,13.42-21.02 c-12.47-0.38-22.46-10.6-22.46-23.16c0-8.01,4.07-15.08,10.25-19.24l-0.13,0c-12.8,0-23.17-10.37-23.17-23.17 c0-11.68,8.64-21.34,19.87-22.93c-12.14-47.26,138.9-50.11,103.36,5.79c10.44,3.65,17.94,13.58,17.94,25.27 c0,3.53-0.68,6.89-1.92,9.98c9,4.31,15.22,13.5,15.22,24.15c0,6.5-2.31,12.45-6.16,17.08c6.92,4.84,11.45,12.86,11.45,21.95 c0,8.51-3.97,16.09-10.17,21c6.38,4.89,10.5,12.59,10.5,21.25c0,9.09-4.53,17.11-11.45,21.95c6.29,4.9,10.33,12.54,10.33,21.13 c0,10.73-6.32,19.98-15.43,24.25c4.37,4.76,7.04,11.11,7.04,18.09c0,9.5-4.95,17.84-12.41,22.59c5.22,4.88,8.49,11.84,8.49,19.55 c0,10.35-5.87,19.32-14.46,23.77c4.13,4.71,6.63,10.88,6.63,17.63c0,11.42-7.16,21.18-17.24,25.02 C803.4,1159.46,800.51,1172.44,797.87,1183.83L797.87,1183.83z"/> <path class="st20" d="M727.91,1173.64c-21.94-3.53-44.33-7.45-67.08-11.69c5.48-14.12-5.78-32.04,1.74-49.6 c-25.46-13.07-6.16-43.36,10.64-43.36c7.56,0,4.58,0.34,6.71,0.98l0.26-0.69c-24.91-9.99-14.68-44.25,8.69-44.25 c5.65,0,2.47,0.46-1.7-1.93c-33.36-19.16-11.77-43.6,4.22-43.6c6.86,0,1.84,0.06,2.74,0.16c-21.22-8.88-17.27-38.77,3.83-43.55 c-20.28-5.21-24.11-33.76-3.93-43.06c-20.01-0.6-32.2-28.68-12.21-42.01l-0.13,0c-12.79,0.13-15.26-9.91-15.26-22.04 c0-12.13,14.04-23.28,25.27-24.87c-4.55-18.23,13.46-35.47,35.83-25.53c13.1,6.56,18.93,17.86,8.41,34.25 c10.45,3.61,17.94,13.46,17.94,25.05c0,3.49-0.68,6.83-1.92,9.88c9,4.27,15.22,13.38,15.22,23.93c0,6.44-2.31,12.34-6.16,16.93 c6.92,4.8,11.45,12.75,11.45,21.75c0,8.43-3.97,15.95-10.17,20.81c6.38,4.85,10.49,12.48,10.49,21.06c0,9-4.53,16.96-11.45,21.76 c6.29,4.85,10.33,12.43,10.33,20.94c0,10.64-6.31,19.81-15.43,24.04c4.37,4.72,7.04,11.01,7.04,17.92 c0,9.41-4.95,17.68-12.41,22.39c5.22,4.84,8.49,11.73,8.49,19.38c0,10.25-5.87,19.14-14.46,23.56c4.12,4.67,6.63,10.78,6.63,17.47 c0,11.32-7.16,20.99-17.24,24.79C732.11,1154.9,729.95,1164.67,727.91,1173.64L727.91,1173.64z"/> <polygon class="st12" points="816.71,1103.98 744.84,1100.49 817.21,1101.37 816.71,1103.98 "/> <polygon class="st12" points="807.29,1146.64 734.85,1140.47 807.8,1144.03 807.29,1146.64 "/> <polygon class="st12" points="825.3,1061.61 750.88,1058.26 825.8,1059 825.3,1061.61 "/> <polygon class="st12" points="829.29,1020.15 756.25,1017.59 829.79,1017.54 829.29,1020.15 "/> <polygon class="st12" points="834.82,975.52 761.35,972.21 835.1,972.88 834.82,975.52 "/> <polygon class="st12" points="834.83,930.57 762.31,929.01 835,927.92 834.83,930.57 "/> <polygon class="st12" points="834.04,888.75 761.03,886.07 834.04,886.1 834.04,888.75 "/> <polygon class="st12" points="824.79,848.49 753.37,843.8 824.79,845.83 824.79,848.49 "/> <polygon class="st12" points="809.53,813.13 737.91,808.44 809.53,810.47 809.53,813.13 "/> <polygon class="st12" points="973.58,824.88 929.27,815.95 973.58,822.23 973.58,824.88 "/> <polygon class="st12" points="995.3,859.68 948.81,851.94 995.3,857.03 995.3,859.68 "/> <polygon class="st12" points="1009.7,900.39 964.76,894.34 1009.7,897.74 1009.7,900.39 "/> <polygon class="st12" points="1018.79,943.53 971.39,937.75 1018.79,940.87 1018.79,943.53 "/> <polygon class="st12" points="1025.89,986.2 978.05,981.06 1025.89,983.55 1025.89,986.2 "/> <polygon class="st12" points="1028.85,1031.6 979.51,1027.31 1028.85,1028.95 1028.85,1031.6 "/> <polygon class="st12" points="1029.52,1071.21 979.32,1068.42 1029.52,1068.56 1029.52,1071.21 "/> <polygon class="st12" points="1030.76,1115.21 979.9,1112.42 1030.76,1112.56 1030.76,1115.21 "/> <polygon class="st12" points="1030.11,1157.4 973.9,1154.61 1030.11,1154.75 1030.11,1157.4 "/> <path class="st9" d="M715.98,1117.7c0,0,12.57-1.24,13.59,11.49c1.01,12.73-19.83,21.22-33.2,16.64 c-13.36-4.59-7.35-11.24-0.76-21.32C702.2,1114.42,715.98,1117.7,715.98,1117.7L715.98,1117.7z"/> <path class="st9" d="M721.93,1087.45c0,0,20.4,8.31,23.96,17.54c3.56,9.23-8.55,26.87-26.06,23.44 C702.31,1125,721.93,1087.45,721.93,1087.45L721.93,1087.45z"/> <path class="st9" d="M718.39,1058.27c0,0,27.12,11.21,33.26,22.63c6.14,11.43-11.62,21.41-24.06,17.18 C715.15,1093.85,718.39,1058.27,718.39,1058.27L718.39,1058.27z"/> <path class="st9" d="M692.1,1131.19c1.47,5.2,4.56,20.1-3.07,20.89c-7.63,0.79-30.57-17.96-32.29-23.06 c-1.72-5.1,29.09-14.7,33.54-7.21C694.73,1129.31,692.1,1131.19,692.1,1131.19L692.1,1131.19z"/> <path class="st10" d="M705.05,812.53c22.58-3.67,43.46,88.44,21.24,121.21c-3.51,5.17-48.11,13.54-48.11,13.54 s81.51,98.34,59.81,162.61c-8.49,43.73-69.95,44.53-121.32,9.87c-51.38-34.66-88.37-89.15-88.72-152.89 C527.56,895.35,634.66,820.86,705.05,812.53L705.05,812.53z"/> <path class="st9" d="M733.74,1043.7c7.74,22.7,11.04,46.1,4.26,66.18c-8.34,42.92-67.7,44.48-118.48,11.74 c21.12,1.3,50.65-3.19,75.38-27.27C714.12,1075.64,726.24,1057.67,733.74,1043.7L733.74,1043.7z"/> <path class="st30" d="M705.05,812.53c22.58-3.67,43.46,88.44,21.24,121.21c-3.51,5.17-48.11,13.54-48.11,13.54s1.92,2.32,5.08,6.46 l-27.32-32.22c0,0-3.74-50.84-44.66-71.06C642.2,830.06,676.62,815.9,705.05,812.53L705.05,812.53z"/> <path class="st12" d="M616.19,891.87l1.62,0.88c7.15,3.82,32.39,17.33,45.22,32.3c14.4,16.8,18.52,22.81,18.53,22.83l-4.37,3.02 c-0.01-0.02-5.38-6.32-19.62-22.93C639.96,907.41,624.34,900.63,616.19,891.87L616.19,891.87z"/> <path class="st31" d="M666.31,833.69c14.89-4.75,28.92-2.45,31.33,5.12c2.41,7.58-7.7,17.57-22.59,22.31 c-14.89,4.75-28.92,2.45-31.34-5.12C641.31,848.43,651.42,838.44,666.31,833.69L666.31,833.69z"/> <path class="st12" d="M750.31,1396.14l-4.24,3.2c-23.4-31.04-80.54-35.7-124.05-21.87C642.69,1360.27,728,1354.32,750.31,1396.14 L750.31,1396.14z"/> <path class="st32" d="M1006.47,1421.25c0,0-6.88-23.66-33.86-42.03c-26.98-18.37-39.03-17.22-39.03-17.22l12.59-73.95 M611.12,1421.25c3.7-22,15.89-47.09,48.67-55.91l30.8-90.85 M741.8,1420.69c4.56-16.93-14.95-46.09-33.64-52.73l31.85-85.2"/> </g> </svg>