<?xml version="1.0" encoding="UTF-8" standalone="no"?>
<svg
   version="1.1"
   id="Camada_1"
   x="0px"
   y="0px"
   viewBox="0 0 80 154.96722"
   sodipodi:docname="to-explore-4824408.svg"
   inkscape:version="1.4 (86a8ad7, 2024-10-11)"
   width="80"
   height="154.96722"
   xmlns:inkscape="http://www.inkscape.org/namespaces/inkscape"
   xmlns:sodipodi="http://sodipodi.sourceforge.net/DTD/sodipodi-0.dtd"
   xmlns="http://www.w3.org/2000/svg"
   xmlns:svg="http://www.w3.org/2000/svg">
  <defs
     id="defs124" />
  <sodipodi:namedview
     id="namedview124"
     pagecolor="#ffffff"
     bordercolor="#666666"
     borderopacity="1.0"
     inkscape:showpageshadow="2"
     inkscape:pageopacity="0.0"
     inkscape:pagecheckerboard="0"
     inkscape:deskcolor="#d1d1d1"
     inkscape:zoom="2.8814601"
     inkscape:cx="144.54477"
     inkscape:cy="83.464629"
     inkscape:window-width="1920"
     inkscape:window-height="1017"
     inkscape:window-x="-8"
     inkscape:window-y="-8"
     inkscape:window-maximized="1"
     inkscape:current-layer="Camada_1" />
  <style
     type="text/css"
     id="style1"> .explorerst0{fill-rule:evenodd;clip-rule:evenodd;fill:#7EE8E1;} .explorerst1{fill-rule:evenodd;clip-rule:evenodd;fill:#ECCB97;stroke:#607848;stroke-width:7.3036;stroke-miterlimit:22.9256;} .explorerst2{fill-rule:evenodd;clip-rule:evenodd;fill:#ABC488;stroke:#607848;stroke-width:7.3036;stroke-miterlimit:22.9256;} .explorerst3{fill-rule:evenodd;clip-rule:evenodd;fill:#B9D299;stroke:#607848;stroke-width:7.3036;stroke-miterlimit:22.9256;} .explorerst4{fill-rule:evenodd;clip-rule:evenodd;fill:#ABC488;stroke:#8D8988;stroke-width:7.3036;stroke-miterlimit:22.9256;} .explorerst5{fill-rule:evenodd;clip-rule:evenodd;fill:#D3E1B2;} .explorerst6{fill:#607848;} .explorerst7{fill-rule:evenodd;clip-rule:evenodd;fill:#5B8233;} .explorerst8{fill:none;stroke:#004D40;stroke-width:29.2146;stroke-miterlimit:22.9256;} .explorerst9{fill-rule:evenodd;clip-rule:evenodd;fill:#5B8233;stroke:#004D40;stroke-width:7.3036;stroke-miterlimit:22.9256;} .explorerst10{fill-rule:evenodd;clip-rule:evenodd;fill:#FFCF8D;stroke:#004D40;stroke-width:7.3036;stroke-miterlimit:22.9256;} .explorerst11{fill-rule:evenodd;clip-rule:evenodd;fill:#FBAB52;stroke:#004D40;stroke-width:7.3036;stroke-miterlimit:22.9256;} .explorerst12{fill:#004D40;} .explorerst13{fill-rule:evenodd;clip-rule:evenodd;fill:#FFFFFF;stroke:#211915;stroke-width:2.0703;stroke-miterlimit:22.9256;} .explorerst14{fill-rule:evenodd;clip-rule:evenodd;fill:#5B8233;stroke:#004D40;stroke-width:5.4776;stroke-miterlimit:22.9256;} .explorerst15{fill-rule:evenodd;clip-rule:evenodd;fill:#185653;stroke:#004D40;stroke-width:5.4776;stroke-miterlimit:22.9256;} .explorerst16{fill-rule:evenodd;clip-rule:evenodd;fill:#2A918C;stroke:#004D40;stroke-width:5.4776;stroke-miterlimit:22.9256;} .explorerst17{fill-rule:evenodd;clip-rule:evenodd;fill:#FBAB52;stroke:#211915;stroke-width:2.0703;stroke-miterlimit:22.9256;} .explorerst18{fill-rule:evenodd;clip-rule:evenodd;fill:#FFC582;stroke:#004D40;stroke-width:5.4776;stroke-miterlimit:22.9256;} .explorerst19{fill-rule:evenodd;clip-rule:evenodd;fill:#11CBC0;stroke:#004D40;stroke-width:7.3036;stroke-miterlimit:22.9256;} .explorerst20{fill-rule:evenodd;clip-rule:evenodd;fill:#0DA49F;stroke:#004D40;stroke-width:7.3036;stroke-miterlimit:22.9256;} .explorerst21{fill-rule:evenodd;clip-rule:evenodd;fill:#DEAF6D;stroke:#004D40;stroke-width:5.4776;stroke-miterlimit:22.9256;} .explorerst22{fill-rule:evenodd;clip-rule:evenodd;fill:#B58B4F;stroke:#004D40;stroke-width:5.4776;stroke-miterlimit:22.9256;} .explorerst23{fill-rule:evenodd;clip-rule:evenodd;fill:#004D40;} .explorerst24{fill-rule:evenodd;clip-rule:evenodd;fill:#FFFFFF;stroke:#004D40;stroke-width:3.6516;stroke-miterlimit:22.9256;} .explorerst25{fill-rule:evenodd;clip-rule:evenodd;fill:#FFFFFF;} .explorerst26{fill-rule:evenodd;clip-rule:evenodd;fill:#FFCF8D;} .explorerst27{fill-rule:evenodd;clip-rule:evenodd;fill:#211915;} .explorerst28{fill-rule:evenodd;clip-rule:evenodd;fill:#96713E;stroke:#004D40;stroke-width:2.0703;stroke-miterlimit:22.9256;} .explorerst29{fill-rule:evenodd;clip-rule:evenodd;fill:#9EBA66;stroke:#004D40;stroke-width:2.0703;stroke-miterlimit:22.9256;} .explorerst30{fill-rule:evenodd;clip-rule:evenodd;fill:#FBAB52;stroke:#004D40;stroke-width:5.4776;stroke-miterlimit:22.9256;} .explorerst31{fill:none;stroke:#004D40;stroke-width:1.0352;stroke-miterlimit:22.9256;} .explorerst32{fill:none;stroke:#004D40;stroke-width:5.4776;stroke-miterlimit:22.9256;} </style>
  <g
     id="g124"
     transform="matrix(0.12637029,0,0,0.12637029,-66.255579,-29.974298)">
    <path
       class="explorerst7"
       d="m 1059.97,1191.07 c 3.01,6.84 7.72,15.82 12.48,18.11 2.48,1.19 3.45,-0.98 3.62,-4.54 2.56,8.65 7.25,21.7 13.08,25.35 6.02,3.77 5.79,-12.13 4.99,-22.89 0.6,0.11 1.19,0.21 1.79,0.31 0.63,10.17 2.37,21.34 6.77,26.25 6.16,6.89 11.59,-13.39 14.43,-26.95 0.36,-0.1 0.71,-0.21 1.07,-0.31 0.52,9.62 1.91,18.32 4.93,22.55 6.66,9.33 14.96,-26.93 18.64,-45.36 7.26,-17.83 6.4,-43.48 -1.99,-70.57 -12.7,-41 -77.52,-159.21 -115.19,-227.4 -12.16,-22.01 -23.67,-38.19 -34.27,-49.26 -4.11,-7.15 -10.95,-12.77 -18.7,-15.33 9.72,-21.06 -10.21,-35.44 -33.16,-44.12 12.1,-0.56 26.31,-7.12 28.16,-20.09 0.53,-3.7 0.5,-8.33 0.25,-12.73 17.87,-15.12 32.72,-38.8 44.56,-66.59 18.71,-1.14 37.54,-11.51 37.81,-35.88 0.21,-18.77 -6.61,-28.48 -16.22,-31.77 4.58,-19.64 7.99,-39.59 10.24,-58.77 43.96,12.12 126.69,1.7 101.97,-36.88 -24.97,-38.99 -61.57,-64.54 -103.79,-79.81 -7.3,-43.75 -31.76,-143.2 -48.93,-158 -45.87,-39.56 -178.49,-51.28 -245.98,-13.3 -47.43,17.87 -89.74,47.68 -115.38,89.65 -12.66,30.97 -24.78,86.89 -16.18,188.93 l 0.01,-0.01 c 1.11,15.29 3.77,30.43 7.95,45.06 -19.63,-1.56 -36.15,10.07 -35.77,43.45 0.6,53.27 68.47,55.83 91.35,36.19 8.04,9.01 16.87,17.27 26.47,24.59 14.14,10.79 44.95,27.33 80.97,41.8 -0.17,11.08 -0.84,26.73 -0.09,35.69 -1.23,0.46 -2.44,0.93 -3.65,1.41 -19.25,-3.62 -43.52,-1.4 -60.06,6.12 -20.17,-5.84 -35.46,10.25 -31.23,27.22 -8.91,1.26 -19.57,8.53 -23.61,17.53 -18.85,6.76 -38.45,16.68 -56.81,28.79 h 0.01 c -45.62,30.1 -83.58,73.77 -83.35,116.4 0.35,63.75 37.34,118.24 88.72,152.89 14.52,9.79 29.84,16.76 44.55,20.72 1.04,7.23 2,14.12 0.02,20.31 l -0.41,1.07 0.04,0.01 -0.04,0.1 c 3.36,0.62 6.71,1.24 10.05,1.85 l -2.11,5.28 v 0.01 c -1.17,2.94 -2.35,5.9 -3.54,8.88 v 0.01 c -1.19,2.98 -2.38,5.98 -3.57,9 l -0.01,0.01 c -1.19,3.02 -2.39,6.05 -3.6,9.1 l -0.01,0.01 c -1.2,3.04 -2.41,6.11 -3.62,9.18 v 0.01 c -1.21,3.07 -2.42,6.15 -3.63,9.24 l -0.01,0.01 c -1.21,3.09 -2.42,6.19 -3.64,9.3 -1.21,3.1 -2.42,6.21 -3.62,9.32 v 0.01 c -3.62,9.33 -7.23,18.69 -10.77,27.98 v 0.01 l -1.3,3.4 v 0 l -0.03,0.08 -2.2,5.78 v 0.01 c -1.17,3.08 -2.33,6.14 -3.48,9.2 v 0.01 c -1.15,3.05 -2.29,6.1 -3.43,9.13 v 0.01 c -1.13,3.03 -2.26,6.04 -3.37,9.03 v 0.01 c -4.45,11.98 -8.71,23.67 -12.71,34.87 v 0.01 c -1,2.8 -1.98,5.57 -2.95,8.3 v 0.01 c -3.86,10.95 -7.43,21.37 -10.63,31.07 v 0 c -0.8,2.43 -1.57,4.8 -2.33,7.14 v 0 c -2.25,7 -4.29,13.57 -6.06,19.63 v 0 c -0.59,2.02 -1.16,3.98 -1.69,5.88 v 0 c -0.21,0.74 -0.41,1.48 -0.61,2.2 l -0.02,0.08 c -3.21,7.71 -9.55,42.58 -7.7,50.52 h 182.71 c 1.41,-6.04 2.16,-12.32 2.16,-18.76 0,-16.57 -4.92,-32.06 -13.44,-45.23 l 0.02,-0.05 0.03,-0.07 0.35,-0.74 0.03,-0.07 0.04,-0.07 0.04,-0.07 0.03,-0.08 0.04,-0.07 0.04,-0.07 0.04,-0.07 0.03,-0.05 0.01,-0.02 0.04,-0.08 0.04,-0.07 0.03,-0.07 0.03,-0.08 0.04,-0.07 0.03,-0.07 0.03,-0.08 0.04,-0.07 0.04,-0.07 0.04,-0.07 0.03,-0.08 0.03,-0.07 0.04,-0.07 0.04,-0.08 0.03,-0.07 0.03,-0.07 0.04,-0.08 0.03,-0.07 0.04,-0.08 v -0.01 l 0.03,-0.07 0.04,-0.07 0.04,-0.07 0.03,-0.07 0.04,-0.08 0.04,-0.07 0.03,-0.08 0.04,-0.08 0.03,-0.07 0.03,-0.08 0.04,-0.07 0.04,-0.08 0.04,-0.07 0.04,-0.08 0.03,-0.07 0.04,-0.08 c 13.96,-29.6 29.07,-64.2 43.44,-98.01 l 0.07,-0.15 2.12,-4.99 v 0 c 1.54,-3.64 3.06,-7.22 4.55,-10.75 v 0 c 3.72,-8.82 7.26,-17.26 10.53,-25.1 v 0 l 1.93,-4.63 v 0 c 1.26,-3.04 2.48,-5.97 3.65,-8.78 v 0 c 2.33,-5.63 4.45,-10.78 6.34,-15.35 v 0 c 5.63,-13.7 9.03,-22.1 9.03,-22.1 v -0.01 l 0.51,0.07 v 0 l 0.51,0.07 v 0 l 0.52,0.07 0.51,0.07 0.52,0.07 v 0 l 0.51,0.07 v 0 l 0.52,0.06 0.52,0.06 v 0 l 0.51,0.06 0.52,0.06 v 0 l 0.52,0.06 v 0 l 0.52,0.06 0.52,0.06 0.52,0.06 0.52,0.06 0.52,0.05 0.52,0.05 v 0 l 0.52,0.05 v 0 l 0.53,0.05 0.52,0.05 v 0 l 0.52,0.05 0.52,0.05 0.53,0.05 v 0 l 0.53,0.05 0.52,0.04 v 0 l 0.53,0.04 0.53,0.04 v 0 l 0.53,0.04 v 0 l 0.53,0.04 v 0 l 0.53,0.04 0.53,0.04 0.53,0.04 0.53,0.04 v 0 l 0.53,0.03 v 0 l 0.53,0.03 v 0 l 0.53,0.03 v 0 l 0.53,0.03 v 0 l 0.53,0.03 0.53,0.03 0.54,0.03 v 0 l 0.53,0.03 v 0 l 0.54,0.03 v 0 l 0.54,0.02 v 0 l 0.53,0.02 v 0 l 0.54,0.02 v 0 l 0.54,0.02 v 0 l 0.54,0.02 v 0 l 0.54,0.02 v 0 l 0.54,0.02 v 0 l 0.54,0.02 v 0 l 0.54,0.02 v 0 l 0.54,0.01 v 0 l 0.54,0.01 v 0 l 0.54,0.01 v 0 l 0.54,0.01 v 0 l 0.54,0.01 v 0 l 0.54,0.01 v 0 l 0.54,0.01 v 0 l 0.54,0.01 v 0 h 0.54 v 0 h 0.55 v 0 h 0.54 v 0 h 0.55 v 0 h 0.55 v 0 l -0.05,0.17 v 0 l -0.14,0.5 v 0 l -0.23,0.83 v 0 l -0.32,1.14 v 0 l -0.4,1.44 v 0 l -0.48,1.73 v 0 l -0.56,2.02 v 0 l -0.63,2.29 v 0 l -0.7,2.55 v 0 l -0.77,2.8 v 0 l -0.84,3.04 -0.9,3.27 v 0 l -0.96,3.48 v 0 l -1.02,3.69 v 0 l -1.07,3.89 v 0 l -1.12,4.08 -1.17,4.25 v 0 l -1.21,4.42 v 0 l -1.25,4.57 v 0 l -1.29,4.72 v 0 l -1.32,4.86 -1.35,4.98 v 0 l -1.38,5.09 -1.41,5.2 v 0 l -1.43,5.29 v 0 l -1.45,5.37 -0.12,0.45 v 0 l -1.34,4.99 -0.39,1.47 -1.08,4.03 -0.1,0.37 -1.39,5.18 -0.07,0.25 c -1.47,5.49 -2.95,11.05 -4.42,16.61 l -0.01,0.05 -1.49,5.61 -0.05,0.18 -0.05,0.18 -0.05,0.18 -0.05,0.18 -0.05,0.18 -0.05,0.18 -0.01,0.03 -0.04,0.15 -0.05,0.18 -0.05,0.18 -0.05,0.18 -0.05,0.18 -0.05,0.18 -0.05,0.18 -0.05,0.18 -0.14,0.53 -0.04,0.18 -0.05,0.18 -0.05,0.18 -0.14,0.53 -0.04,0.18 -1.3,4.94 -0.05,0.18 c -1.7,6.46 -3.37,12.88 -5.01,19.19 l -0.02,0.09 -0.05,0.17 -0.02,0.09 -0.02,0.09 -0.02,0.09 -0.02,0.08 -0.02,0.09 -0.03,0.09 -0.02,0.09 -0.02,0.09 -0.02,0.09 -0.02,0.09 -0.02,0.09 -0.02,0.09 -0.02,0.09 -0.03,0.09 -0.02,0.09 -0.02,0.09 -0.02,0.09 -0.02,0.09 -0.02,0.09 -0.03,0.09 -0.02,0.09 -0.02,0.09 -0.02,0.09 -0.05,0.17 -0.02,0.08 -0.04,0.17 -0.02,0.09 -0.02,0.08 -0.02,0.09 -0.02,0.09 -0.02,0.09 -0.02,0.09 -0.02,0.09 -0.02,0.08 -0.02,0.09 -0.02,0.09 -0.02,0.09 -0.02,0.09 -0.02,0.08 -0.02,0.09 -0.02,0.09 -0.02,0.09 -0.02,0.09 -0.02,0.08 -0.02,0.09 -0.02,0.09 -0.02,0.08 -0.02,0.09 -0.02,0.09 -0.02,0.09 -0.04,0.17 -0.02,0.08 c -0.48,1.88 -0.96,3.74 -1.44,5.59 l -0.02,0.08 -0.02,0.08 -0.04,0.17 -0.02,0.08 -0.02,0.08 -0.09,0.34 -0.02,0.09 -0.02,0.08 -0.02,0.08 -0.21,0.84 -0.02,0.08 -0.06,0.25 -0.02,0.08 -0.02,0.08 -0.02,0.08 -0.02,0.08 -0.02,0.08 -0.02,0.08 -0.02,0.09 -0.02,0.08 -0.02,0.08 -0.02,0.08 -0.02,0.09 -0.02,0.08 -0.02,0.08 -0.02,0.08 -0.02,0.08 -0.02,0.08 -0.02,0.08 -0.02,0.08 -0.02,0.08 -0.02,0.08 -0.02,0.08 -0.04,0.17 -0.02,0.08 -0.02,0.08 -0.02,0.08 -0.02,0.08 -0.02,0.08 -0.01,0.02 -0.02,0.06 -0.02,0.08 -0.02,0.08 -0.02,0.08 -0.04,0.17 -0.02,0.08 v 0 l -0.02,0.08 -0.02,0.08 -0.02,0.08 -0.02,0.08 -0.02,0.08 -0.02,0.08 -0.02,0.08 -0.02,0.08 -0.02,0.08 -0.02,0.08 -0.02,0.08 -0.02,0.08 -0.02,0.08 -0.02,0.08 -0.02,0.08 -0.02,0.08 -0.02,0.08 -0.02,0.08 -0.02,0.08 -0.02,0.08 -0.02,0.08 -0.02,0.08 -0.02,0.08 -0.02,0.08 -0.02,0.08 -0.02,0.08 -0.02,0.08 -0.02,0.08 -0.02,0.08 -0.02,0.08 -0.04,0.16 -0.02,0.08 -0.05,0.17 -0.02,0.08 -0.02,0.08 -0.08,0.33 -0.02,0.08 -0.02,0.08 -0.02,0.08 -0.02,0.08 -0.02,0.08 -0.02,0.08 -0.02,0.08 -0.02,0.08 -0.04,0.16 -0.02,0.08 -0.02,0.08 -0.04,0.16 -0.02,0.08 -0.02,0.08 -0.06,0.24 -0.02,0.08 -0.02,0.08 -0.02,0.08 -0.02,0.08 -0.02,0.08 -0.02,0.08 -0.02,0.08 -0.02,0.08 -0.02,0.08 v 0.01 l -0.02,0.07 -0.02,0.08 -0.02,0.08 -0.02,0.08 -0.02,0.08 -0.02,0.08 -0.02,0.08 -0.02,0.08 -0.02,0.08 -0.02,0.08 -0.02,0.08 -0.02,0.08 -0.02,0.08 -0.02,0.08 -0.02,0.08 -0.02,0.08 -0.02,0.08 -0.02,0.08 -0.02,0.08 -0.02,0.08 -0.02,0.08 -0.02,0.08 -0.02,0.08 -0.02,0.08 -0.02,0.08 -0.02,0.08 -0.02,0.08 -0.02,0.08 -0.02,0.08 -0.02,0.08 -0.02,0.08 -0.02,0.08 -0.02,0.08 -0.02,0.08 -0.02,0.08 -0.02,0.08 -0.02,0.08 -0.02,0.08 v 0 l -0.02,0.08 -0.02,0.08 -0.02,0.08 -0.02,0.08 -0.02,0.08 -0.02,0.08 -0.02,0.08 -0.02,0.08 -0.02,0.08 -0.02,0.08 -0.02,0.08 -0.02,0.08 -0.02,0.08 -0.02,0.08 -0.02,0.08 -0.02,0.08 -0.02,0.08 -0.02,0.08 -0.02,0.08 -0.02,0.08 -0.02,0.08 v 0 l -0.04,0.16 -0.02,0.08 -0.04,0.16 -0.02,0.08 -0.04,0.16 -0.02,0.08 -0.02,0.08 -0.02,0.08 -0.02,0.08 -0.02,0.08 -0.02,0.08 -0.02,0.08 -0.02,0.08 -0.02,0.08 v 0 l -0.02,0.08 -0.02,0.08 -0.02,0.08 -0.02,0.08 -0.02,0.08 -0.02,0.08 -0.02,0.08 -0.02,0.08 -0.02,0.08 -0.02,0.08 -0.02,0.08 -0.08,0.32 -0.02,0.08 -0.02,0.08 -0.12,0.47 -0.02,0.08 -0.02,0.08 -0.02,0.08 -0.02,0.08 -0.02,0.08 -0.02,0.08 -0.02,0.08 -0.02,0.08 -0.02,0.08 -0.02,0.08 -0.02,0.08 -0.02,0.08 -0.02,0.08 -0.02,0.08 -0.02,0.07 v 0.01 l -0.02,0.08 -0.02,0.08 -0.02,0.08 -0.02,0.08 -0.02,0.08 -0.02,0.08 -0.02,0.08 -0.02,0.08 -0.02,0.08 v 0 l -0.02,0.08 -0.04,0.16 -0.02,0.08 -0.02,0.08 -0.06,0.23 -0.02,0.08 -0.02,0.08 -0.02,0.08 -0.02,0.08 -0.02,0.08 -0.02,0.08 -0.02,0.08 -0.02,0.08 -0.02,0.08 -0.02,0.08 -0.02,0.08 -0.02,0.08 -0.02,0.08 -0.02,0.08 -0.02,0.08 -0.02,0.08 -0.02,0.08 -0.02,0.08 -0.02,0.08 -0.02,0.08 -0.02,0.06 -0.01,0.02 -0.02,0.08 -0.02,0.08 -0.02,0.08 -0.02,0.08 -0.04,0.15 -0.02,0.08 -0.02,0.08 -0.02,0.08 -0.02,0.08 -0.02,0.08 -0.02,0.08 -0.02,0.08 -0.02,0.08 -0.02,0.07 -0.02,0.08 -0.02,0.08 -0.02,0.08 -0.02,0.08 -0.02,0.08 -0.02,0.08 -0.02,0.08 -0.02,0.08 -0.02,0.08 -0.02,0.08 -0.02,0.08 -0.02,0.08 -0.02,0.08 -0.02,0.08 -0.02,0.08 -0.02,0.07 -0.02,0.08 -0.06,0.23 -0.02,0.08 -0.02,0.07 -0.01,0.05 -0.01,0.02 -0.02,0.08 -0.02,0.08 -0.02,0.08 -0.02,0.07 -0.02,0.08 -0.02,0.08 -0.02,0.07 -0.02,0.08 -0.02,0.08 -0.02,0.08 -0.02,0.07 -0.04,0.15 -0.02,0.08 -0.02,0.07 -0.02,0.08 -0.02,0.08 -0.04,0.15 -0.02,0.08 -0.02,0.07 -0.05,0.23 -0.02,0.07 -0.02,0.08 -0.02,0.07 -0.02,0.07 -0.02,0.08 -0.02,0.07 -0.02,0.07 -0.02,0.07 -0.02,0.08 -0.02,0.07 -0.02,0.08 -0.02,0.08 -0.02,0.07 -0.01,0.05 -0.01,0.03 -0.04,0.15 -0.02,0.07 -0.02,0.07 -0.02,0.07 -0.02,0.07 -0.02,0.07 -0.02,0.07 -0.02,0.07 -0.02,0.07 -0.02,0.07 -0.02,0.07 -0.02,0.07 -0.02,0.07 -0.02,0.07 -0.02,0.07 -0.02,0.08 -0.02,0.08 -0.02,0.07 -0.02,0.07 -0.02,0.08 -0.02,0.07 -0.02,0.07 v 0 l -0.02,0.08 -0.02,0.07 -0.02,0.07 -0.02,0.07 -0.02,0.07 -0.02,0.07 -0.02,0.07 -0.02,0.07 -0.02,0.07 -0.02,0.07 -0.02,0.07 -0.02,0.07 -0.02,0.07 -0.02,0.07 -0.01,0.04 -0.01,0.04 -0.02,0.07 -0.02,0.07 -0.02,0.07 -0.02,0.07 -0.02,0.07 -0.02,0.07 -0.02,0.07 -0.02,0.07 -0.02,0.07 -0.02,0.07 -0.02,0.07 -0.02,0.07 -0.02,0.07 -0.02,0.07 -0.02,0.07 -0.02,0.07 -0.02,0.07 -0.02,0.07 -0.02,0.07 -0.02,0.07 -0.02,0.07 -0.02,0.07 -0.02,0.07 -0.02,0.07 -0.02,0.07 -0.02,0.07 -0.02,0.07 -0.02,0.07 -0.02,0.07 -0.02,0.07 -0.02,0.07 -0.02,0.07 -0.02,0.07 -0.02,0.07 -0.02,0.07 -0.03,0.15 -0.01,0.03 -0.01,0.04 -0.03,0.14 -0.02,0.07 -0.02,0.07 -0.02,0.07 -0.02,0.07 -0.02,0.07 -0.02,0.07 -0.02,0.07 -0.02,0.07 -0.02,0.07 v 0 l -0.02,0.07 -0.03,0.14 -0.02,0.07 -0.25,1 -0.02,0.07 -0.02,0.07 -0.02,0.07 -0.02,0.07 -0.02,0.07 -0.02,0.07 -0.02,0.07 -0.02,0.07 v 0.02 l -0.01,0.05 -0.02,0.07 -0.02,0.07 -0.02,0.07 -0.02,0.07 -0.02,0.07 -0.02,0.07 -0.02,0.07 -0.02,0.07 -0.02,0.07 -0.02,0.07 -0.02,0.07 -0.02,0.07 -0.02,0.07 -0.02,0.07 -0.02,0.07 -0.02,0.07 -0.02,0.07 -0.02,0.07 -0.02,0.07 -0.02,0.07 -0.02,0.07 -0.02,0.07 -0.02,0.07 -0.02,0.07 -0.02,0.07 -0.02,0.07 -0.02,0.07 -0.02,0.07 -0.02,0.07 -0.02,0.07 -0.12,0.49 v 0.02 l -0.01,0.05 -0.02,0.07 -0.02,0.07 -0.01,0.07 -0.02,0.07 -0.02,0.07 -0.02,0.07 -0.02,0.07 -0.02,0.07 -0.02,0.07 -0.02,0.07 -0.02,0.07 -0.02,0.07 -0.02,0.07 -0.02,0.07 -0.02,0.07 -0.02,0.07 -0.02,0.07 -0.02,0.07 -0.02,0.07 -0.02,0.07 -0.02,0.07 -0.02,0.07 -0.02,0.07 -0.02,0.07 -0.02,0.07 -0.02,0.07 -0.02,0.07 -0.02,0.07 -0.02,0.07 -0.02,0.07 -0.02,0.07 -0.02,0.07 -0.02,0.07 -0.02,0.07 -0.1,0.41 -0.02,0.07 -0.02,0.07 -0.02,0.07 -0.02,0.07 -0.02,0.07 -0.02,0.07 -0.02,0.07 -0.02,0.07 -0.02,0.07 -0.02,0.07 -0.02,0.07 -0.02,0.07 -0.02,0.07 -0.02,0.07 -0.02,0.07 -0.02,0.07 -0.02,0.07 -0.02,0.07 -0.02,0.07 -0.02,0.07 -0.02,0.07 -0.02,0.07 -0.02,0.07 v 0 l -0.02,0.07 -0.01,0.07 -0.02,0.07 -0.02,0.07 -0.02,0.07 -0.02,0.07 -0.02,0.07 -0.02,0.07 -0.02,0.07 -0.01,0.06 -0.02,0.07 -0.02,0.07 v 0.01 l -0.01,0.06 -0.02,0.07 -0.02,0.07 -0.01,0.07 -0.02,0.07 -0.02,0.07 -0.02,0.07 -0.02,0.07 -0.02,0.06 -0.02,0.07 -0.01,0.06 -0.02,0.07 -0.02,0.06 -0.01,0.07 -0.01,0.06 -0.02,0.07 -0.02,0.06 -0.02,0.07 -0.01,0.07 -0.01,0.07 -0.02,0.07 -0.03,0.13 -0.01,0.07 -0.02,0.07 -0.02,0.06 -0.01,0.07 -0.02,0.06 -0.02,0.07 -0.02,0.07 -0.01,0.06 -0.02,0.07 -0.01,0.07 -0.02,0.07 -0.02,0.07 -0.01,0.06 -0.01,0.07 -0.02,0.07 v 0 l -0.02,0.06 -0.01,0.07 -0.01,0.07 -0.02,0.06 -0.01,0.07 -0.02,0.06 -0.01,0.06 -0.02,0.06 -0.01,0.07 -0.01,0.06 -0.02,0.06 -0.01,0.06 -0.01,0.07 -0.02,0.06 v 0 l -0.3,1.27 -0.02,0.06 -0.01,0.06 -0.01,0.06 -0.01,0.06 v 0 l -0.01,0.06 -0.01,0.06 -0.03,0.13 -0.02,0.06 -0.23,1 -0.01,0.06 -0.04,0.19 -0.01,0.06 -0.03,0.12 -0.01,0.06 -0.01,0.06 -0.01,0.06 -0.01,0.06 -0.01,0.06 -0.01,0.06 -0.01,0.06 -0.01,0.06 -0.01,0.06 -0.01,0.05 v 0.01 l -0.01,0.06 -0.01,0.06 v 0 l -0.01,0.06 -0.01,0.06 -0.01,0.06 -0.43,1.87 -0.01,0.06 -0.01,0.05 v 0.01 l -0.01,0.06 -0.01,0.06 -0.01,0.06 -0.25,1.12 -0.01,0.06 -0.01,0.06 -0.01,0.06 -0.01,0.06 -0.01,0.06 -0.01,0.06 v 0 l -0.08,0.35 -0.01,0.06 -0.01,0.06 -0.01,0.06 -0.01,0.04 v 0.02 l -0.01,0.06 -0.01,0.06 -0.03,0.11 -0.01,0.06 -0.01,0.06 -0.32,1.42 -0.01,0.06 -0.01,0.06 -0.01,0.06 -0.01,0.05 -0.01,0.06 -0.01,0.06 -0.01,0.03 -0.01,0.02 -0.01,0.06 -0.01,0.06 -0.01,0.05 -0.01,0.06 -0.01,0.05 -0.01,0.06 -0.01,0.06 -0.11,0.5 v 0 l -0.18,0.82 -0.01,0.05 -0.01,0.05 -0.01,0.05 -0.01,0.05 -0.01,0.05 -0.01,0.05 -0.01,0.03 -0.01,0.03 -0.01,0.05 -0.01,0.05 -0.01,0.06 -0.01,0.05 -0.01,0.05 -0.01,0.05 -0.31,1.43 -0.01,0.05 -0.01,0.05 -0.01,0.05 -0.01,0.05 v 0.02 l -0.01,0.03 -0.01,0.05 -0.01,0.05 -0.01,0.05 -0.01,0.05 -0.25,1.17 -0.01,0.05 -0.01,0.05 -0.03,0.15 -0.01,0.05 -0.01,0.05 -0.01,0.05 -0.01,0.05 -0.01,0.05 v 0.02 l -0.01,0.03 -0.01,0.05 -0.01,0.05 -0.01,0.05 -0.01,0.05 -0.01,0.05 -0.01,0.05 -0.01,0.05 -0.23,1.12 v 0 c -0.14,0.66 -0.27,1.3 -0.39,1.92 l -0.01,0.05 -0.01,0.04 -0.01,0.05 -0.01,0.05 v 0.01 l -0.01,0.04 -0.01,0.04 -0.01,0.05 -0.01,0.05 -0.01,0.05 -0.01,0.05 -0.12,0.58 v 0 l -0.16,0.79 -0.01,0.04 v 0 l -0.01,0.04 -0.01,0.04 c -0.1,0.52 -0.2,1.02 -0.29,1.51 l -0.05,0.29 v 0 c -0.08,0.4 -0.15,0.8 -0.22,1.19 l -0.01,0.04 v 0 c -0.08,0.42 -0.15,0.84 -0.22,1.24 v 0 l -0.03,0.15 v 0.03 0.01 l -0.01,0.03 c -0.07,0.43 -0.14,0.85 -0.21,1.26 v 0.02 0.01 l -0.01,0.03 v 0.03 l -0.1,0.62 v 0 l -0.07,0.48 v 0.03 0.02 0.01 l -0.01,0.03 v 0.03 c -0.05,0.33 -0.09,0.65 -0.14,0.95 v 0.03 0.03 0.03 0.02 0.01 0.03 0.03 0.03 l -0.02,0.17 v 0 c -0.03,0.26 -0.07,0.51 -0.09,0.75 v 0 0.01 0.01 0.03 c -0.03,0.28 -0.06,0.55 -0.09,0.81 v 0.02 0 0.05 0.01 0.01 c -0.03,0.29 -0.05,0.55 -0.07,0.81 v 0.01 0.01 c -0.01,0.15 -0.02,0.31 -0.03,0.45 v 0 l -0.01,0.25 v 0.01 0.01 c -0.01,0.21 -0.01,0.41 0,0.6 v 0 0.01 l 0.01,0.16 c 0.01,0.12 0.01,0.23 0.02,0.33 v 0 0 0 c 0.02,0.15 0.04,0.28 0.06,0.39 v 0 l -2.25,10.08 247.73,1.71 c 23.6,0.16 -39.86,-101.01 -81.66,-108.35 v 0 c 0.52,-2.96 -0.05,0.8 1.5,-9.01 v 0 l 0.05,-0.33 0.02,-0.14 v -0.03 l 0.03,-0.17 c 1.59,-10.05 5.56,-34.16 9.08,-53.5 l 0.04,-0.2 0.01,-0.04 0.03,-0.15 0.04,-0.2 0.03,-0.2 0.03,-0.2 0.04,-0.19 c 0.23,-1.26 0.46,-2.53 0.7,-3.8 l 0.01,-0.03 0.39,-2.1 0.21,-1.11 0.07,-0.37 0.54,-2.86 0.02,-0.07 0.49,-2.61 0.13,-0.66 0.51,-2.66 0.11,-0.57 0.57,-2.97 0.06,-0.29 c 4.65,-23.99 10.02,-49.07 16.11,-73.59 l 31.9,0.78 c 0.58,-10.08 1.13,-21.4 1.59,-33.66 10.96,12.39 21.73,22.74 32.12,30.5 z M 921.57,771.58 c -9.58,-2.5 -18.56,-4.03 -24.95,-4.67 -2.95,-0.96 -5.97,-1.85 -9.04,-2.65 0.11,-1.04 0.21,-2.09 0.29,-3.16 9.16,1.1 17.99,1.61 26.3,1.41 1.9,3.02 4.39,6.39 7.4,9.07 z M 650,1213.61 c -1.21,3.09 -2.42,6.19 -3.64,9.3 z m 149.88,232.64 -0.01,0.25 z m -0.01,0.27 c -0.01,0.21 -0.01,0.41 0,0.6 z m 0,0.61 0.01,0.16 z"
       id="path32" />
    <path
       class="explorerst8"
       d="m 1059.97,1191.07 c 3.01,6.84 7.72,15.82 12.48,18.11 2.48,1.19 3.45,-0.98 3.62,-4.54 2.56,8.65 7.25,21.7 13.08,25.35 6.02,3.77 5.79,-12.13 4.99,-22.89 0.6,0.11 1.19,0.21 1.79,0.31 0.63,10.17 2.37,21.34 6.77,26.25 6.16,6.89 11.59,-13.39 14.43,-26.95 0.36,-0.1 0.71,-0.21 1.07,-0.31 0.52,9.62 1.91,18.32 4.93,22.55 6.66,9.33 14.96,-26.93 18.64,-45.36 7.26,-17.83 6.4,-43.48 -1.99,-70.57 -12.7,-41 -77.52,-159.21 -115.19,-227.4 -12.16,-22.01 -23.67,-38.19 -34.27,-49.26 -4.11,-7.15 -10.95,-12.77 -18.7,-15.33 9.72,-21.06 -10.21,-35.44 -33.16,-44.12 12.1,-0.56 26.31,-7.12 28.16,-20.09 0.53,-3.7 0.5,-8.33 0.25,-12.73 17.87,-15.12 32.72,-38.8 44.56,-66.59 18.71,-1.14 37.54,-11.51 37.81,-35.88 0.21,-18.77 -6.61,-28.48 -16.22,-31.77 4.58,-19.64 7.99,-39.59 10.24,-58.77 43.96,12.12 126.69,1.7 101.97,-36.88 -24.97,-38.99 -61.57,-64.54 -103.79,-79.81 -7.3,-43.75 -31.76,-143.2 -48.93,-158 -45.87,-39.56 -178.49,-51.28 -245.98,-13.3 -47.43,17.87 -89.74,47.68 -115.38,89.65 -12.66,30.97 -24.78,86.89 -16.18,188.93 l 0.01,-0.01 c 1.11,15.29 3.77,30.43 7.95,45.06 -19.63,-1.56 -36.15,10.07 -35.77,43.45 0.6,53.27 68.47,55.83 91.35,36.19 8.04,9.01 16.87,17.27 26.47,24.59 14.14,10.79 44.95,27.33 80.97,41.8 -0.17,11.08 -0.84,26.73 -0.09,35.69 -1.23,0.46 -2.44,0.93 -3.65,1.41 -19.25,-3.62 -43.52,-1.4 -60.06,6.12 -20.17,-5.84 -35.46,10.25 -31.23,27.22 -8.91,1.26 -19.57,8.53 -23.61,17.53 -18.85,6.76 -38.45,16.68 -56.81,28.79 h 0.01 c -45.62,30.1 -83.58,73.77 -83.35,116.4 0.35,63.75 37.34,118.24 88.72,152.89 14.52,9.79 29.84,16.76 44.55,20.72 1.04,7.23 2,14.12 0.02,20.31 l -0.41,1.07 0.04,0.01 -0.04,0.1 c 3.36,0.62 6.71,1.24 10.05,1.85 l -2.11,5.28 v 0.01 c -1.17,2.94 -2.35,5.9 -3.54,8.88 v 0.01 c -1.19,2.98 -2.38,5.98 -3.57,9 l -0.01,0.01 c -1.19,3.02 -2.39,6.05 -3.6,9.1 l -0.01,0.01 c -1.2,3.04 -2.41,6.11 -3.62,9.18 v 0.01 c -1.21,3.07 -2.42,6.15 -3.63,9.24 l -0.01,0.01 c -1.21,3.09 -2.42,6.19 -3.64,9.3 -1.21,3.1 -2.42,6.21 -3.62,9.32 v 0.01 c -3.62,9.33 -7.23,18.69 -10.77,27.98 v 0.01 l -1.3,3.4 v 0 l -0.03,0.08 -2.2,5.78 v 0.01 c -1.17,3.08 -2.33,6.14 -3.48,9.2 v 0.01 c -1.15,3.05 -2.29,6.1 -3.43,9.13 v 0.01 c -1.13,3.03 -2.26,6.04 -3.37,9.03 v 0.01 c -4.45,11.98 -8.71,23.67 -12.71,34.87 v 0.01 c -1,2.8 -1.98,5.57 -2.95,8.3 v 0.01 c -3.86,10.95 -7.43,21.37 -10.63,31.07 v 0 c -0.8,2.43 -1.57,4.8 -2.33,7.14 v 0 c -2.25,7 -4.29,13.57 -6.06,19.63 v 0 c -0.59,2.02 -1.16,3.98 -1.69,5.88 v 0 c -0.21,0.74 -0.41,1.48 -0.61,2.2 l -0.02,0.08 c -3.21,7.71 -9.55,42.58 -7.7,50.52 h 182.71 c 1.41,-6.04 2.16,-12.32 2.16,-18.76 0,-16.57 -4.92,-32.06 -13.44,-45.23 l 0.02,-0.05 0.03,-0.07 0.35,-0.74 0.03,-0.07 0.04,-0.07 0.04,-0.07 0.03,-0.08 0.04,-0.07 0.04,-0.07 0.04,-0.07 0.03,-0.05 0.01,-0.02 0.04,-0.08 0.04,-0.07 0.03,-0.07 0.03,-0.08 0.04,-0.07 0.03,-0.07 0.03,-0.08 0.04,-0.07 0.04,-0.07 0.04,-0.07 0.03,-0.08 0.03,-0.07 0.04,-0.07 0.04,-0.08 0.03,-0.07 0.03,-0.07 0.04,-0.08 0.03,-0.07 0.04,-0.08 v -0.01 l 0.03,-0.07 0.04,-0.07 0.04,-0.07 0.03,-0.07 0.04,-0.08 0.04,-0.07 0.03,-0.08 0.04,-0.08 0.03,-0.07 0.03,-0.08 0.04,-0.07 0.04,-0.08 0.04,-0.07 0.04,-0.08 0.03,-0.07 0.04,-0.08 c 13.96,-29.6 29.07,-64.2 43.44,-98.01 l 0.07,-0.15 2.12,-4.99 v 0 c 1.54,-3.64 3.06,-7.22 4.55,-10.75 v 0 c 3.72,-8.82 7.26,-17.26 10.53,-25.1 v 0 l 1.93,-4.63 v 0 c 1.26,-3.04 2.48,-5.97 3.65,-8.78 v 0 c 2.33,-5.63 4.45,-10.78 6.34,-15.35 v 0 c 5.63,-13.7 9.03,-22.1 9.03,-22.1 v -0.01 l 0.51,0.07 v 0 l 0.51,0.07 v 0 l 0.52,0.07 0.51,0.07 0.52,0.07 v 0 l 0.51,0.07 v 0 l 0.52,0.06 0.52,0.06 v 0 l 0.51,0.06 0.52,0.06 v 0 l 0.52,0.06 v 0 l 0.52,0.06 0.52,0.06 0.52,0.06 0.52,0.06 0.52,0.05 0.52,0.05 v 0 l 0.52,0.05 v 0 l 0.53,0.05 0.52,0.05 v 0 l 0.52,0.05 0.52,0.05 0.53,0.05 v 0 l 0.53,0.05 0.52,0.04 v 0 l 0.53,0.04 0.53,0.04 v 0 l 0.53,0.04 v 0 l 0.53,0.04 v 0 l 0.53,0.04 0.53,0.04 0.53,0.04 0.53,0.04 v 0 l 0.53,0.03 v 0 l 0.53,0.03 v 0 l 0.53,0.03 v 0 l 0.53,0.03 v 0 l 0.53,0.03 0.53,0.03 0.54,0.03 v 0 l 0.53,0.03 v 0 l 0.54,0.03 v 0 l 0.54,0.02 v 0 l 0.53,0.02 v 0 l 0.54,0.02 v 0 l 0.54,0.02 v 0 l 0.54,0.02 v 0 l 0.54,0.02 v 0 l 0.54,0.02 v 0 l 0.54,0.02 v 0 l 0.54,0.02 v 0 l 0.54,0.01 v 0 l 0.54,0.01 v 0 l 0.54,0.01 v 0 l 0.54,0.01 v 0 l 0.54,0.01 v 0 l 0.54,0.01 v 0 l 0.54,0.01 v 0 l 0.54,0.01 v 0 h 0.54 v 0 h 0.55 v 0 h 0.54 v 0 h 0.55 v 0 h 0.55 v 0 l -0.05,0.17 v 0 l -0.14,0.5 v 0 l -0.23,0.83 v 0 l -0.32,1.14 v 0 l -0.4,1.44 v 0 l -0.48,1.73 v 0 l -0.56,2.02 v 0 l -0.63,2.29 v 0 l -0.7,2.55 v 0 l -0.77,2.8 v 0 l -0.84,3.04 -0.9,3.27 v 0 l -0.96,3.48 v 0 l -1.02,3.69 v 0 l -1.07,3.89 v 0 l -1.12,4.08 -1.17,4.25 v 0 l -1.21,4.42 v 0 l -1.25,4.57 v 0 l -1.29,4.72 v 0 l -1.32,4.86 -1.35,4.98 v 0 l -1.38,5.09 -1.41,5.2 v 0 l -1.43,5.29 v 0 l -1.45,5.37 -0.12,0.45 v 0 l -1.34,4.99 -0.39,1.47 -1.08,4.03 -0.1,0.37 -1.39,5.18 -0.07,0.25 c -1.47,5.49 -2.95,11.05 -4.42,16.61 l -0.01,0.05 -1.49,5.61 -0.05,0.18 -0.05,0.18 -0.05,0.18 -0.05,0.18 -0.05,0.18 -0.05,0.18 -0.01,0.03 -0.04,0.15 -0.05,0.18 -0.05,0.18 -0.05,0.18 -0.05,0.18 -0.05,0.18 -0.05,0.18 -0.05,0.18 -0.14,0.53 -0.04,0.18 -0.05,0.18 -0.05,0.18 -0.14,0.53 -0.04,0.18 -1.3,4.94 -0.05,0.18 c -1.7,6.46 -3.37,12.88 -5.01,19.19 l -0.02,0.09 -0.05,0.17 -0.02,0.09 -0.02,0.09 -0.02,0.09 -0.02,0.08 -0.02,0.09 -0.03,0.09 -0.02,0.09 -0.02,0.09 -0.02,0.09 -0.02,0.09 -0.02,0.09 -0.02,0.09 -0.02,0.09 -0.03,0.09 -0.02,0.09 -0.02,0.09 -0.02,0.09 -0.02,0.09 -0.02,0.09 -0.03,0.09 -0.02,0.09 -0.02,0.09 -0.02,0.09 -0.05,0.17 -0.02,0.08 -0.04,0.17 -0.02,0.09 -0.02,0.08 -0.02,0.09 -0.02,0.09 -0.02,0.09 -0.02,0.09 -0.02,0.09 -0.02,0.08 -0.02,0.09 -0.02,0.09 -0.02,0.09 -0.02,0.09 -0.02,0.08 -0.02,0.09 -0.02,0.09 -0.02,0.09 -0.02,0.09 -0.02,0.08 -0.02,0.09 -0.02,0.09 -0.02,0.08 -0.02,0.09 -0.02,0.09 -0.02,0.09 -0.04,0.17 -0.02,0.08 c -0.48,1.88 -0.96,3.74 -1.44,5.59 l -0.02,0.08 -0.02,0.08 -0.04,0.17 -0.02,0.08 -0.02,0.08 -0.09,0.34 -0.02,0.09 -0.02,0.08 -0.02,0.08 -0.21,0.84 -0.02,0.08 -0.06,0.25 -0.02,0.08 -0.02,0.08 -0.02,0.08 -0.02,0.08 -0.02,0.08 -0.02,0.08 -0.02,0.09 -0.02,0.08 -0.02,0.08 -0.02,0.08 -0.02,0.09 -0.02,0.08 -0.02,0.08 -0.02,0.08 -0.02,0.08 -0.02,0.08 -0.02,0.08 -0.02,0.08 -0.02,0.08 -0.02,0.08 -0.02,0.08 -0.04,0.17 -0.02,0.08 -0.02,0.08 -0.02,0.08 -0.02,0.08 -0.02,0.08 -0.01,0.02 -0.02,0.06 -0.02,0.08 -0.02,0.08 -0.02,0.08 -0.04,0.17 -0.02,0.08 v 0 l -0.02,0.08 -0.02,0.08 -0.02,0.08 -0.02,0.08 -0.02,0.08 -0.02,0.08 -0.02,0.08 -0.02,0.08 -0.02,0.08 -0.02,0.08 -0.02,0.08 -0.02,0.08 -0.02,0.08 -0.02,0.08 -0.02,0.08 -0.02,0.08 -0.02,0.08 -0.02,0.08 -0.02,0.08 -0.02,0.08 -0.02,0.08 -0.02,0.08 -0.02,0.08 -0.02,0.08 -0.02,0.08 -0.02,0.08 -0.02,0.08 -0.02,0.08 -0.02,0.08 -0.02,0.08 -0.04,0.16 -0.02,0.08 -0.05,0.17 -0.02,0.08 -0.02,0.08 -0.08,0.33 -0.02,0.08 -0.02,0.08 -0.02,0.08 -0.02,0.08 -0.02,0.08 -0.02,0.08 -0.02,0.08 -0.02,0.08 -0.04,0.16 -0.02,0.08 -0.02,0.08 -0.04,0.16 -0.02,0.08 -0.02,0.08 -0.06,0.24 -0.02,0.08 -0.02,0.08 -0.02,0.08 -0.02,0.08 -0.02,0.08 -0.02,0.08 -0.02,0.08 -0.02,0.08 -0.02,0.08 v 0.01 l -0.02,0.07 -0.02,0.08 -0.02,0.08 -0.02,0.08 -0.02,0.08 -0.02,0.08 -0.02,0.08 -0.02,0.08 -0.02,0.08 -0.02,0.08 -0.02,0.08 -0.02,0.08 -0.02,0.08 -0.02,0.08 -0.02,0.08 -0.02,0.08 -0.02,0.08 -0.02,0.08 -0.02,0.08 -0.02,0.08 -0.02,0.08 -0.02,0.08 -0.02,0.08 -0.02,0.08 -0.02,0.08 -0.02,0.08 -0.02,0.08 -0.02,0.08 -0.02,0.08 -0.02,0.08 -0.02,0.08 -0.02,0.08 -0.02,0.08 -0.02,0.08 -0.02,0.08 -0.02,0.08 -0.02,0.08 -0.02,0.08 v 0 l -0.02,0.08 -0.02,0.08 -0.02,0.08 -0.02,0.08 -0.02,0.08 -0.02,0.08 -0.02,0.08 -0.02,0.08 -0.02,0.08 -0.02,0.08 -0.02,0.08 -0.02,0.08 -0.02,0.08 -0.02,0.08 -0.02,0.08 -0.02,0.08 -0.02,0.08 -0.02,0.08 -0.02,0.08 -0.02,0.08 -0.02,0.08 v 0 l -0.04,0.16 -0.02,0.08 -0.04,0.16 -0.02,0.08 -0.04,0.16 -0.02,0.08 -0.02,0.08 -0.02,0.08 -0.02,0.08 -0.02,0.08 -0.02,0.08 -0.02,0.08 -0.02,0.08 -0.02,0.08 v 0 l -0.02,0.08 -0.02,0.08 -0.02,0.08 -0.02,0.08 -0.02,0.08 -0.02,0.08 -0.02,0.08 -0.02,0.08 -0.02,0.08 -0.02,0.08 -0.02,0.08 -0.08,0.32 -0.02,0.08 -0.02,0.08 -0.12,0.47 -0.02,0.08 -0.02,0.08 -0.02,0.08 -0.02,0.08 -0.02,0.08 -0.02,0.08 -0.02,0.08 -0.02,0.08 -0.02,0.08 -0.02,0.08 -0.02,0.08 -0.02,0.08 -0.02,0.08 -0.02,0.08 -0.02,0.07 v 0.01 l -0.02,0.08 -0.02,0.08 -0.02,0.08 -0.02,0.08 -0.02,0.08 -0.02,0.08 -0.02,0.08 -0.02,0.08 -0.02,0.08 v 0 l -0.02,0.08 -0.04,0.16 -0.02,0.08 -0.02,0.08 -0.06,0.23 -0.02,0.08 -0.02,0.08 -0.02,0.08 -0.02,0.08 -0.02,0.08 -0.02,0.08 -0.02,0.08 -0.02,0.08 -0.02,0.08 -0.02,0.08 -0.02,0.08 -0.02,0.08 -0.02,0.08 -0.02,0.08 -0.02,0.08 -0.02,0.08 -0.02,0.08 -0.02,0.08 -0.02,0.08 -0.02,0.08 -0.02,0.06 -0.01,0.02 -0.02,0.08 -0.02,0.08 -0.02,0.08 -0.02,0.08 -0.04,0.15 -0.02,0.08 -0.02,0.08 -0.02,0.08 -0.02,0.08 -0.02,0.08 -0.02,0.08 -0.02,0.08 -0.02,0.08 -0.02,0.07 -0.02,0.08 -0.02,0.08 -0.02,0.08 -0.02,0.08 -0.02,0.08 -0.02,0.08 -0.02,0.08 -0.02,0.08 -0.02,0.08 -0.02,0.08 -0.02,0.08 -0.02,0.08 -0.02,0.08 -0.02,0.08 -0.02,0.08 -0.02,0.07 -0.02,0.08 -0.06,0.23 -0.02,0.08 -0.02,0.07 -0.01,0.05 -0.01,0.02 -0.02,0.08 -0.02,0.08 -0.02,0.08 -0.02,0.07 -0.02,0.08 -0.02,0.08 -0.02,0.07 -0.02,0.08 -0.02,0.08 -0.02,0.08 -0.02,0.07 -0.04,0.15 -0.02,0.08 -0.02,0.07 -0.02,0.08 -0.02,0.08 -0.04,0.15 -0.02,0.08 -0.02,0.07 -0.05,0.23 -0.02,0.07 -0.02,0.08 -0.02,0.07 -0.02,0.07 -0.02,0.08 -0.02,0.07 -0.02,0.07 -0.02,0.07 -0.02,0.08 -0.02,0.07 -0.02,0.08 -0.02,0.08 -0.02,0.07 -0.01,0.05 -0.01,0.03 -0.04,0.15 -0.02,0.07 -0.02,0.07 -0.02,0.07 -0.02,0.07 -0.02,0.07 -0.02,0.07 -0.02,0.07 -0.02,0.07 -0.02,0.07 -0.02,0.07 -0.02,0.07 -0.02,0.07 -0.02,0.07 -0.02,0.07 -0.02,0.08 -0.02,0.08 -0.02,0.07 -0.02,0.07 -0.02,0.08 -0.02,0.07 -0.02,0.07 v 0 l -0.02,0.08 -0.02,0.07 -0.02,0.07 -0.02,0.07 -0.02,0.07 -0.02,0.07 -0.02,0.07 -0.02,0.07 -0.02,0.07 -0.02,0.07 -0.02,0.07 -0.02,0.07 -0.02,0.07 -0.02,0.07 -0.01,0.04 -0.01,0.04 -0.02,0.07 -0.02,0.07 -0.02,0.07 -0.02,0.07 -0.02,0.07 -0.02,0.07 -0.02,0.07 -0.02,0.07 -0.02,0.07 -0.02,0.07 -0.02,0.07 -0.02,0.07 -0.02,0.07 -0.02,0.07 -0.02,0.07 -0.02,0.07 -0.02,0.07 -0.02,0.07 -0.02,0.07 -0.02,0.07 -0.02,0.07 -0.02,0.07 -0.02,0.07 -0.02,0.07 -0.02,0.07 -0.02,0.07 -0.02,0.07 -0.02,0.07 -0.02,0.07 -0.02,0.07 -0.02,0.07 -0.02,0.07 -0.02,0.07 -0.02,0.07 -0.02,0.07 -0.03,0.15 -0.01,0.03 -0.01,0.04 -0.03,0.14 -0.02,0.07 -0.02,0.07 -0.02,0.07 -0.02,0.07 -0.02,0.07 -0.02,0.07 -0.02,0.07 -0.02,0.07 -0.02,0.07 v 0 l -0.02,0.07 -0.03,0.14 -0.02,0.07 -0.25,1 -0.02,0.07 -0.02,0.07 -0.02,0.07 -0.02,0.07 -0.02,0.07 -0.02,0.07 -0.02,0.07 -0.02,0.07 v 0.02 l -0.01,0.05 -0.02,0.07 -0.02,0.07 -0.02,0.07 -0.02,0.07 -0.02,0.07 -0.02,0.07 -0.02,0.07 -0.02,0.07 -0.02,0.07 -0.02,0.07 -0.02,0.07 -0.02,0.07 -0.02,0.07 -0.02,0.07 -0.02,0.07 -0.02,0.07 -0.02,0.07 -0.02,0.07 -0.02,0.07 -0.02,0.07 -0.02,0.07 -0.02,0.07 -0.02,0.07 -0.02,0.07 -0.02,0.07 -0.02,0.07 -0.02,0.07 -0.02,0.07 -0.02,0.07 -0.02,0.07 -0.12,0.49 v 0.02 l -0.01,0.05 -0.02,0.07 -0.02,0.07 -0.01,0.07 -0.02,0.07 -0.02,0.07 -0.02,0.07 -0.02,0.07 -0.02,0.07 -0.02,0.07 -0.02,0.07 -0.02,0.07 -0.02,0.07 -0.02,0.07 -0.02,0.07 -0.02,0.07 -0.02,0.07 -0.02,0.07 -0.02,0.07 -0.02,0.07 -0.02,0.07 -0.02,0.07 -0.02,0.07 -0.02,0.07 -0.02,0.07 -0.02,0.07 -0.02,0.07 -0.02,0.07 -0.02,0.07 -0.02,0.07 -0.02,0.07 -0.02,0.07 -0.02,0.07 -0.02,0.07 -0.02,0.07 -0.1,0.41 -0.02,0.07 -0.02,0.07 -0.02,0.07 -0.02,0.07 -0.02,0.07 -0.02,0.07 -0.02,0.07 -0.02,0.07 -0.02,0.07 -0.02,0.07 -0.02,0.07 -0.02,0.07 -0.02,0.07 -0.02,0.07 -0.02,0.07 -0.02,0.07 -0.02,0.07 -0.02,0.07 -0.02,0.07 -0.02,0.07 -0.02,0.07 -0.02,0.07 -0.02,0.07 v 0 l -0.02,0.07 -0.01,0.07 -0.02,0.07 -0.02,0.07 -0.02,0.07 -0.02,0.07 -0.02,0.07 -0.02,0.07 -0.02,0.07 -0.01,0.06 -0.02,0.07 -0.02,0.07 v 0.01 l -0.01,0.06 -0.02,0.07 -0.02,0.07 -0.01,0.07 -0.02,0.07 -0.02,0.07 -0.02,0.07 -0.02,0.07 -0.02,0.06 -0.02,0.07 -0.01,0.06 -0.02,0.07 -0.02,0.06 -0.01,0.07 -0.01,0.06 -0.02,0.07 -0.02,0.06 -0.02,0.07 -0.01,0.07 -0.01,0.07 -0.02,0.07 -0.03,0.13 -0.01,0.07 -0.02,0.07 -0.02,0.06 -0.01,0.07 -0.02,0.06 -0.02,0.07 -0.02,0.07 -0.01,0.06 -0.02,0.07 -0.01,0.07 -0.02,0.07 -0.02,0.07 -0.01,0.06 -0.01,0.07 -0.02,0.07 v 0 l -0.02,0.06 -0.01,0.07 -0.01,0.07 -0.02,0.06 -0.01,0.07 -0.02,0.06 -0.01,0.06 -0.02,0.06 -0.01,0.07 -0.01,0.06 -0.02,0.06 -0.01,0.06 -0.01,0.07 -0.02,0.06 v 0 l -0.3,1.27 -0.02,0.06 -0.01,0.06 -0.01,0.06 -0.01,0.06 v 0 l -0.01,0.06 -0.01,0.06 -0.03,0.13 -0.02,0.06 -0.23,1 -0.01,0.06 -0.04,0.19 -0.01,0.06 -0.03,0.12 -0.01,0.06 -0.01,0.06 -0.01,0.06 -0.01,0.06 -0.01,0.06 -0.01,0.06 -0.01,0.06 -0.01,0.06 -0.01,0.06 -0.01,0.05 v 0.01 l -0.01,0.06 -0.01,0.06 v 0 l -0.01,0.06 -0.01,0.06 -0.01,0.06 -0.43,1.87 -0.01,0.06 -0.01,0.05 v 0.01 l -0.01,0.06 -0.01,0.06 -0.01,0.06 -0.25,1.12 -0.01,0.06 -0.01,0.06 -0.01,0.06 -0.01,0.06 -0.01,0.06 -0.01,0.06 v 0 l -0.08,0.35 -0.01,0.06 -0.01,0.06 -0.01,0.06 -0.01,0.04 v 0.02 l -0.01,0.06 -0.01,0.06 -0.03,0.11 -0.01,0.06 -0.01,0.06 -0.32,1.42 -0.01,0.06 -0.01,0.06 -0.01,0.06 -0.01,0.05 -0.01,0.06 -0.01,0.06 -0.01,0.03 -0.01,0.02 -0.01,0.06 -0.01,0.06 -0.01,0.05 -0.01,0.06 -0.01,0.05 -0.01,0.06 -0.01,0.06 -0.11,0.5 v 0 l -0.18,0.82 -0.01,0.05 -0.01,0.05 -0.01,0.05 -0.01,0.05 -0.01,0.05 -0.01,0.05 -0.01,0.03 -0.01,0.03 -0.01,0.05 -0.01,0.05 -0.01,0.06 -0.01,0.05 -0.01,0.05 -0.01,0.05 -0.31,1.43 -0.01,0.05 -0.01,0.05 -0.01,0.05 -0.01,0.05 v 0.02 l -0.01,0.03 -0.01,0.05 -0.01,0.05 -0.01,0.05 -0.01,0.05 -0.25,1.17 -0.01,0.05 -0.01,0.05 -0.03,0.15 -0.01,0.05 -0.01,0.05 -0.01,0.05 -0.01,0.05 -0.01,0.05 v 0.02 l -0.01,0.03 -0.01,0.05 -0.01,0.05 -0.01,0.05 -0.01,0.05 -0.01,0.05 -0.01,0.05 -0.01,0.05 -0.23,1.12 v 0 c -0.14,0.66 -0.27,1.3 -0.39,1.92 l -0.01,0.05 -0.01,0.04 -0.01,0.05 -0.01,0.05 v 0.01 l -0.01,0.04 -0.01,0.04 -0.01,0.05 -0.01,0.05 -0.01,0.05 -0.01,0.05 -0.12,0.58 v 0 l -0.16,0.79 -0.01,0.04 v 0 l -0.01,0.04 -0.01,0.04 c -0.1,0.52 -0.2,1.02 -0.29,1.51 l -0.05,0.29 v 0 c -0.08,0.4 -0.15,0.8 -0.22,1.19 l -0.01,0.04 v 0 c -0.08,0.42 -0.15,0.84 -0.22,1.24 v 0 l -0.03,0.15 v 0.03 0.01 l -0.01,0.03 c -0.07,0.43 -0.14,0.85 -0.21,1.26 v 0.02 0.01 l -0.01,0.03 v 0.03 l -0.1,0.62 v 0 l -0.07,0.48 v 0.03 0.02 0.01 l -0.01,0.03 v 0.03 c -0.05,0.33 -0.09,0.65 -0.14,0.95 v 0.03 0.03 0.03 0.02 0.01 0.03 0.03 0.03 l -0.02,0.17 v 0 c -0.03,0.26 -0.07,0.51 -0.09,0.75 v 0 0.01 0.01 0.03 c -0.03,0.28 -0.06,0.55 -0.09,0.81 v 0.02 0 0.05 0.01 0.01 c -0.03,0.29 -0.05,0.55 -0.07,0.81 v 0.01 0.01 c -0.01,0.15 -0.02,0.31 -0.03,0.45 v 0 l -0.01,0.25 v 0.01 0.01 c -0.01,0.21 -0.01,0.41 0,0.6 v 0 0.01 l 0.01,0.16 c 0.01,0.12 0.01,0.23 0.02,0.33 v 0 0 0 c 0.02,0.15 0.04,0.28 0.06,0.39 v 0 l -2.25,10.08 247.73,1.71 c 23.6,0.16 -39.86,-101.01 -81.66,-108.35 v 0 c 0.52,-2.96 -0.05,0.8 1.5,-9.01 v 0 l 0.05,-0.33 0.02,-0.14 v -0.03 l 0.03,-0.17 c 1.59,-10.05 5.56,-34.16 9.08,-53.5 l 0.04,-0.2 0.01,-0.04 0.03,-0.15 0.04,-0.2 0.03,-0.2 0.03,-0.2 0.04,-0.19 c 0.23,-1.26 0.46,-2.53 0.7,-3.8 l 0.01,-0.03 0.39,-2.1 0.21,-1.11 0.07,-0.37 0.54,-2.86 0.02,-0.07 0.49,-2.61 0.13,-0.66 0.51,-2.66 0.11,-0.57 0.57,-2.97 0.06,-0.29 c 4.65,-23.99 10.02,-49.07 16.11,-73.59 l 31.9,0.78 c 0.58,-10.08 1.13,-21.4 1.59,-33.66 10.96,12.39 21.73,22.74 32.12,30.5 z M 921.57,771.58 c -9.58,-2.5 -18.56,-4.03 -24.95,-4.67 -2.95,-0.96 -5.97,-1.85 -9.04,-2.65 0.11,-1.04 0.21,-2.09 0.29,-3.16 9.16,1.1 17.99,1.61 26.3,1.41 1.9,3.02 4.39,6.39 7.4,9.07 z M 650,1213.61 c -1.21,3.09 -2.42,6.19 -3.64,9.3 m 153.52,223.34 -0.01,0.25 m 0,0.02 c -0.01,0.21 -0.01,0.41 0,0.6 m 0,0.01 0.01,0.16"
       id="path33" />
    <path
       class="explorerst9"
       d="m 1057.47,1183.8 c 0,0 7.8,22.51 15.77,26.34 7.96,3.82 0.42,-27.1 0.42,-27.1 0,0 -1.95,-16.34 -10.52,-12.19 -8.58,4.13 -5.67,12.95 -5.67,12.95 z"
       id="path34" />
    <path
       class="explorerst9"
       d="m 1074.73,1197.6 c 0,0 6.27,27.74 15.21,33.33 8.94,5.59 4.09,-32.09 4.09,-32.09 0,0 -0.15,-19.64 -10.86,-15.86 -10.72,3.78 -8.44,14.62 -8.44,14.62 z"
       id="path35" />
    <path
       class="explorerst9"
       d="m 1096.62,1188.08 c 0,0 -2.16,36.44 6.87,46.53 9.03,10.09 16.5,-38.11 16.5,-38.11 0,0 6.82,-24.27 -7.74,-23.43 -14.57,0.82 -15.63,15.01 -15.63,15.01 z"
       id="path36" />
    <path
       class="explorerst9"
       d="m 1120.2,1166.8 c 0,0 -5.14,50.72 3.7,63.09 8.84,12.38 20.56,-55.5 20.56,-55.5 0,0 9.16,-34.71 -6.43,-31.04 -15.59,3.67 -17.83,23.45 -17.83,23.45 z"
       id="path37" />
    <path
       class="explorerst10"
       d="m 929.68,949.04 c 22.96,122.52 103.61,242.1 158.22,257.36 54.61,15.27 70.33,-35.39 52.66,-92.44 -12.7,-41 -77.52,-159.21 -115.19,-227.4 -70.17,-127 -118.66,-60.05 -95.69,62.48 z"
       id="path38" />
    <path
       class="explorerst9"
       d="m 1036.66,1170.12 c 17.9,19.03 35.63,31.92 51.24,36.29 54.61,15.27 70.33,-35.39 52.66,-92.44 -1.2,-3.88 -2.87,-8.45 -4.94,-13.61 -24.34,17.58 -67.36,47.71 -98.96,69.76 z"
       id="path39" />
    <path
       class="explorerst11"
       d="m 929.68,949.04 c 1.2,6.42 2.57,12.83 4.08,19.23 l 106.5,-54.66 c -5.28,-9.61 -10.3,-18.7 -14.9,-27.04 -70.16,-127.01 -118.65,-60.06 -95.68,62.47 z"
       id="path40" />
    <path
       class="explorerst12"
       d="m 1080.42,1148.08 c -0.77,0.76 -1.28,1.56 -1.57,2.39 -0.62,1.79 -0.25,3.89 0.76,6.07 1.17,2.51 3.15,5.08 5.51,7.49 4.91,4.99 9.8,7.19 14.31,8.77 l -0.19,7 c -5.17,-1.8 -12.45,-6.49 -17.91,-12.04 -2.77,-2.82 -5.12,-5.89 -6.54,-8.96 -2.26,-4.88 1.27,-11.45 5.63,-10.72 z"
       id="path41" />
    <path
       class="explorerst12"
       d="m 1118.75,1168.66 c 0.04,-0.03 15.25,-10.48 7.59,-28.68 10.62,9.54 7.02,25.01 -4.53,33.02 z"
       id="path42" />
    <path
       class="explorerst12"
       d="m 1106.53,1196.79 c 0.99,2.27 2.09,4.15 3.21,5.46 0.86,1 1.61,1.6 2.18,1.66 0.18,0.02 0.44,-0.16 0.76,-0.59 2.23,-2.94 3.61,-8.68 4.45,-15.02 1.56,-11.77 1.16,-25.22 0.95,-27.89 5.57,10.76 5.32,20.93 4.31,28.58 -0.95,7.14 -2.61,13.76 -5.47,17.53 -1.58,2.08 -3.5,2.9 -5.59,2.66 -1.98,-0.22 -3.9,-1.47 -5.62,-3.49 -1.46,-1.71 -2.86,-4.05 -4.05,-6.79 -4.2,-9.66 -6.2,-25.04 -0.32,-36.6 -0.81,6.6 -2.85,16.01 5.19,34.49 z"
       id="path43" />
    <path
       class="explorerst13"
       d="m 863.19,1201.93 c 0,0 29.19,-68.69 83.97,-106.53 54.78,-37.84 85.53,-24.05 64.17,42.25 -21.35,66.3 -36.29,148.97 -45.25,205.74 -8.96,56.77 -24.9,100.59 -24.9,100.59 0,0 -137.43,16.93 -140.42,4.98 -3,-11.95 62.43,-247.03 62.43,-247.03 z"
       id="path44" />
    <path
       class="explorerst14"
       d="m 863.19,1201.93 c 0,0 29.19,-68.69 83.97,-106.53 54.78,-37.84 85.53,-24.05 64.17,42.25 -21.35,66.3 -36.29,148.97 -45.25,205.74 -8.96,56.77 -24.9,100.59 -24.9,100.59 0,0 -137.43,16.93 -140.42,4.98 -3,-11.95 62.43,-247.03 62.43,-247.03 z"
       id="path45" />
    <path
       class="explorerst15"
       d="m 964.58,1352.4 v 0 c 41.8,7.33 105.25,108.51 81.66,108.35 l -247.73,-1.71 2.25,-10.08 c -1.77,-7.08 20.47,-92.47 38.89,-160.91 h 135.83 c -3.65,19.95 -7.85,45.53 -9.4,55.34 -1.55,9.81 -0.98,6.05 -1.5,9.01 z"
       id="path46" />
    <path
       class="explorerst16"
       d="m 1037.63,1421.25 c 12.98,21.46 18.6,39.57 8.61,39.5 l -247.73,-1.71 2.25,-10.08 c -0.57,-2.26 1.32,-12.54 4.76,-27.71 z"
       id="path47" />
    <path
       class="explorerst13"
       d="m 1022.21,1100.82 c 0,55.84 -71.2,101.11 -159.02,101.11 -87.82,0 -159.02,-45.27 -159.02,-101.11 0,-6.84 1.07,-13.51 3.11,-19.97 h -0.01 l 0.02,-0.04 c 1.29,-4.08 2.96,-8.07 5,-11.96 4.49,-11.85 11.62,-33.1 19.71,-66.5 9.47,-39.1 1.4,-97.96 -4.56,-130.89 -3.24,-7.79 -4.98,-16.02 -4.98,-24.55 0,-48.08 55.18,-87.06 123.24,-87.06 40.6,0 76.62,13.87 99.07,35.27 v 0 l 0.03,0.03 0.42,0.41 c 3.63,3.51 6.9,7.21 9.77,11.09 13.48,16.79 37.39,52.21 53.71,108.25 23.85,81.89 13.51,185.92 13.51,185.92 z"
       id="path48" />
    <path
       class="explorerst13"
       d="m 723.11,1035.9 c 57.71,8.06 105.13,107.24 106.12,163.72 0,0 -96.73,239.06 -113.17,245.12 -16.44,6.06 -16.44,6.06 -16.44,6.06 0,0 -103.86,6.92 -122.04,-8.66 -18.19,-15.58 145.53,-406.24 145.53,-406.24 z"
       id="path49" />
    <path
       class="explorerst14"
       d="m 1022.21,1100.82 c 0,55.84 -71.2,101.11 -159.02,101.11 -11.66,0 -23.01,-0.81 -33.96,-2.32 v 0.01 c 0,0 -96.73,239.06 -113.17,245.12 -16.45,6.06 -16.45,6.06 -16.45,6.06 0,0 -103.86,6.92 -122.04,-8.66 -18.18,-15.58 145.54,-406.25 145.54,-406.25 1.57,0.22 3.13,0.52 4.68,0.87 h 296.58 c 0.51,37.18 -2.16,64.06 -2.16,64.06 z"
       id="path50" />
    <path
       class="explorerst17"
       d="m 1025.85,1188.38 c -94.89,14.41 -222.77,0.18 -365.03,-26.54 25.63,-66.57 85.94,-174.6 64.9,-290.83 -3.24,-7.79 -4.98,-16.02 -4.98,-24.55 0,-48.08 55.18,-87.06 123.24,-87.06 40.61,0 76.62,13.87 99.07,35.28 v 0 l 0.03,0.03 0.41,0.41 c 3.64,3.51 6.9,7.21 9.77,11.09 93.48,102.96 68.81,270.28 72.59,382.17 z"
       id="path51" />
    <path
       class="explorerst18"
       d="m 1025.85,1188.38 c -94.89,14.41 -222.77,0.18 -365.03,-26.54 5.93,-15.41 13.72,-33.04 21.93,-52.48 31.91,22.4 272.55,47.88 342.72,35.04 -0.12,15.36 -0.09,30.1 0.38,43.98 z"
       id="path52" />
    <path
       class="explorerst18"
       d="m 769.94,776.86 c 20.61,-10.96 52.51,-17.47 74.05,-17.47 21.53,0 25.86,3.21 39.35,6.79 65.79,41.75 -3.33,60.98 -38.02,60.98 -29.25,0.01 -75.8,-14.15 -75.38,-50.3 z"
       id="path53" />
    <path
       class="explorerst19"
       d="m 966.8,1193.66 c 9.96,-79.4 18.7,-212.09 -2.22,-289.26 -20.92,-77.17 -43.95,-111.05 -67.66,-136.59 24.94,2.36 91.76,18.91 75.48,54.16 11.08,3.65 20.31,13.59 22.35,25.27 0.61,3.53 0.52,6.89 -0.19,9.98 9.75,4.31 17.57,13.51 19.42,24.15 1.13,6.5 -0.14,12.45 -3.18,17.08 7.76,4.84 13.69,12.86 15.27,21.95 1.48,8.51 -1.17,16.09 -6.51,20.99 7.23,4.89 12.68,12.59 14.19,21.25 1.58,9.09 -1.54,17.11 -7.63,21.95 7.14,4.9 12.52,12.54 14.01,21.12 1.87,10.73 -2.83,19.99 -11.21,24.25 5.2,4.76 8.97,11.11 10.19,18.09 1.65,9.5 -1.84,17.84 -8.47,22.59 6.07,4.89 10.55,11.84 11.9,19.55 1.8,10.34 -2.5,19.32 -10.32,23.77 4.94,4.71 8.52,10.88 9.7,17.63 1.99,11.42 -3.47,21.18 -12.88,25.02 -0.49,14.14 -1.12,27.12 -1.77,38.51 z"
       id="path54" />
    <path
       class="explorerst20"
       d="m 971.27,1152.98 c 2.49,-26.2 4.54,-55.26 5.51,-84.77 5.38,4.83 9.16,11.47 10.1,18.79 1.31,10.34 -3.41,19.32 -11.44,23.77 4.72,4.71 8.01,10.88 8.86,17.63 1.4,11.01 -4.05,20.47 -13.03,24.58 z m 5.55,-86.21 c 0.41,-12.89 0.61,-25.85 0.56,-38.7 4.29,4.59 7.24,10.43 8.05,16.79 1.15,9.06 -2.33,17.07 -8.61,21.91 z m 0.55,-40.68 c -0.1,-15.07 -0.55,-29.96 -1.46,-44.34 6.66,4.91 11.46,12.39 12.53,20.77 1.3,10.19 -3.27,19.04 -11.07,23.57 z m -1.5,-45.04 c -0.94,-14.79 -2.36,-29.04 -4.34,-42.4 6.67,4.91 11.5,12.4 12.56,20.8 1.12,8.86 -2.19,16.72 -8.22,21.6 z m -4.48,-43.3 c -1.79,-11.92 -0.51,-10.11 -6.81,-33.35 -6.3,-23.24 -19.83,-66.7 -30.44,-87.46 9.65,3.69 18.76,16.21 18.15,24.46 -0.61,8.25 -1.57,9.54 -2.42,12.62 9.54,4.31 16.93,13.51 18.28,24.15 0.83,6.5 -0.73,12.45 -3.99,17.08 7.53,4.84 13.08,12.86 14.24,21.95 1.04,8.25 -1.76,15.64 -7.01,20.55 z M 934.14,816.93 c -7.38,-13.64 -18.08,-26.35 -25.7,-35.83 17.74,5.43 32.48,18.38 25.7,35.83 z"
       id="path55" />
    <path
       class="explorerst15"
       d="m 745.65,1393.56 c 8.52,13.17 13.44,28.66 13.44,45.23 0,6.44 -0.75,12.72 -2.16,18.76 h -182.7 c -1.85,-7.94 4.49,-42.8 7.7,-50.52 7.88,-28.74 31.93,-95.49 49.51,-142.46 l 159.64,26.74 c -15.04,35.43 -30.91,71.73 -45.43,102.25 z"
       id="path56" />
    <path
       class="explorerst16"
       d="m 757.22,1421.25 c 1.23,5.67 1.88,11.53 1.88,17.54 0,6.44 -0.75,12.72 -2.16,18.76 H 574.23 c -1.25,-5.36 1.24,-23.03 3.98,-36.3 z"
       id="path57" />
    <path
       class="explorerst21"
       d="m 855.42,799.17 c -38.51,3.35 -66.37,-6.61 -68.67,-28.73 -1.03,-9.85 0.03,-29.55 0.03,-40.9 0,-7.55 22.96,-13.68 51.29,-13.68 28.32,0 51.28,6.12 51.28,13.68 0,0.71 -0.2,1.4 -0.59,2.08 0.1,12.28 0.7,23.83 -0.41,33.81 -2.35,20.97 -4.47,31.26 -32.93,33.74 z"
       id="path58" />
    <path
       class="explorerst9"
       d="m 986.63,478.58 c 2.66,1.42 4.08,14.27 22.4,54.28 44.12,47.39 158.95,22.61 143.28,-6.58 -7.68,-19.38 -50.32,-63.64 -83.45,-67.18 -33.11,-3.54 -82.23,19.48 -82.23,19.48 z"
       id="path59" />
    <path
       class="explorerst10"
       d="m 975.1,659.91 c 1.7,24.37 74.38,30.69 74.92,-17.36 0.72,-62.97 -77.8,-23.94 -74.92,17.36 z"
       id="path60" />
    <path
       class="explorerst22"
       d="m 975.1,663.33 c 0.47,5.26 6.36,9.43 14.64,11.94 21.27,1.8 47.22,-5.48 47.54,-27.85 0.18,-12.67 -4.9,-20.05 -12.48,-23.48 -22.44,0.37 -51.47,19.54 -49.7,39.39 z"
       id="path61" />
    <path
       class="explorerst10"
       d="m 705.76,691.89 c -99.79,-76.15 -117.55,-252.9 -10.85,-331.17 97.97,-71.89 243.7,-53.01 319.41,41.93 15.01,18.83 27.67,37.88 30.91,61.91 10.63,78.61 -19.54,250.47 -91.27,289.99 -60.23,33.17 -211.22,-34.44 -248.2,-62.66 z"
       id="path62" />
    <path
       class="explorerst23"
       d="m 642.9,633.39 c -49.1,-85.78 -33.76,-209.76 52.01,-272.68 99.2,-72.79 237.12,-62.45 311.99,35.62 -44.68,-23.36 -130.46,-15.77 -183.49,-12.94 -90.2,4.81 -118.8,72.64 -116.44,179.71 2.34,107.08 -48.59,61.48 -64.07,70.29 z"
       id="path63" />
    <path
       class="explorerst24"
       d="m 831.6,536.71 c 20.67,0 37.43,16.53 37.43,36.93 0,20.39 -16.76,36.93 -37.43,36.93 -20.67,0 -37.43,-16.53 -37.43,-36.93 0,-20.4 16.76,-36.93 37.43,-36.93 z"
       id="path64" />
    <path
       class="explorerst12"
       d="m 867.71,559.73 c -7.28,-12.5 -21.66,-21.93 -36.2,-21.96 -5.93,-0.01 -13.02,2.57 -17.78,5.4 -4.92,2.93 -14.57,9.42 -17.31,14.48 9.49,-37.91 65.17,-36.18 71.29,2.08 z"
       id="path65" />
    <path
       class="explorerst23"
       d="m 850.04,560.66 c 9.09,0 16.47,7.59 16.47,16.96 0,9.37 -7.37,16.96 -16.47,16.96 -9.09,0 -16.46,-7.59 -16.46,-16.96 0,-9.36 7.37,-16.96 16.46,-16.96 z"
       id="path66" />
    <path
       class="explorerst24"
       d="m 968.14,539.63 c 13.26,-1.63 23.37,12.55 22.58,31.66 -0.79,19.11 -12.19,35.92 -25.45,37.55 -13.27,1.63 -23.37,-12.55 -22.58,-31.66 0.79,-19.11 12.19,-35.92 25.45,-37.55 z"
       id="path67" />
    <path
       class="explorerst12"
       d="m 988.35,545.59 c -2.33,-4.42 -5.37,-7.86 -8.88,-10.02 -3.28,-2.01 -7.01,-2.9 -11,-2.39 -3.99,0.51 -7.87,2.37 -11.41,5.25 -3.77,3.07 -7.16,7.3 -9.91,12.33 -0.26,-15.15 32.51,-35.18 41.2,-5.17 z"
       id="path68" />
    <path
       class="explorerst12"
       d="m 944.42,561.99 c 2.28,-11.93 12.16,-27.08 25.12,-28.66 12.14,-1.29 18.5,15.25 19.42,19.24 l -2.19,-0.53 c -11.16,-24.88 -38.3,-5.89 -39.84,8.52 z"
       id="path69" />
    <path
       class="explorerst23"
       d="m 973.78,558.67 c 8.21,0.13 14.69,7.64 14.47,16.78 -0.22,9.14 -7.06,16.44 -15.27,16.31 -8.21,-0.13 -14.69,-7.64 -14.47,-16.78 0.22,-9.14 7.06,-16.44 15.27,-16.31 z"
       id="path70" />
    <path
       class="explorerst12"
       d="m 913.39,688.72 c 3.6,3.63 8.32,5.71 13.03,6.83 18.32,4.39 45.07,-4.67 41.25,-27.52 -1.02,-6.07 -3.74,-10.36 -7.38,-13.27 -3.56,-2.84 -8.04,-4.46 -12.71,-5.18 -4.78,-0.74 -9.76,-0.56 -14.17,0.18 -6.04,1.01 -10.81,2.93 -12.31,4.81 11.07,-13.29 31.44,-12.79 42.49,-3.95 4.62,3.7 8.06,9.05 9.31,16.54 5.91,35.32 -50.41,45.99 -59.51,21.56 z"
       id="path71" />
    <path
       class="explorerst23"
       d="m 1042.05,507.11 c 4.01,-10.43 1.78,-34.22 -7.78,-39.84 -9.33,-5.48 -28.98,-7.37 -47.09,-2.22 -48.88,13.91 -56.95,76.07 -39.38,55.87 15.55,-17.88 91.91,-21.99 94.25,-13.81 z"
       id="path72" />
    <path
       class="explorerst23"
       d="m 828.91,522.6 c 32.55,-2.44 58.55,1.91 68.09,-8.24 9.54,-10.15 12.5,-43.56 6.79,-46.78 -4.84,-2.73 -140.73,10.88 -151.41,17.05 -7.58,4.37 -12.3,9.97 -9.67,14.02 9.88,15.22 61.39,25.81 86.2,23.95 z"
       id="path73" />
    <path
       class="explorerst12"
       d="m 832.59,526.1 c 7.96,0 15.45,2.04 21.95,5.61 3.76,2.07 11.42,8.43 14.1,17.01 -3.8,-6.05 -9.13,-11.08 -15.45,-14.56 -6.09,-3.35 -13.12,-5.26 -20.6,-5.26 -8.08,0 -15.63,2.23 -22.04,6.09 -6.64,4 -12.08,9.75 -15.65,16.6 4.25,-16.49 21.96,-25.49 37.69,-25.49 z"
       id="path74" />
    <path
       class="explorerst25"
       d="m 835.5,560.84 c 4.71,0 8.53,3.94 8.53,8.79 0,4.86 -3.82,8.79 -8.53,8.79 -4.72,0 -8.54,-3.94 -8.54,-8.79 0.01,-4.85 3.83,-8.79 8.54,-8.79 z"
       id="path75" />
    <path
       class="explorerst25"
       d="m 961.74,558.5 c 4.66,0.09 8.36,4.06 8.27,8.86 -0.09,4.8 -3.95,8.62 -8.61,8.53 -4.66,-0.09 -8.36,-4.06 -8.27,-8.86 0.1,-4.8 3.95,-8.62 8.61,-8.53 z"
       id="path76" />
    <path
       class="explorerst12"
       d="m 960.89,479.67 c -6.34,8.99 -11.62,14.71 -16.69,29.28 -11.92,34.24 -19.39,103.53 -1.24,136.4 l -4.66,2.56 c -18.98,-34.37 -9.11,-103.47 3.36,-139.29 2.7,-7.77 5.8,-18.7 19.23,-28.95 z"
       id="path77" />
    <path
       class="explorerst26"
       d="m 819.05,591.29 c 12.59,10.15 15.91,26.11 7.43,35.63 -8.48,9.52 -25.56,9.01 -38.15,-1.15 -12.59,-10.15 -15.91,-26.11 -7.43,-35.63 8.49,-9.51 25.57,-9 38.15,1.15 z"
       id="path78" />
    <path
       class="explorerst23"
       d="m 872.33,692.33 c 5.8,0 10.51,4.71 10.51,10.51 0,5.81 -4.71,10.52 -10.51,10.52 -5.81,0 -10.52,-4.71 -10.52,-10.52 0.01,-5.8 4.71,-10.51 10.52,-10.51 z"
       id="path79" />
    <path
       class="explorerst26"
       d="m 984.85,587.78 c -3.28,7.56 -2.22,15.55 2.38,17.84 4.6,2.29 10.99,-1.99 14.27,-9.55 3.28,-7.56 2.22,-15.55 -2.38,-17.83 -4.59,-2.3 -10.98,1.98 -14.27,9.54 z"
       id="path80" />
    <path
       class="explorerst12"
       d="m 782.73,580.15 c 0.05,-0.01 18.89,-1.94 36.09,11.19 17.25,13.16 17.52,26.69 17.53,26.71 -3,-2.5 -10.64,-14.4 -23.13,-23.93 -15.81,-12.06 -20.18,-9.68 -30.49,-13.97 z"
       id="path81" />
    <path
       class="explorerst12"
       d="m 995.87,577.64 c -13.62,12.2 -10.91,25.97 -10.9,26 -6.55,-6.11 -0.1,-26.85 10.9,-26 z"
       id="path82" />
    <path
       class="explorerst12"
       d="m 862.41,699.83 c 3.41,-10.21 14.77,-13 24.41,-4.99 -1.56,-1.01 -6.26,-1.95 -8.16,-1.85 -8.99,0.5 -11.47,8.4 -11.47,8.42 z"
       id="path83" />
    <path
       class="explorerst12"
       d="m 889.07,707.94 c 2.68,1.37 4.62,4.12 5.52,7.25 0.61,2.09 0.77,4.37 0.38,6.52 -0.4,2.26 -1.39,4.41 -3.07,6.12 -4.23,4.32 -13.86,3.39 -14.33,-3.42 0.63,0.42 1.41,0.84 2.34,1.14 0.92,0.3 1.97,0.49 3.15,0.45 9.49,-0.3 10.95,-11.01 6.01,-18.06 z"
       id="path84" />
    <path
       class="explorerst23"
       d="m 673.67,611.8 c 29.72,45.77 -1.27,45.4 8.9,55.93 10.17,10.53 37.25,32.72 42.3,27.39 1.93,-2.04 1.56,-8.78 0.31,-17.68 -4.59,-32.58 -30,-88 -12.52,-193.27 1.44,-8.66 -21.22,-17.74 -27.08,-17.73 -35.01,0.08 -25.53,124.38 -11.91,145.36 z"
       id="path85" />
    <path
       class="explorerst10"
       d="m 686.69,653.99 c -2.25,32.12 -98.03,40.45 -98.75,-22.88 -0.94,-83.01 102.56,-31.57 98.75,22.88 z"
       id="path86" />
    <path
       class="explorerst27"
       d="m 923.06,364.24 c 46.1,3.36 88.8,31.35 83.76,33.56 -5.04,2.21 -41.28,19.4 -87.38,16.05 -46.1,-3.36 -102.73,-26.68 -123.15,-26.72 -20.41,-0.04 80.67,-26.24 126.77,-22.89 z"
       id="path87" />
    <path
       class="explorerst22"
       d="m 665.96,653.27 c -1.36,19.47 -59.44,24.53 -59.88,-13.87 -0.57,-50.34 62.19,-19.15 59.88,13.87 z"
       id="path88" />
    <path
       class="explorerst28"
       d="m 665.96,653.27 c -0.24,3.48 -2.31,6.5 -5.52,8.89 -13.29,-2.22 -25.42,-10.69 -25.62,-28.16 -0.09,-7.96 1.41,-13.87 3.98,-18.07 14.57,6.27 28.26,21.59 27.16,37.34 z"
       id="path89" />
    <path
       class="explorerst12"
       d="m 924.66,642.04 c 7.15,-1.76 12.3,1.17 15.8,3.67 -4.41,-2.16 -10.31,-2.31 -15.2,-1.11 -4.93,1.21 -9.17,3.83 -10.75,7.64 0.9,-3.5 3.29,-8.51 10.15,-10.2 z"
       id="path90" />
    <path
       class="explorerst23"
       d="m 930.03,776.97 c -11.74,-3.22 -19.16,-21.28 -19.16,-21.28 l 10.17,-3.09 -3.97,-19.51 20.53,6.17 10.27,-18.39 9.71,19.28 8.53,-9.81 c 0,0 2.73,17.25 1.29,27.42 -2.36,16.54 -24.81,22.66 -37.37,19.21 z"
       id="path91" />
    <path
       class="explorerst9"
       d="m 615.76,542.61 c -8.6,-102.04 3.52,-157.96 16.18,-188.93 71.92,-117.72 274.88,-139.79 354.6,-71.04 18.69,16.12 50.91,128.69 51.2,156.18 C 900.38,411.76 718.63,424.29 615.76,542.61 Z"
       id="path92" />
    <path
       class="explorerst9"
       d="m 993.3,277.33 c 18.58,16.03 45.72,131.26 50.37,167.63 -82.5,-29.87 -246.54,-19.41 -346.8,31.41 0.17,-67.56 5.03,-182.08 35.98,-202.61 60.85,-49.37 211.03,-39.06 260.45,3.57 z"
       id="path93" />
    <path
       class="explorerst29"
       d="m 909.83,274.08 c 33.64,0 60.91,27.27 60.91,60.91 0,33.64 -27.27,60.91 -60.91,60.91 -33.64,0 -60.91,-27.27 -60.91,-60.91 0,-33.64 27.27,-60.91 60.91,-60.91 z"
       id="path94" />
    <path
       class="explorerst14"
       d="m 666.66,496.5 c 4.27,50 39.02,64.08 69.49,61.38 28.22,-2.5 51.86,-23.06 79.25,-45.25 73.86,-59.85 169.07,-81.33 259.53,-45.95 31.03,12.14 52.68,31.03 71.47,53.56 14.12,16.94 7.07,6.55 -0.4,-5.09 C 1044.14,356.1 749.04,420.2 666.66,496.5 Z"
       id="path95" />
    <path
       class="explorerst19"
       d="m 797.87,1183.83 c -43.62,-5.54 -89.53,-13.07 -137.05,-21.99 5.48,-14.24 12.55,-30.39 20.07,-48.1 -7.44,-3.85 -12.53,-11.62 -12.53,-20.58 0,-12.8 10.37,-23.17 23.17,-23.17 2.33,0 4.58,0.35 6.71,0.99 l 0.26,-0.69 c -8.49,-3.44 -14.48,-11.76 -14.48,-21.49 0,-12.8 10.37,-23.17 23.17,-23.17 5.65,0 2.47,0.47 -1.7,-1.95 -6.95,-4.03 -11.15,-11.44 -11.04,-19.9 0.14,-10.39 10.37,-23.17 23.17,-23.17 0.92,0 1.84,0.06 2.74,0.16 -8.32,-3.51 -14.16,-11.75 -14.16,-21.35 0,-11.02 7.69,-20.24 17.99,-22.59 -9.97,-2.58 -17.34,-11.64 -17.34,-22.43 0,-9.31 5.49,-17.34 13.42,-21.02 -12.47,-0.38 -22.46,-10.6 -22.46,-23.16 0,-8.01 4.07,-15.08 10.25,-19.24 h -0.13 c -12.8,0 -23.17,-10.37 -23.17,-23.17 0,-11.68 8.64,-21.34 19.87,-22.93 -12.14,-47.26 138.9,-50.11 103.36,5.79 10.44,3.65 17.94,13.58 17.94,25.27 0,3.53 -0.68,6.89 -1.92,9.98 9,4.31 15.22,13.5 15.22,24.15 0,6.5 -2.31,12.45 -6.16,17.08 6.92,4.84 11.45,12.86 11.45,21.95 0,8.51 -3.97,16.09 -10.17,21 6.38,4.89 10.5,12.59 10.5,21.25 0,9.09 -4.53,17.11 -11.45,21.95 6.29,4.9 10.33,12.54 10.33,21.13 0,10.73 -6.32,19.98 -15.43,24.25 4.37,4.76 7.04,11.11 7.04,18.09 0,9.5 -4.95,17.84 -12.41,22.59 5.22,4.88 8.49,11.84 8.49,19.55 0,10.35 -5.87,19.32 -14.46,23.77 4.13,4.71 6.63,10.88 6.63,17.63 0,11.42 -7.16,21.18 -17.24,25.02 -2.95,14.13 -5.84,27.11 -8.48,38.5 z"
       id="path96" />
    <path
       class="explorerst20"
       d="m 727.91,1173.64 c -21.94,-3.53 -44.33,-7.45 -67.08,-11.69 5.48,-14.12 -5.78,-32.04 1.74,-49.6 -25.46,-13.07 -6.16,-43.36 10.64,-43.36 7.56,0 4.58,0.34 6.71,0.98 l 0.26,-0.69 c -24.91,-9.99 -14.68,-44.25 8.69,-44.25 5.65,0 2.47,0.46 -1.7,-1.93 -33.36,-19.16 -11.77,-43.6 4.22,-43.6 6.86,0 1.84,0.06 2.74,0.16 -21.22,-8.88 -17.27,-38.77 3.83,-43.55 -20.28,-5.21 -24.11,-33.76 -3.93,-43.06 -20.01,-0.6 -32.2,-28.68 -12.21,-42.01 h -0.13 c -12.79,0.13 -15.26,-9.91 -15.26,-22.04 0,-12.13 14.04,-23.28 25.27,-24.87 -4.55,-18.23 13.46,-35.47 35.83,-25.53 13.1,6.56 18.93,17.86 8.41,34.25 10.45,3.61 17.94,13.46 17.94,25.05 0,3.49 -0.68,6.83 -1.92,9.88 9,4.27 15.22,13.38 15.22,23.93 0,6.44 -2.31,12.34 -6.16,16.93 6.92,4.8 11.45,12.75 11.45,21.75 0,8.43 -3.97,15.95 -10.17,20.81 6.38,4.85 10.49,12.48 10.49,21.06 0,9 -4.53,16.96 -11.45,21.76 6.29,4.85 10.33,12.43 10.33,20.94 0,10.64 -6.31,19.81 -15.43,24.04 4.37,4.72 7.04,11.01 7.04,17.92 0,9.41 -4.95,17.68 -12.41,22.39 5.22,4.84 8.49,11.73 8.49,19.38 0,10.25 -5.87,19.14 -14.46,23.56 4.12,4.67 6.63,10.78 6.63,17.47 0,11.32 -7.16,20.99 -17.24,24.79 -2.18,10.39 -4.34,20.16 -6.38,29.13 z"
       id="path97" />
    <polygon
       class="explorerst12"
       points="744.84,1100.49 817.21,1101.37 816.71,1103.98 "
       id="polygon97" />
    <polygon
       class="explorerst12"
       points="734.85,1140.47 807.8,1144.03 807.29,1146.64 "
       id="polygon98" />
    <polygon
       class="explorerst12"
       points="750.88,1058.26 825.8,1059 825.3,1061.61 "
       id="polygon99" />
    <polygon
       class="explorerst12"
       points="756.25,1017.59 829.79,1017.54 829.29,1020.15 "
       id="polygon100" />
    <polygon
       class="explorerst12"
       points="761.35,972.21 835.1,972.88 834.82,975.52 "
       id="polygon101" />
    <polygon
       class="explorerst12"
       points="762.31,929.01 835,927.92 834.83,930.57 "
       id="polygon102" />
    <polygon
       class="explorerst12"
       points="761.03,886.07 834.04,886.1 834.04,888.75 "
       id="polygon103" />
    <polygon
       class="explorerst12"
       points="753.37,843.8 824.79,845.83 824.79,848.49 "
       id="polygon104" />
    <polygon
       class="explorerst12"
       points="737.91,808.44 809.53,810.47 809.53,813.13 "
       id="polygon105" />
    <polygon
       class="explorerst12"
       points="929.27,815.95 973.58,822.23 973.58,824.88 "
       id="polygon106" />
    <polygon
       class="explorerst12"
       points="948.81,851.94 995.3,857.03 995.3,859.68 "
       id="polygon107" />
    <polygon
       class="explorerst12"
       points="964.76,894.34 1009.7,897.74 1009.7,900.39 "
       id="polygon108" />
    <polygon
       class="explorerst12"
       points="971.39,937.75 1018.79,940.87 1018.79,943.53 "
       id="polygon109" />
    <polygon
       class="explorerst12"
       points="978.05,981.06 1025.89,983.55 1025.89,986.2 "
       id="polygon110" />
    <polygon
       class="explorerst12"
       points="979.51,1027.31 1028.85,1028.95 1028.85,1031.6 "
       id="polygon111" />
    <polygon
       class="explorerst12"
       points="979.32,1068.42 1029.52,1068.56 1029.52,1071.21 "
       id="polygon112" />
    <polygon
       class="explorerst12"
       points="979.9,1112.42 1030.76,1112.56 1030.76,1115.21 "
       id="polygon113" />
    <polygon
       class="explorerst12"
       points="973.9,1154.61 1030.11,1154.75 1030.11,1157.4 "
       id="polygon114" />
    <path
       class="explorerst9"
       d="m 715.98,1117.7 c 0,0 12.57,-1.24 13.59,11.49 1.01,12.73 -19.83,21.22 -33.2,16.64 -13.36,-4.59 -7.35,-11.24 -0.76,-21.32 6.59,-10.09 20.37,-6.81 20.37,-6.81 z"
       id="path114" />
    <path
       class="explorerst9"
       d="m 721.93,1087.45 c 0,0 20.4,8.31 23.96,17.54 3.56,9.23 -8.55,26.87 -26.06,23.44 -17.52,-3.43 2.1,-40.98 2.1,-40.98 z"
       id="path115" />
    <path
       class="explorerst9"
       d="m 718.39,1058.27 c 0,0 27.12,11.21 33.26,22.63 6.14,11.43 -11.62,21.41 -24.06,17.18 -12.44,-4.23 -9.2,-39.81 -9.2,-39.81 z"
       id="path116" />
    <path
       class="explorerst9"
       d="m 692.1,1131.19 c 1.47,5.2 4.56,20.1 -3.07,20.89 -7.63,0.79 -30.57,-17.96 -32.29,-23.06 -1.72,-5.1 29.09,-14.7 33.54,-7.21 4.45,7.5 1.82,9.38 1.82,9.38 z"
       id="path117" />
    <path
       class="explorerst10"
       d="m 705.05,812.53 c 22.58,-3.67 43.46,88.44 21.24,121.21 -3.51,5.17 -48.11,13.54 -48.11,13.54 0,0 81.51,98.34 59.81,162.61 -8.49,43.73 -69.95,44.53 -121.32,9.87 -51.38,-34.66 -88.37,-89.15 -88.72,-152.89 -0.39,-71.52 106.71,-146.01 177.1,-154.34 z"
       id="path118" />
    <path
       class="explorerst9"
       d="m 733.74,1043.7 c 7.74,22.7 11.04,46.1 4.26,66.18 -8.34,42.92 -67.7,44.48 -118.48,11.74 21.12,1.3 50.65,-3.19 75.38,-27.27 19.22,-18.71 31.34,-36.68 38.84,-50.65 z"
       id="path119" />
    <path
       class="explorerst30"
       d="m 705.05,812.53 c 22.58,-3.67 43.46,88.44 21.24,121.21 -3.51,5.17 -48.11,13.54 -48.11,13.54 0,0 1.92,2.32 5.08,6.46 l -27.32,-32.22 c 0,0 -3.74,-50.84 -44.66,-71.06 30.92,-20.4 65.34,-34.56 93.77,-37.93 z"
       id="path120" />
    <path
       class="explorerst12"
       d="m 616.19,891.87 1.62,0.88 c 7.15,3.82 32.39,17.33 45.22,32.3 14.4,16.8 18.52,22.81 18.53,22.83 l -4.37,3.02 c -0.01,-0.02 -5.38,-6.32 -19.62,-22.93 -17.61,-20.56 -33.23,-27.34 -41.38,-36.1 z"
       id="path121" />
    <path
       class="explorerst31"
       d="m 666.31,833.69 c 14.89,-4.75 28.92,-2.45 31.33,5.12 2.41,7.58 -7.7,17.57 -22.59,22.31 -14.89,4.75 -28.92,2.45 -31.34,-5.12 -2.4,-7.57 7.71,-17.56 22.6,-22.31 z"
       id="path122" />
    <path
       class="explorerst12"
       d="m 750.31,1396.14 -4.24,3.2 c -23.4,-31.04 -80.54,-35.7 -124.05,-21.87 20.67,-17.2 105.98,-23.15 128.29,18.67 z"
       id="path123" />
    <path
       class="explorerst32"
       d="m 1006.47,1421.25 c 0,0 -6.88,-23.66 -33.86,-42.03 C 945.63,1360.85 933.58,1362 933.58,1362 l 12.59,-73.95 m -335.05,133.2 c 3.7,-22 15.89,-47.09 48.67,-55.91 l 30.8,-90.85 m 51.21,146.2 c 4.56,-16.93 -14.95,-46.09 -33.64,-52.73 l 31.85,-85.2"
       id="path124" />
  </g>
</svg>
