<svg version="1.1" id="Camada_1" x="0" y="0" xml:space="preserve" width="82.885" height="155.078" xmlns="http://www.w3.org/2000/svg">
    <style type="text/css" id="style1">
        .st4,.st5,.st6,.st7{fill-rule:evenodd;clip-rule:evenodd;fill:#544333}.st5,.st6,.st7{fill:#715a44}.st6,.st7{fill:#462910}.st7{fill:#2c2515}.st8{fill:#d7b88a}.st10,.st8,.st9{fill-rule:evenodd;clip-rule:evenodd}.st9{fill:#fff;stroke:#000;stroke-width:1.8289;stroke-miterlimit:22.9256}.st10{fill:#8c7870}.st11{fill:#824c20}.st11,.st12,.st13{fill-rule:evenodd;clip-rule:evenodd}.st12{fill:#fff;stroke:#000;stroke-width:1.2589;stroke-miterlimit:22.9256}.st13{fill:#50493a}.st14,.st15,.st16,.st20,.st21,.st22{fill-rule:evenodd;clip-rule:evenodd;fill:#fff}.st15,.st16,.st20,.st21,.st22{fill:#b57131}.st16,.st20,.st21,.st22{fill:#34200e}.st20,.st21,.st22{fill:#dd9f49}.st21,.st22{fill:#ba4227}.st22{fill:#bd9a67}
    </style>
    <g id="warrior" transform="matrix(.22479 0 0 .22479 -44.625 -19.494)">
        <path d="M261.74 152.33c0 21.5-14.15 38.93-31.61 38.93s-31.61-17.43-31.61-38.93c0-18.87 21.57-48.22 31.61-65.61 10.03 17.39 31.61 46.74 31.61 65.61z" id="path26" style="fill-rule:evenodd;clip-rule:evenodd;fill:#bcbec0"/>
        <path class="st4" d="m318.68 601.91-29.15 64.38a3.783 3.783 0 0 0 1.87 4.98l7.05 3.19c1.88.85 4.12.01 4.98-1.87l29.15-64.38c.85-1.88.01-4.12-1.87-4.98l-7.05-3.19a3.768 3.768 0 0 0-4.98 1.87z" id="path27"/>
        <path class="st5" d="m318.68 601.91-29.15 64.38c-.22.48-.33.99-.33 1.49l5.73 2.59c1.78.81 3.89.01 4.7-1.77l27.52-60.77c.81-1.78.01-3.89-1.77-4.7l-5.66-2.56c-.44.35-.8.8-1.04 1.34z" id="path28"/>
        <path transform="rotate(-65.639 329.849 645.18)" class="st6" id="rect28" d="M309.48 632.41h40.8v25.61h-40.8z"/>
        <path class="st7" d="M484.56 492.89c1.72 32.18 9.49 124.69 36.19 123.21 28.46-1.57-7.27-101.31-22.64-126.34-7.99-13.02-14.3-10.84-13.55 3.13z" id="path30"/>
        <path class="st7" d="M336.8 492.89c-1.72 32.18-9.49 124.69-36.19 123.21-28.46-1.57 7.27-101.31 22.64-126.34 8-13.02 14.3-10.84 13.55 3.13z" id="path31"/>
        <path class="st7" d="M502.69 432.46c1.72 32.18 9.49 124.69 36.19 123.21 28.46-1.57-7.27-101.31-22.64-126.34-8-13.02-14.3-10.84-13.55 3.13z" id="path32"/>
        <path class="st7" d="M318.67 432.46c-1.72 32.18-9.49 124.69-36.19 123.21-28.46-1.57 7.27-101.31 22.64-126.34 8-13.02 14.3-10.84 13.55 3.13z" id="path33"/>
        <path class="st7" d="M490.18 370.2c10.29 30.54 42.58 117.58 67.91 108.99 27-9.15-34.18-95.65-55.7-115.64-11.2-10.4-16.68-6.61-12.21 6.65z" id="path34"/>
        <path class="st7" d="M331.18 370.2c-10.29 30.54-42.58 117.58-67.91 108.99-26.99-9.15 34.18-95.65 55.7-115.64 11.2-10.4 16.68-6.61 12.21 6.65z" id="path35"/>
        <path class="st8" d="M514.65 428.59c-11.22.24-20.16 7.47-19.98 16.15.18 8.68 9.43 15.53 20.64 15.29 11.22-.24 20.16-7.47 19.98-16.15-.18-8.68-9.43-15.53-20.64-15.29z" id="path36"/>
        <path class="st8" d="M305.71 428.59c11.22.24 20.16 7.47 19.98 16.15-.18 8.68-9.43 15.53-20.64 15.29-11.22-.24-20.16-7.47-19.98-16.15.18-8.68 9.42-15.53 20.64-15.29z" id="path37"/>
        <path class="st9" d="M507.33 435.98c-7.09.15-12.76 3.86-12.67 8.29.09 4.43 5.92 7.9 13.01 7.75 7.09-.15 12.76-3.86 12.67-8.29-.1-4.43-5.92-7.9-13.01-7.75z" id="path38"/>
        <path class="st9" d="M313.03 435.98c7.09.15 12.76 3.86 12.67 8.29-.09 4.43-5.92 7.9-13.01 7.75-7.09-.15-12.76-3.86-12.67-8.29.09-4.43 5.91-7.9 13.01-7.75z" id="path39"/>
        <path class="st8" d="M486.04 555.82c19.98 25.08 27.17 41.15 42.57 58.13 15.4 16.99 26.11 37.25 17.57 54.03-8.53 16.78-38.11 32.52-56.98 13.75-18.87-18.77-20.38-54.19-29.58-70.93-12.93-23.52-17.03-54.26-17.16-80.82 7.64-.03 25.5 3.15 43.58 25.84z" id="path40"/>
        <path class="st10" d="M530.18 620.71c3.33 0 6.05-2.72 6.05-6.05 0-3.33-2.72-6.05-6.05-6.05-3.33 0-6.05 2.72-6.05 6.05 0 3.33 2.71 6.05 6.05 6.05z" id="path41"/>
        <path class="st6" d="M520.63 604.39c2.46 3.2 5.07 6.37 7.97 9.57 15.4 16.99 26.11 37.25 17.57 54.03-8.53 16.78-38.11 32.52-56.98 13.75-10.31-10.25-15.44-25.47-19.47-39.9z" id="path42"/>
        <path class="st8" d="M537.88 625.5c9.89 14.14 14.97 29.38 8.3 42.49-8.53 16.78-38.11 32.52-56.98 13.75-3.87-3.85-7.01-8.39-9.63-13.33z" id="path43"/>
        <path class="st8" d="M358.7 522.56c-30.22-4.4-56.52 2.02-78.95-2.73-22.44-4.75-45.33-3.79-55.52 12.04-10.19 15.82-11.44 46.47 16.83 56.15 73.48 25.15 138.99-5.4 154.63-36.08 3.45-6.81-6.77-24.98-36.99-29.38z" id="path44"/>
        <path class="st10" d="M280.89 602.79c3.33 0 6.05-2.72 6.05-6.05 0-3.33-2.72-6.05-6.05-6.05-3.33 0-6.05 2.72-6.05 6.05 0 3.33 2.72 6.05 6.05 6.05z" id="path45"/>
        <path class="st10" d="M280.89 526.68c3.33 0 6.05-2.72 6.05-6.05 0-3.33-2.72-6.05-6.05-6.05-3.33 0-6.05 2.72-6.05 6.05 0 3.33 2.72 6.05 6.05 6.05z" id="path46"/>
        <path class="st6" d="M292.38 521.44c-4.34-.26-8.55-.75-12.64-1.61-22.44-4.75-45.33-3.79-55.52 12.04-10.19 15.82-11.44 46.47 16.83 56.15 17.78 6.08 35.08 8.9 51.33 9.25z" id="path47"/>
        <path class="st8" d="M266.76 517.78c-17.84-1.77-34.32 1.32-42.54 14.08-10.19 15.82-11.44 46.47 16.83 56.15 8.71 2.98 17.3 5.18 25.71 6.68z" id="path48"/>
        <path class="st11" d="M417.25 524.83h-12.03c-37.59 0-59.94 31.71-68.34 68.34l-14.86 64.74c-8.41 36.64 45.61 48.9 83.2 48.9h12.03c37.59 0 92.35-9.43 83.91-46.06l-15.57-67.59c-8.44-36.61-30.75-68.33-68.34-68.33z" id="path49"/>
        <path class="st6" d="m491.62 619.34-64.12 86.71c-.24.32 22.42 70.57 26.01 70.54l65.19-.51s-8.66-80.98-16.81-112.55c-7.68-32.92-10.27-44.19-10.27-44.19z" id="path50"/>
        <path class="st6" d="M433.92 726.26c6.92 20.85 17.26 50.35 19.58 50.33l65.19-.51s-2.49-23.33-6.07-49.82z" id="path51"/>
        <path class="st11" d="M428.18 724.7c2.62 7.89 5.67 16.87 8.67 25.34h84.37c-.95-7.73-2.05-16.37-3.26-25.34z" id="path52"/>
        <path class="st6" d="M534.48 775.58s-10.8-10.68-17.88-17.82c-7.08-7.14-31.53 3.05-42.73 8.65-11.2 5.6-20.37 10.19-20.37 10.19l65.19-.51z" id="path53"/>
        <path class="st6" d="m330.76 619.84 64.14 86.21c-3.75 13.8-22.53 65.01-26.01 70.54l-65.19-.51s8.66-80.98 16.81-112.55c8.14-31.57 10.25-43.69 10.25-43.69z" id="path54"/>
        <path class="st6" d="M388.3 726.26c-7.03 20.15-16.98 46.46-19.42 50.33l-65.19-.51s2.49-23.33 6.07-49.82z" id="path55"/>
        <path class="st11" d="M393.89 724.74c-2.8 8.03-6.01 16.91-9.11 25.26h-83.45c.95-7.7 2.04-16.32 3.25-25.26z" id="path56"/>
        <path class="st6" d="M287.91 775.58s10.8-10.68 17.88-17.82c7.08-7.14 31.53 3.05 42.73 8.65 11.2 5.6 20.37 10.19 20.37 10.19l-65.19-.51z" id="path57"/>
        <path class="st12" d="M411.71 499.81h-6.21c-11.41 0-20.75 9.34-20.75 20.75v8.33c0 27.96 47.71 27.96 47.71 0v-8.33c0-11.41-9.34-20.75-20.75-20.75z" id="path58"/>
        <path class="st8" d="M417.25 290.88h-17.03c-50.82 0-92.41 41.58-92.41 92.41v45.39c0 50.82 41.58 92.41 92.41 92.41h17.03c50.82 0 92.41-41.58 92.41-92.41v-45.39c-.01-50.83-41.59-92.41-92.41-92.41z" id="path59"/>
        <path class="st13" d="M417.25 290.88h-17.03c-50.82 0-92.41 41.58-92.41 92.41v45.39c0 12.28 2.44 24.03 6.84 34.77.5-10.65-.14-26.89-.17-48.94-.07-53.13 17.49-108.09 83.89-113 66.39-4.92 92.21 37.84 98.97 66.12 6.76 28.28 4.3 73.77 4.3 73.77s3.5-5.44 8.02-14.58v-43.53c-.01-50.83-41.59-92.41-92.41-92.41z" id="path60"/>
        <path class="st6" d="m394.5 704.97-6.67.09-52.43-72.13s-5.62-2.94-3.94-9.59c.45-1.8 1.02-8.87 3.1-10.2 9.71-6.25 57.92 68.49 66.46 79.48 8.55 10.99-6.52 12.35-6.52 12.35z" id="path61"/>
        <path class="st6" d="m428.08 704.97 6.67.09 52.43-72.13s5.62-2.94 3.94-9.59c-.45-1.8-1.02-8.87-3.1-10.2-9.71-6.25-57.92 68.49-66.46 79.48-8.55 10.99 6.52 12.35 6.52 12.35z" id="path62"/>
        <path class="st14" d="M469.25 396.23s3.41-18.59-14.75-26.32c-33.89-14.42-48.98 30.07-19.14 33.43 20.29 2.28 33.89-7.11 33.89-7.11z" id="path63"/>
        <path class="st15" d="M417.25 524.83h-12.03c-37.59 0-59.94 31.71-68.34 68.34l-14.86 64.74c-.09.39-.17.77-.24 1.15h178.99l-15.18-65.89c-8.44-36.62-30.75-68.34-68.34-68.34z" id="path64"/>
        <path class="st12" id="rect64" d="M385.95 512.98h45.14v54.08h-45.14z"/>
        <path class="st16" d="M504.92 757.35s-12.38 2.02-26.71 6.98c-14.33 4.96 17.08-9.79 16.28-9.89-.8-.1-22.38 4.92-31.11 10.94s-10.42 7.56-9.63 9.13c.78 1.57 4.31 1 7.02.6s38.93-9.53 41.95-12.44c3-2.91 2.2-5.32 2.2-5.32z" id="path65"/>
        <path class="st16" d="M316.43 757.25s12.38 2.02 26.71 6.98c14.33 4.96-17.08-9.79-16.28-9.89.8-.1 22.38 4.92 31.11 10.94s10.42 7.56 9.63 9.13c-.78 1.57-4.31 1-7.02.6s-38.93-9.53-41.95-12.44c-3.01-2.91-2.2-5.32-2.2-5.32z" id="path66"/>
        <path class="st13" d="M307.81 416.89a245.55 245.55 0 0 0-4.08 19.13c-.24-.02-.49-.02-.74-.02-6.63 0-12 5.37-12 12 0 3.69 1.66 6.98 4.28 9.18a11.985 11.985 0 0 0-5.29 9.95c0 3.56 1.55 6.75 4.01 8.95a11.982 11.982 0 0 0-4.94 9.7c0 4.23 2.19 7.94 5.49 10.08a11.941 11.941 0 0 0-3.16 8.11c0 4.89 2.92 9.09 7.11 10.96a11.967 11.967 0 0 0-2.03 6.68c0 5.37 3.53 9.92 8.4 11.45-.05.43-.07.87-.07 1.31 0 6.31 4.88 11.49 11.07 11.96a11.98 11.98 0 0 0-1.74 6.23c0 6.62 5.37 12 12 12 .92 0 1.82-.1 2.68-.3-.14.74-.22 1.51-.22 2.29 0 5.89 4.25 10.8 9.86 11.81-.04.41-.06.83-.06 1.25 0 6.62 5.37 12 12 12 .62 0 1.23-.05 1.83-.14 1.11 6.97 7.15 12.3 14.44 12.3 2.23 0 4.35-.5 6.25-1.4 2 5.7 7.42 9.79 13.81 9.79 4.25 0 8.08-1.82 10.75-4.71 2.68 3.17 6.69 5.18 11.16 5.18 6.61 0 12.2-4.39 14.01-10.42 2.09 1.76 4.79 2.83 7.74 2.83 4.73 0 8.82-2.74 10.78-6.72 1.54.72 3.26 1.13 5.08 1.13 6.46 0 11.73-5.11 11.99-11.52 1.81 1.09 3.93 1.72 6.2 1.72 6.62 0 12-5.37 12-12 0-.7-.06-1.39-.18-2.06.41.04.83.06 1.25.06 6.62 0 12-5.37 12-12 0-1.64-.33-3.2-.92-4.63.45.05.91.08 1.37.08 6.63 0 12-5.37 12-12 0-2.26-.62-4.37-1.71-6.18.43.05.86.07 1.3.07 6.63 0 12-5.37 12-12 0-3.27-1.31-6.24-3.43-8.4 4.97-1.47 8.6-6.06 8.6-11.51 0-5.01-3.07-9.3-7.43-11.1h.24c6.62 0 12-5.37 12-12 0-5.45-3.63-10.05-8.61-11.51 4.68-1.64 8.03-6.09 8.03-11.32 0-3.69-1.67-6.99-4.29-9.19a11.96 11.96 0 0 0 4.8-9.6c0-6.39-4.99-11.6-11.28-11.97-.65-5.05-1.46-10.22-2.44-15.52l-17.89 25.97c-58.03-33.09-120.55-36.47-178.57-7.16Z" id="path67"/>
        <path d="M475.27 461.08c-35.19-22.95-79.04-35.22-136.5-30.71 0 0-6.18 52.33 25.48 76.76 31.66 24.43 74.73 11.19 90.56-2.23 15.83-13.42 20.46-43.82 20.46-43.82z" id="path68" style="fill-rule:evenodd;clip-rule:evenodd;fill:#302616"/>
        <path class="st14" d="M474.17 460.37c-34.35-22.08-76.93-34.01-132.24-30.23 1.98 11.71 9.27 23.06 20.45 32.18-7.58 2-14.47 5.04-20.3 9 3.5 13.02 10.07 26.45 22.18 35.8 31.66 24.43 74.73 11.19 90.56-2.23 1.72-1.46 3.3-3.11 4.76-4.91-3.58-7.45-9.28-14.47-16.68-20.51 13.12-3.45 24.19-10.05 31.27-19.1z" id="path69"/>
        <path id="line69" style="fill-rule:evenodd;clip-rule:evenodd;fill:none;stroke:#e6e7e8;stroke-width:1.26;stroke-linecap:round;stroke-linejoin:round;stroke-miterlimit:22.9256" d="m442.9 479.48-80.53-17.16"/>
        <path d="M406.82 420.81c7.65 0 13.89-3.33 13.89-7.4 0-4.08-6.24-7.4-13.89-7.4s-13.89 3.33-13.89 7.4c-.01 4.07 6.24 7.4 13.89 7.4z" id="path70" style="fill-rule:evenodd;clip-rule:evenodd;fill:#da968a"/>
        <path class="st14" d="M368.08 395.56c1.88 0 3.41-1.53 3.41-3.41 0-1.88-1.53-3.41-3.41-3.41-1.88 0-3.41 1.53-3.41 3.41a3.42 3.42 0 0 0 3.41 3.41z" id="path71"/>
        <path class="st12" d="M363.81 304.68c6.59 8.36 24.52 14.36 45.6 14.36 20.06 0 37.27-5.43 44.57-13.16-8-3.39-22.08-7.46-44.57-8.29-20.92-.76-35.99 3.18-45.6 7.09z" id="path72"/>
        <path class="st7" d="M465.19 310c23.05 2.52 89.63 7.79 91.7-11.34 2.2-20.39-72.78-6.64-92.34 1.36-10.18 4.15-9.36 8.88.64 9.98z" id="path73"/>
        <path class="st7" d="M356.17 310c-23.05 2.52-89.63 7.79-91.7-11.34-2.2-20.39 72.78-6.64 92.34 1.36 10.18 4.15 9.36 8.88-.64 9.98z" id="path74"/>
        <path class="st7" d="M478.99 320.43c19.5 12.55 76.73 46.98 87.12 30.78 11.07-17.26-62.16-38.43-83.24-40-10.96-.82-12.35 3.77-3.88 9.22z" id="path75"/>
        <path class="st7" d="M342.37 320.43c-19.5 12.55-76.73 46.98-87.12 30.78-11.07-17.26 62.16-38.43 83.24-40 10.97-.82 12.35 3.77 3.88 9.22z" id="path76"/>
        <path class="st7" d="M489.38 335.33c11.42 20.18 46.04 77.3 62.78 67.79 17.83-10.13-37.13-62.94-55.05-74.15-9.32-5.83-12.69-2.4-7.73 6.36z" id="path77"/>
        <path class="st7" d="M331.98 335.33c-11.42 20.18-46.04 77.3-62.78 67.79-17.83-10.13 37.13-62.94 55.05-74.15 9.33-5.83 12.69-2.4 7.73 6.36z" id="path78"/>
        <g id="g85">
            <path class="st20" d="M497.46 343.06c-29.28-182.6-125.59-220.41-173.74-59.05-5.76 19.3-9.68 40.46-15.48 59.05z" id="path79"/>
            <path class="st15" d="M427.45 189.32c-4.01-2.47-8.08-4.31-12.18-5.53 9.87 19.34 16.68 60.27 16.68 107.64 0 18.49-1.04 36-2.89 51.63h25.3c.55-8.39.84-17.04.84-25.86 0-55.14-11.21-103.12-27.75-127.88zm-38.29-4.7c-5.29 1.93-10.53 4.96-15.68 9.1-15.03 25.78-25.02 71.45-25.02 123.49 0 8.83.29 17.47.84 25.86h26.48c-1.85-15.63-2.89-33.14-2.89-51.63 0-46.72 6.62-87.16 16.27-106.82z" id="path80"/>
            <path class="st15" d="M511.63 353.17c-5.26-32.84-12.48-61.44-21.1-85.63H324.45c-2.23 6.29-4.39 12.86-6.46 19.81-6.42 21.51-12.24 44.52-17.25 65.81h210.89z" id="path81"/>
            <path class="st20" d="M510.35 345.48c-.5-2.88-1.01-5.72-1.54-8.53H304.64c-.7 2.86-1.39 5.71-2.07 8.53zm-3.72-19.54c-.6-2.88-1.22-5.72-1.85-8.53H309.6c-.75 2.84-1.48 5.69-2.21 8.53zm-4.47-19.55c-.72-2.89-1.46-5.73-2.21-8.53H314.93c-.8 2.83-1.6 5.67-2.38 8.53zm-5.33-19.55c-.86-2.9-1.74-5.74-2.64-8.53H320.8c-.9 2.78-1.79 5.62-2.66 8.53z" id="path82"/>
            <path class="st21" d="M402.85 258.55c6.95 0 12.62-5.67 12.62-12.62 0-6.95-5.67-12.62-12.62-12.62-6.95 0-12.62 5.67-12.62 12.62 0 6.95 5.67 12.62 12.62 12.62z" id="path83"/>
            <circle class="st21" cx="458.88" cy="245.93" r="7.09" id="circle83"/>
            <circle class="st21" cx="346.55" cy="245.93" r="7.09" id="circle84"/>
            <path class="st21" d="M437.73 250.85a4.93 4.93 0 0 0 4.92-4.92 4.93 4.93 0 0 0-4.92-4.92 4.93 4.93 0 0 0-4.92 4.92 4.93 4.93 0 0 0 4.92 4.92z" id="path84"/>
            <path class="st21" d="M364.92 250.31c2.42 0 4.39-1.97 4.39-4.39s-1.97-4.39-4.39-4.39-4.39 1.97-4.39 4.39 1.97 4.39 4.39 4.39z" id="path85"/>
        </g>
        <path class="st7" d="M479.76 338.21s-14.89-10.1-37.21-6.38c-22.33 3.72-32.61 15.06-32.61 15.06l5.14 32.25s25.16-28.53 42.71-27.47c17.54 1.06 17.9 4.08 17.9 4.08z" id="path86"/>
        <path class="st22" d="M240.33 543.39c.89.45-.39 11.82 11.89 20.43-5.86-1.34-14.04-11.51-11.89-20.43z" id="path87"/>
        <path class="st15" id="rect87" d="M220.72 225.48h18.97v546.98h-18.97z"/>
        <path class="st22" d="M217.91 562.11c-.5 4.13-1.59 12.25 2.62 13.86 4.22 1.6 6.76-7.36 2.53-12.01-4.24-4.65-5.15-1.85-5.15-1.85z" id="path88"/>
        <path class="st22" d="M216.87 557.35c.12 1.34 4.83 9.07 9.48 8.98 4.65-.09 8.36-3.97 3.62-7.67-4.74-3.7-12.04-5.68-13.26-4.75-1.21.94.16 3.44.16 3.44z" id="path89"/>
        <path class="st22" d="M216.35 536.72s11.22 4.37 13.58 9.68c2.35 5.31-.81 12.43-7.99 9.49-7.18-2.94-9.03-10.41-8.71-14.46.33-4.05 3.12-4.71 3.12-4.71z" id="path90"/>
        <path class="st22" d="M235.83 534.35c-.66-1.84-11.69-14.86-20.08-12.64-8.38 2.22-2.45 15.45 3.25 18.77 5.7 3.32 13.17 2.26 16.19-.49 3.02-2.74.64-5.64.64-5.64z" id="path91"/>
        <path class="st22" d="M246.91 517.58c-4.45.09-16.64 19.04-11.78 22.17 4.86 3.13 11.2 1.09 15.5-6.13 3.58-6.02 8.44-16.3-3.72-16.04z" id="path92"/>
        <path class="st4" id="rect92" d="M220.72 723.09h18.97v50.02h-18.97z"/>
        <path class="st5" id="rect93" d="M217.97 723.09h24.46v13.33h-24.46z"/>
        <path class="st5" id="rect94" d="M217.97 760.26h24.46v13.33h-24.46z"/>
        <path class="st22" d="M527.41 687.11c-3.18 2.69-9.37 8.05-13.02 5.41-3.65-2.64 2.44-9.69 8.65-8.7 6.21.99 4.37 3.29 4.37 3.29z" id="path94"/>
        <path class="st22" d="M531.96 685.37c-1.19.64-10.23.94-12.71-3-2.48-3.94-1.27-9.16 4.43-7.24 5.7 1.93 11.36 6.95 11.24 8.48-.12 1.54-2.96 1.76-2.96 1.76z" id="path95"/>
        <path class="st22" d="M549.5 674.48s-9.81-6.99-15.54-6.04c-5.73.94-9.95 7.49-3.55 11.88 6.4 4.39 13.66 1.84 16.86-.65 3.2-2.49 2.23-5.19 2.23-5.19z" id="path96"/>
        <path class="st22" d="M540.79 656.89c1.91-.46 18.84 1.62 21.58 9.85 2.74 8.23-11.57 10.53-17.48 7.58-5.9-2.95-9.11-9.77-8.47-13.8.64-4.02 4.37-3.63 4.37-3.63z" id="path97"/>
        <path class="st22" d="M548.73 638.44c2.36 3.78-6.79 24.36-12.07 22.01-5.28-2.35-7.06-8.77-3.38-16.32 3.07-6.31 9-16.01 15.45-5.69z" id="path98"/>
        <path class="st10" d="M280.89 538.55c3.33 0 6.05-2.72 6.05-6.05 0-3.33-2.72-6.05-6.05-6.05-3.33 0-6.05 2.72-6.05 6.05 0 3.33 2.72 6.05 6.05 6.05z" id="path100"/>
        <path class="st10" d="M280.89 563.22c3.33 0 6.05-2.72 6.05-6.05 0-3.33-2.72-6.05-6.05-6.05-3.33 0-6.05 2.72-6.05 6.05 0 3.33 2.72 6.05 6.05 6.05z" id="path101"/>
        <path class="st10" d="M280.89 587.89c3.33 0 6.05-2.72 6.05-6.05 0-3.33-2.72-6.05-6.05-6.05-3.33 0-6.05 2.72-6.05 6.05 0 3.33 2.72 6.05 6.05 6.05z" id="path102"/>
        <path class="st10" d="M503.44 640.55c3.33 0 6.05-2.72 6.05-6.05 0-3.33-2.72-6.05-6.05-6.05-3.33 0-6.05 2.72-6.05 6.05-.01 3.34 2.71 6.05 6.05 6.05z" id="path103"/>
        <path class="st10" d="M519.93 628.48c3.33 0 6.05-2.72 6.05-6.05 0-3.33-2.72-6.05-6.05-6.05-3.33 0-6.05 2.72-6.05 6.05 0 3.33 2.72 6.05 6.05 6.05z" id="path104"/>
        <path class="st20" d="m331.09 618.41-9.07 39.51c-.09.39-.17.77-.24 1.15h178.99l-9.36-40.65H331.09Z" id="path105"/>
        <path class="st21" d="M411.27 659.06c15.46 0 28.07-9.13 28.07-20.33 0-11.2-12.61-20.33-28.07-20.33s-28.07 9.13-28.07 20.33c0 11.2 12.61 20.33 28.07 20.33z" id="path106"/>
        <path class="st15" id="polygon106" d="m419.42 659.07 25.11 74.09h81.35l-25.11-74.09z"/>
        <path class="st15" id="polygon107" d="m403.76 659.07-25.11 74.09h-81.34l25.11-74.09z"/>
        <path class="st4" d="m268.41 615.36-1.28 2.82c-1.41 3.11-.02 6.8 3.09 8.21l31.07 14.07c3.11 1.41 6.8.02 8.21-3.09l1.28-2.82c1.41-3.11.02-6.8-3.09-8.21l-31.07-14.07c-3.11-1.4-6.81-.01-8.21 3.09z" id="path107"/>
        <circle transform="rotate(-11.882 263.387 614.81)" class="st5" cx="263.37" cy="614.78" id="ellipse107" r="14.92"/>
        <path class="st7" d="M438.42 397.57c5.2 0 9.44-4.24 9.44-9.44 0-5.2-4.24-9.44-9.44-9.44-5.2 0-9.44 4.24-9.44 9.44 0 5.2 4.23 9.44 9.44 9.44z" id="path108"/>
        <path class="st14" d="M443.28 387.84c2.52 0 4.58-2.06 4.58-4.58s-2.06-4.58-4.58-4.58-4.58 2.06-4.58 4.58 2.05 4.58 4.58 4.58z" id="path109"/>
        <path class="st14" d="M341.45 394.55s-3.41-18.59 14.75-26.32c33.89-14.42 48.98 30.07 19.14 33.43-20.29 2.27-33.89-7.11-33.89-7.11z" id="path110"/>
        <path class="st7" d="M330.94 336.52s14.89-10.1 37.21-6.38c22.33 3.72 32.61 15.06 32.61 15.06l-5.14 32.25s-25.16-28.53-42.71-27.47c-17.54 1.06-17.9 4.08-17.9 4.08z" id="path111"/>
        <path class="st7" d="M372.29 395.88c5.2 0 9.44-4.24 9.44-9.44 0-5.2-4.24-9.44-9.44-9.44-5.2 0-9.44 4.24-9.44 9.44-.01 5.19 4.24 9.44 9.44 9.44z" id="path112"/>
        <path class="st14" d="M367.42 386.15c2.52 0 4.58-2.06 4.58-4.58s-2.06-4.58-4.58-4.58-4.58 2.06-4.58 4.58 2.06 4.58 4.58 4.58z" id="path113"/>
        <path class="st4" id="rect113" d="M220.72 188.31h18.97v50.02h-18.97z"/>
        <path class="st5" id="rect114" d="M217.97 188.31h24.46v13.33h-24.46z"/>
        <path class="st5" id="rect115" d="M217.97 225.48h24.46v13.33h-24.46z"/>
    </g>
</svg>
