<?xml version="1.0" encoding="UTF-8" standalone="no"?>
<!-- Generator: Adobe Illustrator 24.3.0, SVG Export Plug-In . SVG Version: 6.00 Build 0)  -->

<svg
   version="1.1"
   id="Camada_1"
   x="0px"
   y="0px"
   viewBox="0 0 82.885023 155.078"
   xml:space="preserve"
   sodipodi:docname="warrior-5658627.svg"
   width="82.885025"
   height="155.078"
   inkscape:version="1.4 (86a8ad7, 2024-10-11)"
   xmlns:inkscape="http://www.inkscape.org/namespaces/inkscape"
   xmlns:sodipodi="http://sodipodi.sourceforge.net/DTD/sodipodi-0.dtd"
   xmlns="http://www.w3.org/2000/svg"
   xmlns:svg="http://www.w3.org/2000/svg"><defs
   id="defs115" /><sodipodi:namedview
   id="namedview115"
   pagecolor="#ffffff"
   bordercolor="#666666"
   borderopacity="1.0"
   inkscape:showpageshadow="2"
   inkscape:pageopacity="0.0"
   inkscape:pagecheckerboard="0"
   inkscape:deskcolor="#d1d1d1"
   inkscape:zoom="3.8722398"
   inkscape:cx="40.674134"
   inkscape:cy="82.510386"
   inkscape:window-width="1920"
   inkscape:window-height="1017"
   inkscape:window-x="-8"
   inkscape:window-y="-8"
   inkscape:window-maximized="1"
   inkscape:current-layer="warrior" />
<style
   type="text/css"
   id="style1">
	.st0{fill-rule:evenodd;clip-rule:evenodd;fill:none;stroke:#000000;stroke-width:0.5669;stroke-miterlimit:22.9256;}
	.st1{fill-rule:evenodd;clip-rule:evenodd;fill:#C3B28C;}
	.st2{fill-rule:evenodd;clip-rule:evenodd;fill:#B2A17E;}
	.st3{fill-rule:evenodd;clip-rule:evenodd;fill:#BCBEC0;}
	.st4{fill-rule:evenodd;clip-rule:evenodd;fill:#544333;}
	.st5{fill-rule:evenodd;clip-rule:evenodd;fill:#715A44;}
	.st6{fill-rule:evenodd;clip-rule:evenodd;fill:#462910;}
	.st7{fill-rule:evenodd;clip-rule:evenodd;fill:#2C2515;}
	.st8{fill-rule:evenodd;clip-rule:evenodd;fill:#D7B88A;}
	.st9{fill-rule:evenodd;clip-rule:evenodd;fill:#FFFFFF;stroke:#000000;stroke-width:1.8289;stroke-miterlimit:22.9256;}
	.st10{fill-rule:evenodd;clip-rule:evenodd;fill:#8C7870;}
	.st11{fill-rule:evenodd;clip-rule:evenodd;fill:#824C20;}
	.st12{fill-rule:evenodd;clip-rule:evenodd;fill:#FFFFFF;stroke:#000000;stroke-width:1.2589;stroke-miterlimit:22.9256;}
	.st13{fill-rule:evenodd;clip-rule:evenodd;fill:#50493A;}
	.st14{fill-rule:evenodd;clip-rule:evenodd;fill:#FFFFFF;}
	.st15{fill-rule:evenodd;clip-rule:evenodd;fill:#B57131;}
	.st16{fill-rule:evenodd;clip-rule:evenodd;fill:#34200E;}
	.st17{fill-rule:evenodd;clip-rule:evenodd;fill:#302616;}
	
		.st18{fill-rule:evenodd;clip-rule:evenodd;fill:none;stroke:#E6E7E8;stroke-width:1.26;stroke-linecap:round;stroke-linejoin:round;stroke-miterlimit:22.9256;}
	.st19{fill-rule:evenodd;clip-rule:evenodd;fill:#DA968A;}
	.st20{fill-rule:evenodd;clip-rule:evenodd;fill:#DD9F49;}
	.st21{fill-rule:evenodd;clip-rule:evenodd;fill:#BA4227;}
	.st22{fill-rule:evenodd;clip-rule:evenodd;fill:#BD9A67;}
</style>











<g
   id="warrior"
   style="display:inline"
   transform="matrix(0.22478982,0,0,0.22478982,-44.625275,-19.493773)"
   inkscape:label="warrior">
	<path
   class="st3"
   d="m 261.74,152.33 c 0,21.5 -14.15,38.93 -31.61,38.93 -17.46,0 -31.61,-17.43 -31.61,-38.93 0,-18.87 21.57,-48.22 31.61,-65.61 10.03,17.39 31.61,46.74 31.61,65.61 z"
   id="path26" />
	<path
   class="st4"
   d="m 318.68,601.91 -29.15,64.38 c -0.85,1.88 -0.01,4.12 1.87,4.98 l 7.05,3.19 c 1.88,0.85 4.12,0.01 4.98,-1.87 l 29.15,-64.38 c 0.85,-1.88 0.01,-4.12 -1.87,-4.98 l -7.05,-3.19 c -1.89,-0.86 -4.13,-0.01 -4.98,1.87 z"
   id="path27" />
	<path
   class="st5"
   d="m 318.68,601.91 -29.15,64.38 c -0.22,0.48 -0.33,0.99 -0.33,1.49 l 5.73,2.59 c 1.78,0.81 3.89,0.01 4.7,-1.77 l 27.52,-60.77 c 0.81,-1.78 0.01,-3.89 -1.77,-4.7 l -5.66,-2.56 c -0.44,0.35 -0.8,0.8 -1.04,1.34 z"
   id="path28" />
	
		<rect
   x="309.48001"
   y="632.40997"
   transform="matrix(0.4125,-0.911,0.911,0.4125,-393.9595,679.5599)"
   class="st6"
   width="40.799999"
   height="25.610001"
   id="rect28" />
	
	<path
   class="st7"
   d="m 484.56,492.89 c 1.72,32.18 9.49,124.69 36.19,123.21 28.46,-1.57 -7.27,-101.31 -22.64,-126.34 -7.99,-13.02 -14.3,-10.84 -13.55,3.13 z"
   id="path30" />
	<path
   class="st7"
   d="m 336.8,492.89 c -1.72,32.18 -9.49,124.69 -36.19,123.21 -28.46,-1.57 7.27,-101.31 22.64,-126.34 8,-13.02 14.3,-10.84 13.55,3.13 z"
   id="path31" />
	<path
   class="st7"
   d="m 502.69,432.46 c 1.72,32.18 9.49,124.69 36.19,123.21 28.46,-1.57 -7.27,-101.31 -22.64,-126.34 -8,-13.02 -14.3,-10.84 -13.55,3.13 z"
   id="path32" />
	<path
   class="st7"
   d="m 318.67,432.46 c -1.72,32.18 -9.49,124.69 -36.19,123.21 -28.46,-1.57 7.27,-101.31 22.64,-126.34 8,-13.02 14.3,-10.84 13.55,3.13 z"
   id="path33" />
	<path
   class="st7"
   d="m 490.18,370.2 c 10.29,30.54 42.58,117.58 67.91,108.99 27,-9.15 -34.18,-95.65 -55.7,-115.64 -11.2,-10.4 -16.68,-6.61 -12.21,6.65 z"
   id="path34" />
	<path
   class="st7"
   d="m 331.18,370.2 c -10.29,30.54 -42.58,117.58 -67.91,108.99 -26.99,-9.15 34.18,-95.65 55.7,-115.64 11.2,-10.4 16.68,-6.61 12.21,6.65 z"
   id="path35" />
	<path
   class="st8"
   d="m 514.65,428.59 c -11.22,0.24 -20.16,7.47 -19.98,16.15 0.18,8.68 9.43,15.53 20.64,15.29 11.22,-0.24 20.16,-7.47 19.98,-16.15 -0.18,-8.68 -9.43,-15.53 -20.64,-15.29 z"
   id="path36" />
	<path
   class="st8"
   d="m 305.71,428.59 c 11.22,0.24 20.16,7.47 19.98,16.15 -0.18,8.68 -9.43,15.53 -20.64,15.29 -11.22,-0.24 -20.16,-7.47 -19.98,-16.15 0.18,-8.68 9.42,-15.53 20.64,-15.29 z"
   id="path37" />
	<path
   class="st9"
   d="m 507.33,435.98 c -7.09,0.15 -12.76,3.86 -12.67,8.29 0.09,4.43 5.92,7.9 13.01,7.75 7.09,-0.15 12.76,-3.86 12.67,-8.29 -0.1,-4.43 -5.92,-7.9 -13.01,-7.75 z"
   id="path38" />
	<path
   class="st9"
   d="m 313.03,435.98 c 7.09,0.15 12.76,3.86 12.67,8.29 -0.09,4.43 -5.92,7.9 -13.01,7.75 -7.09,-0.15 -12.76,-3.86 -12.67,-8.29 0.09,-4.43 5.91,-7.9 13.01,-7.75 z"
   id="path39" />
	<path
   class="st8"
   d="m 486.04,555.82 c 19.98,25.08 27.17,41.15 42.57,58.13 15.4,16.99 26.11,37.25 17.57,54.03 -8.53,16.78 -38.11,32.52 -56.98,13.75 -18.87,-18.77 -20.38,-54.19 -29.58,-70.93 -12.93,-23.52 -17.03,-54.26 -17.16,-80.82 7.64,-0.03 25.5,3.15 43.58,25.84 z"
   id="path40" />
	<path
   class="st10"
   d="m 530.18,620.71 c 3.33,0 6.05,-2.72 6.05,-6.05 0,-3.33 -2.72,-6.05 -6.05,-6.05 -3.33,0 -6.05,2.72 -6.05,6.05 0,3.33 2.71,6.05 6.05,6.05 z"
   id="path41" />
	<path
   class="st6"
   d="m 520.63,604.39 c 2.46,3.2 5.07,6.37 7.97,9.57 15.4,16.99 26.11,37.25 17.57,54.03 -8.53,16.78 -38.11,32.52 -56.98,13.75 -10.31,-10.25 -15.44,-25.47 -19.47,-39.9 z"
   id="path42" />
	<path
   class="st8"
   d="m 537.88,625.5 c 9.89,14.14 14.97,29.38 8.3,42.49 -8.53,16.78 -38.11,32.52 -56.98,13.75 -3.87,-3.85 -7.01,-8.39 -9.63,-13.33 z"
   id="path43" />
	<path
   class="st8"
   d="m 358.7,522.56 c -30.22,-4.4 -56.52,2.02 -78.95,-2.73 -22.44,-4.75 -45.33,-3.79 -55.52,12.04 -10.19,15.82 -11.44,46.47 16.83,56.15 73.48,25.15 138.99,-5.4 154.63,-36.08 3.45,-6.81 -6.77,-24.98 -36.99,-29.38 z"
   id="path44" />
	<path
   class="st10"
   d="m 280.89,602.79 c 3.33,0 6.05,-2.72 6.05,-6.05 0,-3.33 -2.72,-6.05 -6.05,-6.05 -3.33,0 -6.05,2.72 -6.05,6.05 0,3.33 2.72,6.05 6.05,6.05 z"
   id="path45" />
	<path
   class="st10"
   d="m 280.89,526.68 c 3.33,0 6.05,-2.72 6.05,-6.05 0,-3.33 -2.72,-6.05 -6.05,-6.05 -3.33,0 -6.05,2.72 -6.05,6.05 0,3.33 2.72,6.05 6.05,6.05 z"
   id="path46" />
	<path
   class="st6"
   d="m 292.38,521.44 c -4.34,-0.26 -8.55,-0.75 -12.64,-1.61 -22.44,-4.75 -45.33,-3.79 -55.52,12.04 -10.19,15.82 -11.44,46.47 16.83,56.15 17.78,6.08 35.08,8.9 51.33,9.25 z"
   id="path47" />
	<path
   class="st8"
   d="m 266.76,517.78 c -17.84,-1.77 -34.32,1.32 -42.54,14.08 -10.19,15.82 -11.44,46.47 16.83,56.15 8.71,2.98 17.3,5.18 25.71,6.68 z"
   id="path48" />
	<path
   class="st11"
   d="m 417.25,524.83 h -12.03 c -37.59,0 -59.94,31.71 -68.34,68.34 l -14.86,64.74 c -8.41,36.64 45.61,48.9 83.2,48.9 h 12.03 c 37.59,0 92.35,-9.43 83.91,-46.06 l -15.57,-67.59 c -8.44,-36.61 -30.75,-68.33 -68.34,-68.33 z"
   id="path49" />
	<path
   class="st6"
   d="m 491.62,619.34 -64.12,86.71 c -0.24,0.32 22.42,70.57 26.01,70.54 l 65.19,-0.51 c 0,0 -8.66,-80.98 -16.81,-112.55 -7.68,-32.92 -10.27,-44.19 -10.27,-44.19 z"
   id="path50" />
	<path
   class="st6"
   d="m 433.92,726.26 c 6.92,20.85 17.26,50.35 19.58,50.33 l 65.19,-0.51 c 0,0 -2.49,-23.33 -6.07,-49.82 z"
   id="path51" />
	<path
   class="st11"
   d="m 428.18,724.7 c 2.62,7.89 5.67,16.87 8.67,25.34 h 84.37 c -0.95,-7.73 -2.05,-16.37 -3.26,-25.34 z"
   id="path52" />
	<path
   class="st6"
   d="m 534.48,775.58 c 0,0 -10.8,-10.68 -17.88,-17.82 -7.08,-7.14 -31.53,3.05 -42.73,8.65 -11.2,5.6 -20.37,10.19 -20.37,10.19 l 65.19,-0.51 z"
   id="path53" />
	<path
   class="st6"
   d="m 330.76,619.84 64.14,86.21 c -3.75,13.8 -22.53,65.01 -26.01,70.54 l -65.19,-0.51 c 0,0 8.66,-80.98 16.81,-112.55 8.14,-31.57 10.25,-43.69 10.25,-43.69 z"
   id="path54" />
	<path
   class="st6"
   d="m 388.3,726.26 c -7.03,20.15 -16.98,46.46 -19.42,50.33 l -65.19,-0.51 c 0,0 2.49,-23.33 6.07,-49.82 z"
   id="path55" />
	<path
   class="st11"
   d="m 393.89,724.74 c -2.8,8.03 -6.01,16.91 -9.11,25.26 h -83.45 c 0.95,-7.7 2.04,-16.32 3.25,-25.26 z"
   id="path56" />
	<path
   class="st6"
   d="m 287.91,775.58 c 0,0 10.8,-10.68 17.88,-17.82 7.08,-7.14 31.53,3.05 42.73,8.65 11.2,5.6 20.37,10.19 20.37,10.19 l -65.19,-0.51 z"
   id="path57" />
	<path
   class="st12"
   d="m 411.71,499.81 h -6.21 c -11.41,0 -20.75,9.34 -20.75,20.75 v 8.33 c 0,27.96 47.71,27.96 47.71,0 v -8.33 c 0,-11.41 -9.34,-20.75 -20.75,-20.75 z"
   id="path58" />
	<path
   class="st8"
   d="m 417.25,290.88 h -17.03 c -50.82,0 -92.41,41.58 -92.41,92.41 v 45.39 c 0,50.82 41.58,92.41 92.41,92.41 h 17.03 c 50.82,0 92.41,-41.58 92.41,-92.41 v -45.39 c -0.01,-50.83 -41.59,-92.41 -92.41,-92.41 z"
   id="path59" />
	<path
   class="st13"
   d="m 417.25,290.88 h -17.03 c -50.82,0 -92.41,41.58 -92.41,92.41 v 45.39 c 0,12.28 2.44,24.03 6.84,34.77 0.5,-10.65 -0.14,-26.89 -0.17,-48.94 -0.07,-53.13 17.49,-108.09 83.89,-113 66.39,-4.92 92.21,37.84 98.97,66.12 6.76,28.28 4.3,73.77 4.3,73.77 0,0 3.5,-5.44 8.02,-14.58 v -43.53 c -0.01,-50.83 -41.59,-92.41 -92.41,-92.41 z"
   id="path60" />
	<path
   class="st6"
   d="m 394.5,704.97 -6.67,0.09 -52.43,-72.13 c 0,0 -5.62,-2.94 -3.94,-9.59 0.45,-1.8 1.02,-8.87 3.1,-10.2 9.71,-6.25 57.92,68.49 66.46,79.48 8.55,10.99 -6.52,12.35 -6.52,12.35 z"
   id="path61" />
	<path
   class="st6"
   d="m 428.08,704.97 6.67,0.09 52.43,-72.13 c 0,0 5.62,-2.94 3.94,-9.59 -0.45,-1.8 -1.02,-8.87 -3.1,-10.2 -9.71,-6.25 -57.92,68.49 -66.46,79.48 -8.55,10.99 6.52,12.35 6.52,12.35 z"
   id="path62" />
	<path
   class="st14"
   d="m 469.25,396.23 c 0,0 3.41,-18.59 -14.75,-26.32 -33.89,-14.42 -48.98,30.07 -19.14,33.43 20.29,2.28 33.89,-7.11 33.89,-7.11 z"
   id="path63" />
	<path
   class="st15"
   d="m 417.25,524.83 h -12.03 c -37.59,0 -59.94,31.71 -68.34,68.34 l -14.86,64.74 c -0.09,0.39 -0.17,0.77 -0.24,1.15 h 178.99 l -15.18,-65.89 c -8.44,-36.62 -30.75,-68.34 -68.34,-68.34 z"
   id="path64" />
	<rect
   x="385.95001"
   y="512.97998"
   class="st12"
   width="45.139999"
   height="54.080002"
   id="rect64" />
	<path
   class="st16"
   d="m 504.92,757.35 c 0,0 -12.38,2.02 -26.71,6.98 -14.33,4.96 17.08,-9.79 16.28,-9.89 -0.8,-0.1 -22.38,4.92 -31.11,10.94 -8.73,6.02 -10.42,7.56 -9.63,9.13 0.78,1.57 4.31,1 7.02,0.6 2.71,-0.4 38.93,-9.53 41.95,-12.44 3,-2.91 2.2,-5.32 2.2,-5.32 z"
   id="path65" />
	<path
   class="st16"
   d="m 316.43,757.25 c 0,0 12.38,2.02 26.71,6.98 14.33,4.96 -17.08,-9.79 -16.28,-9.89 0.8,-0.1 22.38,4.92 31.11,10.94 8.73,6.02 10.42,7.56 9.63,9.13 -0.78,1.57 -4.31,1 -7.02,0.6 -2.71,-0.4 -38.93,-9.53 -41.95,-12.44 -3.01,-2.91 -2.2,-5.32 -2.2,-5.32 z"
   id="path66" />
	<path
   class="st13"
   d="m 307.81,416.89 c -1.67,6.56 -3.02,12.94 -4.08,19.13 -0.24,-0.02 -0.49,-0.02 -0.74,-0.02 -6.63,0 -12,5.37 -12,12 0,3.69 1.66,6.98 4.28,9.18 -3.19,2.15 -5.29,5.81 -5.29,9.95 0,3.56 1.55,6.75 4.01,8.95 -2.99,2.18 -4.94,5.71 -4.94,9.7 0,4.23 2.19,7.94 5.49,10.08 -1.96,2.13 -3.16,4.98 -3.16,8.11 0,4.89 2.92,9.09 7.11,10.96 -1.28,1.91 -2.03,4.21 -2.03,6.68 0,5.37 3.53,9.92 8.4,11.45 -0.05,0.43 -0.07,0.87 -0.07,1.31 0,6.31 4.88,11.49 11.07,11.96 -1.1,1.81 -1.74,3.95 -1.74,6.23 0,6.62 5.37,12 12,12 0.92,0 1.82,-0.1 2.68,-0.3 -0.14,0.74 -0.22,1.51 -0.22,2.29 0,5.89 4.25,10.8 9.86,11.81 -0.04,0.41 -0.06,0.83 -0.06,1.25 0,6.62 5.37,12 12,12 0.62,0 1.23,-0.05 1.83,-0.14 1.11,6.97 7.15,12.3 14.44,12.3 2.23,0 4.35,-0.5 6.25,-1.4 2,5.7 7.42,9.79 13.81,9.79 4.25,0 8.08,-1.82 10.75,-4.71 2.68,3.17 6.69,5.18 11.16,5.18 6.61,0 12.2,-4.39 14.01,-10.42 2.09,1.76 4.79,2.83 7.74,2.83 4.73,0 8.82,-2.74 10.78,-6.72 1.54,0.72 3.26,1.13 5.08,1.13 6.46,0 11.73,-5.11 11.99,-11.52 1.81,1.09 3.93,1.72 6.2,1.72 6.62,0 12,-5.37 12,-12 0,-0.7 -0.06,-1.39 -0.18,-2.06 0.41,0.04 0.83,0.06 1.25,0.06 6.62,0 12,-5.37 12,-12 0,-1.64 -0.33,-3.2 -0.92,-4.63 0.45,0.05 0.91,0.08 1.37,0.08 6.63,0 12,-5.37 12,-12 0,-2.26 -0.62,-4.37 -1.71,-6.18 0.43,0.05 0.86,0.07 1.3,0.07 6.63,0 12,-5.37 12,-12 0,-3.27 -1.31,-6.24 -3.43,-8.4 4.97,-1.47 8.6,-6.06 8.6,-11.51 0,-5.01 -3.07,-9.3 -7.43,-11.1 h 0.24 c 6.62,0 12,-5.37 12,-12 0,-5.45 -3.63,-10.05 -8.61,-11.51 4.68,-1.64 8.03,-6.09 8.03,-11.32 0,-3.69 -1.67,-6.99 -4.29,-9.19 2.92,-2.19 4.8,-5.67 4.8,-9.6 0,-6.39 -4.99,-11.6 -11.28,-11.97 -0.65,-5.05 -1.46,-10.22 -2.44,-15.52 l -17.89,25.97 C 433.8,409.75 371.28,406.37 313.26,435.68 Z"
   id="path67" />
	<path
   class="st17"
   d="m 475.27,461.08 c -35.19,-22.95 -79.04,-35.22 -136.5,-30.71 0,0 -6.18,52.33 25.48,76.76 31.66,24.43 74.73,11.19 90.56,-2.23 15.83,-13.42 20.46,-43.82 20.46,-43.82 z"
   id="path68" />
	<path
   class="st14"
   d="m 474.17,460.37 c -34.35,-22.08 -76.93,-34.01 -132.24,-30.23 1.98,11.71 9.27,23.06 20.45,32.18 -7.58,2 -14.47,5.04 -20.3,9 3.5,13.02 10.07,26.45 22.18,35.8 31.66,24.43 74.73,11.19 90.56,-2.23 1.72,-1.46 3.3,-3.11 4.76,-4.91 -3.58,-7.45 -9.28,-14.47 -16.68,-20.51 13.12,-3.45 24.19,-10.05 31.27,-19.1 z"
   id="path69" />
	<line
   class="st18"
   x1="442.89999"
   y1="479.48001"
   x2="362.37"
   y2="462.32001"
   id="line69" />
	<path
   class="st19"
   d="m 406.82,420.81 c 7.65,0 13.89,-3.33 13.89,-7.4 0,-4.08 -6.24,-7.4 -13.89,-7.4 -7.65,0 -13.89,3.33 -13.89,7.4 -0.01,4.07 6.24,7.4 13.89,7.4 z"
   id="path70" />
	<path
   class="st14"
   d="m 368.08,395.56 c 1.88,0 3.41,-1.53 3.41,-3.41 0,-1.88 -1.53,-3.41 -3.41,-3.41 -1.88,0 -3.41,1.53 -3.41,3.41 0,1.88 1.54,3.41 3.41,3.41 z"
   id="path71" />
	<path
   class="st12"
   d="m 363.81,304.68 c 6.59,8.36 24.52,14.36 45.6,14.36 20.06,0 37.27,-5.43 44.57,-13.16 -8,-3.39 -22.08,-7.46 -44.57,-8.29 -20.92,-0.76 -35.99,3.18 -45.6,7.09 z"
   id="path72" />
	<path
   class="st7"
   d="m 465.19,310 c 23.05,2.52 89.63,7.79 91.7,-11.34 2.2,-20.39 -72.78,-6.64 -92.34,1.36 -10.18,4.15 -9.36,8.88 0.64,9.98 z"
   id="path73" />
	<path
   class="st7"
   d="m 356.17,310 c -23.05,2.52 -89.63,7.79 -91.7,-11.34 -2.2,-20.39 72.78,-6.64 92.34,1.36 10.18,4.15 9.36,8.88 -0.64,9.98 z"
   id="path74" />
	<path
   class="st7"
   d="m 478.99,320.43 c 19.5,12.55 76.73,46.98 87.12,30.78 11.07,-17.26 -62.16,-38.43 -83.24,-40 -10.96,-0.82 -12.35,3.77 -3.88,9.22 z"
   id="path75" />
	<path
   class="st7"
   d="m 342.37,320.43 c -19.5,12.55 -76.73,46.98 -87.12,30.78 -11.07,-17.26 62.16,-38.43 83.24,-40 10.97,-0.82 12.35,3.77 3.88,9.22 z"
   id="path76" />
	<path
   class="st7"
   d="m 489.38,335.33 c 11.42,20.18 46.04,77.3 62.78,67.79 17.83,-10.13 -37.13,-62.94 -55.05,-74.15 -9.32,-5.83 -12.69,-2.4 -7.73,6.36 z"
   id="path77" />
	<path
   class="st7"
   d="m 331.98,335.33 c -11.42,20.18 -46.04,77.3 -62.78,67.79 -17.83,-10.13 37.13,-62.94 55.05,-74.15 9.33,-5.83 12.69,-2.4 7.73,6.36 z"
   id="path78" />
	<g
   id="g85">
		<path
   class="st20"
   d="M 497.46,343.06 C 468.18,160.46 371.87,122.65 323.72,284.01 c -5.76,19.3 -9.68,40.46 -15.48,59.05 z"
   id="path79" />
		<path
   class="st15"
   d="m 427.45,189.32 c -4.01,-2.47 -8.08,-4.31 -12.18,-5.53 9.87,19.34 16.68,60.27 16.68,107.64 0,18.49 -1.04,36 -2.89,51.63 h 25.3 c 0.55,-8.39 0.84,-17.04 0.84,-25.86 0,-55.14 -11.21,-103.12 -27.75,-127.88 z m -38.29,-4.7 c -5.29,1.93 -10.53,4.96 -15.68,9.1 -15.03,25.78 -25.02,71.45 -25.02,123.49 0,8.83 0.29,17.47 0.84,25.86 h 26.48 c -1.85,-15.63 -2.89,-33.14 -2.89,-51.63 0,-46.72 6.62,-87.16 16.27,-106.82 z"
   id="path80" />
		<path
   class="st15"
   d="m 511.63,353.17 c -5.26,-32.84 -12.48,-61.44 -21.1,-85.63 H 324.45 c -2.23,6.29 -4.39,12.86 -6.46,19.81 -6.42,21.51 -12.24,44.52 -17.25,65.81 h 210.89 z"
   id="path81" />
		<path
   class="st20"
   d="m 510.35,345.48 c -0.5,-2.88 -1.01,-5.72 -1.54,-8.53 H 304.64 c -0.7,2.86 -1.39,5.71 -2.07,8.53 z m -3.72,-19.54 c -0.6,-2.88 -1.22,-5.72 -1.85,-8.53 H 309.6 c -0.75,2.84 -1.48,5.69 -2.21,8.53 z m -4.47,-19.55 c -0.72,-2.89 -1.46,-5.73 -2.21,-8.53 H 314.93 c -0.8,2.83 -1.6,5.67 -2.38,8.53 z m -5.33,-19.55 c -0.86,-2.9 -1.74,-5.74 -2.64,-8.53 H 320.8 c -0.9,2.78 -1.79,5.62 -2.66,8.53 z"
   id="path82" />
		<path
   class="st21"
   d="m 402.85,258.55 c 6.95,0 12.62,-5.67 12.62,-12.62 0,-6.95 -5.67,-12.62 -12.62,-12.62 -6.95,0 -12.62,5.67 -12.62,12.62 0,6.95 5.67,12.62 12.62,12.62 z"
   id="path83" />
		<circle
   class="st21"
   cx="458.88"
   cy="245.92999"
   r="7.0900002"
   id="circle83" />
		<circle
   class="st21"
   cx="346.54999"
   cy="245.92999"
   r="7.0900002"
   id="circle84" />
		<path
   class="st21"
   d="m 437.73,250.85 c 2.71,0 4.92,-2.21 4.92,-4.92 0,-2.71 -2.21,-4.92 -4.92,-4.92 -2.71,0 -4.92,2.21 -4.92,4.92 0,2.71 2.21,4.92 4.92,4.92 z"
   id="path84" />
		<path
   class="st21"
   d="m 364.92,250.31 c 2.42,0 4.39,-1.97 4.39,-4.39 0,-2.42 -1.97,-4.39 -4.39,-4.39 -2.42,0 -4.39,1.97 -4.39,4.39 0,2.42 1.97,4.39 4.39,4.39 z"
   id="path85" />
	</g>
	<path
   class="st7"
   d="m 479.76,338.21 c 0,0 -14.89,-10.1 -37.21,-6.38 -22.33,3.72 -32.61,15.06 -32.61,15.06 l 5.14,32.25 c 0,0 25.16,-28.53 42.71,-27.47 17.54,1.06 17.9,4.08 17.9,4.08 z"
   id="path86" />
	<path
   class="st22"
   d="m 240.33,543.39 c 0.89,0.45 -0.39,11.82 11.89,20.43 -5.86,-1.34 -14.04,-11.51 -11.89,-20.43 z"
   id="path87" />
	<rect
   x="220.72"
   y="225.48"
   class="st15"
   width="18.969999"
   height="546.97998"
   id="rect87" />
	<path
   class="st22"
   d="m 217.91,562.11 c -0.5,4.13 -1.59,12.25 2.62,13.86 4.22,1.6 6.76,-7.36 2.53,-12.01 -4.24,-4.65 -5.15,-1.85 -5.15,-1.85 z"
   id="path88" />
	<path
   class="st22"
   d="m 216.87,557.35 c 0.12,1.34 4.83,9.07 9.48,8.98 4.65,-0.09 8.36,-3.97 3.62,-7.67 -4.74,-3.7 -12.04,-5.68 -13.26,-4.75 -1.21,0.94 0.16,3.44 0.16,3.44 z"
   id="path89" />
	<path
   class="st22"
   d="m 216.35,536.72 c 0,0 11.22,4.37 13.58,9.68 2.35,5.31 -0.81,12.43 -7.99,9.49 -7.18,-2.94 -9.03,-10.41 -8.71,-14.46 0.33,-4.05 3.12,-4.71 3.12,-4.71 z"
   id="path90" />
	<path
   class="st22"
   d="m 235.83,534.35 c -0.66,-1.84 -11.69,-14.86 -20.08,-12.64 -8.38,2.22 -2.45,15.45 3.25,18.77 5.7,3.32 13.17,2.26 16.19,-0.49 3.02,-2.74 0.64,-5.64 0.64,-5.64 z"
   id="path91" />
	<path
   class="st22"
   d="m 246.91,517.58 c -4.45,0.09 -16.64,19.04 -11.78,22.17 4.86,3.13 11.2,1.09 15.5,-6.13 3.58,-6.02 8.44,-16.3 -3.72,-16.04 z"
   id="path92" />
	<rect
   x="220.72"
   y="723.09003"
   class="st4"
   width="18.969999"
   height="50.02"
   id="rect92" />
	<rect
   x="217.97"
   y="723.09003"
   class="st5"
   width="24.459999"
   height="13.33"
   id="rect93" />
	<rect
   x="217.97"
   y="760.26001"
   class="st5"
   width="24.459999"
   height="13.33"
   id="rect94" />
	
	<path
   class="st22"
   d="m 527.41,687.11 c -3.18,2.69 -9.37,8.05 -13.02,5.41 -3.65,-2.64 2.44,-9.69 8.65,-8.7 6.21,0.99 4.37,3.29 4.37,3.29 z"
   id="path94" />
	<path
   class="st22"
   d="m 531.96,685.37 c -1.19,0.64 -10.23,0.94 -12.71,-3 -2.48,-3.94 -1.27,-9.16 4.43,-7.24 5.7,1.93 11.36,6.95 11.24,8.48 -0.12,1.54 -2.96,1.76 -2.96,1.76 z"
   id="path95" />
	<path
   class="st22"
   d="m 549.5,674.48 c 0,0 -9.81,-6.99 -15.54,-6.04 -5.73,0.94 -9.95,7.49 -3.55,11.88 6.4,4.39 13.66,1.84 16.86,-0.65 3.2,-2.49 2.23,-5.19 2.23,-5.19 z"
   id="path96" />
	<path
   class="st22"
   d="m 540.79,656.89 c 1.91,-0.46 18.84,1.62 21.58,9.85 2.74,8.23 -11.57,10.53 -17.48,7.58 -5.9,-2.95 -9.11,-9.77 -8.47,-13.8 0.64,-4.02 4.37,-3.63 4.37,-3.63 z"
   id="path97" />
	<path
   class="st22"
   d="m 548.73,638.44 c 2.36,3.78 -6.79,24.36 -12.07,22.01 -5.28,-2.35 -7.06,-8.77 -3.38,-16.32 3.07,-6.31 9,-16.01 15.45,-5.69 z"
   id="path98" />
	
	<path
   class="st10"
   d="m 280.89,538.55 c 3.33,0 6.05,-2.72 6.05,-6.05 0,-3.33 -2.72,-6.05 -6.05,-6.05 -3.33,0 -6.05,2.72 -6.05,6.05 0,3.33 2.72,6.05 6.05,6.05 z"
   id="path100" />
	<path
   class="st10"
   d="m 280.89,563.22 c 3.33,0 6.05,-2.72 6.05,-6.05 0,-3.33 -2.72,-6.05 -6.05,-6.05 -3.33,0 -6.05,2.72 -6.05,6.05 0,3.33 2.72,6.05 6.05,6.05 z"
   id="path101" />
	<path
   class="st10"
   d="m 280.89,587.89 c 3.33,0 6.05,-2.72 6.05,-6.05 0,-3.33 -2.72,-6.05 -6.05,-6.05 -3.33,0 -6.05,2.72 -6.05,6.05 0,3.33 2.72,6.05 6.05,6.05 z"
   id="path102" />
	<path
   class="st10"
   d="m 503.44,640.55 c 3.33,0 6.05,-2.72 6.05,-6.05 0,-3.33 -2.72,-6.05 -6.05,-6.05 -3.33,0 -6.05,2.72 -6.05,6.05 -0.01,3.34 2.71,6.05 6.05,6.05 z"
   id="path103" />
	<path
   class="st10"
   d="m 519.93,628.48 c 3.33,0 6.05,-2.72 6.05,-6.05 0,-3.33 -2.72,-6.05 -6.05,-6.05 -3.33,0 -6.05,2.72 -6.05,6.05 0,3.33 2.72,6.05 6.05,6.05 z"
   id="path104" />
	<path
   class="st20"
   d="m 331.09,618.41 -9.07,39.51 c -0.09,0.39 -0.17,0.77 -0.24,1.15 h 178.99 l -9.36,-40.65 H 331.09 Z"
   id="path105" />
	<path
   class="st21"
   d="m 411.27,659.06 c 15.46,0 28.07,-9.13 28.07,-20.33 0,-11.2 -12.61,-20.33 -28.07,-20.33 -15.46,0 -28.07,9.13 -28.07,20.33 0,11.2 12.61,20.33 28.07,20.33 z"
   id="path106" />
	<polygon
   class="st15"
   points="419.42,659.07 444.53,733.16 525.88,733.16 500.77,659.07 "
   id="polygon106" />
	<polygon
   class="st15"
   points="403.76,659.07 378.65,733.16 297.31,733.16 322.42,659.07 "
   id="polygon107" />
	<path
   class="st4"
   d="m 268.41,615.36 -1.28,2.82 c -1.41,3.11 -0.02,6.8 3.09,8.21 l 31.07,14.07 c 3.11,1.41 6.8,0.02 8.21,-3.09 l 1.28,-2.82 c 1.41,-3.11 0.02,-6.8 -3.09,-8.21 l -31.07,-14.07 c -3.11,-1.4 -6.81,-0.01 -8.21,3.09 z"
   id="path107" />
	
		<circle
   transform="matrix(0.9786,-0.2059,0.2059,0.9786,-120.9458,67.4045)"
   class="st5"
   cx="263.37"
   cy="614.78003"
   id="ellipse107"
   r="14.92" />
	<path
   class="st7"
   d="m 438.42,397.57 c 5.2,0 9.44,-4.24 9.44,-9.44 0,-5.2 -4.24,-9.44 -9.44,-9.44 -5.2,0 -9.44,4.24 -9.44,9.44 0,5.2 4.23,9.44 9.44,9.44 z"
   id="path108" />
	<path
   class="st14"
   d="m 443.28,387.84 c 2.52,0 4.58,-2.06 4.58,-4.58 0,-2.52 -2.06,-4.58 -4.58,-4.58 -2.52,0 -4.58,2.06 -4.58,4.58 0,2.52 2.05,4.58 4.58,4.58 z"
   id="path109" />
	<path
   class="st14"
   d="m 341.45,394.55 c 0,0 -3.41,-18.59 14.75,-26.32 33.89,-14.42 48.98,30.07 19.14,33.43 -20.29,2.27 -33.89,-7.11 -33.89,-7.11 z"
   id="path110" />
	<path
   class="st7"
   d="m 330.94,336.52 c 0,0 14.89,-10.1 37.21,-6.38 22.33,3.72 32.61,15.06 32.61,15.06 l -5.14,32.25 c 0,0 -25.16,-28.53 -42.71,-27.47 -17.54,1.06 -17.9,4.08 -17.9,4.08 z"
   id="path111" />
	<path
   class="st7"
   d="m 372.29,395.88 c 5.2,0 9.44,-4.24 9.44,-9.44 0,-5.2 -4.24,-9.44 -9.44,-9.44 -5.2,0 -9.44,4.24 -9.44,9.44 -0.01,5.19 4.24,9.44 9.44,9.44 z"
   id="path112" />
	<path
   class="st14"
   d="m 367.42,386.15 c 2.52,0 4.58,-2.06 4.58,-4.58 0,-2.52 -2.06,-4.58 -4.58,-4.58 -2.52,0 -4.58,2.06 -4.58,4.58 0,2.52 2.06,4.58 4.58,4.58 z"
   id="path113" />
	<rect
   x="220.72"
   y="188.31"
   class="st4"
   width="18.969999"
   height="50.02"
   id="rect113" />
	<rect
   x="217.97"
   y="188.31"
   class="st5"
   width="24.459999"
   height="13.33"
   id="rect114" />
	<rect
   x="217.97"
   y="225.48"
   class="st5"
   width="24.459999"
   height="13.33"
   id="rect115" />
</g>
</svg>
