<?xml version="1.0" encoding="UTF-8" standalone="no"?>
<svg
   version="1.1"
   viewBox="0 0 4800 2000"
   id="svg31"
   sodipodi:docname="vector-2516150.svg"
   width="4800"
   height="2000"
   inkscape:version="1.4 (86a8ad7, 2024-10-11)"
   xmlns:inkscape="http://www.inkscape.org/namespaces/inkscape"
   xmlns:sodipodi="http://sodipodi.sourceforge.net/DTD/sodipodi-0.dtd"
   xmlns="http://www.w3.org/2000/svg"
   xmlns:svg="http://www.w3.org/2000/svg">
  <defs
     id="defs31" />
  <sodipodi:namedview
     id="namedview31"
     pagecolor="#ffffff"
     bordercolor="#666666"
     borderopacity="1.0"
     inkscape:showpageshadow="2"
     inkscape:pageopacity="0.0"
     inkscape:pagecheckerboard="0"
     inkscape:deskcolor="#d1d1d1"
     inkscape:zoom="0.46"
     inkscape:cx="2473.913"
     inkscape:cy="820.65217"
     inkscape:window-width="1920"
     inkscape:window-height="1017"
     inkscape:window-x="-8"
     inkscape:window-y="-8"
     inkscape:window-maximized="1"
     inkscape:current-layer="corps" />
  <g
     transform="matrix(1.7142857,0,0,0.71428571,0,1248.2857)"
     id="g1"
     sodipodi:insensitive="true">
    <rect
       y="-1747.6"
       width="2800"
       height="2800"
       fill="#008080"
       id="rect1"
       x="0" />
  </g>
  <g
     inkscape:groupmode="layer"
     id="libellule"
     inkscape:label="libellule"
     transform="translate(9.7826089,16.304389)">
    <g
       inkscape:groupmode="layer"
       id="aile1"
       inkscape:label="aile1"
       style="display:inline"
       sodipodi:insensitive="true">
      <path
         d="m 1270.1209,692.39933 c -4.1718,0.017 -7.9684,0.1093 -11.359,0.3495 -12.551,0.8892 -19.589,3.4071 -20.097,7.6893 -6.5069,54.812 355.33,339.18997 472.89,358.98997 97.846,16.477 368.19,-3.0538 532.48,-82.83401 -4.3587,-8.9545 -8.8945,-17.564 -13.544,-25.82 -72.007,8.2595 -145.8,0.048 -216.92,-12.844 -121.5,-23.276 -240.43,-62.772 -349.73,-121.11 -29.962,-16.074 -58.198,-37.12096 -76.761,-66.18896 -3.5889,-5.1846 -7.0674,-10.467 -10.442,-15.772 -136.44,-24.916 -252.89,-42.687 -306.52,-42.466 z"
         fill="#eeffaa"
         id="path4" />
      <path
         d="m 1531.2509,745.99933 c 24.108,44.57796 67.905,102.99996 142.47,138.08996 132.98,62.578 346.16,91.911 453.72,88 -177.96,25.422 -301.18,43.02001 -373.53,27.375 -72.356,-15.644 -17.591,23.47701 80.188,29.34401 88.432,5.3059 292.01,-16.585 403.91,-64.21901 -2.4599,-4.7161 -4.9619,-9.3367 -7.5,-13.844 -114.3179,-93.20098 -656.391,-196.68889 -699.253,-204.74596 z"
         fill="#d5ec7c"
         id="path27"
         sodipodi:nodetypes="ccccscccc" />
      <path
         d="m 1269.7525,692.39933 c -4.1217,0.017 -7.8885,0.1036 -11.2386,0.3437 -12.4005,0.8893 -19.3511,3.4053 -19.853,7.6876 -0.3411,2.9078 0.3589,6.4674 1.976,10.594 127.4807,-31.13155 932.5945,190.0138 975.9321,234.38101 93.4654,-15.35813 -748.3518,-272.85884 -946.812,-253.00601 z"
         fill="#ffffff"
         id="path28"
         sodipodi:nodetypes="ccscccc"
         style="stroke-width:0.993987" />
    </g>
    <g
       inkscape:groupmode="layer"
       id="aile2"
       inkscape:label="aile2"
       style="display:inline"
       sodipodi:insensitive="true">
      <path
         d="m 1445.9209,211.05933 c -3.2656,-0.01 -5.6853,0.86257 -7.165,2.6213 -43.294,51.456 99.375,499.04 195.07,572.36996 85.201,65.285 381.7,179.81 593.03,158.37 -36.0875,-175.42798 40.7011,-95.47658 -239.446,-329.81654 -195.12,-163.1 -452.2383,-370.68652 -524.7583,-399.35652 -6.8949,-2.7265 -12.534,-4.1814 -16.733,-4.1941 z"
         fill="#eeffaa"
         id="path5"
         sodipodi:nodetypes="cccccccc"
         style="display:inline" />
      <path
         d="m 1445.9109,211.07933 c -3.2656,-0.01 -5.6766,0.83499 -7.1562,2.5938 -43.294,51.456 99.367,499.05 195.06,572.37996 0.9233,0.7075 1.9024,1.4373 2.875,2.1562 -59.971,-114.83996 -175.05,-356.41996 -166.34,-504.43996 3.8687,-23.212 -13.224,-98.016 465.25,299.72 2.6982,-2.045 5.4838,-4.0139 8.3438,-5.8438 -195.12,-163.1 -408.77,-333.7 -481.28,-362.38 -6.8949,-2.7265 -12.551,-4.1748 -16.75,-4.1875 z"
         fill="#ffffff"
         id="path25"
         style="display:inline" />
      <path
         d="m 1672.5309,506.63933 c -31.381,1.1359 -20.662,48.514 28.594,95.875 50.845,48.889 191.64,129.07 142.75,121.25 -48.89,-7.82 -133,-35.192 -86.062,5.875 46.938,41.067 176.02,111.44996 326.59,117.30996 44.978,0 41.077,37.156 -7.8125,37.156 -48.8895,0 -125.17,-1.9364 -262.06,-52.781 50.23,35.347 219.05,106.04 395.31,85.906 -11.686,-17.42 -22.984,-31.927 -32.25,-42.5 -10.248,-11.694 -3.3178,-21.99 5.1875,-28.969 -2.2187,0.081 -5.9779,2.24912 -6.6875,0.125 -27.0206,-80.88659 -466.6169,-337.3216 -500.403,-339.18336 -1.1,-0.0611 -2.144,-0.0991 -3.1562,-0.0625 z"
         fill="#d5ec7c"
         id="path26"
         sodipodi:nodetypes="cssscsccscsccc"
         style="display:inline" />
    </g>
    <g
       inkscape:groupmode="layer"
       id="aile4"
       inkscape:label="aile4"
       style="display:inline">
      <path
         d="m 2396.5209,931.39929 c 0.9827,7.348 1.9377,14.841 2.8397,22.456 114.04,144.89001 382.67,276.31001 485.65,298.35001 116.57,24.954 557.81,-105.94 571.97,-159.29 1.1069,-4.1678 -4.5207,-9.0931 -15.859,-14.548 C 3338.0692,843.75784 2393.8187,970.04086 2396.5156,931.39829 Z"
         fill="#eeffaa"
         id="path6"
         sodipodi:nodetypes="cccsccc" />
      <path
         d="m 2396.5209,931.39929 c 0.9828,7.348 1.9418,14.853 2.8438,22.469 114.04,144.89001 382.68,276.30001 485.66,298.34001 95.67,20.48 409.96,-63.99 527.44,-124.44 0.931,-3.2088 0.9555,-5.601 -0.094,-7 -12.445,-16.594 -342.93,87.117 -454.94,99.562 -112.01,12.445 -233.66,-80.211 -287.59,-103.72 -53.929,-23.508 -47.038,-58.078 -1.4063,-49.781 45.632,8.2968 219.86,42.859 272.41,45.625 52.546,2.7655 105.12,-29.039 145.22,-22.125 40.101,6.914 5.5082,-31.805 31.781,-33.188 26.273,-1.3828 65,-23.5 65,-23.5 0,0 -42.416,-11.652 -73.719,-18.812 -26.879,17.572 -58.675,25.828 -90.281,29.469 -123.11,13.911 -248.23,6.8002 -369.75,-16.375 -88.509,-17.792 -178.25,-43.91001 -252.56,-96.53101 z"
         fill="#d5ec7c"
         id="path31" />
    </g>
    <g
       inkscape:groupmode="layer"
       id="aile3"
       inkscape:label="aile3"
       style="display:inline"
       sodipodi:insensitive="true">
      <path
         d="m 3427.7209,559.34933 c -151.93,-0.17552 -1000.9,303.02996 -1040.4,317.13996 2.9398,13.603 5.5421,29.191 7.9078,45.873 174.8,129.83001 549.02,136.65001 662.8,104.42001 115.99,-32.86401 413.68,-396.28997 392.41,-460.08997 -1.6613,-4.984 -9.5805,-7.3245 -22.762,-7.3397 z"
         fill="#eeffaa"
         id="path7" />
      <path
         d="m 2547.9209,831.29929 c 0,0 680.54,-234.66996 874.14,-258.12996 -162.31,48.889 -874.14,258.12996 -874.14,258.12996 z"
         fill="#ffffff"
         id="path29" />
      <path
         d="m 3358.0209,674.09933 c -5.8667,-0.2444 -18.087,6.5874 -35.688,24.188 -35.2,35.2 -193.62,232.71996 -275.75,260.08996 -314.85,66.48901 -488.89,-31.294 -449.78,-33.25 39.11,-1.956 117.36,-23.458 133,-44.969 15.645,-21.511 -89.977,11.724 -133,7.8125 -43.022,-3.9112 54.776,-31.292 109.53,-60.625 54.756,-29.334 27.365,-27.355 -89.969,-5.8437 -83.354,15.282 -178.29,49.226 -226.44,67.656 1.9265,10.315 3.7161,21.458 5.375,33.156 2.2239,1.6518 4.4626,3.2942 6.75,4.9063 57.881,28.226 152.37,62.763 237.62,91.31201 0.019,0.01 0.044,-0.01 0.063,0 165.74,33.466 345.46,28.838 418.34,8.1875 2.0063,-0.5684 4.0751,-1.237 6.1875,-2 l -125.22,-1.8125 c 0,0 64.532,-1.9527 138.84,-27.37501 74.312,-25.422 262.04,-281.57996 277.69,-303.08996 7.8223,-10.756 8.3042,-18.099 2.4375,-18.344 z"
         fill="#d5ec7c"
         id="path30" />
    </g>
    <g
       inkscape:groupmode="layer"
       id="corps"
       inkscape:label="corps"
       style="display:inline"
       sodipodi:insensitive="true">
      <path
         d="m 2297.1209,1260.7993 c -3.568,34.325 -31.973,294.78 -72.166,402.05 -6.6672,17.795 -12.65,24.987 -19.973,33.043 -84.753,68.349 -201.52,115.03 -245.71,80.125 -48.107,-22.146 -74.137,-222.28 -41.33,-260.56 38.276,-32.808 136.67,-35.508 144.87,-79.252 8.2019,-43.743 24.628,-155.88 -87.465,-161.34 -112.09,-5.4679 -243.36,62.915 -251.56,147.67 -8.2,84.755 90.224,426.47 207.78,456.55 39.184,6.9148 185.76,-26.115 305.76,-107.75 22.336,-15.196 39.649,-26.073 49.565,-54.15 29.998,-104.99 79.758,-336.06 86.893,-447.69 -28.372,12.432 -58.591,3.5624 -76.674,-8.6941 z"
         fill="#ffcc00"
         id="path8" />
      <path
         d="m 2220.7209,840.29929 c -7.2215,1.8724 -14.636,3.2905 -22.194,4.2378 -6.5476,6.8212 -13.179,18.539 -0.262,31.456 20.299,20.299 99.231,155.57001 88.295,264.93001 -10.936,109.36 -1.5974,98.143 10.922,109.35 12.36,11.067 47.554,32.528 84.451,4.631 43.629,-32.988 34.792,-73.469 24.16,-145.96 -8.2881,-56.51 -18.936,-172.30001 -36.043,-235.74001 -11.356,2.0046 -23.065,3.0145 -34.995,3.0145 -42.519,0 -81.912,-13.265 -114.33,-35.912 z"
         fill="#ffff00"
         id="path9" />
      <path
         d="m 2180.0209,523.60933 c -44.079,0 -83.976,17.623 -112.76,46.092 33.61,15.87 59.169,45.988 68.941,82.528 5.7939,-50.423 30.192,-95.144 66.188,-127.09 -7.3099,-1.0118 -14.774,-1.5291 -22.369,-1.5291 z m -42.028,187.29 c -7.5183,36.929 -31.009,68.077 -62.912,85.93596 27.992,24.203 64.715,38.883 104.94,38.883 10.507,0 20.777,-1.016 30.713,-2.9271 -37.477,-29.794 -64.011,-72.74596 -72.742,-121.88996 z"
         fill="#ffff00"
         id="path10" />
      <path
         d="m 2299.2209,893.99929 c 0,0 -42.867,-19.359 -55.312,-22.125 -12.445,-2.7656 -29.039,0 -16.594,13.828 12.445,13.828 66.374,103.71 76.054,153.49001 9.6796,49.781 8.2968,121.69 8.2968,141.05 0,19.36 11.062,15.211 19.359,-16.594 8.2968,-31.804 15.211,-218.48001 -31.804,-269.64001 z"
         fill="#ffff91"
         id="path17" />
      <path
         d="m 2220.7209,840.29929 c -7.2215,1.8724 -14.63,3.3027 -22.187,4.25 -6.5477,6.8212 -13.199,18.52 -0.2813,31.438 0.2294,0.2294 0.4746,0.4915 0.7187,0.75 4.1221,-9.2587 13.657,-21.064 35.656,-27.562 -4.7625,-2.7734 -9.4024,-5.7291 -13.906,-8.875 z m 149.31,32.906 c -11.356,2.0045 -23.07,3 -35,3 -1.2346,0 -2.4584,-0.01 -3.6876,-0.031 8.7771,15.012 17.246,35.132 19,58.812 3.9112,52.8 35.176,236.62001 19.531,264.00001 -14.638,25.616 -25.847,61.505 -88.094,17.969 0.672,28.249 7.4904,25.973 15.687,33.312 12.36,11.067 47.572,32.554 84.469,4.6563 43.629,-32.988 34.789,-73.473 24.156,-145.97 -8.288,-56.51 -18.956,-172.31001 -36.062,-235.75001 z"
         fill="#ffcc00"
         id="path18" />
      <path
         d="m 2303.3209,1281.0993 c -1.3827,103.71 -40.102,300.1 -66.375,399.66 37.336,-37.335 80.227,-297.31 95.438,-392.72 -19.359,4.1484 -29.062,-6.9375 -29.062,-6.9375 z m -331.25,7.625 c -43.835,0.2005 -109.07,17.973 -165.16,56 -81.585,55.312 -58.094,143.81 -58.094,143.81 9.6796,-42.867 29.063,-80.196 78.844,-123.06 49.781,-42.867 138.28,-63.609 188.06,-66.375 -8.2103,-6.914 -23.731,-10.466 -43.656,-10.375 z m 217.88,434.88 c 0,0 -71.892,67.758 -174.22,71.906 49.781,5.5311 136.88,-12.446 174.22,-71.906 z"
         fill="#ffff00"
         id="path19" />
      <path
         d="m 2053.5209,1315.1993 c -3.8645,7.348 -10.414,14.011 -21.188,18.469 -40.101,16.594 -195,35.954 -222.66,110.62 -27.66,74.666 53.945,308.37 63.625,225.41 9.6796,-82.968 -19.358,-136.91 55.312,-174.25 46.748,-23.374 81.044,-23.43 111.34,-31.75 0.012,-0.01 0.019,-0.024 0.031,-0.031 12.089,-7.1611 20.634,-15.912 22.813,-27.531 5.1957,-27.71 13.684,-82.84 -9.2813,-120.94 z"
         fill="#dc9b00"
         id="path20" />
      <path
         d="m 2360.9209,1273.6993 c -6.3937,1.4366 -12.788,1.9717 -19,1.75 -12.581,88.502 -48.466,394.48 -104.94,441.31 -56.695,47.015 -87.095,60.844 -170.06,88.5 -82.965,27.656 -134.12,-6.9062 -134.12,-6.9062 34.57,62.226 230.9,13.835 298.66,-45.625 67.757,-59.46 92.648,-255.83 99.562,-291.78 5.5618,-28.921 23.043,-142.39 29.906,-187.25 z"
         fill="#dc9b00"
         id="path21" />
      <path
         d="m 2186.1209,536.97933 c -23.878,0.27833 -64.787,6.3557 -109.94,37.375 7.063,4.0443 13.711,8.7274 19.844,14 17.9,-11.595 43.505,-23.756 72.313,-24 6.4693,-9.7416 13.756,-18.901 21.781,-27.344 -1.2798,-0.0195 -2.6006,-0.0476 -4,-0.0312 z"
         fill="#ffffc3"
         id="path22" />
      <path
         d="m 2148.1209,603.44933 c -11.687,2.851 -20.973,7.3476 -28.25,12.219 7.2341,11.112 12.8,23.426 16.312,36.562 1.9536,-17.001 6.0223,-33.347 11.938,-48.781 z m -38.812,165.47 c -9.6917,11.174 -21.257,20.63296 -34.25,27.90596 27.992,24.203 64.712,38.906 104.94,38.906 10.507,0 20.782,-1.0264 30.719,-2.9374 -16.89,-13.428 -31.558,-29.521 -43.375,-47.656 -26.182,3.1083 -45.483,-6.35446 -58.031,-16.21896 z"
         fill="#ffcc00"
         id="path23" />
      <path
         d="m 2086.0209,789.99929 c -3.5169,2.4643 -7.1428,4.7371 -10.906,6.8438 27.992,24.203 64.712,38.906 104.94,38.906 10.507,0 20.782,-1.0263 30.719,-2.9374 -4.9903,-3.9674 -9.7888,-8.1762 -14.375,-12.594 -61.581,1.7242 -93.86,-15.032 -110.38,-30.219 z"
         fill="#dc9b00"
         id="path24" />
      <g
         inkscape:groupmode="layer"
         id="layer6"
         inkscape:label="oeild"
         style="display:inline"
         transform="translate(-8.6956521,2.173913)">
        <path
           d="m 2517.7979,678.83527 a 187.27608,188.63214 0 1 1 -374.5382,0 187.27608,188.63214 0 1 1 374.5382,0 z"
           fill="#f2f2f2"
           id="path13"
           style="stroke-width:1.398" />
        <path
           d="m 2435.83,644.26834 a 137.09466,136.77854 0 1 1 -274.1791,0 137.09466,136.77854 0 1 1 274.1791,0 z"
           fill="#ffffff"
           id="path14"
           style="stroke-width:1.01854" />
        <path
           d="m 2255.9848,582.20022 c -5.9305,0 -11.506,1.6228 -16.296,4.4126 2.2525,-1.0512 4.7376,-1.6602 7.3835,-1.6602 9.7434,0 17.65,7.9669 17.65,17.781 0,9.8141 -7.9069,17.781 -17.65,17.781 -9.7435,0 -17.607,-7.9669 -17.607,-17.781 0,-4.5502 1.7077,-8.696 4.5,-11.84 -6.4749,5.9962 -10.573,14.558 -10.573,24.116 0,18.119 14.604,32.81 32.592,32.81 17.988,0 32.548,-14.691 32.548,-32.81 0,-18.119 -14.56,-32.81 -32.548,-32.81 z"
           id="pupille_d" />
      </g>
      <g
         inkscape:groupmode="layer"
         id="layer5"
         inkscape:label="oeilg"
         style="display:inline"
         transform="translate(10.869565,-6.5217391)">
        <path
           d="m 2132.9006,687.24716 a 117.22974,118.07859 0 1 1 -234.4507,0 117.22974,118.07859 0 1 1 234.4507,0 z"
           fill="#f2f2f2"
           id="path11"
           style="stroke-width:0.87511" />
        <path
           d="m 2077.2301,660.10914 a 81.276211,78.477987 0 1 1 -162.5463,0 81.276211,78.477987 0 1 1 162.5463,0 z"
           fill="#ffffff"
           id="path12"
           style="stroke-width:0.594037" />
        <path
           d="m 1978.6696,605.89698 c -5.4625,0 -10.5981,1.49475 -15.0101,4.06442 2.0749,-0.96826 4.3638,-1.5292 6.8009,-1.5292 8.9746,0 16.2573,7.33826 16.2573,16.37795 0,9.0397 -7.283,16.37796 -16.2573,16.37796 -8.9747,0 -16.2177,-7.33826 -16.2177,-16.37796 0,-4.19115 1.573,-8.00982 4.145,-10.90574 -5.964,5.52306 -9.7387,13.40928 -9.7387,22.21308 0,16.68929 13.4516,30.22106 30.0203,30.22106 16.5686,0 29.9797,-13.53177 29.9797,-30.22106 0,-16.68928 -13.4111,-30.22106 -29.9797,-30.22106 z"
           id="pupille_g"
           style="stroke-width:0.921093" />
      </g>
    </g>
    <g
       inkscape:groupmode="layer"
       id="layer1"
       inkscape:label="points">
      <circle
         style="display:none;fill:#000000;fill-opacity:1;stroke-width:3.69433"
         id="ctrlPtAile1"
         cx="2223.8035"
         cy="966.04962"
         r="20"
         sodipodi:insensitive="true" />
      <circle
         style="display:none;fill:#000000;fill-opacity:1;stroke-width:3.69433"
         id="ctrlPtAile2"
         cx="2187.3469"
         cy="893.13635"
         r="20" />
      <circle
         style="display:none;fill:#000000;fill-opacity:1;stroke-width:3.69433"
         id="ctrlPtAile3"
         cx="2426.1379"
         cy="904.07336"
         r="20" />
      <circle
         style="display:none;fill:#000000;fill-opacity:1;stroke-width:3.69433"
         id="ctrlPtAile4"
         cx="2440.7207"
         cy="978.80945"
         r="20" />
      <circle
         style="display:none;fill:#000000;fill-opacity:1;stroke-width:3.69433"
         id="ctrlPtCorps"
         cx="2282.0251"
         cy="857.07031"
         r="20" />
    </g>
  </g>
</svg>
