<?xml version="1.0" encoding="UTF-8" standalone="no"?>
<!-- Created with Inkscape (http://www.inkscape.org/) -->

<svg
   width="1400"
   height="800"
   viewBox="0 0 370.41668 211.66668"
   version="1.1"
   id="svg1"
   xml:space="preserve"
   inkscape:version="1.4 (86a8ad7, 2024-10-11)"
   sodipodi:docname="canon.svg"
   xmlns:inkscape="http://www.inkscape.org/namespaces/inkscape"
   xmlns:sodipodi="http://sodipodi.sourceforge.net/DTD/sodipodi-0.dtd"
   xmlns="http://www.w3.org/2000/svg"
   xmlns:svg="http://www.w3.org/2000/svg"><sodipodi:namedview
     id="namedview1"
     pagecolor="#ffffff"
     bordercolor="#666666"
     borderopacity="1.0"
     inkscape:showpageshadow="2"
     inkscape:pageopacity="0.0"
     inkscape:pagecheckerboard="0"
     inkscape:deskcolor="#d1d1d1"
     inkscape:document-units="mm"
     inkscape:zoom="2.9902323"
     inkscape:cx="314.69127"
     inkscape:cy="656.30353"
     inkscape:window-width="1920"
     inkscape:window-height="1017"
     inkscape:window-x="-8"
     inkscape:window-y="-8"
     inkscape:window-maximized="1"
     inkscape:current-layer="canon"
     showgrid="false" /><defs
     id="defs1" /><g
     inkscape:label="canon"
     inkscape:groupmode="layer"
     id="canon"
     style="display:inline"
     transform="matrix(1.3274891,0,0,1.3274891,-30.354121,-44.137807)"><g
       inkscape:groupmode="layer"
       id="tube"
       inkscape:label="tube"
       style="display:inline"
       transform="rotate(-10.693566,66.377129,162.12777)"><path
         style="opacity:1;fill:#708a95;fill-opacity:1;stroke:none;stroke-width:0.2;stroke-dasharray:none;stroke-opacity:1"
         d="m 36.357142,165.14191 c 1.836344,-2.55477 3.238248,-4.07597 12.687482,-5.86626 l 0.409273,-0.81855 1.432457,-0.27284 0.136425,0.54569 10.027202,-2.11458 -0.204636,-0.68212 1.296035,-0.68212 c 0,0 0.204636,0.95497 0.341061,0.68212 0.136424,-0.27285 31.855129,-7.09408 31.855129,-7.09408 l 0.204637,-0.81854 1.500671,-0.34106 0.409274,0.61391 3.342402,-0.88676 c 0,0 0.06821,-1.22782 0.954966,-1.15961 0.88676,0.0682 1.77352,0.88676 1.77352,0.88676 h 0.27285 l 2.93313,8.25368 -0.95497,0.61391 -10.43648,-4.36558 -48.021438,10.16363 -6.548379,4.70664 z"
         id="path39"
         sodipodi:nodetypes="ccccccccscccccscccccccc" /><path
         style="opacity:1;fill:#033241;fill-opacity:1;stroke:none;stroke-width:0.2;stroke-dasharray:none;stroke-opacity:1"
         d="m 47.066467,160.98096 52.31881,-12.48285 c 0,0 1.091403,-2.04636 1.705313,-1.97815 0.61391,0.0682 1.29603,0.61391 1.29603,0.61391 l 3.20598,9.82257 c 0,0 -0.5457,0.75033 -1.0914,0.68212 -0.5457,-0.0682 -2.66028,-0.95497 -2.66028,-0.95497 l -23.601447,7.98083 -22.646473,6.00268 -10.982174,-1.63709 0.136425,-5.66162 z"
         id="path38" /><path
         style="opacity:1;fill:#011d2e;fill-opacity:1;stroke:none;stroke-width:0.2;stroke-dasharray:none;stroke-opacity:1"
         d="m 35.538592,171.14459 c 0,0 0.199144,1.15046 -0.818547,0.75033 -6.163846,-2.42347 -4.765145,3.87451 -1.771296,3.68435 0.700632,-0.0445 0.95851,-1.22163 1.975933,-1.97903 0.225597,-0.16794 2.251006,-0.68212 2.251006,-0.68212 v 0"
         id="path37"
         sodipodi:nodetypes="cssscc" /><path
         style="opacity:1;fill:#0b5067;fill-opacity:1;stroke:none;stroke-width:0.2;stroke-dasharray:none;stroke-opacity:1"
         d="m 36.280654,165.31829 c 2.727322,-3.17311 7.171257,-3.61354 11.106895,-4.43722 l -0.662144,4.6019 -8.799382,2.31922 z"
         id="path36"
         sodipodi:nodetypes="ccccc" /><path
         style="opacity:1;fill:#32505f;fill-opacity:1;stroke:none;stroke-width:0.2;stroke-dasharray:none;stroke-opacity:1"
         d="m 102.25019,150.27163 c -0.61391,2.25101 -1.1596,2.04637 -0.0682,3.06955 1.0914,1.02319 1.15961,2.04637 1.56888,0.95498 0.40928,-1.0914 -1.50067,-4.02453 -1.50067,-4.02453 z"
         id="path34" /><path
         style="opacity:1;fill:#040c15;fill-opacity:1;stroke:none;stroke-width:0.2;stroke-dasharray:none;stroke-opacity:1"
         d="m 77.011653,160.0942 c 3.342402,0.81855 0.682123,1.02318 3.683463,1.02318 3.001341,0 18.553737,-4.43379 18.894798,-5.0477 0.341064,-0.61391 1.705306,-2.38743 1.637096,-3.27419 -0.0682,-0.88676 -0.40927,-2.1828 -0.0682,-2.1828 0.34106,0 3.75167,6.82123 3.27419,6.95766 -0.47749,0.13642 -2.25101,-0.5457 -2.66028,0 -0.40928,0.54569 -26.466362,9.82256 -26.466362,9.82256 l -0.750335,-6.82122 z"
         id="path33" /><path
         style="opacity:1;fill:#052231;fill-opacity:1;stroke:none;stroke-width:0.2;stroke-dasharray:none;stroke-opacity:1"
         d="m 94.746843,149.65772 c 0,0 0,-0.34106 0.954974,-0.68212 0.954971,-0.34106 3.751673,8.25368 3.751673,8.52653 0,0.27285 -0.06821,1.50067 -0.06821,1.50067 l -1.296032,0.5457 z"
         id="path32" /><path
         style="opacity:1;fill:#120b1a;fill-opacity:1;stroke:none;stroke-width:0.2;stroke-dasharray:none;stroke-opacity:1"
         d="m 51.841325,169.03001 4.774859,-7.43514 c 0,0 6.070894,-2.11458 8.594746,-2.52386 2.523855,-0.40927 10.641116,-1.36424 10.913964,-1.36424 0.272849,0 2.387431,-0.34106 2.251004,1.29603 -0.136425,1.6371 -2.182791,5.25235 -2.182791,5.25235 z"
         id="path30" /><ellipse
         style="opacity:1;fill:#20495b;fill-opacity:1;stroke:none;stroke-width:0.499999;stroke-dasharray:none;stroke-opacity:1"
         id="point_pivot"
         cx="68.853119"
         cy="160.30357"
         rx="1.3265646"
         ry="1.4711175" /><path
         style="opacity:1;fill:#0f4957;fill-opacity:1;stroke:#041f3c;stroke-width:0.2;stroke-dasharray:none;stroke-opacity:1"
         d="m 52.526128,168.04502 c 0.05047,-0.006 -2.346634,-5.21862 -2.652834,-7.91027 -0.03584,-0.31507 0.289404,-0.57879 0.482334,-0.81996 0.192932,-0.24117 1.068601,0.0325 1.254065,0.43409 1.115692,2.4159 2.493611,7.73974 2.604603,7.66911 z"
         id="path27"
         sodipodi:nodetypes="cssscc" /><path
         style="opacity:1;fill:#0f4957;fill-opacity:1;stroke:#041f3c;stroke-width:0.2;stroke-dasharray:none;stroke-opacity:1"
         d="m 62.510434,161.77469 c 0.07504,0.03 -1.128362,-2.72567 -1.205834,-4.341 -0.01806,-0.37665 0.180872,-1.06114 0.663208,-0.91644 0.482333,0.1447 0.786739,0.31748 0.880258,0.67527 0.564271,2.15882 0.991479,4.84904 1.254069,4.53393 l 0.241165,-0.2894 z"
         id="path28"
         sodipodi:nodetypes="csssscc" /><path
         style="opacity:1;fill:#0f4957;fill-opacity:1;stroke:none;stroke-width:0.2;stroke-dasharray:none;stroke-opacity:1"
         d="m 78.103049,156.54716 c 3.77729,0.91254 9.715325,1.54808 15.143125,-3.20598 2.887542,-2.52912 -13.233862,-0.33976 -15.143125,3.20598 z"
         id="path29"
         sodipodi:nodetypes="csc" /><path
         style="opacity:1;fill:#0d4052;fill-opacity:1;stroke:none;stroke-width:0.2;stroke-dasharray:none;stroke-opacity:1"
         d="m 95.292541,150.81733 1.841733,5.59341 c 0,0 0.750334,0.81854 1.296032,0.40927 0.545698,-0.40927 0.136425,-1.97816 0.136425,-1.97816 l -1.637094,-4.09273 c 0,0 -0.136424,-0.47749 -0.545698,-0.5457 -0.409273,-0.0682 -1.091398,0.61391 -1.091398,0.61391 z"
         id="path31" /><path
         style="opacity:1;fill:#011d2e;fill-opacity:1;stroke:none;stroke-width:0.2;stroke-dasharray:none;stroke-opacity:1"
         d="m 40.995576,178.23866 6.411952,-2.38743 3.274189,-6.6848 c -0.4233,-1.70676 -1.847389,-3.24672 -3.342401,-4.77486 -1.988493,2.64001 -7.337406,0.75807 -10.84575,0.68213 -1.978873,6.7093 -0.434843,10.11345 4.50201,13.16496 z"
         id="path35"
         sodipodi:nodetypes="cccccc" /></g><g
       inkscape:groupmode="layer"
       id="layer3"
       inkscape:label="carainage"
       style="display:inline;fill:#792207;fill-opacity:1"
       sodipodi:insensitive="true"><path
         style="opacity:1;fill:#a8897f;fill-opacity:1;stroke:none;stroke-width:0.499999;stroke-dasharray:none;stroke-opacity:1"
         d="m 39.551356,178.994 0.675266,-3.37634 5.160968,0.24117 2.218735,-7.23501 5.980938,-1.10936 3.231634,-5.16097 9.405506,-2.3152 0.289399,1.20583 4.533937,-1.10937 -0.192934,-1.06113 4.678635,-0.7235 2.652836,10.17724 4.437468,2.12227 3.424568,11.8654 -0.868199,0.0965 -5.691536,-11.52778 -8.296138,-3.3281 -12.05834,-0.5788 -9.743138,3.3281 -1.97757,4.91981 c 0,0 -2.4599,2.12227 -2.893999,2.1705 -0.434102,0.0482 -4.968036,1.39877 -4.968036,1.39877 z"
         id="path25" /><path
         style="opacity:1;fill:#792207;fill-opacity:1;stroke:none;stroke-width:0.499999;stroke-dasharray:none;stroke-opacity:1"
         d="m 9.9824977,178.50583 -1.2960324,3.95631 47.5439527,-0.0682 -1.159608,-3.8881 z"
         id="path15"
         transform="translate(29.717042,0.414953)" /><path
         style="opacity:1;fill:#a24a27;fill-opacity:1;stroke:#7f4a37;stroke-width:0.499999;stroke-dasharray:none;stroke-opacity:1"
         d="m 56.14363,164.57222 1.109366,-1.7364 17.942811,-3.95513 0.5788,5.3539 z"
         id="path24" /><path
         style="opacity:1;fill:#9e4322;fill-opacity:1;stroke:#973615;stroke-width:0.499999;stroke-dasharray:none;stroke-opacity:1"
         d="m 53.153161,168.86499 2.990469,-4.29277 19.775678,-1.25407 1.3023,6.41504 z"
         id="path23" /><path
         style="opacity:1;fill:#983f1a;fill-opacity:1;stroke:#7e351e;stroke-width:0.499999;stroke-dasharray:none;stroke-opacity:1"
         d="m 46.207558,174.99063 1.688168,-5.69154 3.858668,-0.5788 25.467214,0.24117 5.160971,2.21873 1.012899,2.7493 z"
         id="path22" /><path
         style="opacity:1;fill:#903416;fill-opacity:1;stroke:#822805;stroke-width:0.499999;stroke-dasharray:none;stroke-opacity:1"
         d="m 39.696053,178.994 0.916435,-2.65284 h 5.064503 l 0.5788,-1.54347 37.139688,-0.96466 1.254067,5.69153 z"
         id="path21"
         sodipodi:nodetypes="ccccccc" /></g><g
       id="roue2"
       transform="translate(0.112917,0.27852849)"
       inkscape:label="roue arriere"
       sodipodi:insensitive="true"
       style="display:inline"><path
         style="opacity:1;fill:#be381d;fill-opacity:1;stroke:#b18477;stroke-width:0.15875;stroke-opacity:1"
         d="m 46.352257,188.25481 c 4.603933,0.17719 5.78141,-4.20225 4.148071,-8.48908 -1.447438,-3.79892 -10.198171,-2.69911 -10.321937,2.65284 -0.06547,2.83117 2.362595,5.68955 6.173866,5.83624 z"
         id="path3"
         sodipodi:nodetypes="ssss" /><ellipse
         style="opacity:0.8;fill:#1d453d;fill-opacity:1;stroke-width:0.15875"
         id="path2"
         cx="45.497585"
         cy="182.97942"
         rx="0.98907793"
         ry="0.92086571" /><ellipse
         style="opacity:0.8;fill:#2d5d61;fill-opacity:1;stroke-width:0.101513"
         id="path1"
         cx="45.456287"
         cy="182.96271"
         rx="0.43618411"
         ry="0.39256567" /><path
         style="opacity:0.8;fill:#ce7459;fill-opacity:1;stroke:none;stroke-width:0.15875"
         d="m 40.708954,181.45389 c 2.411472,-5.09379 8.854644,-4.76293 10.032541,-0.57879 0.181057,0.64315 -7.088058,-4.43995 -10.032541,0.57879 z"
         id="path4"
         sodipodi:nodetypes="csc" /></g><g
       id="roue1"
       style="display:inline;stroke:none"
       transform="translate(29.717042,0.414953)"
       inkscape:label="roue avant"
       sodipodi:insensitive="true"><path
         style="opacity:1;fill:#be381d;fill-opacity:1;stroke:none;stroke-width:0.15875;stroke-opacity:1"
         d="m 47.102592,188.25481 c 5.706465,-1.29285 5.019381,-9.2571 1.283156,-10.74008 -3.77856,-1.49979 -8.220016,-0.0388 -8.343782,5.31311 -0.06547,2.83117 3.340806,6.26973 7.060626,5.42697 z"
         id="path6"
         sodipodi:nodetypes="ssss" /><ellipse
         style="opacity:0.8;fill:#1d453d;fill-opacity:1;stroke:none;stroke-width:0.15875"
         id="ellipse6"
         cx="45.497585"
         cy="182.97942"
         rx="0.98907793"
         ry="0.92086571" /><ellipse
         style="opacity:0.8;fill:#2d5d61;fill-opacity:1;stroke:none;stroke-width:0.101513"
         id="ellipse7"
         cx="45.456287"
         cy="182.96271"
         rx="0.43618411"
         ry="0.39256567" /><path
         style="opacity:0.8;fill:#ce7459;fill-opacity:1;stroke:none;stroke-width:0.15875"
         d="m 40.708954,181.45389 c 2.411472,-5.09379 8.854644,-4.76293 10.032541,-0.57879 0.181057,0.64315 -7.088058,-4.43995 -10.032541,0.57879 z"
         id="path7"
         sodipodi:nodetypes="csc" /></g><g
       id="g10"
       style="display:inline;stroke:none"
       transform="translate(29.717042,0.414953)"
       inkscape:label="anneau"
       sodipodi:insensitive="true"><ellipse
         style="opacity:1;fill:none;fill-opacity:1;stroke:#212324;stroke-width:0.499999;stroke-dasharray:none;stroke-opacity:1"
         id="path16"
         cx="52.523445"
         cy="174.89624"
         rx="1.7053068"
         ry="1.6370945"
         transform="translate(-29.717042,-0.414953)" /><circle
         style="opacity:1;fill:none;fill-opacity:1;stroke:none;stroke-width:0.5;stroke-dasharray:none;stroke-opacity:1"
         id="path10"
         cx="22.851097"
         cy="174.21906"
         r="1.75" /><path
         style="opacity:1;fill:#212324;fill-opacity:1;stroke:none;stroke-width:0.15875;stroke-opacity:1"
         d="m 22.704088,173.8674 -1.875838,-1.6712 1.909942,-1.90994 2.592068,2.18279 z"
         id="path9" /><path
         style="opacity:1;fill:#124768;fill-opacity:1;stroke:none;stroke-width:0.15875;stroke-opacity:1"
         d="m 22.66998,173.28759 -1.091396,-0.98907 1.159608,-1.05729 1.296035,1.05729 z"
         id="path8" /></g><g
       id="g18"
       style="display:inline;stroke:none"
       transform="translate(38.925699,0.414953)"
       inkscape:label="anneau"
       sodipodi:insensitive="true"><ellipse
         style="opacity:1;fill:none;fill-opacity:1;stroke:#212324;stroke-width:0.499999;stroke-dasharray:none;stroke-opacity:1"
         id="ellipse16"
         cx="52.523445"
         cy="174.89624"
         rx="1.7053068"
         ry="1.6370945"
         transform="translate(-29.717042,-0.414953)" /><circle
         style="opacity:1;fill:none;fill-opacity:1;stroke:none;stroke-width:0.5;stroke-dasharray:none;stroke-opacity:1"
         id="circle16"
         cx="22.851097"
         cy="174.21906"
         r="1.75" /><path
         style="opacity:1;fill:#212324;fill-opacity:1;stroke:none;stroke-width:0.15875;stroke-opacity:1"
         d="m 22.704088,173.8674 -1.875838,-1.6712 1.909942,-1.90994 2.592068,2.18279 z"
         id="path17" /><path
         style="opacity:1;fill:#124768;fill-opacity:1;stroke:none;stroke-width:0.15875;stroke-opacity:1"
         d="m 22.66998,173.28759 -1.091396,-0.98907 1.159608,-1.05729 1.296035,1.05729 z"
         id="path18" /></g><g
       id="g20"
       style="display:inline;stroke:none"
       transform="translate(48.27078,0.61958982)"
       inkscape:label="anneau"
       sodipodi:insensitive="true"><ellipse
         style="opacity:1;fill:none;fill-opacity:1;stroke:#212324;stroke-width:0.499999;stroke-dasharray:none;stroke-opacity:1"
         id="ellipse18"
         cx="52.523445"
         cy="174.89624"
         rx="1.7053068"
         ry="1.6370945"
         transform="translate(-29.717042,-0.414953)" /><circle
         style="opacity:1;fill:none;fill-opacity:1;stroke:none;stroke-width:0.5;stroke-dasharray:none;stroke-opacity:1"
         id="circle18"
         cx="22.851097"
         cy="174.21906"
         r="1.75" /><path
         style="opacity:1;fill:#212324;fill-opacity:1;stroke:none;stroke-width:0.15875;stroke-opacity:1"
         d="m 22.704088,173.8674 -1.875838,-1.6712 1.909942,-1.90994 2.592068,2.18279 z"
         id="path19" /><path
         style="opacity:1;fill:#124768;fill-opacity:1;stroke:none;stroke-width:0.15875;stroke-opacity:1"
         d="m 22.66998,173.28759 -1.091396,-0.98907 1.159608,-1.05729 1.296035,1.05729 z"
         id="path20" /></g></g></svg>
