<?xml version="1.0" encoding="UTF-8" standalone="no"?>
<!-- Creator: CorelDRAW 2018 (64 Bit) -->

<svg
   xml:space="preserve"
   width="82.83477mm"
   height="96.203377mm"
   version="1.1"
   style="clip-rule:evenodd;fill-rule:evenodd;image-rendering:optimizeQuality;shape-rendering:geometricPrecision;text-rendering:geometricPrecision"
   viewBox="0 0 8283.477 9620.3377"
   id="svg276"
   sodipodi:docname="batman.svg"
   inkscape:version="1.4 (86a8ad7, 2024-10-11)"
   xmlns:inkscape="http://www.inkscape.org/namespaces/inkscape"
   xmlns:sodipodi="http://sodipodi.sourceforge.net/DTD/sodipodi-0.dtd"
   xmlns="http://www.w3.org/2000/svg"
   xmlns:svg="http://www.w3.org/2000/svg"><sodipodi:namedview
   id="namedview276"
   pagecolor="#ffffff"
   bordercolor="#666666"
   borderopacity="1.0"
   inkscape:showpageshadow="2"
   inkscape:pageopacity="0.0"
   inkscape:pagecheckerboard="0"
   inkscape:deskcolor="#d1d1d1"
   inkscape:document-units="mm"
   inkscape:zoom="1.0268353"
   inkscape:cx="121.73325"
   inkscape:cy="183.57374"
   inkscape:window-width="1920"
   inkscape:window-height="1017"
   inkscape:window-x="-8"
   inkscape:window-y="-8"
   inkscape:window-maximized="1"
   inkscape:current-layer="Camada_x0020_1" />
 <defs
   id="defs1">
  <style
   type="text/css"
   id="style1">
   <![CDATA[
    .fil37 {fill:none}
    .fil10 {fill:#FEFEFE}
    .fil29 {fill:#E6E7E8}
    .fil22 {fill:#D2D3D5}
    .fil4 {fill:#606062}
    .fil2 {fill:#4B4B4D}
    .fil6 {fill:#414041}
    .fil28 {fill:#ACA77B}
    .fil26 {fill:#DE9E89}
    .fil34 {fill:#F7ADAF}
    .fil24 {fill:#F8AC92}
    .fil35 {fill:#DB8488}
    .fil9 {fill:#DB8473}
    .fil32 {fill:#EF494F}
    .fil31 {fill:#ED3237}
    .fil30 {fill:#D23034}
    .fil16 {fill:#D99A30}
    .fil20 {fill:#D38D73}
    .fil5 {fill:#524E4F}
    .fil8 {fill:#B7766B}
    .fil3 {fill:#403F40}
    .fil14 {fill:#867277}
    .fil27 {fill:#807956}
    .fil7 {fill:#3B3B3B}
    .fil36 {fill:#373838}
    .fil11 {fill:#2C5086}
    .fil15 {fill:#2A4878}
    .fil0 {fill:#201E1E}
    .fil18 {fill:#201E1E}
    .fil23 {fill:black}
    .fil12 {fill:#015EAC}
    .fil13 {fill:#919296}
    .fil21 {fill:#919296}
    .fil19 {fill:#F3BF97}
    .fil25 {fill:#FCD3B3}
    .fil17 {fill:#FED406}
    .fil33 {fill:#FEFEFE;fill-rule:nonzero}
    .fil1 {fill:black;fill-rule:nonzero}
   ]]>
  </style>
 </defs>
 <g
   id="Camada_x0020_1"
   inkscape:label="Camada 1"
   inkscape:groupmode="layer"
   transform="translate(-7290.7915,-1513.7584)">
  <metadata
   id="CorelCorpID_0Corel-Layer" />
  
  
  
  
  
  
  
  
  
  
  
  
  
  
  
  
  
  
  
  
  
  
  
  
  
  
  
  
  
  
  
  
  
  
  
  
  
  <path
   class="fil11"
   d="m 8014.52,3412.07 c 506.79,178.39 1153.59,-304.48 1196.56,-848.39 365.22,269.45 1145.66,-29.08 1387.58,-583.37 962.23,630.65 1392.43,250.1 2128.8,-446.15 373.31,820.03 1560.33,793.77 2680.41,328.41 -540.13,665.32 -525.6,1279.06 148.2,1831.46 -1791.32,356.6 -2366.75,1551.75 -2519.57,3038.33 L 11001.24,7887.22 C 9901.99,6920.09 8810.37,5930.11 7388.87,5929.78 c 540.65,-478.05 128.88,-1243.79 -79.88,-1300.11 552.7,105.19 1094.64,-788.45 705.53,-1217.6 z"
   id="path36" />
  <path
   class="fil10"
   d="m 8014.52,3412.07 c 381.82,134.4 843.06,-106.57 1065.72,-466.17 -189.22,361.44 -620.4,624.54 -1002.13,554.16 -17.54,-30.98 -38.62,-60.45 -63.59,-87.99 z m 1186.09,-769.75 c 4.84,-26.02 8.39,-52.25 10.47,-78.63 337.22,248.78 1028.4,13.33 1322.84,-460.56 -264.18,502.92 -973.03,769.21 -1333.31,539.19 z m 1366.85,-597.65 c 11.18,-21.06 21.65,-42.49 31.2,-64.37 962.23,630.67 1392.43,250.1 2128.8,-446.14 373.31,820.03 1560.33,793.77 2680.4,328.41 -18.9,23.28 -37.04,46.48 -54.58,69.63 -1114.38,457.66 -2289.93,479.03 -2661.1,-336.3 -735.32,695.25 -1165.38,1075.66 -2124.72,448.77 z m 4617.83,144.95 c -294.47,540.36 -191.16,1043.72 370.78,1504.41 -29.27,5.83 -58.17,11.91 -86.79,18.18 -536.68,-466.41 -610.71,-975.86 -283.99,-1522.59 z M 13500.58,5073.8 c -264.8,476.92 -400.77,1042.69 -464.08,1658.56 l -30.5,17.3 c 68.15,-625.32 213.11,-1197.65 494.58,-1675.86 z m -6084.24,856.29 c -9.16,-0.08 -18.28,-0.31 -27.47,-0.31 62.02,-54.84 111.37,-113.5 150.07,-174.4 -30.72,60.37 -71.09,119.05 -122.6,174.71 z m -5.58,-1232.45 c -35.85,-35.89 -71.02,-59.67 -101.77,-67.97 270.25,51.44 537.87,-135.97 695.37,-391.08 -126.75,240.67 -351.53,436.5 -593.6,459.05 z"
   id="path37" />
  <path
   class="fil1"
   d="m 8008.34,3393.01 c 53.2,18.59 108.27,29.74 164.21,34.15 200.57,15.83 410.05,-55.16 586.86,-179.47 177.07,-124.51 321.21,-302.38 390.78,-500.04 22.69,-64.49 37.45,-131 42.76,-198.32 0.61,-7.67 8.61,-8.03 18.11,-1.02 25.83,19.02 54.09,35.11 84.3,48.29 166.13,72.5 387.67,58.82 603.8,-21.13 217.21,-80.36 428.09,-227.74 571.5,-422.13 43.75,-59.29 81.18,-122.87 110.52,-190.11 2.09,-4.72 8.48,-4.26 15.7,0.47 475.53,311.65 819.92,373.36 1136.67,271.04 318.74,-102.97 610.01,-371.83 977.7,-719.49 4.53,-4.22 15.47,0.82 24.42,11.26 3.26,3.8 5.8,7.79 7.51,11.54 168.05,369.14 513,560.19 945.44,613.17 499,61.13 1111.03,-61.99 1704.54,-308.57 5.91,-2.5 17.3,4.39 25.41,15.39 6.99,9.47 9.28,18.91 6.01,22.94 -268.89,331.31 -399.79,649.15 -379.63,952.19 19.73,296.55 186.49,579.25 512.91,846.86 10,8.22 17.3,21.16 16.32,28.89 -0.41,3.27 -2.25,5.08 -4.98,5.47 -893.89,178.02 -1484.41,565.2 -1870.46,1093.28 -386.12,528.15 -567.85,1197.37 -644.12,1939.31 -0.25,2.44 -1.27,4.11 -2.86,5 l -2035.22,1154.91 c -4.31,2.45 -12.25,-0.95 -19.56,-7.83 l -73.2,-64.43 C 9853.79,6892.59 8783.76,5950.51 7400.84,5950.2 c -7.56,0.01 -19.06,-9.13 -25.67,-20.4 -5.31,-9.05 -5.85,-16.74 -1.94,-19.42 128.26,-113.55 202.44,-243.41 238.21,-376 43.34,-160.63 30.15,-324.91 -11.38,-468.66 -40.68,-140.82 -108.03,-260.71 -175.1,-336.57 -37.87,-42.83 -75.46,-70.96 -107.12,-79.5 -8.78,-2.34 -19.87,-13.2 -24.75,-24.23 -4.68,-10.57 -1.98,-17.48 5.98,-15.97 182.78,34.78 365,-41.89 511.98,-175.15 76.02,-68.92 142.6,-153.12 194.91,-244.95 52.17,-91.58 90.09,-190.7 108.94,-289.79 33.71,-177.14 7.14,-352.12 -107.65,-478.72 -9.22,-10.2 -13.45,-22.41 -9.44,-27.25 2.08,-2.51 5.98,-2.55 10.53,-0.58 z m 186.65,74.97 c -47.58,-3.75 -94.88,-12.33 -141.33,-26.13 105.75,140.47 130.24,315.54 97.3,488.65 -19.16,100.69 -57.63,201.31 -110.54,294.19 -52.78,92.64 -120.09,177.72 -197.09,247.53 -132.2,119.87 -293.19,194.59 -458.78,185.64 18.4,15.28 37.15,33.66 55.83,54.79 75.49,85.38 150.44,217.39 194.4,369.57 43.12,149.24 56.97,319.19 12.4,484.38 -32.38,120.03 -95.7,237.82 -201.21,343.59 1362.55,30.98 2423.26,964.8 3483.93,1898.64 l 62.53,55.04 2026.34,-1149.8 c 76.76,-743.15 259.21,-1413.5 646.19,-1942.82 384.2,-525.55 970.03,-912.01 1854.05,-1092.7 -324.11,-276.01 -490.24,-566.53 -510.46,-870.42 -18.98,-285.19 92.55,-581.95 324.1,-889.3 -567.19,223.03 -1145.75,331.49 -1622.63,273.07 -438.45,-53.72 -793.49,-248.75 -980.88,-625.1 -361.82,341.9 -650.42,605.77 -967.17,708.1 -320.26,103.45 -668.89,42.01 -1149.18,-269.96 -29.26,65.48 -65.94,127.29 -108.43,184.88 -144.58,195.97 -357.22,344.58 -576.26,425.61 -220.14,81.44 -447.65,94.55 -620.52,19.11 -27.89,-12.17 -54.48,-26.64 -79.51,-43.48 -6.24,64.64 -20.82,128.27 -42.5,189.87 -70.37,199.92 -215.96,379.7 -394.76,505.42 -179.06,125.89 -391.69,197.75 -595.82,181.63 z"
   id="path38" />
  <path
   class="fil12"
   d="M 10330.33,7304.23 C 9445.49,6559.14 8521.98,5930.04 7388.87,5929.78 7916.6,5463.17 7536.93,4722.56 7324.33,4635.04 8867.12,4890.72 10621.52,7150.05 11179.08,7664 Z"
   id="path39" />
  <path
   class="fil11"
   d="m 8938.41,5460.88 c 515.85,404.17 1000.1,889.93 1397.97,1311.32 -657.13,-142.04 -1173.28,-324.58 -1223.89,-449 -129.9,-319.33 -167.63,-750.15 -174.08,-862.32 z"
   id="path40" />
  <path
   class="fil1"
   d="M 10328.08,7317.84 C 9887.57,6946.9 9437.59,6604.91 8957.26,6355.91 8476.75,6106.83 7965.06,5950.32 7400.84,5950.2 c -7.56,0.01 -19.06,-9.13 -25.67,-20.4 -5.31,-9.05 -5.85,-16.74 -1.94,-19.42 99.45,-88.05 166.44,-186 208.2,-287.44 71.28,-173.14 68.78,-356.05 29.29,-517.2 -38.69,-157.91 -112.32,-293.45 -185.72,-376.46 -32.88,-37.18 -65.47,-63.26 -94.08,-75.04 -9.36,-3.83 -19.91,-15.54 -23.54,-26.14 -3.13,-9.14 -0.12,-14.48 6.77,-13.32 1239.73,205.44 2612.07,1692.88 3400.12,2547.03 197.26,213.81 357.6,387.6 468.7,490.01 9.83,9.07 16.05,21.89 13.91,28.62 -1.48,4.66 -6.6,5.18 -12.88,2.05 l -847.38,-359.2 c -2.82,-1.2 -5.74,-3.1 -8.54,-5.45 z M 8948.14,6319.47 c 484.3,251.06 937.11,594.73 1380.03,967.46 l 790.04,334.89 C 11009.8,7515.36 10868.36,7362.07 10700.43,7180.05 9931.65,6346.8 8602.14,4905.8 7394.15,4666.2 c 15.33,13.52 30.83,29.11 46.27,46.58 82.27,93.04 163.98,241.67 205.6,411.52 40.82,166.6 43.64,355.14 -29.43,532.62 -36.37,88.36 -91.68,174.15 -170.61,253.26 541.7,12.35 1036.18,167.74 1502.16,409.29 z"
   id="path41" />
  <path
   class="fil12"
   d="m 15078.7,1992.53 c 107.3,-39.9 217.17,-83.43 329.17,-129.96 -540.13,665.32 -525.6,1279.06 148.2,1831.46 -1791.32,356.6 -2366.75,1551.75 -2519.57,3038.33 l -234.31,-35.79 c -73.6,-871.84 -53.91,-2235.93 594.24,-3224.86 518.91,-791.73 1167.49,-1234.61 1682.27,-1479.18 z"
   id="path42" />
  <path
   class="fil10"
   d="m 15169.43,1958.18 c 78.27,-30.16 157.79,-62.11 238.43,-95.61 -540.11,665.33 -525.59,1279.06 148.21,1831.46 -22.44,4.47 -44.55,9.16 -66.61,13.89 -256.37,-212.8 -625.13,-643.75 -644.45,-1006.89 -14.83,-278.69 178.16,-565.36 324.42,-742.85 z"
   id="path43" />
  <path
   class="fil11"
   d="m 13388.79,5296.81 c -192.54,426.71 -298.58,913.09 -352.29,1435.55 l -234.31,-35.79 c -48.15,-570.42 -56.34,-1351.57 125.27,-2100.49 236.76,139.23 387.65,379.94 461.33,700.73 z"
   id="path44" />
  <path
   class="fil1"
   d="m 15064.95,1972.29 c 51.76,-19.24 105.83,-40.05 161.93,-62.22 55.72,-22.02 111.14,-44.52 166.28,-67.42 5.91,-2.5 17.3,4.39 25.41,15.39 6.99,9.47 9.28,18.91 6.01,22.94 -268.89,331.31 -399.79,649.15 -379.63,952.19 19.73,296.55 186.49,579.25 512.91,846.86 10,8.22 17.3,21.16 16.32,28.89 -0.41,3.27 -2.25,5.08 -4.98,5.47 -893.89,178.02 -1484.41,565.2 -1870.46,1093.28 -386.12,528.15 -567.85,1197.37 -644.12,1939.31 -0.48,4.66 -3.76,6.5 -8.43,5.54 l -233.66,-35.69 c -8.24,-1.25 -19.55,-11.35 -25.26,-22.53 -1.91,-3.74 -2.95,-7.13 -3.18,-9.93 -36.87,-436.71 -50.38,-996.69 26.49,-1571.23 76.88,-574.67 244.16,-1164.03 568.83,-1659.4 259.72,-396.29 551.96,-705.32 843.7,-945.89 291.87,-240.69 583.05,-412.78 840.62,-535.13 z m 191.21,-22.28 c -53.16,21 -107.24,41.78 -162.31,62.26 l -0.18,0.09 c -257.19,122.17 -547.73,293.83 -838.54,533.65 -290.97,239.94 -582.5,548.24 -841.66,943.67 -323.48,493.54 -490.14,1080.74 -566.73,1653.28 -74.96,560.26 -63.71,1106.48 -28.79,1537.34 l 201.14,30.72 c 76.94,-741.94 259.42,-1411.18 645.87,-1939.77 384.2,-525.55 970.03,-912.01 1854.05,-1092.7 -324.11,-276.01 -490.24,-566.53 -510.46,-870.42 -18.96,-284.94 92.35,-581.43 323.49,-888.5 -25.6,10.38 -50.9,20.51 -75.88,30.38 z"
   id="path45" />
  <path
   class="fil13"
   d="m 12439.31,10186.21 c 138.52,206.23 377.69,396.1 182.5,441.38 -302.82,70.24 -1005.68,-52.05 -1469.95,-267.6 -54.51,151.97 -94.13,293 -119.59,350.12 -187.44,420.76 -462.43,408.28 -591.58,8.34 -129.15,-399.94 -51.15,-923.69 266.63,-1170.68 352.76,-274.15 1593.48,432.21 1731.99,638.44 z"
   id="path46" />
  <path
   class="fil10"
   d="m 10543.15,9729.07 c 45.03,-69.61 99.66,-131.15 164.18,-181.29 186.38,-144.86 620.65,-15.96 1009.26,168.25 12.85,33.26 9.97,48.5 9.97,48.5 0,0 -626.2,-223.5 -821.5,-217.46 -195.3,6.04 -332.23,144.97 -338.27,163.09 z"
   id="path47" />
  <path
   class="fil14"
   d="m 12439.31,10186.21 c 138.51,206.23 377.69,396.1 182.49,441.38 -302.81,70.24 -1005.67,-52.05 -1469.93,-267.6 -54.51,151.97 -94.14,293 -119.6,350.12 -132.54,297.52 -308.84,378.36 -446.41,258.84 61.6,-300.84 183.48,-826.56 312.66,-995.32 184.69,-241.29 971.12,232.35 971.12,232.35 0,0 -11.91,-116.17 336.62,-199.58 l 16.4,-3.88 c 108.84,74.22 187.4,140.13 216.65,183.69 z"
   id="path48" />
  <path
   class="fil1"
   d="m 12463.59,10160.5 c 35.97,53.56 79.98,107.33 121.05,157.53 64.34,78.63 121.61,148.62 134.13,202.61 15.14,65.3 -12.3,112.92 -110.31,135.64 -155.14,35.98 -412.57,22.35 -689.21,-28.01 -259.27,-47.19 -535.83,-126.54 -761.04,-227.32 -17.74,51.55 -33.98,101.68 -48.4,146.2 -22.23,68.64 -40.24,124.22 -54.87,157.04 l -1.13,2.38 c -60.36,134.74 -130.98,229.92 -204.78,286.35 -53.44,40.87 -106.84,60.09 -157.71,58.15 -48.01,-1.83 -94.29,-22.71 -136.46,-62.11 -54.76,-51.16 -103.02,-133.87 -139.55,-247 -68.12,-210.95 -79.13,-456.64 -28.39,-679.44 48.51,-213.01 153.5,-406.99 319.21,-535.78 5.49,-4.26 10.94,-8.22 16.25,-11.78 190.73,-128.1 583.25,-22.95 948.57,141.81 362.6,163.56 700.94,385.08 785.11,493.38 2.81,3.61 5.34,7.08 7.53,10.35 z m 73.29,210.33 c -40.73,-49.78 -84.37,-103.1 -121.85,-158.91 -2.05,-3.07 -4.35,-6.22 -6.83,-9.41 -83.09,-106.91 -418.95,-326.43 -779.55,-489.08 -357.88,-161.4 -737.66,-267.61 -910.35,-151.63 -3.58,2.4 -6.86,4.76 -9.77,7.02 -138.52,107.65 -227.91,276.98 -271.01,466.22 -49.03,215.25 -37.98,453.89 28.55,659.9 35.64,110.36 82.34,190.7 135.11,240 39.31,36.73 81.8,56.17 125.28,57.83 40.64,1.55 81.59,-12.5 120.81,-42.49 55.44,-42.39 110.91,-119.29 161.42,-232.08 l 0.91,-2.17 c 12.58,-28.22 29.89,-81.65 51.27,-147.66 18.72,-57.78 40.53,-125.11 66.26,-196.94 1.69,-5.64 5.01,-12.08 9.83,-18.48 11.78,-15.66 28.02,-25.2 36.25,-21.32 229.13,106.38 516.22,189.97 784.28,238.76 273.43,49.77 526.65,63.53 677.65,28.51 27.65,-6.41 35.85,-17.95 32.33,-33.16 -11.43,-49.3 -67.55,-117.87 -130.59,-194.91 z"
   id="path49" />
  <path
   class="fil12"
   d="m 11158.8,10370.62 c -73.16,221.4 -171.53,555.59 -363.24,648.51 -134.52,65.2 -273.75,-41.16 -354.22,-290.38 -86.72,-268.54 -81.01,-592.3 26.7,-852.63 69.05,-59.82 150.16,-94.31 236.96,-94.31 237.79,0 432.99,258.74 453.8,588.81 z"
   id="path50" />
  <path
   class="fil11"
   d="m 11158.81,10370.62 c -73.17,221.41 -171.54,555.6 -363.25,648.52 -72.56,35.16 -146.49,20.39 -211.83,-39.77 60.89,-298.95 184.11,-835.01 314.79,-1005.74 21.18,-27.68 50.36,-45.86 85.28,-56.51 97.4,107.19 163.39,269.22 175.01,453.5 z"
   id="path51" />
  <path
   class="fil1"
   d="m 11175.53,10364.35 -13.92,42.41 c -74.26,227.04 -175.35,536.01 -371.26,630.96 -9.66,4.68 -19.17,8.53 -28.46,11.53 -55.33,17.87 -110.22,9.16 -160.78,-24.4 -49.42,-32.79 -95.2,-89.63 -133.54,-168.74 -16.11,-33.27 -30.89,-70.3 -44,-110.91 -44.18,-136.83 -64.54,-287.95 -59.85,-437.84 4.61,-147.56 33.59,-294.47 88.06,-426.14 2.74,-6.64 7.87,-13.37 13.48,-18.26 38.33,-33.22 79.78,-59.18 123.34,-76.51 41,-16.32 84.07,-25.06 128.37,-25.06 120.49,0 229.99,64.92 312,171.34 82.49,107.02 137.46,256.26 148.01,423.69 0.15,2.32 -0.39,5.05 -1.45,7.93 z m -48.06,57.11 12.97,-39.55 c -10.79,-162.91 -64.56,-308.16 -145.05,-412.58 -79.98,-103.78 -186.14,-167.1 -302.36,-167.1 -41.07,0 -80.65,7.95 -117.99,22.82 -33.81,13.45 -65.68,32.56 -95.02,56.51 -49.23,123.02 -75.53,260.64 -79.88,399.76 -4.62,147.47 15.44,296.23 58.95,430.98 13.04,40.38 27.55,76.84 43.24,109.23 37.43,77.24 81.98,132.63 129.98,164.48 46.86,31.1 96.61,39.54 145.66,23.7 7.79,-2.51 15.42,-5.58 22.8,-9.15 163.11,-79.05 257.42,-367.3 326.7,-579.1 z"
   id="path52" />
  <path
   class="fil12"
   d="m 10938.73,10880.33 c -4.25,12.73 -90.52,196.6 -159.82,222.05 -179.16,65.81 -572.77,-267.93 -644.84,-521.84 -44.65,-157.32 37.14,-232.52 191.4,-217.52 283,27.55 662.56,383.15 613.26,517.31 z"
   id="path53" />
  <path
   class="fil10"
   d="m 10140.57,10426.67 c 30.11,-50.62 95.26,-72.37 184.9,-63.65 4.27,0.42 8.55,0.91 12.86,1.48 111,28.98 244.92,98.55 244.92,98.55 0,0 -91.54,-40.2 -178.12,-51.33 -86.58,-11.13 -134.2,13.6 -135.44,17.31 l -128.02,9.28 c 0,0 -1.12,-5.21 -1.1,-11.64 z"
   id="path54" />
  <path
   class="fil11"
   d="m 10938.73,10880.33 c -4.25,12.73 -90.52,196.59 -159.82,222.05 -55.39,20.35 -131.29,2.46 -211.84,-39.41 24.68,-126.63 67.62,-333.55 121.18,-536.81 160.45,120.24 279.43,275.39 250.48,354.17 z"
   id="path55" />
  <path
   class="fil1"
   d="m 10958.98,10899.16 c -2.8,8.45 -40.77,90.38 -86.02,153.25 -24.73,34.36 -51.96,63.45 -77.55,72.84 l -0.42,0.14 c -2.8,1.01 -5.85,1.99 -9.07,2.9 -92.75,26.32 -233.7,-39.48 -363.2,-144.08 -130.59,-105.47 -250.12,-250.85 -298.41,-382.23 -3.82,-10.35 -7.22,-20.72 -10.12,-30.98 -11.22,-39.55 -15.02,-74.23 -12.14,-103.9 3.08,-31.71 13.8,-57.72 31.21,-77.89 17.14,-19.86 40.96,-34.07 70.5,-42.44 30.61,-8.68 67.34,-11.07 109.15,-7.01 41.96,4.08 85.88,15.1 130.13,31.36 126.74,46.58 257.71,136.64 355.62,231.27 103.6,100.11 171.66,206.17 164.77,276.89 -0.66,6.82 -2.14,13.48 -4.45,19.88 z m -124.7,111.69 c 44.54,-61.89 81.49,-141.25 84.19,-149.36 l 0.12,-0.24 c 1.69,-4.59 2.8,-9.74 3.34,-15.33 5.14,-52.84 -50.19,-136.45 -134.1,-217.55 l -0.07,-0.09 c -89.58,-86.59 -210.29,-169.33 -328.04,-212.6 -41.56,-15.27 -82.64,-25.61 -121.69,-29.4 -39.33,-3.82 -73.75,-1.62 -102.25,6.47 -27.01,7.66 -48.81,20.68 -64.54,38.9 -15.47,17.92 -24.98,40.91 -27.69,68.81 -2.49,25.72 0.76,55.66 10.4,89.64 2.42,8.56 5.3,17.32 8.55,26.16 l 0.03,0.11 c 41.82,113.86 147.5,241.55 263.57,335.3 117.19,94.65 244.48,154.29 327.8,130.64 2.59,-0.73 5.31,-1.62 8.12,-2.64 l 0.39,-0.16 c 22.87,-8.39 48.31,-35.93 71.87,-68.66 z"
   id="path56" />
  <path
   class="fil15"
   d="m 10858.59,11024.6 c -25.48,36.58 -53.77,68.26 -79.68,77.78 -179.16,65.81 -572.77,-267.93 -644.84,-521.84 -12.13,-42.75 -14.92,-79.43 -9.45,-109.89 15.38,-19.11 38.63,-34.62 73.3,-40.92 121.37,-22.06 422.95,118.91 586,344.49 73.59,101.79 89.98,187.36 74.67,250.38 z"
   id="path57" />
  <path
   class="fil1"
   d="m 10870.6,11037.72 c -13.65,19.58 -28.25,37.9 -43.02,52.31 -12.87,12.56 -25.84,22.05 -38.36,26.64 l -0.25,0.08 c -2.89,1.05 -5.93,2.04 -9.05,2.92 -90.98,25.82 -229.37,-38.83 -356.56,-141.56 -127.89,-103.28 -244.83,-245.35 -291.89,-373.45 -3.69,-10.01 -6.99,-20.07 -9.82,-30.08 -6.29,-22.18 -10.19,-42.75 -11.81,-61.69 -1.66,-19.3 -0.97,-37.07 1.93,-53.22 0.16,-0.88 0.48,-1.6 0.93,-2.16 8.43,-10.47 19.07,-19.87 32.36,-27.29 11.95,-6.66 26.26,-11.87 43.3,-14.96 67.31,-12.24 188.22,24.13 311.29,96.48 105.89,62.25 213.92,151.34 292.12,259.53 36.92,51.08 60.35,98.34 73.07,141.02 14.13,47.4 15,88.94 6.57,123.68 -0.17,0.7 -0.45,1.28 -0.81,1.75 z m -66.26,25.39 c 13.97,-13.63 28.14,-31.44 41.64,-50.76 7.53,-31.77 6.74,-69.27 -5.86,-111.54 -11.16,-37.44 -31.7,-78.88 -64.05,-123.64 -71.83,-99.37 -172.54,-182.08 -271.88,-240.47 -117.75,-69.22 -232.97,-104.09 -296.71,-92.5 -15.76,2.86 -29.19,7.78 -40.56,14.12 -12.28,6.85 -22.02,15.29 -29.68,24.59 -2.43,14.29 -2.96,30.1 -1.48,47.38 1.49,17.37 5.03,36.14 10.73,56.23 2.49,8.81 5.47,17.87 8.85,27.06 43.05,117.23 151.32,248.25 270.12,344.19 119.49,96.51 249.35,157.31 334.44,133.16 2.81,-0.8 5.64,-1.72 8.46,-2.74 l 0.24,-0.1 c 11.48,-4.21 23.59,-13.12 35.74,-24.98 z"
   id="path58" />
  <path
   class="fil13"
   d="m 11867.2,7233.12 c 113.36,0 221.25,23.38 319.17,65.52 794.28,293.35 1236.44,1461.72 1359.15,2209.76 16.05,67.79 24.59,138.49 24.59,211.19 0,504.32 -408.82,913.15 -913.15,913.15 -495.87,0 -899.4,-395.24 -912.79,-887.87 -102.35,-809.86 -685.23,-1304.28 -685.23,-1703.49 0,-446.39 361.87,-808.26 808.26,-808.26 z"
   id="path59" />
  <path
   class="fil14"
   d="m 12958.19,7966.17 c 135.34,201.32 248.01,427.23 338.65,655.43 73.27,241.58 131.33,460.06 131.33,460.06 0,0 -169.05,-351.62 -588.29,-615.34 -419.24,-263.72 -635.62,-277.24 -1027.82,-40.57 -392.2,236.67 -263.71,588.29 -223.14,716.77 l -17.7,-2.36 c -129.42,-294.18 -296.68,-536.59 -404.24,-747.41 415.12,-189.53 1570.96,-714.65 1537.66,-670.24 -40.57,54.1 -81.14,344.86 54.1,344.86 90.21,0 141.31,-81.22 199.45,-101.2 z"
   id="path60" />
  <path
   class="fil14"
   d="m 12975.3,7992.06 c 20.91,31.89 41.29,64.35 61.1,97.31 31.35,97.87 66.91,239.02 42.32,317.28 -40.22,127.98 -274.25,-307.15 -299.84,-332.74 z"
   id="path61" />
  <path
   class="fil14"
   d="m 11867.2,7233.12 c 113.36,0 221.25,23.38 319.17,65.52 234.27,86.53 437.88,249.22 611.73,454.75 -202.57,233.83 -481.26,436.62 -854.01,600.36 -233.17,102.43 -468.37,163.99 -695.59,188.07 -107.73,-187.91 -189.56,-350.86 -189.56,-500.45 0,-86.06 13.51,-168.96 38.42,-246.75 103.54,-96.86 251.24,-251.59 453.97,-497.43 97.03,-41.24 203.78,-64.07 315.87,-64.07 z"
   id="path62" />
  <path
   class="fil1"
   d="m 11884.3,7203.95 c 56.63,0 111.98,5.78 165.45,16.75 54.78,11.24 107.55,27.96 157.67,49.53 344.36,127.34 622.59,417.8 837.46,767.16 282.85,459.87 456.3,1022.32 526.32,1448.78 8.19,34.65 14.46,70.01 18.63,105.88 4.13,35.59 6.28,71.78 6.28,108.38 l -0.06,1.51 c -0.43,262.4 -109.51,502.49 -285.62,678.61 -173.84,173.82 -411.11,281.36 -670.57,281.36 -250.14,0 -476.88,-99.39 -642.77,-260.76 -166.33,-161.78 -271.81,-386.17 -278.86,-635.5 -56.88,-449.21 -262.75,-801.61 -433.72,-1094.28 -136.82,-234.22 -251.52,-430.55 -251.52,-610.8 0,-234.04 97.43,-448.49 254.91,-605.98 154.86,-154.85 365.91,-250.64 596.4,-250.64 z m 126.75,74.61 c -51.93,-10.66 -105.77,-16.27 -160.95,-16.27 -215.88,0 -408.99,85.16 -546.66,222.82 -135.02,135.03 -218.55,324.73 -218.55,537.06 0,172.91 113.4,367.01 248.66,598.56 172.01,294.46 379.16,649.03 436.51,1102.87 l 0.1,1.54 c 6.61,243.55 110.1,463.29 273.43,622.15 163.04,158.6 385.47,256.28 630.47,256.28 244.85,0 464.18,-96.9 620.83,-253.54 153.75,-153.76 248.95,-369.23 249.26,-610.05 l -0.04,-1.23 c 0,-35.41 -2.07,-70.32 -6.04,-104.54 -4.08,-35.13 -10.19,-69.59 -18.15,-103.22 l -0.17,-0.87 c -69.56,-424.05 -242.16,-983.72 -523.81,-1441.63 -213.38,-346.93 -489.2,-635.19 -829.85,-761.15 l -0.77,-0.29 c -49.12,-21.14 -100.75,-37.51 -154.27,-48.49 z"
   id="path63" />
  <polygon
   class="fil11"
   points="11995.01,7948.17 11250.79,8324.81 11770.38,8406.49 "
   id="polygon63" />
  <path
   class="fil1"
   d="m 11300.36,8319.27 458.89,72.14 198.38,-404.78 z m 477.38,101.71 -519.47,-81.66 c -4.28,-0.62 -10.16,-4.75 -14.75,-10.77 -5.94,-7.78 -7.5,-15.78 -3.49,-17.84 l 743.76,-376.41 c 2.98,-2.09 9.14,0.29 15.01,6.13 6.87,6.84 10.75,15.87 8.66,20.14 l -224.63,458.32 c -0.86,1.66 -2.57,2.48 -5.09,2.09 z"
   id="path64" />
  <path
   class="fil12"
   d="m 13444.14,9057.43 c 44.89,159.26 78.64,312.34 101.38,450.97 16.05,67.79 24.59,138.49 24.59,211.19 0,504.32 -408.82,913.15 -913.15,913.15 -495.87,0 -899.4,-395.24 -912.79,-887.87 -12.54,-99.25 -32.33,-193.72 -57.35,-283.89 245.42,-101.89 523.6,-192.31 822.43,-263.35 329.92,-78.43 648.01,-124.45 934.89,-140.2 z"
   id="path65" />
  <path
   class="fil11"
   d="m 13548.38,9520.87 c 14.2,63.98 21.73,130.47 21.73,198.72 0,504.32 -408.82,913.15 -913.15,913.15 -333.19,0 -624.69,-178.45 -784.15,-444.99 12.1,-35.96 69.06,-118.08 333.45,-181.35 348.53,-83.41 720.89,-116.18 720.89,-116.18 0,0 154.9,98.31 342.57,-71.49 63.2,-57.18 167.77,-171.46 278.66,-297.86 z"
   id="path66" />
  <path
   class="fil1"
   d="m 13453.75,9054.73 c 22.03,78.17 41.41,155 58.15,229.44 17.29,76.93 31.75,151.29 43.35,221.96 8.17,34.52 14.43,69.87 18.62,105.87 4.11,35.37 6.24,71.29 6.24,107.59 0,254.92 -103.34,485.72 -270.38,652.77 -167.05,167.04 -397.85,270.38 -652.77,270.38 -250.25,0 -477.3,-99.63 -643.57,-261.37 -166.62,-162.06 -272.25,-386.57 -279.15,-635.74 -6.22,-49.09 -14.25,-97.14 -23.84,-144.12 -9.58,-47.05 -20.74,-93 -33.19,-137.88 l -2.36,-8.5 8.14,-3.38 c 124.55,-51.71 257.67,-100.52 397.72,-145.36 136.32,-43.64 278.92,-83.48 426.24,-118.49 162.65,-38.66 322.59,-69.5 477.41,-92.71 159.32,-23.89 313.27,-39.71 459.23,-47.72 l 7.98,-0.43 z m 38.69,233.82 c -16.06,-71.46 -34.65,-145.34 -55.75,-220.71 -142.83,8.09 -293.45,23.73 -449.43,47.11 -154.04,23.1 -313.41,53.83 -475.71,92.41 -147.32,35.01 -289.4,74.68 -424.74,118.01 -136.26,43.63 -266.12,91.12 -388.04,141.46 11.62,42.58 22.1,86.15 31.17,130.7 9.67,47.42 17.8,96.11 24.12,146.09 l 0.08,1.02 c 6.62,243.92 110,463.74 273.15,622.43 162.65,158.22 384.78,255.67 629.67,255.67 249.39,0 475.2,-101.1 638.63,-264.52 163.42,-163.43 264.52,-389.23 264.52,-638.63 0,-35.71 -2.08,-70.88 -6.08,-105.33 -4.08,-35.11 -10.22,-69.7 -18.24,-103.59 l -0.11,-0.67 c -11.54,-70.37 -25.97,-144.58 -43.24,-221.45 z"
   id="path67" />
  <path
   class="fil16"
   d="m 13444.14,9057.43 c 27.04,95.97 50.04,189.68 69.03,279.35 -304.5,11.74 -647.27,58.61 -1003.92,143.39 -277.02,65.86 -536.31,148.37 -768.19,241.22 -12.6,-90.69 -31.21,-177.38 -54.24,-260.41 245.42,-101.89 523.6,-192.31 822.43,-263.35 329.92,-78.43 648.01,-124.45 934.89,-140.2 z"
   id="path68" />
  <path
   class="fil1"
   d="m 13456.58,9063.47 c 13.49,47.86 25.92,94.89 37.27,140.85 11.68,47.3 22.37,93.93 32.04,139.55 1.03,4.87 -0.79,7.58 -4.33,7.5 -154.31,5.96 -318.54,20.97 -489.44,45.38 -165.76,23.67 -337.77,56.18 -513.05,97.85 -136.45,32.43 -268.73,68.97 -395.62,108.81 -130.03,40.84 -254.45,85.2 -371.94,132.24 -4.27,1.72 -12.42,-3.26 -18.19,-11.13 -2.96,-4.03 -4.71,-8.04 -5.15,-11.23 -6.32,-45.45 -14.06,-89.45 -23,-132.09 -9,-42.9 -19.35,-85.03 -30.81,-126.34 -1.17,-4.27 -0.32,-7.13 1.96,-8.1 124.46,-51.68 257.44,-100.44 397.29,-145.22 135.92,-43.51 278.37,-83.3 425.82,-118.34 162.55,-38.64 322.34,-69.45 476.96,-92.63 159.33,-23.89 313.15,-39.71 458.85,-47.7 5.21,-0.3 13.44,5.97 18.35,14.01 1.43,2.35 2.43,4.59 2.99,6.59 z m 12.09,127.75 c -9.67,-39.15 -20.01,-78.66 -30.98,-118.36 -140.88,8.23 -289.15,23.73 -442.46,46.71 -154.25,23.13 -313.76,53.89 -476.16,92.49 -147.19,34.98 -289.42,74.71 -425.16,118.16 -138.08,44.21 -269.56,92.36 -392.82,143.41 10.85,39.63 20.74,80.22 29.46,121.79 7.21,34.37 13.59,69.1 19.03,104.16 111.86,-44.23 230.1,-86.1 353.63,-124.89 126.87,-39.83 259.34,-76.42 396.22,-108.95 175.68,-41.76 347.98,-74.33 513.91,-98.03 169.38,-24.19 332.29,-39.18 485.58,-45.28 -9.15,-42.82 -19.24,-86.64 -30.25,-131.21 z"
   id="path69" />
  <path
   class="fil17"
   d="m 13373.03,9344.49 c -112.48,7.98 -229.35,20.49 -349.52,37.63 l -59.86,-273.67 c 118.62,-18.29 234.26,-32.12 345.89,-41.59 z m -434.53,50.44 c -133.8,21.27 -271.28,48.18 -410.96,80.92 l -60.78,-267.95 c 14.11,-3.47 28.28,-6.89 42.49,-10.27 126.89,-30.16 252.02,-55.52 374.3,-76.22 z m -573.57,121.47 c -170.5,45.08 -333.3,96.33 -485.95,152.19 l -53.91,-262.46 c 148.58,-56.31 307.38,-108.31 474.04,-154.46 z m -597.23,194.42 c -8.91,3.51 -17.8,7.03 -26.64,10.57 -12.6,-90.69 -31.21,-177.38 -54.24,-260.41 9.28,-3.86 18.62,-7.69 27.99,-11.51 z"
   id="path70" />
  <path
   class="fil16"
   d="m 13366.45,9344.96 c -110.46,8 -225.11,20.35 -342.94,37.16 l -13.16,-60.17 c 117.08,-17.96 231.24,-31.57 341.48,-40.92 z m -851.44,75.65 c 12.14,-2.97 24.33,-5.9 36.54,-8.81 126.89,-30.16 252.02,-55.52 374.3,-76.22 l 11.95,59.47 c -133.59,21.25 -270.82,48.12 -410.26,80.8 z m -646.07,199.1 c 148.14,-56.09 306.4,-107.88 472.47,-153.87 l 13.25,53.29 c -166.77,44.41 -326.1,94.72 -475.68,149.46 z m -127.59,101.56 -0.69,-2.74 c -2.13,-15.21 -4.44,-30.31 -6.91,-45.3 l 23.36,-9.59 9.63,47.57 c -8.5,3.34 -16.97,6.69 -25.39,10.06 z"
   id="path71" />
  <path
   class="fil1"
   d="m 13382.01,9359.06 c -56.04,3.99 -113.59,9.15 -172.42,15.47 l -0.42,0.03 c -57.89,6.23 -116.72,13.61 -176.29,22.1 -4.97,0.7 -13.21,-5.23 -18.38,-13.26 -2.02,-3.14 -3.28,-6.14 -3.76,-8.67 l -59.78,-273.3 c -0.99,-4.57 0.53,-7.27 3.63,-7.54 59.24,-9.12 117.46,-17.12 174.45,-23.98 58.69,-7.05 115.88,-12.94 171.4,-17.64 5.14,-0.44 13.39,5.73 18.41,13.78 1.97,3.15 3.14,6.13 3.54,8.61 l 63.29,276.7 c 1.07,4.69 -0.48,7.45 -3.67,7.7 z m -190.82,-13.69 c 56.46,-6.07 112.37,-11.11 167.51,-15.08 l -56.59,-247.41 c -51.25,4.52 -102.82,9.9 -154.57,16.11 -56.09,6.75 -112.73,14.5 -169.72,23.23 l 53.15,242.99 c 54.01,-7.53 107.33,-14.13 159.8,-19.78 z m -243.2,64.08 c -67.71,10.77 -136.01,22.91 -204.65,36.42 -68.21,13.43 -136.97,28.24 -205.98,44.41 -4.69,1.12 -12.9,-4.44 -18.32,-12.4 -2.25,-3.31 -3.67,-6.52 -4.22,-9.22 l -60.71,-267.63 c -1,-4.41 0.31,-7.11 3.11,-7.61 l 42.21,-10.22 c 63.02,-14.97 125.64,-28.78 187.69,-41.42 63.28,-12.88 125.66,-24.52 186.92,-34.88 4.88,-0.83 13.11,4.99 18.36,13 2.19,3.35 3.52,6.55 3.97,9.21 l 54.87,273.09 c 0.84,4.23 -0.5,6.78 -3.25,7.25 z m -223.95,7.46 c 67.93,-13.37 134.81,-25.3 200.43,-35.77 l -48.68,-242.27 c -56.18,9.68 -112.67,20.3 -169.31,31.83 -61.91,12.61 -124.45,26.4 -187.41,41.36 l -38.19,9.21 53.59,236.25 c 63.91,-14.78 127.16,-28.32 189.57,-40.61 z m -349.18,113.91 c -84.69,22.4 -167.32,46.26 -247.52,71.38 -81.77,25.6 -161.25,52.57 -238.05,80.68 -4.36,1.59 -12.52,-3.51 -18.21,-11.4 -2.74,-3.8 -4.41,-7.55 -4.92,-10.6 l -53.8,-261.93 c -0.77,-3.78 0.2,-6.23 2.36,-7.06 74.98,-28.42 152.56,-55.75 232.35,-81.75 78.73,-25.65 159.53,-50.01 242.06,-72.86 4.58,-1.28 12.77,4.13 18.28,12.07 2.18,3.14 3.62,6.21 4.27,8.86 l 65.84,264.74 c 1.08,4.39 -0.04,7.18 -2.66,7.87 z m -267.76,42.66 c 79.37,-24.86 160.67,-48.37 243.57,-70.36 l -57.82,-232.54 c -77.07,21.58 -152.32,44.37 -225.44,68.2 -78.5,25.58 -154.76,52.41 -228.45,80.27 l 47.03,228.95 c 71.66,-25.93 145.46,-50.83 221.11,-74.52 z m -328.96,151.62 -26.63,10.55 c -4.27,1.72 -12.42,-3.26 -18.19,-11.13 -2.96,-4.03 -4.71,-8.04 -5.15,-11.23 -6.32,-45.45 -14.06,-89.45 -23,-132.09 -9,-42.9 -19.35,-85.03 -30.81,-126.34 -1.17,-4.27 -0.32,-7.13 1.96,-8.1 l 28.01,-11.53 c 4.25,-1.75 12.4,3.2 18.18,11.06 2.71,3.69 4.43,7.37 5.05,10.42 l 52.9,261.36 c 0.75,3.75 -0.2,6.18 -2.32,7.03 z m -28.56,-25.52 4.23,-1.66 -45.96,-227.08 -6.76,2.79 c 10.85,39.64 20.74,80.22 29.46,121.79 7.21,34.37 13.59,69.1 19.03,104.16 z"
   id="path72" />
  <path
   class="fil12"
   d="m 14425.94,6020.5 c 0,0 524.67,-60.81 567.09,-53.74 42.43,7.07 39.59,158.4 -72.13,212.13 -111.71,53.74 -347.89,25.46 -422.84,-39.59 -74.95,-65.06 -72.12,-118.8 -72.12,-118.8 z"
   id="path73" />
  <path
   class="fil11"
   d="m 15017.89,6033.2 c -3.68,49.76 -31.8,114.33 -96.99,145.69 -2.17,1.04 -4.39,2.04 -6.65,3.02 -10.72,4.25 -22.32,7.76 -34.84,10.35 -39.93,8.24 -77.7,12.7 -111.2,14.86 -48.22,0.4 -98.44,-4.9 -143.44,-14.76 l -46.32,-93.97 c 0,0 99.81,43.21 227.95,32.78 91.79,-7.47 172.88,-67.69 211.49,-97.97 z"
   id="path74" />
  <path
   class="fil1"
   d="m 14407.49,5991.41 c 1.49,-0.21 526.03,-61.1 571,-53.61 15.53,2.57 30.24,13.67 43.49,31.44 14.39,19.3 22.46,45.53 22.32,72.9 -0.11,21.79 -4.73,46.92 -14.82,71.31 -15.21,36.73 -43.1,72.55 -87.2,93.76 -55.96,26.91 -142.16,33.83 -224.64,26.11 -89.81,-8.4 -178.09,-35.76 -223.55,-75.21 -97.9,-84.99 -94.09,-157.55 -94.08,-157.75 0.31,-5.43 3.13,-8.41 7.48,-8.95 z m 584.84,3.87 c -87.87,1.83 -477.81,46.3 -539.61,53.39 2.53,12.79 12.24,39.64 49.31,71.82 31.36,27.21 104.69,47.26 184.19,54.69 78.5,7.35 160.38,0.84 213.3,-24.61 40.33,-19.39 65.84,-52.13 79.72,-85.66 8.92,-21.54 12.98,-43.15 13.08,-61.47 z"
   id="path75" />
  <path
   class="fil12"
   d="m 14556.05,6239.7 c 11.31,7.07 479.42,-12.72 517.59,31.12 38.18,43.83 -46.68,175.36 -192.33,181.01 -145.66,5.66 -280.01,-98.99 -280.01,-98.99 z"
   id="path76" />
  <path
   class="fil11"
   d="m 15079.56,6280.51 c 20.86,50.84 -62.14,166.04 -198.25,171.33 -65.54,2.54 -128.78,-17.25 -178.53,-39.78 l -11.1,-90.18 c 0,0 174.33,64.07 274.15,22.35 54.12,-22.62 91.16,-46.55 113.73,-63.72 z"
   id="path77" />
  <path
   class="fil1"
   d="m 14552.55,6215.32 c 4.42,2.76 33.9,-2.93 87.83,-3.16 147.67,-0.66 401.89,-1.78 444.63,47.3 15.26,17.52 22.98,36.21 23.69,54.84 0.65,16.83 -4.6,35.98 -15.03,54.92 -9.8,17.78 -24.58,36.12 -43.66,52.74 -36.26,31.59 -88.18,56.59 -151.13,59.03 -153.56,5.95 -297.89,-106.45 -298.31,-106.77 -10.04,-7.65 -18.59,-19.01 -22.66,-29.18 l -45.31,-113.16 c -6.19,-15.52 -0.71,-24.6 12.24,-20.29 2.5,0.83 5.1,2.11 7.71,3.73 z m 122.13,55.1 c -35.97,0.15 -65.79,0.29 -86.43,-1.03 l 29.22,73.05 c 37.28,25.14 137.34,84.47 246.27,80.25 58.24,-2.25 106.5,-25.58 140.35,-55.07 17.45,-15.19 31.08,-32.18 40.24,-48.8 7.99,-14.5 12.3,-28.09 12.46,-39.19 -38.24,-10.74 -253.41,-9.78 -382.11,-9.21 z m 387.59,11.76 -0.98,-0.77 c 1.65,1.66 2.73,2.78 0.98,0.77 z"
   id="path78" />
  <path
   class="fil13"
   d="m 13749.06,5965.69 c 136.44,-159.18 632.19,-368.4 750.45,295.63 118.25,664.04 -627.66,1264.39 -1196.17,1569.12 -568.52,304.73 -829.04,342.02 -1017.05,117.22 -275.48,-329.39 1230.96,-1711.54 1462.77,-1981.97 z"
   id="path79" />
  <path
   class="fil14"
   d="m 12942.02,8014.48 c -236.9,96.58 -412.75,116.41 -538.28,55.83 6.44,-32.64 15.62,-77.85 41.41,-105.79 25.79,-27.94 475.94,-374.22 475.94,-374.22 0,0 -120.57,252.53 14.87,264.05 135.44,11.52 293.93,-54.75 293.93,-54.75 0,0 -164.17,130.12 -287.87,214.88 z"
   id="path80" />
  <path
   class="fil13"
   d="m 14491.99,6583.89 c -115.77,531.6 -713.98,992.12 -1188.66,1246.55 -185.16,99.25 -337.64,170.11 -465.59,212.81 -36.39,-4.33 -56.74,-8.04 -56.74,-8.04 0,0 829.24,-766.19 1013.51,-1018.36 184.27,-252.17 227.91,-412.19 227.91,-412.19 0,0 106.69,43.63 189.13,-58.2 82.44,-101.83 92.14,-276.4 77.59,-383.09 -14.55,-106.69 9.69,402.49 164.87,421.89 13.46,1.68 26.1,1.1 37.98,-1.37 z"
   id="path81" />
  <path
   class="fil14"
   d="m 14491.99,6583.89 c -115.77,531.6 -713.98,992.12 -1188.66,1246.55 -185.16,99.25 -337.64,170.11 -465.59,212.81 -36.39,-4.33 -71.56,-20.58 -71.56,-20.58 0,0 844.06,-753.65 1028.33,-1005.82 184.27,-252.17 227.91,-412.19 227.91,-412.19 0,0 106.69,43.63 189.13,-58.2 82.44,-101.83 92.14,-276.4 77.59,-383.09 -14.55,-106.69 9.69,402.49 164.87,421.89 13.46,1.68 26.1,1.1 37.98,-1.37 z"
   id="path82" />
  <path
   class="fil14"
   d="m 12450.02,8069.05 c -70.91,1.12 -145.11,-30.5 -193.52,-88.38 -156.16,-186.73 290.08,-744.73 722.35,-1213.76 60.22,99.2 91.99,230.1 86.59,391.82 -8.9,245.91 -123.7,416.5 -252.9,577.81 -100.68,119.09 -220.75,230.27 -362.52,332.51 z"
   id="path83" />
  <path
   class="fil1"
   d="m 12298.56,7937.37 c 12.63,15.04 17.38,31.86 10.61,37.54 -6.77,5.68 -22.5,-1.92 -35.13,-16.96 -243.96,-291.7 699,-1248.55 1195.39,-1752.23 117.96,-119.69 210.42,-213.52 255.85,-266.52 54.8,-63.93 166.76,-135.84 289.56,-157.71 49.72,-8.85 101.38,-9.59 151.97,1.52 53.57,11.77 106.74,36.92 156.6,79.67 90.87,77.89 165.1,208.39 201.68,413.79 51.71,290.42 -57.71,567.37 -244.91,812.93 -247.07,324.1 -630.09,594.86 -955.18,769.11 -102.69,55.04 -195.38,101.39 -279.37,139.04 -84.49,37.87 -160.06,66.95 -228.02,87.23 -9.04,2.76 -25.43,-7.88 -36.58,-23.76 -11.15,-15.88 -12.86,-31 -3.82,-33.76 67.99,-20.29 142.91,-49.08 226.12,-86.37 83.7,-37.52 176.04,-83.7 278.33,-138.52 323.61,-173.45 704.82,-442.89 950.56,-765.25 183.78,-241.07 291.55,-511.04 241.71,-790.95 -31.89,-179.07 -89.44,-286.7 -157.82,-345.31 -36.78,-31.53 -78.47,-50.63 -122.08,-60.21 -46.58,-10.23 -94.57,-9.48 -141.05,-1.2 -118.7,21.14 -227.04,90.79 -280.14,152.73 -44.43,51.84 -137.7,146.48 -256.71,267.24 -488.93,496.12 -1417.74,1438.6 -1217.57,1677.95 z"
   id="path84" />
  <path
   class="fil12"
   d="m 13749.06,5965.69 c 136.44,-159.18 632.19,-368.4 750.45,295.63 69.14,388.25 -157.18,754.7 -470.69,1053.05 -438.43,-7.61 -796.14,-346.05 -834.23,-776.4 251.78,-262.09 476.06,-480.81 554.47,-572.28 z"
   id="path85" />
  <path
   class="fil12"
   d="m 14492.11,6583.86 c -58.19,267.17 -238.28,516.38 -463.29,730.51 -144.65,-2.51 -280.49,-41.05 -398.99,-107 71.41,-76.19 129.69,-142.64 164.68,-190.52 184.27,-252.17 227.91,-412.19 227.91,-412.19 0,0 106.69,43.63 189.13,-58.2 82.44,-101.83 92.14,-276.4 77.59,-383.09 -14.55,-106.69 9.69,402.49 164.87,421.89 13.51,1.69 26.19,1.09 38.1,-1.4 z"
   id="path86" />
  <path
   class="fil11"
   d="m 14492.11,6583.86 c -58.19,267.17 -238.28,516.38 -463.29,730.51 -144.65,-2.51 -280.49,-41.05 -398.99,-107 71.41,-76.19 129.69,-142.64 164.68,-190.52 184.27,-252.17 227.91,-412.19 227.91,-412.19 0,0 106.69,43.63 189.13,-58.2 82.44,-101.83 92.14,-276.4 77.59,-383.09 -14.55,-106.69 9.69,402.49 164.87,421.89 13.51,1.69 26.19,1.09 38.1,-1.4 z"
   id="path87" />
  <path
   class="fil1"
   d="m 13741.48,5959.21 c 55.15,-64.33 167.59,-136.65 290.71,-158.58 49.31,-8.78 100.42,-9.54 150.34,1.43 50.12,11.01 99.04,33.83 143.71,72.13 81.27,69.66 148.42,190.64 183.11,385.41 32.41,182.07 0.64,359.35 -74.34,527.11 -86.43,193.38 -230.31,374.06 -399.31,534.89 l -2.95,2.81 -4.09,-0.08 c -221.02,-3.83 -421.79,-90.78 -572.33,-230.88 -151.61,-141.11 -252.36,-336.18 -271.69,-554.62 l -0.4,-4.47 3.17,-3.3 c 107.43,-111.82 209.97,-215.89 298.27,-305.49 118.33,-120.06 211.08,-214.19 255.8,-266.36 z m 294.15,-138.9 c -118.38,21.08 -226.24,90.33 -278.99,151.86 -45.15,52.67 -138.13,147.02 -256.74,267.38 -87.31,88.59 -188.56,191.36 -294.92,302.01 19.85,211.58 117.9,400.43 264.95,537.29 146.15,136.02 340.71,220.73 554.97,225.47 166.01,-158.5 307.16,-336.12 391.91,-525.73 73.4,-164.24 104.53,-337.64 72.86,-515.55 -33.78,-189.7 -98.41,-306.85 -176.39,-373.69 -41.96,-35.98 -87.91,-57.41 -134.97,-67.75 -47.25,-10.38 -95.78,-9.64 -142.68,-1.29 z"
   id="path88" />
  <path
   class="fil12"
   d="m 13981.29,5776.85 c 0,0 323.43,-375.73 388.78,-444.33 65.35,-68.6 163.36,-39.2 192.76,75.15 29.4,114.34 -22.87,218.89 -212.36,329.97 -189.49,111.09 -267.9,137.23 -267.9,137.23 z"
   id="path89" />
  <path
   class="fil10"
   d="m 14393.01,5313.21 c 55.17,-36.26 123.13,-14.79 157.06,58.32 5.5,26.31 6.06,50.56 6.06,50.56 0,0 -31.13,-65.73 -103.79,-69.19 -72.66,-3.46 -208.73,162.6 -208.73,162.6 0,0 101.74,-145.71 149.4,-202.29 z"
   id="path90" />
  <path
   class="fil12"
   d="m 14438.54,5679.14 c -25.26,19.36 -54.5,38.83 -88.07,58.51 -41.21,24.16 -77.17,44.3 -108.21,61.02 l -0.13,0.02 -132.23,-112.3 c 10.87,0 97.81,3.62 255.4,-74.27 157.59,-77.89 201.07,-188.38 201.07,-188.38 0,0 -67.51,164.61 -127.83,255.4 z"
   id="path91" />
  <path
   class="fil11"
   d="m 14438.54,5679.14 c -25.26,19.36 -54.5,38.83 -88.07,58.51 -41.21,24.16 -77.17,44.3 -108.21,61.02 l -0.13,0.02 -132.23,-112.3 c 10.87,0 97.81,3.62 255.4,-74.27 157.59,-77.89 201.07,-188.38 201.07,-188.38 0,0 -67.51,164.61 -127.83,255.4 z"
   id="path92" />
  <path
   class="fil1"
   d="m 13957.56,5750.33 c 0.91,-1.08 322.84,-375.05 389.07,-444.58 17.67,-18.56 37.74,-30.39 58.33,-35.69 18.24,-4.69 37.35,-4.32 56.08,0.94 21.69,6.09 43.24,18.76 63.26,37.83 28.85,27.48 51.66,65.11 63.64,111.66 16.05,62.45 10.29,121.47 -24.68,178.9 -33.69,55.32 -94.99,110.08 -190.84,166.28 -190.25,111.51 -269.15,137.84 -269.37,137.91 -7.02,2.39 -18.72,-3.63 -28.91,-14.09 l -99.72,-96.5 c -13.84,-13.42 -21.99,-31.54 -18.21,-40.45 0.36,-0.85 0.81,-1.58 1.35,-2.21 z m 435.95,-391.04 c -57.01,59.84 -316.3,360.32 -376.12,429.72 l 55.05,53.28 c 26.66,-10.51 106.37,-44.91 256.08,-132.66 93.63,-54.89 153.25,-107.98 185.7,-161.26 31.17,-51.19 36.85,-101.66 23.52,-153.52 -6.53,-25.4 -15.85,-42.94 -26.36,-52.96 -6.86,-6.53 -15.63,-11.27 -25.6,-14.07 -12.93,-3.63 -26.93,-3.68 -41.08,-0.04 -17.92,4.61 -35.52,15.05 -51.19,31.51 z"
   id="path93" />
  <path
   class="fil12"
   d="m 14157.71,5887.94 c 0,0 581.54,-300.58 650.15,-313.65 68.61,-13.07 84.95,215.62 -62.07,326.71 -147.02,111.08 -483.53,101.28 -483.53,101.28 z"
   id="path94" />
  <path
   class="fil11"
   d="m 14816.47,5821.09 c -17.35,29.5 -40.59,57.17 -70.68,79.91 -63.3,47.82 -161.7,73.22 -253.27,86.66 -29.07,-19.64 -67.44,-67.6 -67.44,-67.6 l -38.04,-41.67 c 0,0 119.55,36.22 277.14,-77.89 157.59,-114.11 184.76,-195.63 186.57,-182.95 1.43,10.04 -2.82,122.18 -34.28,203.54 z"
   id="path95" />
  <path
   class="fil1"
   d="m 14136.13,5859.79 c 1.67,-0.86 582.79,-301.24 652.47,-314.51 14.64,-2.78 29.87,2.65 44.83,14.68 23.22,18.66 39.18,46.87 46.3,80.04 5.06,23.55 6.34,51.84 2.89,81.69 -8.07,69.8 -42.02,152.22 -114.2,206.76 -149.53,112.96 -488.39,103.07 -489.35,103.06 -8.35,-0.18 -19.88,-7.93 -29.01,-18.74 l -102.41,-112.02 c -13.21,-14.45 -19.42,-31.92 -13.87,-38.99 0.66,-0.84 1.45,-1.49 2.35,-1.97 z m 690.99,-256.49 c -60.59,11.54 -532.78,253.57 -630.21,303.71 l 60.56,66.22 c 60.86,0.5 337.33,-2.72 465.69,-99.68 68.16,-51.5 100.16,-128.76 107.7,-194.02 3,-25.95 2.16,-49.33 -1.79,-67.67 -1.87,-8.71 2.45,-9.29 0.32,-11 -1.28,-1.03 0.63,1.89 -2.27,2.44 z"
   id="path96" />
  <path
   class="fil12"
   d="m 14418.65,6791.98 c 0,0 151.56,-14.58 265.23,-206.94 113.67,-192.36 -81.61,-504.23 -227.34,-638.3 -145.72,-134.06 -396.38,-198.18 -396.38,-198.18 0,0 17.49,673.27 157.39,845.23 139.9,171.96 201.1,198.19 201.1,198.19 z"
   id="path97" />
  <path
   class="fil11"
   d="m 14400.9,6794.81 c 0,0 171.57,-64.19 267.61,-226.72 96.04,-162.53 9.8,-322.29 -88.16,-471.14 25.47,41.42 45.09,82.97 53.09,119.76 24.25,111.54 -24.25,387.95 -179.43,368.55 -155.18,-19.4 -179.42,-528.58 -164.87,-421.89 14.55,106.69 -33.48,328.61 -77.59,383.09 -44.11,54.48 -19.6,23.83 -25.57,29.61 2.72,3.86 -63.06,-76.64 8.29,11.07 71.35,87.71 206.63,207.67 206.63,207.67 z m -99.82,-961.75 c -38,-20.47 -76.2,-37.76 -111.11,-51.97 l 45.82,37.97 c 0,0 27.48,1.54 65.29,14 z"
   id="path98" />
  <path
   class="fil1"
   d="m 14432.42,6796.47 c -7.19,2.25 -20.29,-6.21 -29.23,-18.9 -8.94,-12.69 -10.36,-24.81 -3.17,-27.06 l 17.59,-5.46 c 24.58,-7.32 62.05,-22.23 103.33,-52.31 41.61,-30.32 87.24,-76.06 127.95,-144.9 46.91,-79.31 39.27,-179.31 4.26,-277.61 -45.96,-129.08 -138.83,-255.13 -216.41,-326.51 l -1.44,-1.38 c -138.02,-125.82 -379.71,-187.71 -380.4,-187.89 -10.03,-2.68 -22.7,-15.09 -28.28,-27.7 -5.58,-12.61 -1.97,-20.66 8.06,-17.98 0.73,0.19 254.57,65.08 408.53,204.99 l 2.41,2.1 c 88.7,81.6 194.43,224.5 246.07,369.53 38.45,107.95 47.14,217.25 -3.56,302.95 -41.68,70.48 -88.47,117.35 -131.15,148.46 -42.98,31.32 -81.75,46.77 -107.15,54.3 z"
   id="path99" />
  <path
   class="fil12"
   d="m 13746.44,6006.72 c 0,0 3.64,-247.44 118.26,-331.13 114.62,-83.68 311.11,58.23 367.51,145.56 56.4,87.32 34.58,254.71 -118.26,201.95 -152.83,-52.77 -152.83,-123.72 -152.83,-123.72 z"
   id="path100" />
  <path
   class="fil10"
   d="m 13872.07,5670.63 c 101.26,-63.76 259.37,34.27 334.01,117.04 16.72,21.53 30.73,43.41 39.79,59.68 3.34,8.03 6.14,16.39 8.37,24.94 -0.77,-0.64 -1.71,-1.55 -2.83,-2.77 -23.24,-25.35 -200.73,-152.13 -306.38,-152.13 -105.65,0 -156.36,126.77 -156.36,126.77 0,0 35.88,-118.25 83.4,-173.53 z"
   id="path101" />
  <path
   class="fil11"
   d="m 13930.67,5795.08 c 7.59,-3.53 -6.57,48.67 1.28,45.44 0.07,2.32 0.19,4.51 0.36,6.54 1.69,20.21 21.89,94.32 70.74,136.43 48.85,42.11 230.74,62.31 215.58,74.1 -15.16,11.79 -211.04,44.82 -281.27,-18.52 -70.23,-63.34 -23.34,-187.32 -6.69,-243.99 z"
   id="path102" />
  <path
   class="fil1"
   d="m 13772.38,6026.11 c -0.16,12 -11.91,13.04 -26.23,2.34 -14.32,-10.7 -25.81,-29.12 -25.65,-41.12 0.01,-0.71 3.73,-253.17 121.67,-339.27 l 6.45,-4.49 c 59.41,-38.37 138.08,-23.67 210.43,12.21 75.11,37.24 144.94,98.66 181.96,149.37 l 0.71,0.99 c 2.73,3.77 5.52,7.89 8.34,12.24 l 0.07,0.11 c 25.25,39.07 38.33,88.04 36.29,131.32 -1.19,25.22 -7.37,49.13 -19.07,68.3 -11.72,19.19 -29.15,33.76 -52.88,40.36 -23.52,6.54 -53.2,5.16 -89.58,-7.39 -189.71,-65.49 -189.72,-170.59 -189.72,-170.9 0.03,-12.09 11.68,-13.3 26.01,-2.7 14.33,10.6 25.92,29.01 25.89,41.1 0,0.1 0.01,36.52 115.94,76.54 28.92,9.98 52.64,11.04 71.52,5.79 19.44,-5.4 33.89,-17.64 43.78,-33.82 9.88,-16.19 15.09,-36.28 16.09,-57.4 1.49,-31.52 -5.75,-63.65 -20.11,-85.88 l -4.44,-6.36 c -25.77,-35.3 -77.75,-79.73 -136.48,-108.85 -61.48,-30.49 -128.76,-42.73 -180.37,-9.39 l -5.77,3.91 c -111.28,81.24 -114.85,322.31 -114.85,322.99 z"
   id="path103" />
  <path
   class="fil1"
   d="m 13989.39,5933.08 c 7,12.87 5.29,22.65 -3.82,21.85 -9.11,-0.8 -22.18,-11.9 -29.18,-24.77 -0.11,-0.2 -41.3,-69.72 -31.94,-138.02 1.23,-8.75 11.5,-8.17 22.92,1.3 11.42,9.47 19.69,24.27 18.46,33.02 -7.46,54.46 23.48,106.48 23.56,106.62 z"
   id="path104" />
  <path
   class="fil1"
   d="m 14256.77,6072.4 c -2.05,-7.32 1.85,-10.56 8.72,-7.23 6.87,3.33 14.11,11.99 16.16,19.31 44.16,156.96 43.57,275.97 10.4,367.3 -33.03,90.92 -98.39,154.26 -183.97,200.29 -3.94,2.15 -11.99,-2.39 -17.97,-10.13 -5.98,-7.74 -7.63,-15.78 -3.69,-17.93 84.03,-45.19 148.14,-107.22 180.41,-196.05 32.11,-88.41 32.69,-203.62 -10.06,-355.56 z"
   id="path105" />
  <path
   class="fil11"
   d="m 9362.02,7701.07 c 0,0 -13.09,-130.98 -54.26,-246.99 -41.16,-116 -1.17,-210.5 65.69,-233.45 66.86,-22.95 139.7,57.88 170.64,200.58 30.94,142.7 -38.92,292.39 -38.92,292.39 z"
   id="path106" />
  <path
   class="fil1"
   d="m 9341.26,7686.78 c -1.22,-11.55 -14.67,-132.88 -52.78,-240.27 l -1.18,-3.54 c -21.17,-61.64 -21.3,-117.01 -7.34,-159.85 13.78,-42.3 41.45,-72.76 76.05,-85.04 l 1.07,-0.37 c 3,-1.06 6.02,-1.92 8.96,-2.55 33.01,-7.15 68.39,7.5 101.9,40.26 l 1.8,1.84 c 30.97,31.01 58,76.27 77.27,132.37 6.68,19.47 12.55,40.48 17.39,62.81 32.07,147.93 -39.1,300.42 -39.3,300.85 -1.29,2.75 -3.9,3.89 -7.26,3.6 l -143.13,-12.51 c -9.11,-0.8 -22.18,-11.9 -29.18,-24.77 -2.64,-4.85 -4.04,-9.26 -4.27,-12.83 z m -14.24,-225.11 c 29.23,82.36 44.63,171.33 51.37,218.63 l 108.67,9.52 c 10.66,-24.55 63.65,-155.71 36.74,-279.84 -4.37,-20.16 -9.61,-38.96 -15.53,-56.21 -14.34,-41.75 -31.91,-72.98 -50.47,-91.7 l -1.34,-1.27 c -17.25,-16.86 -37.74,-23.92 -59.24,-19.26 -2.52,0.54 -5,1.24 -7.4,2.06 l -0.89,0.28 c -31.02,11.01 -55.89,38.53 -68.37,76.84 -12.31,37.79 -12.51,85.76 5.44,138.09 z"
   id="path107" />
  <path
   class="fil11"
   d="m 9182.12,7697.79 c 0,0 -13.1,-130.97 -54.26,-246.98 -41.17,-116.01 -1.18,-210.5 65.68,-233.45 66.87,-22.96 139.71,57.87 170.65,200.58 30.94,142.7 -38.92,292.39 -38.92,292.39 z"
   id="path108" />
  <path
   class="fil1"
   d="m 9156.16,7679.99 c -1.31,-12.38 -14.72,-132.44 -52.4,-238.65 l -1.18,-3.59 c -21.61,-62.83 -21.76,-119.14 -7.6,-162.6 13.94,-42.8 41.96,-73.64 77.03,-86.08 l 1,-0.37 c 3,-1.04 6.06,-1.9 9.16,-2.58 34.51,-7.51 71.76,8.11 107.33,42.88 33.25,32.51 62.16,80.26 82.48,139.44 6.78,19.76 12.71,41.02 17.59,63.52 32.36,149.27 -39.18,302.56 -39.38,302.99 -1.62,3.44 -4.88,4.86 -9.09,4.48 l -143.15,-12.51 c -11.38,-1 -27.72,-14.87 -36.46,-30.95 -3.28,-6.03 -5.03,-11.53 -5.33,-15.98 z m -4.22,-219.71 c 27.77,78.26 43.11,162.36 50.45,211.54 l 100.22,8.78 c 11.56,-26.89 62.49,-155.42 36.2,-276.7 -4.31,-19.89 -9.46,-38.38 -15.25,-55.28 -14.01,-40.83 -30.89,-70.76 -48.42,-87.9 -15.23,-14.89 -33.88,-21 -53.94,-16.66 -2.33,0.48 -4.73,1.17 -7.18,2 l -0.9,0.29 c -30.57,10.85 -55.07,38.01 -67.38,75.8 -12.11,37.16 -12.36,84.22 5.21,135.4 z"
   id="path109" />
  <path
   class="fil12"
   d="m 9500.2,8403.2 c 0,0 -71.09,46.77 -162.78,39.29 -91.69,-7.48 -116.01,-33.68 -116.01,-33.68 0,0 -254.47,144.07 -336.8,119.75 -82.33,-24.33 -125.36,-127.23 -1.87,-209.56 123.49,-82.33 202.08,-29.94 202.08,-29.94 l -69.23,-407.9 c 0,0 -157.18,-188.98 -202.08,-319.96 -44.91,-130.98 1.88,-245.11 102.91,-213.3 101.04,31.81 194.59,155.29 215.17,260.08 20.59,104.79 22.46,99.17 22.46,99.17 0,0 76.71,-67.36 192.72,-65.49 116.01,1.87 155.3,67.36 155.3,67.36 0,0 112.27,460.29 82.33,565.07 -29.94,104.79 -84.2,129.11 -84.2,129.11 z"
   id="path110" />
  <path
   class="fil11"
   d="m 8872.78,7343.26 c 13.1,-1.75 27.69,-0.37 43.64,4.65 101.03,31.8 194.58,155.29 215.17,260.07 20.59,104.79 22.46,99.17 22.46,99.17 0,0 24.22,-21.27 66.02,-39.57 20.04,27.97 30.61,41.81 30.61,41.81 0,0 -165.56,120.04 -198.67,88.99 -33.11,-31.05 -235.92,-266.96 -209.02,-393.21 6.06,-28.43 16.33,-48.97 29.79,-61.91 z"
   id="path111" />
  <path
   class="fil11"
   d="m 9500.2,8403.2 c 0,0 -71.1,46.77 -162.78,39.29 -91.68,-7.48 -116.01,-33.67 -116.01,-33.67 0,0 -254.48,144.06 -336.8,119.74 -46.67,-13.79 -80.7,-52.83 -78.94,-99.06 43.56,7.92 101.94,4.25 168.42,-21.7 159.8,-62.37 214.36,-206.58 323.5,-190.99 46.6,6.66 141.55,28.22 290.22,39.24 -0.81,6.8 -1.93,12.86 -3.41,18.03 -29.93,104.8 -84.2,129.12 -84.2,129.12 z"
   id="path112" />
  <path
   class="fil1"
   d="m 9522.2,8431.16 c -0.21,0.14 -73.25,48.22 -168.89,40.42 -55.42,-4.52 -92.67,-19.04 -115.4,-31.66 -37.13,20.54 -260.03,140.95 -341.26,116.96 -37.12,-10.96 -70.27,-36.13 -92.92,-70.1 l -0.61,-0.94 c -11.38,-17.31 -19.05,-35.68 -22.07,-54.23 -2.59,-15.85 -1.81,-32.34 3.04,-48.74 9.03,-30.6 32.81,-62.56 76.36,-91.6 88.76,-59.18 159.26,-49.94 195.26,-37.99 l -63.79,-375.84 c -37.41,-46.62 -161.68,-206.72 -202.62,-326.15 -21.69,-63.26 -23.99,-122.55 -10.35,-165.89 5.24,-16.63 12.85,-31.02 22.62,-42.44 9.88,-11.55 22.01,-20.13 36.18,-24.98 18.83,-6.46 41.32,-6.42 67,1.67 57.36,18.05 113.16,61.92 158.39,116.59 47.06,56.88 81.86,124.85 93.95,186.4 5.27,26.84 -26.11,57.27 -25.99,57.15 0.21,-0.18 78.86,-69.23 198.8,-67.31 134.56,2.16 190.6,94.7 190.76,94.96 3.31,5.32 5.5,10.38 6.57,14.81 0.38,1.36 113.73,465.99 82.61,574.92 -28.75,100.68 -80.13,130.14 -87.64,133.99 z m -200.67,-17.76 c 87.7,7.15 156.48,-38.05 156.67,-38.17 l 0.95,-0.44 c 0.14,-0.06 50.99,-22.87 79.81,-123.8 26.33,-92.16 -64.16,-480.06 -79.82,-545.71 -10.21,-10.55 -40.76,-33.24 -115.5,-34.44 -112.06,-1.79 -186.43,63.49 -186.64,63.67 -0.14,0.14 -35.01,41.53 -70.91,-141.19 -9.12,-46.41 -34.3,-96.39 -68.01,-137.14 -30.76,-37.18 -69.43,-67.25 -109.99,-80.01 -18.52,-5.83 -35.09,-5.74 -49.28,-0.87 -11.52,3.94 -21.48,11.03 -29.68,20.62 -8.32,9.72 -14.83,22.06 -19.34,36.4 -11.62,36.93 -9.96,86.6 7.93,138.79 39.22,114.43 174.69,280.97 189.43,298.9 7.25,8.4 12.72,18.3 14.1,26.59 l 69.37,409.05 c 1.6,13.23 -8.66,16.54 -22.9,7.38 -0.19,-0.12 -65.98,-44.1 -182.69,33.7 -40.26,26.84 -62,55.57 -69.98,82.6 -3.55,12.02 -4.26,23.29 -2.6,33.46 1.12,6.91 3.13,12.49 5.77,16.59 l 0.29,0.42 c 5.51,8.26 17.64,15.59 34.06,20.44 74.82,22.1 318.37,-114.68 326.8,-119.43 7.22,-4.39 22.22,3.21 34.35,17.68 0.01,0.02 8.63,8.45 87.81,14.91 z"
   id="path113" />
  <path
   class="fil14"
   d="m 9182.26,8187.09 c -139.41,-278.82 -27.86,-458.25 239,-531.26 362.58,-99.19 1195.16,-263.53 1540.26,-292.47 895.26,-75.09 835.86,924.27 -29.81,1075.78 -486.49,85.15 -1508.07,230.71 -1749.45,-252.05 z"
   id="path114" />
  <path
   class="fil12"
   d="m 9421.26,7655.83 c 143.29,-39.18 360.02,-88.56 591.03,-135.74 -21.52,73.31 -29.85,167.63 -15.27,289.14 38.86,323.9 124.79,562.62 215.73,715.53 -314.32,11.99 -651.05,-17.21 -860.9,-144.82 -240.1,-146.02 -331.02,-447.95 -144.47,-622.79 48.18,-45.16 125.46,-77.14 213.88,-101.32 z"
   id="path115" />
  <path
   class="fil12"
   d="m 10089.9,8245.26 c 36.7,112.9 79.19,206.09 122.85,279.5 -314.32,11.99 -651.05,-17.21 -860.9,-144.82 -60.22,-36.63 -111.05,-83.07 -150.48,-134.85 29.96,-21.09 60.1,-33.44 96.22,-28.28 86.4,12.34 338.94,75.93 792.31,28.45 z"
   id="path116" />
  <path
   class="fil11"
   d="m 10089.9,8245.26 c 36.7,112.9 79.19,206.09 122.85,279.5 -314.32,11.99 -666.45,-14.41 -876.29,-142.02 -60.22,-36.62 -117.34,-85.87 -135.09,-137.65 29.96,-21.09 60.1,-33.44 96.22,-28.28 86.4,12.34 338.94,75.93 792.31,28.45 z"
   id="path117" />
  <path
   class="fil1"
   d="m 9437.22,7678.86 c -7.33,2.04 -20.44,-6.6 -29.25,-19.31 -8.81,-12.71 -10.02,-24.69 -2.69,-26.73 71.04,-19.44 159.28,-41.2 257.72,-63.8 101.56,-23.32 215.45,-47.9 333.8,-72.07 7.64,-1.59 20.79,7.49 29.33,20.26 5.71,8.53 7.92,16.57 6.49,21.43 -10.52,36.04 -17.85,77.19 -20.74,124.17 -2.89,47.11 -1.36,100.1 5.78,159.69 17.96,149.77 46.06,281.01 80.02,393.65 38.31,127.08 83.85,229.79 130.54,308.3 7.66,12.88 6.94,23.47 -1.6,23.64 l -0.7,-0.01 c -161.35,6.99 -324.28,3.39 -472.93,-19.03 -151.15,-22.8 -288.81,-65.27 -397.34,-136.02 -11.43,-7.46 -21.66,-22.05 -22.81,-32.58 -1.15,-10.53 7.18,-13.02 18.61,-5.56 100.85,65.74 232.05,105.71 377.76,127.68 143.4,21.63 299.74,25.64 454.79,19.52 -45.51,-81.03 -89.15,-182.49 -125.8,-304.08 -34.78,-115.36 -63.52,-249.44 -81.82,-402.05 -7.42,-61.9 -9.02,-116.85 -6.02,-165.61 1.7,-27.66 4.88,-53.36 9.3,-77.22 -99.71,20.68 -196.48,41.75 -285.32,62.15 -99.26,22.79 -187.34,44.49 -257.12,63.58 z"
   id="path118" />
  <path
   class="fil1"
   d="m 9278.54,7739.92 c -7.51,4.79 -23.53,-3.79 -35.76,-19.17 -12.23,-15.38 -16.05,-31.76 -8.54,-36.55 57.87,-36.69 387.68,-117.17 754.07,-192.1 354.95,-72.58 744.9,-140.19 955.13,-157.82 293.43,-24.61 492.79,68.07 600.04,211.56 52.57,70.34 81.87,150.43 88.44,233.34 6.21,78.34 -7.73,160.44 -41.32,239.69 -86.07,203.03 -302.28,390.19 -639.82,449.26 -202.81,35.49 -498.59,81.48 -792.58,88.2 -296.48,6.76 -591.98,-26.89 -791.9,-152.12 -14.21,-8.89 -27.26,-26.99 -29.14,-40.39 -1.88,-13.4 8.11,-17.06 22.32,-8.17 187.8,117.64 474.21,149.05 763.94,142.44 292.2,-6.67 587,-52.54 789.22,-87.92 331.52,-58.02 543.6,-241.25 627.82,-439.92 32.06,-75.64 45.44,-153.13 39.64,-226.27 -5.44,-68.57 -27.53,-131.96 -66.62,-184.26 -86.84,-116.18 -262.39,-190.04 -533.86,-167.28 -209.02,17.52 -598.06,85.02 -952.61,157.52 -364.59,74.56 -692.12,154.23 -748.47,189.96 z"
   id="path119" />
  <path
   class="fil11"
   d="m 8812.39,2638.56 c 180.19,715.45 726.73,1776.72 974.35,2106.99 l -633.43,783.63 C 8690.53,4333.23 8620.82,3281.89 8812.39,2638.56 Z"
   id="path120" />
  <path
   class="fil10"
   d="m 8926.18,3009.42 c 173.67,493.04 445.62,1051.15 659.81,1421.71 l -59.75,67.21 c 0,0 -225.9,-409.98 -376.51,-773.94 -150.61,-363.96 -334.68,-895.26 -338.86,-928.73 l -3.95,-138.2 1.11,-3.84 c 4.97,16.18 24.62,80.32 73.96,242.44 6.98,22.92 22.46,62.2 44.19,113.35 z"
   id="path121" />
  <path
   class="fil1"
   d="m 8850.08,2658.01 c 79.21,314.5 230.55,697.58 395.73,1054.78 205.08,443.48 429.84,844.19 563.29,1022.18 15.45,20.53 20.69,41.3 13.51,50.09 l -633.41,783.66 c -8.52,10.47 -31.51,1.25 -51.33,-20.59 -10.51,-11.58 -18.02,-24.39 -21.49,-35.43 -221.75,-573.99 -353.68,-1114.55 -410.12,-1593.07 -61.99,-525.57 -33,-976.91 67.97,-1315.98 4.41,-14.56 25.08,-10.73 46.14,8.55 14.93,13.67 26.06,31.43 29.71,45.81 z m 328.63,1038.98 c -140.39,-303.6 -271.1,-626.1 -357.77,-911.95 -74.86,318.68 -91.66,722.47 -37.14,1184.81 52.6,445.99 171.55,946.11 368.71,1476.36 l 586.28,-725.3 C 9595.96,4519.17 9376.91,4125.59 9178.71,3696.99 Z"
   id="path122" />
  <path
   class="fil12"
   d="M 11849.19,8204.64 C 10883.56,8628.82 9882.82,8353 9559.63,7611.2 9022.32,6377.99 8921.24,5179.24 9592.21,4393.55 c 1013.99,-1187.37 2921.56,-1172.97 3362.87,482.81 371.73,1394.71 384.86,2673.4 -1105.89,3328.28 z"
   id="path123" />
  <path
   class="fil10"
   d="m 9144.79,5436.44 c 51.66,-392.71 194.8,-747.09 447.42,-1042.9 522.61,-611.96 1282.58,-904.67 1956.84,-817.99 l 47.69,103.32 c 0,0 -219.82,-43.96 -489.9,12.56 -270.08,56.52 -703.45,81.65 -1275.01,640.65 -571.56,559 -672.04,1237.32 -672.04,1237.32 0,0 -9.19,-49.58 -15,-132.96 z"
   id="path124" />
  <path
   class="fil10"
   d="m 12479.16,4020.29 c 212.41,209.76 379.31,493.57 475.92,856.06 83.93,314.89 149.46,623.82 183.65,921.03 -43.27,-29.61 -97.21,-154.43 -152.03,-387.4 -91.28,-387.94 -285.65,-900.52 -507.54,-1389.69 z"
   id="path125" />
  <path
   class="fil11"
   d="m 11849.19,8204.63 c -965.63,424.19 -1966.37,148.37 -2289.56,-593.42 -10.91,-25.03 -21.56,-50.04 -32.11,-75.04 5.28,-13.23 8.39,-20.27 8.39,-20.27 0,0 477.49,730.78 1306.65,741.91 829.16,11.13 1662.34,-571.22 1929.45,-1072.06 262.56,-492.31 387.88,-1117.28 318.07,-1714.53 209.16,1155.81 34.78,2173.02 -1240.89,2733.41 z"
   id="path126" />
  <path
   class="fil11"
   d="m 9622.37,7734.95 c -23.05,-39.69 -44.07,-80.9 -62.74,-123.74 l -3.31,-7.69 c 6.61,-31 12.23,-54.62 12.23,-54.62 0,0 -218.27,-363.79 -224.89,-615.15 -6.62,-251.36 125.67,-205.06 125.67,-205.06 0,0 -158.74,-205.05 -152.13,-304.27 6.61,-99.22 19.83,-734.23 773.9,-1031.88 754.07,-297.65 1534.58,171.99 1600.73,264.59 66.15,92.6 6.62,132.29 6.62,132.29 0,0 99.23,-6.61 211.67,66.15 352.53,228.12 453.91,758.88 277.81,1117.86 -171.98,350.58 -1322.92,972.35 -1322.92,972.35 0,0 -79.37,-403.49 -165.36,-463.02 -85.99,-59.53 -721,132.3 -886.36,185.21 -77.19,24.7 -142.84,50.83 -190.92,66.98 z"
   id="path127" />
  <path
   class="fil1"
   d="m 11880.84,8247.18 -7.04,3.08 c -484.38,211.05 -978.22,247.09 -1392.4,137.37 -430.88,-114.16 -779.94,-385.15 -954.43,-782.38 l -1.61,-3.53 c -284.13,-652.15 -447.58,-1294.65 -441.74,-1872.64 5.32,-525.76 150.75,-998.02 472.92,-1375.27 331.4,-388.06 758.09,-648.4 1198.25,-765.71 290.17,-77.34 586.66,-92.56 866.12,-41.35 283.98,52.04 551.87,173.23 780.13,368.17 268,228.87 477.86,553.59 591.56,980.21 187.23,702.47 284.11,1375.94 146.36,1956.69 -137.53,579.79 -508.96,1066.26 -1258.12,1395.36 z m -70.34,-82.02 7.04,-3.08 c 741.58,-325.77 1108.98,-806.1 1244.64,-1378.04 135.44,-570.98 39.88,-1234.25 -144.62,-1926.47 -104.14,-390.75 -290.85,-683.47 -527.06,-885.19 -208.63,-178.17 -458.51,-289.86 -726.93,-339.05 -272.94,-50.02 -563.6,-34.86 -849.02,41.21 -435.62,116.1 -858.16,374.05 -1186.67,758.73 -317.68,371.99 -461.07,836.85 -466.3,1353.87 -5.73,566.24 154.24,1195.3 432.32,1833.56 l 1.47,3.37 c 149.39,340.11 459.86,575.22 847.95,678.04 404.85,107.25 889.6,71.13 1367.18,-136.95 z"
   id="path128" />
  <path
   class="fil18"
   d="m 9792.73,7571.81 c -46.61,-12.43 -211.33,-155.39 -279.71,-385.39 -68.38,-229.99 9.33,-388.49 152.29,-320.12 142.96,68.37 767.67,344.98 767.67,344.98 l -105.67,-273.5 15.54,174.05 -842.27,-534.58 c 0,0 -125.45,-626.96 689.47,-966.73 814.92,-339.77 1329.89,196.43 1329.89,196.43 l -722.02,1298.04 -188.46,-222.97 167.23,276.06 921.1,-1157.35 c 0,0 180.5,-21.24 289.34,199.08 108.83,220.33 5.3,472.5 5.3,472.5 l -880.77,972.22 c 0,0 -57.4,-114.05 -216.09,-148.72 -158.69,-34.66 -340.05,86.67 -357.38,189.36 -17.33,102.68 81.35,186.7 81.35,186.7 0,0 -648.72,-67.35 -746.38,-139.89 -97.65,-72.55 -80.43,-160.17 -80.43,-160.17 z"
   id="path129" />
  <path
   class="fil1"
   d="m 9778.6,7577.05 c -37.52,-21.13 -99.88,-74.99 -158.43,-155.66 -46.49,-64.04 -91.16,-145.35 -119.51,-240.71 -25.17,-84.67 -31.02,-159.88 -21.39,-218.2 6.28,-38.02 19.15,-68.94 37.5,-90.67 18.56,-21.96 42.84,-34.67 71.71,-36.03 21.79,-1.02 46.3,4.43 73.04,17.22 130.17,62.25 662.45,298.35 753.74,338.8 l -69.05,-178.71 9.6,107.44 c 0.55,6.29 -4.52,7.74 -11.39,3.37 l -842.27,-534.57 c -6.91,-4.38 -13.22,-13.07 -14.38,-19.66 -1.7,-8.75 -121.87,-634.13 691.78,-973.37 820.6,-342.13 1343.01,201.74 1344.52,203.28 6.8,6.95 10.48,15.91 8.2,19.98 l -666.97,1199.08 820.55,-1031.02 c 0.69,-0.86 1.67,-1.32 2.85,-1.43 0.52,-0.08 191.62,-22.64 309.3,215.61 112.03,226.78 7.26,481.84 6.97,482.57 l -0.77,1.24 -880.74,972.24 c -3.01,3.28 -10.74,-0.02 -17.25,-7.37 -2.38,-2.69 -4.27,-5.55 -5.56,-8.27 -5.15,-9.58 -57.69,-101.3 -198.25,-132.01 l -11.53,-2.22 c -74.99,-12.65 -154.41,9.03 -217.83,46.07 -63.41,37.02 -110.53,89.12 -121.07,137.34 l -0.88,4.71 c -15.69,93.06 70.12,166.13 70.36,166.33 7.08,6.12 11.97,15.32 10.92,20.53 -0.52,2.59 -2.42,3.71 -5.07,3.43 -1.86,-0.2 -652.07,-67.6 -754.23,-143.5 -84.88,-63.04 -94.76,-134.43 -94.47,-165.84 z m -142.81,-161.66 c 62,85.43 125.83,135.55 150.62,142.15 2.41,0.65 5.26,2.25 8.19,4.78 7.09,6.11 12.01,15.32 10.98,20.56 -0.04,0.21 -15.08,76.7 67.69,138.17 83.47,62.01 609.02,122.2 718.48,134.15 -31.62,-35.71 -79.41,-104.18 -66.46,-180.96 l 1.04,-5.21 c 11.09,-50.76 59.63,-104.98 124.75,-143 65.1,-38.02 147.13,-60.19 225.25,-47.01 4.07,0.68 8.22,1.49 12.41,2.4 123.97,27.08 191.54,102.65 218.88,141.25 l 872.58,-963.2 c 6.09,-15.31 98.4,-254.43 -3.96,-461.63 -94.09,-190.5 -249.25,-184.14 -267.54,-182.7 l -919.69,1155.58 c -0.67,1.19 -1.83,1.9 -3.47,1.97 -5.26,0.24 -13.51,-6.09 -18.39,-14.15 l -167.24,-276.08 c -3.61,-6.01 -4.57,-11.75 -1.94,-14.03 3.33,-2.89 11.18,0.83 17.52,8.33 l 174.93,206.96 712.85,-1281.56 c -82.28,-76.96 -566.31,-484.46 -1302.72,-177.42 -747.5,311.65 -701.29,862 -689.07,948.36 l 817.41,518.79 -14.55,-162.81 c -0.37,-4.74 2.48,-7.03 7.56,-5.25 6.5,2.28 14.2,10.38 17.18,18.08 l 106.17,274.83 c 2.35,7.47 -1.23,11.08 -8.01,8.08 -1.79,-0.79 -624.56,-276.56 -768.14,-345.22 -22.76,-10.88 -43.89,-15.51 -62.92,-14.62 -26.23,1.23 -48.46,12.99 -65.63,33.31 -17.38,20.58 -29.57,49.87 -35.52,85.91 -9.18,55.62 -3.62,127.31 20.35,207.96 26.5,89.16 67.71,164.41 110.41,223.23 z m 1156.35,-304.83 -121.56,-143.83 102.01,168.4 z"
   id="path130" />
  <path
   class="fil19"
   d="m 11849.19,8204.64 c -925.57,406.58 -1883.28,169.97 -2245.78,-503.61 -0.62,-6.14 -0.9,-12.12 -0.75,-17.84 3.57,-142.56 85.53,-238.77 434.79,-64.15 349.27,174.63 759.12,185.32 759.12,185.32 0,0 181.75,-64.15 723.46,-734.16 541.72,-670.02 898.1,-723.48 1111.94,-652.2 213.84,71.28 349.28,270.86 338.58,591.61 -8.91,245.91 -123.7,416.5 -252.91,577.81 -203.71,240.95 -486.77,449.55 -868.45,617.22 z"
   id="path131" />
  <path
   class="fil20"
   d="m 10562.84,7797.34 c 0,0 61.07,78.12 194.57,90.9 133.5,12.78 254.22,-143.44 288.3,-222.97 34.08,-79.53 18.46,-78.11 18.46,-78.11 0,0 -186.04,180.35 -231.49,204.5 -45.45,24.15 -106.52,19.9 -143.44,14.21 -36.92,-5.69 -126.4,-8.53 -126.4,-8.53 z"
   id="path132" />
  <path
   class="fil20"
   d="m 10356.72,7930.93 c 0,0 136.12,111 314.12,115.18 178,4.18 391.6,64.91 391.6,64.91 0,0 136.12,-136.11 75.39,-186.37 -60.73,-50.26 -205.23,-4.19 -293.18,27.22 -87.95,31.41 -280.6,23.04 -343.43,14.66 -62.83,-8.38 -144.5,-35.6 -144.5,-35.6 z"
   id="path133" />
  <path
   class="fil20"
   d="m 11849.19,8204.63 c -925.57,406.59 -1883.28,169.98 -2245.78,-503.6 -0.62,-6.14 -0.9,-12.11 -0.75,-17.84 0.6,-23.91 3.42,-46.52 9.32,-66.76 165.33,200.73 594.43,632.84 1230.58,641.38 829.16,11.13 1662.34,-571.22 1929.45,-1072.06 68.52,-128.47 127.66,-265.99 176.46,-409.68 17.15,68.9 24.97,146.77 22.07,233.54 -8.9,245.91 -123.7,416.5 -252.9,577.81 -203.7,240.95 -486.77,449.55 -868.45,617.21 z"
   id="path134" />
  <path
   class="fil1"
   d="m 11868.18,8230.16 c -460.46,202.26 -929.4,245.88 -1329.97,156.05 -416.71,-93.44 -762.19,-331.6 -953.48,-687.05 -2.85,-5.3 -4.38,-10.11 -4.66,-14.04 -0.32,-3.2 -0.56,-6.47 -0.69,-9.77 l -0.1,-9.85 c 1.83,-75.05 24.49,-137.94 92.92,-159.18 67.41,-20.91 179.06,-0.91 358.93,89.02 330.9,165.43 717.88,181.65 748.46,182.69 18.85,-7.92 206.77,-98.12 718.91,-731.57 271.48,-335.78 496.84,-517.22 681.22,-605.83 186.27,-89.52 332.19,-84.59 442.17,-47.93 120.54,40.18 219.43,119.43 286.55,236.71 59.57,104.11 90.79,237.2 85.43,397.99 l 0.08,0.09 c -4.51,124.82 -35.83,230.4 -82.37,325.11 -46.07,93.78 -107.46,177.26 -172.49,258.45 l -0.11,0.13 c -101.99,120.78 -224.08,233.51 -368.59,337.15 -144.32,103.49 -310.94,197.82 -502.21,281.83 z m -1354.31,104.37 c 395.55,88.7 859.61,45.19 1316.33,-155.43 190.39,-83.63 356.18,-177.47 499.73,-280.41 143.36,-102.81 264.68,-214.89 366.31,-335.1 64.17,-79.99 124.77,-162.45 170.58,-255.71 45.39,-92.37 75.93,-195.09 80.31,-316.15 5.11,-150.62 -22.19,-271.91 -74.53,-363.38 -51.44,-89.88 -131.09,-151.91 -230.53,-185.05 -103.86,-34.62 -243.08,-38.6 -423.87,48.29 -182.69,87.8 -406.43,268.12 -676.64,602.33 -520.67,643.99 -710.34,729.67 -725.37,735.74 -1.25,0.71 -2.81,1.05 -4.66,0.99 -1.19,-0.04 -413.49,-10.79 -767.76,-187.91 -169.37,-84.68 -273.38,-103.88 -335.13,-84.72 -60.75,18.85 -80.88,75.37 -82.56,142.89 -0.01,3.23 -0.03,6.3 0.13,9.51 175.41,320.08 496.77,536.47 887.66,624.11 z"
   id="path135" />
  <path
   class="fil12"
   d="m 10930.07,1912.36 c 427.57,778.2 787.1,2124.45 877.21,2665.61 l 1010.18,-66.79 C 12208.15,3031.58 11545.16,2220.9 10930.07,1912.36 Z"
   id="path136" />
  <path
   class="fil10"
   d="m 12692.14,4519.47 67.9,19.46 57.43,-27.75 C 12219.3,3058.64 11569.4,2250.84 10963.88,1929.85 l 1.34,4.39 c 0,0 748.26,627.57 1110.31,1279.27 211.12,380.02 436.58,854.42 616.61,1305.96 z"
   id="path137" />
  <path
   class="fil11"
   d="m 11112.95,2286.69 c 268.72,609.78 494.17,1382.4 616.72,1911.74 31.63,117.71 50.8,191.48 50.8,191.48 0,0 0.01,22.46 2.72,56.65 9.41,47.72 17.49,91.78 24.09,131.41 249.27,346.7 682.32,22.17 439.31,-592.49 -233.06,-589.5 -1179.02,-1898.76 -1206.43,-1946.75 0,0 19.11,85.96 72.79,247.96 z"
   id="path138" />
  <path
   class="fil1"
   d="m 12859.29,4524.27 c 11.6,28.1 2.29,45.01 -20.8,37.79 -23.09,-7.22 -51.24,-35.87 -62.84,-63.97 -288.22,-699.88 -587.33,-1246.64 -886.6,-1658.73 -296.44,-408.18 -593.14,-683.4 -879.23,-843.92 168.67,324.66 325.02,729.09 457.03,1130.29 192.68,585.49 334.43,1166.55 386.62,1480.02 4.12,24.6 -13.22,32.12 -38.73,16.78 -25.51,-15.34 -49.53,-47.74 -53.65,-72.34 -51.42,-308.86 -191.49,-882.61 -382.2,-1462.1 -140.19,-426.04 -307.33,-853.9 -485.7,-1178.54 -3.62,-6.64 -6.45,-13.34 -8.15,-19.72 -6.98,-26.18 7.52,-37.32 32.38,-24.88 334.93,168 682.65,477.47 1027.85,952.79 310.65,427.75 619.19,990.6 914.02,1706.53 z"
   id="path139" />
  <path
   class="fil10"
   d="m 10433.4,7263.1 -755.09,-328.42 c 0,0 0,238.24 139.98,358.03 158.49,135.63 459.17,97.43 615.11,-29.61 z"
   id="path140" />
  <path
   class="fil21"
   d="m 10433.39,7263.1 -755.08,-328.43 c 0,0 0,37.33 8.68,89.85 43.24,19.63 525.52,185.05 700.16,252.5 27.49,-14.32 23.87,4.31 46.24,-13.92 z"
   id="path141" />
  <path
   class="fil1"
   d="m 10405.07,7262.46 -713.63,-310.4 c 1.36,40.92 13.81,232.82 128.68,331.11 71.43,61.12 175.83,84.72 282.41,79.6 110.63,-5.32 222.45,-42.02 302.54,-100.31 z m -731.17,-341.39 755.08,328.43 c 3.37,1.49 7.21,4.47 10.59,8.51 6.3,7.53 8.64,15.92 5.23,18.73 -82.13,66.91 -204.05,109.39 -324.51,115.19 -112.01,5.39 -223.88,-21.27 -303.83,-89.68 -146.19,-125.09 -150.96,-360.5 -151.11,-376.33 -0.43,-5.12 2.93,-7.28 8.55,-4.85 z"
   id="path142" />
  <path
   class="fil10"
   d="m 10822.11,7163.64 805.68,-1018.49 c 0,0 136.8,45.6 121.61,362.3 -15.2,316.7 -468.71,597.92 -676.46,635.93 -207.76,38.01 -250.83,20.26 -250.83,20.26 z"
   id="path143" />
  <path
   class="fil21"
   d="m 10822.12,7163.64 805.67,-1018.49 c 0,0 47.06,15.72 82.91,92.62 -165.51,181.61 -727.75,813.39 -831.33,929.81 -44.6,1.27 -57.25,-3.94 -57.25,-3.94 z"
   id="path144" />
  <path
   class="fil1"
   d="m 10810.19,7150.54 805.66,-1018.5 c 1.34,-1.68 3.79,-1.86 6.7,-0.79 0.44,0.14 155.86,52.26 139.84,386.23 -6.54,136.62 -93.26,266.3 -206.77,373.01 -152.34,143.22 -353.32,245.5 -473.08,267.41 -209.62,38.35 -255.19,19.63 -255.32,19.58 -6.57,-2.47 -14.2,-10.68 -17.01,-18.32 -1.44,-3.92 -1.34,-6.94 -0.02,-8.62 z m 827.34,-989.5 -785.07,992.45 c 33.79,0.4 97,-3.8 210.88,-24.63 118.62,-21.7 317.89,-123.19 469.12,-265.37 112,-105.29 197.54,-232.72 203.93,-366.07 12.69,-264.52 -77.46,-325.65 -98.86,-336.38 z"
   id="path145" />
  <path
   class="fil0"
   d="m 10344.1,7920.11 c 0,0 270.65,125.55 597.12,-13.96 326.47,-139.51 449.23,-253.92 694.79,-630.6 245.55,-376.69 412.97,-683.62 772.91,-675.25 359.95,8.37 365.53,415.75 195.32,708.73 -170.21,292.99 -767.33,588.75 -1099.37,733.85 -332.05,145.09 -652.93,97.66 -652.93,97.66 0,0 170.21,16.74 231.59,-78.13 64.31,-99.38 -1.03,-146.87 -110.91,-124.48 -221.9,45.25 -401.02,82.89 -628.52,-17.82 z"
   id="path146" />
  <path
   class="fil1"
   d="m 10355.02,7913.97 c 43.34,17.9 289.49,108.13 582.29,-16.99 162.18,-69.3 273.69,-132.31 374.93,-224.57 101.48,-92.48 193.12,-214.7 315.4,-402.29 17.75,-27.22 36.82,-56.78 55.58,-85.88 218.65,-338.94 388.2,-601.74 725.9,-593.9 67.68,1.57 123.31,16.96 167.92,42.87 52.65,30.59 89.91,75.73 113.56,130.12 23.42,53.84 33.45,116.76 31.9,183.51 -2.78,119.72 -42.84,252.23 -109.62,367.19 -70.55,121.43 -212.92,242.92 -379.38,354.03 -239.07,159.57 -528.21,298.12 -724.66,383.95 -334.65,146.24 -657.35,98.54 -658.28,98.41 l 2.35,-19.8 c 0.46,0.04 164.17,16.14 222.26,-73.64 14.54,-22.47 22.02,-41.85 23.52,-57.9 1.27,-13.61 -1.84,-24.78 -8.58,-33.34 -6.94,-8.81 -17.94,-15.24 -32.13,-19.08 -21.68,-5.86 -50.32,-5.69 -83.37,1.04 l -4.96,1.01 c -221.35,45.14 -400.91,81.76 -629.57,-19.46 l -0.12,-0.08 8.16,-18.2 z m 590.11,1.37 c -40.87,17.47 -80.88,30.82 -119.61,40.82 45.33,-7.66 91.72,-17.11 140.15,-26.99 l 4.96,-1.01 c 36.18,-7.36 67.98,-7.43 92.51,-0.8 18.39,4.98 32.98,13.74 42.67,26.04 9.88,12.55 14.5,28.49 12.72,47.48 -1.79,19.21 -10.27,41.66 -26.64,66.96 -24.34,37.62 -64.43,58.63 -104.99,70.2 123.19,-0.29 316.38,-17.96 513.98,-104.31 195.71,-85.51 483.69,-223.48 721.52,-382.23 164.21,-109.6 304.38,-228.99 373.22,-347.47 65.17,-112.19 104.25,-241.23 106.96,-357.59 1.48,-63.97 -8.03,-124.03 -30.26,-175.15 -22,-50.59 -56.54,-92.51 -105.28,-120.82 -41.82,-24.29 -94.25,-38.73 -158.32,-40.21 -326.56,-7.59 -493.46,251.11 -708.7,584.76 -17.53,27.18 -35.49,55.02 -55.66,85.96 -123.25,189.07 -215.79,312.43 -318.68,406.19 -103.12,93.98 -216.27,157.97 -380.55,228.17 z"
   id="path147" />
  <path
   class="fil10"
   d="m 11064.8,7855.52 c 243.34,-120.04 341.49,-227.58 571.21,-579.97 229.71,-352.4 412.97,-683.62 772.91,-675.25 359.95,8.37 365.53,415.75 195.32,708.73 -170.21,292.99 -767.33,588.75 -1099.37,733.85 -127.85,55.86 -254,83.17 -360.86,95.65 l -146.62,9.7 -55.69,-153.8 239.36,-68.12 z"
   id="path148" />
  <path
   class="fil22"
   d="m 11064.81,7855.53 c 243.33,-120.05 341.48,-227.59 571.19,-579.98 229.72,-352.4 412.98,-683.62 772.92,-675.25 359.95,8.37 365.53,415.75 195.33,708.73 -170.22,292.98 -767.34,588.75 -1099.39,733.84 -127.83,55.87 -253.99,83.18 -360.85,95.66 l -146.62,9.7 -14.73,-40.67 c 75.92,-1.07 176.72,-7.42 257.34,-29.92 149.81,-41.81 543.53,-191.63 986.01,-533.07 442.48,-341.44 426.32,-548.71 425,-592.29 -1.32,-43.58 -48.86,-113.59 -48.86,-113.59 0,0 72.64,11.89 52.83,-18.49 -19.81,-30.38 -112.27,-66.04 -162.46,-50.19 -50.19,15.85 -77.89,59.35 -77.89,59.35 0,0 -41.17,-115.69 -94.12,-125.49 -52.95,-9.8 -33.33,68.63 -33.33,68.63 0,0 -41.18,-68.63 -123.53,-47.06 -82.35,21.57 -260.8,325.5 -549.04,729.43 -239.83,336.09 -455.21,404.74 -520.79,418.33 z"
   id="path149" />
  <path
   class="fil1"
   d="m 11056.23,7844.25 c 121.37,-59.9 206.53,-116.64 289.92,-202.3 83.48,-85.75 165.37,-200.63 280.12,-376.67 16.97,-26.04 34.59,-53.35 52.03,-80.41 207.28,-321.49 389.46,-604.03 723.89,-596.26 67.31,1.56 122.97,17.06 167.94,43.18 55.83,32.43 95.34,80.32 120.45,138.07 23.71,54.52 33.88,117.78 32.33,184.61 -2.77,118.95 -42.54,250.54 -108.83,364.67 -69.95,120.4 -211.55,241.16 -377.21,351.73 -238.64,159.29 -527.38,297.63 -723.57,383.35 -64.21,28.06 -127.89,48.94 -188.8,64.31 -60.9,15.37 -119.39,25.36 -173.09,31.63 l -146.84,9.75 c -4.16,0.27 -10.76,-4.73 -14.72,-11.18 -1.08,-1.76 -1.85,-3.44 -2.32,-4.96 l -55.41,-153.04 c -1.59,-4.4 -0.73,-7.34 1.85,-7.88 l 221.74,-63.1 -89.34,-54.39 c -5.66,-3.45 -10.96,-10.66 -11.82,-16.08 -0.41,-2.58 0.26,-4.3 1.68,-5.03 z m 308.64,-180.86 c -80.79,82.99 -163.15,138.97 -277.97,196.71 l 92.6,56.38 c 2.82,1.73 5.79,4.54 8.16,7.93 4.42,6.34 5.05,12.35 1.41,13.39 l -235.38,66.98 47.45,131.05 135.69,-8.98 c 53.08,-6.18 111.07,-16.1 171.81,-31.44 60.83,-15.35 124.19,-36.1 187.78,-63.89 195.96,-85.62 484.34,-223.79 722.61,-382.83 165,-110.13 305.96,-230.27 375.39,-349.77 65.65,-113.02 105.03,-242.97 107.75,-360.11 1.48,-63.91 -7.9,-123.62 -29.83,-174.05 -20.54,-47.24 -52.83,-86.4 -98.39,-112.87 -41.48,-24.09 -93.86,-38.41 -158.3,-39.9 -330.31,-7.68 -511.6,273.48 -717.85,593.38 -16.82,26.1 -33.87,52.53 -52.07,80.45 -114.93,176.32 -197.02,291.45 -280.86,377.57 z"
   id="path150" />
  <path
   class="fil1"
   d="m 11179.61,7944.16 c -3.72,0.95 -10.31,-3.45 -14.68,-9.83 -4.37,-6.38 -4.9,-12.34 -1.18,-13.29 1.26,-0.31 437.76,-108.05 798.08,-521.05 191.65,-219.67 296.36,-360.19 361.97,-448.25 58.28,-78.23 85.95,-115.35 116.51,-129.97 28.31,-13.54 60.43,-16.42 91.17,-13.26 40.72,4.19 79.55,19.15 104.53,34.13 44.52,26.72 79.44,64.6 79.53,64.69 5.51,5.42 8.68,12.66 7.08,16.13 -1.6,3.47 -7.39,1.89 -12.9,-3.53 -0.09,-0.09 -31.66,-34.23 -70.41,-57.49 -22.27,-13.35 -57.52,-26.76 -95.31,-30.65 -29.15,-2.99 -59.63,-0.25 -86.59,12.64 -29.31,14.02 -56.68,50.75 -114.35,128.15 -65.72,88.2 -170.59,228.95 -362.29,448.67 -361.54,414.4 -799.89,522.59 -801.16,522.91 z"
   id="path151" />
  <path
   class="fil1"
   d="m 12306.25,7017.63 c -1.4,3.67 -7.07,2.35 -12.64,-2.95 -5.57,-5.3 -8.94,-12.58 -7.54,-16.25 0.08,-0.22 29.9,-78.84 2.77,-190.05 -24.99,-102.51 -119.79,-144.93 -120.05,-145.05 -5.46,-2.57 -11.31,-9.46 -13.04,-15.36 -1.73,-5.9 1.3,-8.61 6.76,-6.04 0.32,0.15 116,51.9 146.51,177.05 28.4,116.44 -2.68,198.42 -2.77,198.65 z"
   id="path152" />
  <path
   class="fil1"
   d="m 12402.15,6883.16 c -3.04,1.87 -9.46,-1.62 -14.33,-7.78 -4.87,-6.16 -6.35,-12.69 -3.31,-14.56 0.1,-0.06 36.21,-20.68 4.55,-120.92 -29.4,-93.11 -99.09,-114.76 -99.28,-114.81 -5.1,-1.55 -11.37,-7.88 -13.98,-14.13 -2.61,-6.25 -0.6,-10.06 4.5,-8.51 0.25,0.07 91.17,28.29 128.4,146.17 34.97,110.73 -6.45,134.48 -6.55,134.54 z"
   id="path153" />
  <path
   class="fil1"
   d="m 12423.17,6860.2 c 0,4.86 -4.65,5.37 -10.39,1.14 -5.74,-4.23 -10.41,-11.6 -10.41,-16.46 0,-0.18 0,-64.21 93.95,-92.68 94.58,-28.67 193.4,41.06 193.67,41.25 5.73,4.03 10.59,11.39 10.82,16.42 0.23,5.03 -4.23,5.83 -9.96,1.8 -0.25,-0.17 -89.75,-63.33 -178.37,-36.47 -89.3,27.06 -89.31,84.83 -89.31,85 z"
   id="path154" />
  <path
   class="fil1"
   d="m 12444.93,6815.27 c -1.67,3.41 -7.49,1.74 -12.99,-3.73 -5.5,-5.47 -8.6,-12.7 -6.93,-16.11 0.13,-0.27 46.51,-98.41 38.64,-140.4 -6.67,-35.55 -16.23,-42.68 -16.25,-42.69 -5.69,-3.58 -10.9,-10.84 -11.62,-16.18 -0.72,-5.34 3.31,-6.76 9,-3.18 0.08,0.05 29.27,20.64 39.27,73.93 8.78,46.85 -38.99,148.08 -39.12,148.36 z"
   id="path155" />
  <path
   class="fil1"
   d="m 10659.45,7118.49 c -52.1,-40.95 -119.12,-92.41 -125.64,-91.46 0.11,0.03 0.46,-0.01 0.6,0.34 1,2.5 3.15,6.08 6.19,10.34 l 0.18,0.26 c 11.66,16.28 32.7,37.31 55.34,49.62 18.59,10.11 42.02,21.23 63.33,30.9 z m -146.04,-120.17 c 16.42,-5.05 193.25,135.6 209.07,148.23 5.17,3.8 10.07,10.04 12.11,15.85 2.67,7.61 -0.56,11.62 -7.22,8.97 -0.22,-0.09 -77.45,-32.01 -125.41,-58.08 -31.03,-16.88 -60.42,-46.43 -77.04,-69.59 l -0.3,-0.41 c -6.17,-8.64 -10.87,-16.79 -13.61,-23.6 -3.56,-8.83 -4.06,-15.66 -0.88,-19.31 0.81,-0.94 1.92,-1.64 3.28,-2.06 z"
   id="path156" />
  <path
   class="fil13"
   d="m 13009.47,10478.99 c -234.99,-58.16 -153.6,-409.6 -21.63,-725.97 160.67,-385.09 280.7,-565.37 583.09,-844.51 175.32,-161.85 375.91,-314.3 489.59,-314.3 137.07,0 248.18,201.13 248.18,449.23 0,481.18 -811.17,1526.15 -1298.09,1438.95 z"
   id="path157" />
  <path
   class="fil14"
   d="m 13009.46,10478.99 c -200.41,-49.6 -170.69,-312.55 -75.73,-585.11 31.33,16.18 170.99,74.14 335.99,-75.15 187.67,-169.8 739.97,-842.81 739.97,-842.81 0,0 143.06,1.25 298.45,37.68 0.36,9.86 0.56,19.81 0.56,29.84 0,481.18 -811.17,1526.16 -1298.09,1438.95 z"
   id="path158" />
  <path
   class="fil1"
   d="m 13009.4,10499.05 c -8.56,-2.49 -16.66,-5.34 -24.28,-8.52 -83.18,-34.7 -126.28,-103.38 -140.63,-192.95 -12.29,-76.78 -1.44,-170.91 23.43,-271.43 23.41,-94.62 59.26,-195.3 99.83,-292.55 80.54,-193.04 150.94,-334.79 239.08,-463.28 87.99,-128.25 193.91,-243.41 345.61,-383.45 96.19,-88.8 199.96,-174.79 292.81,-234.39 77.74,-49.91 148.41,-81.61 201.58,-81.61 79.51,0 152.23,59.65 205.5,156.08 47.65,86.26 77.13,203.7 77.13,331.85 0,31.21 -3.28,64.51 -9.52,99.4 l -0.2,0.89 c -44.38,246.11 -237.57,583.78 -477.03,859.78 -240.09,276.72 -527.36,492 -758.98,492 -20.97,0 -41.55,-1.75 -61.63,-5.34 -3.9,-0.69 -8.36,-3.06 -12.7,-6.48 z m -39.04,-52.36 c 8.86,3.69 18.23,6.8 28.08,9.27 1.12,0.23 2.32,0.61 3.6,1.14 2.16,0.89 4.36,2.15 6.55,3.69 15.58,2.28 31.53,3.4 47.78,3.4 226.77,0 510.34,-213.43 748.36,-487.76 238.12,-274.44 430.05,-609.35 473.88,-852.55 l 0.11,-0.74 c 6.05,-33.8 9.22,-65.65 9.22,-95.06 0,-119.94 -26.09,-227.14 -68.25,-303.47 -36.54,-66.14 -87.94,-107.06 -145.5,-107.06 -49.78,0 -117.77,30.85 -193.44,79.43 -92.47,59.36 -195.7,144.89 -291.33,233.17 -150.66,139.08 -256,253.66 -343.77,381.59 -87.6,127.69 -157.6,268.66 -237.72,460.7 -40.33,96.67 -75.91,196.56 -99.07,290.15 -24.15,97.62 -34.85,188.01 -23.33,259.99 9.48,59.18 35.6,103.58 84.83,124.11 z"
   id="path159" />
  <path
   class="fil12"
   d="m 13465.84,9008.95 c 32.49,-32.33 67.37,-65.62 105.09,-100.44 175.32,-161.85 375.91,-314.3 489.59,-314.3 137.07,0 248.18,201.13 248.18,449.23 0,205.37 -147.8,513.4 -355.05,792.31 -2.85,0.06 -5.7,0.14 -8.57,0.14 -275.53,0 -498.88,-289.56 -498.88,-646.74 0,-62.55 6.87,-123 19.64,-180.2 z"
   id="path160" />
  <path
   class="fil10"
   d="m 13510.01,8965.81 c 19.46,-18.68 39.74,-37.75 60.92,-57.3 59.44,-54.87 121.78,-108.65 182.65,-155.79 33.88,-24.67 69.81,-49.56 108.74,-75.86 l 4.06,71.15 c -153.58,108.11 -281,190.02 -406.56,335.42 l -2.28,-31.91 c 1.96,-11.69 4.16,-23.27 6.59,-34.72 15.5,-17.85 30.75,-34.8 45.88,-50.99 z"
   id="path161" />
  <path
   class="fil11"
   d="m 14308.14,9013.6 c 0.36,9.86 0.56,19.81 0.56,29.84 0,205.37 -147.81,513.39 -355.05,792.3 -2.85,0.07 -5.7,0.15 -8.58,0.15 -174.42,0 -327.9,-116.07 -417.07,-291.85 223.35,-253.32 481.69,-568.12 481.69,-568.12 0,0 143.06,1.25 298.45,37.68 z"
   id="path162" />
  <path
   class="fil1"
   d="m 13460.54,8998.13 c 15.98,-15.92 33.12,-32.6 51.36,-50.03 18.3,-17.48 36.66,-34.72 55.14,-51.78 l 1.02,-0.91 c 97.34,-89.79 202.46,-176.79 296.97,-237.46 80.18,-51.47 152.93,-84.16 207.45,-84.16 71.04,0 134.95,51.35 180.8,134.35 45.46,82.29 73.58,196.09 73.58,321.86 0,102.63 -35.78,229.94 -96.94,366.42 -64.4,143.7 -157.05,297.8 -265.68,444 -6.91,9.29 -16.13,15.59 -22.34,15.72 -2.84,0.23 -5.94,0.12 -8.8,0.17 -139.87,0 -266.3,-73.21 -357.57,-191.55 -91.12,-118.12 -147.49,-281.52 -147.49,-462.18 0,-31.57 1.71,-62.54 5,-92.73 3.39,-31.14 8.46,-61.6 15.06,-91.18 1.48,-6.68 6.4,-14.49 12.44,-20.54 z m 60.4,-26.89 c -13.28,12.69 -26.48,25.5 -39.62,38.46 -5.2,24.91 -9.28,50.44 -12.1,76.45 -3.2,29.34 -4.86,59.25 -4.86,89.55 0,176.54 55.33,336.53 144.75,452.46 88.71,115.02 210.8,186.43 345.46,187.29 99.43,-135.82 184.19,-278.03 243.73,-410.89 58.19,-129.86 92.24,-250.69 92.24,-347.68 0,-122.32 -27.45,-233.16 -71.8,-313.46 -43.96,-79.57 -104.18,-128.79 -170.2,-128.79 -48.43,0 -114.33,29.86 -187.57,76.88 -90.17,57.88 -191.25,141.62 -285.19,228.28 l -0.96,0.91 c -19.22,17.75 -37.19,34.59 -53.88,50.54 z"
   id="path163" />
  <path
   class="fil12"
   d="m 13872.81,8663 c 8.27,-76.11 38.8,-177.46 81.66,-222.46 185.3,-194.59 619.69,596.99 298.03,873.56 -160.94,20.75 -411.36,-359.95 -379.69,-651.1 z"
   id="path164" />
  <path
   class="fil10"
   d="m 13916.53,8500.36 c 8.28,-18.02 17.51,-34.24 27.53,-47.47 17.25,-14.63 32.1,-5.74 32.1,-5.74 l -26.43,130.11 c 0,0 -52.85,38.62 -58.95,65.05 0,0 5.31,-82.94 25.75,-141.95 z"
   id="path165" />
  <path
   class="fil11"
   d="m 14249.67,9314.35 c -92.8,9.23 -214.25,-112.34 -294.49,-272.43 34.18,-41.22 54.51,-66 54.51,-66 0,0 143.06,1.25 298.45,37.68 0.36,9.86 0.56,19.81 0.56,29.84 0,77.92 -21.3,170.63 -59.03,270.91 z"
   id="path166" />
  <path
   class="fil1"
   d="m 13852.07,8646.18 c 4.49,-41.28 15.52,-90.11 31.52,-133.72 13.86,-37.87 31.59,-71.76 52.13,-93.32 39.77,-41.77 91.53,-40.82 146.2,-10.14 44.01,24.71 88.86,67.94 130.24,123.28 39.33,52.6 75.69,116.52 104.99,185.67 89.95,212.26 115.15,479.08 -46.32,617.92 -1.1,0.94 -2.5,1.43 -4.12,1.52 -8.68,1.06 -17.62,1.06 -26.7,0.09 -77.35,-8.41 -167.13,-85.69 -241.72,-195.39 -70.63,-103.88 -127.34,-237.74 -144,-367.02 -5.66,-43.9 -6.74,-87.34 -2.22,-128.89 z m 71.84,-95.62 c -15.36,41.8 -25.98,89.04 -30.36,129.28 -4.27,39.3 -3.27,80.23 2.04,121.47 15.37,119.28 66.49,241.02 129.9,334.28 59.46,87.44 130.01,148.95 189.68,155.43 6.93,0.74 13.73,0.8 20.35,0.11 152.61,-132.83 129.4,-384.4 44.73,-584.18 -26.16,-61.74 -58.05,-118.04 -92.09,-163.57 -31.98,-42.78 -65.71,-75.66 -97.8,-93.68 -42.23,-23.7 -83.49,-23.07 -117.14,12.26 -19.25,20.2 -36.03,52.41 -49.31,88.6 z"
   id="path167" />
  <path
   class="fil15"
   d="m 14013.02,8410.54 c 184.93,-17.51 475.16,542.77 301.27,830.4 -1.74,0.77 -3.52,1.51 -5.32,2.18 -103.99,38.59 -247.63,-120.7 -320.81,-355.79 -65.26,-209.65 -52.45,-408.78 24.86,-476.79 z"
   id="path168" />
  <path
   class="fil1"
   d="m 14003.88,8396.01 c 26.92,-2.56 56.19,6.38 86.19,24.51 65.52,39.6 132.97,122.15 186.31,223.8 51.73,98.57 90.66,215.99 101.39,329.2 9.68,102.29 -3.59,201.39 -51.22,280.17 -0.53,0.87 -1.31,1.42 -2.27,1.68 -3.13,1.34 -7.02,2.99 -10.24,3.8 -51.69,15.87 -112.55,-12.75 -171.11,-73.19 -56.7,-58.52 -110.26,-146.88 -149.56,-252.76 -6.18,-16.68 -12.05,-33.85 -17.51,-51.41 -32.89,-105.66 -46.27,-208.65 -41.82,-293.99 4.52,-86.92 27.63,-155.78 67.5,-190.85 0.63,-0.55 1.43,-0.86 2.34,-0.96 z m 90.23,49.15 c -24.17,-14.61 -48.09,-21.92 -70.56,-20.18 -37.46,33.74 -59.22,99.65 -63.55,182.94 -4.32,82.82 8.62,182.66 40.46,284.93 5.23,16.82 10.86,33.28 16.79,49.29 36.29,97.78 84.31,177.88 134.22,229.4 47.82,49.35 98.42,72.44 142.45,58.88 l 8.68,-3.18 c 45.85,-76.46 58.64,-172.23 49.29,-270.98 -10.3,-108.7 -47.36,-220.82 -96.53,-314.52 -47.54,-90.61 -105.99,-163.18 -161.25,-196.58 z"
   id="path169" />
  <g
   id="_2284945296368">
   <path
   class="fil17"
   d="m 11681.44,8627.67 c -2.03,20.51 -5.32,61.79 7.8,87.63 26.82,52.81 123.52,18.97 105.52,-41.16 -9.99,-33.37 -20.24,-69.31 -31.52,-102.15 2.62,0.21 35.58,30.36 39.28,34.25 l 39.02,-16.16 6.26,-52.93 c 13.55,31.81 29.16,65.24 43.73,96.89 21.71,47.15 82.25,22.4 98.55,-7.45 23.35,-42.78 -20.44,-83.33 -46.33,-107.65 57.41,-8.75 161.7,14.07 209.54,76.26 49.01,63.71 37.73,137.41 10.27,193.02 -6.49,13.14 -19.8,37.81 -30.57,48.36 -0.12,-17.43 3.59,-32.57 -5.38,-54.89 -7.98,-19.84 -23.42,-28.86 -36.27,-31.64 -17.09,-3.71 -32.86,4.1 -43.85,18.16 -14.58,18.66 -11.84,25.87 -18.11,41.36 -35.68,-62.46 -89.02,13.85 -87.32,85.07 0.21,8.89 2.69,19.82 2.47,27.88 -6.13,-6.54 -11.88,-16.67 -17.28,-23.01 -24.49,-28.78 -72.18,-54.77 -102.93,-42.33 -17.72,7.17 -19.49,23.1 -15.49,43.69 -7.45,-3.57 -12.48,-7.84 -19.88,-11.37 -47.53,-22.7 -86.18,18.23 -69.36,63.08 8.19,21.81 20.51,29.98 31.49,42.36 -29.4,0.27 -77.04,-21.28 -104.31,-39.81 -32.78,-22.28 -63.88,-65.58 -68.24,-121.72 -3.47,-44.73 12.8,-86.2 29.22,-115.92 15.23,-27.55 46.57,-69.91 73.69,-89.82 z m 89.46,-101.65 c -83.61,41.45 -139.21,83.87 -190.27,154.7 -36.04,49.99 -80.75,150.51 -29.38,243.97 41.47,75.46 128.55,106.13 196.83,112.44 161.72,14.94 337.86,-64.08 436.6,-200.53 36.07,-49.85 80.81,-151.8 29.32,-244.03 -41.72,-74.73 -129.36,-107.27 -196.89,-112.48 -79.7,-6.15 -167.94,7.12 -246.21,45.93 z"
   id="path170" />
   <path
   class="fil23"
   d="m 11681.44,8627.67 c -27.12,19.91 -58.46,62.27 -73.69,89.82 -16.42,29.72 -32.69,71.19 -29.22,115.92 4.36,56.14 35.46,99.44 68.24,121.72 27.27,18.53 74.91,40.08 104.31,39.81 -10.98,-12.38 -23.3,-20.55 -31.49,-42.36 -16.82,-44.85 21.83,-85.78 69.36,-63.08 7.4,3.53 12.43,7.8 19.88,11.37 -4,-20.59 -2.23,-36.52 15.49,-43.69 30.75,-12.44 78.44,13.55 102.93,42.33 5.4,6.34 11.15,16.47 17.28,23.01 0.22,-8.06 -2.26,-18.99 -2.47,-27.88 -1.7,-71.22 51.64,-147.53 87.32,-85.07 6.27,-15.49 3.53,-22.7 18.11,-41.36 10.99,-14.06 26.76,-21.87 43.85,-18.16 12.85,2.78 28.29,11.8 36.27,31.64 8.97,22.32 5.26,37.46 5.38,54.89 10.77,-10.55 24.08,-35.22 30.57,-48.36 27.46,-55.61 38.74,-129.31 -10.27,-193.02 -47.84,-62.19 -152.13,-85.01 -209.54,-76.26 25.89,24.32 69.68,64.87 46.33,107.65 -16.3,29.85 -76.84,54.6 -98.55,7.45 -14.57,-31.65 -30.18,-65.08 -43.73,-96.89 l -6.26,52.93 -39.02,16.16 c -3.7,-3.89 -36.66,-34.04 -39.28,-34.25 11.28,32.84 21.53,68.78 31.52,102.15 18,60.13 -78.7,93.97 -105.52,41.16 -13.12,-25.84 -9.83,-67.12 -7.8,-87.63 z"
   id="path171" />
   <path
   class="fil23"
   d="m 11770.9,8526.02 c 78.27,-38.81 166.51,-52.08 246.21,-45.93 67.53,5.21 155.17,37.75 196.89,112.48 51.49,92.23 6.75,194.18 -29.32,244.03 -98.74,136.45 -274.88,215.47 -436.6,200.53 -68.28,-6.31 -155.36,-36.98 -196.83,-112.44 -51.37,-93.46 -6.66,-193.98 29.38,-243.97 51.06,-70.83 106.66,-113.25 190.27,-154.7 z m -261.41,406.57 c 21.68,44.34 62.61,82.24 97.82,98.76 18.69,8.77 36.25,17.01 57.94,23.11 109.02,30.66 226.68,13.76 332.64,-33.46 113.96,-50.8 260.45,-168.04 276.69,-317.09 14.27,-131.06 -75.48,-213.6 -174.62,-241.08 -108.57,-30.09 -227.07,-14.39 -332.61,33.49 -88.42,40.11 -161.74,95.81 -215.16,169.42 -41.05,56.56 -93.27,163.43 -42.7,266.85 z"
   id="path172" />
  </g>
  
  
  
  
  
  
  
  
  
  
  
  
  
  
  
  
  
  
  
  
  
  
  
  
  
  
  
  
  
  
  
  
  
  
  
  
  
  
  
  
  
  
  
  
  
  
  
  
  
  
  
  
  
  
  
  
  
  
  
  
  
  
  
  
  
  
  
  
  
  
  
  
  
  
  
  
  
  
  
  
  
  
  
  
  
  
  
  
  
  
  
  
  
  
  
  
  
 </g>
 
</svg>
