<?xml version="1.0" encoding="UTF-8" standalone="no"?>
<svg
   viewBox="0 0 599.10846 327.50723"
   version="1.1"
   id="svg18"
   sodipodi:docname="whale.svg"
   inkscape:version="1.4 (86a8ad7, 2024-10-11)"
   xmlns:inkscape="http://www.inkscape.org/namespaces/inkscape"
   xmlns:sodipodi="http://sodipodi.sourceforge.net/DTD/sodipodi-0.dtd"
   xmlns="http://www.w3.org/2000/svg"
   xmlns:svg="http://www.w3.org/2000/svg">
  <defs
     id="defs18" />
  <sodipodi:namedview
     id="namedview18"
     pagecolor="#ffffff"
     bordercolor="#666666"
     borderopacity="1.0"
     inkscape:showpageshadow="2"
     inkscape:pageopacity="0.0"
     inkscape:pagecheckerboard="0"
     inkscape:deskcolor="#d1d1d1"
     inkscape:zoom="2.4884947"
     inkscape:cx="299.5787"
     inkscape:cy="163.75361"
     inkscape:window-width="1920"
     inkscape:window-height="1017"
     inkscape:window-x="-8"
     inkscape:window-y="-8"
     inkscape:window-maximized="1"
     inkscape:current-layer="svg18" />
  <g
     transform="matrix(-1,0,0,1,690.99003,-28.609)"
     id="whale">
    <path
       d="m 292.22,258.86 c -2.5202,31.078 -4.1486,92.956 -45.414,93.009 -20,-7 13.006,-72.719 29.756,-98.219 16.75,-25.5 18.658,18.211 15.658,5.2107 z"
       fill="#93c1cf"
       fill-rule="evenodd"
       id="path1" />
    <path
       transform="matrix(-1.661,0,0,1.1111,535.61,-70.986)"
       d="m 255.97,305.66 a 3.182,6.364 0 1 1 -6.364,0 3.182,6.364 0 1 1 6.364,0 z"
       fill="#002b22"
       id="path2" />
    <path
       d="m 270.27,95.015 c -93.363,-0.36901 -185.66,27.064 -177.94,105.22 4.5696,34.123 15.096,61.194 30.188,81.656 -0.63588,1.1129 -1.0312,2.5454 -1.0312,4.125 0,3.5129 1.9081,6.375 4.25,6.375 26.625,35.65 93.208,40.061 137.16,35.375 79.631,-16.805 295.39,-125.7 317.85,-108.31 58.869,2.8174 81.848,7.7788 110.24,-27.324 0,0 -94.205,4.6685 -96.326,-35.637 -55.188,92.681 -118.96,-28.447 -191.05,-41.29 -35.255,-12.159 -84.439,-19.994 -133.34,-20.188 z"
       fill="#bcdee8"
       id="path3" />
    <path
       d="m 274.2,97.841 c -88.775,-0.36186 -176.54,26.54 -169.19,103.18 7.2779,56.051 30.485,92.695 63.262,111.98 -22.048,-21.078 -37.408,-52.994 -43.086,-96.718 -11.195,-116.79 198.46,-118.08 295.98,-83.387 20.761,3.8148 41.332,22.596 64.379,35.539 -53.899,-56.406 -137.05,-67.962 -211.35,-70.597 z"
       fill="#d7eef4"
       fill-rule="evenodd"
       id="path4" />
    <path
       d="m 125.82,285.46 c 13.081,8.1317 33.18,52.607 164.07,-1.3848"
       fill="none"
       stroke="#93c1cf"
       stroke-width="2.8346"
       id="path5" />
    <path
       transform="matrix(1.1768,0,0,2.9571,-17.288,-318.76)"
       d="m 205,144.36 a 10,2 0 1 1 -20,0 10,2 0 1 1 20,0 z"
       fill="#93c1cf"
       id="path6" />
    <path
       transform="matrix(1,0,0,2.25,16.476,-218.1)"
       d="m 205,144.36 a 10,2 0 1 1 -20,0 10,2 0 1 1 20,0 z"
       fill="#006680"
       id="path7" />
    <path
       d="m 328.01,263.11 c 2.5201,31.078 4.1485,92.956 45.414,93.009 20,-7 -5.1966,-80.118 -29.756,-98.219 -10.386,-6.4081 -17.951,-0.8812 -15.658,5.2107 z"
       fill="#93c1cf"
       fill-rule="evenodd"
       id="path8" />
    <path
       d="m 341.48,316.17 c 5.992,24.149 4.9059,34.998 31.091,35.032 4.176,-1.4616 6.0586,-6.5213 5.5748,-12.85 -32.442,3.7655 -29.244,-9.8301 -36.666,-22.181 z"
       fill="#d7eef4"
       fill-rule="evenodd"
       id="path9" />
    <path
       d="m 595.95,167.58 c 0,0 -9.1924,25.456 -19.445,31.466 12.728,4.9497 85.56,7.7782 90.51,-4.9498 -24.042,2.2364 -62.225,-2.6818 -71.064,-26.516 z"
       fill="#93c1cf"
       fill-rule="evenodd"
       id="path10" />
    <path
       d="m 178.69,28.617 c -16.672,0.47015 -32.918,18.492 -24.594,34.812 4.897,17.134 31.314,0.38449 17.906,-4.2812 -1.7436,11.735 -18.946,-0.43615 -12,-10.219 8.6657,-20.179 37.71,-14.455 48,1.25 11.761,15.651 10.634,38.088 0.90625,54.438 9.319,9.4624 11.113,-9.0818 13.5,-15.531 1.5291,-6.0578 1.7926,-12.426 0.96875,-18.656 l 0.0625,-0.03125 -0.0937,-0.15625 c -0.61544,-4.5291 -1.825,-8.9731 -3.5625,-13.188 0.009,-2.5478 0.42911,-5.1096 1.2812,-7.5312 2.0964,-6.267 7.7496,-11.295 14.375,-12.125 4.8593,-0.75317 10.34,2.0151 11.75,6.9062 0.86253,2.3605 0.0338,5.5853 -2.5625,6.4062 -1.106,0.76367 -1.8795,-1.0434 -2.375,0.25 -0.47241,-1.0856 -0.93384,-2.1957 -1.4062,-3.2812 -1.5932,0.72777 -2.0393,2.926 -1.1875,4.375 1.4429,2.6698 5.1681,2.9125 7.5312,1.375 3.5616,-2.1191 4.6197,-6.8974 3.2188,-10.625 -1.8718,-5.7949 -8.1038,-9.3406 -14.031,-9 -7.1488,0.30479 -13.786,4.8048 -17.125,11.062 -1.0872,1.9756 -1.8483,4.0861 -2.3438,6.25 -6.2243,-10.928 -16.382,-19.371 -29.375,-21.719 -1.8235,-0.35235 -3.675,-0.55833 -5.5312,-0.625 -1.108,-0.13039 -2.201,-0.18759 -3.3125,-0.15625 z"
       fill="#f2f2f2"
       fill-rule="evenodd"
       id="path11" />
    <path
       d="m 179.4,29.851 c -12.871,0.36297 -25.454,11.627 -25.761,24.169 2.0611,-11.259 13.616,-20.774 25.43,-21.107 1.0679,-0.03011 2.118,0.02484 3.1825,0.15012 1.7834,0.06405 3.5623,0.26195 5.3142,0.60048 12.483,2.2558 22.242,10.367 28.223,20.867 0.47603,-2.079 1.2073,-4.1068 2.2518,-6.0048 3.2077,-6.0122 9.5848,-10.336 16.453,-10.628 5.6949,-0.32719 11.682,3.0794 13.481,8.6469 0.31561,0.83977 0.51519,1.7373 0.57045,2.6421 0.51364,-1.8499 0.43282,-3.9139 -0.24019,-5.7046 -1.7984,-5.5676 -7.7859,-8.9741 -13.481,-8.6469 -6.8684,0.29282 -13.245,4.6163 -16.453,10.628 -1.0446,1.898 -1.7758,3.9258 -2.2518,6.0048 -5.9801,-10.499 -15.74,-18.611 -28.223,-20.867 -1.752,-0.33853 -3.5308,-0.53643 -5.3142,-0.60048 -1.0646,-0.12528 -2.1147,-0.18024 -3.1825,-0.15012 z m 59.718,18.315 c -1.4133,0.6456 -1.8709,2.4973 -1.291,3.8731 0.24754,-0.34089 0.55788,-0.62661 0.96076,-0.81065 0.43249,0.99382 0.85946,2.0066 1.291,3.0024 l 0.1201,0.06005 c 0.47753,-0.99906 1.1973,0.5573 2.2218,-0.15012 2.2021,-0.69629 3.0966,-3.1784 2.7022,-5.3142 -0.43581,1.035 -1.2241,1.8889 -2.3719,2.2518 -1.0626,0.73371 -1.8058,-1.0024 -2.2818,0.24019 -0.45388,-1.043 -0.8972,-2.1096 -1.3511,-3.1525 z m -79.203,6.7254 c -2.7366,8.787 11.198,17.669 12.73,7.3559 1.8968,0.66002 2.9368,1.5896 3.3627,2.6121 1.2088,-2.1533 0.66152,-4.3891 -3.0324,-5.6745 -1.352,9.0996 -12.364,3.2478 -13.06,-4.2934 z m 59.027,1.3211 c -0.24742,1.3306 -0.38572,2.6761 -0.39031,4.0232 1.6693,4.0491 2.8314,8.3187 3.4227,12.67 l 0.0901,0.15012 -0.06,0.03002 c 0.46829,3.5411 0.5687,7.1436 0.27022,10.689 0.68957,-4.5325 0.66431,-9.1816 0.06,-13.751 l 0.0601,-0.03003 -0.0901,-0.15012 c -0.5913,-4.3514 -1.7534,-8.621 -3.4227,-12.67 0.001,-0.32124 0.0453,-0.6394 0.0601,-0.96077 z m -3.693,27.232 c -0.96853,6.863 -3.3205,13.551 -6.8154,19.426 0.30333,0.308 0.61368,0.59294 0.90072,0.84067 3.2811,-6.2132 5.3444,-13.201 5.9147,-20.266 z"
       fill="#bcdee8"
       fill-rule="evenodd"
       id="path12" />
    <path
       transform="matrix(1.2525,0,0,2.1429,-39.824,-340.28)"
       d="m 254.56,280.2 a 9.8995,9.8995 0 1 1 -19.799,0 9.8995,9.8995 0 1 1 19.799,0 z"
       fill="#93c1cf"
       id="path13" />
    <path
       transform="matrix(0.92424,0,0,1.6783,40.747,-206)"
       d="m 254.56,280.2 a 9.8995,9.8995 0 1 1 -19.799,0 9.8995,9.8995 0 1 1 19.799,0 z"
       fill="#70adc0"
       id="path14" />
    <path
       transform="matrix(-2.2222,0,0,1.1111,829.67,-68.986)"
       d="m 255.97,305.66 a 3.182,6.364 0 1 1 -6.364,0 3.182,6.364 0 1 1 6.364,0 z"
       id="path15" />
    <path
       transform="matrix(-1.2008,0,0,0.60042,574.73,84.359)"
       d="m 255.97,305.66 a 3.182,6.364 0 1 1 -6.364,0 3.182,6.364 0 1 1 6.364,0 z"
       fill="#ffffff"
       id="path16" />
    <path
       d="m 289.89,279.75 c 0,0 10,7 4,12"
       fill="none"
       stroke="#93c1cf"
       stroke-width="2.126"
       id="path17" />
    <path
       d="m 153.3,308.65 c 1.7678,1.7678 28.991,11.314 52.326,5.3033 5.0898,-1.311 -23.663,10.861 -34.648,4.9498 -10.621,-5.7152 -17.678,-10.253 -17.678,-10.253 z"
       fill="#93c1cf"
       fill-rule="evenodd"
       id="path18" />
  </g>
</svg>
