<?xml version="1.0" encoding="UTF-8" standalone="no"?>
<!-- Created with Inkscape (http://www.inkscape.org/) -->

<svg
   width="1920"
   height="900"
   viewBox="0 0 508 238.12499"
   version="1.1"
   id="scene"
   xml:space="preserve"
   inkscape:version="1.4 (86a8ad7, 2024-10-11)"
   sodipodi:docname="charpente.svg"
   xmlns:inkscape="http://www.inkscape.org/namespaces/inkscape"
   xmlns:sodipodi="http://sodipodi.sourceforge.net/DTD/sodipodi-0.dtd"
   xmlns="http://www.w3.org/2000/svg"
   xmlns:svg="http://www.w3.org/2000/svg"><sodipodi:namedview
     id="namedview1"
     pagecolor="#ffffff"
     bordercolor="#666666"
     borderopacity="1.0"
     inkscape:showpageshadow="2"
     inkscape:pageopacity="0.0"
     inkscape:pagecheckerboard="0"
     inkscape:deskcolor="#d1d1d1"
     inkscape:document-units="mm"
     inkscape:zoom="0.35044925"
     inkscape:cx="465.11727"
     inkscape:cy="303.89564"
     inkscape:window-width="1920"
     inkscape:window-height="1017"
     inkscape:window-x="-8"
     inkscape:window-y="-8"
     inkscape:window-maximized="1"
     inkscape:current-layer="titre"
     showgrid="false" /><defs
     id="defs1"><rect
       x="1135.6851"
       y="194.03665"
       width="733.34441"
       height="265.37366"
       id="rect1" /><clipPath
       clipPathUnits="userSpaceOnUse"
       id="clipPath36"><path
         style="fill:#746859;fill-opacity:1;stroke:#513825;stroke-width:0.499999;stroke-opacity:1"
         d="m 167.23473,68.861363 -3.34888,1.883744 -3.34888,10.046644 115.95499,91.675609 8.1629,-11.93039 z"
         id="path37" /></clipPath><rect
       x="1135.6851"
       y="194.03665"
       width="733.34441"
       height="265.37366"
       id="rect2" /><rect
       x="1135.6851"
       y="194.03665"
       width="733.34441"
       height="265.37366"
       id="rect3" /><rect
       x="1135.6851"
       y="194.03665"
       width="733.34441"
       height="265.37366"
       id="rect4" /></defs><g
     inkscape:groupmode="layer"
     id="layer2"
     inkscape:label="Entrait"
     onmouseover=""
     sodipodi:insensitive="true"
     style="display:inline"><g
       id="g1"
       onmouseover=""
       transform="matrix(2.0129564,0,0,1.942139,-0.89610255,0.89285205)"><path
         style="fill:#9d7d63;fill-opacity:1;stroke:#4c3c2d;stroke-width:0.499999;stroke-opacity:1"
         d="m 14.012138,80.756193 c 0.102841,0.07713 0.951282,1.439778 0.951282,1.439778 l -1.002703,2.288219 1.054124,1.979698 106.209119,30.251442 0.87264,-6.39934 z"
         id="path1" /><path
         style="fill:#9d7d63;fill-opacity:1;stroke:#4c3c2d;stroke-width:0.499999;stroke-opacity:1"
         d="m 14.107648,80.719016 5.381268,-4.145028 104.614914,27.372932 -2.0054,6.40188 z"
         id="entrait"
         onmouseover="" /><path
         style="fill:#564d3e;fill-opacity:1;stroke:none;stroke-width:0.499999;stroke-opacity:1"
         d="m 121.35282,116.67354 2.10825,-7.19889 0.66847,-5.39918 -2.0054,6.27333 z"
         id="path3" /></g></g><g
     inkscape:groupmode="layer"
     id="poincon"
     inkscape:label="Poinçon"
     style="display:inline"
     sodipodi:insensitive="true"><path
       style="fill:#997e68;fill-opacity:1;stroke:#3e3023;stroke-width:0.499999;stroke-opacity:1"
       d="M 57.179807,165.36894 47.7184,71.680442 c 2.756142,-1.0443 5.290637,-2.494032 8.021627,-3.59945 l -0.719889,-8.690096 3.496607,0.514206 9.718511,108.291978 z"
       id="path8"
       sodipodi:nodetypes="ccccccc" /><path
       style="fill:#635344;fill-opacity:1;stroke:#5c4b3c;stroke-width:0.499999;stroke-opacity:1"
       d="M 68.492359,168.04281 58.413903,59.853684 68.286677,55.534345 77.336718,160.84392 Z"
       id="path2"
       sodipodi:nodetypes="ccccc" /><path
       style="fill:#675749;fill-opacity:1;stroke:#3e3023;stroke-width:0.499999;stroke-opacity:1"
       d="m 55.485236,59.193948 2.617914,0.654478 9.781889,-4.478509 -2.509906,-0.53916 z"
       id="path4"
       sodipodi:nodetypes="ccccc" /></g><g
     inkscape:groupmode="layer"
     id="panne_faitire"
     inkscape:label="Panne faitière"
     style="display:inline"
     sodipodi:insensitive="true"><title
       id="title1">panne_faitire</title><path
       style="fill:#987b65;fill-opacity:1;stroke:#665951;stroke-width:0.499999;stroke-opacity:1"
       d="m 34.905521,77.664785 -7.053823,-1.236236 -2.472475,-18.17996 3.490552,-2.254314 4.07231,3.563271 z"
       id="path11" /><path
       style="fill:#766352;fill-opacity:1;stroke:#473929;stroke-width:0.499999;stroke-opacity:1"
       d="m 29.00127,55.945711 4.010813,3.496607 114.513877,-45.095945 -2.36535,-1.851145 z"
       id="path13" /><path
       style="fill:#645445;fill-opacity:1;stroke:#473929;stroke-width:0.499999;stroke-opacity:1"
       d="m 34.966068,77.439559 20.979643,-9.564248 -0.617048,-8.84436 10.181296,-4.422179 3.08524,0.205684 0.617048,7.198894 78.190863,-35.397889 0.3636,-12.289653 -114.824625,45.231738 z"
       id="path14" /></g><g
     inkscape:groupmode="layer"
     id="layer5"
     inkscape:label="Lien de contreventement"
     sodipodi:insensitive="true"
     style="display:inline"><path
       style="fill:#665646;fill-opacity:1;stroke:#5a4533;stroke-width:0.499999;stroke-opacity:1"
       d="m 74.068735,124.81708 1.19252,13.38273 35.245585,-94.739085 -6.49261,3.04755 z"
       id="path15" /><path
       style="fill:#a5866a;fill-opacity:1;stroke:#7b6f5f;stroke-width:0.499999;stroke-opacity:1"
       d="M 74.201239,123.75706 73.14122,110.50684 96.991619,49.688329 103.74923,46.773279 Z"
       id="path16" /></g><g
     inkscape:groupmode="layer"
     id="layer6"
     inkscape:label="Contrefiche"
     sodipodi:insensitive="true"
     style="display:inline"><path
       style="fill:#9b7f66;fill-opacity:1;stroke:#4f4743;stroke-width:0.499999;stroke-opacity:1"
       d="m 67.04612,143.49989 1.192519,12.72022 38.425641,-33.52306 -9.142653,-7.02262 z"
       id="path17" /></g><g
     inkscape:groupmode="layer"
     id="layer8"
     inkscape:label="Arbatétrier"
     sodipodi:insensitive="true"
     style="display:inline"><path
       style="fill:#9c7d64;fill-opacity:1;stroke:#4d341e;stroke-width:0.499999;stroke-opacity:1"
       d="m 59.890998,72.346208 1.060019,13.250219 140.717343,116.866953 20.67035,5.30008 z"
       id="path20" /><path
       style="fill:#7c6654;fill-opacity:1;stroke:#4c392a;stroke-width:0.499999;stroke-opacity:1"
       d="m 59.758497,72.213705 9.540158,-4.24007 156.485115,130.779675 -3.44506,8.87765 z"
       id="path21" /></g><g
     inkscape:groupmode="layer"
     id="layer11"
     inkscape:label="Panne_intermédiare"
     sodipodi:insensitive="true"
     style="display:inline"><path
       style="fill:#9b7d63;fill-opacity:1;stroke:#594431;stroke-width:0.499999;stroke-opacity:1"
       d="m 99.733855,104.23392 5.127975,3.76748 -8.162896,11.72109 -4.814017,-4.08145 z"
       id="path27" /><path
       style="fill:#362f25;fill-opacity:1;stroke:none;stroke-width:0.499999;stroke-opacity:1"
       d="m 104.48872,108.04075 86.5806,-62.900439 -5.77204,8.732059 -88.356612,66.00846 z"
       id="path28" /><path
       style="fill:#7c6554;fill-opacity:1;stroke:#4f3c28;stroke-width:0.499999;stroke-opacity:1"
       d="m 104.93272,107.74474 -5.032032,-3.70002 88.060602,-61.568428 3.40403,2.664019 z"
       id="path29" /></g><g
     inkscape:groupmode="layer"
     id="layer12"
     inkscape:label="Panne intermédiare"
     sodipodi:insensitive="true"
     style="display:inline"><path
       style="fill:#9a7e67;fill-opacity:1;stroke:#533f30;stroke-width:0.499999;stroke-opacity:1"
       d="m 163.67655,157.18809 5.28495,4.29075 -9.99432,10.25595 -4.65703,-4.34308 z"
       id="path30" /><path
       style="fill:#7a6854;fill-opacity:1;stroke:#564535;stroke-width:0.499999;stroke-opacity:1"
       d="M 169.01268,161.44372 231.70069,77.128911 228.45646,74.721902 163.7812,157.3974 Z"
       id="path31"
       sodipodi:nodetypes="ccccc" /><path
       style="fill:#4e4032;fill-opacity:1;stroke:none;stroke-width:0.499999;stroke-opacity:1"
       d="m 154.51945,167.02543 9.52338,-9.88967 64.32274,-82.432244 -1.73901,0.740005 z"
       id="path32" /></g><g
     inkscape:groupmode="layer"
     id="layer10"
     inkscape:label="Echantignole"
     sodipodi:insensitive="true"
     style="display:inline"><path
       style="fill:#a07f63;fill-opacity:1;stroke:#473626;stroke-width:0.499999;stroke-opacity:1"
       d="m 167.9673,162.21141 7.95359,6.59311 -1.98839,-14.02343 c 0,0 -5.75589,7.63963 -5.9652,7.43032 z"
       id="path25"
       sodipodi:nodetypes="cccc" /><path
       style="fill:#6e5a49;fill-opacity:1;stroke:#524131;stroke-width:0.499999;stroke-opacity:1"
       d="m 173.9325,155.19969 4.70936,-6.48845 2.09305,12.7676 -4.60471,6.80242 z"
       id="path26" /></g><g
     inkscape:groupmode="layer"
     id="layer7"
     inkscape:label="Echantignole"
     sodipodi:insensitive="true"
     style="display:inline"><path
       style="fill:#9c846a;fill-opacity:1;stroke:#4b3322;stroke-width:0.499999;stroke-opacity:1"
       d="m 107.7243,111.69936 8.34764,7.55263 -2.91505,-15.23776 z"
       id="path18" /><path
       style="fill:#725d4b;fill-opacity:1;stroke:#4b3e2d;stroke-width:0.499999;stroke-opacity:1"
       d="m 113.15689,104.14674 6.75761,-4.770083 2.91505,13.647723 -6.62511,5.6976 z"
       id="path19" /></g><g
     inkscape:groupmode="layer"
     id="layer9"
     inkscape:label="Panne sablière"
     sodipodi:insensitive="true"
     style="display:inline"><path
       style="fill:#9b7d63;fill-opacity:1;stroke:#483626;stroke-width:0.499999;stroke-opacity:1"
       d="m 222.29753,206.38742 -1.77601,15.39211 8.65806,2.29401 1.55401,-11.24808 z"
       id="path22" /><path
       style="fill:#615142;fill-opacity:1;stroke:#463a2a;stroke-width:0.499999;stroke-opacity:1"
       d="m 229.25358,224.07354 c 0.222,-0.592 39.96028,-108.48474 39.96028,-108.48474 l 0.88799,-7.69606 -39.36826,104.93272 z"
       id="path23" /><path
       style="fill:#7d6654;fill-opacity:1;stroke:#564332;stroke-width:0.499999;stroke-opacity:1"
       d="m 222.14953,206.46142 8.28806,6.36404 39.73826,-104.78471 -4.81001,-4.21803 z"
       id="path24" /></g><g
     inkscape:groupmode="layer"
     id="layer13"
     inkscape:label="Chevron"
     sodipodi:insensitive="true"
     style="display:inline"><path
       style="fill:#967a62;fill-opacity:1;stroke:#513825;stroke-width:0.499999;stroke-opacity:1"
       d="m 119.88083,16.576114 0.148,5.328037 159.9891,129.056889 3.25602,-3.10802 z"
       id="path33" /><path
       style="fill:#746859;fill-opacity:1;stroke:#513825;stroke-width:0.499999;stroke-opacity:1"
       d="m 119.77482,16.37812 2.14537,-0.784894 161.94576,129.965774 -0.444,2.07202 z"
       id="path34" /></g><g
     inkscape:groupmode="layer"
     id="layer14"
     inkscape:label="Chevron"
     style="display:inline"
     sodipodi:insensitive="true"><path
       style="fill:#967a62;fill-opacity:1;stroke:#513825;stroke-width:0.466771;stroke-opacity:1"
       d="m 133.59365,11.821146 0.13897,4.945163 150.22664,119.782821 3.05733,-2.88468 z"
       id="path33-8" /><path
       style="fill:#746859;fill-opacity:1;stroke:#513825;stroke-width:0.466771;stroke-opacity:1"
       d="m 133.49411,11.63738 2.01446,-0.728491 152.0639,120.626391 -0.41691,1.92312 z"
       id="path34-8" /></g><g
     inkscape:groupmode="layer"
     id="layer15"
     inkscape:label="Chevron"
     style="display:inline"
     sodipodi:insensitive="true"><g
       id="g34"
       clip-path="url(#clipPath36)"><path
         style="display:inline;fill:#967a62;fill-opacity:1;stroke:#513825;stroke-width:0.480052;stroke-opacity:1"
         d="m 122.93617,37.69868 0.11586,5.099691 153.45487,124.369969 3.15178,-2.95679 z"
         id="path33-8-5" /><path
         style="display:inline;fill:#746859;fill-opacity:1;stroke:#513825;stroke-width:0.480052;stroke-opacity:1"
         d="m 122.83505,37.508628 2.07037,-0.739559 155.33496,125.250311 -0.43804,1.98051 z"
         id="path34-8-1" /></g></g><g
     inkscape:groupmode="layer"
     id="layer16"
     inkscape:label="Liteau"
     sodipodi:insensitive="true"><path
       style="fill:#978675;fill-opacity:1;stroke:#5b4a37;stroke-width:0.499999;stroke-opacity:1"
       d="m 167.50523,84.852557 2.51415,1.99037 -1.6761,1.93799 -2.40939,-2.147503 z"
       id="path38"
       sodipodi:nodetypes="ccccc" /><path
       style="fill:#796752;fill-opacity:1;stroke:#543d2b;stroke-width:0.499999;stroke-opacity:1"
       d="m 167.55761,84.7478 34.7267,-30.012663 1.6761,1.518965 -34.04578,30.536445 z"
       id="path39" /><path
       style="fill:#3a2f23;fill-opacity:1;stroke:none;stroke-width:0.499999;stroke-opacity:1"
       d="m 204.06516,56.254102 -0.20951,0.838051 -35.40761,31.898275 1.57134,-2.357014 z"
       id="path40" /></g><g
     inkscape:groupmode="layer"
     id="layer17"
     inkscape:label="Liteau"
     sodipodi:insensitive="true"><path
       style="fill:#948274;fill-opacity:1;stroke:#59493b;stroke-width:0.499999;stroke-opacity:1"
       d="m 183.11056,97.999705 2.51851,1.925918 -1.48148,1.999997 -2.59259,-2.074071 z"
       id="path41"
       sodipodi:nodetypes="ccccc" /><path
       style="fill:#796858;fill-opacity:1;stroke:#4a3a2b;stroke-width:0.499999;stroke-opacity:1"
       d="m 183.11056,97.703409 31.77768,-33.036939 1.4074,1.851848 -30.51842,33.333232 z"
       id="path42" /><path
       style="fill:#46392d;fill-opacity:1;stroke:none;stroke-width:0.499999;stroke-opacity:1"
       d="m 184.51796,101.99969 32.07398,-34.740634 -0.59259,-0.518517 -30.22213,33.185084 z"
       id="path43" /></g><g
     inkscape:groupmode="layer"
     id="layer18"
     inkscape:label="Liteau"
     sodipodi:insensitive="true"><path
       style="fill:#917e6e;fill-opacity:1;stroke:#554432;stroke-width:0.499999;stroke-opacity:1"
       d="m 198.81421,111.40707 2.81481,2.14814 -1.25925,1.48148 -2.96296,-2.07407 z"
       id="path44" /><path
       style="fill:#796753;fill-opacity:1;stroke:#51463e;stroke-width:0.499999;stroke-opacity:1"
       d="m 198.81421,111.333 28.37029,-35.999895 2.22221,1.851848 -27.85176,36.370257 z"
       id="path45"
       sodipodi:nodetypes="ccccc" /></g><g
     inkscape:groupmode="layer"
     id="layer19"
     inkscape:label="Liteau"
     sodipodi:insensitive="true"><path
       style="fill:#3d271f;fill-opacity:1;stroke:none;stroke-width:0.499999;stroke-opacity:1"
       d="m 213.18454,126.07369 25.55548,-39.110989 1.7037,-1.185182 -25.18511,38.962841 z"
       id="path48" /><path
       style="fill:#8f7d6f;fill-opacity:1;stroke:#503c2b;stroke-width:0.499999;stroke-opacity:1"
       d="m 214.96231,124.59222 2.74074,2.29629 -1.25926,1.7037 -2.81481,-2.22222 z"
       id="path46"
       sodipodi:nodetypes="ccccc" /><path
       style="fill:#776255;fill-opacity:1;stroke:#3d271f;stroke-width:0.499999;stroke-opacity:1"
       d="m 215.03639,124.59222 25.40733,-38.888774 1.55555,1.629624 -24.29622,39.33321 z"
       id="path47"
       sodipodi:nodetypes="ccccc" /></g><g
     inkscape:groupmode="layer"
     id="layer20"
     inkscape:label="Liteau"
     sodipodi:insensitive="true"
     style="display:inline"><path
       style="fill:#352719;fill-opacity:1;stroke:none;stroke-width:0.499999;stroke-opacity:1"
       d="m 231.25856,138.59217 -1.4074,1.18518 21.62956,-42.073941 1.55555,-1.481477 z"
       id="path51" /><path
       style="fill:#9b8976;fill-opacity:1;stroke:#55432d;stroke-width:0.499999;stroke-opacity:1"
       d="m 231.11041,138.36995 2.74074,2.07407 -1.18519,1.62962 c 0,0 -3.03702,-1.92592 -2.88888,-2.22221 0.14815,-0.2963 1.33333,-1.48148 1.33333,-1.48148 z"
       id="path49"
       sodipodi:nodetypes="cccsc" /><path
       style="fill:#7b6a56;fill-opacity:1;stroke:#57422f;stroke-width:0.499999;stroke-opacity:1"
       d="m 231.11041,138.36995 22.29623,-42.148018 1.92592,1.999994 -21.33327,42.148024 z"
       id="path50" /></g><g
     inkscape:groupmode="layer"
     id="layer21"
     inkscape:label="Liteau"
     sodipodi:insensitive="true"><path
       style="fill:#392d20;fill-opacity:1;stroke:none;stroke-width:0.499999;stroke-opacity:1"
       d="m 247.77703,152.29584 -1.55555,1.55555 17.8518,-45.3332 2.07405,-1.85185 z"
       id="path54" /><path
       style="fill:#958170;fill-opacity:1;stroke:#5a4737;stroke-width:0.499999;stroke-opacity:1"
       d="m 247.62888,152.22176 2.88888,1.85185 -2.07407,2.14814 -2.37036,-2.37036 z"
       id="path52" /><path
       style="fill:#796755;fill-opacity:1;stroke:#473426;stroke-width:0.499999;stroke-opacity:1"
       d="m 247.92518,152.22176 18.51846,-45.55542 1.85185,1.85185 -18.07402,45.62949 z"
       id="path53"
       sodipodi:nodetypes="ccccc" /></g><g
     inkscape:groupmode="layer"
     id="layer22"
     inkscape:label="Liteau"
     sodipodi:insensitive="true"><path
       style="fill:#887b6f;fill-opacity:1;stroke:#544332;stroke-width:0.499999;stroke-opacity:1"
       d="m 264.2955,166.14764 2.59259,2 -1.55557,1.77777 -2.5185,-2.22221 z"
       id="path55" /><path
       style="fill:#7a665c;fill-opacity:1;stroke:#614736;stroke-width:0.499999;stroke-opacity:1"
       d="m 264.36957,166.14764 15.18513,-48.88873 1.77779,2.07406 -14.51848,48.96281 z"
       id="path56"
       sodipodi:nodetypes="ccccc" /><path
       style="fill:#2f241a;fill-opacity:1;stroke:none;stroke-width:0.499999;stroke-opacity:1"
       d="m 264.44365,166.14764 -1.77778,1.55556 14.88884,-48.88874 1.99999,-2.07407 z"
       id="path57" /></g><g
     inkscape:groupmode="layer"
     id="titre"
     inkscape:label="titre"><text
       xml:space="preserve"
       transform="matrix(0.26458333,0,0,0.26458333,-12.024267,-34.331831)"
       id="text1"
       style="font-size:96px;line-height:1.25;font-family:'Book Antiqua';-inkscape-font-specification:'Book Antiqua, Normal';text-align:center;white-space:pre;shape-inside:url(#rect1);display:inline"><tspan
         x="1317.084"
         y="275.19241"
         id="tspan5">Exemple</tspan></text><text
       xml:space="preserve"
       transform="matrix(0.26458333,0,0,0.26458333,-12.253717,7.2506975)"
       id="text2"
       style="font-size:96px;line-height:1.25;font-family:'Book Antiqua';-inkscape-font-specification:'Book Antiqua, Normal';text-align:center;white-space:pre;shape-inside:url(#rect2);display:inline"><tspan
         x="1450.0449"
         y="275.19241"
         id="tspan6">de</tspan></text><text
       xml:space="preserve"
       transform="matrix(0.26458333,0,0,0.26458333,-11.838237,42.321997)"
       id="text3"
       style="font-size:96px;line-height:1.25;font-family:'Book Antiqua';-inkscape-font-specification:'Book Antiqua, Normal';text-align:center;white-space:pre;shape-inside:url(#rect3);display:inline"><tspan
         x="1379.0527"
         y="275.19241"
         id="tspan7">ferme</tspan></text><text
       xml:space="preserve"
       transform="matrix(0.26458333,0,0,0.26458333,-11.968457,77.405698)"
       id="text4"
       style="font-size:96px;line-height:1.25;font-family:'Book Antiqua';-inkscape-font-specification:'Book Antiqua, Normal';text-align:center;white-space:pre;shape-inside:url(#rect4);display:inline"><tspan
         x="1214.8262"
         y="275.19241"
         id="tspan8">traditionnelle</tspan></text></g></svg>
