<?xml version="1.0" encoding="UTF-8" standalone="no"?>
<!-- Created with Inkscape (http://www.inkscape.org/) -->

<svg
   width="296.72263mm"
   height="130.70534mm"
   viewBox="0 0 296.72263 130.70534"
   version="1.1"
   id="angle90"
   inkscape:version="1.4 (86a8ad7, 2024-10-11)"
   sodipodi:docname="angle90.svg"
   xml:space="preserve"
   xmlns:inkscape="http://www.inkscape.org/namespaces/inkscape"
   xmlns:sodipodi="http://sodipodi.sourceforge.net/DTD/sodipodi-0.dtd"
   xmlns:xlink="http://www.w3.org/1999/xlink"
   xmlns="http://www.w3.org/2000/svg"
   xmlns:svg="http://www.w3.org/2000/svg"><sodipodi:namedview
     id="namedview1"
     pagecolor="#ffffff"
     bordercolor="#666666"
     borderopacity="1.0"
     inkscape:showpageshadow="2"
     inkscape:pageopacity="0.0"
     inkscape:pagecheckerboard="0"
     inkscape:deskcolor="#d1d1d1"
     inkscape:document-units="mm"
     inkscape:zoom="2.9104665"
     inkscape:cx="341.18242"
     inkscape:cy="167.49892"
     inkscape:window-width="1920"
     inkscape:window-height="1017"
     inkscape:window-x="-8"
     inkscape:window-y="-8"
     inkscape:window-maximized="1"
     inkscape:current-layer="m1_dessin"
     showguides="true"
     showgrid="false" /><defs
     id="defs1"><rect
       x="559.42232"
       y="203.93284"
       width="297.54136"
       height="44.575484"
       id="rect15" /><rect
       x="554.0235"
       y="146.4283"
       width="246.96116"
       height="107.08935"
       id="rect6" /><rect
       x="512.49905"
       y="112.5531"
       width="53.54468"
       height="218.54971"
       id="rect5" /><linearGradient
       id="linearGradient10"
       inkscape:collect="always"><stop
         style="stop-color:#4a919e;stop-opacity:1;"
         offset="0"
         id="stop10" /><stop
         style="stop-color:#bed3c3;stop-opacity:0;"
         offset="1"
         id="stop11" /></linearGradient><rect
       x="77.130188"
       y="31.678471"
       width="1009.6528"
       height="116.83883"
       id="rect1" /><clipPath
       clipPathUnits="userSpaceOnUse"
       id="clipPath4"><rect
         style="opacity:1;fill:none;fill-opacity:1;stroke:#2a7fff;stroke-width:1.23949;stroke-opacity:1"
         id="rect4"
         width="81.389961"
         height="40.428734"
         x="35.170109"
         y="58.464966" /></clipPath><clipPath
       clipPathUnits="userSpaceOnUse"
       id="clipPath6"><rect
         style="opacity:1;fill:none;fill-opacity:1;stroke:#2a7fff;stroke-width:1;stroke-opacity:1"
         id="rect7"
         width="151.16765"
         height="49.765587"
         x="15.360988"
         y="-44.125259"
         transform="rotate(29.397005)" /></clipPath><clipPath
       clipPathUnits="userSpaceOnUse"
       id="clipPath8"><rect
         style="opacity:1;fill:none;fill-opacity:1;stroke:#2a7fff;stroke-width:0.737624;stroke-opacity:1"
         id="rect9"
         width="98.256897"
         height="17.112158"
         x="-1.1440699"
         y="60.044727"
         transform="rotate(-28.112502)" /></clipPath><linearGradient
       inkscape:collect="always"
       xlink:href="#linearGradient10"
       id="linearGradient11"
       x1="144.43245"
       y1="2.4321494"
       x2="142.56155"
       y2="204.86209"
       gradientUnits="userSpaceOnUse"
       gradientTransform="matrix(1,0,0,0.62489071,1.0741091,-0.52486698)" /><radialGradient
       id="a"
       cx="68.591"
       cy="68.533"
       r="63.739"
       gradientTransform="matrix(-0.94622,0,0,0.94622,133.84,3.6856)"
       gradientUnits="userSpaceOnUse"><stop
         stop-color="#d4e4f7"
         offset="0"
         id="stop1" /><stop
         stop-color="#7fb5f7"
         offset="1"
         id="stop2" /></radialGradient><rect
       x="554.0235"
       y="146.4283"
       width="246.96117"
       height="107.08935"
       id="rect6-8" /><radialGradient
       id="a-2"
       cx="68.591003"
       cy="68.532997"
       r="63.738998"
       gradientTransform="matrix(-0.94622,0,0,0.94622,133.84,3.6856)"
       gradientUnits="userSpaceOnUse"><stop
         stop-color="#d4e4f7"
         offset="0"
         id="stop1-4" /><stop
         stop-color="#7fb5f7"
         offset="1"
         id="stop2-5" /></radialGradient><clipPath
       clipPathUnits="userSpaceOnUse"
       id="clipPath17"><path
         style="fill:none;stroke:#000000;stroke-width:0.264583px;stroke-linecap:butt;stroke-linejoin:miter;stroke-opacity:1"
         d="m 239.53528,22.827968 c -0.40888,0.06815 -0.81776,0.136294 -1.22664,0.204441 -0.34074,0.136294 -0.66235,0.33691 -1.02221,0.408881 -0.33411,0.06682 -0.69347,-0.08965 -1.0222,0 -0.44104,0.120283 -0.81048,0.424156 -1.22665,0.613323 -0.33409,0.151858 -0.69396,0.244762 -1.0222,0.408882 -0.21977,0.109883 -0.40496,0.278657 -0.61332,0.408882 -0.33697,0.210601 -0.72051,0.354723 -1.02221,0.613322 -0.41586,0.356457 -0.50002,1.026683 -0.81776,1.431086 -0.56643,0.720915 -1.22045,1.36857 -1.83997,2.044408 -0.0558,0.0609 -0.68698,0.596776 -0.61332,0.817764 0.0482,0.144563 0.35229,0.06296 0.40888,0.20444 0.2358,0.589513 -0.10022,0.909982 -0.20444,1.431087 -0.0267,0.133649 0.0537,0.283609 0,0.408882 -0.10231,0.23873 -0.78706,1.306319 -1.02221,1.635527 -0.19804,0.277267 -0.4791,0.504579 -0.61332,0.817763 -0.0805,0.187913 0.0647,0.419373 0,0.613323 -0.0777,0.233098 -0.27865,0.404963 -0.40888,0.613323 -0.2106,0.336962 -0.43562,0.666792 -0.61332,1.022204 -0.0964,0.192749 -0.10807,0.420574 -0.20444,0.613323 -0.10989,0.219768 -0.299,0.393554 -0.40889,0.613323 -0.0964,0.192748 -0.0936,0.428532 -0.20444,0.613322 -0.14899,0.248328 -0.61332,0.448593 -0.61332,0.817764 0,0.280977 0.1363,0.545174 0.20444,0.817763 0,0.477028 0.0396,0.955704 0,1.431087 -0.19387,2.326449 -0.11073,-0.170392 -0.61332,1.839968 -0.0795,0.318018 0.0596,1.073314 0,1.431086 -0.15619,0.937128 -0.2787,0.483142 -1.0222,1.226643 -0.10775,0.107751 -0.15094,0.266205 -0.20444,0.408882 -0.15134,0.403558 -0.19172,0.854358 -0.40889,1.226645 -0.26818,0.459743 -0.71698,0.790615 -1.0222,1.226645 -0.17477,0.249672 -0.21378,0.583639 -0.40888,0.817764 -0.1573,0.188759 -0.43958,0.23514 -0.61332,0.408882 -0.0482,0.04819 0.0378,0.14774 0,0.204441 -0.24205,0.363069 -0.60128,0.643344 -0.81777,1.022204 -0.0676,0.118338 0.0193,0.273958 0,0.408882 -0.0491,0.34399 -0.14731,0.67945 -0.20444,1.022204 -0.0224,0.13444 0.0267,0.275236 0,0.408882 -0.12322,0.616082 -0.24357,1.233824 -0.40888,1.839968 -0.0802,0.294024 -0.33497,0.5221 -0.40888,0.817764 -0.0496,0.198337 0,0.408882 0,0.613322 0,0.204441 0,0.408882 0,0.613323 0,0.136295 -0.0224,0.274442 0,0.408882 0.0462,0.277154 0.13629,0.545174 0.20444,0.817763 0.0681,0.272587 0.20444,0.536787 0.20444,0.817764 0,0.166232 -0.2867,0.265531 -0.40888,0.204441 -0.31127,-0.155633 -0.11971,-0.408882 -0.61332,-0.408882 -0.0682,0 0,0.136292 0,0.204441 0,0.272587 -0.0717,0.554781 0,0.817764 0.76233,2.795233 0.0891,0.958241 1.43108,1.226645 0.30245,0.06049 0.19562,0.969245 0.20444,1.022204 0.0682,0.204441 0.13629,0.408882 0.20444,0.613323 0.0682,0.06815 0.17397,0.113012 0.20444,0.204441 2.6e-4,0.0011 -1.9e-4,0.613127 0,0.613323 0.0482,0.04819 0.15626,-0.04819 0.20444,0 0.0482,0.04819 -0.0305,0.143486 0,0.204438 0.2597,0.519393 0.24435,-0.20937 0.40889,0.613323 0.0343,0.171521 0,1.701387 0,1.839968 0,0.06815 -0.0216,0.139792 0,0.204441 0.0482,0.144563 0.16748,0.261051 0.20444,0.408881 0.0331,0.132226 -0.0609,0.286978 0,0.408882 0.0305,0.06095 0.13629,0 0.20444,0 0.52585,0 1.16768,0.107458 1.63553,-0.204441 1.38887,-0.925914 1.47327,-1.500317 2.86217,-2.657731 0.23412,-0.195104 0.55315,-0.257675 0.81776,-0.408882 0.7265,-0.415145 0.76525,-0.560806 1.43109,-1.226643 0.0681,-0.06815 0.16134,-0.118242 0.20444,-0.204441 0.0964,-0.192749 0.0849,-0.434017 0.20444,-0.613322 -0.4103,-1.683716 0.57683,-0.372388 0.81776,-0.613323 0.10775,-0.107752 0.12604,-0.278217 0.20444,-0.408882 0.12642,-0.210693 0.26437,-0.41461 0.40888,-0.613323 0.40083,-0.551129 0.79038,-1.112009 1.22665,-1.635527 2.64675,-3.176098 -0.81719,1.362168 1.43109,-1.635527 0.20444,-0.272587 0.46094,-0.513001 0.61332,-0.817763 0.40486,-0.809734 0.21639,-1.238597 0.81776,-1.839969 0.17374,-0.173741 0.43958,-0.23514 0.61332,-0.408881 0.30855,-0.308549 0.54987,-0.677768 0.81777,-1.022205 0.20919,-0.268959 0.37239,-0.576826 0.61332,-0.817763 0.24094,-0.240935 0.57683,-0.372386 0.81776,-0.613323 0.002,-0.0016 1.21612,-1.621983 1.22665,-1.635527 0.26789,-0.344435 0.64286,-0.622435 0.81776,-1.022205 0.67152,-1.534898 0.35959,-2.346002 1.22665,-3.679933 3.22884,-4.967444 0.99329,-1.329211 2.65773,-3.271055 0.22175,-0.258706 0.40888,-0.545176 0.61332,-0.817763 0.27259,-0.477031 0.47455,-1.002062 0.81776,-1.431086 1.09036,-1.362941 0.61333,0.20444 1.43109,-1.431087 0.32824,-0.656479 0.51019,-1.377997 0.81776,-2.044409 0.10297,-0.223091 0.33119,-0.380224 0.40888,-0.613322 0.13867,-0.415999 0.31437,-2.311189 0.40889,-2.657732 0.70738,-2.593742 0.18595,1.151647 0.61332,-1.839968 0.0104,-0.07259 0.0272,-1.362964 0,-1.431086 -0.0913,-0.228132 -0.35558,-0.373465 -0.40888,-0.613323 -0.0916,-0.412271 0.17758,-1.381535 -0.20444,-1.839967 -0.92211,-1.10653 -0.86753,-0.254203 -1.43109,-0.817763 -0.10775,-0.10775 -0.11991,-0.282093 -0.20444,-0.408882 -0.0535,-0.08019 -0.15098,-0.124253 -0.20444,-0.204441 -0.0845,-0.126789 -0.0777,-0.324356 -0.20444,-0.408882 -0.11341,-0.0756 -0.27444,0.02241 -0.40888,0 -0.27716,-0.04619 -0.56645,-0.07878 -0.81777,-0.204441 -0.0609,-0.03048 0.0482,-0.156253 0,-0.20444 -0.10048,-0.100482 -0.5507,-0.1897 -0.61332,-0.408882 -0.69914,-2.446994 0.15616,-0.08528 -0.20444,-2.24885 -0.0548,-0.328473 -0.24799,-0.15081 -0.40888,-0.204441 -0.14456,-0.04819 -0.25946,-0.174556 -0.40888,-0.20444 -0.26837,-0.05367 -0.90161,0 -1.22665,0 -0.27259,0 -0.57395,-0.121905 -0.81776,0 -0.47606,0.238027 -0.81776,0.681469 -1.22665,1.022204 z"
         id="path18" /></clipPath><clipPath
       clipPathUnits="userSpaceOnUse"
       id="clipPath20"><path
         style="fill:none;stroke:#000000;stroke-width:0.264583px;stroke-linecap:butt;stroke-linejoin:miter;stroke-opacity:1"
         d="m 228.49548,24.463495 c -0.86431,1.037171 -1.17116,1.214963 -1.63553,2.45329 -0.0479,0.127616 0.0169,0.273641 0,0.408883 -0.0514,0.411319 -0.16319,0.814179 -0.20444,1.226643 -0.0271,0.271235 0,0.545177 0,0.817764 0,0.408882 0,0.817763 0,1.226645 0,0.398026 -0.0826,1.438056 0.20444,1.839968 0.19805,0.277268 0.56133,0.388948 0.81776,0.613323 0.29012,0.253852 0.59103,0.505997 0.81777,0.817764 0.32315,0.444335 0.42926,1.042587 0.81776,1.431086 0.32325,0.323249 0.90339,0.290073 1.22664,0.613322 0.32325,0.32325 0.40889,0.817764 0.61333,1.226646 0.13629,0.272587 0.3125,0.52864 0.40888,0.817763 0.0888,0.266558 0.0788,0.56645 0.20444,0.817764 1.02353,2.047071 0.0923,-0.316585 1.63553,1.226645 0.19868,0.198681 0.0788,0.566449 0.20444,0.817764 0.15238,0.304763 0.42432,0.534255 0.61332,0.817764 0.0845,0.126788 0.14785,0.267398 0.20444,0.408881 0.41963,1.049076 0.1255,0.617392 0,2.24885 -0.047,0.611516 0,1.226646 0,1.839966 0,0.340735 -0.1002,0.696539 0,1.022204 0.17925,0.582573 0.54518,1.090353 0.81776,1.635527 0.1363,0.27259 0.2082,0.588407 0.40889,0.817764 0.28734,0.32839 0.78015,0.454697 1.0222,0.817763 0.19275,0.289124 0.12906,0.682998 0.20444,1.022205 0.0609,0.274286 0.065,0.573807 0.20444,0.817763 0.14345,0.251029 0.48403,0.354725 0.61333,0.613323 0.0914,0.182859 0,0.408882 0,0.613323 0.0681,0.204441 0.0936,0.428532 0.20444,0.613323 0.34142,0.569044 0.37499,0.281244 0.81776,0.613322 1.16327,0.872451 1.58751,1.383073 2.65773,2.453291 0.34073,0.340736 0.82281,0.583525 1.02221,1.022204 1.17632,2.587919 -1.51079,-0.0797 0.81776,2.24885 0.10775,0.107749 0.28697,0.113012 0.40888,0.204441 0.59834,0.448755 0.18457,0.473716 1.0222,0.613323 0.20166,0.03361 0.50814,-0.175308 0.61333,0 0.1753,0.292177 -0.0979,0.695838 0,1.022204 0.20357,0.678561 0.57921,0.988089 1.0222,1.431084 0.0681,0.06815 0.11824,0.161343 0.20444,0.204441 0.061,0.03048 0.14349,-0.03048 0.20444,0 0.0862,0.0431 0.1363,0.136295 0.20444,0.204441 0.0682,0.06815 0.11825,0.161343 0.20444,0.204441 0.061,0.03048 0.15626,-0.04819 0.20444,0 0.2654,0.265395 0.20445,0.493876 0.20445,0.817763 0,0.06815 -0.0253,0.141169 0,0.204441 0.11318,0.282967 0.21849,0.579784 0.40888,0.817764 0.0952,0.118991 0.27658,0.128839 0.40888,0.204441 0.34501,0.197146 0.66679,0.435618 1.0222,0.613322 1.42369,0.474565 -0.10032,-0.135027 1.02221,0.613323 0.0567,0.0378 0.13629,0 0.20444,0 0.0682,0 0.13629,0 0.20444,0 0.27259,0 0.54518,0 0.81776,0 0.47703,0 0.96055,-0.07842 1.43109,0 0.36199,0.06033 0.66396,0.329274 1.0222,0.408882 0.2661,0.05913 0.54518,0 0.81777,0 0.69891,0 1.44875,0.112318 2.04441,-0.408882 0.29904,-0.261665 0.33234,-0.741228 0.61332,-1.022204 1.59575,-1.595755 0.21959,0.09465 1.22664,-0.408882 0.51354,-0.256768 0.84113,-1.363901 1.02221,-1.635527 0.0378,-0.0567 0.13629,0 0.20444,0 0.20444,-0.340733 0.4738,-0.650143 0.61332,-1.022202 0.0718,-0.191426 0,-0.408882 0,-0.613323 0,-1.802707 0.19374,-1.416632 -0.81776,-3.271054 -0.0923,-0.169215 -0.40888,-0.216133 -0.40888,-0.408882 0,-1.592027 0.75375,-1.981039 0.40888,-3.475495 -0.10279,-0.445437 -0.58481,-0.770393 -0.61332,-1.226646 -0.0434,-0.693613 0.31703,-1.355539 0.40888,-2.044409 0.11385,-0.853871 -0.0825,-1.395177 -0.20444,-2.248849 -0.0777,-0.543896 -0.10616,-1.094971 -0.20444,-1.635528 -0.0912,-0.501716 -0.40448,-0.987287 -0.61333,-1.431086 -0.41545,-0.882846 -0.84801,-1.758476 -1.22664,-2.657729 -0.44886,-1.066041 -0.68703,-2.364269 -0.81776,-3.475495 -0.13763,-1.169773 0.10436,-1.456791 0.20444,-2.657732 0.0283,-0.339558 0,-0.681469 0,-1.022204 0,-0.204441 0,-0.408882 0,-0.613323 0,-0.06815 0.0482,-0.156255 0,-0.204441 -0.10776,-0.107749 -0.2899,-0.109249 -0.40889,-0.204441 -2.47663,-1.981303 1.52996,0.888386 -1.43108,-1.226645 -0.19994,-0.142814 -0.45603,-0.220123 -0.61332,-0.408882 -0.19511,-0.234124 -0.25768,-0.553156 -0.40889,-0.817763 -0.1219,-0.213334 -0.25539,-0.421458 -0.40888,-0.613323 -0.12041,-0.150511 -0.28549,-0.260808 -0.40888,-0.408882 -0.59339,-0.712063 -1.04214,-1.536785 -1.63553,-2.24885 -0.30848,-0.370184 -0.66205,-0.702066 -1.0222,-1.022204 -0.65822,-0.585087 -1.4879,-1.021345 -2.24885,-1.431087 -0.4025,-0.21673 -0.8658,-0.332663 -1.22665,-0.61332 -0.26896,-0.209192 -0.42431,-0.534256 -0.61332,-0.817765 -0.0845,-0.126788 -0.18554,-0.257677 -0.20444,-0.408881 -0.0507,-0.405725 0.0507,-0.820921 0,-1.226646 -0.0622,-0.497308 -0.39738,-0.508227 -0.81776,-0.613322 -0.0661,-0.01653 -0.14601,0.03506 -0.20444,0 -0.27259,-0.204441 -0.54518,-0.408882 -0.81777,-0.613323 -0.0681,0 -0.14348,0.03048 -0.20444,0 -0.0862,-0.0431 -0.11824,-0.161341 -0.20444,-0.204441 -0.1219,-0.06095 -0.28233,0.05062 -0.40888,0 -0.28297,-0.113186 -0.52864,-0.312507 -0.81776,-0.408882 -0.0882,-0.02939 -1.35115,0 -1.43109,0 -0.81776,0 -1.63553,0 -2.45329,0 -0.81776,0 -1.63553,0 -2.45329,0 -0.27259,0 -0.54518,0 -0.81776,0 -0.20445,0 -0.41047,-0.02536 -0.61333,0 -0.3448,0.0431 -0.67821,0.1553 -1.0222,0.204441 -0.13493,0.01928 -0.27259,0 -0.40888,0 -0.27259,0 -0.54518,0 -0.81777,0 -0.13629,0 -0.27523,-0.02673 -0.40888,0 -0.27552,0.05511 -0.54224,0.149337 -0.81776,0.204441 -0.58079,0.116159 0.36887,-0.388876 -0.81777,0.204441 -0.28621,0.143109 -0.24533,0.531546 -0.61332,0.613323 -0.46567,0.103482 -0.95405,0 -1.43108,0 z"
         id="path20" /></clipPath><clipPath
       clipPathUnits="userSpaceOnUse"
       id="clipPath10"><path
         style="fill:none;stroke:#000000;stroke-width:0.264583px;stroke-linecap:butt;stroke-linejoin:miter;stroke-opacity:1"
         d="m 244.05525,-3.2129402 c -3.57272,4.5934942 -0.93706,0.4124095 -1.45943,2.50187051 -0.0238,0.0953483 -0.16453,0.12058242 -0.20849,0.2084892 -0.0311,0.0621595 0.022,0.14255909 0,0.20848918 -0.0491,0.14742414 -0.14727,0.27414448 -0.20849,0.41697839 -0.14742,0.34398963 -0.21862,0.72508299 -0.41697,1.04244602 -0.15627,0.2500308 -0.41698,0.4169784 -0.62547,0.6254676 -0.13899,0.1389928 -0.35482,0.2304999 -0.41698,0.4169783 -0.0113,0.033793 -0.0109,2.0466827 0,2.0848919 0.0688,0.240932 0.32392,0.3928166 0.41698,0.6254676 0.23165,0.5791367 -0.34748,0.3474821 0,1.0424462 0.13186,0.2637203 0.43358,0.401602 0.62547,0.6254676 0.22613,0.2638279 0.34271,0.6319869 0.62546,0.8339569 0.23317,0.1665483 0.58825,0.061065 0.83396,0.208489 0.13325,0.079952 0.0842,0.3237391 0.20849,0.4169785 0.21674,0.5632398 0.7476,0.011925 1.04245,0.2084891 0.1293,0.0862 0.11141,0.2956324 0.20848,0.4169783 0.18419,0.230238 0.49361,0.3617473 0.62547,0.6254676 0.0932,0.1864786 -0.0932,0.4389892 0,0.6254678 0.64577,1.2915345 0.40896,0.2004725 1.04245,0.8339565 0.17718,0.177182 0.2539,0.435219 0.41698,0.625468 2.41768,2.820628 -0.0844,0.16631 1.25093,0.833956 0.0622,0.03108 -0.0491,0.159348 0,0.20849 0.0491,0.04914 0.15935,-0.04914 0.20849,0 0.10989,0.109883 0.0986,0.307094 0.20849,0.416978 0.0491,0.04914 -0.0622,-0.177409 0,-0.208489 0.12432,-0.06216 0.29266,-0.06216 0.41698,0 0.17581,0.08791 0.27798,0.277986 0.41698,0.416978 0.27798,0.277986 0.60545,0.514053 0.83395,0.833957 0.12774,0.178832 0.14534,0.414969 0.20849,0.625468 0.14538,0.484604 0.34005,0.959366 0.41698,1.459424 0.0634,0.41213 -0.10113,0.846407 0,1.250935 0.0477,0.190697 0.35482,0.2305 0.41698,0.416978 0.0436,0.13074 0,1.370974 0,1.667914 0,0.138993 -0.0382,0.283334 0,0.416978 0.42347,1.482159 0.48958,0.77067 1.04244,1.876403 0.0311,0.06216 0,0.138993 0,0.20849 0,0.138992 -0.0516,0.287926 0,0.416978 0.0931,0.232651 0.33775,0.387753 0.41698,0.625467 0.0659,0.197791 -0.0932,0.43899 0,0.625468 0.0695,0.138993 0.28373,0.128537 0.41698,0.208489 0.21487,0.128919 0.4624,0.22673 0.62547,0.416979 0.26372,0.307673 0.38993,0.712696 0.62547,1.042446 0.17137,0.239928 0.41698,0.416978 0.62546,0.625467 0.0695,0.0695 0.11021,0.208489 0.20849,0.208489 0.0695,0 -0.0491,-0.25763 0,-0.208489 0.10989,0.109884 0.12229,0.287679 0.20849,0.416979 0.0545,0.08178 0.15397,0.126713 0.20849,0.208489 0.0862,0.129299 0.0986,0.307095 0.20849,0.416978 0.0491,0.04914 0.17741,-0.06216 0.20849,0 0.0622,0.124319 -0.0439,0.285118 0,0.41698 0.0311,0.09324 0.17741,0.11525 0.20849,0.208489 0.0439,0.131861 -0.0516,0.287925 0,0.416978 0.0931,0.232651 0.30492,0.401347 0.41698,0.625467 0.36285,0.725715 0.0541,0.525222 0.41698,1.250934 0.0632,0.126408 0.76699,0.744668 0.83395,0.833959 0.0932,0.124317 0.0986,0.307094 0.20849,0.416978 0.21977,0.219766 0.64748,0.168341 0.83396,0.416978 0.13186,0.175813 0.12687,0.421418 0.20849,0.625467 0.0577,0.144285 0.15077,0.272696 0.20849,0.416978 0.0816,0.20405 0.1102,0.428903 0.20849,0.625467 0.14576,0.291521 1.01391,0.596937 1.04244,0.62547 0.1554,0.155398 0.11021,0.4289 0.20849,0.625467 0.044,0.0879 0.14952,0.129863 0.20849,0.208489 0.15035,0.200459 0.2398,0.448286 0.41698,0.625467 0.17718,0.177181 0.44829,0.239797 0.62547,0.416978 0.17718,0.177184 0.22131,0.468937 0.41697,0.625467 0.17162,0.13729 0.41227,0.155189 0.62547,0.208489 0.0856,0.02141 0.39171,-0.02527 0.41698,0 0.10988,0.109884 0.0611,0.36784 0.20849,0.416981 0.14742,0.04914 0.26622,-0.170802 0.41698,-0.208489 0.13484,-0.03371 0.28512,-0.04396 0.41698,0 1.20994,0.40331 0.4876,0.261451 1.25092,0.833956 0.40093,0.300686 0.79031,0.636545 1.25095,0.833956 1.81867,0.454668 1.15533,0.16069 2.08489,0.625467 0.70343,0.351716 1.48559,0.833959 2.29339,0.833959 0.13898,0 0.31869,0.09828 0.41698,0 0.0983,-0.09828 -0.0439,-0.28512 0,-0.416981 0.0311,-0.09324 0.15396,-0.126711 0.20849,-0.208489 0.0862,-0.129299 0.11525,-0.292658 0.20849,-0.416978 0.43516,-0.580226 0.50821,-0.221723 0.62545,-1.042445 0.0393,-0.275193 0,-0.555971 0,-0.833956 0,-0.416981 0.0517,-0.837179 0,-1.250937 -0.0193,-0.154199 -0.15933,-0.269555 -0.20849,-0.416978 -0.15999,-0.479978 -0.28384,-0.971309 -0.41696,-1.459423 -0.0754,-0.276445 -0.16798,-0.550296 -0.20849,-0.833959 -0.0295,-0.206393 0,-0.416978 0,-0.625467 0,-0.208489 -0.0206,-0.418012 0,-0.625467 0.0489,-0.488974 0.20849,-0.96801 0.20849,-1.459426 0,-0.286538 -0.18256,-0.548592 -0.20849,-0.833956 -0.0441,-0.484476 0.0739,-0.978606 0,-1.459423 -0.0668,-0.434424 -0.29623,-0.828314 -0.41698,-1.250936 -0.019,-0.06682 0.0135,-0.140343 0,-0.208489 -0.0562,-0.280977 -0.17296,-0.549629 -0.20849,-0.833957 -0.0345,-0.275839 0,-0.555971 0,-0.833957 0,-0.903453 0,-1.806906 0,-2.710359 0,-0.347482 0.0682,-0.701712 0,-1.042446 -0.1423,-0.711474 -0.39603,-1.396562 -0.62548,-2.084892 -0.0491,-0.147424 -0.17984,-0.264242 -0.20849,-0.416979 -0.18111,-0.965993 -0.15393,-1.971877 -0.41698,-2.918848 -0.093,-0.334805 -0.48858,-0.514571 -0.62545,-0.833957 -0.0821,-0.191632 0.0756,-0.431155 0,-0.625468 -0.41696,-1.07215 -1.09564,-2.036001 -1.45944,-3.127338 -0.199,-0.597022 -0.1128,-1.2544037 -0.20847,-1.8764026 -0.0695,-0.2779853 -0.13901,-0.5559711 -0.20849,-0.8339566 -0.0695,0 -0.17743,0.06216 -0.20849,0 -0.003,-0.00708 -0.40656,-1.6331182 -0.41699,-1.6679135 -0.12631,-0.4209971 -0.26265,-0.8393869 -0.41698,-1.2509352 -0.0546,-0.1455044 -0.0986,-0.307095 -0.20849,-0.4169786 -0.45305,-0.4530608 -1.02841,-0.7768367 -1.45942,-1.2509352 -0.81386,-0.8952442 -0.47881,-1.0985286 -1.04245,-2.0848918 -0.29009,-0.5076612 -1.10073,-0.71961851 -1.45943,-1.04244603 -0.40344,-0.36310351 -0.7997,-0.76545422 -1.04244,-1.25093516 -0.38037,-0.76073921 -0.50903,-2.59392091 -1.25093,-3.33582711 -0.0491,-0.049142 -0.14145,0.018285 -0.20849,0 -0.7,-0.1909085 -1.40687,-0.3671705 -2.0849,-0.6254676 -0.78471,-0.2989394 -1.56429,-0.6258242 -2.29338,-1.0424461 -0.256,-0.1462858 -0.39523,-0.4412774 -0.62547,-0.6254676 -0.12134,-0.097077 -0.28767,-0.1222894 -0.41697,-0.2084893 -0.34051,-0.2270038 -0.0856,-0.3090021 -0.62547,-0.4169783 -0.20444,-0.040888 -0.41698,0 -0.62547,0 -0.13899,0 -0.28214,-0.033711 -0.41698,0 -0.15075,0.03769 -0.26369,0.1829419 -0.41698,0.2084893 -0.2742,0.0457 -0.55597,0 -0.83395,0 -0.139,0 -0.28214,-0.033711 -0.41698,0 -0.15076,0.03769 -0.26369,0.1829416 -0.41698,0.208489 -0.2742,0.045701 -0.55597,0 -0.83396,0 -0.13899,0 -0.27987,0.022849 -0.41697,0 -0.28265,-0.047107 -0.55298,-0.1522936 -0.83396,-0.208489 -0.0682,-0.013629 -0.14633,-0.03108 -0.20849,0 -0.20849,0.1389927 -0.41698,0.2779855 -0.62547,0.4169783 -0.13899,0 -0.29266,-0.062159 -0.41698,0 -0.17581,0.087907 -0.25342,0.3079435 -0.41698,0.4169783 -0.0578,0.03855 -0.14632,-0.03108 -0.20848,0 -0.23902,0.119508 -0.29001,0.4350155 -0.41698,0.6254678 0.0443,0.4334439 -0.32374,0.08417 -0.41698,0.2084891 -0.18648,0.2486379 -0.2305,0.5853189 -0.41698,0.8339568 -0.0417,0.055597 -0.17741,-0.06216 -0.20849,0 -0.0622,0.124319 0.10678,0.3279974 0,0.4169783 -0.35814,0.2984516 -0.83395,0.4169786 -1.25093,0.6254676 z"
         id="path11" /></clipPath><rect
       x="559.42232"
       y="203.93284"
       width="323.17226"
       height="80.235871"
       id="rect18" /><rect
       x="559.42232"
       y="203.93284"
       width="323.17226"
       height="80.235871"
       id="rect19" /><rect
       x="559.42232"
       y="203.93284"
       width="607.34097"
       height="52.376193"
       id="rect20" /><rect
       x="559.42232"
       y="203.93284"
       width="607.34097"
       height="52.376193"
       id="rect21" /><rect
       x="559.42232"
       y="203.93284"
       width="607.34097"
       height="52.376193"
       id="rect22" /><rect
       x="559.4223"
       y="203.93285"
       width="297.54135"
       height="44.575485"
       id="rect15-9" /><rect
       x="559.4223"
       y="203.93285"
       width="361.68096"
       height="50.406359"
       id="rect11" /><rect
       x="559.4223"
       y="203.93285"
       width="385.00446"
       height="65.955356"
       id="rect12" /><rect
       x="559.4223"
       y="203.93285"
       width="385.00446"
       height="65.955356"
       id="rect13" /><clipPath
       clipPathUnits="userSpaceOnUse"
       id="clipPath13"><path
         style="fill:none;stroke:#000000;stroke-width:0.264583px;stroke-linecap:butt;stroke-linejoin:miter;stroke-opacity:1"
         d="m 241.86185,0.81365607 c -2.32432,0 -0.0261,-0.03004 -5.1425,0.51425103 -0.55562,0.05911 -1.15555,-0.08634 -1.67132,0.1285629 -0.30857,0.12857 -1.83297,1.120176 -1.67131,1.92844 0.0266,0.1328851 0.0398,0.283279 0.12856,0.3856881 0.4763,0.5495819 0.98406,1.0771709 1.54275,1.5427518 0.22085,0.184036 0.51772,0.2504052 0.77138,0.3856882 0.3893,0.2076278 0.78995,0.398073 1.15706,0.6428129 4.21503,2.81002 -0.98033,-0.2330389 3.08551,1.7998771 1.55171,0.7758588 1.48254,1.1016818 3.21406,2.0570029 0.57152,0.315322 1.17467,0.583814 1.79988,0.771377 0.24628,0.07388 0.55333,-0.136277 0.77138,0 0.51393,0.321204 0.81838,0.899644 1.28562,1.285627 0.52239,0.43154 1.15686,0.716097 1.67132,1.157062 1.48522,1.273046 0.58362,1.437312 2.82838,2.185567 0.86095,0.286983 1.58226,-0.137073 2.31412,0.385688 0.12573,0.08981 0.13843,0.286772 0.25712,0.385686 0.14724,0.122693 0.35481,0.150818 0.51427,0.257128 0.10084,0.06723 0.14058,0.223824 0.25713,0.257124 0.0964,0.02755 1.00277,-0.02204 1.15705,0 0.13417,0.01916 0.25712,0.08571 0.38568,0.128564 0.42854,0.04285 0.85561,0.104672 1.28564,0.128561 0.63507,0.03528 0.91233,-0.122359 1.41419,0.128564 0.1382,0.0691 0.27644,0.147867 0.38569,0.257124 0.10924,0.109257 0.13351,0.292981 0.25712,0.385689 0.0686,0.05143 0.18362,-0.0441 0.25712,0 0.15592,0.09354 0.23675,0.281424 0.38568,0.385688 0.28305,0.198131 0.61249,0.322601 0.89996,0.51425 0.10086,0.06724 0.17142,0.171418 0.25712,0.257124 0.0857,0.08571 0.18439,0.160158 0.25712,0.257128 0.11499,0.153318 0.1216,0.378732 0.25712,0.514249 0.0678,0.06776 0.18937,0.0608 0.25713,0.128564 0.0678,0.06776 0.0793,0.174956 0.12856,0.257125 0.0857,0.128561 0.17142,0.257124 0.25712,0.385688 0.0429,0 0.0983,-0.0303 0.12859,0 0.0303,0.0303 0,0.08571 0,0.128561 0,0.08571 0,0.171418 0,0.257128 0,0.04285 -0.0303,-0.09826 0,-0.128564 0.0303,-0.0303 0.0857,0 0.12856,0 0,-0.08571 -0.0441,-0.183632 0,-0.257125 0.0935,-0.155906 0.25712,-0.257127 0.38568,-0.385688 0.0428,-0.04285 0.1047,-0.07286 0.12856,-0.128564 0.10676,-0.249118 0.13592,-0.528955 0.25712,-0.771374 0.1382,-0.276402 0.36092,-0.503068 0.51425,-0.771377 0.0212,-0.03721 -0.004,-0.08592 0,-0.128564 0.0386,-0.386135 0.095,-0.770461 0.12856,-1.157062 0.0521,-0.599229 0.091,-1.199563 0.12856,-1.799879 0.0279,-0.446783 -0.0781,-0.619985 -0.25712,-1.157062 -0.0303,-0.09091 -0.0488,-0.203973 -0.12856,-0.257128 -0.0713,-0.04754 -0.20357,0.06693 -0.25713,0 -0.14417,-0.180205 -0.1539,-0.436398 -0.25712,-0.642813 -0.33835,-0.676717 -0.49855,-0.663903 -0.77136,-1.414187 -0.0747,-0.205359 -0.0756,-0.430824 -0.12859,-0.642816 -0.0756,-0.302667 -0.15846,-0.603964 -0.25712,-0.899938 -0.0303,-0.09091 -0.0857,-0.171417 -0.12856,-0.257125 -0.0428,-0.214271 -0.0685,-0.432706 -0.12857,-0.642813 -0.0265,-0.09214 -0.11501,-0.1622639 -0.12856,-0.257126 -0.0303,-0.212117 0.0796,-0.4438669 0,-0.6428129 -0.0405,-0.101315 -0.35972,0.07726 -0.51424,0 -0.3443,-0.1721451 -0.27937,-0.4973481 -0.51424,-0.771376 -0.15518,-0.181033 -1.21039,-0.8294 -1.28564,-0.899939 -0.46477,-0.4357211 -0.86238,-0.9380341 -1.28564,-1.4141892 -0.26247,-0.2952988 -0.45275,-0.666293 -0.77136,-0.8999389 -0.34036,-0.2495939 -0.79248,-0.301584 -1.15705,-0.51425 -0.66734,-0.389274 -1.31863,-0.8113181 -1.92845,-1.2856271 -0.16914,-0.13155 -0.19965,-0.407943 -0.38571,-0.514251 -1.03179,-0.5896028 -2.15761,-0.998524 -3.21405,-1.54275183 -0.021,-0.01084 -2.04282,-1.27907917 -2.05701,-1.28562602 -0.1984,-0.0915702 -0.4883,0.0259503 -0.64281,-0.12856316 -0.15451,-0.15451297 -0.007,-0.46099779 -0.12856,-0.64281289 -0.0752,-0.1127569 -0.26113,-0.07518 -0.38569,-0.1285629 -0.17615,-0.0755 -0.32936,-0.2066991 -0.51425,-0.257125 -0.64917,-0.177047 -1.2646,-0.1285631 -1.92844,-0.1285631 -0.17142,0 -0.34692,-0.03719 -0.51425,0 -0.69617,0.1547029 -0.55811,0.3856881 -1.28563,0.3856881 -0.17669,0 -0.33892,-0.1066472 -0.51425,-0.1285631 -0.17009,-0.021259 -0.3804,0.107084 -0.51425,0 -0.13797,-0.1103789 -0.004,-0.3893101 -0.12856,-0.51425 -0.0678,-0.06776 -0.21428,0.04285 -0.25713,0.1285621 -0.0575,0.11499 0.0182,0.258418 0,0.3856879 -0.025,0.1749171 -0.0939,0.3409899 -0.12856,0.514251 -0.0168,0.0840399 0,0.17141693 0,0.25712499 0,0.0428501 -0.0136,0.0879099 0,0.1285629 0.20811,0.62433914 -0.004,-0.002799 0.38569,0.25712499 0.51346,0.34230601 -0.035,0.14034823 0.12856,0.38568815 0.0672,0.10085308 0.18989,0.15627297 0.25713,0.25712605 0.0238,0.03566 0,0.0857099 0,0.12856184 0,0.0857102 0,0.17141719 0,0.25712605 0,0.0428501 0,0.0857099 0,0.1285621 0,0.0428498 0.0191,0.0902298 0,0.1285629 -0.0271,0.05421 -0.0744,0.10145893 -0.12857,0.12856313 -0.0383,0.019159 -0.0874,0.011771 -0.12856,0 -0.26061,-0.0744601 -0.51425,-0.17141717 -0.77138,-0.25712603 z"
         id="path14" /></clipPath><clipPath
       clipPathUnits="userSpaceOnUse"
       id="clipPath3"><rect
         style="fill:none;fill-opacity:0.94902;stroke:#212e53;stroke-width:0.994877"
         id="rect3"
         width="70.858986"
         height="35.81321"
         x="-112.36597"
         y="54.590347"
         transform="scale(-1,1)" /></clipPath></defs><g
     inkscape:label="scene"
     inkscape:groupmode="layer"
     id="layer1"
     style="mix-blend-mode:normal"
     transform="translate(-0.74835467,-0.74835467)"><g
       inkscape:groupmode="layer"
       id="layer4"
       inkscape:label="bg"
       style="mix-blend-mode:normal"
       sodipodi:insensitive="true"><rect
         style="opacity:1;mix-blend-mode:normal;fill:url(#linearGradient11);fill-opacity:1;stroke:none;stroke-width:0.790501;stroke-dasharray:none;stroke-opacity:0.968627"
         id="rect10"
         width="296.72263"
         height="130.70534"
         x="1.8224638"
         y="-0.057227116" /></g><g
       inkscape:groupmode="layer"
       id="layer3"
       inkscape:label="methode2"
       sodipodi:insensitive="true"><g
         inkscape:groupmode="layer"
         id="m2_instructions"
         inkscape:label="instructions"
         style="mix-blend-mode:normal;stroke:#212e53;stroke-opacity:1"><text
           xml:space="preserve"
           transform="matrix(0.26458333,0,0,0.26458333,-12.700807,-22.626719)"
           id="text15"
           style="font-style:normal;font-variant:normal;font-weight:normal;font-stretch:normal;font-size:21.3333px;line-height:1.25;font-family:Arial;-inkscape-font-specification:Arial;text-align:start;writing-mode:lr-tb;direction:ltr;white-space:pre;shape-inside:url(#rect15);display:inline;mix-blend-mode:normal;stroke:#212e53;stroke-opacity:1"
           x="-1.972007"
           y="0"><tspan
             x="559.42188"
             y="223.14966"
             id="tspan1">Définir un point sur la droite</tspan></text><text
           xml:space="preserve"
           transform="matrix(0.26458333,0,0,0.26458333,-12.485827,-11.495426)"
           id="text18"
           style="font-style:normal;font-variant:normal;font-weight:normal;font-stretch:normal;font-size:21.3333px;line-height:1.25;font-family:Arial;-inkscape-font-specification:Arial;text-align:start;writing-mode:lr-tb;direction:ltr;white-space:pre;shape-inside:url(#rect18);display:inline;mix-blend-mode:normal;stroke:#212e53;stroke-opacity:1"
           x="-1.972007"
           y="0"><tspan
             x="559.42188"
             y="223.14966"
             id="tspan2">Depuis ce point, tracer un arc de </tspan><tspan
             x="559.42188"
             y="249.81628"
             id="tspan3">cercle de rayon r</tspan></text><text
           xml:space="preserve"
           transform="matrix(0.26458333,0,0,0.26458333,-12.397637,6.7796066)"
           id="text19"
           style="font-style:normal;font-variant:normal;font-weight:normal;font-stretch:normal;font-size:21.3333px;line-height:1.25;font-family:Arial;-inkscape-font-specification:Arial;text-align:start;writing-mode:lr-tb;direction:ltr;white-space:pre;shape-inside:url(#rect19);display:inline;mix-blend-mode:normal;stroke:#212e53;stroke-opacity:1"
           x="-1.972007"
           y="0"><tspan
             x="559.42188"
             y="223.14966"
             id="tspan4">Tracer un arc de même rayon </tspan><tspan
             x="559.42188"
             y="249.81628"
             id="tspan5">depuis le point d'intersection</tspan></text><text
           xml:space="preserve"
           transform="matrix(0.26458333,0,0,0.26458333,-12.397637,24.988493)"
           id="text20"
           style="font-style:normal;font-variant:normal;font-weight:normal;font-stretch:normal;font-size:21.3333px;line-height:1.25;font-family:Arial;-inkscape-font-specification:Arial;text-align:start;writing-mode:lr-tb;direction:ltr;white-space:pre;shape-inside:url(#rect20);display:inline;mix-blend-mode:normal;stroke:#212e53;stroke-opacity:1"
           x="-1.972007"
           y="0"><tspan
             x="559.42188"
             y="223.14966"
             id="tspan6">Tracer arc de même rayon depuis 
</tspan><tspan
             x="559.42188"
             y="249.81628"
             id="tspan7">le point d'intersection des deux arcs</tspan></text><text
           xml:space="preserve"
           transform="matrix(0.26458333,0,0,0.26458333,-12.397637,43.19738)"
           id="text21"
           style="font-style:normal;font-variant:normal;font-weight:normal;font-stretch:normal;font-size:21.3333px;line-height:1.25;font-family:Arial;-inkscape-font-specification:Arial;text-align:start;writing-mode:lr-tb;direction:ltr;white-space:pre;shape-inside:url(#rect21);display:inline;mix-blend-mode:normal;stroke:#212e53;stroke-opacity:1"
           x="-1.972007"
           y="0"><tspan
             x="559.42188"
             y="223.14966"
             id="tspan8">Tracer une droite passant par les deux points précédents</tspan></text><text
           xml:space="preserve"
           transform="matrix(0.26458333,0,0,0.26458333,-12.397637,54.328673)"
           id="text22"
           style="font-style:normal;font-variant:normal;font-weight:normal;font-stretch:normal;font-size:21.3333px;line-height:1.25;font-family:Arial;-inkscape-font-specification:Arial;text-align:start;writing-mode:lr-tb;direction:ltr;white-space:pre;shape-inside:url(#rect22);display:inline;mix-blend-mode:normal;stroke:#212e53;stroke-opacity:1"
           x="-1.972007"
           y="0"><tspan
             x="559.42188"
             y="223.14966"
             id="tspan9">Tracer une droite entre le point d'origine et le point d'intersection
</tspan><tspan
             x="559.42188"
             y="249.81628"
             id="tspan10">précédent</tspan></text></g><g
         inkscape:groupmode="layer"
         id="m2_dessin"
         inkscape:label="dessin"
         style="mix-blend-mode:normal"><path
           style="fill:none;fill-opacity:0.94902;stroke:#ce696a;stroke-width:0.499999;stroke-dasharray:none;stroke-opacity:1"
           d="m 265.63387,18.78267 -0.41697,66.508054 v 0"
           id="path15"
           sodipodi:nodetypes="ccc"
           inkscape:label="perpendiculaire" /><path
           style="fill:none;stroke:#ce696a;stroke-width:0.5;stroke-linecap:butt;stroke-linejoin:miter;stroke-dasharray:none;stroke-opacity:1"
           d="M 236.13266,74.970509 267.71878,21.597274"
           id="path12"
           inkscape:label="droiteIntersec" /><path
           style="mix-blend-mode:normal;fill:#d3bc5f;fill-opacity:1;stroke:#ce6a6b;stroke-width:0.509107;stroke-dasharray:none;stroke-opacity:0.992157"
           d="m 224.77112,75.265065 h 55.09506 0.18804"
           id="path1-2"
           sodipodi:nodetypes="ccc"
           inkscape:label="droiteh" /><ellipse
           style="fill:none;fill-opacity:0.996078;stroke:#cf6a6b;stroke-width:0.5;stroke-dasharray:4011.6, 334.304;stroke-dashoffset:0;stroke-opacity:0.996078"
           id="ellipse13"
           cx="223.81137"
           cy="58.74826"
           rx="28.812887"
           ry="28.812885"
           inkscape:label="cercle2"
           clip-path="url(#clipPath20)"
           transform="translate(12.92633,16.262157)" /><ellipse
           style="fill:none;fill-opacity:0.996078;stroke:#cf6a6b;stroke-width:0.5;stroke-dasharray:4011.6, 334.304;stroke-dashoffset:0;stroke-opacity:0.996078"
           id="path9"
           cx="252.24843"
           cy="58.74826"
           rx="28.812887"
           ry="28.812885"
           inkscape:label="cercle1"
           clip-path="url(#clipPath17)"
           transform="translate(12.92633,16.262157)" /><ellipse
           style="fill:none;fill-opacity:0.996078;stroke:#cf6a6b;stroke-width:0.5;stroke-dasharray:4011.6, 334.304;stroke-dashoffset:0;stroke-opacity:0.996078"
           id="ellipse20"
           cx="238.11148"
           cy="33.61124"
           rx="28.813"
           ry="28.812885"
           inkscape:label="cercle3"
           clip-path="url(#clipPath13)"
           transform="translate(12.92633,16.262157)" /><ellipse
           style="mix-blend-mode:normal;fill:#212e53;fill-opacity:1;stroke:#ce6a6b;stroke-width:0.502574;stroke-dasharray:none;stroke-opacity:0.992157"
           id="ellipse9-2"
           cx="265.1824"
           cy="75.018234"
           rx="1.256434"
           ry="1.2564334"
           inkscape:label="pt1" /><ellipse
           style="mix-blend-mode:normal;fill:#212e53;fill-opacity:1;stroke:#ce6a6b;stroke-width:0.502574;stroke-dasharray:none;stroke-opacity:0.992157"
           id="ellipse12"
           cx="236.1824"
           cy="75.018234"
           rx="1.256434"
           ry="1.2564334"
           inkscape:label="pt2" /><ellipse
           style="mix-blend-mode:normal;fill:#212e53;fill-opacity:1;stroke:#ce6a6b;stroke-width:0.502574;stroke-dasharray:none;stroke-opacity:0.992157"
           id="ellipse14"
           cx="251.03867"
           cy="49.803371"
           rx="1.256434"
           ry="1.2564334"
           inkscape:label="pt3" /><ellipse
           style="mix-blend-mode:normal;fill:#212e53;fill-opacity:1;stroke:#ce6a6b;stroke-width:0.502574;stroke-dasharray:none;stroke-opacity:0.992157"
           id="ellipse15"
           cx="265.58081"
           cy="25.097401"
           rx="1.256434"
           ry="1.2564334"
           inkscape:label="pt4" /></g><g
         id="g2"><g
           id="m2_play"
           transform="matrix(0.07291185,0,0,0.07291185,134.10336,16.73675)"
           inkscape:label="bouton"
           style="mix-blend-mode:normal"><path
             d="m 137.15,68.534 c 0,34.94 -27.408,65.096 -62.231,68.297 C 40.084,140.034 7.487,115.538 1.115,81.088 -5.256,46.647 16.24,11.951 49.996,2.485 c 33.766,-9.468 70.253,8.916 82.705,41.693 2.949,7.763 4.449,16.052 4.449,24.356"
             fill="#5471af"
             id="path2-0-7" /><path
             d="m 133.32,68.129 c 0,32.627 -25.66,60.786 -58.262,63.775 C 42.445,134.8949 11.927,112.021 5.962,79.852 -0.0026,47.691 20.122,15.293 51.725,6.453 c 31.612,-8.8411 65.772,8.3257 77.43,38.932 2.7609,7.249 4.1652,14.989 4.1652,22.743"
             fill="#808080"
             fill-opacity="0.8413"
             id="path3-9-1" /><path
             d="m 129.25,68.534 c 0,32.867 -27.443,60.31 -60.311,60.31 -32.868,0 -60.311,-27.443 -60.311,-60.31 0,-32.867 27.443,-60.312 60.311,-60.312 32.868,0 60.311,27.443 60.311,60.312"
             fill="url(#a)"
             id="path4-1"
             style="fill:url(#a-2)" /><path
             d="m 125.42,47.535 c 4.0771,28.539 -14.11,56.537 -42.209,64.989 -29.802,8.9648 -62.532,-6.5997 -73.988,-34.984 4.864,34.079 39.713,57.435 73.864,49.494 35.261,-8.2001 55.72,-46.367 42.333,-79.499"
             fill="#68a0f2"
             id="path5-5" /><path
             d="M 106.61,39.855 C 98.2681,41.58 88.665,29.764 81.434,26.758 67.923,21.1412 51.045,23.749 38.804,31.3973 c -12.948,8.0892 -22.157,23.628 -23.573,38.882 -0.0048,0.04353 -0.0048,0.05204 -9.5e-4,0.02271 0.95568,-9.237 0.31036,-17.92 3.8284,-26.849 5.8278,-14.8 18.431,-26.388 33.628,-31.045 15.713,-4.8125 32.895,-1.7505 46.431,7.4231 4.1795,2.8349 20.268,17.378 7.4931,20.023"
             fill="#b3e7fc"
             id="path6-2" /><path
             d="m 53.008,42.212 v 48.905 c 0,4.9795 -2.0211,14.234 5.1795,14.584 6.0595,0.29703 12.91,-7.8339 17.18,-11.243 7.0742,-5.6425 14.148,-11.284 21.223,-16.929 6.8169,-5.4375 1.7665,-9.4744 -3.2775,-13.514 l -22.8,-18.261 -7.3387,-5.878 c -2.4602,-1.9716 -10.167,-2.2824 -10.167,2.3357"
             fill="#ffffff"
             id="path7-7" /><path
             d="m 63.317,38.929 c 11.681,9.3549 23.36,18.709 35.04,28.064 7.2233,5.786 -0.86915,10.882 -5.3368,14.443 l -23.72,18.923 c -1.9392,1.5449 -3.8776,3.0907 -5.8159,4.6384 -3.5575,2.8388 -11.298,1.8934 -11.298,-3.7362 v -58.384 c 0,-5.2057 7.5733,-6.7984 11.131,-3.9478 m -1.0201,64.897 34.687,-27.668 c 6.1532,-4.9106 -1.1164,-9.0367 -4.984,-12.135 -7.6251,-6.1069 -15.251,-12.216 -22.879,-18.324 l -6.4568,-5.1726 c -2.0656,-1.6552 -8.8352,-2.093 -8.8352,1.8557 v 57.585 c 9.1e-4,4.2862 4.8204,6.7856 8.4679,3.8586"
             fill="#5471af"
             id="path8-6" /></g><text
           xml:space="preserve"
           transform="matrix(0.26458333,0,0,0.26458333,-13.896067,-20.449744)"
           id="text5-1"
           style="font-size:26.6667px;line-height:1.25;font-family:'Book Antiqua';-inkscape-font-specification:'Book Antiqua, Normal';text-align:center;white-space:pre;shape-inside:url(#rect6-8);display:inline;mix-blend-mode:normal;fill:#253759;fill-opacity:0.996078"><tspan
             x="614.58716"
             y="168.9709"
             id="tspan11">Méthode 2</tspan></text></g></g><g
       inkscape:groupmode="layer"
       id="layer2"
       inkscape:label="methode1"><g
         inkscape:groupmode="layer"
         id="m1_instructions"
         inkscape:label="intructions"
         style="mix-blend-mode:normal;fill:#212e53;fill-opacity:1"
         transform="translate(20.196012,6.3089905)"><text
           xml:space="preserve"
           transform="matrix(0.26458333,0,0,0.26458333,-152.17828,10.808292)"
           id="text15-8"
           style="font-style:normal;font-variant:normal;font-weight:normal;font-stretch:normal;font-size:21.3333px;line-height:1.25;font-family:Arial;-inkscape-font-specification:Arial;text-align:start;writing-mode:lr-tb;direction:ltr;white-space:pre;shape-inside:url(#rect15-9);display:inline;mix-blend-mode:normal;stroke:#212e53;stroke-opacity:1"
           x="-1.972007"
           y="0"><tspan
             x="559.42188"
             y="223.14966"
             id="tspan12">Définir un point sur la droite</tspan></text><text
           xml:space="preserve"
           transform="matrix(0.26458333,0,0,0.26458333,-151.87511,21.097196)"
           id="text11"
           style="font-style:normal;font-variant:normal;font-weight:normal;font-stretch:normal;font-size:21.3333px;line-height:1.25;font-family:Arial;-inkscape-font-specification:Arial;text-align:start;writing-mode:lr-tb;direction:ltr;white-space:pre;shape-inside:url(#rect11);display:inline;mix-blend-mode:normal;stroke:#212e53;stroke-opacity:1"
           x="-1.972007"
           y="0"><tspan
             x="559.42188"
             y="223.14966"
             id="tspan13">Tracer un arc de cercle de rayon r</tspan></text><text
           xml:space="preserve"
           transform="matrix(0.26458333,0,0,0.26458333,-151.84204,31.452246)"
           id="text12"
           style="font-style:normal;font-variant:normal;font-weight:normal;font-stretch:normal;font-size:21.3333px;line-height:1.25;font-family:Arial;-inkscape-font-specification:Arial;text-align:start;writing-mode:lr-tb;direction:ltr;white-space:pre;shape-inside:url(#rect12);display:inline;mix-blend-mode:normal;stroke:#212e53;stroke-opacity:1"
           x="-1.972007"
           y="0"><tspan
             x="559.42188"
             y="223.14966"
             id="tspan14">Depuis les points d'intersection, 
</tspan><tspan
             x="559.42188"
             y="249.81628"
             id="tspan15">tracer deux arcs de rayon R &gt; r</tspan></text><text
           xml:space="preserve"
           transform="matrix(0.26458333,0,0,0.26458333,-151.87511,48.862841)"
           id="text13"
           style="font-style:normal;font-variant:normal;font-weight:normal;font-stretch:normal;font-size:21.3333px;line-height:1.25;font-family:Arial;-inkscape-font-specification:Arial;text-align:start;writing-mode:lr-tb;direction:ltr;white-space:pre;shape-inside:url(#rect13);display:inline;mix-blend-mode:normal;stroke:#212e53;stroke-opacity:1"
           x="-1.972007"
           y="0"><tspan
             x="559.42188"
             y="223.14966"
             id="tspan16">Tracer une droite entre le point 
</tspan><tspan
             x="559.42188"
             y="249.81628"
             id="tspan17">d'intersection et le point d'origine</tspan></text></g><g
         id="m1_dessin"
         inkscape:label="dessin"
         transform="matrix(0.50257359,0,0,0.50257359,46.115814,13.295677)"><path
           style="opacity:1;fill:#d3bc5f;fill-opacity:1;stroke:#ce6a6b;stroke-width:1.013;stroke-dasharray:none;stroke-opacity:0.992157"
           d="M 20,90.513353 H 129.62585 130"
           id="path1"
           sodipodi:nodetypes="ccc"
           inkscape:label="droiteh" /><ellipse
           style="opacity:1;fill:none;fill-opacity:1;stroke:#ce6a6b;stroke-width:1;stroke-dasharray:none;stroke-opacity:0.992157"
           id="m1_compas"
           cx="75"
           cy="90.5"
           rx="29.534218"
           ry="29.534216"
           clip-path="url(#clipPath3)"
           inkscape:label="compas1"
           transform="matrix(-1,0,0,1,150,0)" /><ellipse
           style="opacity:1;fill:none;fill-opacity:1;stroke:#ce6a6b;stroke-width:1;stroke-dasharray:none;stroke-opacity:0.992157"
           id="m1_arc1"
           cx="45.500004"
           cy="90.5"
           rx="59.27298"
           ry="59.272976"
           clip-path="url(#clipPath6)"
           inkscape:label="arc1" /><ellipse
           style="opacity:1;fill:none;fill-opacity:1;stroke:#ce6a6b;stroke-width:1.00001;stroke-dasharray:none;stroke-opacity:0.992157"
           id="m1_arc2"
           cx="104.5"
           cy="90.5"
           clip-path="url(#clipPath8)"
           inkscape:label="arc2"
           rx="59.428001"
           ry="59.427853"
           transform="matrix(0.99999165,0,0,0.99999165,3.7169163e-4,2.5475579e-4)" /><path
           style="opacity:1;fill:none;fill-opacity:1;stroke:#ce6a6b;stroke-width:1;stroke-opacity:0.992157"
           d="m 74.867709,22.357291 v 82.549999 0"
           id="m1_perpendiculaire"
           sodipodi:nodetypes="ccc"
           inkscape:label="perpendiculaire" /><ellipse
           style="opacity:1;fill:#212e53;fill-opacity:1;stroke:#ce6a6b;stroke-width:1;stroke-dasharray:none;stroke-opacity:0.992157"
           id="ellipse9"
           cx="75"
           cy="39"
           rx="2.5"
           ry="2.4999988"
           inkscape:label="pt4" /><ellipse
           style="opacity:1;fill:#212e53;fill-opacity:1;stroke:#ce6a6b;stroke-width:1;stroke-dasharray:none;stroke-opacity:0.992157"
           id="m1_pt3"
           cx="104.5"
           cy="90.5"
           rx="2.5"
           ry="2.4999988"
           inkscape:label="pt3" /><ellipse
           style="opacity:1;fill:#212e53;fill-opacity:1;stroke:#ce6a6b;stroke-width:1;stroke-dasharray:none;stroke-opacity:0.992157"
           id="m1_pt2"
           cx="45.5"
           cy="90.5"
           rx="2.5"
           ry="2.4999988"
           inkscape:label="pt2" /><ellipse
           style="opacity:1;fill:#212e53;fill-opacity:1;stroke:#ce6a6b;stroke-width:1;stroke-dasharray:none;stroke-opacity:0.992157"
           id="path2"
           cx="75"
           cy="90.5"
           rx="2.5"
           ry="2.4999988"
           inkscape:label="pt1" /></g><ellipse
         style="fill:none;stroke:none;stroke-width:1;stroke-dasharray:8023.24, 668.61;stroke-dashoffset:0"
         id="path3"
         cx="128.69148"
         cy="-127.57302"
         rx="16.829409"
         ry="16.829378"
         transform="rotate(60.884288)" /><g
         id="g1"><g
           id="m1_play"
           transform="matrix(0.07291185,0,0,0.07291185,8.9486176,16.364609)"
           inkscape:label="bouton"><path
             d="m 137.15,68.534 c 0,34.94 -27.408,65.096 -62.231,68.297 C 40.084,140.034 7.487,115.538 1.115,81.088 -5.256,46.647 16.24,11.951 49.996,2.485 c 33.766,-9.468 70.253,8.916 82.705,41.693 2.949,7.763 4.449,16.052 4.449,24.356"
             fill="#5471af"
             id="path2-0" /><path
             d="m 133.32,68.129 c 0,32.627 -25.66,60.786 -58.262,63.775 C 42.445,134.8949 11.927,112.021 5.962,79.852 -0.0026,47.691 20.122,15.293 51.725,6.453 c 31.612,-8.8411 65.772,8.3257 77.43,38.932 2.7609,7.249 4.1652,14.989 4.1652,22.743"
             fill="#808080"
             fill-opacity="0.8413"
             id="path3-9" /><path
             d="m 129.25,68.534 c 0,32.867 -27.443,60.31 -60.311,60.31 -32.868,0 -60.311,-27.443 -60.311,-60.31 0,-32.867 27.443,-60.312 60.311,-60.312 32.868,0 60.311,27.443 60.311,60.312"
             fill="url(#a)"
             id="path4"
             style="fill:url(#a)" /><path
             d="m 125.42,47.535 c 4.0771,28.539 -14.11,56.537 -42.209,64.989 -29.802,8.9648 -62.532,-6.5997 -73.988,-34.984 4.864,34.079 39.713,57.435 73.864,49.494 35.261,-8.2001 55.72,-46.367 42.333,-79.499"
             fill="#68a0f2"
             id="path5" /><path
             d="M 106.61,39.855 C 98.2681,41.58 88.665,29.764 81.434,26.758 67.923,21.1412 51.045,23.749 38.804,31.3973 c -12.948,8.0892 -22.157,23.628 -23.573,38.882 -0.0048,0.04353 -0.0048,0.05204 -9.5e-4,0.02271 0.95568,-9.237 0.31036,-17.92 3.8284,-26.849 5.8278,-14.8 18.431,-26.388 33.628,-31.045 15.713,-4.8125 32.895,-1.7505 46.431,7.4231 4.1795,2.8349 20.268,17.378 7.4931,20.023"
             fill="#b3e7fc"
             id="path6" /><path
             d="m 53.008,42.212 v 48.905 c 0,4.9795 -2.0211,14.234 5.1795,14.584 6.0595,0.29703 12.91,-7.8339 17.18,-11.243 7.0742,-5.6425 14.148,-11.284 21.223,-16.929 6.8169,-5.4375 1.7665,-9.4744 -3.2775,-13.514 l -22.8,-18.261 -7.3387,-5.878 c -2.4602,-1.9716 -10.167,-2.2824 -10.167,2.3357"
             fill="#ffffff"
             id="path7" /><path
             d="m 63.317,38.929 c 11.681,9.3549 23.36,18.709 35.04,28.064 7.2233,5.786 -0.86915,10.882 -5.3368,14.443 l -23.72,18.923 c -1.9392,1.5449 -3.8776,3.0907 -5.8159,4.6384 -3.5575,2.8388 -11.298,1.8934 -11.298,-3.7362 v -58.384 c 0,-5.2057 7.5733,-6.7984 11.131,-3.9478 m -1.0201,64.897 34.687,-27.668 c 6.1532,-4.9106 -1.1164,-9.0367 -4.984,-12.135 -7.6251,-6.1069 -15.251,-12.216 -22.879,-18.324 l -6.4568,-5.1726 c -2.0656,-1.6552 -8.8352,-2.093 -8.8352,1.8557 v 57.585 c 9.1e-4,4.2862 4.8204,6.7856 8.4679,3.8586"
             fill="#5471af"
             id="path8" /></g><text
           xml:space="preserve"
           transform="matrix(0.26458333,0,0,0.26458333,-140.19531,-20.821885)"
           id="text5"
           style="font-size:26.6667px;line-height:1.25;font-family:'Book Antiqua';-inkscape-font-specification:'Book Antiqua, Normal';text-align:center;white-space:pre;shape-inside:url(#rect6);display:inline;fill:#253759;fill-opacity:0.996078"><tspan
             x="614.58716"
             y="168.9709"
             id="tspan18">Méthode 1</tspan></text></g></g><text
       xml:space="preserve"
       transform="matrix(0.26458333,0,0,0.26458333,-10.151131,-4.0954684)"
       id="intitule"
       style="font-size:32px;line-height:1.25;font-family:'Book Antiqua';-inkscape-font-specification:'Book Antiqua';text-align:center;white-space:pre;shape-inside:url(#rect1);display:inline;fill:#212e53;fill-opacity:1"
       inkscape:label="intitule"
       x="350.90625"
       y="0"><tspan
         x="112.36328"
         y="60.501876"
         id="tspan21"><tspan
           style="font-family:Arial;-inkscape-font-specification:Arial"
           id="tspan19">Comment tracer une perpendiculaire à une droite avec un </tspan><tspan
           style="font-family:Arial;-inkscape-font-specification:Arial"
           id="tspan20">compas </tspan></tspan></text></g></svg>
