<?xml version="1.0" encoding="UTF-8" standalone="no"?>
<!-- Creator: CorelDRAW 2018 (64 Bit) -->

<svg
   xml:space="preserve"
   width="1000"
   height="800"
   version="1.1"
   style="clip-rule:evenodd;fill-rule:evenodd;image-rendering:optimizeQuality;shape-rendering:geometricPrecision;text-rendering:geometricPrecision"
   viewBox="0 0 1000 800"
   id="svg58"
   sodipodi:docname="matrix.svg"
   inkscape:version="1.4 (86a8ad7, 2024-10-11)"
   xmlns:inkscape="http://www.inkscape.org/namespaces/inkscape"
   xmlns:sodipodi="http://sodipodi.sourceforge.net/DTD/sodipodi-0.dtd"
   xmlns="http://www.w3.org/2000/svg"
   xmlns:svg="http://www.w3.org/2000/svg"><sodipodi:namedview
   id="namedview58"
   pagecolor="#ffffff"
   bordercolor="#666666"
   borderopacity="1.0"
   inkscape:showpageshadow="2"
   inkscape:pageopacity="0.0"
   inkscape:pagecheckerboard="0"
   inkscape:deskcolor="#d1d1d1"
   inkscape:document-units="mm"
   showgrid="false"
   inkscape:zoom="0.75157808"
   inkscape:cx="560.15471"
   inkscape:cy="345.27351"
   inkscape:window-width="1920"
   inkscape:window-height="1017"
   inkscape:window-x="-8"
   inkscape:window-y="-8"
   inkscape:window-maximized="1"
   inkscape:current-layer="svg58" />
 <defs
   id="defs1">
  <style
   type="text/css"
   id="style1">
   <![CDATA[
    .fil7 {fill:#FEFEFE}
    .fil10 {fill:#605F54}
    .fil14 {fill:#FFF8AF}
    .fil1 {fill:#FFF212}
    .fil11 {fill:#FFF212}
    .fil12 {fill:#D3AB2A}
    .fil8 {fill:#E2ECF1}
    .fil13 {fill:#E4E98F}
    .fil3 {fill:#A8CF45}
    .fil0 {fill:#A8CF45}
    .fil4 {fill:#83A149}
    .fil2 {fill:#201E1E}
    .fil9 {fill:#201E1E}
    .fil6 {fill:black}
    .fil5 {fill:black;fill-rule:nonzero}
   ]]>
  </style>
 </defs>
 
  <g
   id="hulk"
   transform="matrix(0.02259756,0,0,0.02259756,104.23671,128.84637)"><path
     class="fil1"
     d="m 9758.26,3927.86 c 119.85,-163.02 291.41,-273.48 498.23,-286.73 164.72,-10.52 321.94,47.25 459.83,133.41 143.13,89.39 255.76,208.11 336.69,347.93 38.27,-28.96 76.46,-58.01 114.56,-87.17 276.95,-211.73 668.38,-352.36 1018.97,-313.53 96.6,10.72 192.07,36.1 277.96,82.34 147.11,79.2 252.45,214.83 280.41,380.92 15.67,93.18 5.76,182.56 -22.92,265.91 507.81,162.46 1011.71,431.96 1446.61,715.35 488.39,318.2 1285.12,925.03 1533.54,1453.22 49.83,105.91 82.3,219.38 82.3,337.13 0,88.3 -10.63,177.33 -34.6,262.45 27.59,23.72 55.19,47.49 82.78,71.18 l 146.11,125.32 c 457.21,392.16 1080.76,907.66 933.2,1590.38 -49.67,229.82 -171.73,398.04 -349.82,498.07 23.77,37.06 46.05,74.84 66.27,113.35 119.96,228.33 181.76,492.67 37.26,727.2 -195.37,317.19 -570.25,306.35 -889.46,231.22 24.01,293.87 40.73,588.34 53.26,882.89 7.01,164.32 13.05,328.71 17.04,493.11 288.31,-69.37 575.2,-4.75 816.06,171.77 135.15,99.05 248.3,227.16 338.18,368.07 83.34,130.63 148.8,274.65 191.99,423.41 83.66,288.27 81.33,623.75 -102.53,874.59 -167.61,228.65 -396.83,426.04 -639.37,571.66 -225.55,135.4 -481.79,236.99 -744.19,267.49 -63.37,7.37 -127.26,10.51 -191.03,8.94 -90.07,232.19 -202.95,454.68 -342.08,662.01 -974.3,1451.57 -2934.48,1695.16 -4540.9,1695.16 -1703.05,0 -3570.22,-336.8 -4608.53,-1835.1 -119.52,-172.49 -222.96,-355.1 -311.27,-545.11 -130.27,25.58 -264.25,29.44 -397.15,14.01 -254.91,-29.64 -503.66,-126.61 -722.84,-258.17 -221.56,-133.02 -432,-312.56 -585.16,-521.51 -177.77,-242.5 -165.28,-570.13 -85.12,-846.23 45.32,-155.98 114.53,-306.76 201.86,-443.64 102.65,-160.89 232.48,-306.19 386.68,-419.23 215.52,-157.95 469.46,-238.19 728.73,-209.27 -0.93,-133.62 -0.24,-267.24 1.41,-400.86 10.39,-841.52 55.15,-1690.81 208.42,-2519.88 -79.52,-127.94 -103.4,-270.5 -90.19,-414.39 -21.23,-6.89 -42.26,-14.63 -63,-23.21 l -5.4,-1.93 -16.07,-7.25 c -70.02,-31.58 -135.2,-73.07 -192.76,-123.91 -190.06,-167.82 -271.15,-407.67 -270.14,-656.54 0.93,-224.01 65.94,-451.57 154.97,-651.62 l 6.2,-14.5 c 124.88,-279.01 305.55,-536.21 505.08,-766.72 l 2.33,-2.69 c 129.31,-149.37 266.6,-291.94 409.52,-428.58 -52.29,-35.77 -100.42,-77.3 -142.48,-124.96 -106.95,-121.21 -166.01,-276.74 -155.53,-439 13.01,-201.06 122.5,-368.6 273.68,-495.53 l 5.52,-4.63 c 284.96,-239.16 760.59,-300.72 1121.73,-322.23 55.35,-3.3 110.7,-6.28 166.09,-8.9 -10.56,-48.1 -16,-97.77 -15.96,-148.4 0.12,-160.73 55.43,-314.17 144.86,-446.46 90.8,-134.35 213.18,-245.89 351.76,-329.48 l 10.19,-6.12 c 412.62,-241.78 922.73,-199.61 1354.12,-33.12 260.88,100.71 512.81,226.03 754.1,368.11 z"
     id="path1"
     style="fill:#6f7c91;stroke:#c83737" /><path
     class="fil2"
     d="m 7482.51,4713.29 c -86.93,-89.71 -137.96,-206.9 -137.87,-338.25 0.1,-120.26 43.66,-235.05 110.35,-333.81 75.15,-111.25 176.35,-202.88 288.9,-269.75 l 7.95,-4.84 c 357.69,-209.63 807.77,-162.52 1179.78,-18.96 313.7,121.12 618.4,281.63 905.82,465.02 15.17,-50.26 37.24,-98.28 66.92,-142.51 85.26,-127.05 208.96,-218.05 364.97,-228.06 121.74,-7.75 238.83,39.83 340.27,103.21 189.81,118.58 304.27,295.27 357.74,493.41 108.05,-80.52 215.57,-161.66 322.56,-243.47 234.71,-179.47 575.7,-306.38 874.46,-273.3 70.52,7.85 141.89,25.71 204.65,59.51 92.2,49.64 159.65,132.36 177.27,236.96 23.07,137.25 -42.89,258.22 -133.8,354.39 584.36,141.55 1185.86,462.24 1646.19,762.2 442.28,288.14 1232.59,884.19 1461.22,1370.17 37.01,78.61 63.1,163.91 63.1,251.42 0,117.05 -22.79,228.97 -72.38,322.42 63.71,54.62 127.29,109.48 190.91,164.1 l 146.1,125.32 c 387.18,332.13 992.99,814.15 867.47,1394.97 -61.61,285.07 -251.75,406 -478.71,437.93 84.01,102.54 160.51,208.48 213.7,309.68 84.44,160.7 147.92,359.36 44.09,527.92 -149.74,243.14 -483.69,189.9 -714.96,130.11 -77.5,-20.06 -154.38,-43.9 -230.4,-70.61 38.82,388.62 62.85,778.87 79.42,1168.83 10.81,254.38 19.34,509.3 21.54,764.16 67.26,-28.77 136.33,-53.52 206.9,-74.01 244.14,-70.85 484.17,-19.91 686.76,128.59 114.84,84.2 211.16,194.21 287.51,313.94 72.91,114.22 130.55,241.12 168.32,371.24 65.53,225.76 73.67,501.26 -71.52,699.35 -151.37,206.51 -361.62,386.6 -580.63,518.06 -200.44,120.35 -430.41,212.98 -663.78,240.12 -101.78,11.82 -204.22,10.91 -303.94,-5.41 -91.91,269.28 -213.7,526.58 -373.15,764.17 -930.38,1386.16 -2845.99,1605.98 -4373.61,1605.98 -1632.51,0 -3447.21,-311.5 -4442.97,-1748.4 -146.01,-210.68 -265.64,-435.77 -362.49,-671.39 -153.52,57.59 -319.2,74.63 -488.28,54.95 -225.91,-26.28 -448.12,-114.22 -642.38,-230.83 -197.95,-118.82 -389.48,-281.05 -526.4,-467.85 -137.87,-188.08 -115.65,-459.08 -54.14,-671.01 39.88,-137.24 101.39,-271.09 178.23,-391.49 89.18,-139.73 202.01,-266.93 335.96,-365.11 209.77,-153.71 460.85,-219.68 715.05,-145.96 33.7,9.77 67.07,20.54 100.05,32.27 -5.46,-218.73 -5.32,-437.69 -2.63,-656.37 10.53,-855.17 57.49,-1729.01 221.21,-2570.92 -8.86,-9.91 -17.24,-20.34 -25.23,-31.26 -104.89,-143.56 -97.51,-320.3 -39.92,-495.13 -77.12,-2.92 -154.15,-18.67 -229.4,-50.55 l -2.83,-1.01 -8.66,-3.87 c -51.75,-23.13 -99.77,-53.76 -142.28,-91.29 -145.81,-128.73 -202.78,-314.81 -202.01,-504.76 0.81,-197.47 61.9,-400.54 139.06,-573.93 l 4.55,-10.77 c 116.28,-259.89 286.46,-503.41 473.45,-717.11 l 2.34,-2.68 c 189.72,-216.81 397.24,-423.28 615.87,-616.15 -132.94,-36.91 -262,-102.73 -350.09,-202.54 -71.61,-81.19 -112.54,-183.59 -105.5,-292.73 9.38,-144.86 94.69,-263.1 202.2,-354.2 l 5.51,-4.65 c 245.87,-203.59 697.87,-257.26 1004.15,-275.49 158.78,-9.48 318,-16.18 477.46,-19.97 z"
     id="path2" /><path
     class="fil3"
     d="m 15852.45,12423.57 c 601.46,-174.63 1013.72,807.3 807.35,1088.78 -352.71,481.06 -1290.27,934.5 -1687.65,272.68 -83.44,-139.02 -106.56,-259.51 -106.32,-264.3 24.13,-416.58 385.17,-922.53 986.62,-1097.16 z"
     id="path3" /><path
     class="fil4"
     d="m 16674.44,13061.53 c 54.13,182.4 54.75,356.2 -14.65,450.84 -47.83,65.25 -106.47,129.98 -173.05,191.48 -130.59,101.44 -305.05,219.07 -416.9,283.4 -36.4,17.47 -73.24,33.53 -110.48,47.91 -55.11,-2.95 -71.52,0.31 -71.52,0.31 l 6.97,-41.78 c -24.4,17.38 -582,-142.96 -536.69,-195.2 45.31,-52.24 236.98,-31.37 268.35,-174.23 31.37,-142.87 -45.36,-156.76 -132.46,-282.25 -87.09,-125.48 -80.08,-268.39 -10.41,-348.51 69.67,-80.13 261.38,-296.23 568.02,-278.8 252.9,14.38 522.44,189.94 622.82,346.83 z"
     id="path4" /><path
     class="fil5"
     d="m 15888.99,12366.05 c 181.12,-52.55 343.92,-6.93 478.54,91.82 88.33,64.77 165.1,152.3 227.18,249.59 62.12,97.33 109.95,204.81 140.22,309.16 54.97,189.37 48.75,377.28 -34.68,491.11 -123.14,167.97 -305.45,331.18 -510.71,454.41 -179.31,107.66 -377.72,185.44 -568.19,207.55 -187.3,21.79 -368.59,-9.84 -517.99,-119.4 -71.03,-52.06 -134.92,-121.64 -188.66,-211.16 -29.12,-48.58 -51.09,-95.17 -67.29,-135.41 -30.93,-76.86 -40.9,-134.04 -40.76,-137.57 l 0.04,-0.44 c 13.5,-234.37 131.7,-500.12 338.59,-730.17 186.98,-207.94 439.36,-381.16 743.71,-469.49 z m 368.94,205.38 c -127.55,-93.53 -278.54,-137.74 -442.01,-90.31 -261.81,76.02 -469.36,214.25 -615.31,376.57 -167.36,186.11 -263.67,411.44 -275.63,617.92 0.35,4.59 10.24,52.07 38.83,123.1 15.7,39.09 37.15,84.49 65.78,132.23 52.64,87.67 114.72,155.49 183.37,205.79 143.35,105.14 316.48,135.58 494.95,114.8 175.3,-20.34 354.61,-90.01 514.55,-186.02 163.38,-98.08 305.01,-223.21 396.87,-348.51 53.65,-73.2 47.96,-227.18 -1.59,-397.93 -29.6,-102.14 -76.51,-207.42 -137.48,-302.98 -61.02,-95.61 -136.2,-181.52 -222.33,-244.66 z"
     id="path5" /><path
     class="fil5"
     d="m 16746.18,13098.68 c 4.94,11.43 -10.94,38.88 -35.52,61.16 -24.57,22.28 -48.58,31.1 -53.52,19.67 -0.48,-1.14 -172.6,-414.65 -737.22,-385.35 -451.98,23.47 -492.35,457.23 -495.97,530.12 50.08,1.36 267.15,16.63 263.67,177.41 -4.81,220.69 -305.9,344.98 -306.69,345.29 -21.44,8.74 -28.41,-3.22 -15.53,-26.65 12.88,-23.42 40.77,-49.59 62.21,-58.32 0.44,-0.18 166.56,-68.75 169.21,-189.99 3.44,-160.43 -253.35,-156.99 -254.06,-156.99 -6.35,-0.08 -10.1,-3.48 -9.88,-10.54 0.05,-1.81 4.19,-667.2 656.13,-701.05 580.2,-30.13 756.68,394.1 757.17,395.24 z"
     id="path6" /><path
     class="fil5"
     d="m 15446.05,13106.41 c -22.01,9.83 -30.31,-0.84 -18.48,-23.83 11.82,-22.99 39.35,-49.64 61.37,-59.48 0.48,-0.22 185.26,-84.53 403.4,72.36 225.46,162.15 11.87,427.23 11.3,427.98 -20.12,25.11 -48.67,44.83 -63.72,44.08 -15.04,-0.75 -10.94,-21.8 9.18,-46.9 0.4,-0.53 157.52,-195.24 -40.77,-337.88 -205.6,-147.9 -361.84,-76.51 -362.28,-76.33 z"
     id="path7" /><path
     class="fil5"
     d="m 15796.86,12827.65 c -15.97,0.48 -13.32,-19.46 5.91,-44.48 19.24,-25.01 47.92,-45.75 63.89,-46.24 1.06,0 394.49,-22.76 496.9,265.66 113.39,319.44 -169.21,478.58 -170,479.02 -23.87,13.9 -37.11,8.34 -29.56,-12.44 7.54,-20.78 33.04,-49.02 56.91,-62.92 0.36,-0.17 140.27,-78.4 53.08,-323.98 -98.17,-276.51 -476.11,-254.62 -477.13,-254.62 z"
     id="path8" /><path
     class="fil3"
     d="m 5192.88,12423.57 c -601.45,-174.63 -1013.72,807.3 -807.35,1088.78 352.72,481.06 1290.28,934.5 1687.65,272.68 83.44,-139.02 106.57,-259.51 106.33,-264.3 -24.13,-416.58 -385.17,-922.53 -986.63,-1097.16 z"
     id="path9" /><path
     class="fil4"
     d="m 4358.12,13108.35 c -32.07,129.1 -35.91,250.65 -5.64,338.85 154.02,207.9 594.09,516.44 594.09,516.44 0,0 427.71,140.35 594.8,-13.37 167.09,-153.72 -100.24,-300.77 -100.24,-300.77 0,0 -147.06,-247.3 -13.37,-320.81 133.69,-73.51 233.93,-13.37 207.19,-126.98 -26.73,-113.61 -160.38,-367.58 -380.94,-421.05 -220.56,-53.48 -387.7,-53.52 -574.81,33.4 -111.63,51.84 -244.66,167.92 -321.08,294.29 z"
     id="path10" /><path
     class="fil5"
     d="m 5141.68,12482.18 c -161.05,-46.77 -301.04,-9.67 -413.64,72.88 -65.57,48.05 -124.56,116.18 -173.88,193.48 -56.04,87.8 -99.59,186.19 -127.65,282.82 -50.12,172.64 -49.9,336.6 15.8,426.21 106.64,145.42 267.68,288.68 451.14,398.86 168.41,101.12 355.4,174.19 535.9,195.19 173.04,20.12 335.81,-5.65 462.43,-98.52 l 2.48,-1.77 c 47.38,-35.38 91.46,-84.62 130.59,-149.84 25.59,-42.71 45.1,-83.96 59.44,-119.65 27.13,-67.46 36.18,-111.14 36.09,-113.44 -12.67,-217.56 -118.78,-460.27 -304.04,-666.32 -165.24,-183.72 -393.52,-338.28 -674.66,-419.9 z m -404.38,-8.03 c 149.58,-109.65 323.37,-162.41 506.83,-109.16 285.02,82.73 516.61,239.62 684.36,426.17 188.98,210.19 297.34,458.68 310.22,682.03 -0.09,5.16 -10.81,66.13 -43.41,147.23 -17.52,43.59 -41.61,94.46 -73.82,148.16 -65.61,109.29 -145.25,195.85 -235.03,262.48 l -3.93,2.95 c -166.07,121.78 -357.69,158.05 -550.42,135.68 -185.31,-21.58 -376,-95.79 -546.84,-198.37 -185.17,-111.23 -348.16,-256.35 -456.52,-404.15 -71.39,-97.42 -71.7,-275.37 -17.3,-462.75 31.9,-109.95 83.04,-224.4 150.15,-329.5 73.77,-115.55 166.78,-220.91 275.71,-300.77 z"
     id="path11" /><path
     class="fil5"
     d="m 4385.3,13117.92 c -10.06,22.19 -36.88,49.68 -59.83,61.37 -22.94,11.7 -33.44,3.18 -23.38,-19.01 0.57,-1.37 204.46,-489.18 825.2,-456.97 581.43,30.18 585.27,628.56 585.27,630.19 0.44,15.26 -19.54,43.9 -44.65,63.8 -15.35,12.13 -29.03,18.26 -37.5,17.73 -15.84,0 -183.68,2.17 -181.87,85.95 3.53,164.31 232.3,258.69 232.87,258.91 11.52,4.85 2.83,28.81 -19.45,53.43 -22.29,24.62 -49.77,40.63 -61.29,35.78 -0.62,-0.22 -239.09,-98.7 -242.93,-276.38 -3.75,-171.27 153.85,-224.57 257.23,-241.16 -22.55,-157.78 -122,-514.5 -560.57,-537.27 -524.07,-27.22 -668.7,322.7 -669.1,323.63 z"
     id="path12" /><path
     class="fil5"
     d="m 5618.67,13020.28 c 11.08,5.34 1.81,29.65 -20.69,54.18 -22.5,24.53 -49.86,40.11 -60.93,34.77 -0.44,-0.18 -159.63,-72.85 -346.58,61.55 -143.61,103.38 21.36,308.41 21.8,308.98 7.41,9.09 -5.96,35.43 -29.87,58.77 -23.91,23.34 -49.37,34.86 -56.78,25.77 -0.58,-0.71 -206.27,-255.47 73.86,-456.97 236.88,-170.31 418.75,-87.23 419.19,-87.05 z"
     id="path13" /><path
     class="fil5"
     d="m 5249.77,12736.93 c 15.09,0.62 11.12,21.53 -8.86,46.55 -19.99,25.02 -48.49,44.78 -63.58,44.17 -0.89,0 -333.65,-18.4 -407.29,189.06 -95.21,268.25 108.81,382.93 109.38,383.24 10.37,6.08 0.26,30.79 -22.5,55.06 -22.77,24.27 -49.73,39 -60.1,32.91 -0.57,-0.31 -219.06,-123.05 -113.7,-419.77 126.94,-357.51 565.46,-331.26 566.65,-331.22 z"
     id="path14" /><path
     class="fil0"
     d="m 10503.48,5335.67 c 4025.83,8.47 4602.84,3039 4729.89,6027.7 117.15,2756.56 -79.71,5048.4 -4729.89,5048.4 -4493.9,0 -4763.93,-2419.27 -4734.71,-4802.35 37.79,-3082.56 591.23,-6282.47 4734.71,-6273.75 z"
     id="path15" /><path
     class="fil4"
     d="m 10276.63,13208.33 c 5.16,62.07 206.93,822.46 305.19,858.63 98.25,36.18 253.42,-1282.78 253.42,-1282.78 l -155.17,93.1 -87.94,817.27 -165.49,-429.34 z"
     id="path16" /><path
     class="fil4"
     d="m 10503.49,5335.66 c 1066.94,2.25 1891.57,216.85 2529.87,586.59 -636.36,-310.17 -1451.19,-489.75 -2497.22,-491.69 -1330.49,-2.43 -2293.88,282.86 -2990.91,760.48 690.11,-537.31 1643.17,-858.16 2958.26,-855.38 z m 4744.11,7329.18 c -79.42,2140.5 -851.06,3746.92 -4744.11,3746.92 -4389.33,0 -4748.97,-2307.99 -4736.13,-4635.92 94.86,1822.74 800.63,3461.54 4768.78,3461.54 3395.27,0 4438.61,-1061.56 4711.46,-2572.54 z"
     id="path17" /><path
     class="fil4"
     d="m 9988.54,14803.58 c 0,0 550.6,64.77 822.6,6.49 272.01,-58.29 323.86,-239.67 323.86,-239.67 0,0 135.98,323.89 -213.77,408.08 -349.75,84.18 -874.4,-51.85 -874.4,-51.85 z"
     id="path18" /><path
     class="fil4"
     d="m 10954.67,13712.85 c 0,0 -13.01,195.59 39.14,254.32 52.15,58.73 723.81,599.96 1173.76,469.54 449.95,-130.42 1154.17,-247.83 1493.29,-1075.99 339.11,-828.16 208.69,-958.58 208.69,-958.58 z"
     id="path19" /><path
     class="fil4"
     d="m 7269.39,11909.48 c 0,0 -296.9,1167.85 409.05,1860.6 705.94,692.75 1359.16,811.52 1656.05,765.33 296.89,-46.2 917.06,-514.63 917.06,-514.63 l -573.97,-461.87 z"
     id="path20" /><path
     class="fil4"
     d="m 10503.49,5335.66 c 35.03,0.04 69.27,0.83 103.68,1.45 123.5,102.06 193.03,168.24 193.03,168.24 0,0 -56.91,-56.92 -133.55,-167.4 123.14,2.87 243.11,8.52 359.67,17.16 -4.41,26.17 -8.16,41.26 -8.16,41.26 l 52.59,-37.81 c 2957.86,238.07 3799.92,2316.41 4064.38,4663.49 -127.51,-61.1 -163.56,-61.06 -48.14,72.81 21.89,25.41 43.55,52.24 64.51,80.03 22.9,225.15 40.94,452.42 55.28,680.53 -100.99,26.16 -256.3,16.55 -483.08,-46.11 -920.33,-254.27 -1840.66,-1186.73 -1840.66,-1186.73 0,0 266.41,363.3 435.96,617.61 169.56,254.27 896.11,1138.25 -133.24,1065.58 -1029.31,-72.67 -1985.91,-1671.06 -1985.91,-1671.06 0,0 0,60.54 121.03,714.46 121.07,653.92 278.54,1840.61 -266.36,1380.47 C 10509.57,11269.5 9952.54,9513.6 9952.54,9513.6 c 0,0 -53.74,276.55 -25.9,675.59 27.89,399.07 -83.52,723.81 -380.46,510.39 -296.93,-213.41 -621.76,-1391.98 -621.76,-1391.98 0,0 -64.94,955.84 -426.87,733.07 -361.88,-222.72 -491.87,-1317.73 -491.87,-1317.73 0,0 -352.61,1178.53 -649.55,631.03 -296.98,-547.5 231.95,-1716.81 231.95,-1716.81 0,0 -64.95,120.67 -417.57,621.76 -352.62,501.13 -770.23,1132.15 -946.54,890.9 -176.3,-241.3 408.3,-909.48 408.3,-909.48 0,0 -248.4,248.36 -521.82,302.46 401.5,-1487.91 1253.27,-2682.89 3029.15,-3072.26 183.95,17.03 285.96,32.25 285.96,32.25 0,0 -63.36,-21.75 -163.56,-57.76 373.13,-72.31 785.53,-110.34 1241.49,-109.37 z"
     id="path21" /><path
     class="fil5"
     d="m 10408.76,5214.59 c 2089.28,4.37 3303.85,827.36 4022.37,2053.76 680,1160.66 859.53,2681.3 923.55,4187.74 58.81,1384.48 38.6,2652.58 -581.65,3576.66 -619.78,923.37 -1838.15,1500.08 -4174.82,1500.08 -2311.82,0 -3563.46,-660.19 -4246.24,-1645.38 -655.6,-946.05 -719.18,-2166.31 -704.4,-3373.56 18.93,-1545.53 167.4,-3121.06 831.29,-4310.4 664.78,-1190.88 1845.95,-1993.23 3929.9,-1988.9 z m 3821.09,1980.96 c -608.17,-1038.09 -1695.19,-1734.77 -3631.64,-1738.82 -2059.36,-4.28 -3226.86,789.02 -3884.09,1966.4 -658.12,1178.97 -805.35,2744.92 -824.14,4281.8 -14.39,1175.71 42.44,2356.79 637.95,3216.14 568.32,820.09 1698.76,1369.62 3880.83,1369.62 2313.55,0 3518.77,-569.34 4130.6,-1480.93 611.39,-910.85 631.07,-2167.11 572.74,-3539.16 -63.01,-1482.08 -235.57,-2971.22 -882.25,-4075.05 z"
     id="path22" /><path
     class="fil6"
     d="m 13928.75,15646.07 c -742.05,503.12 -1416.89,489.67 -2286.57,328.15 -557.41,-103.54 -1184.19,-46.53 -2134.14,191.11 -455.11,113.83 -875.85,91.76 -1285.82,-37.34 -585.37,-184.26 -807.01,-280.72 -951.54,-924.49 -150.03,-668.24 204.6,-954.7 490.97,-797.82 286.36,156.87 1466.01,1070.54 2366.13,1125.11 900.12,54.58 1588.8,-231.84 2509.36,-777.33 920.56,-545.49 961.44,-579.62 1261.5,-306.85 206.61,187.84 387.28,744.2 30.11,1199.46 z"
     id="path23" /><path
     class="fil5"
     d="m 13919.01,15690.15 c -385,261.07 -750.02,387.88 -1129.15,428.16 -372.96,39.58 -760.97,-4.28 -1197.41,-85.33 -276.56,-51.36 -570.89,-62.83 -914.24,-31.99 -342.78,30.8 -735.24,104.17 -1208.67,222.59 -230.53,57.67 -452.42,80.92 -668.48,73.42 -214.56,-7.5 -423.74,-45.58 -630.27,-110.66 -294.07,-92.52 -496.94,-163.16 -644.97,-292.04 -148.38,-129.09 -240.99,-315.99 -313.84,-640.55 -66.44,-296.1 -33.48,-524.52 49.91,-676.78 39.31,-72.09 90.75,-132.41 150.27,-180.06 54.27,-43.41 111.01,-71.65 167.4,-84.31 77.83,-17.61 159.72,-6.05 235.65,35.56 58.2,31.85 149.04,91.99 265.48,169.07 475.19,314.5 1376.37,910.89 2094.75,954.44 446.2,27.04 839.24,-30.14 1233.9,-161.44 393.34,-130.82 790.44,-336.17 1245.06,-605.57 l 57.98,-34.28 c 890.99,-528.22 937.93,-556.02 1241.71,-279.87 119.3,108.46 230.22,338.24 236.8,601.2 5.16,206.71 -54.89,437.29 -225.46,654.72 -13.64,17.34 -30.53,32.92 -46.42,43.72 z m -1042.23,310.35 c 351.95,-37.41 687.36,-150.58 1034.64,-380.37 122.48,-168.72 165.77,-358.04 161.31,-534.79 -6.35,-254.8 -113.88,-477.48 -229.56,-582.67 -283.31,-257.54 -327.43,-231.42 -1165.07,265.08 l -58.2,34.51 c -465.88,276.06 -873.65,486.79 -1279.65,621.8 -404.68,134.61 -806.19,193.38 -1260.11,165.85 -726.81,-44.03 -1631.3,-642.63 -2108.25,-958.32 -117.45,-77.74 -209.14,-138.45 -263.8,-168.36 -69.05,-37.82 -141.15,-48.89 -207.46,-34.02 -32.79,7.24 -61.68,20.3 -84.76,38.74 -17.83,14.25 -35.61,36.66 -52.37,67.33 -71.52,130.33 -97.25,336.86 -34.15,617.96 71.65,319.13 162.23,502.5 307.13,628.56 145.07,126.27 345.91,196.11 637.2,287.8 203.31,64.06 409.62,101.61 621.62,108.98 210.55,7.28 426.7,-15.36 651.19,-71.48 476.56,-119.17 872.59,-193.16 1219.96,-224.36 346.79,-31.14 644.75,-19.41 925.45,32.7 433.18,80.43 817.52,124.07 1184.88,85.06 z"
     id="path24" /><path
     class="fil7"
     d="m 13460.76,15900.93 c -570.67,235.77 -1134.31,200.39 -1818.58,73.29 -557.41,-103.54 -1184.19,-46.53 -2134.14,191.11 -207.48,51.89 -407.77,75.49 -603.13,73.67 -125.04,-10.92 -243.57,-21.4 -353.15,-31.31 -110.91,-18.67 -220.59,-45.38 -329.54,-79.7 -236.29,-74.4 -413.23,-134.43 -549.85,-221.98 -56.01,-171.53 -95.65,-390.87 28,-473.31 215.04,-143.37 581.3,-207.04 581.3,-207.04 0,0 254.82,278.76 1489.13,445.97 1234.31,167.21 3225.13,-653.01 3280.9,-653.01 55.77,0 445.92,262.81 469.81,366.31 13.55,58.69 11.68,284.02 -60.75,516 z"
     id="path25" /><path
     class="fil8"
     d="m 7619.7,15655.5 c -5.07,-94.71 14.22,-178.54 80.65,-222.81 215.07,-143.37 581.33,-207.06 581.33,-207.06 0,0 254.83,278.76 1489.11,445.98 783.55,106.15 1871.76,-185.55 2576.48,-412.82 428.29,-109.57 781.86,-202.15 781.86,-202.15 l 211.04,171.93 c 0,0 101.6,234.49 -140.67,312.64 -242.26,78.15 -1250.51,312.6 -1610.04,250.08 -359.53,-62.52 -586.16,-78.15 -1719.45,109.45 -1133.29,187.6 -1797.56,-351.71 -1797.56,-351.71 0,0 -211.05,-70.34 -257.94,-23.45 -46.89,46.89 -23.44,289.16 -7.81,367.35 l -140.67,-93.82 c 0,0 -23.44,-67 -46.33,-143.61 z"
     id="path26" /><path
     class="fil5"
     d="m 13427.23,15957.53 c -290.62,119.53 -578.25,170.44 -879.07,175.21 -299.23,4.72 -612.49,-36.01 -955.71,-99.76 -276.56,-51.36 -570.89,-62.83 -914.24,-31.99 -342.78,30.8 -735.24,104.17 -1208.67,222.59 l -2.95,0.62 c -104.04,25.9 -206.58,44.87 -307.66,57.05 -102.36,12.4 -202.56,17.96 -300.6,17.03 -115.69,-11.43 -241.65,-16.94 -356.1,-31.72 -56.21,-9.36 -111.76,-20.87 -166.61,-34.11 -53.91,-13.06 -108.93,-28.5 -164.83,-46.11 -120.54,-37.94 -225.29,-71.96 -313.22,-106.06 -91.11,-35.34 -170.22,-72.63 -239.49,-117.06 -1.99,-1.28 -3.36,-3.17 -4.15,-5.51 -32.25,-98.66 -59.17,-213.64 -53.43,-311.06 5.87,-98.92 48.22,-190.52 150.63,-258.73 l 4.9,-3.13 c 232.87,-152.57 605.74,-217.56 606.8,-217.74 6.97,-1.23 11.96,-0.04 14.82,3.09 0.75,0.71 252.25,275.89 1482.22,442.49 1038.7,140.71 2619.22,-423.12 3112.81,-599.21 94.42,-33.66 151.03,-53.96 165.32,-53.96 34.77,0 181.74,88.2 303.38,183.06 90.27,70.37 168.23,145.2 178.96,191.84 8.25,35.83 11.16,130.47 -2.87,249.73 l -0.66,3.79 c -10.11,83.88 -28.42,180.19 -58.77,277.53 -8.17,26.11 -40.51,63.22 -72.1,82.81 -6.88,4.28 -13.19,7.37 -18.71,9.31 z m -787.21,57.05 c 269.14,-4.24 525.84,-45.89 781.61,-141.63 18.22,-70.06 30.18,-138.14 37.5,-199.21 l 0.18,-3.09 c 13.37,-113.7 10.99,-202.34 3.4,-235.16 -9.49,-41.26 -84.27,-111.98 -171.19,-179.75 -118.25,-92.22 -256.75,-177.95 -286.09,-177.95 -2.86,0 -54.27,18.36 -139.46,48.71 -498.31,177.77 -2092.95,746.54 -3144.23,604.11 -1144.73,-155.08 -1450.8,-406.71 -1491.17,-444.56 -58.28,10.94 -359.72,71.83 -538.28,189.63 l -2.69,1.81 c -4.55,3 -8.12,34.24 -10.77,79.24 -5.29,90.01 20.17,198.99 50.92,293.98 66.58,42.32 143.48,78.36 232.56,112.91 93.72,36.36 195.73,69.58 311.37,105.98 52.94,16.68 107.39,31.85 163.25,45.4 54.8,13.24 109.68,24.62 164.35,33.8 l 349.79,30.88 c 97.64,0.88 195.51,-4.41 293.9,-16.32 97.73,-11.78 197.18,-30.18 298.48,-55.38 l 3.04,-0.88 c 476.56,-119.17 872.59,-193.16 1219.96,-224.36 346.79,-31.14 644.75,-19.41 925.45,32.7 341.01,63.36 651.93,103.82 948.12,99.14 z"
     id="path27" /><path
     class="fil7"
     d="m 7713.35,14383.7 c 16.23,5.99 32.36,13.26 48.3,21.98 286.36,156.87 1466.01,1070.54 2366.13,1125.11 900.12,54.58 1588.8,-231.84 2509.36,-777.33 482.35,-285.79 723.14,-431.18 886.29,-465.64 42.79,230.26 67.16,642.14 -224.9,890.07 -422.08,358.31 -1377.64,453.91 -2062.49,493.74 -684.84,39.83 -860,119.44 -1656.34,111.49 -796.34,-7.94 -1481.18,-469.85 -1720.06,-772.45 -142.8,-180.9 -157.54,-444.34 -146.29,-626.97 z"
     id="path28" /><path
     class="fil8"
     d="m 7713.36,14383.71 c 16.2,5.96 32.35,13.26 48.3,21.96 286.34,156.9 1465.99,1070.56 2366.12,1125.11 900.13,54.58 1588.78,-231.83 2509.37,-777.31 482.35,-285.81 723.12,-431.19 886.27,-465.63 38.23,205.85 61.72,556.79 -142.32,806.03 -174.99,61.51 -298.62,-320.5 -298.62,-320.5 0,0 -586.2,386.36 -1372.25,666.17 -786.05,279.8 -2118.34,253.14 -2797.83,53.29 -679.5,-199.84 -964.67,-837.09 -964.67,-837.09 0,0 -74.68,294.19 -118.27,300.4 -3.14,0.44 -6.32,-0.61 -9.47,-2.98 -10.75,-17.89 -20.5,-36.3 -29.36,-55.15 -28.64,-83.11 -51.45,-228.61 -51.45,-254.71 l -22.76,-34.69 c -7.85,-80.44 -7.17,-158.07 -3.06,-224.9 z"
     id="path29" /><path
     class="fil5"
     d="m 7767.39,14326.27 23.29,9.62 24.62,12.31 c 58.29,31.95 149.04,92.04 265.39,169.03 475.19,314.5 1376.37,910.89 2094.75,954.44 446.2,27.04 839.24,-30.14 1233.9,-161.44 393.34,-130.82 790.44,-336.17 1245.06,-605.57 l 57.85,-34.28 c 452.46,-268.17 684.85,-405.92 851.14,-441.08 12.14,-2.56 18.58,1.76 19.15,10.81 25.37,137.61 43.9,338.72 -5.34,533.86 -38.69,153.19 -120.23,306.56 -272.27,435.7 -231.33,196.39 -591.01,317.32 -979.72,393.21 -378.69,73.91 -790.48,107.97 -1134.14,127.91 -261.15,15.13 -447.43,36.09 -622.28,55.68 -286.4,32.08 -542.7,60.85 -1035.67,55.95 -347.06,-3.44 -673.2,-92.61 -950.81,-217.3 -362.81,-162.9 -643.07,-386.94 -779.23,-559.42 -62.48,-79.15 -100.91,-173.52 -123.41,-269.89 -30,-128.65 -32.12,-261.42 -25.59,-367.22 1.28,-21.4 28.9,-58.9 61.59,-83.65 23.21,-17.56 42.76,-24.05 51.72,-18.67 z m 204.5,305.32 c -79.99,-52.94 -148.03,-97.99 -200.58,-130.82 3.09,62.97 10.86,129.02 25.99,193.92 21.84,93.62 58.95,185 118.91,260.98 134.66,170.53 412.13,392.24 771.72,553.68 274,123.05 595.91,211.07 938.38,214.47 492.13,4.85 745.78,-23.56 1029.22,-55.33 176.31,-19.72 364.26,-40.86 625.46,-56.03 341.06,-19.81 749.67,-53.61 1125.5,-126.94 365.67,-71.39 694.95,-177.5 885.64,-339.38 88.42,-75.1 140.27,-181.74 169.03,-295.66 45.32,-179.57 29.3,-367.71 5.78,-500.34 -146.83,37.07 -369.73,169.21 -789.2,417.83 l -57.84,34.29 c -465.88,276.06 -873.65,486.79 -1279.65,621.8 -404.68,134.61 -806.19,193.38 -1260.11,165.85 -726.81,-44.03 -1631.3,-642.63 -2108.25,-958.32 z"
     id="path30" /><path
     class="fil7"
     d="m 13168.32,14443.73 c 157.64,-86.93 267.55,-137.43 355.11,-155.91 42.79,230.26 67.16,642.14 -224.9,890.07 -32.65,27.71 -68.51,53.8 -107.14,78.46 34.37,-101.63 67.5,-219.92 83.25,-333.28 22.93,-165.4 -41.55,-344.05 -106.32,-479.34 z"
     id="path31" /><path
     class="fil5"
     d="m 13190.52,14392.1 c 80.52,-44.38 149.44,-79.72 209.84,-106.55 62.3,-27.62 115.56,-46.24 163.03,-56.25 12.14,-2.56 18.58,1.76 19.15,10.81 25.37,137.61 43.9,338.72 -5.34,533.86 -38.69,153.19 -120.23,306.56 -272.27,435.7 -19.9,16.9 -40.77,33.31 -62.34,49.07 -20.48,14.95 -42.05,29.69 -64.38,43.9 -31.81,20.34 -51.75,16.1 -44.47,-9.45 l 0.75,-2.42 c 18.13,-53.79 36.05,-112.38 50.87,-171.99 12.71,-51.31 23.43,-103.2 30.31,-153.14 10.99,-79.38 0.84,-162.77 -19.9,-242.76 -20.87,-80.43 -53.07,-158.44 -85.37,-225.94 -6.97,-14.48 13.28,-50.04 45.27,-79.42 12.09,-11.12 24.18,-19.77 34.85,-25.42 z m 153.46,2.52 c -28.95,12.84 -60.45,28.1 -94.86,45.71 24.31,55.55 47.21,116.88 63.84,180.98 21.88,84.45 32.52,173.22 20.6,259.17 -7.45,54.01 -18.61,108.5 -31.81,161.27 -10.81,42.93 -22.9,85.06 -35.51,125.26 l 25.89,-20.87 c 88.42,-75.1 140.27,-181.74 169.03,-295.66 45.32,-179.57 29.3,-367.75 5.78,-500.34 -35.96,9.09 -76.41,23.83 -122.96,44.48 z"
     id="path32" /><path
     class="fil5"
     d="m 8114.93,14622.33 c -31.46,78.05 -56.43,162.72 -66.18,239.98 -7.94,62.96 -5.87,120.58 11.2,164.17 13.86,35.43 33.49,74.04 55.55,113.08 21.93,38.92 48.01,80.92 73.42,121.21 l -74.48,46.85 c -24.88,-39.4 -50.96,-81.53 -75.44,-124.99 -24.49,-43.29 -46.15,-85.78 -61.11,-124.12 -22.68,-57.97 -26.08,-130.29 -16.33,-207.24 10.77,-85.55 37.77,-177.72 71.66,-261.68 z"
     id="path33" /><path
     class="fil9"
     d="m 9582.81,9076.56 c 0,0 557.03,1755.92 1101.95,2216.05 544.92,460.14 387.47,-726.54 266.4,-1380.46 -121.06,-653.92 -121.06,-714.48 -121.06,-714.48 0,0 956.61,1598.42 1985.93,1671.09 1029.33,72.67 302.79,-811.32 133.23,-1065.61 -169.56,-254.29 -435.96,-617.59 -435.96,-617.59 0,0 920.32,932.44 1840.64,1186.73 920.33,254.29 666.03,-363.29 363.3,-714.48 -302.74,-351.18 435.91,218.01 1138.28,399.63 702.36,181.62 133.22,-460.14 -181.63,-787.1 -314.84,-326.96 -435.96,-435.96 -435.96,-435.96 0,0 1053.6,544.97 1150.44,96.89 96.85,-448.07 -472.25,-871.88 -932.43,-1271.51 -460.19,-399.62 -593.37,-496.47 -593.37,-496.47 0,0 387.47,169.51 387.47,-181.67 0,-583.26 -2760.44,-2682.84 -3984.03,-2107.05 0,0 702.32,-290.58 908.21,-496.47 205.9,-205.89 -363.24,-290.63 -774.98,24.22 -411.74,314.85 -750.81,557.03 -750.81,557.03 0,0 133.22,-532.85 -254.3,-775.03 -387.51,-242.18 -363.24,242.22 -230.07,496.52 133.18,254.29 266.41,387.47 266.41,387.47 0,0 -734.3,-698.59 -1671.62,-1060.49 -937.31,-361.91 -1391.99,287.65 -1020.8,510.4 371.19,222.74 1317.75,547.55 1317.75,547.55 0,0 -872.36,-129.97 -2115.86,-55.72 -1243.5,74.24 -946.56,519.73 -482.54,566.12 464.01,46.39 501.11,18.53 501.11,18.53 0,0 -593.93,399.05 -1150.72,1030.09 -556.79,631.04 -686.67,1299.18 -334.05,1456.96 352.62,157.78 788.78,-278.42 788.78,-278.42 0,0 -584.61,668.19 -408.3,909.46 176.31,241.27 593.94,-389.77 946.56,-890.89 352.62,-501.11 417.58,-621.75 417.58,-621.75 0,0 -528.93,1169.31 -231.98,1716.81 296.94,547.5 649.56,-631.04 649.56,-631.04 0,0 129.97,1095.01 491.88,1317.75 361.9,222.74 426.86,-733.1 426.86,-733.1 0,0 324.81,1178.59 621.75,1392 296.95,213.41 408.35,-111.35 380.48,-510.4 -27.86,-399.06 25.9,-675.61 25.9,-675.61 z"
     id="path34" /><path
     class="fil5"
     d="m 9641.22,9024.91 c 1.68,4.9 556.46,1753.47 1098.8,2211.41 68.3,57.67 125.08,88.82 171.72,97.77 29.78,5.74 43.28,7.15 44.25,5.43 26.39,-46.33 42.01,-124.42 49.42,-222.59 24.36,-319.79 -49.42,-811.4 -113.04,-1155.06 -121.29,-655.55 -121.33,-718.51 -121.33,-718.69 0.62,-20.83 27.66,-58.15 60.27,-83.26 27.09,-20.87 49.55,-26.73 56.03,-16.23 2.91,4.36 954.26,1593.88 1976.38,1666.02 316.08,22.28 425.94,-42.58 432.83,-140.09 15.31,-217.6 -211.3,-537.88 -343.89,-725.26 -24.48,-34.59 -45.93,-64.82 -60.49,-86.7 -178.78,-268.17 -435.08,-616.47 -435.78,-617.48 -8.96,-12.57 9.26,-47.3 40.68,-77.43 31.28,-30.01 63.93,-44.26 73.02,-31.95 32.47,32.65 932.68,933.57 1835.01,1182.85 224.31,61.99 375.73,71.79 471.7,46.33 29.43,-7.81 43.9,-15.22 46.72,-21.88 17.74,-41.52 16.11,-98.04 0.84,-162.33 -35.47,-149.21 -145.73,-326.19 -263.36,-462.61 -72.93,-84.58 -76.15,-145.86 -18.35,-195.68 32.43,-27.97 62.12,-36.84 66.27,-19.9 l 0.09,0.45 c 63.35,3.7 151.82,49.41 266.93,108.84 234.46,121.07 587.52,303.34 930.34,391.98 203.27,52.55 228.77,-2.21 182.27,-90.76 -93.41,-177.77 -313.66,-419.15 -470.51,-582.01 -314.59,-326.71 -434.95,-435.03 -435.26,-435.3 -11.74,-9.79 3.44,-43.06 33.89,-74.17 28.9,-29.56 61.24,-46.63 74.47,-39.88 2.91,1.28 972.75,500.34 1038.89,194.22 84.18,-389.64 -360.79,-769.21 -783.12,-1129.42 l -146.3,-125.52 c -460.5,-399.88 -592.91,-496.15 -593.26,-496.41 -11.6,-9.93 3.71,-43.24 34.2,-74.3 28.5,-29.04 60.22,-45.93 73.72,-39.89 0.8,0.26 275.58,120.63 275.58,-77.52 0,-38.21 -13.01,-84.14 -37.54,-136.29 l -0.31,-0.75 c -147.63,-312.51 -698.97,-826.22 -1368.21,-1262.23 -669.32,-436.09 -1455.61,-793.83 -2071.85,-793.83 -151.29,0 -291.02,21.44 -414.3,68.39 l -62.96,26.82 c -26.3,10.77 -36.53,-2.25 -22.63,-30.48 14.56,-29.61 50.12,-64.82 79.33,-78.58 21.97,-10.33 44.34,-19.86 67.1,-28.55 172.48,-74.35 648.46,-287.19 795.16,-433.89 4.19,-4.19 5.07,-12.22 3.35,-22.41 -3.26,-19.51 -18.92,-36.58 -44.03,-50.13 -26.43,-14.25 -63.31,-24.31 -107.48,-29.16 -158.92,-17.52 -408.3,30.36 -608.83,183.72 -408.52,312.38 -752.98,558.53 -753.9,559.2 -32.48,23.78 -56.74,24.97 -54.18,2.69 l 0.57,-3.44 c 0.26,-1.46 129.94,-519.75 -250.26,-757.35 -76.77,-48 -135.58,-66.67 -179,-63.89 -10.28,0.62 3.84,-26.73 -3.31,-16.1 l -1.72,2.51 c -10.19,17.21 -16.45,47.26 -19.37,85.34 -8.86,116.08 27.89,268.47 85.2,377.9 132.19,252.33 264.42,384.6 264.77,384.95 10.81,10.81 -5.51,44.7 -36.4,75.58 -30.88,30.89 -64.77,47.21 -75.58,36.4 l -4.19,-4.32 c -61.81,-57.89 -769.17,-708.72 -1663.59,-1054.06 -411.48,-158.84 -720.68,-123.14 -903.57,-15.97 -44.12,25.94 -76.24,54.93 -95.92,84.09 l -1.76,2.56 c -24.67,37.68 -37.55,80.75 -37.55,124.69 0,76.37 39.93,148.91 124.25,199.47 370.4,222.24 1312.83,545.7 1315.52,546.58 15.8,5.43 5.43,36.05 -23.16,68.3 -27.89,31.46 -62.96,52.86 -79.33,48.89 -39.49,-5.7 -896.11,-127.82 -2110.2,-55.33 -444.39,26.51 -675.5,93.58 -766.87,169.34 l -0.53,0.44 c -7.06,6.44 -10.85,18.22 -11.83,33.44 -2.07,32.74 12.8,66.14 40.38,97.46 64.94,73.6 198.14,131.93 349.75,147.11 442.67,44.25 459.7,35.6 460.14,35.29 32.34,-22.72 55.19,-22.15 51.09,1.24 -4.1,23.38 -33.75,60.84 -66.09,83.56 l -2.87,1.94 c -1.63,1.06 -572.56,384.74 -1111.24,995.21 -173.58,196.73 -303.29,398.33 -386.99,585.31 l -1.41,3.05 c -73.42,164.92 -111.1,318.77 -111.63,448.23 -0.49,130.9 36.88,236.8 113.48,304.39 21.97,19.37 47.43,35.78 76.2,48.62 329.54,147.45 717.98,-241.56 719.09,-242.67 31.28,-30.26 64.28,-44.91 73.59,-32.69 8.03,10.54 -4.15,37.68 -27.71,64.33 -28.54,32.96 -539.51,627.58 -380.5,845.19 49.11,67.24 113.26,60.53 185.93,7.45 l 1.98,-1.41 c 155.27,-114.93 380.11,-436.01 589.02,-734.31 l 70.42,-100.33 c 346.44,-492.44 406.4,-603.23 406.54,-603.54 14.16,-29.47 49.68,-64.99 79.15,-79.15 29.47,-14.17 41.87,-1.77 27.71,27.71 l -0.22,0.44 c -26.17,58.55 -512.56,1163.17 -227.62,1688.52 239.93,442.45 533.64,-538.59 534.48,-541.37 7.86,-25.94 40.02,-63.18 71.79,-83.08 25.54,-16.01 43.11,-15.97 44.87,-1.85 0.4,3.04 129.41,1089.14 486.92,1309.17 260.1,160.07 313.44,-628.91 313.57,-631.11 1.46,-21.49 29.12,-58.9 61.77,-83.48 30.14,-22.68 53.97,-26.61 56.35,-10.19 13.37,48.27 329.1,1176.98 617.48,1384.22 49.19,35.34 92.61,55.5 130.55,62.56 38.17,7.11 61.9,4.68 73.2,-5.12 8.43,-7.32 19.59,-33.53 32.34,-73.99 31.77,-100.51 41.08,-239.05 30.62,-389.28 -28.02,-401.95 26.25,-681.37 26.34,-682.12 4.1,-23.38 33.75,-60.84 66.09,-83.56 26.52,-18.62 46.69,-21.62 50.92,-9.27 z m 988.32,2324.01 c -419.29,-354.03 -843.69,-1465.36 -1020.13,-1968.61 -2.82,93.71 -1.9,203.13 6.53,324.16 10.94,157.03 0.48,304 -34.15,413.64 -25.59,81 -68.48,151.38 -130.47,205.21 -59.12,51.26 -122.61,74.83 -189.06,62.47 -41.96,-7.81 -88.86,-29.21 -140.52,-66.36 -214.88,-154.42 -442.81,-804.59 -554.88,-1161.32 -62.29,304.57 -200.62,683.05 -493.23,502.94 -275.14,-169.33 -417.12,-831.29 -470.86,-1151.21 -140.62,362.63 -421.45,926.19 -673.91,460.67 -208.3,-383.99 -17.43,-1067.03 121.07,-1454.07 -55.07,80.84 -123.1,179.18 -206.89,298.27 l -69.84,99.58 c -226.96,324.11 -471.13,672.76 -681.28,828.77 l -4.77,3.58 c -122.83,89.74 -224.31,110.48 -289.7,20.96 -126.18,-172.7 108.45,-546.49 279.34,-776.98 -174.99,121.02 -433.89,248.31 -655.87,149 -30.53,-13.64 -57.75,-31.2 -81.4,-52.07 -81.72,-72.09 -121.6,-184.95 -121.07,-324.33 0.57,-138.94 41.52,-305.15 121.29,-484.41 l 1.45,-3.49 c 93.63,-209.22 240.2,-436.36 437.47,-659.97 403.88,-457.71 826.66,-797.23 1043.16,-959.2 -80.39,2.87 -208.92,-0.44 -412.84,-20.82 -157.69,-15.75 -296.77,-77.08 -365.2,-154.6 -31.81,-36.14 -48.8,-76.73 -46.1,-119 3.75,-58.55 40.59,-121.91 118.29,-187.16 l 3.22,-2.74 c 125.21,-103.77 392.46,-192.72 865.7,-220.96 634.38,-37.85 1171.69,-22.72 1546.72,1.28 -293.32,-111.89 -650.83,-258.37 -847.66,-376.48 -91.2,-54.72 -134.44,-135.5 -134.39,-221.8 0.04,-62.04 22.72,-129.5 66.44,-195.68 l 3.05,-4.63 c 51.8,-76.69 125.79,-146.84 219.41,-201.68 207.6,-121.56 544.46,-167.44 972.53,-2.17 512.2,197.76 963.3,495.22 1267.96,725.23 -43.33,-105.8 -68.7,-234.11 -60.89,-336.52 4.06,-53.65 18.58,-104.65 45.67,-148.24 l 4.98,-7.99 c 48.76,-72.67 109.12,-117.89 181.47,-122.52 51.23,-3.27 116.71,16.36 198.24,67.32 326.01,203.71 289.97,610.47 267.33,746.89 115.2,-83.3 377.29,-274.43 685.08,-509.78 242.18,-185.22 526.85,-244.87 702.72,-225.46 47.78,5.25 88.06,16.37 117.54,32.26 30.75,16.59 50.16,39 54.71,66 7.15,42.31 -17.56,96.36 -81.98,160.78 -105.18,105.18 -311.98,224.4 -506.56,323.32 38.79,-3.04 78.19,-4.54 118.25,-4.54 623.57,0 1415.46,359.54 2088.09,797.8 671.48,437.51 1225.56,954.61 1374.82,1270.61 l 0.49,0.92 c 26.34,55.95 40.28,106.29 40.28,149.53 0,218.89 -93.85,301.7 -200.18,325.31 91.6,75.98 221.75,186.15 402.25,342.87 l 146.13,125.43 c 427.81,364.89 878.59,749.45 789.29,1162.69 -77.78,359.94 -529.41,281.41 -870.38,165.15 l 153.45,157.86 c 157.96,164.05 379.84,407.16 474.04,586.51 141.15,268.61 100.03,443.9 -399.07,314.89 -346.58,-89.61 -700.56,-272.36 -935.64,-393.74 l -2.96,-1.54 c 81.41,114.58 149.04,241.65 175.69,353.72 17.65,74.26 17.25,144.9 -8.6,205.39 -40.72,95.3 -115.03,165.1 -232.04,196.16 -105.75,28.06 -266.44,18.97 -498.35,-45.09 -493.63,-136.38 -986.37,-466.45 -1338.42,-744.46 l 41.96,62.21 c 17.03,25.59 37.24,54.09 60.14,86.43 134.52,190.17 364.53,515.12 348.29,745.39 -15.84,224.62 -181.69,380.06 -646.46,347.28 -771.78,-54.49 -1499.03,-954.39 -1821.34,-1412.42 16.06,91.2 36.62,205.04 62.92,347.06 64.15,346.58 138.5,842.41 113.92,1165.56 -8.38,110.96 -29.74,205.74 -68.39,273.6 -64.1,112.46 -144.18,169.6 -243.59,150.49 -50.17,-9.61 -110.48,-42.49 -182.31,-103.15 z m 4028.2,-1769.93 c -18.14,15.62 -0.4,9.48 27.31,5.25 -11.47,-8.56 -19.9,-11.34 -26.78,-5.74 z"
     id="path35" /><path
     class="fil10"
     d="m 8949.33,5221.16 c -627.68,-1.72 -1546.38,6.56 -1760.51,29.1 -327.63,34.47 -232.79,215.52 120.69,258.65 353.48,43.13 1267.39,-34.46 1267.39,-34.46 0,0 -853.6,284.49 -1508.81,706.96 -655.21,422.46 -1051.82,1051.87 -620.74,974.27 431.08,-77.6 1388.98,-639.8 1388.98,-639.8 0,0 -613.04,812.19 -423.37,1105.35 189.66,293.16 829.17,-806.63 829.17,-806.63 0,0 -441.18,1461.84 -156.68,1582.57 284.5,120.73 637.5,-1321.86 637.5,-1373.57 0,-51.7 -128.82,1261.55 224.66,1494.3 353.48,232.75 325.67,-1503.92 325.67,-1503.92 0,0 385.84,1976.94 907.2,1788.42 521.37,-188.51 236.2,-1450.88 236.2,-1450.88 0,0 810.46,1849.36 1396.74,1780.38 586.28,-68.98 -615.58,-2200.4 -615.58,-2200.4 0,0 1370.46,2035.96 2198.1,1984.21 827.65,-51.75 -766.89,-1811.78 -766.89,-1811.78 0,0 1203.43,1361.12 1677.64,1249.01 474.22,-112.11 -617.2,-1136.94 -617.2,-1136.94 0,0 1049.15,689.01 1350.88,576.94 301.73,-112.06 -1497.46,-1378.74 -1497.46,-1378.74 0,0 796.62,536.35 1051.87,353.49 255.25,-182.87 -1195.34,-1279.08 -1910.92,-1494.59 -715.58,-215.52 -1736.19,-156.92 -1736.19,-156.92 369.9,-112.12 853.73,-599.64 475.55,-504.71 -200.68,50.36 -1036.94,594.47 -1015.44,563.64 239.64,-343.91 -104.55,-637.55 -164.2,-358.75 -10.92,50.93 16.08,283.68 84.83,382.2 0,0 -944.6,-579 -961.83,-441.03 -15.27,122.26 319.78,407.09 396.23,470.28 -231.51,-114.12 -954.55,-453.91 -1023.87,-281.91 -44.66,110.73 79.47,208.86 210.39,275.26 z"
     id="path36" /><path
     class="fil5"
     d="m 7267.53,11924.04 c -41.38,-28.72 -79.72,-76.68 -85.5,-107.04 -5.78,-30.35 23.12,-31.63 64.5,-2.91 l 2908.26,2021.11 c 0.84,-102.27 4.28,-369.07 15.14,-592.15 55.24,302.36 121.77,671.7 133.77,738.55 l 1.37,5.65 c 5.78,30.35 -23.12,31.63 -64.5,2.91 z m 2897.24,1267.65 c 14.91,-303.46 -81.32,-441.12 0,0 z"
     id="path37" /><path
     class="fil11"
     d="m 7816.7,12302.46 c 0,0 -136.34,1002.37 443.24,1472.9 579.58,470.52 1965.64,147.44 1965.64,147.44 z"
     id="path38" /><path
     class="fil12"
     d="m 7816.71,12302.47 c 0,0 -9.66,70.99 -12.88,184.03 l 1946.02,1308.99 c 0,0 -701.71,163.52 -1315.35,88.38 643.33,306.38 1791.06,38.91 1791.06,38.91 z"
     id="path39" /><path
     class="fil5"
     d="m 7903.06,12418.02 c -17.87,185.23 -64.29,958.67 361.53,1304.36 435.87,353.86 1442.68,196.83 1774.83,132.63 z m 352.26,1410.34 c -674.17,-547.32 -529.76,-1597.98 -529.41,-1600.94 3.13,-22.9 33.36,-21.09 75.36,7.19 l 2402.81,1616.26 c 22.72,14.29 47.52,35.65 69,60.66 42.85,49.86 56.3,95.39 30.09,101.57 -4.05,0.93 -1414,329.85 -2047.85,-184.74 z"
     id="path40" /><path
     class="fil5"
     d="m 10233.86,13985.83 c 24.88,-21.22 47.43,-27.57 50.21,-14.25 2.78,13.33 -15.18,41.39 -40.06,62.61 -0.88,0.75 -315.74,276.91 -653.04,442.85 -338.72,166.51 -643.6,57.62 -644.44,57.35 -11.96,-4.36 -3.79,-27.97 18.22,-52.63 22.02,-24.67 49.59,-41.12 61.55,-36.76 0.8,0.27 291.29,103.95 602.88,-49.23 312.73,-153.86 603.84,-409.23 604.68,-409.94 z"
     id="path41" /><path
     class="fil5"
     d="m 10931.15,13901.52 c -24.62,-22.28 -40.63,-49.77 -35.78,-61.29 4.86,-11.51 28.81,-2.82 53.43,19.46 0.84,0.75 307.18,269.36 639.45,432.79 331.18,162.89 640.38,52.59 641.22,52.33 12.22,-4.06 39.97,12.7 61.9,37.45 21.93,24.76 29.74,48.23 17.52,52.29 -0.88,0.26 -323.5,115.73 -682.34,-60.8 -357.73,-175.91 -694.47,-471.39 -695.4,-472.23 z"
     id="path42" /><path
     class="fil5"
     d="m 10209.02,13914.71 c 24.09,-14.6 38.16,-10.02 31.46,10.28 -6.71,20.3 -31.81,48.71 -55.9,63.31 -1.68,1.02 -587.97,356.99 -1060.73,329.15 -14.95,-0.84 -10.72,-21.97 9.4,-47.03 20.12,-25.06 48.62,-44.7 63.58,-43.86 454.54,26.74 1010.6,-310.88 1012.19,-311.85 z"
     id="path43" /><path
     class="fil5"
     d="m 10994.29,13858.94 c -24.09,-14.6 -49.19,-43.02 -55.9,-63.31 -6.71,-20.3 7.37,-24.89 31.46,-10.28 1.59,0.97 557.65,338.54 1012.19,311.85 14.95,-0.84 43.46,18.79 63.58,43.85 20.12,25.06 24.35,46.2 9.39,47.04 -472.76,27.79 -1059.04,-328.13 -1060.72,-329.15 z"
     id="path44" /><path
     class="fil5"
     d="m 10411.23,13274.11 c -6.49,-20.16 7.9,-24.49 32.12,-9.62 24.22,14.87 49.19,43.37 55.68,63.54 l 83.34,257.36 73.03,-757.79 c 1.45,-14.43 22.89,-9.57 47.87,10.86 24.97,20.42 44.03,48.75 42.57,63.18 l -88.46,918.34 c 0.53,13.15 -12.97,14.47 -33.66,1.77 -24.23,-14.87 -49.2,-43.38 -55.68,-63.54 z"
     id="path45" /><path
     class="fil5"
     d="m 10938.61,12900.84 c 0.04,-25.98 33.97,-20.6 75.76,12.09 41.78,32.7 75.62,80.35 75.58,106.34 0,36.26 -11.87,374.01 -19.95,600.58 L 13817.31,12327 c 18.62,-8.73 64.07,17.3 101.44,58.11 37.37,40.81 52.55,81.05 33.93,89.79 l -2896.62,1363.13 c -12.09,7.36 -39.62,-2.56 -71.08,-27.67 -41.78,-33.31 -74.74,-80.78 -73.68,-105.98 0.04,-2.11 27.31,-749.44 27.31,-803.54 z"
     id="path46" /><path
     class="fil11"
     d="m 11122.35,13735.96 c 0,0 504.66,163.67 947.85,170.47 443.19,6.8 1050.1,-395.47 1268.3,-709.17 218.2,-313.7 156.82,-579.62 156.82,-579.62 z"
     id="path47" /><path
     class="fil12"
     d="m 11122.33,13735.97 c 0,0 504.66,163.65 947.86,170.44 118.69,1.81 249.02,-25.67 380.59,-72.97 -397,-34.64 -790.12,-162.06 -790.12,-162.06 l 1836.02,-865.31 c 15.53,-115.11 -1.37,-188.44 -1.37,-188.44 z"
     id="path48" /><path
     class="fil5"
     d="m 11353.35,13690.35 c 181.83,48.62 498.13,120.76 788.45,125.17 194.75,3.01 421.36,-76.72 628.03,-192.28 219.9,-122.92 411.12,-281.62 503.02,-413.72 151.52,-217.83 144.99,-417.79 136.52,-488.12 z m 645.23,306.95 c -430.89,-6.61 -918.03,-159.85 -953.2,-171.1 -16.23,-3.48 -18.97,-22.19 -4.32,-51.97 22.37,-45.49 76.95,-99.54 121.82,-120.63 l 2372.8,-1118.26 c 26.65,-12.53 46.2,-11.56 49.82,5.25 0.17,0.8 66.58,287.94 -181.34,644.4 -141.45,203.35 -406.01,430.93 -695.05,592.5 -236.18,132.01 -492.96,223.12 -710.53,219.81 z"
     id="path49" /><path
     class="fil5"
     d="m 10272.42,14468.43 c -23.69,23.7 -49.72,36.23 -58.02,27.93 -8.29,-8.29 4.24,-34.32 27.93,-58.02 40.28,-40.28 211.74,-63.93 394.93,-52.15 136.69,8.74 288.11,30.84 403.14,70.15 75.4,25.77 129.67,77.53 154.51,138.59 15.8,38.91 19.9,82.51 10.19,126.27 -11.69,52.77 -43.37,108.1 -97.99,161.31 -93.14,90.8 -252.29,159.28 -489.66,161.93 -613.51,6.84 -683.92,-154.56 -684.1,-154.96 -5.12,-11.25 10.59,-38.56 35.12,-60.93 24.53,-22.37 48.62,-31.41 53.74,-20.16 0.18,0.35 65.78,151.78 666.01,145.07 209.31,-2.34 332.72,-46.15 391.98,-103.95 17.73,-17.3 29.34,-40.94 35.25,-67.59 7.9,-35.57 4.01,-72.32 -9.84,-106.42 -23.16,-56.97 -74.04,-105.32 -144.81,-129.5 -113.43,-38.74 -262.34,-60.49 -396.69,-69.1 -160.43,-10.32 -286.39,-13.76 -291.69,-8.47 z"
     id="path50" /><path
     class="fil5"
     d="m 7547.88,12836.91 c 2.69,-17.65 25.15,-46.41 50.03,-64.15 24.89,-17.74 42.85,-17.83 40.16,-0.18 -4.95,32.04 -3.18,211.79 78.62,446.78 46.33,133.15 118.47,283.39 229.56,432.92 7.06,9.44 -6.75,36 -30.79,59.21 -24.05,23.2 -49.33,34.32 -56.39,24.88 -112.29,-151.11 -185.18,-302.89 -231.95,-437.33 -83.43,-239.8 -84.49,-428.15 -79.24,-462.13 z"
     id="path51" /><path
     class="fil5"
     d="m 12925.49,13853.25 c -18.4,3.79 -19.59,-13.15 -2.65,-37.9 16.94,-24.75 45.66,-47.96 64.06,-51.76 0.66,-0.13 252.38,-50.47 473.25,-430.62 240.81,-414.48 196.74,-568.81 196.65,-569.21 -3.18,-13.02 14.43,-41.03 39.31,-62.48 24.88,-21.44 47.7,-28.28 50.87,-15.26 0.09,0.44 48.93,171.63 -211.12,619.24 -279.95,481.85 -609.45,547.81 -610.37,547.99 z"
     id="path52" /><path
     class="fil2"
     d="m 5571.69,13158.78 c 0,0 -177.7,-41.37 -281.01,111.54 -103.3,152.9 62,272.72 62,272.72 0,0 -37.2,-41.32 82.62,-107.43 119.82,-66.11 219.01,-78.5 219.01,-78.5 0,0 33.03,-107.43 16.52,-132.22 -16.52,-24.8 -99.14,-66.11 -99.14,-66.11 z"
     id="path53" /><path
     class="fil2"
     d="m 15433.29,13141.06 c 0,0 97.28,-42.89 194.55,51.51 97.28,94.4 11.44,294.65 11.44,294.65 0,0 -31.5,-100.1 -134.47,-105.84 -102.97,-5.75 -125.85,-25.76 -125.85,-25.76 z"
     id="path54" /><path
     class="fil2"
     d="m 9974.3,14918.14 c 0,0 307.38,304.31 617.83,350.41 310.44,46.1 70.7,-267.45 70.7,-267.45 0,0 -387.27,12.3 -497.95,-30.74 -110.68,-43.03 -190.58,-52.22 -190.58,-52.22 z"
     id="path55" /><path
     class="fil13"
     d="m 10278.69,14515.29 c 0,0 611.3,-9.79 698.04,61.55 86.74,71.34 -278.36,206.97 -593.12,120.27 -314.76,-86.69 -104.92,-181.82 -104.92,-181.82 z"
     id="path56" /><path
     class="fil14"
     d="m 8423.76,13561.05 c -123.51,-44.92 -364.97,-202.14 -404.24,-443.56 -39.28,-241.42 190.9,-252.7 342.48,-39.32 151.59,213.38 258.3,426.72 190.91,460.4 -67.4,33.68 -129.15,22.48 -129.15,22.48 z"
     id="path57" /><path
     class="fil14"
     d="m 13123.01,13347.67 c -101.07,78.59 -578.31,370.56 -538.99,190.9 39.31,-179.66 673.73,-539.03 707.41,-443.56 33.68,95.47 -168.42,252.66 -168.42,252.66 z"
     id="path58" /></g>
 </svg>
